<svg width="24" height="24" viewBox="0 0 24 24" fill="none" xmlns="http://www.w3.org/2000/svg">
<path fill-rule="evenodd" clip-rule="evenodd" d="M12 1.5C9.51472 1.5 7.5 3.51472 7.5 6C7.5 8.48528 9.51472 10.5 12 10.5C14.4853 10.5 16.5 8.48528 16.5 6C16.5 3.51472 14.4853 1.5 12 1.5ZM12 2.5C13.933 2.5 15.5 4.067 15.5 6C15.5 7.933 13.933 9.5 12 9.5C10.067 9.5 8.5 7.933 8.5 6C8.5 4.067 10.067 2.5 12 2.5ZM12 11.5C6.74707 11.5 2.5 15.983 2.5 21.5C2.5 21.7761 2.72386 22 3 22H21C21.2761 22 21.5 21.7761 21.5 21.5C21.5 15.983 17.2529 11.5 12 11.5ZM12.2503 12.5038C16.5721 12.6363 20.0936 16.1883 20.4672 20.7039L20.486 21H3.513L3.51445 20.9706C3.77339 16.2413 7.47924 12.5 12 12.5L12.2503 12.5038Z" fill="#4195B9"/>
</svg>
