<svg width="24" height="24" viewBox="0 0 24 24" fill="none" xmlns="http://www.w3.org/2000/svg">
<path d="M19.7501 13.6001L20.0501 13.3501L19.4501 12.6001L19.0001 12.9501L18.3501 12.5001L16.4001 11.1001H14.0501C13.4501 11.1001 12.7501 10.4001 12.7501 9.7501V9.3001H10.4501L9.50007 10.6001C9.40007 10.7501 9.25007 10.8501 9.05007 10.8501C8.90007 10.8501 8.70007 10.8501 8.60007 10.7501C8.45007 10.6501 8.40007 10.5001 8.35007 10.3501C8.30007 10.2001 8.35007 10.0001 8.45007 9.8501L9.20007 8.8001C9.50007 8.3501 10.1501 8.3001 10.3501 8.3001H16.1001L15.5001 7.3501H10.4501C10.2501 7.3501 9.95007 7.3501 9.60007 7.4501C9.25007 7.5501 8.90007 7.7001 8.65007 8.0501L8.20007 7.8501L7.60007 8.6501L8.05007 8.8501L7.75007 9.3001C7.50007 9.6001 7.40007 10.0001 7.45007 10.3501C7.45007 10.4001 7.45007 10.4501 7.45007 10.5001C7.50007 10.9501 7.75007 11.3001 8.05007 11.5501C8.40007 11.8001 8.80007 11.9001 9.25007 11.8501C9.70007 11.8001 10.0501 11.5501 10.3001 11.2001L10.9501 10.3001H11.8501C12.1001 11.3001 13.1001 12.1501 14.0501 12.1501H16.0501L18.7501 14.0501C18.9001 14.1501 19.0001 14.3001 19.0001 14.5001C19.0501 14.6501 19.0001 14.8501 18.9001 14.9501C18.8001 15.1001 18.6501 15.1501 18.5001 15.2001C18.3501 15.2001 18.1501 15.2001 18.0001 15.1001L15.6501 13.4001L15.0001 12.9001L14.5001 13.6501L17.1001 15.5001C17.4001 15.7001 17.4501 16.1001 17.2501 16.4001C17.0501 16.7001 16.6501 16.7501 16.3501 16.5501L13.7501 14.7001L13.2001 15.5001L15.2501 17.0001C15.5501 17.2001 15.6001 17.6001 15.4001 17.9001C15.2001 18.2001 14.8001 18.2501 14.5001 18.0501L13.9001 17.5001C13.8501 17.4001 13.7501 17.3501 13.6501 17.3001L13.3501 17.1001C13.3001 16.6501 13.1001 16.2501 12.7001 16.0001C12.5001 15.8501 12.3001 15.8001 12.1001 15.7501C12.2501 15.4501 12.3001 15.1001 12.2501 14.8001C12.2001 14.3501 11.9501 14.0001 11.6001 13.7501C11.0501 13.3501 10.2501 13.3501 9.70007 13.8001C9.60007 13.6001 9.45007 13.4001 9.25007 13.2501C8.70007 12.8501 7.85007 12.8501 7.30007 13.3001C7.20007 13.1001 7.05007 12.9001 6.85007 12.7501C6.55007 12.5501 6.15007 12.4501 5.80007 12.4501C5.40007 12.5001 4.95007 12.6501 4.70007 13.0001L4.45007 12.8001L3.90007 13.5001L4.15007 13.7001C3.95007 14.0501 3.85007 14.4501 3.90007 14.8501V14.9001C3.95007 15.3001 4.20007 15.6501 4.50007 15.9001C4.75007 16.1001 5.10007 16.2001 5.45007 16.2001C5.45007 16.7001 5.70007 17.2001 6.10007 17.5001C6.40007 17.7501 6.80007 17.8501 7.15007 17.8001C7.15007 17.8001 7.15007 17.8501 7.15007 17.9001C7.20007 18.3501 7.45007 18.7001 7.80007 18.9501C8.30007 19.3001 8.95007 19.3501 9.50007 19.0501C9.60007 19.3001 9.80007 19.5501 10.0001 19.7001C10.5001 20.0501 11.1501 20.1001 11.7001 19.8001L11.8001 19.9001C12.1001 20.1001 12.4001 20.2001 12.7501 20.2001C12.8501 20.2001 12.9501 20.2001 13.0001 20.2001C13.4001 20.1501 13.8001 19.9001 14.0501 19.5501C14.2001 19.3501 14.2501 19.1501 14.3001 18.9501C14.9501 19.2501 15.8001 19.0001 16.2501 18.4001C16.4001 18.1501 16.5001 17.9001 16.5501 17.6001C17.1501 17.7001 17.7501 17.4501 18.1001 16.9501C18.3001 16.7001 18.4001 16.4001 18.4001 16.1001C18.9501 16.1501 19.5001 15.9001 19.8001 15.4501C19.9501 15.2001 20.0501 14.9501 20.1001 14.7001C20.1001 14.5501 20.1001 14.4001 20.1001 14.2501C20.0001 14.0001 19.9001 13.8001 19.7501 13.6001ZM5.95007 15.0001C5.75007 15.2501 5.35007 15.3001 5.10007 15.1001C5.00007 15.0001 4.90007 14.8501 4.85007 14.7001C4.85007 14.5501 4.85007 14.3501 4.95007 14.2001L5.40007 13.6001C5.60007 13.3001 6.00007 13.2501 6.30007 13.4501C6.45007 13.5501 6.50007 13.7001 6.55007 13.8501C6.60007 14.0001 6.55007 14.2001 6.45007 14.3501L5.95007 15.0001ZM7.55007 16.5501C7.35007 16.8001 6.90007 16.9001 6.65007 16.7001C6.40007 16.5001 6.30007 16.1001 6.55007 15.8001L7.80007 14.1001C8.00007 13.8001 8.40007 13.7501 8.70007 13.9501C9.00007 14.1501 9.05007 14.5501 8.80007 14.8501L7.55007 16.5501ZM9.25007 18.0001C9.15007 18.1501 9.00007 18.2001 8.80007 18.2501C8.65007 18.2501 8.45007 18.2501 8.35007 18.1501C8.20007 18.0501 8.15007 17.9001 8.10007 17.7501C8.10007 17.6001 8.10007 17.4001 8.20007 17.2501L9.55007 15.4501L10.1501 14.6501C10.3501 14.4001 10.7501 14.3001 11.0501 14.5001C11.2001 14.6001 11.2501 14.7501 11.3001 14.9001C11.3001 15.1001 11.3001 15.2501 11.2001 15.4001L9.25007 18.0001ZM11.4501 18.7501C11.3501 18.9001 11.2001 19.0001 11.0001 19.0001C10.8501 19.0501 10.6501 19.0001 10.5501 18.9001C10.3001 18.7001 10.2001 18.3001 10.4001 18.0501L11.2501 16.9001C11.4501 16.6501 11.8501 16.6001 12.1001 16.7501C12.4001 16.9501 12.4501 17.3501 12.2001 17.6501L11.4501 18.7501ZM13.2501 18.9501C13.1501 19.1001 13.0001 19.1501 12.8501 19.2001C12.7001 19.2501 12.5501 19.2001 12.4001 19.1001L13.0501 18.2001C13.0501 18.1501 13.1001 18.1501 13.1001 18.1001L13.2001 18.2001C13.4001 18.4501 13.4001 18.7501 13.2501 18.9501Z" fill="#4195B9"/>
<path d="M18.7 4.9502L15.6 7.3002L16.2 8.2502L19.45 12.5502L20.05 13.3002L20.7 14.1502L23.9 11.7002L18.7 4.9502ZM16.85 7.5502L18.5 6.3002L22.55 11.6002L20.9 12.8502L16.85 7.5502Z" fill="#699C69"/>
<path d="M5.35002 4.9502L0.150024 11.8002L3.35002 14.2502L3.90002 13.5002L4.50002 12.7502L7.65002 8.6002L8.25002 7.8002L8.60002 7.3502L5.35002 4.9502ZM3.15002 12.8502L1.50002 11.6002L5.55002 6.3002L7.20002 7.5502L3.15002 12.8502Z" fill="#699C69"/>
</svg>
