<svg width="24" height="24" viewBox="0 0 24 24" fill="none" xmlns="http://www.w3.org/2000/svg">
<path fill-rule="evenodd" clip-rule="evenodd" d="M7.57728 6.10638C7.57728 3.66835 9.5534 1.69214 11.9915 1.69214C14.4295 1.69214 16.4058 3.66844 16.4058 6.10638C16.4058 8.54414 14.4294 10.5206 11.9915 10.5206C9.55348 10.5206 7.57728 8.54422 7.57728 6.10638ZM8.99152 6.10638C8.99152 7.76319 10.3346 9.10638 11.9915 9.10638C13.6483 9.10638 14.9915 7.76308 14.9915 6.10638C14.9915 4.4495 13.6484 3.10638 11.9915 3.10638C10.3345 3.10638 8.99152 4.44939 8.99152 6.10638ZM11.7 12.25C12.8867 12.25 14.0454 12.4427 15.1341 12.8144C15.5261 12.9482 15.7353 13.3745 15.6015 13.7665C15.4676 14.1585 15.0414 14.3678 14.6494 14.2339C13.7166 13.9155 12.7217 13.75 11.7 13.75C7.39432 13.75 3.8829 16.6838 3.48709 20.3995L14.25 20.4C14.6642 20.4 15 20.7358 15 21.15C15 21.5642 14.6642 21.9 14.25 21.9H2.74995C2.5299 21.9 2.33198 21.8053 2.19479 21.6543C2.04472 21.518 1.94995 21.3201 1.94995 21.1C1.94995 16.1937 6.33176 12.25 11.7 12.25Z" fill="#4195B9"/>
<path fill-rule="evenodd" clip-rule="evenodd" d="M18 12.3877C18.3222 12.3877 18.5833 12.6489 18.5833 12.971L18.583 17.0537L22.6667 17.0544C22.9566 17.0544 23.1972 17.2659 23.2424 17.5431L23.25 17.6377C23.25 17.9599 22.9888 18.221 22.6667 18.221L18.583 18.2207L18.5833 22.3044C18.5833 22.5943 18.3718 22.8349 18.0946 22.8801L18 22.8877C17.6778 22.8877 17.4167 22.6265 17.4167 22.3044L17.416 18.2207L13.3333 18.221C13.0434 18.221 12.8028 18.0095 12.7576 17.7323L12.75 17.6377C12.75 17.3155 13.0112 17.0544 13.3333 17.0544L17.416 17.0537L17.4167 12.971C17.4167 12.6811 17.6282 12.4405 17.9054 12.3953L18 12.3877Z" fill="#699C69"/>
</svg>
