<svg width="24" height="24" viewBox="0 0 24 24" fill="none" xmlns="http://www.w3.org/2000/svg">
<g clip-path="url(#clip0_121_1025)">
<path d="M12.8001 4.30034C13.9501 4.30034 14.9001 3.35034 14.9001 2.20034C14.9001 1.05034 13.9501 0.100342 12.8001 0.100342C11.6501 0.100342 10.7001 1.05034 10.7001 2.20034C10.7001 3.35034 11.6501 4.30034 12.8001 4.30034ZM12.8001 1.20034C13.3501 1.20034 13.8001 1.65034 13.8001 2.20034C13.8001 2.75034 13.3501 3.20034 12.8001 3.20034C12.2501 3.20034 11.8001 2.75034 11.8001 2.20034C11.8001 1.65034 12.2501 1.20034 12.8001 1.20034Z" fill="#4195B9"/>
<path d="M19.6001 16.2504C21.2001 16.4504 22.4501 17.7504 22.5001 19.4004C22.5501 21.1504 21.1501 22.6504 19.4001 22.7004C17.6001 22.8004 16.0501 21.4004 15.9501 19.5504C15.9001 18.5504 16.3501 17.6504 17.0001 17.0504C17.1501 16.9004 17.2001 16.6504 17.1501 16.4504C17.0001 16.1004 16.5501 16.0004 16.2501 16.2504C15.3501 17.1004 14.8001 18.3004 14.8501 19.6004C14.9501 22.0004 16.9501 23.9004 19.4001 23.8004C21.8001 23.7004 23.7001 21.7004 23.6001 19.3004C23.5001 17.1004 21.8501 15.3504 19.7001 15.1004C19.3501 15.0504 19.1001 15.3504 19.1001 15.7004C19.1001 16.0004 19.3001 16.2504 19.6001 16.2504Z" fill="#699C69"/>
<path d="M7.75005 20.6004C7.25005 22.0004 5.75005 22.9504 4.10005 22.7004C2.85005 22.5004 1.80005 21.4504 1.50005 20.1504C1.10005 18.0504 2.70005 16.2504 4.70005 16.2504C4.90005 16.2504 5.10005 16.2504 5.25005 16.3004C5.45005 16.3504 5.65005 16.2504 5.80005 16.0504C6.05005 15.7004 5.85005 15.2504 5.45005 15.2004C5.20005 15.1504 4.95005 15.1504 4.70005 15.1504C2.30005 15.1504 0.300049 17.1004 0.300049 19.5004C0.300049 21.9004 2.25005 23.8504 4.70005 23.8504C6.55005 23.8504 8.15005 22.6504 8.80005 21.0004C8.95005 20.6504 8.65005 20.2504 8.25005 20.2504C8.05005 20.2504 7.85005 20.4004 7.75005 20.6004Z" fill="#699C69"/>
<path d="M19.75 19.3504L19 17.0004L17.9 13.6004C17.9 13.5504 17.9 13.5504 17.85 13.5004C17.85 13.5004 17.85 13.5004 17.85 13.4504L16.6 9.60039H17.6C18 9.60039 18.35 9.45039 18.6 9.15039C19 8.65039 19 8.00039 18.65 7.55039C18.45 7.30039 18.1 7.25039 17.85 7.45039C17.6 7.65039 17.55 8.00039 17.75 8.25039C17.8 8.35039 17.8 8.40039 17.75 8.45039C17.75 8.50039 17.7 8.55039 17.6 8.55039H17.2C17.25 8.30039 17.25 8.10039 17.2 7.85039C17.1 7.50039 16.85 7.15039 16.5 7.00039L12.4 4.70039C12.05 4.50039 11.65 4.40039 11.25 4.40039C10.25 4.40039 9.35005 5.10039 9.05005 6.05039L7.50005 10.6004C7.20005 11.5004 7.45005 12.5004 8.15005 13.1004C8.20005 13.1504 8.25005 13.1504 8.30005 13.2004L8.40005 13.2504H7.00005C6.70005 13.2504 6.45005 13.5004 6.45005 13.8004C6.45005 14.1004 6.70005 14.3504 7.00005 14.3504H7.50005L5.70005 17.0504L4.25005 19.3004C4.15005 19.4504 4.15005 19.7004 4.25005 19.8504C4.35005 20.0504 4.55005 20.1504 4.75005 20.1504H9.30005H10.15C10.45 20.9004 11.25 21.3504 12.15 21.2004C12.8 21.0504 13.35 20.5004 13.5 19.8504C13.6 19.4004 13.5 19.0004 13.3 18.6504C13.3 18.6004 13.3 18.5504 13.3 18.5004L17.1 14.8004L17.9 17.3504L18.65 19.7504C18.75 20.0004 18.95 20.1504 19.2 20.1504C19.25 20.1504 19.3 20.1504 19.35 20.1004C19.65 19.9504 19.8 19.6504 19.75 19.3504ZM8.60005 10.8004L10.15 6.25039C10.3 5.75039 10.8 5.40039 11.3 5.40039C11.5 5.40039 11.7 5.45039 11.85 5.55039L15.95 7.85039C16.05 7.90039 16.1 7.95039 16.1 8.05039C16.1 8.15039 16.1 8.20039 16.05 8.30039C15.95 8.45039 15.75 8.50039 15.6 8.40039L11.5 6.10039C11.25 5.95039 10.9 6.05039 10.75 6.30039C10.6 6.55039 10.7 6.90039 10.95 7.05039L11.2 7.20039L9.95005 11.0004C9.90005 11.2004 9.95005 11.4504 10.1 11.6004L12.3 13.6504C12.5 13.8504 12.6 14.1004 12.6 14.4004L12.2 18.2504C12.2 18.4504 12 18.5504 11.85 18.5504C11.65 18.5504 11.55 18.3504 11.55 18.2004L11.95 14.6504C11.95 14.4504 11.9 14.2504 11.7 14.1504L9.00005 12.1504L8.95005 12.1004C8.55005 11.8004 8.45005 11.3004 8.60005 10.8004ZM10.4 18.2504C10.25 18.4504 10.1 18.7004 10.05 18.9504H9.30005H5.75005L6.70005 17.5004L8.65005 14.5504L10.45 18.1504C10.4 18.2004 10.4 18.2004 10.4 18.2504ZM10.65 16.1004L9.75005 14.2504H10L10.8 14.8504L10.65 16.1004ZM11.7 20.3504C11.15 20.3504 10.75 19.9004 10.75 19.4004C10.75 19.3504 10.75 19.2504 10.8 19.2004C11.05 19.4504 11.35 19.6004 11.7 19.6504C11.75 19.6504 11.8 19.6504 11.85 19.6504C12.15 19.6504 12.45 19.5504 12.65 19.4004C12.7 19.9004 12.25 20.3504 11.7 20.3504ZM13.45 16.7004L13.7 14.5504C13.7 14.4504 13.7 14.3504 13.7 14.2504H15.95L13.45 16.7004ZM13.2 13.2004C13.15 13.1004 13.05 13.0004 12.95 12.9004L11 11.1504L12.15 7.90039L15 9.50039C15.1 9.55039 15.15 9.60039 15.25 9.60039L16.4 13.2004H13.2Z" fill="#4195B9"/>
</g>
<defs>
<clipPath id="clip0_121_1025">
<rect width="24" height="24" fill="white" transform="translate(0 0.000244141)"/>
</clipPath>
</defs>
</svg>
