<svg width="24" height="24" viewBox="0 0 24 24" fill="none" xmlns="http://www.w3.org/2000/svg">
<g clip-path="url(#clip0_121_1026)">
<path d="M10.45 10.2004C10.4 10.2504 10.35 10.2504 10.25 10.3004C10.05 10.4004 9.89997 10.4504 9.54997 10.4504C9.09997 10.4504 8.89997 10.3504 8.74997 10.2504H8.69997C8.39997 10.1004 8.04997 10.2004 7.89997 10.4504C7.74997 10.7004 7.84997 11.0504 8.14997 11.1504H8.19997C8.44997 11.2504 8.84997 11.5004 9.54997 11.5004C10.2 11.5004 10.5 11.3504 10.75 11.2504C10.8 11.2504 10.85 11.2004 10.9 11.2004C11.2 11.1004 11.3 10.7504 11.2 10.5004C11.1 10.2004 10.75 10.0504 10.45 10.2004Z" fill="#4195B9"/>
<path d="M14.4 5.80034L14.3 5.25034V5.20034C14.3 5.15034 14.35 5.10034 14.35 5.05034C14.35 3.95034 13.9 2.90034 13.15 2.05034C12.7 1.60034 12.2 1.25034 11.65 1.00034C11 0.750342 10.3 0.600342 9.55005 0.600342C7.60005 0.600342 6.50005 1.40034 5.85005 2.05034C5.10005 2.85034 4.70005 3.95034 4.70005 5.05034C4.70005 5.10034 4.70005 5.15034 4.70005 5.20034V5.25034L4.65005 5.80034H4.60005C4.10005 6.10034 3.80005 6.70034 3.80005 7.40034C3.80005 7.85034 3.95005 8.30034 4.20005 8.60034C4.40005 8.85034 4.60005 9.00034 4.90005 9.10034H4.95005V9.15034C5.25005 10.3003 5.85005 11.3503 6.55005 12.1003C7.40005 13.0003 8.40005 13.5003 9.50005 13.5003C10.6 13.5003 11.6 13.0503 12.45 12.1503C13.15 11.4003 13.75 10.3503 14.05 9.20034V9.15034H14.1C14.35 9.05034 14.6 8.90034 14.8 8.65034C15.05 8.30034 15.2 7.90034 15.2 7.45034C15.2 6.70034 14.9 6.10034 14.4 5.80034ZM5.95005 6.00034C6.90005 5.40034 8.15005 5.05034 9.50005 5.05034C10.85 5.05034 12.15 5.40034 13.1 6.00034L13.2 6.05034L13.1 6.10034C12.75 6.30034 12.1 6.25034 11.15 6.10034C10.6 6.05034 10.05 6.00034 9.50005 6.00034C8.90005 6.00034 8.30005 6.10034 7.85005 6.15034C7.40005 6.20034 7.00005 6.30034 6.70005 6.30034C6.40005 6.30034 6.20005 6.25034 6.00005 6.15034L5.90005 6.10034L5.95005 6.00034ZM13.25 5.00034C12.9 4.80034 12.55 4.65034 12.15 4.55034C11.35 4.30034 10.45 4.15034 9.50005 4.15034C8.10005 4.15034 6.85005 4.45034 5.80005 5.00034L5.70005 5.05034V4.90034C5.70005 4.05034 6.05005 3.20034 6.60005 2.60034C7.25005 1.90034 8.30005 1.50034 9.50005 1.50034C10.95 1.50034 11.85 2.10034 12.35 2.65034C12.95 3.30034 13.3 4.10034 13.3 4.95034V5.10034L13.25 5.00034ZM7.95005 7.05034C8.40005 6.95034 8.95005 6.90034 9.45005 6.90034C9.95005 6.90034 10.45 6.95034 11 7.05034C11.65 7.15034 12.25 7.20034 12.75 7.15034C13.2 7.10034 13.55 6.95034 13.85 6.70034L13.9 6.65034L13.95 6.70034C14.1 6.90034 14.2 7.15034 14.2 7.40034C14.2 7.85034 13.95 8.30034 13.65 8.30034C13.4 8.30034 13.2 8.45034 13.15 8.65034C12.9 9.80034 12.35 10.8003 11.7 11.5503C11.25 12.0503 10.5 12.6003 9.50005 12.6003C8.50005 12.6003 7.75005 12.0003 7.30005 11.5003C6.65005 10.8003 6.10005 9.75034 5.85005 8.60034C5.80005 8.40034 5.60005 8.25034 5.35005 8.25034C5.05005 8.25034 4.80005 7.85034 4.80005 7.35034C4.80005 6.95034 4.95005 6.75034 5.05005 6.65034L5.10005 6.60034L5.15005 6.65034C5.45005 6.90034 5.80005 7.10034 6.25005 7.15034C6.80005 7.25034 7.35005 7.15034 7.95005 7.05034Z" fill="#4195B9"/>
<path d="M8.40005 8.70024C8.45005 8.60024 8.45005 8.50024 8.45005 8.40024C8.45005 8.05024 8.15005 7.75024 7.75005 7.75024C7.35005 7.75024 7.05005 8.05024 7.05005 8.40024C7.05005 8.50024 7.05005 8.60024 7.10005 8.70024C7.10005 8.75024 7.15005 8.75024 7.20005 8.75024H8.30005C8.35005 8.75024 8.40005 8.75024 8.40005 8.70024Z" fill="#4195B9"/>
<path d="M11.3 7.75024C10.9 7.75024 10.6 8.05024 10.6 8.40024C10.6 8.50024 10.6 8.60024 10.65 8.70024C10.65 8.75024 10.7 8.75024 10.75 8.75024H11.85C11.9 8.75024 11.9 8.75024 11.95 8.70024C12 8.60024 12 8.50024 12 8.45024C12 8.05024 11.65 7.75024 11.3 7.75024Z" fill="#4195B9"/>
<path d="M12.5 22.7504H2.65002V22.4504C2.75002 20.1004 3.45002 18.1504 4.60002 16.8004C5.80002 15.4504 7.45002 14.7004 9.35002 14.7004C10.05 14.7004 10.75 14.8004 11.4 15.0004C11.55 15.0504 11.75 15.0504 11.85 14.9504C12 14.8504 12.05 14.7004 12.05 14.5504C12.05 14.3004 11.9 14.1504 11.7 14.0504C10.95 13.8004 10.15 13.6504 9.30002 13.6504C8.25002 13.6504 7.25002 13.8504 6.35002 14.2504C5.45002 14.6504 4.60002 15.2504 3.90002 16.0504C2.45002 17.7504 1.65002 20.2504 1.65002 23.2504C1.65002 23.5504 1.85002 23.7504 2.10002 23.7504H12.5C12.75 23.7504 12.95 23.5004 12.95 23.2504C12.95 23.0004 12.75 22.7504 12.5 22.7504Z" fill="#4195B9"/>
<path d="M17.5 13.3503C14.75 13.3503 12.5 15.6003 12.5 18.3503C12.5 21.1003 14.75 23.3503 17.5 23.3503C20.25 23.3503 22.5 21.1003 22.5 18.3503C22.5 15.6003 20.25 13.3503 17.5 13.3503ZM21.5 18.3503C21.5 20.5503 19.7 22.3503 17.5 22.3503C15.3 22.3503 13.5 20.5503 13.5 18.3503C13.5 16.1503 15.3 14.3503 17.5 14.3503C19.7 14.3503 21.5 16.1503 21.5 18.3503Z" fill="#699C69"/>
<path d="M16.2433 18.311L13.4288 19.936L13.9288 20.802L16.7433 19.177L16.2433 18.311Z" fill="#699C69"/>
<path d="M18.219 19.0428L21.2067 20.7678L21.7067 19.9018L18.719 18.1768L18.219 19.0428Z" fill="#699C69"/>
<path d="M18.0178 17.2327V14.0327H17.0178V17.2327H18.0178Z" fill="#699C69"/>
<path d="M17.5 19.4003C18.1351 19.4003 18.65 18.8855 18.65 18.2503C18.65 17.6152 18.1351 17.1003 17.5 17.1003C16.8648 17.1003 16.35 17.6152 16.35 18.2503C16.35 18.8855 16.8648 19.4003 17.5 19.4003Z" stroke="#699C69" stroke-width="2"/>
</g>
<defs>
<clipPath id="clip0_121_1026">
<rect width="24" height="24" fill="white" transform="translate(0 0.000244141)"/>
</clipPath>
</defs>
</svg>
