<svg width="24" height="24" viewBox="0 0 24 24" fill="none" xmlns="http://www.w3.org/2000/svg">
<g clip-path="url(#clip0_121_1027)">
<path d="M23.8 18.0003C23.15 17.5503 22.25 16.0503 22.25 14.7503C22.25 14.4503 22.25 14.2003 22.3 13.8503L22.5 11.8503L22.65 10.3503C22.7 9.75034 22.7 9.10034 22.7 8.40034C22.7 6.80034 22.25 5.40034 21.3 4.15034C20.5 3.05034 19.35 2.15034 17.85 1.40034C16.8 0.900342 15.55 0.500342 14.2 0.250342C13.75 0.150342 13.3 0.100342 12.85 0.100342H12.6H11.75L11.1 0.150342C10.65 0.200342 10.2 0.250342 9.75 0.300342C8.4 0.550342 7.15 0.900342 6.1 1.45034C4.75 2.10034 3.6 3.05034 2.75 4.15034C1.85 5.40034 1.35 6.80034 1.35 8.40034V9.45034C1.35 10.0503 1.4 10.6503 1.5 11.4003L1.7 13.4503L1.75 14.1503C1.75 14.3503 1.75 14.6003 1.75 14.8003C1.75 16.1003 0.85 17.6003 0.2 18.0503L0.15 18.1003C-0.05 18.3003 -0.05 18.6503 0.15 18.8503C0.75 19.4003 1.2 19.7003 1.75 19.8503C2.05 19.8503 2.3 19.9003 2.55 19.9003C3.2 19.9003 3.85 19.7003 4.5 19.2503C4.75 19.1003 4.8 18.8003 4.65 18.5503C4.6 18.4503 4.45 18.3503 4.35 18.3003C4.2 18.2503 4.1 18.3003 3.95 18.3503C3.25 18.8003 2.6 18.9003 2.05 18.7503C1.85 18.7003 1.65 18.6003 1.45 18.4503L1.3 18.3503L1.4 18.2003C1.6 17.9503 1.8 17.6503 2 17.3503C2.55 16.4503 2.8 15.5503 2.8 14.6503V14.2003L2.55 11.5003C2.4 10.3003 2.35 9.40034 2.35 8.30034C2.35 6.95034 2.75 5.70034 3.55 4.65034C4.25 3.70034 5.3 2.85034 6.6 2.20034C7.6 1.70034 8.75 1.35034 10.05 1.15034L10.55 1.10034L11.4 1.00034C11.5 1.00034 11.55 1.00034 11.6 1.00034H12.15L12.85 1.05034L13.85 1.15034C15.15 1.35034 16.35 1.70034 17.35 2.20034C18.65 2.85034 19.7 3.70034 20.4 4.65034C21.2 5.70034 21.6 6.95034 21.6 8.30034C21.6 9.10034 21.6 9.75034 21.5 10.4503L21.3 13.5003C21.25 13.9503 21.25 14.3503 21.25 14.7503C21.25 15.6503 21.5 16.5503 22.05 17.4503C22.25 17.7503 22.45 18.0503 22.65 18.3003L22.75 18.4503L22.6 18.5003C22.4 18.6503 22.2 18.7003 22 18.8003C21.45 18.9503 20.8 18.8003 20.1 18.4003C20 18.3503 19.85 18.3003 19.7 18.3503C19.55 18.4003 19.45 18.4503 19.4 18.6003C19.25 18.8503 19.35 19.1503 19.55 19.3003C20.5 19.9003 21.4 20.0503 22.25 19.8503C22.8 19.7003 23.25 19.4003 23.85 18.8503C23.85 18.8503 23.9 18.8003 23.9 18.7503C24.1 18.5003 24.05 18.2003 23.8 18.0003Z" fill="#4195B9"/>
<path d="M19.4 10.1504L19.35 10.1004L19.2999 9.20039C19.2999 8.90039 19.05 8.70039 18.8 8.70039C18 8.70039 16.9 8.20039 15.75 7.35039C14.85 6.65039 13.95 5.75039 13.65 5.20039C13.6 5.05039 13.45 5.00039 13.3 4.95039C13.05 4.90039 12.75 5.05039 12.7 5.35039L12.6 5.50039C12.25 6.85039 11.25 8.15039 9.94995 9.00039C8.49995 9.95039 6.79995 10.2504 5.14995 9.95039C5.04995 9.95039 4.94995 9.95039 4.84995 9.95039C3.84995 10.2504 3.19995 11.3504 3.19995 12.6504C3.19995 13.3504 3.39995 14.0504 3.79995 14.5504C4.19995 15.1004 4.79995 15.4504 5.39995 15.4504H5.44995C5.69995 15.4004 5.89995 15.2004 5.89995 14.9504C5.89995 14.6504 5.64995 14.4504 5.39995 14.4504H5.29995C5.04995 14.4004 4.79995 14.2504 4.59995 14.0004C4.34995 13.6504 4.19995 13.2004 4.19995 12.7004C4.19995 11.9504 4.54995 11.2504 4.99995 11.0504H5.04995H5.09995C5.99995 11.2004 6.94995 11.2004 7.84995 11.0004C8.79995 10.8004 9.64995 10.4504 10.45 9.95039C11.65 9.15039 12.65 8.05039 13.2 6.85039L13.3 6.65039L13.45 6.80039C13.95 7.30039 14.45 7.80039 15 8.25039C16.1 9.10039 17.15 9.60039 18.05 9.80039H18.15L18.2 10.5504C18.2 10.7504 18.35 10.9504 18.6 11.0504C19.15 11.2004 19.5499 11.9504 19.5499 12.8004C19.5499 13.3004 19.4 13.7504 19.15 14.1004C18.95 14.4004 18.7 14.5504 18.4 14.5504C18.15 14.5504 17.95 14.7004 17.9 14.9504C17.45 16.9504 16.65 18.7004 15.55 19.9504C14.85 20.7504 14.1 21.2504 13.3 21.5504L13.25 21.5004L13.2 21.4004C12.9 21.0504 12.5 20.8504 12.05 20.8504C11.2 20.8504 10.5 21.5504 10.5 22.4004C10.5 23.2504 11.2 23.9504 12.05 23.9504C12.85 23.9504 13.5 23.3504 13.6 22.5504V22.4504L13.7 22.4004C13.95 22.3004 14.15 22.2004 14.4 22.1004C15.15 21.7004 15.85 21.1504 16.45 20.4504C17.6 19.1504 18.45 17.4004 18.95 15.4004V15.3004H19.05C19.45 15.1504 19.85 14.9004 20.15 14.5004C20.5 14.0004 20.75 13.3004 20.75 12.6004C20.65 11.6004 20.15 10.6004 19.4 10.1504Z" fill="#4195B9"/>
<path d="M13.8501 17.6004C13.7501 17.5004 13.6001 17.4504 13.5001 17.4504C13.3501 17.4504 13.2501 17.5004 13.1501 17.6004C12.7001 18.1004 12.3501 18.2504 11.6501 18.2504C10.9501 18.2504 10.5501 18.0504 10.1501 17.6504C10.0501 17.5504 9.90005 17.5004 9.80005 17.5004C9.65005 17.5004 9.55005 17.5504 9.40005 17.6004L9.35005 17.6504C9.20005 17.8504 9.15005 18.1504 9.35005 18.3504C9.90005 19.0004 10.6501 19.3504 11.6001 19.3504C12.6001 19.3504 13.2001 19.1004 13.8501 18.4004C13.9501 18.3004 14.0001 18.1504 14.0001 18.0504C14.0001 17.8504 13.9501 17.7004 13.8501 17.6004Z" fill="#699C69"/>
<path d="M9.20006 12.7003L9.10006 12.6503C8.80006 12.5503 8.50006 12.5503 8.25006 12.7003C8.00006 12.8503 7.75006 13.0503 7.65006 13.3503C7.60006 13.5503 7.55006 13.7003 7.60006 13.9003V14.0003H9.80006V13.8503C9.90006 13.3503 9.60006 12.9003 9.20006 12.7003Z" fill="#699C69"/>
<path d="M15.4501 12.7003L15.3501 12.6503C15.0501 12.5503 14.7501 12.5503 14.5001 12.7003C14.2501 12.8503 14.0001 13.0503 13.9001 13.3503C13.8501 13.5503 13.8001 13.7003 13.8501 13.9003V14.0003H16.0501V13.8503C16.1501 13.3503 15.8501 12.9003 15.4501 12.7003Z" fill="#699C69"/>
</g>
<defs>
<clipPath id="clip0_121_1027">
<rect width="24" height="24" fill="white" transform="translate(0 0.000244141)"/>
</clipPath>
</defs>
</svg>
