<svg width="24" height="24" viewBox="0 0 24 24" fill="none" xmlns="http://www.w3.org/2000/svg">
<g clip-path="url(#clip0_121_1028)">
<path d="M15.4501 9.35017C14.6501 9.00017 14.0001 8.40017 13.6001 7.60017C13.0001 6.45017 11.5001 5.30017 10.1501 5.00017L9.80008 4.90017C8.25008 4.55017 6.50008 4.95017 5.25008 6.00017C4.25008 6.80017 3.60008 7.95017 3.25008 9.35017C3.10008 9.85017 3.40008 10.4502 3.85008 10.7002C4.15008 10.8502 4.55008 10.9002 4.90008 10.7502C5.25008 10.6502 5.55008 10.3502 5.65008 10.0002C5.85008 9.35017 6.30008 8.15017 7.10008 7.70017C7.00008 8.05017 6.80008 8.55017 6.65008 8.95017C6.60008 9.10017 6.55008 9.20017 6.50008 9.35017C6.20008 10.2002 5.85008 11.0502 5.90008 11.7002C6.00008 12.6502 7.10008 13.2002 8.15008 13.7002L8.30008 13.7502C8.40008 13.8002 8.45008 13.8502 8.55008 13.8502C9.25008 14.2002 10.1001 14.6002 10.0501 15.0002C9.95008 15.6002 9.65008 16.6502 9.05008 18.0002C8.85008 18.5502 8.95008 19.0502 9.20008 19.4502C9.50008 19.8502 10.0001 20.1002 10.5001 20.1002C11.1501 20.1002 11.7501 19.7002 12.0001 19.0502L13.2501 15.0002C13.6001 13.8502 13.1501 12.6502 12.1501 12.0502L11.6501 11.7502C11.2501 11.5002 11.0501 11.0502 11.2001 10.6002L11.5501 9.25017C12.1001 10.0002 13.0001 10.9002 14.5501 11.5002C14.8501 11.6002 15.2001 11.6002 15.5001 11.4502C15.8501 11.3002 16.0501 11.0002 16.1501 10.7502C16.3501 10.2502 16.0501 9.60017 15.4501 9.35017ZM10.8501 8.70017L10.4001 10.4502C10.2001 11.3002 10.5501 12.1502 11.3001 12.6002L11.8001 12.9002C12.4501 13.2502 12.7501 14.0502 12.5001 14.7502L11.2501 18.8002C11.2001 19.0502 10.9001 19.2502 10.6501 19.2502C10.4501 19.2502 10.2501 19.1502 10.1001 18.9502C9.95008 18.8002 9.95008 18.5502 10.0501 18.3502C10.7001 16.7502 11.0001 15.8002 11.0501 15.1502C11.2001 14.0002 9.85008 13.4002 8.80008 12.9502C7.95008 12.6002 6.95008 12.1002 6.90008 11.6502C6.85008 11.1502 7.25008 10.1002 7.60008 9.30017L7.65008 9.10017C8.05008 8.00017 8.35008 7.25017 7.95008 6.85017C7.85008 6.75017 7.65008 6.65017 7.45008 6.65017C7.30008 6.65017 7.15008 6.70017 6.95008 6.80017C6.05008 7.20017 5.30008 8.20017 4.85008 9.75017C4.80008 9.85017 4.75008 9.90017 4.70008 9.95017C4.70008 9.95017 4.65008 9.95017 4.65008 10.0002C4.55008 10.0502 4.45008 10.0502 4.40008 10.0002C4.30008 9.95017 4.20008 9.80017 4.25008 9.65017C4.55008 8.45017 5.10008 7.45017 5.95008 6.80017C6.95008 5.95017 8.35008 5.65017 9.75008 5.90017L10.1001 6.00017C11.1501 6.25017 12.4501 7.25017 12.9001 8.15017C13.5001 9.45017 14.5001 10.0502 15.2001 10.3502C15.3501 10.4002 15.3501 10.5502 15.3501 10.7002C15.3501 10.7502 15.3001 10.8002 15.2001 10.8502C15.1501 10.9002 15.0501 10.9002 15.0001 10.8502C13.4501 10.2502 12.6001 9.20017 12.2501 8.60017C12.0501 8.35017 11.8001 8.20017 11.5001 8.25017C11.1501 8.20017 10.9501 8.40017 10.8501 8.70017Z" fill="#4195B9"/>
<path d="M4.65003 21.2502C4.50003 21.2502 4.30003 21.2002 4.20003 21.1502C3.75003 21.0502 3.40003 20.7002 3.20003 20.3002C3.00003 19.9002 2.95003 19.4002 3.10003 19.0002L5.70003 12.5002L6.15003 12.9502C6.50003 13.3002 7.15003 13.6002 7.80003 13.9502C7.90003 14.0502 8.10003 14.0502 8.20003 14.1502L8.55003 14.3002L6.20003 20.1502C5.95003 20.8502 5.35003 21.2502 4.65003 21.2502ZM6.00003 13.9002L3.85003 19.3002C3.75003 19.5002 3.80003 19.7502 3.90003 19.9502C4.00003 20.1502 4.20003 20.3002 4.45003 20.3502C4.90003 20.4502 5.35003 20.2502 5.45003 19.8002L7.50003 14.6502C7.50003 14.6502 7.45003 14.6502 7.45003 14.6002C6.95003 14.4502 6.45003 14.2002 6.00003 13.9002Z" fill="#4195B9"/>
<path d="M11.2 5.10015C10.9 5.10015 10.6 5.05015 10.3 4.95015C9.70001 4.70015 9.20001 4.25015 8.90001 3.65015C8.60001 3.05015 8.60001 2.35015 8.85001 1.75015C9.35001 0.500147 10.75 -0.149853 12.05 0.300147C12.75 0.550147 13.2 1.00015 13.5 1.60015C13.8 2.20015 13.8 2.90015 13.55 3.50015C13.3 4.10015 12.85 4.60015 12.25 4.90015C11.9 5.05015 11.6 5.10015 11.2 5.10015ZM11.2 0.950147C10.95 0.950147 10.75 1.00015 10.5 1.10015C10.1 1.25015 9.75001 1.65015 9.60001 2.05015C9.45001 2.45015 9.45001 2.90015 9.65001 3.30015C9.80001 3.70015 10.2 4.05015 10.6 4.20015C11 4.35015 11.45 4.35015 11.85 4.15015C12.25 4.00015 12.6 3.60015 12.75 3.20015C12.9 2.80015 12.9 2.35015 12.7 1.95015C12.5 1.55015 12.15 1.20015 11.75 1.05015C11.65 0.950147 11.45 0.950147 11.2 0.950147Z" fill="#4195B9"/>
<path d="M23 17.4502C22.95 17.4002 22.8 17.2502 22.65 17.2502H16.15C15.9 17.2502 15.75 17.4502 15.75 17.6502L15.7 20.3002L8.65002 20.3502C8.40002 20.3502 8.25002 20.5502 8.25002 20.7502V23.0002H1.35002C1.05002 23.0002 0.900024 23.2502 0.900024 23.4502C0.900024 23.7002 1.15002 23.9002 1.35002 23.9002H8.75002C9.00002 23.9002 9.15002 23.7002 9.15002 23.5002L9.10003 21.4002L16.2 21.3502C16.45 21.3502 16.6 21.1502 16.6 20.9502V18.3002H22.6C22.8 18.3002 23 18.1502 23.05 17.9002C23.15 17.7002 23.1 17.5502 23 17.4502Z" fill="#699C69"/>
</g>
<defs>
<clipPath id="clip0_121_1028">
<rect width="24" height="24" fill="white" transform="translate(0 0.000244141)"/>
</clipPath>
</defs>
</svg>
