<svg width="24" height="24" viewBox="0 0 24 24" fill="none" xmlns="http://www.w3.org/2000/svg">
<g clip-path="url(#clip0_121_1029)">
<path d="M14.8 4.05034C14.1 2.65034 12.85 1.50034 11.35 0.800342C10.35 0.350342 9.25 0.100342 8.1 0.100342C4.05 0.100342 0.75 3.20034 0.75 7.05034C0.75 8.40034 1.15 9.70034 1.95 10.8503L0.8 14.0503C0.75 14.2503 0.8 14.4503 0.9 14.5503C1 14.6503 1.1 14.7003 1.25 14.7003C1.3 14.7003 1.35 14.7003 1.4 14.6503L5.1 13.3503C5.15 13.3503 5.15 13.4003 5.2 13.4003H5.25C6.9 14.0503 8.75 14.1003 10.45 13.6003C13.5 12.7003 15.5 10.0503 15.5 7.05034C15.5 6.00034 15.25 5.00034 14.8 4.05034ZM2.95 10.9503C3 10.7503 3 10.6003 2.9 10.4503C2.15 9.45034 1.75 8.25034 1.75 7.05034C1.75 3.75034 4.6 1.10034 8.15 1.10034C11.7 1.10034 14.5 3.75034 14.5 7.05034C14.5 10.3503 11.65 13.0003 8.1 13.0003C7.1 13.0003 6.2 12.8003 5.3 12.4003C5.15 12.3503 5 12.3503 4.85 12.4003L2 13.4003L2.95 10.9503Z" fill="#4195B9"/>
<path d="M5.59998 7.05029C5.59998 6.50029 5.14998 6.05029 4.59998 6.05029C4.04998 6.05029 3.59998 6.50029 3.59998 7.05029C3.59998 7.60029 4.04998 8.05029 4.59998 8.05029C5.14998 8.05029 5.59998 7.60029 5.59998 7.05029Z" fill="#699C69"/>
<path d="M8.09998 8.05029C8.64998 8.05029 9.09998 7.60029 9.09998 7.05029C9.09998 6.50029 8.64998 6.05029 8.09998 6.05029C7.54998 6.05029 7.09998 6.50029 7.09998 7.05029C7.09998 7.60029 7.54998 8.05029 8.09998 8.05029Z" fill="#699C69"/>
<path d="M11.6 8.05029C12.1523 8.05029 12.6 7.60258 12.6 7.05029C12.6 6.49801 12.1523 6.05029 11.6 6.05029C11.0477 6.05029 10.6 6.49801 10.6 7.05029C10.6 7.60258 11.0477 8.05029 11.6 8.05029Z" fill="#699C69"/>
<path d="M8.14998 18.4002C8.14998 16.9502 6.94998 15.7502 5.49998 15.7502C4.04998 15.7502 2.84998 16.9502 2.84998 18.4002C2.84998 19.8502 4.04998 21.0502 5.49998 21.0502C6.94998 21.0502 8.14998 19.8502 8.14998 18.4002ZM3.84998 18.4002C3.84998 17.5002 4.59998 16.7502 5.49998 16.7502C6.39998 16.7502 7.14998 17.5002 7.14998 18.4002C7.14998 19.3002 6.39998 20.0502 5.49998 20.0502C4.59998 20.0502 3.84998 19.3002 3.84998 18.4002Z" fill="#4195B9"/>
<path d="M6.35 21.2502H4.7C3.3 21.2502 2.15 22.3002 2 23.7002V23.8002H3V23.7002C3.1 22.8502 3.85 22.2002 4.7 22.2002H6.35C7.2 22.2002 7.95 22.8502 8.05 23.7002V23.8002H9.05V23.7002C8.9 22.3002 7.75 21.2502 6.35 21.2502Z" fill="#4195B9"/>
<path d="M18.25 21.2004C19.7 21.2004 20.9 20.0004 20.9 18.5504C20.9 17.1004 19.7 15.9004 18.25 15.9004C16.8 15.9004 15.6 17.1004 15.6 18.5504C15.6 20.0004 16.8 21.2004 18.25 21.2004ZM16.6 18.5504C16.6 17.6504 17.35 16.9004 18.25 16.9004C19.15 16.9004 19.9 17.6504 19.9 18.5504C19.9 19.4504 19.15 20.2004 18.25 20.2004C17.35 20.2004 16.6 19.4504 16.6 18.5504Z" fill="#4195B9"/>
<path d="M19.05 21.4004H17.4C16.05 21.4004 14.9 22.4004 14.7 23.7004V23.8004H15.7V23.7004C15.9 22.9004 16.6 22.3504 17.4 22.3504H19.05C19.85 22.3504 20.55 22.9004 20.75 23.7004V23.8004H21.75V23.7004C21.55 22.4004 20.4 21.4004 19.05 21.4004Z" fill="#4195B9"/>
<path d="M21.8 12.2502C22.6 11.1002 23 9.80024 23 8.45024C23 4.75024 19.9 1.70024 16 1.50024C15.85 1.50024 15.75 1.55024 15.65 1.65024C15.55 1.75024 15.5 1.85024 15.5 2.00024C15.5 2.25024 15.7 2.50024 16 2.50024C19.35 2.70024 22 5.30024 22 8.45024C22 9.65024 21.6 10.8502 20.85 11.8502C20.75 12.0002 20.7 12.1502 20.8 12.3002L21.7 14.8002L18.9 13.8002C18.75 13.7002 18.6 13.7002 18.45 13.7502C17.1 14.3502 15.65 14.5002 14.2 14.2002C13.95 14.1502 13.75 14.2502 13.65 14.4502C13.6 14.6002 13.55 14.7502 13.65 14.9002C13.7 15.0502 13.85 15.1502 14 15.2002C14.55 15.3502 15.05 15.3502 15.55 15.3502H15.7C16.75 15.3502 17.75 15.1502 18.7 14.7502L22.4 16.0502C22.45 16.0502 22.5 16.1002 22.55 16.1002C22.7 16.1002 22.8 16.0502 22.9 15.9502C23.05 15.8002 23.1 15.6002 23 15.4502L21.8 12.2502Z" fill="#4195B9"/>
</g>
<defs>
<clipPath id="clip0_121_1029">
<rect width="24" height="24" fill="white" transform="translate(0 0.000244141)"/>
</clipPath>
</defs>
</svg>
