<svg width="24" height="24" viewBox="0 0 24 24" fill="none" xmlns="http://www.w3.org/2000/svg">
<g clip-path="url(#clip0_123_285)">
<path d="M14.2558 17.9551L11.9143 16.8151C11.7423 16.7314 11.6332 16.5568 11.6332 16.3655V11.6782M11.6332 11.6782L16.6332 13.6782M11.6332 11.6782L14.7538 10.5434M16.6332 13.6782V15.0569M16.6332 13.6782L19.1332 12.6782M19.1332 12.6782V14.028M19.1332 12.6782L21.6332 11.6782M19.1332 12.6782L14.7538 10.5434M21.6332 11.6782V13.6782M21.6332 11.6782L17.3175 9.76016C17.1993 9.70759 17.0652 9.70294 16.9436 9.74716L14.7538 10.5434" stroke="#699C69" stroke-linecap="round"/>
<path fill-rule="evenodd" clip-rule="evenodd" d="M17.7902 18.5002C17.7902 17.5337 18.5737 16.7502 19.5402 16.7502C20.5067 16.7502 21.2902 17.5337 21.2902 18.5002V18.7502C21.2902 19.0264 21.0663 19.2502 20.7902 19.2502C20.514 19.2502 20.2902 19.0264 20.2902 18.7502V18.5002C20.2902 18.086 19.9544 17.7502 19.5402 17.7502C19.1259 17.7502 18.7902 18.086 18.7902 18.5002V20.5002C18.7902 20.9145 19.1259 21.2502 19.5402 21.2502C19.9544 21.2502 20.2902 20.9145 20.2902 20.5002V20.2502C20.2902 19.9741 20.514 19.7502 20.7902 19.7502C21.0663 19.7502 21.2902 19.9741 21.2902 20.2502V20.5002C21.2902 21.4667 20.5067 22.2502 19.5402 22.2502C18.5737 22.2502 17.7902 21.4667 17.7902 20.5002V18.5002Z" fill="#699C69"/>
<path fill-rule="evenodd" clip-rule="evenodd" d="M-0.0274658 21.6712C-0.0274658 17.6462 3.23543 14.3833 7.26041 14.3833H8.47253C8.74868 14.3833 8.97253 14.6072 8.97253 14.8833C8.97253 15.1594 8.74868 15.3833 8.47253 15.3833H7.26041C3.8842 15.3833 1.12947 18.0442 0.979007 21.3833H9.47253C9.74868 21.3833 9.97253 21.6072 9.97253 21.8833C9.97253 22.1594 9.74868 22.3833 9.47253 22.3833H0.684655C0.29136 22.3833 -0.0274658 22.0645 -0.0274658 21.6712Z" fill="#4195B9"/>
<circle cx="19.5" cy="19.5002" r="4" stroke="#699C69"/>
<path fill-rule="evenodd" clip-rule="evenodd" d="M17.0901 20.1614C17.0901 19.9343 17.2897 19.7502 17.536 19.7502H19.3197C19.566 19.7502 19.7657 19.9343 19.7657 20.1614C19.7657 20.3884 19.566 20.5725 19.3197 20.5725H17.536C17.2897 20.5725 17.0901 20.3884 17.0901 20.1614Z" fill="#699C69"/>
<path fill-rule="evenodd" clip-rule="evenodd" d="M17.0901 19.0509C17.0901 18.8304 17.2897 18.6516 17.536 18.6516H19.3197C19.566 18.6516 19.7657 18.8304 19.7657 19.0509C19.7657 19.2714 19.566 19.4502 19.3197 19.4502H17.536C17.2897 19.4502 17.0901 19.2714 17.0901 19.0509Z" fill="#699C69"/>
<path d="M10.4164 6.3849C9.14139 6.69725 7.83619 6.87019 6.5238 6.90068C5.23381 6.87415 3.92918 6.70129 2.65585 6.38526L2.60081 6.37477C2.32641 6.33807 2.06884 6.53438 2.0383 6.8168L1.95491 7.58254L1.88054 7.61308L1.78925 7.65599C1.36399 7.87102 1.08925 8.25127 1.11606 8.77606L1.12293 8.89316C1.20004 10.0544 1.53254 10.915 2.34325 11.0446L2.36891 11.048L2.37814 11.0715C3.05172 12.7519 4.70474 13.8591 6.54229 13.8154L6.67487 13.8162C8.39078 13.801 9.94023 12.7678 10.6344 11.2046L10.7004 11.0465L10.728 11.043C11.569 10.9029 11.907 9.96525 11.9501 8.76852C11.9689 8.24511 11.6952 7.86653 11.2733 7.65381L11.1809 7.61057L11.1084 7.58154L11.033 6.82123C11.003 6.51853 10.7119 6.31252 10.4164 6.3849ZM9.91739 7.52134L10.0934 7.48354L10.1478 8.02985C10.1695 8.24872 10.3309 8.42519 10.5418 8.46971L10.6004 8.47851C10.6439 8.48244 10.7383 8.504 10.8231 8.54674C10.9229 8.59707 10.9541 8.64013 10.9507 8.73257C10.9206 9.56975 10.6959 10.0919 10.4098 10.0547C10.1676 10.0232 9.93805 10.1714 9.86702 10.4051C9.43653 11.8215 8.1416 12.7916 6.67129 12.816L6.54112 12.8157C4.99727 12.8518 3.63996 11.8655 3.2045 10.4075C3.13437 10.1726 2.90438 10.0233 2.66133 10.0547C2.37576 10.0916 2.15862 9.58351 2.11476 8.72503C2.11041 8.63993 2.13973 8.59934 2.24049 8.54839C2.30911 8.5137 2.3838 8.49235 2.43373 8.48287L2.52369 8.4687C2.73088 8.42288 2.88925 8.24949 2.91251 8.03428L2.97191 7.48404L3.15204 7.52295C4.26212 7.75109 5.39122 7.87754 6.52531 7.90044C7.67608 7.87409 8.80723 7.74715 9.91739 7.52134Z" fill="#4195B9"/>
<path d="M6.21996 0.0358162C6.3193 -0.00380199 6.42817 -0.010324 6.53063 0.0162362L6.59122 0.0361421L12.4662 2.39114C12.7426 2.50193 12.8577 2.82485 12.7257 3.08241L12.696 3.13297L11.0337 5.62074L10.8022 6.90406C10.7567 7.1564 10.5292 7.33009 10.2793 7.31434L10.2214 7.30729C9.96903 7.26174 9.79534 7.03425 9.81109 6.78441L9.81814 6.72643L10.0681 5.34143C10.0763 5.2964 10.0905 5.25282 10.1104 5.21185L10.1444 5.15252L11.5217 3.08974L6.40418 1.03874L1.27168 3.08524L2.71461 5.14325C2.74775 5.19052 2.77236 5.24304 2.7875 5.29845L2.79945 5.35473L3.01945 6.79473C3.06115 7.06771 2.87367 7.3228 2.6007 7.36451C2.34722 7.40323 2.10916 7.24435 2.04305 7.00289L2.03092 6.94576L1.82818 5.62024L0.0907542 3.14224C-0.0828381 2.8946 0.00275844 2.55588 0.261031 2.41605L0.314963 2.39082L6.21996 0.0358162Z" fill="#4195B9"/>
<path d="M10.22 4.92529C10.4961 4.92529 10.72 5.14915 10.72 5.42529C10.72 5.68171 10.527 5.89305 10.2783 5.92193L10.22 5.92529H2.59497C2.31883 5.92529 2.09497 5.70144 2.09497 5.42529C2.09497 5.16888 2.28799 4.95754 2.53666 4.92866L2.59497 4.92529H10.22Z" fill="#4195B9"/>
<path d="M7.45864 10.332C7.59846 10.1793 7.83566 10.1687 7.98845 10.3086C8.14123 10.4484 8.15173 10.6856 8.01191 10.8384C7.64596 11.2382 7.13274 11.4715 6.59085 11.4843C6.04896 11.4971 5.5253 11.2883 5.14089 10.9062C4.99401 10.7601 4.99331 10.5227 5.13933 10.3758C5.28534 10.2289 5.52278 10.2282 5.66966 10.3743C5.90919 10.6124 6.23549 10.7425 6.57315 10.7345C6.91081 10.7266 7.23061 10.5812 7.45864 10.332Z" fill="#4195B9"/>
<path d="M6.46523 4.20024C6.93468 4.20024 7.31523 3.81969 7.31523 3.35024C7.31523 2.8808 6.93468 2.50024 6.46523 2.50024C5.99579 2.50024 5.61523 2.8808 5.61523 3.35024C5.61523 3.81969 5.99579 4.20024 6.46523 4.20024Z" fill="#699C69"/>
<path d="M8.06965 8.44067C7.75085 8.4856 7.514 8.75873 7.51465 9.08067C7.51458 9.13125 7.55415 9.17301 7.60465 9.17567H8.52965C8.55441 9.17571 8.5781 9.16555 8.59513 9.14757C8.61216 9.1296 8.62103 9.1054 8.61965 9.08067C8.62284 8.75957 8.38758 8.48582 8.06965 8.44067Z" fill="#4195B9"/>
<path d="M4.97006 8.44067C4.65213 8.48582 4.41687 8.75957 4.42006 9.08067C4.41869 9.1054 4.42756 9.1296 4.44459 9.14757C4.46162 9.16555 4.4853 9.17571 4.51006 9.17567H5.43506C5.45982 9.17571 5.48351 9.16555 5.50054 9.14757C5.51757 9.1296 5.52644 9.1054 5.52506 9.08067C5.52792 8.75791 5.28998 8.48353 4.97006 8.44067Z" fill="#4195B9"/>
</g>
<defs>
<clipPath id="clip0_123_285">
<rect width="24" height="24" fill="white" transform="translate(0 0.000244141)"/>
</clipPath>
</defs>
</svg>
