<svg width="24" height="24" viewBox="0 0 24 24" fill="none" xmlns="http://www.w3.org/2000/svg">
<path fill-rule="evenodd" clip-rule="evenodd" d="M16.2168 11.2094C16.8677 10.4864 17.9876 10.4336 18.7182 11.0915L23.2067 15.1329C23.9374 15.7908 24.0019 16.9101 23.351 17.633L22.546 18.527C22.5059 18.5716 22.4609 18.6091 22.4124 18.6394C22.4596 18.7276 22.4865 18.8287 22.4865 18.936V20.139C22.4865 21.1118 21.6896 21.9004 20.7064 21.9004H14.6666C13.6834 21.9004 12.8865 21.1118 12.8865 20.139V18.936C12.8865 18.5851 13.1738 18.3004 13.5287 18.3004L21.3441 18.3002L15.4638 13.0054C15.2132 12.7798 15.1799 12.4041 15.3785 12.1435L15.4118 12.1034L16.2168 11.2094ZM21.8865 18.9004H13.4865V20.1556C13.4865 20.7879 13.8838 21.3004 14.374 21.3004H20.9991C21.4893 21.3004 21.8865 20.7879 21.8865 20.1556V18.9004ZM18.0993 11.3416C17.735 11.0136 17.0969 11.1286 16.6738 11.5985L15.8339 12.5313L22.0763 18.152L22.9162 17.2192C23.3393 16.7493 23.387 16.1026 23.0227 15.7746L18.0993 11.3416Z" fill="#699C69"/>
<path fill-rule="evenodd" clip-rule="evenodd" d="M15.4118 12.1034L16.2168 11.2094C16.8677 10.4864 17.9876 10.4336 18.7182 11.0915L23.2067 15.1329C23.9374 15.7908 24.0019 16.9101 23.351 17.633L22.546 18.527C22.5059 18.5716 22.4609 18.6091 22.4124 18.6394C22.4596 18.7276 22.4865 18.8287 22.4865 18.936V20.139C22.4865 21.1118 21.6896 21.9004 20.7064 21.9004H14.6666C13.6834 21.9004 12.8865 21.1118 12.8865 20.139V18.936C12.8865 18.5851 13.1738 18.3004 13.5287 18.3004L21.3441 18.3002L15.4638 13.0054C15.2132 12.7798 15.1799 12.4041 15.3785 12.1435L15.4118 12.1034ZM20.8231 18.1002L15.3299 13.154C15.0026 12.8593 14.9573 12.3663 15.2195 12.0223L15.2244 12.0158L15.2631 11.9694L16.0682 11.0755C16.7943 10.269 18.0408 10.2124 18.8521 10.9429L23.3406 14.9843C24.1518 15.7147 24.2258 16.9603 23.4996 17.7669L22.6946 18.6608C22.6813 18.6756 22.6676 18.6898 22.6534 18.7035C22.675 18.7774 22.6865 18.8554 22.6865 18.936V20.139C22.6865 21.2243 21.7981 22.1004 20.7064 22.1004H14.6666C13.575 22.1004 12.6865 21.2243 12.6865 20.139V18.936C12.6865 18.4728 13.0653 18.1004 13.5287 18.1004L20.8231 18.1002ZM13.4865 18.9004H21.8865V20.1556C21.8865 20.7879 21.4893 21.3004 20.9991 21.3004H14.374C13.8838 21.3004 13.4865 20.7879 13.4865 20.1556V18.9004ZM21.6865 19.1004H13.6865V20.1556C13.6865 20.7278 14.0386 21.1004 14.374 21.1004H20.9991C21.3344 21.1004 21.6865 20.7278 21.6865 20.1556V19.1004ZM17.9655 11.4902C17.7163 11.2658 17.2053 11.3071 16.8224 11.7323L16.1163 12.5165L22.0615 17.8695L22.7676 17.0854C23.1505 16.6601 23.1381 16.1476 22.8889 15.9233L17.9655 11.4902ZM22.9162 17.2192C23.3393 16.7493 23.387 16.1026 23.0227 15.7746L18.0993 11.3416C17.735 11.0136 17.0969 11.1286 16.6738 11.5985L15.8339 12.5313L22.0763 18.152L22.9162 17.2192Z" fill="#699C69"/>
<path fill-rule="evenodd" clip-rule="evenodd" d="M7.71696 3.36867L7.05747 4.55701L7.49354 5.19353C7.8004 5.64265 7.47494 6.24784 6.92292 6.24784L6.49487 6.2479C6.564 6.44553 6.59998 6.65308 6.59998 6.86507C6.59998 7.99525 5.59251 8.91157 4.3499 8.91157C3.10732 8.91157 2.09998 7.99526 2.09998 6.86507C2.09998 6.65308 2.13596 6.44553 2.20508 6.2479L1.9872 6.24784C1.47999 6.24784 1.13105 5.71834 1.37401 5.26557C1.58109 4.88002 1.57307 4.72434 1.29415 4.26458C1.04422 3.85275 1.32101 3.34346 1.78045 3.26854C2.21477 3.19739 3.11096 3.0506 4.35022 2.84762C4.49891 2.82327 4.64449 2.79942 4.78942 2.77568L5.07913 2.72823C5.6597 2.63314 6.25583 2.5355 7.02394 2.4097C7.57273 2.31954 7.98265 2.89052 7.71696 3.36867ZM5.90097 6.24784H2.79941C2.73418 6.41498 2.70019 6.59215 2.70019 6.7741C2.70019 7.62762 3.43893 8.31963 4.3501 8.31963C5.26133 8.31963 6.00019 7.62758 6.00019 6.7741C6.00019 6.59215 5.9662 6.41498 5.90097 6.24784ZM7.19356 2.92544C6.19901 3.10851 5.32656 3.2056 4.46764 3.36371C3.26096 3.58584 2.35854 3.71289 1.74171 3.82644C1.98849 4.42698 2.00876 5.0927 1.84013 5.65589H7.07658L6.68036 5.0368C6.50056 4.74209 6.47346 4.46376 6.62744 4.15161L7.19356 2.92544ZM7.09749 10.2002C8.17317 10.2946 9.08717 10.7167 9.83949 11.4666C10.0332 11.6325 10.9782 12.9502 11.2613 12.9377H13.4821C13.9575 12.9165 14.4393 13.4578 14.4876 14.0307C14.5658 14.6272 14.0554 15.385 13.5765 15.4071L10.658 15.5275C10.4279 15.538 10.203 15.4611 10.0332 15.3137L8.83438 14.3028C8.41454 13.9139 8.02268 13.9505 8.11277 14.9932V21.4602C8.11277 21.7033 7.88697 21.9002 7.6311 21.9002H0.763133C0.50726 21.9002 0.299976 21.7033 0.299976 21.4602V12.035C0.299976 11.0216 1.16453 10.2002 2.23119 10.2002H7.09749ZM7.67492 10.9275C7.6658 10.9434 7.65944 10.9516 7.65944 10.9516L1.21468 19.2002L4.50371 19.2003C4.53163 19.2011 4.76976 19.2151 4.79768 19.4529L4.80035 19.5002C4.80035 19.8002 4.50104 19.8002 4.50104 19.8002H0.899676L0.899976 20.9053C0.899976 21.1098 1.05665 21.278 1.25755 21.2982L1.29829 21.3002H7.20474C7.41104 21.3002 7.48934 21.1449 7.49832 20.9457L7.49921 20.9053L7.49908 19.8002H6.3021C6.3021 19.8002 6.03261 19.8002 6.00267 19.5475L5.99998 19.5002C5.99998 19.2002 6.3021 19.2002 6.3021 19.2002H7.49908L7.49921 14.0714C7.49921 13.4525 8.32088 13.1138 8.80007 13.4939L8.83624 13.5245L10.3025 14.8508C10.434 14.9698 10.6038 15.0376 10.7807 15.0431L10.8399 15.0426L13.0917 14.9346C13.5037 14.9148 13.8208 14.5666 13.7989 14.1583C13.778 13.7695 13.4569 13.4667 13.0696 13.4599L13.0209 13.4606L11.3554 13.5377C11.1322 13.5479 10.9143 13.4733 10.7454 13.3302L10.7006 13.2894L9.14738 11.7748C8.73265 11.3705 8.22504 11.0813 7.67492 10.9275ZM6.74583 10.8002H2.56082C1.66534 10.8002 0.93548 11.5027 0.901232 12.3822L0.899976 12.4468L0.899676 18.629L7.00809 10.8102C6.92113 10.8036 6.83365 10.8002 6.74583 10.8002Z" fill="#4195B9"/>
<path fill-rule="evenodd" clip-rule="evenodd" d="M10.658 15.5275C10.4279 15.538 10.203 15.4611 10.0332 15.3137L8.83438 14.3028C8.41454 13.9139 8.02268 13.9505 8.11277 14.9932V21.4602C8.11277 21.7033 7.88697 21.9002 7.6311 21.9002H0.763133C0.50726 21.9002 0.299976 21.7033 0.299976 21.4602V12.035C0.299976 11.0216 1.16453 10.2002 2.23119 10.2002H7.09749C8.17317 10.2946 9.08717 10.7167 9.83949 11.4666C9.8992 11.5177 10.0303 11.6783 10.1914 11.8756C10.5529 12.3184 11.0655 12.9463 11.2613 12.9377H13.4821C13.9575 12.9165 14.4393 13.4578 14.4876 14.0307C14.5658 14.6272 14.0554 15.385 13.5765 15.4071L10.658 15.5275ZM7.49908 19.8002V20.0002H7.2991L7.29921 20.9031L7.29926 20.9009L7.49921 20.9053L7.29921 20.9053L7.29921 20.9031L7.29842 20.9388L7.29852 20.9367L7.49832 20.9457L7.29837 20.9413L7.29842 20.9388C7.29457 21.0184 7.27743 21.0613 7.26394 21.0798C7.25856 21.0872 7.254 21.0905 7.2492 21.0928C7.2439 21.0954 7.23092 21.1002 7.20474 21.1002H1.30328L1.30828 21.1005L1.29829 21.3002V21.1002H1.30328L1.27342 21.0987L1.27758 21.0992L1.25755 21.2982L1.26754 21.0984L1.27342 21.0987C1.17437 21.0867 1.09998 21.0033 1.09998 20.9053L1.09973 20.0002H0.89973L0.899676 19.8002H1.09968L1.09973 20.0002H4.50144C4.50144 20.0002 4.50104 20.0002 4.50104 19.8002L4.50144 20.0002L4.50285 20.0002L4.50513 20.0002L4.51108 20C4.51563 19.9999 4.52139 19.9996 4.52818 19.9991C4.54169 19.9982 4.55969 19.9963 4.58076 19.9928C4.62195 19.9859 4.67992 19.9718 4.7403 19.9415C4.80148 19.9109 4.86867 19.8618 4.92011 19.7844C4.97236 19.7059 5.00066 19.6101 5.00066 19.5002L4.99773 19.4417L4.99631 19.4296C4.97304 19.2314 4.85489 19.1163 4.7403 19.0589C4.63571 19.0065 4.53525 19.001 4.5096 19.0003L1.62474 19.0002L1.46848 19.2002L1.21468 19.2002L1.37094 19.0002L1.62474 19.0002L7.75089 11.1594C7.70793 11.1454 7.66465 11.1323 7.62109 11.1202L7.66663 10.9572L7.67492 10.9275L7.84841 11.0271C7.84119 11.0396 7.83463 11.0499 7.82924 11.0578L7.82208 11.068L7.81927 11.0718L7.81808 11.0734L7.81704 11.0747L7.75089 11.1594C8.21906 11.3116 8.65017 11.5694 9.00777 11.918L10.5609 13.4327L10.6108 13.4782L10.6161 13.4827C10.8236 13.6586 11.091 13.7501 11.3646 13.7375L13.027 13.6606L13.0238 13.6606L13.0209 13.4606L13.0301 13.6604L13.027 13.6606L13.0691 13.6599L13.0661 13.6599L13.0696 13.4599L13.0725 13.6599L13.0691 13.6599C13.3523 13.6664 13.5841 13.8882 13.5992 14.169C13.6151 14.465 13.3849 14.7202 13.0821 14.7348L10.8343 14.8427L10.8382 14.8426L10.8399 15.0426L10.8303 14.8429L10.8343 14.8427L10.7833 14.8431L10.7869 14.8432L10.7807 15.0431L10.779 14.8431L10.7833 14.8431C10.6547 14.8383 10.5317 14.7885 10.4367 14.7025L8.97047 13.3761L8.92947 13.3412L8.92435 13.3372C8.61573 13.0924 8.20925 13.0869 7.89068 13.2244C7.57084 13.3625 7.29921 13.6635 7.29921 14.0714L7.29908 19.0002H7.49908V19.2002L7.29908 19.2002L7.29908 19.0002H6.3017C6.3017 19.0002 6.3021 19.0002 6.3021 19.2002L6.3017 19.0002L6.30031 19.0002L6.29803 19.0003L6.29209 19.0004C6.28754 19.0006 6.28178 19.0008 6.27497 19.0013C6.26143 19.0023 6.24338 19.0041 6.22224 19.0076C6.18092 19.0144 6.12273 19.0285 6.0621 19.0586C6.00072 19.0891 5.93305 19.138 5.88114 19.2153C5.82834 19.2939 5.79965 19.3899 5.79965 19.5002L5.80262 19.5589L5.80406 19.571C5.82929 19.784 5.9636 19.8986 6.08242 19.9514C6.1386 19.9764 6.19143 19.9882 6.22919 19.994C6.24845 19.9969 6.26485 19.9985 6.2772 19.9993C6.2834 19.9997 6.28866 19.9999 6.29284 20.0001L6.29831 20.0002L6.30042 20.0002L6.3021 20.0002H7.2991L7.29908 19.8002L7.49908 19.8002ZM6.74583 10.8002L6.76204 10.8003C6.84442 10.8006 6.92648 10.804 7.00809 10.8102L0.899676 18.629L0.899976 12.4468L0.901232 12.3822C0.93548 11.5027 1.66534 10.8002 2.56082 10.8002H6.74583Z" fill="#4195B9"/>
<path fill-rule="evenodd" clip-rule="evenodd" d="M7.49354 5.19353C7.8004 5.64265 7.47494 6.24784 6.92292 6.24784L6.49487 6.2479C6.51783 6.31354 6.53713 6.38027 6.55267 6.44789C6.58393 6.58388 6.59998 6.72348 6.59998 6.86507C6.59998 7.99525 5.59251 8.91157 4.3499 8.91157C3.10732 8.91157 2.09998 7.99526 2.09998 6.86507C2.09998 6.72348 2.11603 6.58388 2.14728 6.44788C2.16282 6.38026 2.18212 6.31353 2.20508 6.2479L1.9872 6.24784C1.47999 6.24784 1.13105 5.71834 1.37401 5.26557C1.56356 4.91266 1.57289 4.75235 1.3592 4.37513L1.90564 4.39087C1.97025 4.75203 1.963 5.11784 1.89116 5.45589C1.87673 5.52377 1.8597 5.59052 1.84013 5.65589H7.07658L6.68036 5.0368C6.57468 4.86358 6.52175 4.69603 6.52734 4.52393L7.0672 4.53948L7.05747 4.55701L7.49354 5.19353ZM7.09303 4.49294L7.0672 4.53948L7.29234 4.54596L7.65853 5.0805C8.05912 5.66679 7.63033 6.44781 6.92295 6.44784L6.75736 6.44786C6.78553 6.58421 6.79998 6.72375 6.79998 6.86507C6.79998 8.12313 5.68469 9.11157 4.3499 9.11157C3.01512 9.11157 1.89998 8.12313 1.89998 6.86507C1.89998 6.72337 1.9145 6.58346 1.94282 6.44676C1.32209 6.41651 0.884026 5.75571 1.19778 5.171C1.29819 4.98406 1.32329 4.89211 1.3169 4.80806C1.3099 4.71581 1.26273 4.59838 1.12317 4.36834L1.3592 4.37513C1.33943 4.34024 1.31776 4.3035 1.29415 4.26458C1.04422 3.85275 1.32101 3.34346 1.78045 3.26854L2.21978 3.19658L3.49272 3.5352C3.19093 3.58605 2.91473 3.63078 2.66363 3.67144C2.39477 3.71498 2.15471 3.75386 1.94286 3.79059C1.87272 3.80275 1.80568 3.81467 1.74171 3.82644C1.76754 3.88929 1.79088 3.95286 1.81179 4.01694C1.85198 4.14011 1.88316 4.26521 1.90564 4.39087L2.10957 4.39674C2.16863 4.75532 2.16192 5.11734 2.09529 5.45589H6.71113L6.50962 5.14096C6.40746 4.9735 6.34193 4.79948 6.3292 4.61447C6.32699 4.58228 6.3264 4.55019 6.32742 4.51818L6.52734 4.52393C6.52921 4.46634 6.53763 4.40823 6.55283 4.34924L7.09303 4.49294ZM6.35955 4.29782L6.55283 4.34924C6.56948 4.2846 6.59425 4.21889 6.62744 4.15161L7.19356 2.92544C7.11272 2.94032 7.0327 2.95463 6.95341 2.96845C6.52713 3.04278 6.12248 3.10296 5.7304 3.16127C5.29825 3.22555 4.88138 3.28755 4.46764 3.36371C4.11715 3.42823 3.79233 3.48473 3.49272 3.5352L3.95649 3.65857C4.13144 3.628 4.31388 3.59538 4.50384 3.56041C4.91412 3.48488 5.32794 3.42333 5.76112 3.35891L5.80917 3.35176C6.14396 3.30195 6.48994 3.25015 6.85165 3.18887L6.4469 4.06552C6.40894 4.14284 6.37967 4.22019 6.35955 4.29782ZM7.09303 4.49294L7.29234 4.54596L7.89178 3.46581C8.24198 2.83542 7.69846 2.09628 6.99161 2.21233L1.74826 3.07115L2.21978 3.19658L7.02394 2.4097C7.57273 2.31954 7.98265 2.89052 7.71696 3.36867L7.09303 4.49294ZM7.10624 10.0002L7.11497 10.001C8.23433 10.0992 9.19081 10.5396 9.97607 11.3203C10.0118 11.3521 10.0541 11.3989 10.0958 11.447C10.1426 11.5011 10.198 11.5679 10.2582 11.6414L10.3471 11.7501C10.4472 11.8726 10.5573 12.0075 10.6694 12.1396C10.8163 12.3127 10.9613 12.4746 11.0844 12.5911C11.1464 12.6498 11.1977 12.6919 11.237 12.7179C11.2547 12.7295 11.2658 12.7352 11.2713 12.7377H13.478C13.7928 12.7255 14.0834 12.8966 14.2929 13.1268C14.5047 13.3595 14.6573 13.6767 14.6865 14.0094C14.7319 14.3673 14.6027 14.7519 14.4074 15.0452C14.2161 15.3324 13.9197 15.5915 13.5857 15.6069L10.6671 15.7273C10.3879 15.7399 10.1126 15.6469 9.90324 15.4658L8.69834 14.4497C8.60336 14.3617 8.52256 14.3098 8.46237 14.2875C8.43337 14.2768 8.41474 14.2749 8.4049 14.2753C8.39674 14.2756 8.39383 14.2772 8.3917 14.2786C8.38562 14.2826 8.34968 14.3121 8.3241 14.4324C8.29921 14.5494 8.29037 14.7253 8.31203 14.976L8.31277 14.9846V21.4602C8.31277 21.833 7.97717 22.1002 7.6311 22.1002H0.763133C0.406579 22.1002 0.0999756 21.8233 0.0999756 21.4602V12.035C0.0999756 10.9016 1.06385 10.0002 2.23119 10.0002H7.10624ZM10.0332 15.3137C10.203 15.4611 10.4279 15.538 10.658 15.5275L13.5765 15.4071C14.0554 15.385 14.5658 14.6272 14.4876 14.0307C14.4393 13.4578 13.9575 12.9165 13.4821 12.9377H11.2613C11.0655 12.9463 10.5529 12.3184 10.1914 11.8756C10.0303 11.6783 9.8992 11.5177 9.83949 11.4666C9.08717 10.7167 8.17317 10.2946 7.09749 10.2002H2.23119C1.16453 10.2002 0.299976 11.0216 0.299976 12.035V21.4602C0.299976 21.7033 0.50726 21.9002 0.763133 21.9002H7.6311C7.88697 21.9002 8.11277 21.7033 8.11277 21.4602V14.9932C8.02268 13.9505 8.41454 13.9139 8.83438 14.3028L10.0332 15.3137ZM7.49908 20.0002V19.8002L7.29908 19.8002L7.2991 20.0002H7.49908ZM6.3021 19.2002C6.3021 19.0002 6.3017 19.0002 6.3017 19.0002L6.3021 19.2002ZM7.29908 19.0002L7.29908 19.2002L7.49908 19.2002V19.0002H7.29908ZM10.7833 14.8431L10.779 14.8431L10.7807 15.0431L10.7869 14.8432L10.7833 14.8431ZM10.8303 14.8429L10.8343 14.8427L10.8382 14.8426L10.8399 15.0426L10.8303 14.8429ZM13.0691 13.6599L13.0725 13.6599L13.0696 13.4599L13.0661 13.6599L13.0691 13.6599ZM13.0301 13.6604L13.027 13.6606L13.0238 13.6606L13.0209 13.4606L13.0301 13.6604ZM7.75089 11.1594L7.81704 11.0747L7.81808 11.0734L7.81927 11.0718L7.82208 11.068L7.82924 11.0578C7.83463 11.0499 7.84119 11.0396 7.84841 11.0271L7.67492 10.9275L7.66663 10.9572L7.62109 11.1202C7.66465 11.1323 7.70793 11.1454 7.75089 11.1594ZM1.62474 19.0002L1.37094 19.0002L1.21468 19.2002L1.46848 19.2002L1.62474 19.0002ZM4.50104 19.8002C4.50104 20.0002 4.50144 20.0002 4.50144 20.0002L4.50104 19.8002ZM1.09973 20.0002L1.09968 19.8002H0.899676L0.89973 20.0002H1.09973ZM1.26754 21.0984L1.27342 21.0987L1.27758 21.0992L1.25755 21.2982L1.26754 21.0984ZM1.30328 21.1002H1.29829V21.3002L1.30828 21.1005L1.30328 21.1002ZM7.29837 20.9413L7.29842 20.9388L7.29852 20.9367L7.49832 20.9457L7.29837 20.9413ZM7.29921 20.9031L7.29921 20.9053L7.49921 20.9053L7.29926 20.9009L7.29921 20.9031ZM2.94368 6.44784C2.91495 6.55348 2.90019 6.66272 2.90019 6.7741C2.90019 7.50505 3.53687 8.11963 4.3501 8.11963C5.1634 8.11963 5.80019 7.50499 5.80019 6.7741C5.80019 6.66272 5.78543 6.55348 5.7567 6.44784H2.94368ZM5.90097 6.24784H2.79941C2.73418 6.41498 2.70019 6.59215 2.70019 6.7741C2.70019 7.62762 3.43893 8.31963 4.3501 8.31963C5.26133 8.31963 6.00019 7.62758 6.00019 6.7741C6.00019 6.59215 5.9662 6.41498 5.90097 6.24784ZM6.60583 11.0002H2.56082C1.7723 11.0002 1.13215 11.6179 1.10116 12.3881L1.09998 12.4488L1.0997 18.0481L6.60583 11.0002ZM6.76204 10.8003L6.74583 10.8002H2.56082C1.66534 10.8002 0.93548 11.5027 0.901232 12.3822L0.899976 12.4468L0.899676 18.629L7.00809 10.8102C6.92648 10.804 6.84442 10.8006 6.76204 10.8003Z" fill="#4195B9"/>
<path d="M2.69493 3.86898L2.91557 3.8332C3.22711 3.78256 3.57391 3.72544 3.95649 3.65857L3.49272 3.5352C3.19093 3.58605 2.91473 3.63078 2.66363 3.67144C2.39477 3.71498 2.15471 3.75386 1.94286 3.79059C1.87272 3.80275 1.80568 3.81467 1.74171 3.82644C1.76754 3.88929 1.79088 3.95286 1.81179 4.01694C1.85198 4.14011 1.88316 4.26521 1.90564 4.39087L2.10957 4.39674C2.08662 4.2574 2.05374 4.11857 2.01058 3.98185C2.21253 3.94711 2.44013 3.91025 2.69493 3.86898Z" fill="#4195B9"/>
<path d="M6.32742 4.51818L6.52734 4.52393C6.52921 4.46634 6.53763 4.40823 6.55283 4.34924L6.35955 4.29782C6.34059 4.37096 6.32975 4.44434 6.32742 4.51818Z" fill="#4195B9"/>
<path d="M7.0672 4.53948L7.29234 4.54596L7.09303 4.49294L7.0672 4.53948Z" fill="#4195B9"/>
<path d="M1.29415 4.26458C1.04422 3.85275 1.32101 3.34346 1.78045 3.26854L2.21978 3.19658L1.74826 3.07115L1.60934 3.11743L1.3169 3.2854L1.16794 3.50806L1.08123 3.67144L1.02885 3.89831L1.05706 4.26458L1.12317 4.36834L1.3592 4.37513C1.33943 4.34024 1.31776 4.3035 1.29415 4.26458Z" fill="#4195B9"/>
</svg>
