<svg width="24" height="24" viewBox="0 0 24 24" fill="none" xmlns="http://www.w3.org/2000/svg">
<g clip-path="url(#clip0_121_1030)">
<path d="M9.7499 10.2004C9.6999 10.2504 9.6499 10.2504 9.5499 10.3004C9.3499 10.4004 9.1999 10.4504 8.8499 10.4504C8.3999 10.4504 8.1999 10.3504 8.0499 10.2504H7.9999C7.6999 10.1004 7.3499 10.2004 7.1999 10.4504C7.0499 10.7004 7.1499 11.0504 7.4499 11.1504H7.4999C7.7499 11.2504 8.1499 11.5004 8.8499 11.5004C9.4999 11.5004 9.7999 11.3504 10.0499 11.2504C10.0999 11.2504 10.1499 11.2004 10.1999 11.2004C10.4999 11.1004 10.5999 10.7504 10.4999 10.5004C10.3999 10.2004 10.0499 10.0504 9.7499 10.2004Z" fill="#4195B9"/>
<path d="M13.7 5.80034L13.6 5.25034V5.20034C13.6 5.15034 13.65 5.10034 13.65 5.05034C13.65 3.95034 13.2 2.90034 12.45 2.05034C12 1.60034 11.5 1.25034 10.95 1.00034C10.3 0.750342 9.59998 0.600342 8.84998 0.600342C6.89998 0.600342 5.79998 1.40034 5.14998 2.05034C4.39998 2.85034 3.99998 3.95034 3.99998 5.05034C3.99998 5.10034 3.99998 5.15034 3.99998 5.20034V5.25034L3.94998 5.80034H3.89998C3.39998 6.10034 3.09998 6.70034 3.09998 7.40034C3.09998 7.85034 3.24998 8.30034 3.49998 8.60034C3.69998 8.85034 3.89998 9.00034 4.19998 9.10034H4.24998V9.15034C4.54998 10.3003 5.14998 11.3503 5.84998 12.1003C6.69998 13.0003 7.69998 13.5003 8.79998 13.5003C9.89998 13.5003 10.9 13.0503 11.75 12.1503C12.45 11.4003 13.05 10.3503 13.35 9.20034V9.15034H13.4C13.65 9.05034 13.9 8.90034 14.1 8.65034C14.35 8.30034 14.5 7.90034 14.5 7.45034C14.5 6.70034 14.2 6.10034 13.7 5.80034ZM5.24998 6.00034C6.19998 5.40034 7.44998 5.05034 8.79998 5.05034C10.15 5.05034 11.45 5.40034 12.4 6.00034L12.5 6.05034L12.4 6.10034C12.05 6.30034 11.4 6.25034 10.45 6.10034C9.89998 6.05034 9.34998 6.00034 8.79998 6.00034C8.19998 6.00034 7.59998 6.10034 7.14998 6.15034C6.69998 6.20034 6.29998 6.30034 5.99998 6.30034C5.69998 6.30034 5.49998 6.25034 5.29998 6.15034L5.19998 6.10034L5.24998 6.00034ZM12.55 5.00034C12.2 4.80034 11.85 4.65034 11.45 4.55034C10.65 4.30034 9.74998 4.15034 8.79998 4.15034C7.39998 4.15034 6.14998 4.45034 5.09998 5.00034L4.99998 5.05034V4.90034C4.99998 4.05034 5.34998 3.20034 5.89998 2.60034C6.54998 1.90034 7.59998 1.50034 8.79998 1.50034C10.25 1.50034 11.15 2.10034 11.65 2.65034C12.25 3.30034 12.6 4.10034 12.6 4.95034V5.10034L12.55 5.00034ZM7.24998 7.05034C7.69998 6.95034 8.24998 6.90034 8.74998 6.90034C9.24998 6.90034 9.74998 6.95034 10.3 7.05034C10.95 7.15034 11.55 7.20034 12.05 7.15034C12.5 7.10034 12.85 6.95034 13.15 6.70034L13.2 6.65034L13.25 6.70034C13.4 6.90034 13.5 7.15034 13.5 7.40034C13.5 7.85034 13.25 8.30034 12.95 8.30034C12.7 8.30034 12.5 8.45034 12.45 8.65034C12.2 9.80034 11.65 10.8003 11 11.5503C10.55 12.0503 9.79998 12.6003 8.79998 12.6003C7.79998 12.6003 7.04998 12.0003 6.59998 11.5003C5.94998 10.8003 5.39998 9.75034 5.14998 8.60034C5.09998 8.40034 4.89998 8.25034 4.64998 8.25034C4.34998 8.25034 4.09998 7.85034 4.09998 7.35034C4.09998 6.95034 4.24998 6.75034 4.34998 6.65034L4.39998 6.60034L4.44998 6.65034C4.74998 6.90034 5.09998 7.10034 5.54998 7.15034C6.09998 7.25034 6.64998 7.15034 7.24998 7.05034Z" fill="#4195B9"/>
<path d="M7.69998 8.70024C7.74998 8.60024 7.74998 8.50024 7.74998 8.40024C7.74998 8.05024 7.44998 7.75024 7.04998 7.75024C6.64998 7.75024 6.34998 8.05024 6.34998 8.40024C6.34998 8.50024 6.34998 8.60024 6.39998 8.70024C6.39998 8.75024 6.44998 8.75024 6.49998 8.75024H7.59998C7.64998 8.75024 7.69998 8.75024 7.69998 8.70024Z" fill="#4195B9"/>
<path d="M10.5999 7.75024C10.1999 7.75024 9.8999 8.05024 9.8999 8.40024C9.8999 8.50024 9.8999 8.60024 9.9499 8.70024C9.9499 8.75024 9.9999 8.75024 10.0499 8.75024H11.1499C11.1999 8.75024 11.1999 8.75024 11.2499 8.70024C11.2999 8.60024 11.2999 8.50024 11.2999 8.45024C11.2999 8.05024 10.9499 7.75024 10.5999 7.75024Z" fill="#4195B9"/>
<path d="M11.8 22.7504H1.94995V22.4504C2.04995 20.1004 2.74995 18.1504 3.89995 16.8004C5.09995 15.4504 6.74995 14.7004 8.64995 14.7004C9.34995 14.7004 10.05 14.8004 10.7 15.0004C10.85 15.0504 11.05 15.0504 11.15 14.9504C11.3 14.8504 11.35 14.7004 11.35 14.5504C11.35 14.3004 11.2 14.1504 11 14.0504C10.25 13.8004 9.44995 13.6504 8.59995 13.6504C7.54995 13.6504 6.54995 13.8504 5.64995 14.2504C4.74995 14.6504 3.89995 15.2504 3.19995 16.0504C1.74995 17.7504 0.949951 20.2504 0.949951 23.2504C0.949951 23.5504 1.14995 23.7504 1.39995 23.7504H11.8C12.05 23.7504 12.25 23.5004 12.25 23.2504C12.25 23.0004 12.05 22.7504 11.8 22.7504Z" fill="#4195B9"/>
<path d="M22.85 14.7503C22.75 14.7003 22.75 14.7003 22.7 14.6503L17.85 12.5003L17.75 12.4503C17.6 12.4003 17.45 12.4003 17.35 12.4503L12.4 14.5503C12.4 14.5503 12.3 14.6003 12.25 14.6503C12.1 14.8003 12.1 15.0003 12.1 15.0503V20.7503C12.1 20.9503 12.2 21.1003 12.35 21.2503L17.4 23.3503H17.65C17.75 23.3503 17.85 23.3003 17.9 23.2503L22.75 21.3503C22.95 21.3003 23.05 21.1003 23.05 20.9003V15.0503C23.05 15.1003 23.05 14.8503 22.85 14.7503ZM18.1 17.5503L19.65 16.9003V17.6503C19.65 17.9003 19.8 18.2003 20.2 18.2003H20.25C20.5 18.1503 20.7 17.9503 20.7 17.6503V16.5003L22.05 15.9003V20.7003L18.15 22.2503V17.5503H18.1ZM20.15 15.6003L16.45 13.9503L17.6 13.5003L21.3 15.1503L20.15 15.6003ZM18.85 16.1503L17.6 16.6503C16.25 16.1003 15.25 15.6503 14.45 15.3003C14.25 15.2003 14 15.1003 13.85 15.0503L15.2 14.5003L18.85 16.1503ZM17.1 17.5003V22.2003L13.05 20.5003V15.8003L17.1 17.5003Z" fill="#699C69"/>
</g>
<defs>
<clipPath id="clip0_121_1030">
<rect width="24" height="24" fill="white" transform="translate(0 0.000244141)"/>
</clipPath>
</defs>
</svg>
