<svg width="24" height="24" viewBox="0 0 24 24" fill="none" xmlns="http://www.w3.org/2000/svg">
<path fill-rule="evenodd" clip-rule="evenodd" d="M3.09564 17.0342C4.65328 15.4756 6.7665 14.5999 8.97004 14.5999H8.97206C9.45751 14.6018 9.94195 14.6444 10.4203 14.7272C10.6924 14.7743 10.8748 15.033 10.8277 15.3051C10.7806 15.5772 10.5219 15.7596 10.2498 15.7125C9.82676 15.6393 9.39835 15.6016 8.96904 15.5999C7.03118 15.6001 5.17282 16.3704 3.80297 17.7411C2.4387 19.1062 1.67034 20.9555 1.66507 22.8849H11.865C12.1412 22.8849 12.365 23.1087 12.365 23.3849C12.365 23.661 12.1412 23.8849 11.865 23.8849H1.16504C0.888898 23.8849 0.665041 23.661 0.665041 23.3849V22.91M3.09564 17.0342C1.53807 18.5928 0.663715 20.7066 0.665041 22.91L3.09564 17.0342Z" fill="#4195B9"/>
<path fill-rule="evenodd" clip-rule="evenodd" d="M5.62301 6.38988C6.20719 6.27764 6.95077 6.13477 7.84507 6.13477C8.77869 6.13477 9.49822 6.27865 10.0651 6.39202C10.1281 6.40462 10.1893 6.41684 10.2486 6.42844C10.8391 6.54398 11.1877 6.58118 11.5287 6.4599C11.6333 6.41101 11.7577 6.39652 11.8821 6.43327C12.0141 6.47228 12.0902 6.55356 12.1145 6.58096C12.1461 6.61655 12.1656 6.64893 12.1748 6.66502C12.1938 6.69815 12.2046 6.72614 12.2082 6.73574C12.2132 6.74883 12.2167 6.75968 12.2188 6.76617C12.2228 6.77917 12.2257 6.79003 12.2271 6.79573C12.2323 6.8163 12.237 6.83918 12.2399 6.85383C12.2469 6.88901 12.2562 6.93942 12.2666 6.99716C12.2876 7.11412 12.3154 7.27454 12.3429 7.43539C12.363 7.55285 12.3831 7.67124 12.4005 7.77426C12.4679 7.80026 12.541 7.83309 12.615 7.87444C12.9164 8.04268 13.2857 8.39119 13.2596 8.99148C13.2438 9.35405 13.1859 9.90386 12.9874 10.3645C12.8869 10.5975 12.7351 10.8445 12.4995 11.0237C12.3567 11.1322 12.1942 11.2072 12.0161 11.2431C11.3503 12.9351 9.6969 14.0541 7.85476 14.0199C6.00586 14.052 4.35036 12.9202 3.69575 11.2172C3.51956 11.1808 3.35882 11.1058 3.21761 10.9979C2.98288 10.8186 2.83177 10.5716 2.73186 10.3389C2.53425 9.87855 2.4763 9.32909 2.46054 8.96648C2.43427 8.3623 2.8083 8.01837 3.1155 7.85629C3.17805 7.82329 3.2398 7.7963 3.29804 7.77423L3.39768 6.8037C3.41516 6.63342 3.51854 6.48392 3.67168 6.40744C3.82482 6.33096 4.00645 6.33815 4.15307 6.42647C4.38376 6.56544 4.69266 6.56251 5.35586 6.44052C5.44084 6.42488 5.5299 6.40777 5.62301 6.38988ZM3.81525 8.66671C3.81391 8.66689 3.81021 8.66739 3.80452 8.66831C3.79269 8.67023 3.77313 8.67382 3.74865 8.67975C3.6974 8.69218 3.63656 8.71203 3.58214 8.74074C3.52718 8.76973 3.49687 8.79813 3.48185 8.81955C3.47214 8.83342 3.45683 8.85937 3.45959 8.92305C3.47383 9.25044 3.52588 9.65348 3.65077 9.9444C3.71211 10.0873 3.77538 10.1656 3.82471 10.2033C3.85967 10.23 3.90358 10.251 3.99528 10.239C4.23954 10.2071 4.47066 10.3578 4.53991 10.5942C4.96807 12.056 6.32232 13.0498 7.84523 13.0199C7.85199 13.0197 7.85875 13.0197 7.86552 13.0199C9.38361 13.0516 10.7371 12.0686 11.1765 10.6151C11.2472 10.381 11.477 10.2324 11.7195 10.2639C11.8133 10.2761 11.8586 10.2547 11.8943 10.2276C11.9441 10.1897 12.0076 10.1114 12.069 9.96876C12.1942 9.67817 12.2463 9.27548 12.2605 8.94805C12.2644 8.85834 12.2337 8.80685 12.1276 8.74759C12.0715 8.71627 12.0094 8.69421 11.9577 8.68012C11.933 8.67336 11.9132 8.66914 11.9012 8.66683C11.8982 8.66625 11.8957 8.6658 11.8938 8.66548C11.8921 8.66516 11.8908 8.66496 11.8902 8.66486L11.8917 8.66508L11.8929 8.66524L11.8938 8.66548C11.6762 8.63646 11.5031 8.46881 11.4669 8.25227L11.4668 8.25135L11.4326 8.04835C11.4121 7.92624 11.3846 7.76419 11.3572 7.60414C11.3524 7.57591 11.3476 7.54777 11.3428 7.51997C10.9021 7.56728 10.4751 7.49173 10.0566 7.40984C9.99518 7.39783 9.93319 7.38547 9.87042 7.37296C9.30489 7.26023 8.67551 7.13477 7.84507 7.13477C7.05273 7.13477 6.40581 7.25849 5.82147 7.37025C5.72499 7.3887 5.63022 7.40683 5.53677 7.42401C5.14977 7.49521 4.73426 7.56404 4.32992 7.51496L4.25745 8.22083C4.23339 8.45521 4.04904 8.64078 3.81525 8.66671Z" fill="#4195B9"/>
<path fill-rule="evenodd" clip-rule="evenodd" d="M4.15096 5.59539L4.36463 6.98908C4.40648 7.26203 4.21913 7.51723 3.94617 7.55908C3.67322 7.60093 3.41802 7.41358 3.37618 7.14063L3.15617 5.70563C3.15252 5.68178 3.15059 5.6577 3.15041 5.63357L3.6504 5.62985C3.15041 5.63357 3.15041 5.63331 3.15041 5.63303L3.1504 5.63239L3.1504 5.63083L3.15039 5.6266L3.15046 5.61378C3.15055 5.60332 3.15077 5.58908 3.15124 5.5713C3.15219 5.53576 3.15415 5.48599 3.15821 5.42401C3.16632 5.30023 3.18283 5.12672 3.2165 4.91985C3.28345 4.50848 3.42028 3.95233 3.70312 3.39014C3.98708 2.82571 4.42249 2.24734 5.08683 1.81149C5.75375 1.37393 6.62132 1.09985 7.7354 1.09985C8.84957 1.09985 9.71971 1.37394 10.3909 1.81037C11.0594 2.24507 11.5016 2.82192 11.7927 3.38531C12.0828 3.94659 12.2271 4.5021 12.2996 4.91331C12.3361 5.12007 12.3549 5.2935 12.3647 5.41724C12.3696 5.4792 12.3723 5.52896 12.3737 5.56449C12.3744 5.58227 12.3748 5.59651 12.3751 5.60696L12.3753 5.61978L12.3754 5.62401L12.3754 5.62557L12.3754 5.62621C12.3754 5.62649 12.3754 5.62675 11.8754 5.62985L12.3754 5.62675C12.3756 5.65688 12.373 5.68697 12.3678 5.71665L12.1228 7.10665C12.0749 7.3786 11.8156 7.5602 11.5436 7.51226C11.2717 7.46433 11.0901 7.20501 11.138 6.93306L11.3741 5.59378C11.373 5.57041 11.3711 5.53746 11.3678 5.49614C11.3602 5.39949 11.345 5.25808 11.3148 5.08702C11.2541 4.74261 11.1349 4.29062 10.9043 3.84439C10.6748 3.40029 10.3393 2.96964 9.84572 2.64871C9.35484 2.32951 8.67874 2.09985 7.7354 2.09985C6.79199 2.09985 6.12018 2.32953 5.63538 2.6476C5.148 2.96736 4.81934 3.3965 4.59643 3.83957C4.37239 4.28488 4.25954 4.73622 4.20351 5.08048C4.1757 5.25142 4.1624 5.39276 4.15608 5.48937C4.15303 5.53591 4.15161 5.57183 4.15096 5.59539Z" fill="#4195B9"/>
<path fill-rule="evenodd" clip-rule="evenodd" d="M11.4558 5.85994C10.2734 5.43602 9.0225 5.2358 7.76688 5.26952L7.76062 5.26968L7.75437 5.26954C6.4851 5.24008 5.22096 5.44029 4.02292 5.86052L3.85742 5.3887C5.11036 4.94922 6.43231 4.73947 7.75972 4.76953C9.07524 4.73499 10.3857 4.94513 11.6245 5.38928L11.4558 5.85994Z" fill="#4195B9"/>
<path fill-rule="evenodd" clip-rule="evenodd" d="M9.31283 10.268C9.4659 10.4075 9.47691 10.6447 9.3374 10.7978C8.97321 11.1974 8.46142 11.4307 7.92088 11.4435C7.38034 11.4563 6.85807 11.2475 6.47535 10.8656C6.32875 10.7193 6.3285 10.4819 6.47479 10.3353C6.62109 10.1887 6.85852 10.1884 7.00512 10.3347C7.24288 10.572 7.56731 10.7017 7.9031 10.6937C8.23889 10.6858 8.55682 10.5408 8.78307 10.2926C8.92257 10.1395 9.15975 10.1285 9.31283 10.268Z" fill="#4195B9"/>
<path fill-rule="evenodd" clip-rule="evenodd" d="M7.72467 2.9497C7.58747 3.22031 7.36155 3.43564 7.08467 3.5597C6.84467 3.6397 6.76467 3.4647 6.88967 3.2047L7.72467 2.9497ZM9.00967 2.5647C8.62229 3.38889 7.94893 4.04448 7.11467 4.4097C6.42967 4.6197 6.16967 4.1397 6.53967 3.3347L6.77967 3.2547C6.53967 3.7847 6.69967 4.1047 7.15967 3.9597C7.70882 3.72748 8.1524 3.29993 8.40467 2.7597L9.00967 2.5647Z" fill="#699C69"/>
<path fill-rule="evenodd" clip-rule="evenodd" d="M22.25 14.3049C22.4985 14.3049 22.7 14.5064 22.7 14.7549V20.7099C22.7 20.8888 22.594 21.0508 22.43 21.1223L17.505 23.2723C17.2773 23.3718 17.012 23.2677 16.9126 23.04C16.8131 22.8122 16.9172 22.5469 17.145 22.4475L21.8 20.4154V14.7549C21.8 14.5064 22.0015 14.3049 22.25 14.3049Z" fill="#699C69"/>
<path fill-rule="evenodd" clip-rule="evenodd" d="M12.3846 14.2649C12.6331 14.2649 12.8346 14.4664 12.8346 14.7149V20.3785L16.8196 22.165V16.8399C16.8196 16.5914 17.021 16.3899 17.2696 16.3899C17.5181 16.3899 17.7196 16.5914 17.7196 16.8399V22.8599C17.7196 23.0125 17.6422 23.1547 17.5142 23.2376C17.3861 23.3205 17.2247 23.3329 17.0855 23.2705L12.2005 21.0805C12.0387 21.008 11.9346 20.8472 11.9346 20.6699V14.7149C11.9346 14.4664 12.136 14.2649 12.3846 14.2649Z" fill="#699C69"/>
<path fill-rule="evenodd" clip-rule="evenodd" d="M17.0665 14.4668C17.1701 14.2409 17.4372 14.1418 17.6631 14.2454L20.0831 15.3554C20.2419 15.4283 20.3442 15.5865 20.3455 15.7612L20.3655 18.5062C20.3673 18.7547 20.1673 18.9576 19.9188 18.9594C19.6703 18.9613 19.4673 18.7613 19.4655 18.5127L19.4476 16.0541L17.2879 15.0635C17.062 14.9599 16.9629 14.6927 17.0665 14.4668Z" fill="#699C69"/>
<path fill-rule="evenodd" clip-rule="evenodd" d="M17.1364 12.1621C17.2502 12.1129 17.3793 12.113 17.4932 12.1622L22.4232 14.2922C22.5879 14.3633 22.6946 14.5256 22.6947 14.7051C22.6948 14.8845 22.5882 15.0469 22.4235 15.1182L17.4935 17.2532C17.3795 17.3026 17.2501 17.3026 17.136 17.2533L12.201 15.1183C12.0362 15.047 11.9296 14.8846 11.9297 14.7051C11.9298 14.5255 12.0365 14.3632 12.2014 14.2921L17.1364 12.1621ZM13.5141 14.7057L17.3146 16.3499L21.1112 14.7057L17.3146 13.0654L13.5141 14.7057Z" fill="#699C69"/>
<path d="M9.46516 8.29442C9.18016 8.29442 8.96516 8.56942 8.91016 8.93442C8.91542 8.98493 8.95946 9.02237 9.01016 9.01942H9.93516C9.95992 9.01946 9.9836 9.0093 10.0006 8.99132C10.0177 8.97335 10.0265 8.94915 10.0252 8.92442C10.0306 8.60251 9.79423 8.32748 9.47516 8.28442" fill="#4195B9"/>
<path d="M6.36459 8.29517C6.04552 8.33822 5.80917 8.61325 5.81459 8.93517C5.81322 8.95989 5.82209 8.98409 5.83912 9.00206C5.85615 9.02004 5.87983 9.0302 5.90459 9.03017H6.82959C6.85435 9.0302 6.87804 9.02004 6.89507 9.00206C6.9121 8.98409 6.92097 8.95989 6.91959 8.93517C6.92471 8.61157 6.68565 8.3359 6.36459 8.29517Z" fill="#4195B9"/>
</svg>
