<svg width="24" height="24" viewBox="0 0 24 24" fill="none" xmlns="http://www.w3.org/2000/svg">
<g clip-path="url(#clip0_120_350)">
<path d="M8.89951 14.5647C9.38706 14.5638 9.87371 14.6066 10.3536 14.6926C10.6254 14.7413 10.8063 15.0011 10.7576 15.2729C10.7089 15.5447 10.4491 15.7256 10.1773 15.6769C9.75619 15.6015 9.32917 15.5639 8.90075 15.5647C4.90323 15.5673 1.6534 18.7652 1.56718 22.7424L1.56543 22.8997H11.8304C12.0868 22.8997 12.2982 23.0928 12.3271 23.3414L12.3304 23.3997C12.3304 23.6562 12.1374 23.8675 11.8887 23.8964L11.8304 23.8997H1.09043C0.840865 23.8997 0.629516 23.7157 0.595183 23.4685C0.580772 23.3648 0.572697 23.2667 0.568731 23.1583L0.565734 23.0156L0.56543 22.8994C0.568364 18.2975 4.29821 14.5677 8.89951 14.5647Z" fill="#4195B9"/>
<path d="M22.2501 14.3049C22.4795 14.3049 22.6688 14.4766 22.6966 14.6985L22.7001 14.7549V20.7099C22.7001 20.869 22.6164 21.0146 22.4826 21.0952L22.4302 21.1223L17.5052 23.2723C17.2774 23.3718 17.0121 23.2677 16.9127 23.04C16.8209 22.8297 16.9025 22.5875 17.0947 22.4733L17.1451 22.4475L21.8001 20.4149V14.7549C21.8001 14.5255 21.9718 14.3362 22.1937 14.3084L22.2501 14.3049Z" fill="#699C69"/>
<path d="M12.3854 14.2649C12.6148 14.2649 12.8042 14.4366 12.8319 14.6584L12.8354 14.7149L12.8349 20.3779L16.8204 22.1649V16.8399C16.8204 16.6105 16.9921 16.4212 17.214 16.3934L17.2704 16.3899C17.4998 16.3899 17.6891 16.5616 17.7169 16.7834L17.7204 16.8399V22.8599C17.7204 23.167 17.4225 23.378 17.1392 23.2905L17.0863 23.2705L12.2013 21.0805C12.0575 21.016 11.9593 20.8818 11.9392 20.7283L11.9354 20.6699V14.7149C11.9354 14.4664 12.1369 14.2649 12.3854 14.2649Z" fill="#699C69"/>
<path d="M17.0665 14.4668C17.1621 14.2583 17.3971 14.1578 17.6103 14.2251L17.6631 14.2454L20.0831 15.3554C20.2243 15.4202 20.3208 15.5524 20.3414 15.7036L20.3455 15.7612L20.3655 18.5062C20.3673 18.7547 20.1673 18.9576 19.9188 18.9595C19.6894 18.9611 19.4988 18.7908 19.4694 18.5692L19.4655 18.5127L19.4475 16.0545L17.2879 15.0635C17.0794 14.9678 16.9789 14.7329 17.0461 14.5196L17.0665 14.4668Z" fill="#699C69"/>
<path d="M17.1373 12.1621L12.2023 14.2921C11.8403 14.4484 11.8401 14.9617 12.202 15.1183L17.137 17.2533C17.2511 17.3026 17.3804 17.3026 17.4945 17.2532L22.4245 15.1182C22.7862 14.9615 22.786 14.4485 22.4241 14.2922L17.4941 12.1622C17.3803 12.113 17.2512 12.1129 17.1373 12.1621ZM17.3152 13.0652L21.1122 14.7057L17.3157 16.3497L13.5152 14.7052L17.3152 13.0652Z" fill="#699C69"/>
<path d="M11.8119 6.65443C10.5369 6.96678 9.2317 7.13972 7.9193 7.17021C6.62932 7.14369 5.32469 6.97082 4.05136 6.6548L3.99632 6.6443C3.72192 6.6076 3.46434 6.80391 3.43381 7.08633L3.35042 7.85207L3.27605 7.88261L3.18476 7.92552C2.7595 8.14056 2.48475 8.5208 2.51157 9.04559L2.51844 9.16269C2.59554 10.3239 2.92804 11.1846 3.73875 11.3141L3.76442 11.3176L3.77364 11.341C4.44723 13.0214 6.10025 14.1286 7.93779 14.0849L8.07038 14.0858C9.78628 14.0705 11.3357 13.0374 12.0299 11.4742L12.0959 11.3161L12.1235 11.3126C12.9645 11.1724 13.3025 10.2348 13.3456 9.03805C13.3644 8.51464 13.0907 8.13606 12.6688 7.92334L12.5764 7.8801L12.5039 7.85107L12.4285 7.09076C12.3985 6.78806 12.1074 6.58206 11.8119 6.65443ZM11.3129 7.79087L11.4889 7.75307L11.5434 8.29938C11.565 8.51825 11.7265 8.69472 11.9373 8.73924L11.9959 8.74804C12.0394 8.75197 12.1338 8.77353 12.2186 8.81627C12.3184 8.8666 12.3496 8.90966 12.3462 9.0021C12.3161 9.83928 12.0914 10.3614 11.8053 10.3242C11.5631 10.2928 11.3336 10.4409 11.2625 10.6747C10.832 12.0911 9.53711 13.0612 8.0668 13.0855L7.93663 13.0852C6.39278 13.1214 5.03547 12.135 4.60001 10.677C4.52988 10.4422 4.29989 10.2928 4.05684 10.3242C3.77127 10.3611 3.55413 9.85305 3.51026 8.99456C3.50592 8.90946 3.53524 8.86888 3.636 8.81793C3.70462 8.78323 3.77931 8.76188 3.82923 8.7524L3.9192 8.73823C4.12639 8.69241 4.28475 8.51902 4.30802 8.30381L4.36742 7.75357L4.54755 7.79248C5.65763 8.02062 6.78673 8.14707 7.92082 8.16997C9.07159 8.14362 10.2027 8.01668 11.3129 7.79087Z" fill="#4195B9"/>
<path d="M7.61547 0.305347C7.71481 0.265729 7.82368 0.259207 7.92614 0.285767L7.98673 0.305673L13.8617 2.66067C14.1381 2.77146 14.2533 3.09438 14.1212 3.35194L14.0915 3.4025L12.4292 5.89028L12.1977 7.17359C12.1522 7.42593 11.9247 7.59962 11.6749 7.58387L11.6169 7.57682C11.3645 7.53127 11.1908 7.30378 11.2066 7.05394L11.2136 6.99596L11.4636 5.61096C11.4718 5.56593 11.486 5.52235 11.5059 5.48138L11.5399 5.42205L12.9172 3.35928L7.79969 1.30828L2.66719 3.35478L4.11012 5.41278C4.14325 5.46005 4.16787 5.51257 4.18301 5.56798L4.19496 5.62426L4.41496 7.06426C4.45666 7.33724 4.26918 7.59234 3.9962 7.63404C3.74273 7.67277 3.50466 7.51388 3.43856 7.27242L3.42643 7.21529L3.22369 5.88978L1.48626 3.41177C1.31267 3.16413 1.39827 2.82541 1.65654 2.68558L1.71047 2.66035L7.61547 0.305347Z" fill="#4195B9"/>
<path d="M11.6155 5.19482C11.8916 5.19482 12.1155 5.41868 12.1155 5.69482C12.1155 5.95124 11.9225 6.16258 11.6738 6.19146L11.6155 6.19482H3.99048C3.71434 6.19482 3.49048 5.97097 3.49048 5.69482C3.49048 5.43841 3.6835 5.22707 3.93217 5.19819L3.99048 5.19482H11.6155Z" fill="#4195B9"/>
<path d="M8.85414 10.6016C8.99397 10.4488 9.23117 10.4383 9.38395 10.5781C9.53674 10.7179 9.54724 10.9551 9.40742 11.1079C9.04147 11.5078 8.52825 11.7411 7.98636 11.7539C7.44447 11.7666 6.9208 11.5578 6.5364 11.1757C6.38952 11.0297 6.38882 10.7922 6.53484 10.6454C6.68085 10.4985 6.91829 10.4978 7.06517 10.6438C7.3047 10.8819 7.631 11.012 7.96866 11.0041C8.30632 10.9961 8.62612 10.8507 8.85414 10.6016Z" fill="#4195B9"/>
<path d="M7.86074 4.46978C8.33018 4.46978 8.71074 4.08922 8.71074 3.61978C8.71074 3.15033 8.33018 2.76978 7.86074 2.76978C7.3913 2.76978 7.01074 3.15033 7.01074 3.61978C7.01074 4.08922 7.3913 4.46978 7.86074 4.46978Z" fill="#699C69"/>
<path d="M9.46516 8.71021C9.14636 8.75513 8.90951 9.02826 8.91016 9.35021C8.91009 9.40078 8.94965 9.44254 9.00016 9.44521H9.92516C9.94992 9.44524 9.9736 9.43508 9.99063 9.4171C10.0077 9.39913 10.0165 9.37493 10.0152 9.35021C10.0183 9.0291 9.78309 8.75535 9.46516 8.71021Z" fill="#4195B9"/>
<path d="M6.36557 8.71021C6.04764 8.75535 5.81238 9.0291 5.81557 9.35021C5.81419 9.37493 5.82306 9.39913 5.84009 9.4171C5.85712 9.43508 5.88081 9.44524 5.90557 9.44521H6.83057C6.85533 9.44524 6.87901 9.43508 6.89604 9.4171C6.91307 9.39913 6.92194 9.37493 6.92057 9.35021C6.92343 9.02744 6.68549 8.75306 6.36557 8.71021Z" fill="#4195B9"/>
</g>
<defs>
<clipPath id="clip0_120_350">
<rect width="24" height="24" fill="white" transform="translate(0 0.000244141)"/>
</clipPath>
</defs>
</svg>
