<svg width="24" height="24" viewBox="0 0 24 24" fill="none" xmlns="http://www.w3.org/2000/svg">
<g clip-path="url(#clip0_120_400)">
<path fill-rule="evenodd" clip-rule="evenodd" d="M2.75588 13.0414C4.32492 11.7307 6.39114 11.1768 8.40537 11.5268C8.67743 11.5741 8.85966 11.833 8.81238 12.105C8.7651 12.3771 8.50623 12.5593 8.23416 12.5121C6.50954 12.2124 4.7404 12.6866 3.39696 13.8088C2.08131 14.9078 1.30444 16.5192 1.26149 18.2294H9.60476C9.88091 18.2294 10.1048 18.4533 10.1048 18.7294C10.1048 19.0056 9.88091 19.2294 9.60476 19.2294H0.759766C0.483623 19.2294 0.259766 19.0056 0.259766 18.7294V18.331C0.27392 16.2866 1.18685 14.352 2.75588 13.0414Z" fill="#4195B9"/>
<path fill-rule="evenodd" clip-rule="evenodd" d="M4.42297 4.63353C4.90433 4.54039 5.52566 4.42017 6.26997 4.42017C7.04559 4.42017 7.64591 4.53892 8.11284 4.63129C8.16627 4.64186 8.21795 4.65209 8.26795 4.66175C8.75315 4.7555 9.01794 4.77955 9.27029 4.68979C9.29395 4.67892 9.31967 4.66938 9.34759 4.6617C9.56433 4.6021 9.72794 4.70219 9.79061 4.7518C9.85343 4.80154 9.88856 4.85432 9.9008 4.87333C9.91676 4.89813 9.92727 4.91932 9.9329 4.93128C9.95068 4.96906 9.96 5.00205 9.96132 5.00669C9.96439 5.01731 9.96672 5.02664 9.96792 5.03157C9.97219 5.04919 9.97602 5.06852 9.97845 5.08096C9.98423 5.11059 9.99188 5.1526 10.0004 5.20038C10.0176 5.29721 10.0403 5.4295 10.0629 5.56189C10.0754 5.63518 10.0878 5.70887 10.0993 5.77714C10.1404 5.79321 10.1831 5.81212 10.2264 5.83439C10.5087 5.97976 10.8382 6.29202 10.8197 6.83711C10.809 7.15214 10.7613 7.62366 10.5909 8.0219C10.5045 8.22371 10.3715 8.44277 10.1613 8.60374C10.045 8.69275 9.91409 8.75691 9.7718 8.79273C9.19682 10.1955 7.81357 11.119 6.27507 11.0903C4.73569 11.1197 3.35258 10.192 2.78408 8.78531C2.6404 8.74653 2.50923 8.67927 2.39353 8.58794C2.18728 8.42513 2.05621 8.20711 1.9706 8.00613C1.80168 7.60961 1.75372 7.14461 1.74045 6.84207C1.71659 6.29807 2.05535 5.98774 2.32718 5.84424C2.36437 5.82461 2.40118 5.80742 2.43688 5.79237L2.51254 5.0495C2.52997 4.87844 2.63406 4.72834 2.78816 4.65206C2.94226 4.57578 3.12474 4.58403 3.27132 4.67391C3.42829 4.77015 3.6488 4.77794 4.20034 4.67599C4.27084 4.66296 4.34507 4.6486 4.42297 4.63353ZM2.95638 6.67697L2.95057 6.67785C2.94271 6.67912 2.92881 6.68165 2.9111 6.68594C2.87339 6.69508 2.83057 6.70929 2.79401 6.72859C2.75693 6.74816 2.74431 6.76337 2.74216 6.76643C2.74212 6.76649 2.7422 6.76638 2.74216 6.76643C2.74186 6.76686 2.74172 6.76706 2.74145 6.76799C2.74113 6.76909 2.7386 6.77796 2.73949 6.79826C2.75122 7.06572 2.79326 7.38572 2.8906 7.61421C2.9381 7.72572 2.98422 7.7802 3.01313 7.80302C3.02904 7.81558 3.04739 7.82771 3.10224 7.82245C3.33963 7.79969 3.56005 7.94773 3.62876 8.17609C3.97716 9.33386 5.05519 10.1169 6.26395 10.0903C6.27122 10.0901 6.27849 10.0901 6.28576 10.0903C7.49732 10.1164 8.57844 9.33363 8.93168 8.17442C9.00249 7.94205 9.23006 7.7942 9.47115 7.82392C9.52599 7.83068 9.54137 7.81891 9.55312 7.8099C9.5788 7.79025 9.62417 7.73912 9.67155 7.62843C9.76861 7.40167 9.81094 7.07819 9.82026 6.80323C9.82111 6.77818 9.81803 6.76562 9.81694 6.76183C9.81594 6.75838 9.81521 6.75734 9.81479 6.75673C9.81313 6.75434 9.80231 6.74082 9.76857 6.72344C9.7348 6.70605 9.69468 6.69346 9.65884 6.6856C9.6421 6.68193 9.62905 6.67989 9.62187 6.67892C9.61971 6.67863 9.61818 6.67844 9.61734 6.67835C9.39004 6.65892 9.20436 6.48789 9.16677 6.26237L9.13874 6.09488C9.12235 5.99719 9.10066 5.86839 9.07884 5.74015C8.73126 5.76457 8.39677 5.70513 8.07824 5.64359C8.02584 5.63346 7.97302 5.62305 7.91962 5.61253C7.45397 5.52078 6.94337 5.42017 6.26997 5.42017C5.62843 5.42017 5.10497 5.52087 4.62355 5.61349C4.54199 5.62918 4.46162 5.64464 4.3821 5.65934C4.09212 5.71294 3.76945 5.7681 3.44704 5.74339L3.3974 6.23083C3.37355 6.46497 3.18973 6.65051 2.95638 6.67697ZM9.97722 5.19764C9.97681 5.20231 9.97575 5.21232 9.97337 5.22624C9.97493 5.21678 9.97621 5.20724 9.97722 5.19764Z" fill="#4195B9"/>
<path fill-rule="evenodd" clip-rule="evenodd" d="M3.30596 4.05343L3.50243 5.18431C3.5497 5.45638 3.36746 5.71525 3.09539 5.76251C2.82332 5.80978 2.56445 5.62754 2.51719 5.35547L2.31219 4.17548C2.30728 4.14721 2.30481 4.11858 2.30481 4.08989H2.80481C2.30481 4.08989 2.30481 4.08963 2.30481 4.08936L2.30481 4.08875L2.30482 4.08729L2.30484 4.08346L2.30498 4.07218C2.30513 4.06308 2.3054 4.05084 2.30592 4.03567C2.30694 4.00534 2.30891 3.9632 2.3127 3.91092C2.32025 3.80653 2.33512 3.66072 2.36445 3.48708C2.42272 3.14215 2.54018 2.67473 2.78006 2.20137C3.02101 1.72592 3.38993 1.23624 3.95176 0.86669C4.51638 0.495299 5.24618 0.264893 6.17481 0.264893C7.10351 0.264893 7.83527 0.495311 8.40319 0.865578C8.96826 1.23398 9.34276 1.72216 9.58961 2.19661C9.83543 2.66907 9.9591 3.13584 10.022 3.48062C10.0537 3.65413 10.0705 3.79986 10.0795 3.90422C10.0839 3.95647 10.0865 3.9986 10.0879 4.02892C10.0886 4.04409 10.0891 4.05632 10.0894 4.06542L10.0896 4.0767L10.0897 4.08053L10.0897 4.08198L10.0898 4.08259C10.0898 4.08287 10.0898 4.08313 9.58981 4.08989L10.0898 4.08313C10.0902 4.11519 10.0875 4.14721 10.0818 4.17876L9.87685 5.31376C9.82777 5.58551 9.56768 5.76601 9.29594 5.71693C9.02419 5.66785 8.84369 5.40777 8.89277 5.13602L9.08793 4.05548C9.08692 4.0383 9.0854 4.01625 9.08313 3.98983C9.07647 3.91234 9.06346 3.79831 9.03824 3.66011C8.9874 3.38144 8.88919 3.01697 8.70251 2.65817C8.51686 2.30137 8.24823 1.9583 7.85705 1.70327C7.46873 1.4501 6.93111 1.26489 6.17481 1.26489C5.41844 1.26489 4.88448 1.45011 4.5013 1.70216C4.11531 1.95605 3.85236 2.29762 3.67206 2.65341C3.49069 3.0113 3.39753 3.37514 3.35048 3.65364C3.32716 3.79172 3.31569 3.90568 3.31009 3.98312C3.308 4.012 3.30673 4.03565 3.30596 4.05343Z" fill="#4195B9"/>
<path fill-rule="evenodd" clip-rule="evenodd" d="M9.23017 4.31971C8.26149 3.9707 7.23604 3.8061 6.20679 3.83442L6.20034 3.8346L6.19389 3.83444C5.15258 3.80936 4.11539 3.974 3.13303 4.32029L2.9668 3.84874C4.00435 3.48298 5.09969 3.30873 6.19948 3.33443C7.28895 3.30526 8.37429 3.47988 9.39965 3.84931L9.23017 4.31971Z" fill="#4195B9"/>
<path fill-rule="evenodd" clip-rule="evenodd" d="M7.52108 7.86182C7.67466 8.00076 7.68652 8.23791 7.54757 8.39148C7.23552 8.73639 6.79546 8.93791 6.33047 8.94883C5.86549 8.95976 5.41644 8.77913 5.08854 8.44927C4.94253 8.30239 4.94324 8.06495 5.09012 7.91894C5.237 7.77293 5.47444 7.77364 5.62045 7.92052C5.80326 8.10443 6.05361 8.20513 6.31285 8.19904C6.57209 8.19295 6.81744 8.0806 6.99141 7.88831C7.13036 7.73473 7.3675 7.72287 7.52108 7.86182Z" fill="#4195B9"/>
<path fill-rule="evenodd" clip-rule="evenodd" d="M10.4572 9.95533C10.7057 9.95393 10.9084 10.1543 10.9098 10.4028L10.9381 15.4242L13.2851 16.4853C13.5116 16.5877 13.6122 16.8542 13.5098 17.0807C13.4074 17.3072 13.1408 17.4077 12.9144 17.3054L10.3044 16.1254C10.1441 16.0529 10.0408 15.8937 10.0398 15.7179L10.0098 10.4079C10.0084 10.1593 10.2087 9.95673 10.4572 9.95533Z" fill="#699C69"/>
<path fill-rule="evenodd" clip-rule="evenodd" d="M14.904 11.7903C15.1525 11.787 15.3566 11.9858 15.3599 12.2343L15.3899 14.5043C15.3932 14.7528 15.1944 14.957 14.9459 14.9602C14.6974 14.9635 14.4933 14.7647 14.49 14.5162L14.46 12.2462C14.4567 11.9977 14.6555 11.7936 14.904 11.7903Z" fill="#699C69"/>
<path fill-rule="evenodd" clip-rule="evenodd" d="M19.2526 9.86451C19.5012 9.86338 19.7036 10.0639 19.7047 10.3125L19.7147 12.5125C19.7158 12.761 19.5153 12.9634 19.2667 12.9645C19.0182 12.9656 18.8158 12.7651 18.8147 12.5165L18.8047 10.3165C18.8036 10.068 19.0041 9.86564 19.2526 9.86451Z" fill="#699C69"/>
<path fill-rule="evenodd" clip-rule="evenodd" d="M14.4088 10.0841C14.5032 9.85423 14.7661 9.74438 14.996 9.83877L17.261 10.7688C17.4299 10.8381 17.5401 11.0025 17.5401 11.1851V12.96C17.5401 13.2086 17.3386 13.41 17.0901 13.41C16.8416 13.41 16.6401 13.2086 16.6401 12.96V11.4867L14.6542 10.6713C14.4243 10.5769 14.3144 10.314 14.4088 10.0841Z" fill="#699C69"/>
<path fill-rule="evenodd" clip-rule="evenodd" d="M14.6687 8.02267C14.7823 7.9727 14.9116 7.97191 15.0258 8.0205L19.4358 9.8955C19.601 9.96572 19.7087 10.1274 19.7098 10.3069C19.7109 10.4864 19.6052 10.6493 19.4409 10.7216L15.0509 12.6516C14.9372 12.7015 14.808 12.7023 14.6937 12.6537L10.2837 10.7787C10.1185 10.7085 10.0109 10.5468 10.0098 10.3674C10.0087 10.1879 10.1144 10.0249 10.2787 9.95267L14.6687 8.02267ZM14.8528 8.92487L11.5936 10.3577L14.8668 11.7494L18.1259 10.3165L14.8528 8.92487Z" fill="#699C69"/>
<path fill-rule="evenodd" clip-rule="evenodd" d="M6.16936 1.88013C6.05663 2.10367 5.86908 2.2806 5.63936 2.38013C5.44436 2.45013 5.37436 2.30513 5.47936 2.09013L6.16936 1.88013Z" fill="#699C69"/>
<path fill-rule="evenodd" clip-rule="evenodd" d="M7.23477 1.55981C6.91399 2.24018 6.35821 2.78175 5.66977 3.08481C5.10477 3.25481 4.89477 2.85981 5.16977 2.19481L5.36977 2.12981C5.16977 2.56481 5.29977 2.82981 5.68477 2.71481C6.12592 2.51029 6.48025 2.15596 6.68477 1.71481L7.23477 1.55981Z" fill="#699C69"/>
<path fill-rule="evenodd" clip-rule="evenodd" d="M17.745 17.6954C17.745 17.4468 17.9464 17.2454 18.195 17.2454H19.695C20.2002 17.2454 20.6847 17.4461 21.042 17.8033C21.3993 18.1606 21.6 18.6451 21.6 19.1504V19.3454C21.6 20.3975 20.7471 21.2504 19.695 21.2504H17.535C17.2864 21.2504 17.085 21.0489 17.085 20.8004C17.085 20.5518 17.2864 20.3504 17.535 20.3504H19.695C20.25 20.3504 20.7 19.9004 20.7 19.3454V19.1504C20.7 18.8838 20.5941 18.6282 20.4056 18.4397C20.2171 18.2512 19.9615 18.1454 19.695 18.1454H18.195C17.9464 18.1454 17.745 17.9439 17.745 17.6954Z" fill="#699C69"/>
<path fill-rule="evenodd" clip-rule="evenodd" d="M19.0873 16.1561C19.2634 16.3314 19.2639 16.6164 19.0886 16.7925L18.1698 17.7149L19.0886 18.6373C19.2639 18.8134 19.2634 19.0984 19.0873 19.2737C18.9112 19.4491 18.6263 19.4485 18.4509 19.2725L17.2159 18.0325C17.041 17.8569 17.041 17.5729 17.2159 17.3973L18.4509 16.1573C18.6263 15.9813 18.9112 15.9807 19.0873 16.1561Z" fill="#699C69"/>
<path fill-rule="evenodd" clip-rule="evenodd" d="M19.1048 15.0344C16.9812 15.0344 15.2598 16.7559 15.2598 18.8794C15.2598 21.003 16.9812 22.7244 19.1048 22.7244C21.2283 22.7244 22.9498 21.003 22.9498 18.8794C22.9498 16.7559 21.2283 15.0344 19.1048 15.0344ZM14.2598 18.8794C14.2598 16.2036 16.4289 14.0344 19.1048 14.0344C21.7806 14.0344 23.9498 16.2036 23.9498 18.8794C23.9498 21.5552 21.7806 23.7244 19.1048 23.7244C16.4289 23.7244 14.2598 21.5552 14.2598 18.8794Z" fill="#699C69"/>
<path d="M7.45471 6.22485C7.20621 6.25998 7.02225 6.47389 7.02472 6.72485C7.02332 6.74427 7.03008 6.76339 7.04336 6.77762C7.05664 6.79185 7.07525 6.7999 7.09471 6.79986H7.81472C7.83384 6.80008 7.85209 6.79188 7.86461 6.77743C7.87713 6.76298 7.88266 6.74375 7.87972 6.72485C7.88253 6.47553 7.70123 6.26224 7.45471 6.22485Z" fill="#4195B9"/>
<path d="M5.04479 6.22485C4.79827 6.26224 4.61697 6.47553 4.61979 6.72485C4.61685 6.74375 4.62238 6.76298 4.6349 6.77743C4.64742 6.79188 4.66567 6.80008 4.68479 6.79986H5.40479C5.42426 6.7999 5.44287 6.79185 5.45615 6.77762C5.46943 6.76339 5.47618 6.74427 5.47479 6.72485C5.47726 6.47389 5.2933 6.25998 5.04479 6.22485Z" fill="#4195B9"/>
</g>
<defs>
<clipPath id="clip0_120_400">
<rect width="24" height="24" fill="white" transform="translate(0 0.000244141)"/>
</clipPath>
</defs>
</svg>
