<svg width="24" height="24" viewBox="0 0 24 24" fill="none" xmlns="http://www.w3.org/2000/svg">
<g clip-path="url(#clip0_121_1031)">
<path fill-rule="evenodd" clip-rule="evenodd" d="M2.75613 13.0421C4.32516 11.7314 6.39138 11.1775 8.40561 11.5276C8.67768 11.5748 8.8599 11.8337 8.81263 12.1058C8.76535 12.3778 8.50647 12.5601 8.2344 12.5128C6.50978 12.2131 4.74064 12.6874 3.39721 13.8096C2.08155 14.9086 1.30468 16.5199 1.26173 18.2302H9.60501C9.88115 18.2302 10.105 18.454 10.105 18.7302C10.105 19.0063 9.88115 19.2302 9.60501 19.2302H0.76001C0.483867 19.2302 0.26001 19.0063 0.26001 18.7302V18.3317C0.274164 16.2873 1.18709 14.3527 2.75613 13.0421Z" fill="#4195B9"/>
<path fill-rule="evenodd" clip-rule="evenodd" d="M4.42297 4.63353C4.90433 4.54039 5.52566 4.42017 6.26997 4.42017C7.04559 4.42017 7.64591 4.53892 8.11284 4.63129C8.16627 4.64186 8.21795 4.65209 8.26795 4.66175C8.75315 4.7555 9.01794 4.77955 9.27029 4.68979C9.29395 4.67892 9.31967 4.66938 9.34759 4.6617C9.56433 4.6021 9.72794 4.70219 9.79061 4.7518C9.85343 4.80154 9.88856 4.85432 9.9008 4.87333C9.91676 4.89813 9.92727 4.91932 9.9329 4.93128C9.95068 4.96906 9.96 5.00205 9.96132 5.00669C9.96439 5.01731 9.96672 5.02664 9.96792 5.03157C9.97219 5.04919 9.97602 5.06852 9.97845 5.08096C9.98423 5.11059 9.99188 5.1526 10.0004 5.20038C10.0176 5.29721 10.0403 5.4295 10.0629 5.56189C10.0754 5.63518 10.0878 5.70887 10.0993 5.77714C10.1404 5.79321 10.1831 5.81212 10.2264 5.83439C10.5087 5.97976 10.8382 6.29202 10.8197 6.83711C10.809 7.15214 10.7613 7.62366 10.5909 8.0219C10.5045 8.22371 10.3715 8.44277 10.1613 8.60374C10.045 8.69275 9.91409 8.75691 9.7718 8.79273C9.19682 10.1955 7.81357 11.119 6.27507 11.0903C4.73569 11.1197 3.35258 10.192 2.78408 8.78531C2.6404 8.74653 2.50923 8.67927 2.39353 8.58794C2.18728 8.42513 2.05621 8.20711 1.9706 8.00613C1.80168 7.60961 1.75372 7.14461 1.74045 6.84207C1.71659 6.29807 2.05535 5.98774 2.32718 5.84424C2.36437 5.82461 2.40118 5.80742 2.43688 5.79237L2.51254 5.0495C2.52997 4.87844 2.63406 4.72834 2.78816 4.65206C2.94226 4.57578 3.12474 4.58403 3.27132 4.67391C3.42829 4.77015 3.6488 4.77794 4.20034 4.67599C4.27084 4.66296 4.34507 4.6486 4.42297 4.63353ZM2.95638 6.67697L2.95057 6.67785C2.94271 6.67912 2.92881 6.68165 2.9111 6.68594C2.87339 6.69508 2.83057 6.70929 2.79401 6.72859C2.75693 6.74816 2.74431 6.76337 2.74216 6.76643C2.74212 6.76649 2.7422 6.76638 2.74216 6.76643C2.74186 6.76686 2.74172 6.76706 2.74145 6.76799C2.74113 6.76909 2.7386 6.77796 2.73949 6.79826C2.75122 7.06572 2.79326 7.38572 2.8906 7.61421C2.9381 7.72572 2.98422 7.7802 3.01313 7.80302C3.02904 7.81558 3.04739 7.82771 3.10224 7.82245C3.33963 7.79969 3.56005 7.94773 3.62876 8.17609C3.97716 9.33386 5.05519 10.1169 6.26395 10.0903C6.27122 10.0901 6.27849 10.0901 6.28576 10.0903C7.49732 10.1164 8.57844 9.33363 8.93168 8.17442C9.00249 7.94205 9.23006 7.7942 9.47115 7.82392C9.52599 7.83068 9.54137 7.81891 9.55312 7.8099C9.5788 7.79025 9.62417 7.73912 9.67155 7.62843C9.76861 7.40167 9.81094 7.07819 9.82026 6.80323C9.82111 6.77818 9.81803 6.76562 9.81694 6.76183C9.81594 6.75838 9.81521 6.75734 9.81479 6.75673C9.81313 6.75434 9.80231 6.74082 9.76857 6.72344C9.7348 6.70605 9.69468 6.69346 9.65884 6.6856C9.6421 6.68193 9.62905 6.67989 9.62187 6.67892C9.61971 6.67863 9.61818 6.67844 9.61734 6.67835C9.39004 6.65892 9.20436 6.48789 9.16677 6.26237L9.13874 6.09488C9.12235 5.99719 9.10066 5.86839 9.07884 5.74015C8.73126 5.76457 8.39677 5.70513 8.07824 5.64359C8.02584 5.63346 7.97302 5.62305 7.91962 5.61253C7.45397 5.52078 6.94337 5.42017 6.26997 5.42017C5.62843 5.42017 5.10497 5.52087 4.62355 5.61349C4.54199 5.62918 4.46162 5.64464 4.3821 5.65934C4.09212 5.71294 3.76945 5.7681 3.44704 5.74339L3.3974 6.23083C3.37355 6.46497 3.18973 6.65051 2.95638 6.67697ZM9.97722 5.19764C9.97681 5.20231 9.97575 5.21232 9.97337 5.22624C9.97493 5.21678 9.97621 5.20724 9.97722 5.19764Z" fill="#4195B9"/>
<path fill-rule="evenodd" clip-rule="evenodd" d="M3.30621 4.05368L3.50267 5.18455C3.54994 5.45662 3.3677 5.71549 3.09564 5.76276C2.82357 5.81002 2.5647 5.62779 2.51743 5.35572L2.31243 4.17572C2.30752 4.14746 2.30505 4.11882 2.30505 4.09014H2.80505C2.30505 4.09014 2.30505 4.08988 2.30505 4.0896L2.30505 4.08899L2.30506 4.08754L2.30508 4.08371L2.30522 4.07243C2.30537 4.06333 2.30565 4.05109 2.30616 4.03591C2.30719 4.00558 2.30916 3.96344 2.31294 3.91116C2.3205 3.80677 2.33536 3.66096 2.36469 3.48732C2.42296 3.14239 2.54042 2.67498 2.7803 2.20162C3.02125 1.72616 3.39018 1.23648 3.952 0.866935C4.51663 0.495543 5.24643 0.265137 6.17505 0.265137C7.10375 0.265137 7.83551 0.495556 8.40344 0.865822C8.96851 1.23423 9.343 1.72241 9.58986 2.19686C9.83568 2.66931 9.95934 3.13609 10.0222 3.48086C10.0539 3.65438 10.0707 3.80011 10.0797 3.90446C10.0842 3.95672 10.0867 3.99884 10.0882 4.02916C10.0889 4.04433 10.0893 4.05657 10.0896 4.06566L10.0899 4.07694L10.09 4.08077L10.09 4.08223L10.09 4.08284C10.09 4.08311 10.09 4.08337 9.59005 4.09014L10.09 4.08337C10.0904 4.11543 10.0878 4.14746 10.0821 4.17901L9.87709 5.31401C9.82801 5.58575 9.56793 5.76626 9.29618 5.71718C9.02444 5.66809 8.84393 5.40801 8.89301 5.13627L9.08818 4.05573C9.08716 4.03854 9.08564 4.01649 9.08337 3.99007C9.07672 3.91259 9.0637 3.79855 9.03849 3.66035C8.98764 3.38169 8.88943 3.01721 8.70275 2.65842C8.5171 2.30161 8.24847 1.95855 7.8573 1.70351C7.46897 1.45034 6.93135 1.26514 6.17505 1.26514C5.41868 1.26514 4.88473 1.45036 4.50154 1.7024C4.11555 1.95629 3.85261 2.29786 3.6723 2.65365C3.49094 3.01155 3.39777 3.37538 3.35073 3.65389C3.3274 3.79197 3.31594 3.90592 3.31033 3.98337C3.30824 4.01224 3.30697 4.0359 3.30621 4.05368Z" fill="#4195B9"/>
<path fill-rule="evenodd" clip-rule="evenodd" d="M9.23029 4.32045C8.26161 3.97143 7.23616 3.80683 6.20691 3.83515L6.20046 3.83533L6.19402 3.83517C5.1527 3.8101 4.11552 3.97473 3.13315 4.32103L2.96692 3.84947C4.00447 3.48372 5.09981 3.30946 6.19961 3.33517C7.28907 3.30599 8.37441 3.48061 9.39978 3.85005L9.23029 4.32045Z" fill="#4195B9"/>
<path fill-rule="evenodd" clip-rule="evenodd" d="M7.52157 7.86206C7.67515 8.00101 7.68701 8.23815 7.54806 8.39173C7.23601 8.73663 6.79595 8.93815 6.33096 8.94908C5.86598 8.96001 5.41693 8.77938 5.08903 8.44951C4.94302 8.30263 4.94372 8.06519 5.09061 7.91918C5.23749 7.77318 5.47493 7.77388 5.62094 7.92077C5.80375 8.10467 6.0541 8.20538 6.31334 8.19929C6.57258 8.19319 6.81793 8.08084 6.9919 7.88855C7.13085 7.73497 7.36799 7.72311 7.52157 7.86206Z" fill="#4195B9"/>
<path fill-rule="evenodd" clip-rule="evenodd" d="M10.4575 9.95509C10.706 9.95368 10.9086 10.154 10.91 10.4025L10.9384 15.4239L13.2854 16.485C13.5119 16.5874 13.6124 16.854 13.5101 17.0805C13.4077 17.3069 13.1411 17.4075 12.9146 17.3051L10.3046 16.1251C10.1444 16.0527 10.041 15.8935 10.04 15.7176L10.01 10.4076C10.0086 10.1591 10.2089 9.95649 10.4575 9.95509Z" fill="#699C69"/>
<path fill-rule="evenodd" clip-rule="evenodd" d="M14.904 11.7901C15.1525 11.7868 15.3566 11.9856 15.3599 12.2341L15.3899 14.5041C15.3932 14.7526 15.1944 14.9567 14.9459 14.96C14.6974 14.9633 14.4933 14.7645 14.49 14.516L14.46 12.246C14.4567 11.9975 14.6555 11.7934 14.904 11.7901Z" fill="#699C69"/>
<path fill-rule="evenodd" clip-rule="evenodd" d="M19.253 9.86524C19.5015 9.86411 19.7039 10.0647 19.705 10.3132L19.715 12.5132C19.7162 12.7617 19.5156 12.9641 19.2671 12.9652C19.0186 12.9664 18.8162 12.7658 18.8151 12.5173L18.8051 10.3173C18.8039 10.0688 19.0045 9.86637 19.253 9.86524Z" fill="#699C69"/>
<path fill-rule="evenodd" clip-rule="evenodd" d="M14.4087 10.0841C14.5031 9.85423 14.766 9.74438 14.9959 9.83877L17.2609 10.7688C17.4298 10.8381 17.54 11.0025 17.54 11.1851V12.96C17.54 13.2086 17.3385 13.41 17.09 13.41C16.8415 13.41 16.64 13.2086 16.64 12.96V11.4867L14.6541 10.6713C14.4242 10.5769 14.3143 10.314 14.4087 10.0841Z" fill="#699C69"/>
<path fill-rule="evenodd" clip-rule="evenodd" d="M14.6689 8.02316C14.7826 7.97319 14.9118 7.9724 15.0261 8.02098L19.4361 9.89598C19.6013 9.96621 19.7089 10.1279 19.71 10.3074C19.7111 10.4868 19.6054 10.6498 19.4411 10.7221L15.0511 12.6521C14.9375 12.702 14.8082 12.7028 14.6939 12.6542L10.2839 10.7792C10.1188 10.709 10.0111 10.5473 10.01 10.3678C10.0089 10.1884 10.1146 10.0254 10.2789 9.95316L14.6689 8.02316ZM14.853 8.92536L11.5939 10.3582L14.867 11.7499L18.1262 10.317L14.853 8.92536Z" fill="#699C69"/>
<path fill-rule="evenodd" clip-rule="evenodd" d="M17.745 17.6951C17.745 17.4466 17.9464 17.2451 18.195 17.2451H19.695C20.2002 17.2451 20.6847 17.4458 21.042 17.8031C21.3993 18.1603 21.6 18.6449 21.6 19.1501V19.3451C21.6 20.3972 20.7471 21.2501 19.695 21.2501H17.535C17.2864 21.2501 17.085 21.0486 17.085 20.8001C17.085 20.5516 17.2864 20.3501 17.535 20.3501H19.695C20.25 20.3501 20.7 19.9002 20.7 19.3451V19.1501C20.7 18.8836 20.5941 18.6279 20.4056 18.4395C20.2171 18.251 19.9615 18.1451 19.695 18.1451H18.195C17.9464 18.1451 17.745 17.9436 17.745 17.6951Z" fill="#699C69"/>
<path fill-rule="evenodd" clip-rule="evenodd" d="M19.0875 16.1563C19.2636 16.3317 19.2642 16.6166 19.0888 16.7927L18.1701 17.7151L19.0888 18.6376C19.2642 18.8137 19.2636 19.0986 19.0875 19.274C18.9114 19.4494 18.6265 19.4488 18.4511 19.2727L17.2161 18.0327C17.0412 17.8571 17.0412 17.5732 17.2161 17.3976L18.4511 16.1576C18.6265 15.9815 18.9114 15.9809 19.0875 16.1563Z" fill="#699C69"/>
<path fill-rule="evenodd" clip-rule="evenodd" d="M19.105 15.0352C16.9815 15.0352 15.26 16.7566 15.26 18.8802C15.26 21.0037 16.9815 22.7252 19.105 22.7252C21.2285 22.7252 22.95 21.0037 22.95 18.8802C22.95 16.7566 21.2285 15.0352 19.105 15.0352ZM14.26 18.8802C14.26 16.2043 16.4292 14.0352 19.105 14.0352C21.7808 14.0352 23.95 16.2043 23.95 18.8802C23.95 21.556 21.7808 23.7252 19.105 23.7252C16.4292 23.7252 14.26 21.556 14.26 18.8802Z" fill="#699C69"/>
<path d="M7.45496 6.2251C7.20645 6.26022 7.02249 6.47413 7.02496 6.7251C7.02357 6.74451 7.03033 6.76363 7.04361 6.77786C7.05689 6.79209 7.07549 6.80015 7.09496 6.8001H7.81496C7.83408 6.80033 7.85233 6.79212 7.86485 6.77767C7.87738 6.76322 7.8829 6.74399 7.87996 6.7251C7.88278 6.47578 7.70148 6.26248 7.45496 6.2251Z" fill="#4195B9"/>
<path d="M5.04504 6.2251C4.79852 6.26248 4.61722 6.47578 4.62004 6.7251C4.61709 6.74399 4.62262 6.76322 4.63514 6.77767C4.64767 6.79212 4.66592 6.80033 4.68504 6.8001H5.40504C5.4245 6.80015 5.44311 6.79209 5.45639 6.77786C5.46967 6.76363 5.47643 6.74451 5.47504 6.7251C5.47751 6.47413 5.29355 6.26022 5.04504 6.2251Z" fill="#4195B9"/>
<path d="M5.45004 2.15503H4.92004V2.68503H5.45004V2.15503Z" fill="#699C69"/>
<path d="M6.49997 2.15503H5.96997V2.68503H6.49997V2.15503Z" fill="#699C69"/>
<path d="M7.55002 2.15503H7.02002V2.68503H7.55002V2.15503Z" fill="#699C69"/>
</g>
<defs>
<clipPath id="clip0_121_1031">
<rect width="24" height="24" fill="white" transform="translate(0 0.000244141)"/>
</clipPath>
</defs>
</svg>
