<svg width="24" height="24" viewBox="0 0 24 24" fill="none" xmlns="http://www.w3.org/2000/svg">
<path fill-rule="evenodd" clip-rule="evenodd" d="M22.25 14.3054C22.4985 14.3054 22.7 14.5069 22.7 14.7554V20.7104C22.7 20.8893 22.594 21.0513 22.43 21.1228L17.505 23.2728C17.2773 23.3723 17.012 23.2682 16.9126 23.0405C16.8131 22.8127 16.9172 22.5474 17.145 22.448L21.8 20.4159V14.7554C21.8 14.5069 22.0015 14.3054 22.25 14.3054Z" fill="#699C69"/>
<path fill-rule="evenodd" clip-rule="evenodd" d="M12.3851 14.2654C12.6336 14.2654 12.8351 14.4669 12.8351 14.7154V20.379L16.8201 22.1655V16.8404C16.8201 16.5919 17.0215 16.3904 17.2701 16.3904C17.5186 16.3904 17.7201 16.5919 17.7201 16.8404V22.8604C17.7201 23.013 17.6427 23.1552 17.5147 23.2381C17.3866 23.321 17.2252 23.3334 17.086 23.271L12.201 21.081C12.0392 21.0085 11.9351 20.8477 11.9351 20.6704V14.7154C11.9351 14.4669 12.1365 14.2654 12.3851 14.2654Z" fill="#699C69"/>
<path fill-rule="evenodd" clip-rule="evenodd" d="M17.066 14.4678C17.1696 14.2419 17.4367 14.1428 17.6626 14.2464L20.0826 15.3564C20.2414 15.4293 20.3437 15.5874 20.345 15.7622L20.365 18.5072C20.3668 18.7557 20.1668 18.9586 19.9183 18.9604C19.6698 18.9622 19.4668 18.7622 19.465 18.5137L19.4471 16.0551L17.2874 15.0645C17.0615 14.9608 16.9624 14.6937 17.066 14.4678Z" fill="#699C69"/>
<path fill-rule="evenodd" clip-rule="evenodd" d="M17.1367 12.1621C17.2506 12.1129 17.3797 12.113 17.4935 12.1622L22.4235 14.2922C22.5883 14.3633 22.695 14.5256 22.6951 14.7051C22.6951 14.8845 22.5886 15.0469 22.4239 15.1182L17.4939 17.2532C17.3798 17.3026 17.2504 17.3026 17.1364 17.2533L12.2014 15.1183C12.0366 15.047 11.93 14.8846 11.9301 14.7051C11.9301 14.5255 12.0369 14.3632 12.2017 14.2921L17.1367 12.1621ZM13.5145 14.7057L17.315 16.3499L21.1116 14.7057L17.315 13.0654L13.5145 14.7057Z" fill="#699C69"/>
<path fill-rule="evenodd" clip-rule="evenodd" d="M3.09564 17.0347C4.65328 15.4761 6.7665 14.6003 8.97004 14.6003H8.97206C9.45751 14.6023 9.94195 14.6449 10.4203 14.7277C10.6924 14.7747 10.8748 15.0335 10.8277 15.3056C10.7806 15.5777 10.5219 15.7601 10.2498 15.713C9.82676 15.6398 9.39835 15.6021 8.96904 15.6003C7.03118 15.6006 5.17282 16.3709 3.80297 17.7416C2.4387 19.1067 1.67034 20.956 1.66507 22.8853H11.865C12.1412 22.8853 12.365 23.1092 12.365 23.3853C12.365 23.6615 12.1412 23.8853 11.865 23.8853H1.16504C0.888898 23.8853 0.665041 23.6615 0.665041 23.3853V22.9105M3.09564 17.0347C1.53807 18.5933 0.663715 20.7071 0.665041 22.9105L3.09564 17.0347Z" fill="#4195B9"/>
<path fill-rule="evenodd" clip-rule="evenodd" d="M5.62301 6.39037C6.20719 6.27812 6.95077 6.13525 7.84507 6.13525C8.77869 6.13525 9.49822 6.27914 10.0651 6.39251C10.1281 6.40511 10.1893 6.41733 10.2486 6.42893C10.8391 6.54446 11.1877 6.58167 11.5287 6.46039C11.6333 6.4115 11.7577 6.39701 11.8821 6.43376C12.0141 6.47277 12.0902 6.55405 12.1145 6.58145C12.1461 6.61704 12.1656 6.64942 12.1748 6.66551C12.1938 6.69864 12.2046 6.72662 12.2082 6.73622C12.2132 6.74932 12.2167 6.76016 12.2188 6.76666C12.2228 6.77966 12.2257 6.79052 12.2271 6.79622C12.2323 6.81679 12.237 6.83967 12.2399 6.85432C12.2469 6.8895 12.2562 6.93991 12.2666 6.99765C12.2876 7.11461 12.3154 7.27503 12.3429 7.43588C12.363 7.55334 12.3831 7.67173 12.4005 7.77475C12.4679 7.80075 12.541 7.83357 12.615 7.87493C12.9164 8.04317 13.2857 8.39168 13.2596 8.99197C13.2438 9.35454 13.1859 9.90435 12.9874 10.365C12.8869 10.598 12.7351 10.845 12.4995 11.0241C12.3567 11.1327 12.1942 11.2077 12.0161 11.2436C11.3503 12.9356 9.6969 14.0546 7.85476 14.0203C6.00586 14.0525 4.35036 12.9207 3.69575 11.2177C3.51956 11.1813 3.35882 11.1063 3.21761 10.9984C2.98288 10.8191 2.83177 10.5721 2.73186 10.3394C2.53425 9.87904 2.4763 9.32958 2.46054 8.96697C2.43427 8.36279 2.8083 8.01886 3.1155 7.85678C3.17805 7.82378 3.2398 7.79679 3.29804 7.77472L3.39768 6.80419C3.41516 6.63391 3.51854 6.48441 3.67168 6.40793C3.82482 6.33145 4.00645 6.33863 4.15307 6.42696C4.38376 6.56593 4.69266 6.563 5.35586 6.441C5.44084 6.42537 5.5299 6.40826 5.62301 6.39037ZM3.81525 8.6672C3.81391 8.66738 3.81021 8.66788 3.80452 8.6688C3.79269 8.67072 3.77313 8.67431 3.74865 8.68024C3.6974 8.69266 3.63656 8.71252 3.58214 8.74123C3.52718 8.77022 3.49687 8.79862 3.48185 8.82004C3.47214 8.8339 3.45683 8.85986 3.45959 8.92353C3.47383 9.25092 3.52588 9.65397 3.65077 9.94489C3.71211 10.0878 3.77538 10.1661 3.82471 10.2038C3.85967 10.2305 3.90358 10.2515 3.99528 10.2395C4.23954 10.2075 4.47066 10.3583 4.53991 10.5947C4.96807 12.0565 6.32232 13.0503 7.84523 13.0204C7.85199 13.0202 7.85875 13.0202 7.86552 13.0204C9.38361 13.0521 10.7371 12.069 11.1765 10.6156C11.2472 10.3815 11.477 10.2329 11.7195 10.2644C11.8133 10.2766 11.8586 10.2552 11.8943 10.2281C11.9441 10.1902 12.0076 10.1119 12.069 9.96925C12.1942 9.67866 12.2463 9.27597 12.2605 8.94854C12.2644 8.85882 12.2337 8.80734 12.1276 8.74808C12.0715 8.71676 12.0094 8.6947 11.9577 8.6806C11.933 8.67385 11.9132 8.66963 11.9012 8.66732C11.8982 8.66674 11.8957 8.66629 11.8938 8.66596C11.8921 8.66565 11.8908 8.66545 11.8902 8.66534L11.8917 8.66556L11.8929 8.66572L11.8938 8.66596C11.6762 8.63695 11.5031 8.4693 11.4669 8.25276L11.4668 8.25183L11.4326 8.04884C11.4121 7.92672 11.3846 7.76468 11.3572 7.60463C11.3524 7.57639 11.3476 7.54826 11.3428 7.52046C10.9021 7.56777 10.4751 7.49222 10.0566 7.41033C9.99518 7.39831 9.93319 7.38596 9.87042 7.37345C9.30489 7.26071 8.67551 7.13525 7.84507 7.13525C7.05273 7.13525 6.40581 7.25898 5.82147 7.37074C5.72499 7.38919 5.63022 7.40731 5.53677 7.4245C5.14977 7.49569 4.73426 7.56453 4.32992 7.51545L4.25745 8.22132C4.23339 8.45569 4.04904 8.64126 3.81525 8.6672Z" fill="#4195B9"/>
<path fill-rule="evenodd" clip-rule="evenodd" d="M4.15059 5.59588L4.36426 6.98957C4.40611 7.26252 4.21876 7.51772 3.94581 7.55957C3.67286 7.60141 3.41766 7.41407 3.37581 7.14111L3.15581 5.70611C3.15215 5.68227 3.15022 5.65819 3.15004 5.63406L3.65003 5.63034C3.15004 5.63406 3.15004 5.6338 3.15004 5.63352L3.15004 5.63288L3.15003 5.63132L3.15002 5.62709L3.15009 5.61427C3.15018 5.60381 3.1504 5.58957 3.15087 5.57179C3.15182 5.53625 3.15379 5.48648 3.15785 5.4245C3.16595 5.30072 3.18247 5.12721 3.21613 4.92034C3.28308 4.50897 3.41991 3.95281 3.70275 3.39063C3.98672 2.8262 4.42212 2.24783 5.08646 1.81197C5.75338 1.37442 6.62095 1.10034 7.73504 1.10034C8.8492 1.10034 9.71934 1.37443 10.3905 1.81086C11.059 2.24556 11.5012 2.82241 11.7924 3.3858C12.0824 3.94708 12.2267 4.50259 12.2992 4.9138C12.3357 5.12055 12.3546 5.29398 12.3644 5.41773C12.3693 5.47969 12.3719 5.52945 12.3733 5.56498C12.3741 5.58275 12.3745 5.59699 12.3747 5.60745L12.375 5.62027L12.375 5.6245L12.375 5.62606L12.375 5.62669C12.375 5.62698 12.375 5.62724 11.875 5.63034L12.375 5.62724C12.3752 5.65737 12.3727 5.68746 12.3674 5.71713L12.1224 7.10713C12.0745 7.37908 11.8152 7.56069 11.5432 7.51275C11.2713 7.46482 11.0897 7.2055 11.1376 6.93355L11.3737 5.59427C11.3726 5.5709 11.3708 5.53795 11.3675 5.49662C11.3598 5.39998 11.3446 5.25857 11.3144 5.08751C11.2537 4.7431 11.1346 4.29111 10.904 3.84488C10.6745 3.40078 10.3389 2.97012 9.84536 2.6492C9.35448 2.33 8.67837 2.10034 7.73504 2.10034C6.79162 2.10034 6.11981 2.33002 5.63502 2.64809C5.14763 2.96785 4.81898 3.39699 4.59607 3.84006C4.37203 4.28537 4.25917 4.73671 4.20315 5.08097C4.17533 5.25191 4.16204 5.39325 4.15571 5.48985C4.15266 5.5364 4.15125 5.57232 4.15059 5.59588Z" fill="#4195B9"/>
<path fill-rule="evenodd" clip-rule="evenodd" d="M11.4557 5.86067C10.2733 5.43675 9.02237 5.23654 7.76676 5.27025L7.7605 5.27042L7.75425 5.27027C6.48498 5.24081 5.22084 5.44102 4.02279 5.86125L3.8573 5.38943C5.11024 4.94995 6.43219 4.7402 7.75959 4.77026C9.07512 4.73572 10.3856 4.94586 11.6244 5.39001L11.4557 5.86067Z" fill="#4195B9"/>
<path fill-rule="evenodd" clip-rule="evenodd" d="M9.31258 10.2682C9.46566 10.4077 9.47666 10.6449 9.33716 10.798C8.97296 11.1976 8.46117 11.4309 7.92064 11.4438C7.3801 11.4566 6.85783 11.2478 6.4751 10.8659C6.3285 10.7196 6.32825 10.4821 6.47455 10.3355C6.62084 10.1889 6.85828 10.1887 7.00488 10.335C7.24263 10.5722 7.56707 10.7019 7.90286 10.694C8.23865 10.686 8.55658 10.5411 8.78282 10.2928C8.92232 10.1397 9.15951 10.1287 9.31258 10.2682Z" fill="#4195B9"/>
<path d="M9.46503 8.2954C9.18003 8.2954 8.96503 8.5704 8.91003 8.9354C8.91529 8.98591 8.95934 9.02335 9.01003 9.0204H9.93503C9.9598 9.02044 9.98348 9.01027 10.0005 8.9923C10.0175 8.97432 10.0264 8.95012 10.025 8.9254C10.0305 8.60348 9.79411 8.32845 9.47503 8.2854" fill="#4195B9"/>
<path d="M6.36508 8.29541C6.04601 8.33846 5.80965 8.61349 5.81508 8.93541C5.8137 8.96013 5.82258 8.98433 5.83961 9.00231C5.85664 9.02028 5.88032 9.03045 5.90508 9.03041H6.83008C6.85484 9.03045 6.87853 9.02028 6.89556 9.00231C6.91259 8.98433 6.92146 8.96013 6.92008 8.93541C6.9252 8.61182 6.68614 8.33614 6.36508 8.29541Z" fill="#4195B9"/>
<path d="M6.61001 3.33032H5.88501V4.05532H6.61001V3.33032Z" fill="#699C69"/>
<path d="M8.04507 3.33032H7.32007V4.05532H8.04507V3.33032Z" fill="#699C69"/>
<path d="M9.475 3.33032H8.75V4.05532H9.475V3.33032Z" fill="#699C69"/>
</svg>
