<svg width="24" height="24" viewBox="0 0 24 24" fill="none" xmlns="http://www.w3.org/2000/svg">
<path d="M12.166 13.5035L11.9253 13.5003C11.5153 13.4983 11.1052 13.5325 10.6994 13.603L10.6412 13.6167C10.6223 13.6224 10.6038 13.6292 10.5845 13.6372L10.6914 13.616C9.51797 13.8328 8.41717 14.3482 7.49612 15.1175C5.92708 16.4282 5.01417 18.3628 5 20.4071V20.8056C5 21.0817 5.22386 21.3056 5.5 21.3056H18.345C18.6211 21.3056 18.845 21.0817 18.845 20.8056V20.4106C18.8308 18.3628 17.9179 16.4282 16.3489 15.1175L16.1845 14.9844C15.3535 14.332 14.3874 13.8795 13.3599 13.6574L13.259 13.6372L13.2526 13.6342C13.216 13.6189 13.1772 13.6078 13.1368 13.6015L12.9095 13.5662C12.6588 13.5317 12.4119 13.511 12.166 13.5035ZM11.9253 14.5003L12.1355 14.503C12.3457 14.5094 12.5557 14.5269 12.7647 14.5556L12.8855 14.5742L12.9145 14.5852L12.9429 14.5931L12.9719 14.5994C13.9767 14.785 14.9191 15.2262 15.7078 15.885L15.8403 15.999C17.059 17.0792 17.7823 18.6119 17.8412 20.2394L17.8425 20.3052H6.002L6 20.4106C6.01211 18.6636 6.79376 17.0072 8.1372 15.885C8.92585 15.2262 9.86832 14.785 10.8731 14.5994L10.9305 14.5852L10.959 14.5737L10.8706 14.5882C11.1486 14.5399 11.4289 14.5115 11.7097 14.503L11.9253 14.5003Z" fill="#4195B9"/>
<path d="M11.77 6.42017C11.2916 6.42017 10.8734 6.46328 10.3598 6.55238L9.80469 6.65418L9.54075 6.69997L9.33223 6.73125L9.21941 6.74429L9.12432 6.75126L9.04419 6.75231L8.97626 6.74758L8.91778 6.73723L8.86597 6.7214L8.81807 6.70024L8.72104 6.64675C8.41542 6.50303 8.04792 6.70229 8.01255 7.0495L7.93698 7.79217C7.90429 7.80597 7.87305 7.82062 7.84156 7.83677C7.46566 8.02946 7.21987 8.37251 7.24046 8.84207L7.24633 8.95322C7.30555 9.90809 7.58423 10.6402 8.26149 10.7951L8.29048 10.8002L8.30607 10.8385C8.86938 12.1718 10.1716 13.0652 11.6403 13.0904L11.7762 13.0902L11.9059 13.0907C13.3258 13.0715 14.604 12.2316 15.1999 10.9567L15.2645 10.8087L15.279 10.8064C16.0016 10.6646 16.285 9.85981 16.3197 8.83711C16.3358 8.36311 16.0907 8.01724 15.7146 7.82838L15.6191 7.78461L15.599 7.77667L15.4706 7.04282L15.4629 7.01235C15.4641 7.00643 15.4649 7.00266 15.4595 6.99086L15.4191 6.92116L15.3437 6.80046L15.2862 6.74962C15.2793 6.74402 15.2732 6.73933 15.2667 6.73478L15.2159 6.70281L15.0398 6.64736L14.8106 6.67343L14.7985 6.68067L14.7575 6.69422L14.683 6.71644L14.6191 6.73214L14.5566 6.74338C14.5461 6.74486 14.5354 6.74614 14.5246 6.74722L14.4567 6.75118C14.4448 6.75141 14.4326 6.75142 14.4199 6.75121L14.338 6.74718L14.2419 6.73743L14.0624 6.7114L13.8291 6.67075L13.4115 6.59197C12.8078 6.47613 12.339 6.42017 11.77 6.42017ZM11.77 7.42017C12.2041 7.42017 12.5724 7.45765 13.024 7.53732L13.6984 7.6635L13.9746 7.71088L14.1281 7.73335L14.262 7.74868C14.2829 7.75064 14.3032 7.75232 14.3229 7.75371L14.435 7.7586C14.4706 7.75909 14.5046 7.75845 14.5377 7.7567L14.581 7.75367L14.6668 8.26237C14.7015 8.4709 14.8629 8.63285 15.0667 8.67142L15.1233 8.67882C15.1463 8.68051 15.211 8.69451 15.2658 8.72204C15.3171 8.7478 15.3219 8.75457 15.3203 8.80323C15.2981 9.45792 15.1329 9.84386 14.9712 9.82392C14.7301 9.7942 14.5025 9.94205 14.4317 10.1744C14.0898 11.2962 13.0663 12.0655 11.9026 12.0903L11.6477 12.0905C10.4898 12.0705 9.46614 11.2972 9.12877 10.1761C9.06005 9.94773 8.83964 9.79969 8.60225 9.82245C8.43299 9.83868 8.26816 9.45175 8.2395 8.79826C8.23788 8.76143 8.24252 8.75496 8.29773 8.72666C8.32124 8.71461 8.34624 8.70477 8.36946 8.69714L8.43048 8.68082L8.50871 8.66823C8.71677 8.62201 8.87537 8.44717 8.89741 8.23083L8.94448 7.76317L8.9748 7.76427C9.05639 7.76552 9.14638 7.76097 9.24892 7.7509L9.41266 7.7317L9.59834 7.70441L9.80907 7.66926L10.179 7.60222C10.224 7.59384 10.2704 7.58515 10.3182 7.57617C10.8843 7.46972 11.2963 7.42017 11.77 7.42017Z" fill="#4195B9"/>
<path d="M11.6751 2.26514C13.3425 2.26514 14.4659 2.99756 15.0899 4.19686C15.4322 4.8548 15.5654 5.50396 15.5871 5.98331L15.59 6.08337L15.5821 6.17901L15.3771 7.31401C15.328 7.58575 15.0679 7.76626 14.7962 7.71718C14.5438 7.6716 14.3702 7.44409 14.386 7.19425L14.393 7.13627L14.5881 6.05314L14.5859 6.01214C14.5834 5.97802 14.5795 5.93827 14.5741 5.8935L14.553 5.74479L14.5385 5.66035C14.4758 5.31678 14.3669 4.97394 14.2027 4.65842C13.7455 3.77959 12.9564 3.26514 11.6751 3.26514C10.3954 3.26514 9.61625 3.77761 9.1723 4.65365C9.01276 4.96847 8.90869 5.31077 8.85073 5.65389L8.83734 5.73827L8.81827 5.88687L8.80808 6.00543L8.80555 6.05064L9.00267 7.18455C9.04656 7.43719 8.89257 7.67844 8.65251 7.74946L8.59564 7.76276C8.343 7.80665 8.10175 7.65265 8.03073 7.41259L8.01743 7.35572L7.81243 6.17572L7.80505 6.09014C7.80505 5.60299 7.92251 4.90764 8.2803 4.20162C8.88948 2.99954 10.006 2.26514 11.6751 2.26514Z" fill="#4195B9"/>
<path d="M11.6932 5.33534C12.7008 5.30762 13.705 5.45423 14.6616 5.7681L14.8998 5.85005L14.7303 6.32045C13.7616 5.97143 12.7362 5.80683 11.694 5.83517C10.7328 5.81203 9.77511 5.95052 8.8608 6.24434L8.63315 6.32103L8.46692 5.84947C9.5065 5.483 10.6041 5.30878 11.6932 5.33534Z" fill="#4195B9"/>
<path d="M12.4919 9.88855C12.6309 9.73497 12.868 9.72311 13.0216 9.86206C13.1751 10.001 13.187 10.2381 13.0481 10.3917C12.736 10.7366 12.2959 10.9382 11.831 10.9491C11.366 10.96 10.9169 10.7794 10.589 10.4495C10.443 10.3026 10.4437 10.0652 10.5906 9.91918C10.7241 9.78645 10.9325 9.77497 11.079 9.88433L11.1209 9.92077C11.3037 10.1047 11.5541 10.2054 11.8133 10.1993C12.0726 10.1932 12.3179 10.0808 12.4919 9.88855Z" fill="#4195B9"/>
<path fill-rule="evenodd" clip-rule="evenodd" d="M11.67 3.88013C11.5572 4.10367 11.3697 4.2806 11.14 4.38013C10.945 4.45013 10.875 4.30513 10.98 4.09013L11.67 3.88013Z" fill="#699C69"/>
<path fill-rule="evenodd" clip-rule="evenodd" d="M12.735 3.56006C12.4142 4.24042 11.8585 4.782 11.17 5.08506C10.605 5.25506 10.395 4.86006 10.67 4.19506L10.87 4.13006C10.67 4.56506 10.8 4.83006 11.185 4.71506C11.6262 4.51053 11.9805 4.1562 12.185 3.71506L12.735 3.56006Z" fill="#699C69"/>
<path d="M12.955 8.2251C12.7065 8.26022 12.5225 8.47413 12.525 8.7251C12.5236 8.74451 12.5303 8.76363 12.5436 8.77786C12.5569 8.79209 12.5755 8.80015 12.595 8.8001H13.315C13.3341 8.80033 13.3523 8.79212 13.3649 8.77767C13.3774 8.76322 13.3829 8.74399 13.38 8.7251C13.3828 8.47578 13.2015 8.26248 12.955 8.2251Z" fill="#4195B9"/>
<path d="M10.545 8.2251C10.2985 8.26248 10.1172 8.47578 10.12 8.7251C10.1171 8.74399 10.1226 8.76322 10.1351 8.77767C10.1477 8.79212 10.1659 8.80033 10.185 8.8001H10.905C10.9245 8.80015 10.9431 8.79209 10.9564 8.77786C10.9697 8.76363 10.9764 8.74451 10.975 8.7251C10.9775 8.47413 10.7935 8.26022 10.545 8.2251Z" fill="#4195B9"/>
</svg>
