<svg width="24" height="24" viewBox="0 0 24 24" fill="none" xmlns="http://www.w3.org/2000/svg">
<path fill-rule="evenodd" clip-rule="evenodd" d="M16 1.5C16.2455 1.5 16.4496 1.67688 16.4919 1.91012L16.5 2V3H15.5V2.5H4.5V16.5H15.5V16H16.5V22C16.5 22.2455 16.3231 22.4496 16.0899 22.4919L16 22.5H4C3.75454 22.5 3.55039 22.3231 3.50806 22.0899L3.5 22V2C3.5 1.75454 3.67688 1.55039 3.91012 1.50806L4 1.5H16ZM15.5 17.5H4.5V21.5H15.5V17.5ZM10 18.75C10.4142 18.75 10.75 19.0858 10.75 19.5C10.75 19.9142 10.4142 20.25 10 20.25C9.58579 20.25 9.25 19.9142 9.25 19.5C9.25 19.0858 9.58579 18.75 10 18.75Z" fill="#4195B9"/>
<path d="M21.1875 10.3374C21.433 10.3374 21.6371 10.5143 21.6794 10.7475L21.6875 10.8374V12.9207C21.6875 13.7249 21.0718 14.3852 20.2862 14.4561L20.1458 14.4624H12.8542C12.05 14.4624 11.3897 13.8467 11.3188 13.0611L11.3125 12.9207V10.8374C11.3125 10.5613 11.5364 10.3374 11.8125 10.3374C12.058 10.3374 12.2621 10.5143 12.3044 10.7475L12.3125 10.8374V12.9207C12.3125 13.19 12.5089 13.4133 12.7663 13.4553L12.8542 13.4624H20.1458C20.4151 13.4624 20.6384 13.266 20.6804 13.0086L20.6875 12.9207V10.8374C20.6875 10.5613 20.9114 10.3374 21.1875 10.3374ZM17.0968 4.17599L17.1661 4.23385L19.6661 6.73385C19.8613 6.92911 19.8613 7.24569 19.6661 7.44096C19.4925 7.61452 19.2231 7.63381 19.0282 7.49881L18.9589 7.44096L17.3125 5.7934V11.1499C17.3125 11.426 17.0886 11.6499 16.8125 11.6499C16.567 11.6499 16.3629 11.473 16.3206 11.2398L16.3125 11.1499V5.7934L14.6661 7.44096C14.4925 7.61452 14.2231 7.63381 14.0282 7.49881L13.9589 7.44096C13.7854 7.26739 13.7661 6.99796 13.9011 6.8031L13.9589 6.73385L16.4589 4.23385C16.6325 4.06028 16.9019 4.041 17.0968 4.17599Z" fill="#699C69"/>
</svg>
