<svg width="24" height="24" viewBox="0 0 24 24" fill="none" xmlns="http://www.w3.org/2000/svg">
<g clip-path="url(#clip0_123_207)">
<path fill-rule="evenodd" clip-rule="evenodd" d="M21.3 6.90015C21.3 6.40309 20.897 6.00015 20.4 6.00015H14.7C14.2029 6.00015 13.8 6.40309 13.8 6.90015V8.70015C13.8 8.86583 13.9343 9.00015 14.1 9.00015C14.2656 9.00015 14.4 8.86583 14.4 8.70015V6.90015C14.4 6.73446 14.5343 6.60015 14.7 6.60015H20.4C20.5656 6.60015 20.7 6.73446 20.7 6.90015V12.9001C20.7 13.0658 20.5656 13.2001 20.4 13.2001H14.7C14.5343 13.2001 14.4 13.0658 14.4 12.9001V12.4335C14.4 12.2678 14.2656 12.1335 14.1 12.1335C13.9343 12.1335 13.8 12.2678 13.8 12.4335V12.9001C13.8 13.3972 14.2029 13.8001 14.7 13.8001H20.4C20.897 13.8001 21.3 13.3972 21.3 12.9001V6.90015Z" fill="#699C69"/>
<path fill-rule="evenodd" clip-rule="evenodd" d="M21.4 6.90015C21.4 6.34786 20.9522 5.90015 20.4 5.90015H14.7C14.1477 5.90015 13.7 6.34786 13.7 6.90015V8.70015C13.7 8.92106 13.879 9.10015 14.1 9.10015C14.3209 9.10015 14.5 8.92106 14.5 8.70015V6.90015C14.5 6.78969 14.5895 6.70015 14.7 6.70015H20.4C20.5104 6.70015 20.6 6.78969 20.6 6.90015V12.9001C20.6 13.0106 20.5104 13.1001 20.4 13.1001H14.7C14.5895 13.1001 14.5 13.0106 14.5 12.9001V12.4335C14.5 12.2126 14.3209 12.0335 14.1 12.0335C13.879 12.0335 13.7 12.2126 13.7 12.4335V12.9001C13.7 13.4524 14.1477 13.9001 14.7 13.9001H20.4C20.9522 13.9001 21.4 13.4524 21.4 12.9001V6.90015ZM20.4 6.10015C20.8418 6.10015 21.2 6.45832 21.2 6.90015V12.9001C21.2 13.342 20.8418 13.7001 20.4 13.7001H14.7C14.2581 13.7001 13.9 13.342 13.9 12.9001V12.4335C13.9 12.323 13.9895 12.2335 14.1 12.2335C14.2104 12.2335 14.3 12.323 14.3 12.4335V12.9001C14.3 13.1211 14.479 13.3001 14.7 13.3001H20.4C20.6209 13.3001 20.8 13.1211 20.8 12.9001V6.90015C20.8 6.67923 20.6209 6.50015 20.4 6.50015H14.7C14.479 6.50015 14.3 6.67923 14.3 6.90015V8.70015C14.3 8.8106 14.2104 8.90015 14.1 8.90015C13.9895 8.90015 13.9 8.8106 13.9 8.70015V6.90015C13.9 6.45832 14.2581 6.10015 14.7 6.10015H20.4Z" fill="#699C69"/>
<path fill-rule="evenodd" clip-rule="evenodd" d="M13.4974 2.96065C13.4755 2.79642 13.3246 2.68104 13.1604 2.70293L8.66036 3.30293C8.49613 3.32483 8.38074 3.47572 8.40264 3.63995C8.42454 3.80418 8.57543 3.91957 8.73966 3.89767L13.2397 3.29767C13.4039 3.27577 13.5193 3.12488 13.4974 2.96065Z" fill="#4195B9"/>
<path fill-rule="evenodd" clip-rule="evenodd" d="M13.6956 2.93422C13.6591 2.6605 13.4076 2.46819 13.1339 2.50469L8.63393 3.10469C8.36021 3.14118 8.1679 3.39266 8.2044 3.66638C8.24089 3.9401 8.49237 4.13241 8.76609 4.09592L13.2661 3.49592C13.5398 3.45942 13.7321 3.20794 13.6956 2.93422ZM13.1604 2.70293C13.3246 2.68104 13.4755 2.79642 13.4974 2.96065C13.5193 3.12488 13.4039 3.27577 13.2397 3.29767L8.73966 3.89767C8.57543 3.91957 8.42454 3.80418 8.40264 3.63995C8.38074 3.47572 8.49613 3.32483 8.66036 3.30293L13.1604 2.70293Z" fill="#4195B9"/>
<path fill-rule="evenodd" clip-rule="evenodd" d="M5.19151 20.0229C5.3621 19.8058 5.67643 19.768 5.89357 19.9386C6.11072 20.1092 6.14846 20.4235 5.97787 20.6407L5.71186 20.9793L6.80955 21.9186C6.79528 21.8619 6.76553 21.7902 6.70866 21.7013C6.55989 21.4687 6.62789 21.1595 6.86053 21.0107C7.09318 20.8619 7.40237 20.9299 7.55114 21.1626C7.83614 21.6083 7.8846 22.0458 7.74817 22.4225C7.62186 22.7712 7.36172 22.9987 7.15177 23.1103C6.97026 23.2067 6.74822 23.1823 6.59205 23.0487L4.69739 21.4273C4.49377 21.2531 4.46374 20.9493 4.62929 20.7386L5.19151 20.0229ZM6.9229 22.2788C6.9229 22.2788 6.9229 22.2788 6.9229 22.2788Z" fill="#4195B9"/>
<path d="M13.3734 21.9796C13.33 21.763 13.4703 21.5522 13.6869 21.5088C13.9035 21.4654 14.1143 21.6057 14.1578 21.8223L14.2613 22.3385L15.9829 22.0677C15.9813 22.0645 15.9795 22.0614 15.9778 22.0583C15.9385 21.9892 15.8411 21.8772 15.5507 21.8369C15.3319 21.8065 15.1791 21.6044 15.2095 21.3856C15.2399 21.1668 15.4419 21.0141 15.6607 21.0445C16.1589 21.1137 16.4934 21.346 16.6735 21.6633C16.8419 21.9599 16.8458 22.2791 16.7984 22.4925C16.7628 22.653 16.6325 22.7754 16.4701 22.8009L14.0067 23.1884C13.7949 23.2217 13.5945 23.0822 13.5524 22.8719L13.3734 21.9796Z" fill="#4195B9" stroke="#4195B9" stroke-width="0.2" stroke-linecap="round" stroke-linejoin="round"/>
<path fill-rule="evenodd" clip-rule="evenodd" d="M12.3737 9.56809L13.4226 10.748C13.9381 10.7385 14.6335 10.7001 15.284 10.6608C15.4356 10.6516 15.585 10.6424 15.729 10.6334L15.9192 10.6217L13.5536 10.4181C13.4126 10.4059 13.2833 10.3346 13.1979 10.2218L12.5014 9.30213C12.3347 9.082 12.378 8.76839 12.5981 8.60168C12.8183 8.43496 13.1319 8.47827 13.2986 8.69841L13.8608 9.44081L16.0798 9.63182L16.4961 9.2197C16.5897 9.12703 16.7161 9.07504 16.8478 9.07504H17.5445C17.7209 9.07504 18.0005 9.13549 18.149 9.40688C18.1855 9.47358 18.2071 9.5411 18.2171 9.60698C18.2714 9.63115 18.3209 9.65949 18.3646 9.68897C18.4897 9.77339 18.6086 9.89483 18.6911 10.0491C18.7756 10.2074 18.824 10.406 18.788 10.6238C18.752 10.8416 18.6391 11.0343 18.4769 11.1948C18.2602 11.4094 18.0016 11.4967 17.7505 11.535C17.524 11.5695 17.2598 11.5695 16.9936 11.5694L16.9639 11.5694C16.7984 11.5694 16.3648 11.5961 15.809 11.6304C15.661 11.6396 15.505 11.6492 15.3444 11.6589C14.6003 11.7039 13.7598 11.7503 13.2 11.7503C13.0572 11.7503 12.9212 11.6892 12.8263 11.5825L11.6263 10.2325C11.4428 10.0261 11.4614 9.71003 11.6678 9.52657C11.8742 9.34311 12.1903 9.3617 12.3737 9.56809ZM17.0801 10.3349C16.9239 10.3349 16.7955 10.2154 16.7814 10.0629C16.7883 10.1375 16.8225 10.2041 16.8739 10.2528C16.9277 10.3037 17.0002 10.3349 17.0801 10.3349ZM16.619 10.5051C16.5862 10.5376 16.5495 10.5649 16.5101 10.5869C16.7093 10.5762 16.8681 10.5694 16.9639 10.5694C17.2684 10.5694 17.4571 10.5681 17.5999 10.5464C17.6236 10.5428 17.6439 10.5389 17.6613 10.5349H17.0801C16.9446 10.5349 16.8217 10.481 16.7317 10.3935L16.619 10.5051Z" fill="#4195B9"/>
<path fill-rule="evenodd" clip-rule="evenodd" d="M11.3211 15.911C11.6776 16.1925 12.0161 16.46 12.3196 16.7276L13.1034 21.3833C13.1256 21.5155 13.2001 21.6332 13.3099 21.71C13.4198 21.7869 13.5559 21.8163 13.6877 21.7919L15.5456 21.447C15.816 21.3968 15.9951 21.1377 15.9465 20.867C15.64 19.1602 14.9926 15.5905 14.8941 15.2003C14.8761 15.1292 14.8428 15.0629 14.7964 15.0062L12.9133 12.7034L12.8152 11.9264C12.7806 11.6525 12.5305 11.4584 12.2565 11.493C11.9825 11.5276 11.7885 11.7777 11.8231 12.0517L11.9392 12.9713C11.951 13.0645 11.9887 13.1525 12.0482 13.2252L13.9474 15.5477C14.0803 16.1777 14.5671 18.8504 14.8742 20.5546L14.0051 20.7159L13.2767 16.3892C13.2581 16.2791 13.2033 16.1784 13.1209 16.1031C12.7582 15.7717 12.3472 15.4471 11.9478 15.1316L11.8446 15.0501C11.406 14.7033 10.9834 14.3648 10.6144 14.0132C9.86358 13.2979 9.44167 12.6279 9.49853 11.8886C9.51971 11.6133 9.31368 11.3729 9.03835 11.3517C8.76303 11.3306 8.52266 11.5366 8.50148 11.8119C8.40833 13.0228 9.12362 13.9741 9.92457 14.7372C10.3315 15.1249 10.7886 15.49 11.2244 15.8346L11.3211 15.911Z" fill="#4195B9"/>
<path fill-rule="evenodd" clip-rule="evenodd" d="M9.52232 13.0592C9.36153 13.0193 9.19878 13.1172 9.15881 13.278L8.41371 16.2753L5.76335 19.6751C5.66245 19.8045 5.68427 19.991 5.81231 20.0936L7.23557 21.2344C7.36231 21.336 7.54689 21.3183 7.65197 21.1944L10.5787 17.7444C10.6053 17.7131 10.6252 17.6765 10.6371 17.6371L11.3871 15.1547C11.435 14.9961 11.3453 14.8287 11.1867 14.7808C11.0281 14.7329 10.8607 14.8226 10.8128 14.9812L10.0808 17.4039L7.38318 20.5838L6.41851 19.8105L8.92608 16.594C8.9519 16.5608 8.97049 16.5227 8.98062 16.4819L9.74108 13.4227C9.78106 13.2619 9.68311 13.0992 9.52232 13.0592Z" fill="#4195B9"/>
<path fill-rule="evenodd" clip-rule="evenodd" d="M10.5787 17.7443L10.7312 17.8737C10.7756 17.8214 10.8088 17.7605 10.8286 17.6948L11.5786 15.2124C11.6585 14.9481 11.5089 14.6691 11.2446 14.5892C10.9802 14.5093 10.7012 14.6589 10.6213 14.9232L9.90141 17.3061L7.35652 20.3059L6.69758 19.7778L9.08383 16.7168C9.12688 16.6616 9.15784 16.5979 9.17473 16.53L9.9352 13.4708C10.0018 13.2029 9.83857 12.9316 9.57059 12.865C9.3026 12.7984 9.03135 12.9616 8.96473 13.2296L8.22988 16.1857L5.60563 19.552C5.43748 19.7677 5.47384 20.0784 5.68724 20.2495L7.1105 21.3903C7.32174 21.5597 7.62937 21.5301 7.8045 21.3237L10.7312 17.8737L10.5787 17.7443ZM8.41373 16.2752L5.76337 19.6749C5.66247 19.8043 5.68429 19.9908 5.81233 20.0935L7.23559 21.2343C7.36233 21.3359 7.54691 21.3182 7.65199 21.1943L10.5787 17.7443C10.6054 17.7129 10.6252 17.6764 10.6371 17.637L11.3871 15.1546C11.4351 14.996 11.3453 14.8286 11.1867 14.7806C11.0281 14.7327 10.8607 14.8225 10.8128 14.9811L10.0808 17.4037L7.3832 20.5837L6.41854 19.8104L6.41853 19.8104L8.9261 16.5938C8.95193 16.5607 8.97051 16.5225 8.98064 16.4817L9.7411 13.4226C9.78108 13.2618 9.68313 13.099 9.52234 13.0591C9.36155 13.0191 9.1988 13.1171 9.15883 13.2778L8.41373 16.2752Z" fill="#4195B9"/>
<path fill-rule="evenodd" clip-rule="evenodd" d="M9.1181 6.31518C8.78483 6.62689 8.60679 7.07381 8.63766 7.46676C8.65502 7.68779 8.6638 8.43456 8.67152 9.31596C8.67277 9.45774 8.67398 9.60257 8.67521 9.74864C8.68152 10.5008 8.68811 11.2858 8.70006 11.8566C8.70318 12.0052 8.81473 12.1292 8.96225 12.1479C9.22478 12.1812 9.86431 12.1825 10.5141 12.1762C10.889 12.1726 11.2936 12.1659 11.6464 12.1601C11.9033 12.1559 12.1327 12.1521 12.3032 12.1503C12.459 12.1486 12.5876 12.0279 12.5992 11.8725L12.6958 10.5751C12.7081 10.4098 12.5841 10.2659 12.4189 10.2536C12.2536 10.2413 12.1097 10.3653 12.0974 10.5305L12.0212 11.5539C11.898 11.5558 11.764 11.558 11.6225 11.5604C11.28 11.5661 10.8936 11.5725 10.5083 11.5762C10.0239 11.5809 9.58242 11.5805 9.29484 11.5698C9.28606 11.0394 9.28055 10.3821 9.2752 9.74488C9.27397 9.59851 9.27275 9.45319 9.2715 9.3107C9.26392 8.44545 9.2553 7.66789 9.23581 7.41977C9.22061 7.22629 9.3146 6.95294 9.52795 6.75338C9.72837 6.56593 10.0362 6.44279 10.4639 6.54422C10.6067 6.57808 10.7744 6.67413 10.9681 6.84497C11.1595 7.01384 11.358 7.23941 11.5635 7.50431C11.8236 7.83933 12.0756 8.21045 12.331 8.58647C12.4332 8.73697 12.536 8.88827 12.64 9.03834L11.896 9.61459L11.2358 8.89713C11.1236 8.77521 10.9338 8.76733 10.8119 8.87952C10.69 8.99172 10.6821 9.1815 10.7943 9.30342L11.6411 10.2237C11.7466 10.3383 11.9224 10.3531 12.0456 10.2577L13.2337 9.33745C13.3609 9.23888 13.3877 9.05743 13.2944 8.92629C13.1502 8.72378 12.9998 8.50262 12.8462 8.27674C12.5811 7.88683 12.3064 7.48285 12.0376 7.13645C11.8214 6.85792 11.5966 6.59937 11.365 6.39503C11.1356 6.19265 10.8805 6.02639 10.6024 5.96041C9.97768 5.81226 9.46431 5.99137 9.1181 6.31518Z" fill="#4195B9"/>
<path fill-rule="evenodd" clip-rule="evenodd" d="M13.2337 9.33745C13.3609 9.23888 13.3877 9.05743 13.2944 8.92629C13.1502 8.72378 12.9998 8.50262 12.8462 8.27674C12.5811 7.88683 12.3064 7.48285 12.0376 7.13645C11.8214 6.85792 11.5966 6.59937 11.365 6.39503C11.1356 6.19265 10.8805 6.02639 10.6024 5.96041C9.97768 5.81226 9.46431 5.99137 9.1181 6.31518C8.78483 6.62689 8.60679 7.07381 8.63766 7.46676C8.65502 7.68779 8.6638 8.43456 8.67152 9.31596L8.67521 9.74864C8.68152 10.5008 8.68811 11.2858 8.70006 11.8566C8.70318 12.0052 8.81473 12.1292 8.96225 12.1479C9.22478 12.1812 9.86431 12.1825 10.5141 12.1762C10.889 12.1726 11.2936 12.1659 11.6464 12.1601C11.9033 12.1559 12.1327 12.1521 12.3032 12.1503C12.459 12.1486 12.5876 12.0279 12.5992 11.8725L12.6958 10.5751C12.7081 10.4098 12.5841 10.2659 12.4189 10.2536C12.405 10.2526 12.3913 10.2525 12.3778 10.2534C12.282 10.2592 12.197 10.3107 12.1462 10.3875C12.1329 10.4076 12.122 10.4293 12.1138 10.4525C12.1051 10.4771 12.0995 10.5032 12.0974 10.5305L12.0212 11.5539C11.898 11.5558 11.764 11.558 11.6225 11.5604C11.28 11.5661 10.8936 11.5725 10.5083 11.5762C10.0239 11.5809 9.58242 11.5805 9.29484 11.5698C9.28606 11.0394 9.28055 10.3821 9.2752 9.74488L9.2715 9.3107C9.26392 8.44545 9.2553 7.66789 9.23581 7.41977C9.22061 7.22629 9.3146 6.95294 9.52795 6.75338C9.72837 6.56593 10.0362 6.44279 10.4639 6.54422C10.6067 6.57808 10.7744 6.67413 10.9681 6.84497C11.1595 7.01384 11.358 7.23941 11.5635 7.50431C11.8236 7.83933 12.0756 8.21045 12.331 8.58647C12.4332 8.73697 12.536 8.88827 12.64 9.03834L11.896 9.61459L11.2358 8.89713C11.1236 8.77521 10.9338 8.76733 10.8119 8.87952C10.69 8.99172 10.6821 9.1815 10.7943 9.30342L11.6411 10.2237C11.7248 10.3146 11.8526 10.3427 11.9634 10.3029C11.9923 10.2925 12.0201 10.2774 12.0456 10.2577L13.2337 9.33745ZM12.5878 10.0907L13.3561 9.49557C13.5682 9.33128 13.6129 9.02886 13.4573 8.81029C13.3146 8.60987 13.1655 8.39057 13.0116 8.16428L13.0095 8.16119C12.7458 7.77344 12.4682 7.3652 12.1956 7.01383C11.9759 6.73074 11.7423 6.46121 11.4973 6.24505C11.256 6.03215 10.9718 5.84249 10.6485 5.76581C9.95816 5.60208 9.37628 5.79985 8.98148 6.16911C8.60831 6.51814 8.40217 7.02289 8.43827 7.48242C8.45492 7.69441 8.46376 8.43089 8.47153 9.31771L8.47522 9.7514C8.48153 10.5027 8.48812 11.2888 8.50011 11.8607C8.5053 12.1085 8.69122 12.3151 8.93709 12.3463C9.21656 12.3817 9.87306 12.3824 10.516 12.3762C10.8916 12.3726 11.2968 12.3659 11.6495 12.3601C11.9066 12.3558 12.1356 12.3521 12.3054 12.3502C12.565 12.3475 12.7793 12.1464 12.7986 11.8874L12.8952 10.5899C12.9117 10.369 12.7819 10.171 12.5878 10.0907ZM11.8977 10.5192L11.8353 11.3568C11.7656 11.358 11.6934 11.3592 11.6192 11.3604C11.2766 11.3661 10.8908 11.3725 10.5064 11.3762C10.12 11.38 9.7636 11.3805 9.49186 11.3752C9.48476 10.8833 9.47991 10.3059 9.47519 9.7432L9.47149 9.30895C9.46396 8.44904 9.4554 7.66125 9.4352 7.40411C9.42521 7.27695 9.49131 7.0615 9.66457 6.89945C9.81637 6.75746 10.0557 6.65296 10.4177 6.73882C10.5154 6.76198 10.654 6.83462 10.8358 6.99494C11.0138 7.15199 11.2035 7.36656 11.4055 7.62693C11.661 7.95604 11.9094 8.32171 12.1656 8.69884C12.2324 8.79732 12.3001 8.89689 12.368 8.99604L11.9188 9.34398L11.383 8.76169C11.196 8.5585 10.8796 8.54536 10.6765 8.73235C10.4733 8.91935 10.4601 9.23566 10.6471 9.43885L11.494 10.3591C11.6007 10.4751 11.7505 10.5297 11.8977 10.5192Z" fill="#4195B9"/>
<path fill-rule="evenodd" clip-rule="evenodd" d="M9.8321 2.37684L10.0166 2.3499C10.6566 2.25645 11.2512 2.69953 11.3446 3.33954L11.4591 4.12358C11.56 4.81454 11.0817 5.45647 10.3907 5.55736C9.69975 5.65825 9.05783 5.17991 8.95694 4.48894L8.84245 3.70491C8.749 3.06489 9.19208 2.47029 9.8321 2.37684ZM9.92989 1.7562C10.8978 1.61487 11.797 2.28494 11.9383 3.25285L12.0528 4.03689C12.2016 5.05575 11.4963 6.00229 10.4774 6.15106C9.45855 6.29983 8.512 5.59449 8.36323 4.57564L8.24875 3.7916C8.10742 2.82368 8.77749 1.92447 9.74541 1.78313L9.92989 1.7562Z" fill="#4195B9"/>
<path fill-rule="evenodd" clip-rule="evenodd" d="M9.86099 2.57474L10.0455 2.5478C10.5762 2.47031 11.0692 2.83772 11.1467 3.36844L11.2612 4.15248C11.3462 4.73414 10.9435 5.27453 10.3618 5.35946C9.78016 5.44439 9.23977 5.04171 9.15484 4.46005L9.04036 3.67601C8.96286 3.14529 9.33027 2.65223 9.86099 2.57474ZM12.1363 3.22396C11.979 2.14675 10.9782 1.401 9.90099 1.5583L9.71651 1.58523C8.6393 1.74252 7.89356 2.74328 8.05085 3.82049L8.16533 4.60453C8.33006 5.73268 9.37815 6.51369 10.5063 6.34896C11.6345 6.18424 12.4155 5.13615 12.2507 4.008L12.1363 3.22396ZM10.0166 2.3499L9.8321 2.37684C9.19208 2.47029 8.749 3.06489 8.84245 3.70491L8.95694 4.48894C9.05783 5.17991 9.69975 5.65825 10.3907 5.55736C11.0817 5.45647 11.56 4.81454 11.4591 4.12358L11.3446 3.33954C11.2512 2.69953 10.6566 2.25645 10.0166 2.3499ZM11.9383 3.25285C11.797 2.28494 10.8978 1.61487 9.92989 1.7562L9.74541 1.78313C8.77749 1.92447 8.10742 2.82368 8.24875 3.7916L8.36323 4.57564C8.512 5.59449 9.45855 6.29983 10.4774 6.15106C11.4963 6.00229 12.2016 5.05575 12.0528 4.03689L11.9383 3.25285Z" fill="#4195B9"/>
<path fill-rule="evenodd" clip-rule="evenodd" d="M7.19998 9.90015C7.19998 9.73446 7.06566 9.60015 6.89997 9.60015H2.99998C2.83429 9.60015 2.69998 9.73446 2.69998 9.90015C2.69998 10.0658 2.83429 10.2001 2.99998 10.2001H6.89997C7.06566 10.2001 7.19998 10.0658 7.19998 9.90015Z" fill="#699C69"/>
<path fill-rule="evenodd" clip-rule="evenodd" d="M7.39997 9.90015C7.39997 9.624 7.17612 9.40015 6.89997 9.40015H2.99998C2.72383 9.40015 2.49998 9.624 2.49998 9.90015C2.49998 10.1763 2.72383 10.4001 2.99998 10.4001H6.89997C7.17612 10.4001 7.39997 10.1763 7.39997 9.90015ZM6.89997 9.60015C7.06566 9.60015 7.19998 9.73446 7.19998 9.90015C7.19998 10.0658 7.06566 10.2001 6.89997 10.2001H2.99998C2.83429 10.2001 2.69998 10.0658 2.69998 9.90015C2.69998 9.73446 2.83429 9.60015 2.99998 9.60015H6.89997Z" fill="#699C69"/>
<path fill-rule="evenodd" clip-rule="evenodd" d="M6.29997 11.4001C6.29997 11.2345 6.16566 11.1001 5.99997 11.1001H2.09998C1.93429 11.1001 1.79998 11.2345 1.79998 11.4001C1.79998 11.5658 1.93429 11.7001 2.09998 11.7001H5.99997C6.16566 11.7001 6.29997 11.5658 6.29997 11.4001Z" fill="#699C69"/>
<path fill-rule="evenodd" clip-rule="evenodd" d="M6.49997 11.4001C6.49997 11.124 6.27612 10.9001 5.99997 10.9001H2.09998C1.82383 10.9001 1.59998 11.124 1.59998 11.4001C1.59998 11.6763 1.82383 11.9001 2.09998 11.9001H5.99997C6.27612 11.9001 6.49997 11.6763 6.49997 11.4001ZM5.99997 11.1001C6.16566 11.1001 6.29997 11.2345 6.29997 11.4001C6.29997 11.5658 6.16566 11.7001 5.99997 11.7001H2.09998C1.93429 11.7001 1.79998 11.5658 1.79998 11.4001C1.79998 11.2345 1.93429 11.1001 2.09998 11.1001H5.99997Z" fill="#699C69"/>
<path fill-rule="evenodd" clip-rule="evenodd" d="M7.19998 12.9001C7.19998 12.7345 7.06566 12.6001 6.89997 12.6001H2.99997C2.83429 12.6001 2.69998 12.7345 2.69998 12.9001C2.69998 13.0658 2.83429 13.2001 2.99997 13.2001H6.89997C7.06566 13.2001 7.19998 13.0658 7.19998 12.9001Z" fill="#699C69"/>
<path fill-rule="evenodd" clip-rule="evenodd" d="M7.39997 12.9001C7.39997 12.624 7.17612 12.4001 6.89997 12.4001H2.99997C2.72383 12.4001 2.49997 12.624 2.49997 12.9001C2.49997 13.1763 2.72383 13.4001 2.99997 13.4001H6.89997C7.17612 13.4001 7.39997 13.1763 7.39997 12.9001ZM6.89997 12.6001C7.06566 12.6001 7.19998 12.7345 7.19998 12.9001C7.19998 13.0658 7.06566 13.2001 6.89997 13.2001H2.99997C2.83429 13.2001 2.69998 13.0658 2.69998 12.9001C2.69998 12.7345 2.83429 12.6001 2.99997 12.6001H6.89997Z" fill="#699C69"/>
<path d="M18.3 7.20024H20.1V8.40024H18.3V7.20024Z" fill="#699C69"/>
<path fill-rule="evenodd" clip-rule="evenodd" d="M18.1 7.00024H20.3V8.60024H18.1V7.00024ZM18.3 7.20024V8.40024H20.1V7.20024H18.3Z" fill="#699C69"/>
</g>
<defs>
<clipPath id="clip0_123_207">
<rect width="24" height="24" fill="white" transform="translate(0 0.000244141)"/>
</clipPath>
</defs>
</svg>
