<svg width="24" height="24" viewBox="0 0 24 24" fill="none" xmlns="http://www.w3.org/2000/svg">
<g clip-path="url(#clip0_121_1039)">
<path d="M2.37449 12.4445C3.74103 11.2945 5.54588 10.8071 7.30556 11.1128C7.57762 11.16 7.75986 11.4189 7.71259 11.691C7.66532 11.963 7.40645 12.1453 7.13439 12.098C5.66556 11.8428 4.15904 12.2497 3.01837 13.2096C1.95917 14.101 1.31595 15.3846 1.22988 16.7572L1.22197 16.9154H4.42497C4.68139 16.9154 4.89273 17.1084 4.92161 17.3571L4.92497 17.4154C4.92497 17.6718 4.73195 17.8831 4.48328 17.912L4.42497 17.9154H0.719971C0.463553 17.9154 0.252218 17.7224 0.223335 17.4737L0.219971 17.4154V17.0756C0.219357 15.2895 1.00794 13.5945 2.37449 12.4445Z" fill="#4195B9"/>
<path d="M4.46422 4.16932C5.74853 3.53069 7.29371 3.75069 8.34875 4.72239C8.55188 4.90947 8.56488 5.22578 8.37781 5.4289C8.19073 5.63202 7.87442 5.64503 7.6713 5.45795C6.92118 4.76709 5.82259 4.61068 4.90946 5.06473C3.99633 5.51878 3.45803 6.48915 3.55617 7.5042C3.65432 8.51925 4.36857 9.3685 5.35177 9.63919C6.33498 9.90988 7.38325 9.54588 7.98711 8.7241C8.15062 8.50158 8.46357 8.45374 8.6861 8.61726C8.90862 8.78077 8.95646 9.09372 8.79294 9.31624C7.94362 10.4721 6.46921 10.984 5.08633 10.6033C3.70345 10.2226 2.69886 9.02811 2.56082 7.60044C2.42277 6.17277 3.1799 4.80794 4.46422 4.16932Z" fill="#4195B9"/>
<path d="M15.9854 4.50996C17.1091 3.66852 18.63 3.58951 19.8349 4.30997C21.0398 5.03043 21.6899 6.40753 21.4805 7.7957C21.2711 9.18386 20.2437 10.3079 18.8798 10.6409C17.516 10.9738 16.0862 10.4497 15.2607 9.31421C15.0983 9.09086 15.1477 8.77816 15.3711 8.61578C15.5944 8.45339 15.9071 8.50282 16.0695 8.72617C16.6564 9.53349 17.673 9.90613 18.6427 9.6694C19.6123 9.43267 20.3428 8.6335 20.4917 7.64653C20.6406 6.65957 20.1783 5.68047 19.3217 5.16824C18.465 4.656 17.3837 4.71218 16.5848 5.31043C16.3637 5.47594 16.0504 5.43092 15.8848 5.20988C15.7193 4.98883 15.7643 4.67547 15.9854 4.50996Z" fill="#4195B9"/>
<path d="M12.0801 1.79028C9.45396 1.79028 7.32507 3.91917 7.32507 6.54528C7.32507 9.1714 9.45396 11.3003 12.0801 11.3003C14.7062 11.3003 16.8351 9.1714 16.8351 6.54528C16.8351 3.91917 14.7062 1.79028 12.0801 1.79028ZM12.0801 2.79028C14.1539 2.79028 15.8351 4.47145 15.8351 6.54528C15.8351 8.61911 14.1539 10.3003 12.0801 10.3003C10.0062 10.3003 8.32507 8.61911 8.32507 6.54528C8.32507 4.47145 10.0062 2.79028 12.0801 2.79028Z" fill="#4195B9"/>
<path d="M14.2918 12.2576C16.099 10.8794 18.5298 10.6407 20.5707 11.6409C22.6115 12.6411 23.912 14.7086 23.93 16.9813C23.9322 17.2574 23.7101 17.483 23.4339 17.4852C23.1578 17.4874 22.9322 17.2653 22.93 16.9892C22.9151 15.0952 21.8313 13.3723 20.1306 12.5388C18.4299 11.7053 16.4042 11.9043 14.8982 13.0528C14.6786 13.2202 14.3649 13.178 14.1974 12.9584C14.03 12.7388 14.0722 12.4251 14.2918 12.2576Z" fill="#4195B9"/>
<path d="M3.60776 11.5754C5.70676 10.5912 8.18493 10.9043 9.97322 12.3796C10.1862 12.5553 10.2164 12.8705 10.0407 13.0835C9.86499 13.2965 9.54986 13.3267 9.33684 13.151C7.84661 11.9216 5.78146 11.6607 4.0323 12.4808C2.32917 13.2794 1.22236 14.9638 1.15796 16.8333L1.15653 16.8953H4.65503C4.91145 16.8953 5.12278 17.0883 5.15167 17.337L5.15503 17.3953C5.15503 17.6517 4.96201 17.863 4.71334 17.8919L4.65503 17.8953H0.655029C0.398611 17.8953 0.187276 17.7023 0.158393 17.4536L0.155029 17.3953V16.9832C0.164561 14.665 1.50877 12.5596 3.60776 11.5754Z" fill="#4195B9"/>
<path d="M7.79815 13.2479C10.3757 11.7116 13.5723 11.6482 16.2046 13.0788C16.6982 13.3409 17.1654 13.65 17.5997 14.0018C17.8143 14.1756 17.8474 14.4904 17.6736 14.705C17.4998 14.9196 17.1849 14.9527 16.9703 14.7789C16.5859 14.4676 16.1724 14.194 15.7313 13.9597C13.405 12.6954 10.5844 12.7514 8.31014 14.1069C6.03583 15.4625 4.64473 17.9167 4.65 20.5653L4.65002 20.6653H12.15C12.4064 20.6653 12.6178 20.8584 12.6467 21.107L12.65 21.1653C12.65 21.4218 12.457 21.6331 12.2083 21.662L12.15 21.6653H4.18002C3.93253 21.6653 3.72229 21.4843 3.68555 21.2396L3.67049 21.1216L3.65681 20.9477L3.65129 20.787L3.64992 20.5663C3.64403 17.5657 5.22061 14.7842 7.79815 13.2479Z" fill="#4195B9"/>
<path d="M17.865 14.0354C15.1892 14.0354 13.02 16.2046 13.02 18.8804C13.02 21.5562 15.1892 23.7254 17.865 23.7254C20.5408 23.7254 22.71 21.5562 22.71 18.8804C22.71 16.2046 20.5408 14.0354 17.865 14.0354ZM17.865 15.0354C19.9886 15.0354 21.71 16.7569 21.71 18.8804C21.71 21.0039 19.9886 22.7254 17.865 22.7254C15.7415 22.7254 14.02 21.0039 14.02 18.8804C14.02 16.7569 15.7415 15.0354 17.865 15.0354Z" fill="#699C69"/>
<path d="M20.02 18.3503C20.2962 18.3503 20.52 18.5742 20.52 18.8503C20.52 19.1068 20.327 19.3181 20.0783 19.347L20.02 19.3503H15.78C15.5039 19.3503 15.28 19.1265 15.28 18.8503C15.28 18.5939 15.473 18.3826 15.7217 18.3537L15.78 18.3503H20.02Z" fill="#699C69"/>
<path d="M17.9 16.2302C18.1564 16.2302 18.3678 16.4232 18.3967 16.6719L18.4 16.7302V20.9702C18.4 21.2464 18.1762 21.4702 17.9 21.4702C17.6436 21.4702 17.4323 21.2772 17.4034 21.0285L17.4 20.9702V16.7302C17.4 16.4541 17.6239 16.2302 17.9 16.2302Z" fill="#699C69"/>
</g>
<defs>
<clipPath id="clip0_121_1039">
<rect width="24" height="24" fill="white" transform="translate(0 0.000244141)"/>
</clipPath>
</defs>
</svg>
