<svg width="24" height="24" viewBox="0 0 24 24" fill="none" xmlns="http://www.w3.org/2000/svg">
<g clip-path="url(#clip0_121_1033)">
<path fill-rule="evenodd" clip-rule="evenodd" d="M9.375 18.9351C9.375 18.6589 9.59886 18.4351 9.875 18.4351H14.115C14.3911 18.4351 14.615 18.6589 14.615 18.9351C14.615 19.2112 14.3911 19.4351 14.115 19.4351H9.875C9.59886 19.4351 9.375 19.2112 9.375 18.9351Z" fill="#699C69"/>
<path fill-rule="evenodd" clip-rule="evenodd" d="M11.995 16.3152C12.2711 16.3152 12.495 16.539 12.495 16.8152V21.0552C12.495 21.3313 12.2711 21.5552 11.995 21.5552C11.7189 21.5552 11.495 21.3313 11.495 21.0552V16.8152C11.495 16.539 11.7189 16.3152 11.995 16.3152Z" fill="#699C69"/>
<path fill-rule="evenodd" clip-rule="evenodd" d="M10.8746 1.53108C10.7323 1.27905 10.4576 1.13143 10.1689 1.15177C9.88016 1.17212 9.6289 1.35679 9.5233 1.62628C9.41769 1.89578 9.47659 2.20199 9.67463 2.41308C9.68868 2.42804 9.70178 2.44386 9.71388 2.46044C9.75055 2.51069 9.88207 2.62397 10.1414 2.78161C10.3805 2.92696 10.6716 3.07705 10.9597 3.21456C11.0784 3.27121 11.1952 3.32507 11.3059 3.37487C11.2929 3.25398 11.278 3.12594 11.261 2.99523C11.2199 2.6785 11.1676 2.35524 11.1035 2.08317C11.0543 1.87391 11.0062 1.73324 10.9697 1.65153C10.9325 1.61701 10.9003 1.57656 10.8746 1.53108ZM11.875 4.16018C12.3741 4.13113 12.3741 4.13108 12.3741 4.13103L12.3737 4.12318L12.3724 4.1023C12.3712 4.08424 12.3695 4.05806 12.3672 4.02475C12.3626 3.95816 12.3555 3.86296 12.3458 3.74718C12.3264 3.51611 12.2961 3.20082 12.2527 2.86638C12.2095 2.53373 12.152 2.17293 12.0769 1.85391C12.0073 1.55823 11.9055 1.21884 11.7389 0.990444C11.7167 0.960024 11.6914 0.932536 11.6636 0.908289C11.3147 0.400675 10.7206 0.110424 10.0986 0.154247C9.4249 0.201713 8.83864 0.632614 8.59223 1.26143C8.34928 1.88143 8.47947 2.5847 8.92608 3.07641C9.09455 3.2928 9.37242 3.48443 9.62189 3.63609C9.90171 3.80621 10.2265 3.97269 10.529 4.11705C10.8331 4.26218 11.123 4.38891 11.3363 4.47917C11.4432 4.52439 11.5314 4.56068 11.5931 4.58578C11.624 4.59833 11.6483 4.6081 11.6651 4.6148L11.6845 4.62253L11.6918 4.62541C11.6919 4.62543 11.6919 4.62545 11.875 4.16018ZM11.6918 4.62541L11.875 4.16018L12.3741 4.13103C12.384 4.30131 12.3065 4.465 12.1683 4.56507C12.0302 4.66515 11.8505 4.68787 11.6918 4.62541Z" fill="#4195B9"/>
<path fill-rule="evenodd" clip-rule="evenodd" d="M12.7757 0.990985C13.1433 0.485018 13.7528 0.213462 14.3749 0.278585C14.9971 0.34373 15.5373 0.735879 15.792 1.30731C16.0467 1.87875 15.9772 2.54266 15.6096 3.04895L15.6089 3.04995C15.4431 3.2772 15.1527 3.4783 14.8931 3.63613C14.6133 3.80625 14.2885 3.97273 13.986 4.11709C13.6819 4.26222 13.392 4.38895 13.1787 4.47921C13.0718 4.52443 12.9836 4.56072 12.9219 4.58581C12.891 4.59837 12.8667 4.60814 12.8499 4.61484L12.8305 4.62257L12.8253 4.62464L12.8232 4.62545C12.8231 4.62547 12.8231 4.62549 12.64 4.16022C12.1409 4.13117 12.1409 4.13112 12.1409 4.13107L12.141 4.12886L12.1413 4.12322L12.1426 4.10234C12.1438 4.08428 12.1455 4.0581 12.1478 4.02479C12.1524 3.9582 12.1595 3.863 12.1692 3.74722C12.1886 3.51614 12.2188 3.20086 12.2623 2.86642C12.3055 2.53377 12.363 2.17297 12.4381 1.85395C12.5077 1.55849 12.6093 1.21937 12.7757 0.990985ZM12.64 4.16022L12.1409 4.13107C12.131 4.30135 12.2085 4.46503 12.3466 4.56511C12.4848 4.66519 12.6645 4.68791 12.8232 4.62545L12.64 4.16022ZM13.2091 3.37491C13.2221 3.25402 13.237 3.12598 13.254 2.99527C13.2951 2.67854 13.3474 2.35528 13.4115 2.0832C13.481 1.78779 13.5481 1.62906 13.5839 1.57995L13.5846 1.57895C13.7423 1.36177 14.0038 1.24521 14.2707 1.27315C14.5376 1.30109 14.7693 1.4693 14.8786 1.71442C14.9877 1.95931 14.9581 2.24378 14.8008 2.46088C14.7638 2.51132 14.6323 2.62442 14.3736 2.78165C14.1345 2.927 13.8434 3.07708 13.5553 3.2146C13.4366 3.27125 13.3198 3.32511 13.2091 3.37491Z" fill="#4195B9"/>
<path fill-rule="evenodd" clip-rule="evenodd" d="M4.38994 6.89526C3.51733 6.89526 2.80994 7.60265 2.80994 8.47526C2.80994 9.34787 3.51733 10.0553 4.38994 10.0553C5.26255 10.0553 5.96994 9.34787 5.96994 8.47526C5.96994 7.60265 5.26255 6.89526 4.38994 6.89526ZM1.80994 8.47526C1.80994 7.05037 2.96504 5.89526 4.38994 5.89526C5.81483 5.89526 6.96994 7.05037 6.96994 8.47526C6.96994 9.90016 5.81483 11.0553 4.38994 11.0553C2.96504 11.0553 1.80994 9.90016 1.80994 8.47526Z" fill="#4195B9"/>
<path fill-rule="evenodd" clip-rule="evenodd" d="M8.21997 4.44019C8.21997 4.16404 8.44383 3.94019 8.71997 3.94019H15.69C15.9661 3.94019 16.19 4.16404 16.19 4.44019V11.4102C16.19 11.6863 15.9661 11.9102 15.69 11.9102H8.71997C8.44383 11.9102 8.21997 11.6863 8.21997 11.4102V4.44019ZM9.21997 4.94019V10.9102H15.19V4.94019H9.21997Z" fill="#4195B9"/>
<path fill-rule="evenodd" clip-rule="evenodd" d="M12.14 4.00513C12.4162 4.00513 12.64 4.22898 12.64 4.50513V11.2801C12.64 11.5563 12.4162 11.7801 12.14 11.7801C11.8639 11.7801 11.64 11.5563 11.64 11.2801V4.50513C11.64 4.22898 11.8639 4.00513 12.14 4.00513Z" fill="#4195B9"/>
<path fill-rule="evenodd" clip-rule="evenodd" d="M8.40991 7.99023C8.40991 7.71409 8.63377 7.49023 8.90991 7.49023H15.3099C15.5861 7.49023 15.8099 7.71409 15.8099 7.99023C15.8099 8.26638 15.5861 8.49023 15.3099 8.49023H8.90991C8.63377 8.49023 8.40991 8.26638 8.40991 7.99023Z" fill="#4195B9"/>
<path fill-rule="evenodd" clip-rule="evenodd" d="M11.965 15.1201C9.84146 15.1201 8.12 16.8416 8.12 18.9651C8.12 21.0887 9.84146 22.8101 11.965 22.8101C14.0885 22.8101 15.81 21.0887 15.81 18.9651C15.81 16.8416 14.0885 15.1201 11.965 15.1201ZM7.12 18.9651C7.12 16.2893 9.28918 14.1201 11.965 14.1201C14.6408 14.1201 16.81 16.2893 16.81 18.9651C16.81 21.6409 14.6408 23.8101 11.965 23.8101C9.28918 23.8101 7.12 21.6409 7.12 18.9651Z" fill="#699C69"/>
<path fill-rule="evenodd" clip-rule="evenodd" d="M3.99954 12.4421C2.47736 12.7265 1.35022 13.9976 1.2305 15.5201H6.65497C6.93111 15.5201 7.15497 15.744 7.15497 16.0201C7.15497 16.2963 6.93111 16.5201 6.65497 16.5201H0.719971C0.443828 16.5201 0.219971 16.2963 0.219971 16.0201V15.7801L0.219972 15.779C0.224846 13.6611 1.73628 11.8464 3.81842 11.4586L3.82237 11.4579C4.0774 11.4125 4.33595 11.3898 4.59497 11.3901C4.85399 11.3898 5.11254 11.4125 5.36756 11.4579L5.3681 11.458C6.7257 11.7011 7.89169 12.5646 8.52006 13.7923C8.64587 14.0382 8.54859 14.3394 8.30277 14.4652C8.05696 14.591 7.75569 14.4938 7.62988 14.2479C7.14387 13.2984 6.24208 12.6305 5.19209 12.4424C4.99521 12.4073 4.79561 12.3899 4.59564 12.3901H4.5943C4.3949 12.3899 4.19587 12.4072 3.99954 12.4421ZM4.59497 11.3901C4.59519 11.3901 4.59542 11.3901 4.59564 11.3901L4.59497 11.8901L4.5943 11.3901C4.59452 11.3901 4.59475 11.3901 4.59497 11.3901Z" fill="#4195B9"/>
<path fill-rule="evenodd" clip-rule="evenodd" d="M19.8 6.89526C18.9274 6.89526 18.22 7.60265 18.22 8.47526C18.22 9.34787 18.9274 10.0553 19.8 10.0553C20.6726 10.0553 21.38 9.34787 21.38 8.47526C21.38 7.60265 20.6726 6.89526 19.8 6.89526ZM17.22 8.47526C17.22 7.05037 18.3751 5.89526 19.8 5.89526C21.2249 5.89526 22.38 7.05037 22.38 8.47526C22.38 9.90016 21.2249 11.0553 19.8 11.0553C18.3751 11.0553 17.22 9.90016 17.22 8.47526Z" fill="#4195B9"/>
<path fill-rule="evenodd" clip-rule="evenodd" d="M18.8074 11.4479C19.0624 11.4025 19.321 11.3798 19.58 11.3801C19.839 11.3798 20.0975 11.4025 20.3526 11.4479L20.3546 11.4482C22.4476 11.8296 23.969 13.6524 23.97 15.7799V16.0197C23.97 16.2958 23.7461 16.5201 23.47 16.5201H17.535C17.2588 16.5201 17.035 16.2963 17.035 16.0201C17.035 15.744 17.2588 15.5201 17.535 15.5201H22.96C22.8429 13.9895 21.7077 12.7117 20.1764 12.4322C19.9797 12.3973 19.7804 12.3799 19.5806 12.3801H19.5793C19.3797 12.3799 19.1805 12.3973 18.9839 12.4322C17.9374 12.6248 17.0411 13.2957 16.5613 14.2456C16.4368 14.4921 16.136 14.5909 15.8895 14.4664C15.6431 14.3419 15.5442 14.0412 15.6687 13.7947C16.2897 12.5653 17.45 11.6972 18.8046 11.4484L18.8074 11.4479ZM19.58 11.3801C19.5802 11.3801 19.5804 11.3801 19.5806 11.3801L19.58 11.8801L19.5793 11.3801C19.5795 11.3801 19.5798 11.3801 19.58 11.3801Z" fill="#4195B9"/>
</g>
<defs>
<clipPath id="clip0_121_1033">
<rect width="24" height="24" fill="white" transform="translate(0 0.000244141)"/>
</clipPath>
</defs>
</svg>
