<svg width="24" height="24" viewBox="0 0 24 24" fill="none" xmlns="http://www.w3.org/2000/svg">
<g clip-path="url(#clip0_121_1040)">
<path d="M4.46422 4.16932C5.74853 3.53069 7.29371 3.75069 8.34875 4.72239C8.55188 4.90947 8.56488 5.22578 8.37781 5.4289C8.19073 5.63202 7.87442 5.64503 7.6713 5.45795C6.92118 4.76709 5.82259 4.61068 4.90946 5.06473C3.99633 5.51878 3.45803 6.48915 3.55617 7.5042C3.65432 8.51925 4.36857 9.3685 5.35177 9.63919C6.33498 9.90988 7.38325 9.54588 7.98711 8.7241C8.15062 8.50158 8.46357 8.45374 8.6861 8.61726C8.90862 8.78077 8.95646 9.09372 8.79294 9.31624C7.94362 10.4721 6.46921 10.984 5.08633 10.6033C3.70345 10.2226 2.69886 9.02811 2.56082 7.60044C2.42277 6.17277 3.1799 4.80794 4.46422 4.16932Z" fill="#4195B9"/>
<path d="M15.9854 4.50996C17.1091 3.66852 18.63 3.58951 19.8349 4.30997C21.0398 5.03043 21.6899 6.40753 21.4805 7.7957C21.2711 9.18386 20.2437 10.3079 18.8798 10.6409C17.516 10.9738 16.0862 10.4497 15.2607 9.31421C15.0983 9.09086 15.1477 8.77816 15.3711 8.61578C15.5944 8.45339 15.9071 8.50282 16.0695 8.72617C16.6564 9.53349 17.673 9.90613 18.6427 9.6694C19.6123 9.43267 20.3428 8.6335 20.4917 7.64653C20.6406 6.65957 20.1783 5.68047 19.3217 5.16824C18.465 4.656 17.3837 4.71218 16.5848 5.31043C16.3637 5.47594 16.0504 5.43092 15.8848 5.20988C15.7193 4.98883 15.7643 4.67547 15.9854 4.50996Z" fill="#4195B9"/>
<path d="M12.0801 1.79028C9.45396 1.79028 7.32507 3.91917 7.32507 6.54528C7.32507 9.1714 9.45396 11.3003 12.0801 11.3003C14.7062 11.3003 16.8351 9.1714 16.8351 6.54528C16.8351 3.91917 14.7062 1.79028 12.0801 1.79028ZM12.0801 2.79028C14.1539 2.79028 15.8351 4.47145 15.8351 6.54528C15.8351 8.61911 14.1539 10.3003 12.0801 10.3003C10.0062 10.3003 8.32507 8.61911 8.32507 6.54528C8.32507 4.47145 10.0062 2.79028 12.0801 2.79028Z" fill="#4195B9"/>
<path d="M3.60776 11.5754C5.70676 10.5912 8.18493 10.9043 9.97322 12.3796C10.1862 12.5553 10.2164 12.8705 10.0407 13.0835C9.86499 13.2965 9.54986 13.3267 9.33684 13.151C7.84661 11.9216 5.78146 11.6607 4.0323 12.4808C2.32917 13.2794 1.22236 14.9638 1.15796 16.8333L1.15653 16.8953H2.54802C2.80444 16.8953 3.01577 17.0883 3.04466 17.337L3.04802 17.3953C3.04802 17.6517 2.855 17.863 2.60633 17.8919L2.54802 17.8953H0.655029C0.398611 17.8953 0.187276 17.7023 0.158393 17.4536L0.155029 17.3953V16.9832C0.164561 14.665 1.50877 12.5596 3.60776 11.5754Z" fill="#4195B9"/>
<path d="M20.2023 11.5754C18.1033 10.5912 15.6251 10.9043 13.8368 12.3796C13.6238 12.5553 13.5936 12.8705 13.7693 13.0835C13.9451 13.2965 14.2602 13.3267 14.4732 13.151C15.9634 11.9216 18.0286 11.6607 19.7778 12.4808C21.4809 13.2794 22.5877 14.9638 22.6521 16.8333L22.6535 16.8948L21.6773 16.8953C21.4209 16.8953 21.2095 17.0883 21.1807 17.337L21.1773 17.3953C21.1773 17.6517 21.3703 17.863 21.619 17.8919L21.6773 17.8953H23.155C23.4114 17.8953 23.6228 17.7023 23.6517 17.4536L23.655 17.3953V16.9832C23.6455 14.665 22.3013 12.5596 20.2023 11.5754Z" fill="#4195B9"/>
<path d="M12.4458 12.0508L12.2217 12.0496C10.671 12.0366 9.14159 12.4471 7.79811 13.2479C5.22058 14.7841 3.64399 17.5656 3.6498 20.5663L3.65244 20.8437L3.65994 21C3.66551 21.0827 3.67382 21.1617 3.68553 21.2396C3.72233 21.4843 3.93255 21.6653 4.17997 21.6653H20.255C20.5024 21.6653 20.7126 21.4843 20.7494 21.2396C20.7611 21.1617 20.7694 21.0827 20.775 21L20.7825 20.8437L20.7845 20.7231L20.7851 20.5653C20.7909 17.5656 19.2144 14.7841 16.6368 13.2479C15.3605 12.4872 13.9165 12.0786 12.4458 12.0508ZM12.2133 13.0496H12.2217C13.5901 13.0381 14.9394 13.4003 16.1248 14.1068C18.3991 15.4624 19.7902 17.9166 19.7851 20.5643L19.7845 20.6653H4.64986V20.5653C4.64469 17.9166 6.03579 15.4624 8.31009 14.1068C9.4956 13.4003 10.8449 13.0381 12.2133 13.0496Z" fill="#4195B9"/>
</g>
<defs>
<clipPath id="clip0_121_1040">
<rect width="24" height="24" fill="white" transform="translate(0 0.000244141)"/>
</clipPath>
</defs>
</svg>
