<svg width="24" height="24" viewBox="0 0 24 24" fill="none" xmlns="http://www.w3.org/2000/svg">
<path fill-rule="evenodd" clip-rule="evenodd" d="M12 5C13.933 5 15.5 6.567 15.5 8.5C15.5 10.433 13.933 12 12 12C10.067 12 8.49997 10.433 8.49997 8.5C8.49997 6.567 10.067 5 12 5ZM12 6C10.6193 6 9.49997 7.11929 9.49997 8.5C9.49997 9.88071 10.6193 11 12 11C13.3807 11 14.5 9.88071 14.5 8.5C14.5 7.11929 13.3807 6 12 6ZM12 13.5C8.62871 13.5 5.56347 15.2709 3.85743 18.106L3.67493 18.4093L3.90033 18.6822C5.88269 21.0825 8.82599 22.5 12 22.5C15.1747 22.5 18.1184 21.0818 20.1002 18.6804L20.3255 18.4073L20.1428 18.1041C18.4354 15.2701 15.3704 13.5 12 13.5ZM12.3006 14.5053C14.9978 14.5996 17.4473 15.9596 18.9647 18.1257L19.094 18.317L18.9162 18.5121C17.1396 20.4004 14.6602 21.5 12 21.5L11.6817 21.4947C9.1431 21.4108 6.79014 20.3254 5.08412 18.5134L4.90597 18.318L5.03557 18.127C6.60803 15.8799 9.18424 14.5 12 14.5L12.3006 14.5053Z" fill="#699C69"/>
<path fill-rule="evenodd" clip-rule="evenodd" d="M12 1.5C6.20101 1.5 1.5 6.20101 1.5 12C1.5 17.799 6.20101 22.5 12 22.5C17.799 22.5 22.5 17.799 22.5 12C22.5 6.20101 17.799 1.5 12 1.5ZM12 2.5C17.2467 2.5 21.5 6.75329 21.5 12C21.5 17.2467 17.2467 21.5 12 21.5C6.75329 21.5 2.5 17.2467 2.5 12C2.5 6.75329 6.75329 2.5 12 2.5Z" fill="#4195B9"/>
</svg>
