<svg width="24" height="24" viewBox="0 0 24 24" fill="none" xmlns="http://www.w3.org/2000/svg">
<path fill-rule="evenodd" clip-rule="evenodd" d="M15.2083 8.79158C15.2083 7.01967 13.7719 5.58325 11.9999 5.58325C10.228 5.58325 8.79161 7.01967 8.79161 8.79158C8.79161 10.5635 10.228 11.9999 11.9999 11.9999C13.7719 11.9999 15.2083 10.5635 15.2083 8.79158ZM9.70827 8.79158C9.70827 7.52593 10.7343 6.49992 11.9999 6.49992C13.2656 6.49992 14.2916 7.52593 14.2916 8.79158C14.2916 10.0572 13.2656 11.0833 11.9999 11.0833C10.7343 11.0833 9.70827 10.0572 9.70827 8.79158Z" fill="#699C69"/>
<path d="M4.53595 17.5971C6.09982 14.9982 8.90962 13.3749 11.9999 13.3749C13.2376 13.3749 14.4304 13.6353 15.5162 14.1145C15.2354 14.315 14.9727 14.5392 14.7308 14.7841C13.9567 14.4946 13.1297 14.3263 12.2756 14.2964L11.9999 14.2916C9.41886 14.2916 7.05733 15.5565 5.61591 17.6163L5.49711 17.7914L5.66041 17.9705C7.22427 19.6315 9.38114 20.6265 11.7082 20.7034L11.9999 20.7083C12.4128 20.7083 12.821 20.6794 13.2221 20.6229C13.3071 20.9261 13.4152 21.2195 13.5446 21.5013C13.0392 21.5829 12.523 21.6249 11.9999 21.6249C9.09047 21.6249 6.39244 20.3255 4.57527 18.1253L4.36865 17.8751L4.53595 17.5971Z" fill="#699C69"/>
<path d="M20.8 16.8499L18.2 19.8499L17 18.7499C16.8 18.5499 16.5 18.5499 16.3 18.6999C16.2 18.7999 16.15 18.8999 16.1 19.0499C16.1 19.1999 16.15 19.2999 16.25 19.3999L17.85 20.8999C17.95 20.9999 18.1 21.0499 18.25 21.0499C18.4 21.0499 18.55 20.9999 18.65 20.8499L21.6 17.3999C21.7 17.2999 21.75 17.1499 21.7 17.0499C21.7 16.8999 21.6 16.7999 21.5 16.6999C21.3 16.6499 20.95 16.6499 20.8 16.8499Z" fill="#699C69"/>
<path d="M19 14C16.25 14 14 16.25 14 19C14 21.75 16.25 24 19 24C21.75 24 24 21.75 24 19C24 16.25 21.75 14 19 14ZM23 19C23 21.2 21.2 23 19 23C16.8 23 15 21.2 15 19C15 16.8 16.8 15 19 15C21.2 15 23 16.8 23 19Z" fill="#699C69"/>
<path d="M2.375 12C2.375 6.68426 6.68426 2.375 12 2.375C17.3157 2.375 21.625 6.68426 21.625 12C21.625 12.5259 21.5828 13.0419 21.5017 13.5448C21.2199 13.4154 20.9264 13.3072 20.6232 13.2222C20.6793 12.8228 20.7083 12.4148 20.7083 12C20.7083 7.19052 16.8095 3.29167 12 3.29167C7.19052 3.29167 3.29167 7.19052 3.29167 12C3.29167 16.8095 7.19052 20.7083 12 20.7083C12.4148 20.7083 12.8228 20.6793 13.2222 20.6232C13.3072 20.9264 13.4154 21.2199 13.5448 21.5017C13.0419 21.5828 12.5259 21.625 12 21.625C6.68426 21.625 2.375 17.3157 2.375 12Z" fill="#4195B9"/>
</svg>
