<svg width="24" height="24" viewBox="0 0 24 24" fill="none" xmlns="http://www.w3.org/2000/svg">
<path fill-rule="evenodd" clip-rule="evenodd" d="M15.2083 8.79158C15.2083 7.01967 13.7719 5.58325 11.9999 5.58325C10.228 5.58325 8.79161 7.01967 8.79161 8.79158C8.79161 10.5635 10.228 11.9999 11.9999 11.9999C13.7719 11.9999 15.2083 10.5635 15.2083 8.79158ZM9.70827 8.79158C9.70827 7.52593 10.7343 6.49992 11.9999 6.49992C13.2656 6.49992 14.2916 7.52593 14.2916 8.79158C14.2916 10.0572 13.2656 11.0833 11.9999 11.0833C10.7343 11.0833 9.70827 10.0572 9.70827 8.79158ZM4.53595 17.5971C6.09982 14.9982 8.90962 13.3749 11.9999 13.3749C14.248 13.3749 16.3478 14.234 17.9279 15.7028C17.8932 15.8217 17.8751 15.9463 17.8751 16.0741L17.875 16.9641C16.4773 15.3598 14.4655 14.373 12.2756 14.2964L11.9999 14.2916C9.41886 14.2916 7.05733 15.5565 5.61591 17.6163L5.49711 17.7914L5.66041 17.9705C7.22427 19.6315 9.38114 20.6265 11.7082 20.7034L11.9999 20.7083C13.0008 20.7083 13.9737 20.5385 14.8855 20.2186C14.9422 20.3155 15.0084 20.4044 15.0822 20.4836C15.2603 20.6745 15.482 20.8103 15.7268 20.8766C14.5674 21.3635 13.305 21.6249 11.9999 21.6249C9.09047 21.6249 6.39244 20.3255 4.57527 18.1253L4.36865 17.8751L4.53595 17.5971Z" fill="#699C69"/>
<path fill-rule="evenodd" clip-rule="evenodd" d="M2.375 12C2.375 6.68426 6.68426 2.375 12 2.375C17.3157 2.375 21.625 6.68426 21.625 12C21.625 13.3217 21.3586 14.5813 20.8765 15.7278C20.7859 15.393 20.5662 15.0909 20.2164 14.8926C20.535 13.9876 20.7083 13.014 20.7083 12C20.7083 7.19052 16.8095 3.29167 12 3.29167C7.19052 3.29167 3.29167 7.19052 3.29167 12C3.29167 16.8095 7.19052 20.7083 12 20.7083C13.0114 20.7083 13.9826 20.5359 14.8857 20.2188C14.9423 20.3156 15.0084 20.4045 15.0822 20.4836C15.2604 20.6746 15.4823 20.8104 15.7273 20.8767C14.5809 21.3587 13.3215 21.625 12 21.625C6.68426 21.625 2.375 17.3157 2.375 12Z" fill="#4195B9"/>
<path fill-rule="evenodd" clip-rule="evenodd" d="M19.3519 15.3462C19.5974 15.3462 19.7964 15.5452 19.7964 15.7906L19.7961 18.9012L22.9075 18.9017C23.1284 18.9017 23.3117 19.0629 23.3461 19.2741L23.3519 19.3462C23.3519 19.5917 23.1529 19.7906 22.9075 19.7906L19.7961 19.7904L19.7964 22.9017C19.7964 23.1227 19.6352 23.3059 19.424 23.3404L19.3519 23.3462C19.1065 23.3462 18.9075 23.1472 18.9075 22.9017L18.907 19.7904L15.7964 19.7906C15.5755 19.7906 15.3922 19.6295 15.3577 19.4183L15.3519 19.3462C15.3519 19.1007 15.5509 18.9017 15.7964 18.9017L18.907 18.9012L18.9075 15.7906C18.9075 15.5697 19.0687 15.3865 19.2798 15.352L19.3519 15.3462Z" fill="#699C69"/>
</svg>
