<svg width="24" height="24" viewBox="0 0 24 24" fill="none" xmlns="http://www.w3.org/2000/svg">
<path fill-rule="evenodd" clip-rule="evenodd" d="M8.06385 8.11807C10.0358 8.53889 9.79839 10.4507 9.68419 11.3695C9.61783 11.905 9.42438 12.3474 9.21404 12.6869H12.4504C13.1946 12.6869 13.8 13.2961 13.8 14.045C13.8 14.395 13.6277 14.5596 13.4107 14.8006C13.6277 15.0417 13.8 15.5163 13.8 15.8664C13.8 16.204 13.6778 16.3979 13.4743 16.6358C13.6772 16.8618 13.8 17.2764 13.8 17.6043C13.8 18.286 13.2657 18.8445 12.5963 18.8778L12.5332 18.8793H12.2387C12.291 19.0241 12.3195 19.18 12.3195 19.3426C12.3195 20.0697 11.7483 20.6653 11.0339 20.6987L10.9705 20.7002H7.74331C7.0495 20.7002 6.36724 20.5799 5.71534 20.3429L4.04128 19.7343C3.78829 20.2867 3.2585 20.6739 2.63992 20.6989L2.57615 20.7002H0.7285C0.491832 20.7002 0.299976 20.4994 0.299976 20.2517V12.4487C0.299976 12.201 0.491832 12.0002 0.7285 12.0002H2.57615C3.17071 12.0002 3.69059 12.3346 3.97352 12.8336L3.97399 12.8347C6.27347 12.463 6.83872 9.91375 7.08001 8.8251L7.09927 8.73894C7.19644 8.30351 7.62985 8.0252 8.06385 8.11807ZM7.69316 8.67555C7.05679 11.4548 5.89224 13.066 4.1995 13.5092L4.19978 13.6731C4.19991 13.682 4.19998 13.691 4.19998 13.6999V19.0004L4.19968 19.0187L5.99523 19.8786C6.541 20.0818 7.11227 20.1847 7.69316 20.1847H10.8682C11.118 20.1847 11.6139 19.8555 11.6139 19.5985C11.6139 19.3412 11.5201 18.952 11.2703 18.952H10.9171C10.6756 18.952 10.1882 18.8881 10.1882 18.6395C10.1882 18.3908 10.6756 18.3516 10.9171 18.3516H12.6973C12.9024 18.3516 13.1995 18.1176 13.1995 17.664C13.1995 17.2103 12.9024 16.9856 12.6973 16.9856H10.6254C10.384 16.9856 10.1882 16.9269 10.1882 16.6782C10.1882 16.4294 10.384 16.3851 10.6254 16.3851H12.6163C12.8661 16.3851 13.1995 16.194 13.1995 15.7812C13.1995 15.3683 12.8661 15.1524 12.6163 15.1524H10.6254C10.384 15.1524 10.1882 15.0944 10.1882 14.8457C10.1882 14.5971 10.384 14.552 10.6254 14.552H12.3242C12.5742 14.552 13.1097 14.4938 13.1097 13.9028C13.1097 13.3511 12.6432 13.32 12.3778 13.3183L8.6347 13.3182C8.44787 13.3182 8.27579 13.1806 8.21531 12.9985C8.15468 12.8165 8.21312 12.9149 8.36075 12.797C8.3657 12.7928 9.04948 12.2234 9.16592 11.2644C9.25049 10.5673 9.29936 9.80015 9.07837 9.37081C8.83614 8.90021 8.18596 8.79359 7.7489 8.68919L7.69316 8.67555ZM2.65287 12.6002H0.899976V20.1002H2.65287C3.17597 20.1002 3.59998 19.7099 3.59998 19.2284V13.472C3.59998 12.9905 3.17597 12.6002 2.65287 12.6002Z" fill="#4195B9"/>
<path fill-rule="evenodd" clip-rule="evenodd" d="M7.09927 8.73894L7.08001 8.8251C6.83872 9.91375 6.27347 12.463 3.97399 12.8347L3.97352 12.8336C3.69059 12.3346 3.17071 12.0002 2.57615 12.0002H0.7285C0.491832 12.0002 0.299976 12.201 0.299976 12.4487V20.2517C0.299976 20.4994 0.491832 20.7002 0.7285 20.7002H2.57615L2.63992 20.6989C3.2585 20.6739 3.78829 20.2867 4.04128 19.7343L5.71534 20.3429C6.36724 20.5799 7.0495 20.7002 7.74331 20.7002H10.9705L11.0339 20.6987C11.7483 20.6653 12.3195 20.0697 12.3195 19.3426C12.3195 19.2526 12.3107 19.1645 12.2941 19.0793C12.2807 19.0107 12.2621 18.9439 12.2387 18.8793H12.5332L12.5963 18.8778C13.2657 18.8445 13.8 18.286 13.8 17.6043C13.8 17.2764 13.6772 16.8618 13.4743 16.6358C13.6778 16.3979 13.8 16.204 13.8 15.8664C13.8 15.5163 13.6277 15.0417 13.4107 14.8006L13.454 14.7528C13.6502 14.5365 13.8 14.3714 13.8 14.045C13.8 13.2961 13.1946 12.6869 12.4504 12.6869H9.21404C9.25316 12.6237 9.29169 12.5571 9.32893 12.4869C9.49194 12.1797 9.63017 11.8054 9.68419 11.3695C9.79839 10.4507 10.0358 8.53889 8.06385 8.11807C7.62985 8.0252 7.19644 8.30351 7.09927 8.73894ZM6.1243 11.0011C5.70234 11.7549 5.06733 12.4083 4.07242 12.6134C3.74445 12.1243 3.19844 11.8002 2.57615 11.8002H0.7285C0.372877 11.8002 0.0999756 12.0992 0.0999756 12.4487V20.2517C0.0999756 20.6011 0.372876 20.9002 0.7285 20.9002L2.57615 20.9002L2.64395 20.8989L2.648 20.8987C3.28372 20.8731 3.83162 20.5096 4.13788 19.9822L5.647 20.5308C6.32078 20.7758 7.02617 20.9002 7.74331 20.9002L10.9705 20.9003L11.0386 20.8987L11.0433 20.8985C11.8649 20.86 12.5195 20.176 12.5195 19.3426C12.5195 19.253 12.5119 19.165 12.4974 19.0793L12.5332 19.0794L12.6013 19.0778L12.6063 19.0775C13.3826 19.039 14 18.3921 14 17.6043C14 17.4174 13.9654 17.211 13.9035 17.0201C13.8606 16.8879 13.8024 16.7562 13.7282 16.6409C13.7924 16.557 13.8498 16.4696 13.8948 16.3728C13.9642 16.2236 14 16.0616 14 15.8664C14 15.6622 13.9505 15.4324 13.8746 15.2241C13.8216 15.0787 13.7525 14.9349 13.6706 14.8116C13.8421 14.6191 14 14.406 14 14.045C14 13.1869 13.3062 12.4869 12.4504 12.4869H9.55359C9.70506 12.1799 9.8306 11.8142 9.88267 11.3941L9.88402 11.3833C9.9406 10.9282 10.0325 10.1886 9.84953 9.5053C9.75615 9.15664 9.58976 8.81577 9.3063 8.53287C9.02212 8.24924 8.63092 8.03457 8.1056 7.92247C7.56379 7.80659 7.02503 8.15334 6.90407 8.69538L6.88475 8.78182C6.76372 9.32786 6.56704 10.2101 6.1243 11.0011ZM7.69316 8.67555C7.67815 8.74109 7.66285 8.80598 7.64726 8.87022C7.00157 11.5301 5.85232 13.0764 4.1995 13.5092L4.19978 13.6731L4.19998 13.6999V19.0004L4.19968 19.0187L5.99523 19.8786C6.541 20.0818 7.11227 20.1847 7.69316 20.1847H10.8682C11.118 20.1847 11.6139 19.8555 11.6139 19.5985C11.6139 19.3412 11.5201 18.952 11.2703 18.952H10.9171C10.6756 18.952 10.1882 18.8881 10.1882 18.6395C10.1882 18.3908 10.6756 18.3516 10.9171 18.3516H12.6973C12.9024 18.3516 13.1995 18.1176 13.1995 17.664C13.1995 17.2103 12.9024 16.9856 12.6973 16.9856H10.6254C10.384 16.9856 10.1882 16.9269 10.1882 16.6782C10.1882 16.4294 10.384 16.3851 10.6254 16.3851H12.6163C12.8661 16.3851 13.1995 16.194 13.1995 15.7812C13.1995 15.3683 12.8661 15.1524 12.6163 15.1524H10.6254C10.384 15.1524 10.1882 15.0944 10.1882 14.8457C10.1882 14.5971 10.384 14.552 10.6254 14.552H12.3242C12.5742 14.552 13.1097 14.4938 13.1097 13.9028C13.1097 13.3511 12.6432 13.32 12.3778 13.3183L8.6347 13.3182C8.44787 13.3182 8.27579 13.1806 8.21531 12.9985C8.17701 12.8835 8.18623 12.8805 8.23542 12.8641C8.2641 12.8545 8.30637 12.8404 8.36075 12.797C8.37423 12.7857 9.05022 12.2173 9.16592 11.2644C9.25049 10.5673 9.29936 9.80015 9.07837 9.37081C8.86071 8.94795 8.31366 8.81896 7.88783 8.7214L7.87508 8.71848C7.83153 8.70851 7.78931 8.69884 7.7489 8.68919L7.69316 8.67555ZM2.65287 12.6002H0.899976V20.1002H2.65287C3.17597 20.1002 3.59998 19.7099 3.59998 19.2284V13.472C3.59998 12.9905 3.17597 12.6002 2.65287 12.6002ZM2.65287 19.9002H1.09998V12.8002H2.65287C3.08145 12.8002 3.39998 13.1162 3.39998 13.472V19.2284C3.39998 19.5842 3.08145 19.9002 2.65287 19.9002ZM4.39978 13.6728L4.39998 13.6999V18.8929L6.07337 19.6942C6.59432 19.8871 7.1391 19.9847 7.69316 19.9847H10.8682C10.8925 19.9847 10.9418 19.9751 11.0115 19.9453C11.078 19.9169 11.1501 19.8757 11.2161 19.827C11.2826 19.7779 11.337 19.7258 11.3727 19.6783C11.3903 19.6548 11.4013 19.6353 11.4076 19.6203C11.4106 19.613 11.4123 19.6075 11.4131 19.6038C11.4139 19.6001 11.4139 19.5985 11.4139 19.5985C11.4139 19.4888 11.3932 19.3551 11.3515 19.2566C11.3309 19.2077 11.3098 19.1786 11.2938 19.1638C11.2812 19.1522 11.2753 19.152 11.2703 19.152H10.9171C10.7841 19.152 10.5804 19.135 10.403 19.08C10.3149 19.0528 10.2186 19.0118 10.1406 18.9473C10.0586 18.8794 9.98824 18.7766 9.98824 18.6395C9.98824 18.501 10.06 18.3984 10.145 18.332C10.2247 18.2697 10.3225 18.2327 10.4101 18.2091C10.5873 18.1615 10.79 18.1516 10.9171 18.1516H12.6973C12.7661 18.1516 12.9995 18.0348 12.9995 17.664C12.9995 17.2971 12.7697 17.1856 12.6973 17.1856H10.6254C10.4965 17.1856 10.3427 17.1715 10.2162 17.0983C10.1489 17.0594 10.0889 17.0035 10.0471 16.9271C10.0058 16.8515 9.98824 16.7668 9.98824 16.6782C9.98824 16.5898 10.0057 16.5047 10.0485 16.429C10.0919 16.3522 10.154 16.2982 10.2222 16.2619C10.3485 16.1946 10.5019 16.1851 10.6254 16.1851H12.6163C12.7833 16.1851 12.9995 16.0578 12.9995 15.7812C12.9995 15.4939 12.7713 15.3524 12.6163 15.3524H10.6254C10.4968 15.3524 10.343 15.3385 10.2164 15.2656C10.1491 15.2268 10.089 15.1711 10.0472 15.0946C10.0058 15.019 9.98824 14.9343 9.98824 14.8457C9.98824 14.7573 10.0057 14.6722 10.0484 14.5966C10.0917 14.5199 10.1538 14.4658 10.2219 14.4293C10.3482 14.3617 10.5016 14.352 10.6254 14.352H12.3242C12.4401 14.352 12.5957 14.3373 12.7163 14.2727C12.7733 14.2422 12.8191 14.2023 12.8515 14.1493C12.8837 14.0966 12.9097 14.0194 12.9097 13.9028C12.9097 13.7934 12.8868 13.7249 12.8608 13.6812C12.8351 13.6379 12.799 13.6064 12.7519 13.5822C12.6488 13.5293 12.5099 13.5192 12.3771 13.5183L8.6347 13.5182C8.3511 13.5182 8.10972 13.3149 8.02555 13.0617V12.7968L8.28122 12.6487L8.96738 11.2404C9.00933 10.8945 9.04139 10.5391 9.03675 10.2201C9.03204 9.89603 8.98938 9.63493 8.90054 9.46234C8.81131 9.28899 8.64025 9.16909 8.41271 9.07849L7.88783 8.92212L7.7489 9.5053L7.2337 11.0011L6.01465 12.8002L4.39978 13.6728Z" fill="#4195B9"/>
<path fill-rule="evenodd" clip-rule="evenodd" d="M16.2567 3.30034C16.9505 3.30034 17.6327 3.42064 18.2846 3.65766L19.9587 4.26627C20.2203 3.6949 20.778 3.30034 21.4238 3.30034H23.2715C23.5081 3.30034 23.7 3.50115 23.7 3.74886V11.5518C23.7 11.7995 23.5081 12.0003 23.2715 12.0003H21.4238C20.8473 12.0003 20.3409 11.6858 20.0528 11.2118L20.026 11.1658C17.7265 11.5376 17.1613 14.0868 16.92 15.1754L16.9007 15.2616C16.8035 15.697 16.3701 15.9753 15.9361 15.8825C13.9641 15.4617 14.2016 13.5498 14.3158 12.631C14.3821 12.0955 14.5756 11.6531 14.7859 11.3137H11.5496C10.8054 11.3137 10.2 10.7044 10.2 9.95551C10.2 9.60549 10.3722 9.44095 10.5893 9.19991C10.3722 8.95887 10.2 8.4842 10.2 8.13419C10.2 7.79655 10.3221 7.60267 10.5257 7.36476C10.3227 7.13877 10.2 6.72415 10.2 6.3962C10.2 5.69319 10.7682 5.12121 11.4668 5.12121H11.7612C11.7089 4.97647 11.6805 4.82054 11.6805 4.65791C11.6805 3.90944 12.2857 3.30034 13.0295 3.30034H16.2567ZM16.3068 3.81584H13.1317C12.882 3.81584 12.3861 4.145 12.3861 4.40208C12.3861 4.6593 12.4799 5.04854 12.7296 5.04854H13.0829C13.3244 5.04854 13.8117 5.11239 13.8117 5.36106C13.8117 5.60974 13.3244 5.64899 13.0829 5.64899H11.3026C11.0976 5.64899 10.8005 5.88298 10.8005 6.33658C10.8005 6.79019 11.0976 7.01496 11.3026 7.01496H13.3745C13.616 7.01496 13.8117 7.07366 13.8117 7.32233C13.8117 7.57115 13.616 7.6154 13.3745 7.6154H11.3837C11.1339 7.6154 10.8005 7.80657 10.8005 8.21939C10.8005 8.63221 11.1339 8.84811 11.3837 8.84811H13.3745C13.616 8.84811 13.8117 8.90614 13.8117 9.15481C13.8117 9.40348 13.616 9.44855 13.3745 9.44855H11.6757C11.4258 9.44855 10.8903 9.5067 10.8903 10.0978C10.8903 10.6494 11.3568 10.6805 11.6222 10.6822L15.3653 10.6823C15.5521 10.6823 15.7242 10.82 15.7847 11.002C15.8453 11.184 15.7869 11.0856 15.6392 11.2036C15.6343 11.2078 14.9505 11.7771 14.8341 12.7361C14.7495 13.4332 14.7006 14.2004 14.9216 14.6297C15.1744 15.1208 15.8713 15.2155 16.3068 15.325C16.9432 12.5458 18.1077 10.9345 19.8005 10.4913L19.8001 10.3175C19.8 10.3119 19.8 10.3062 19.8 10.3006V5.00009L19.8005 4.98161L18.0047 4.12199C17.459 3.91879 16.8877 3.81584 16.3068 3.81584ZM23.1 3.90034H21.3471C20.824 3.90034 20.4 4.29061 20.4 4.7721V10.5286C20.4 11.0101 20.824 11.4003 21.3471 11.4003H23.1V3.90034Z" fill="#699C69"/>
<path fill-rule="evenodd" clip-rule="evenodd" d="M21.4238 12.2003C20.8016 12.2003 20.2555 11.8762 19.9275 11.3872C18.9326 11.5923 18.2976 12.2456 17.8757 12.9995C17.4329 13.7904 17.2362 14.673 17.1151 15.2191L17.0959 15.3052C16.9749 15.8472 16.4361 16.194 15.8943 16.078C15.369 15.9659 14.9778 15.7513 14.6937 15.4677C14.4102 15.1848 14.2438 14.8439 14.1504 14.4952C13.9674 13.8119 14.0594 13.0723 14.116 12.6173L14.1173 12.6063C14.1694 12.1863 14.2949 11.8206 14.4464 11.5137H11.5496C10.6937 11.5137 10 10.8137 10 9.95551C10 9.5945 10.1579 9.38141 10.3294 9.1889C10.2475 9.06566 10.1783 8.92181 10.1253 8.77641C10.0494 8.56815 10 8.33839 10 8.13419C10 7.93896 10.0358 7.77694 10.1051 7.62777C10.1501 7.53098 10.2075 7.4435 10.2718 7.35964C10.1976 7.24433 10.1393 7.11263 10.0965 6.98039C10.0346 6.78956 10 6.58311 10 6.3962C10 5.58396 10.6565 4.92121 11.4668 4.92121H11.5026C11.4881 4.83553 11.4805 4.74755 11.4805 4.65791C11.4805 3.80018 12.1741 3.10034 13.0295 3.10034H16.2567C16.9738 3.10034 17.6792 3.22472 18.353 3.4697L19.8621 4.01835C20.1799 3.47108 20.758 3.10034 21.4238 3.10034H23.2715C23.6271 3.10034 23.9 3.39939 23.9 3.74886V11.5518C23.9 11.9013 23.6271 12.2003 23.2715 12.2003H21.4238ZM16.92 15.1754L16.9007 15.2616C16.8035 15.697 16.3701 15.9753 15.9361 15.8825C13.9641 15.4617 14.2016 13.5498 14.3158 12.631C14.3698 12.1951 14.508 11.8209 14.671 11.5137C14.7083 11.4435 14.7468 11.3768 14.7859 11.3137H11.5496C10.8054 11.3137 10.2 10.7044 10.2 9.95551C10.2 9.62912 10.3498 9.46401 10.546 9.24776L10.5893 9.19991C10.3722 8.95887 10.2 8.4842 10.2 8.13419C10.2 7.79655 10.3221 7.60267 10.5257 7.36476C10.3227 7.13877 10.2 6.72415 10.2 6.3962C10.2 5.69319 10.7682 5.12121 11.4668 5.12121H11.7612C11.7379 5.05664 11.7193 4.98984 11.7059 4.92121C11.6892 4.83601 11.6805 4.74799 11.6805 4.65791C11.6805 3.90944 12.2857 3.30034 13.0295 3.30034H16.2567C16.9505 3.30034 17.6327 3.42064 18.2846 3.65766L19.9587 4.26627C20.2203 3.6949 20.778 3.30034 21.4238 3.30034H23.2715C23.5081 3.30034 23.7 3.50115 23.7 3.74886V11.5518C23.7 11.7995 23.5081 12.0003 23.2715 12.0003H21.4238C20.8473 12.0003 20.3409 11.6858 20.0528 11.2118L20.026 11.1658C17.7265 11.5376 17.1613 14.0868 16.92 15.1754ZM15.7646 11.1365C15.7359 11.146 15.6936 11.1601 15.6392 11.2036C15.6257 11.2149 14.9497 11.7833 14.8341 12.7361C14.7495 13.4332 14.7006 14.2004 14.9216 14.6297C15.1393 15.0526 15.6863 15.1816 16.1121 15.2791L16.1249 15.2821L16.1277 15.2827C16.1907 15.2971 16.2509 15.3109 16.3068 15.325C16.3218 15.2594 16.3371 15.1945 16.3527 15.1303C16.9984 12.4704 18.1477 10.9241 19.8005 10.4913L19.8001 10.3175L19.8 10.3006V5.00009L19.8005 4.98161L18.0047 4.12199C17.459 3.91879 16.8877 3.81584 16.3068 3.81584H13.1317C12.882 3.81584 12.3861 4.145 12.3861 4.40208C12.3861 4.6593 12.4799 5.04854 12.7296 5.04854H13.0829C13.3244 5.04854 13.8117 5.11239 13.8117 5.36106C13.8117 5.60974 13.3244 5.64899 13.0829 5.64899H11.3026C11.0976 5.64899 10.8005 5.88298 10.8005 6.33658C10.8005 6.79019 11.0976 7.01496 11.3026 7.01496H13.3745C13.616 7.01496 13.8117 7.07366 13.8117 7.32233C13.8117 7.57115 13.616 7.6154 13.3745 7.6154H11.3837C11.1339 7.6154 10.8005 7.80657 10.8005 8.21939C10.8005 8.63221 11.1339 8.84811 11.3837 8.84811H13.3745C13.616 8.84811 13.8117 8.90614 13.8117 9.15481C13.8117 9.40348 13.616 9.44855 13.3745 9.44855H11.6757C11.4258 9.44855 10.8903 9.5067 10.8903 10.0978C10.8903 10.6494 11.3568 10.6805 11.6222 10.6822L15.3653 10.6823C15.5521 10.6823 15.7242 10.82 15.7847 11.002C15.823 11.117 15.8138 11.1201 15.7646 11.1365ZM21.3471 4.10034H22.9V11.2003H21.3471C20.9185 11.2003 20.6 10.8843 20.6 10.5286V4.7721C20.6 4.41635 20.9185 4.10034 21.3471 4.10034ZM20.4 4.7721C20.4 4.29061 20.824 3.90034 21.3471 3.90034H23.1V11.4003H21.3471C20.824 11.4003 20.4 11.0101 20.4 10.5286V4.7721ZM17.9266 4.30631C17.4057 4.11347 16.8609 4.01584 16.3068 4.01584H13.1317C13.1075 4.01584 13.0582 4.0254 12.9884 4.0552C12.922 4.08361 12.8499 4.12487 12.7839 4.17353C12.7173 4.22262 12.663 4.27473 12.6273 4.32223C12.6096 4.34569 12.5986 4.36527 12.5924 4.38022C12.5893 4.3875 12.5877 4.39299 12.5869 4.39673C12.5861 4.40042 12.5861 4.40208 12.5861 4.40208C12.5861 4.51174 12.6068 4.6454 12.6484 4.74396C12.6691 4.79285 12.6902 4.82195 12.7062 4.83669C12.7188 4.84835 12.7246 4.84854 12.7296 4.84854H13.0829C13.2158 4.84854 13.4196 4.86558 13.597 4.92049C13.6851 4.94774 13.7814 4.98873 13.8594 5.05328C13.9413 5.12116 14.0117 5.2239 14.0117 5.36106C14.0117 5.49958 13.9399 5.60215 13.855 5.66855C13.7753 5.73082 13.6775 5.76782 13.5898 5.79141C13.4127 5.83907 13.21 5.84899 13.0829 5.84899H11.3026C11.2338 5.84899 11.0005 5.96575 11.0005 6.33658C11.0005 6.70339 11.2303 6.81496 11.3026 6.81496H13.3745C13.5034 6.81496 13.6573 6.82907 13.7838 6.90226C13.8511 6.94117 13.9111 6.99701 13.9529 7.07347C13.9942 7.14905 14.0117 7.23379 14.0117 7.32233C14.0117 7.41072 13.9942 7.49586 13.9515 7.5715C13.9081 7.6483 13.8459 7.70233 13.7778 7.73867C13.6514 7.80599 13.498 7.8154 13.3745 7.8154H11.3837C11.2167 7.8154 11.0005 7.94277 11.0005 8.21939C11.0005 8.50666 11.2286 8.64811 11.3837 8.64811H13.3745C13.5032 8.64811 13.657 8.66199 13.7835 8.73492C13.8509 8.77371 13.9109 8.82947 13.9528 8.90594C13.9942 8.98152 14.0117 9.06628 14.0117 9.15481C14.0117 9.24319 13.9942 9.32829 13.9516 9.40392C13.9082 9.48068 13.8462 9.53479 13.7781 9.57126C13.6518 9.63888 13.4983 9.64855 13.3745 9.64855H11.6757C11.5599 9.64855 11.4043 9.66326 11.2837 9.72782C11.2266 9.75837 11.1809 9.79825 11.1485 9.85124C11.1163 9.90393 11.0903 9.98116 11.0903 10.0978C11.0903 10.2071 11.1132 10.2756 11.1392 10.3194C11.1649 10.3626 11.201 10.3942 11.2481 10.4183C11.3511 10.4713 11.49 10.4813 11.6229 10.4822L15.3653 10.4823C15.6489 10.4823 15.8903 10.6857 15.9744 10.9388L15.9961 11.0823L15.9744 11.1365L15.8164 11.3362L15.6392 11.5137L15.2227 12.0315L15.0391 12.7361L14.9607 13.6076L15.1459 14.5849L16.1581 15.0843C16.7915 12.4746 17.9222 10.8535 19.6001 10.3403L19.6001 10.3193L19.6 10.3006V5.20337L17.9266 4.30631Z" fill="#699C69"/>
</svg>
