<svg width="24" height="24" viewBox="0 0 24 24" fill="none" xmlns="http://www.w3.org/2000/svg">
<path fill-rule="evenodd" clip-rule="evenodd" d="M6.57728 6.10638C6.57728 3.66835 8.5534 1.69214 10.9915 1.69214C13.4295 1.69214 15.4058 3.66844 15.4058 6.10638C15.4058 8.54414 13.4294 10.5206 10.9915 10.5206C8.55348 10.5206 6.57728 8.54422 6.57728 6.10638ZM7.99152 6.10638C7.99152 7.76319 9.33457 9.10638 10.9915 9.10638C12.6483 9.10638 13.9915 7.76308 13.9915 6.10638C13.9915 4.4495 12.6484 3.10638 10.9915 3.10638C9.33447 3.10638 7.99152 4.44939 7.99152 6.10638ZM10.7 12.25C11.8867 12.25 13.0454 12.4427 14.1341 12.8144C14.5261 12.9482 14.7353 13.3745 14.6015 13.7665C14.4676 14.1585 14.0414 14.3678 13.6494 14.2339C12.7166 13.9155 11.7217 13.75 10.7 13.75C6.39432 13.75 2.8829 16.6838 2.48709 20.3995L13.25 20.4C13.6642 20.4 14 20.7358 14 21.15C14 21.5642 13.6642 21.9 13.25 21.9H1.74995C1.5299 21.9 1.33198 21.8053 1.19479 21.6543C1.04472 21.518 0.949951 21.3201 0.949951 21.1C0.949951 16.1937 5.33176 12.25 10.7 12.25Z" fill="#4195B9"/>
<path d="M18.4773 13.5869C18.7218 13.3379 19.1198 13.3379 19.3644 13.5869L22.768 17.0536C23.0106 17.3006 23.0106 17.6997 22.768 17.9467L19.3644 21.4133C19.1198 21.6624 18.7218 21.6624 18.4773 21.4133C18.2347 21.1663 18.2347 20.7673 18.4773 20.5203L20.6989 18.2561L13.4924 18.257C13.1412 18.257 12.852 17.9931 12.8062 17.6518L12.7999 17.557C12.7999 17.171 13.1092 16.857 13.4924 16.857L20.8089 16.8561L18.4773 14.48C18.2856 14.2848 18.2454 13.9948 18.3566 13.7598L18.4054 13.6745L18.4773 13.5869Z" fill="#699C69"/>
</svg>
