<svg width="24" height="24" viewBox="0 0 24 24" fill="none" xmlns="http://www.w3.org/2000/svg">
<g clip-path="url(#clip0_121_1034)">
<path d="M20.5001 4.35015C20.1001 4.05015 19.6501 3.90015 19.1001 3.90015C18.6001 3.95015 18.1501 4.15015 17.8001 4.50015L16.1501 6.30015H9.65005C8.95005 6.30015 8.30005 6.50015 7.70005 6.85015L4.65005 8.75015C4.10005 9.10015 3.75005 9.70015 3.75005 10.3001V12.3501C3.75005 13.3501 4.60005 14.1501 5.65005 14.1501C6.70005 14.1501 7.55005 13.3501 7.55005 12.3501V11.3501L8.20005 10.9501V14.8001L6.90005 16.6501L4.75005 16.4501C4.25005 16.4001 3.75005 16.5501 3.35005 16.8501C2.95005 17.1501 2.70005 17.6001 2.65005 18.1001C2.55005 19.1001 3.30005 20.0001 4.35005 20.1001L7.60005 20.4001C7.65005 20.4001 7.70005 20.4001 7.80005 20.4001C8.45005 20.4001 9.05005 20.1001 9.40005 19.5501L10.9501 17.3501L13.3501 19.1501L12.9501 21.6501C12.9001 22.1501 13.0001 22.6001 13.3001 23.0001C13.6001 23.4001 14.0501 23.6501 14.5501 23.7001C14.6501 23.7001 14.7501 23.7001 14.8001 23.7001C15.7501 23.7001 16.5501 23.0501 16.7001 22.1501L17.2501 18.6501C17.3501 18.0001 17.0501 17.3501 16.5501 16.9001L14.0501 15.0001V9.95015H17.0501C17.6001 9.95015 18.1501 9.70015 18.5001 9.30015L19.8001 7.90015L20.7501 6.85015C21.4001 6.15015 21.3001 5.00015 20.5001 4.35015ZM8.55005 19.0001C8.40005 19.2501 8.10005 19.3501 7.85005 19.3501L4.60005 19.0501C4.20005 19.0001 3.90005 18.6501 3.95005 18.3001C3.95005 18.1001 4.05005 17.9501 4.20005 17.8001C4.35005 17.7001 4.55005 17.6001 4.75005 17.6501L7.25005 17.9001C7.45005 17.9001 7.65005 17.8501 7.80005 17.6501L9.05005 15.8501L10.2001 16.7501L8.55005 19.0001ZM19.8501 6.15015L18.9001 7.20015L17.6001 8.60015C17.4501 8.75015 17.2501 8.85015 17.0001 8.85015H13.4001C13.1001 8.85015 12.8001 9.10015 12.8001 9.40015V15.3001C12.8001 15.4501 12.9001 15.6501 13.0001 15.7501L15.8001 17.9001C16.0001 18.0501 16.1501 18.3501 16.1001 18.6001L15.5501 22.1001C15.5001 22.5001 15.1001 22.7501 14.7001 22.7001C14.5001 22.6501 14.3501 22.5501 14.2001 22.4001C14.0501 22.2501 14.0501 22.0501 14.0501 21.8501L14.5001 19.0001C14.5501 18.8001 14.4501 18.6001 14.3001 18.5001L9.30005 14.7001V9.90015C9.30005 9.70015 9.20005 9.50015 9.00005 9.40015C8.80005 9.30015 8.60005 9.30015 8.40005 9.45015L6.60005 10.6001C6.45005 10.7001 6.35005 10.9001 6.35005 11.0501V12.3501C6.35005 12.7501 6.00005 13.0501 5.60005 13.0501C5.20005 13.0501 5.00005 12.7501 5.00005 12.4001V10.3501C5.00005 10.1001 5.15005 9.85015 5.35005 9.70015L8.40005 7.80015C8.80005 7.55015 9.25005 7.45015 9.70005 7.45015H16.4501C16.6001 7.45015 16.7501 7.40015 16.9001 7.25015L18.7501 5.25015C18.9001 5.10015 19.0501 5.00015 19.2501 5.00015C19.4501 5.00015 19.6501 5.05015 19.8001 5.15015C20.1 5.45015 20.1001 5.90015 19.8501 6.15015Z" fill="#4195B9"/>
<path d="M11.25 5.85024C12.9 5.85024 14.2 4.60024 14.2 3.05024C14.2 1.50024 12.9 0.250244 11.25 0.250244C9.60005 0.250244 8.30005 1.45024 8.30005 3.00024C8.30005 4.55024 9.65005 5.85024 11.25 5.85024ZM11.25 1.30024C12.25 1.30024 13.05 2.05024 13.05 3.00024C13.05 3.95024 12.25 4.70024 11.25 4.70024C10.25 4.70024 9.45005 3.95024 9.45005 3.00024C9.45005 2.05024 10.25 1.30024 11.25 1.30024Z" fill="#699C69"/>
</g>
<defs>
<clipPath id="clip0_121_1034">
<rect width="24" height="24" fill="white" transform="translate(0 0.000244141)"/>
</clipPath>
</defs>
</svg>
