<svg width="24" height="24" viewBox="0 0 24 24" fill="none" xmlns="http://www.w3.org/2000/svg">
<g clip-path="url(#clip0_121_1035)">
<path d="M10.2 10.1003C10.15 10.1503 10.1 10.1503 9.99997 10.2003C9.79997 10.3003 9.64997 10.3503 9.29997 10.3503C8.84997 10.3503 8.64997 10.2503 8.49997 10.1503H8.44997C8.14997 10.0003 7.79997 10.1003 7.64997 10.3503C7.49997 10.6003 7.59997 10.9503 7.89997 11.0503H7.94997C8.19997 11.1503 8.59997 11.4003 9.29997 11.4003C9.94997 11.4003 10.25 11.2503 10.5 11.1503C10.55 11.1503 10.6 11.1003 10.65 11.1003C10.95 11.0003 11.05 10.6503 10.95 10.4003C10.85 10.1003 10.5 9.95035 10.2 10.1003Z" fill="#4195B9"/>
<path d="M14.2 5.75015C14.1 5.65015 14 5.60015 13.9 5.55015C13.4 5.35015 12.4 5.05015 11.75 4.55015C11.15 4.05015 10.35 3.05015 10.25 2.65015C10.2 2.55015 10.1 2.45015 9.95005 2.45015C9.85005 2.40015 9.75005 2.45015 9.60005 2.50015C9.50005 2.55015 9.45005 2.65015 9.40005 2.75015L9.35005 2.85015C9.10005 3.75015 8.50005 4.50015 7.70005 5.05015C6.75005 5.65015 5.70005 5.85015 4.75005 5.60015L4.60005 5.55015C4.50005 5.60015 4.45005 5.60015 4.35005 5.70015C3.85005 6.00015 3.55005 6.60015 3.55005 7.30015C3.55005 7.75015 3.70005 8.20015 3.95005 8.50015C4.15005 8.75015 4.35005 8.90015 4.65005 9.00015H4.70005V9.05015C5.00005 10.2002 5.60005 11.2502 6.30005 12.0002C7.15005 12.9002 8.15005 13.4002 9.25005 13.4002C10.35 13.4002 11.35 12.9502 12.2 12.0502C12.9 11.3002 13.5 10.2502 13.8 9.10015V9.05015H13.85C14.1 8.95015 14.35 8.80015 14.55 8.55015C14.8 8.20015 14.95 7.80015 14.95 7.35015C14.95 6.60015 14.65 6.05015 14.2 5.75015ZM13.4 8.20015C13.15 8.20015 12.95 8.35015 12.9 8.55015C12.65 9.70015 12.1 10.7002 11.45 11.4502C11 11.9502 10.25 12.5002 9.25005 12.5002C8.25005 12.5002 7.50005 11.9002 7.05005 11.4002C6.40005 10.7002 5.85005 9.65015 5.60005 8.50015C5.55005 8.30015 5.35005 8.15015 5.10005 8.15015C4.80005 8.15015 4.55005 7.75015 4.55005 7.25015C4.55005 6.85015 4.70005 6.65015 4.80005 6.55015L4.85005 6.50015L5.05005 6.60015C5.20005 6.60015 5.40005 6.60015 5.55005 6.60015C5.85005 6.60015 6.15005 6.60015 6.45005 6.50015C7.05005 6.35015 7.60005 6.15015 8.15005 5.80015C8.90005 5.30015 9.55005 4.60015 9.95005 3.80015C10.15 4.20015 10.8 4.95015 11.2 5.25015C11.95 5.80015 13.05 6.40015 13.65 6.50015L13.7 6.55015C13.85 6.75015 13.95 7.00015 13.95 7.25015C13.95 7.75015 13.7 8.20015 13.4 8.20015Z" fill="#4195B9"/>
<path d="M8.15005 8.60015C8.20005 8.50015 8.20005 8.40015 8.20005 8.30015C8.20005 7.95015 7.90005 7.65015 7.50005 7.65015C7.10005 7.65015 6.80005 7.95015 6.80005 8.30015C6.80005 8.40015 6.80005 8.50015 6.85005 8.60015C6.85005 8.65015 6.90005 8.65015 6.95005 8.65015H8.05005C8.10005 8.65015 8.15005 8.65015 8.15005 8.60015Z" fill="#4195B9"/>
<path d="M11.05 7.65015C10.65 7.65015 10.35 7.95015 10.35 8.30015C10.35 8.40015 10.35 8.50015 10.4 8.60015C10.4 8.65015 10.45 8.65015 10.5 8.65015H11.6C11.65 8.65015 11.65 8.65015 11.7 8.60015C11.75 8.50015 11.75 8.40015 11.75 8.35015C11.75 7.95015 11.4 7.65015 11.05 7.65015Z" fill="#4195B9"/>
<path d="M12.25 22.6503H2.40002V22.3503C2.50002 20.0003 3.20002 18.0503 4.35002 16.7003C5.55002 15.3503 7.20002 14.6003 9.10002 14.6003C9.80002 14.6003 10.5 14.7003 11.15 14.9003C11.3 14.9503 11.5 14.9503 11.6 14.8503C11.75 14.7503 11.8 14.6003 11.8 14.4503C11.8 14.2003 11.65 14.0503 11.45 13.9503C10.7 13.7003 9.90002 13.5503 9.05002 13.5503C8.00002 13.5503 7.00002 13.7503 6.10002 14.1503C5.20002 14.5503 4.35002 15.1503 3.65002 15.9503C2.20002 17.6503 1.40002 20.1503 1.40002 23.1503C1.40002 23.4503 1.60002 23.6503 1.85002 23.6503H12.25C12.5 23.6503 12.7 23.4003 12.7 23.1503C12.7 22.9003 12.5 22.6503 12.25 22.6503Z" fill="#4195B9"/>
<path d="M16.9 11.7002C16.55 11.4502 15.95 10.5502 15.95 9.70024C15.95 9.55024 15.95 9.35024 16 9.15024L16.25 6.85024C16.3 6.45024 16.3 6.05024 16.3 5.55024C16.3 4.50024 16 3.50024 15.4 2.70024C14.85 1.95024 14.1 1.30024 13.15 0.900244C12.5 0.550244 11.7 0.300244 10.75 0.150244C10.6 0.150244 10.45 0.100244 10.3 0.100244C10.15 0.100244 9.99999 0.0502441 9.84999 0.0502441L9.14999 0.000244141L8.69999 0.0502441C8.54999 0.0502441 8.39999 0.100244 8.24999 0.100244C8.09999 0.100244 7.94999 0.150244 7.79999 0.150244C6.84999 0.300244 6.04999 0.550244 5.34999 0.900244C4.44999 1.35024 3.64999 1.95024 3.14999 2.70024C2.54999 3.55024 2.24999 4.50024 2.24999 5.50024V6.15024C2.24999 6.50024 2.29999 6.85024 2.29999 7.20024L2.44999 8.70024L2.49999 9.15024V9.55024C2.49999 10.3502 1.94999 11.2502 1.54999 11.6002L1.49999 11.6502V11.7502C1.34999 11.9502 1.34999 12.2502 1.54999 12.4002C1.89999 12.7502 2.24999 12.9502 2.64999 13.1002H2.69999C2.84999 13.1502 2.94999 13.1502 3.14999 13.1502C3.59999 13.1502 4.04999 13.0002 4.49999 12.7502C4.69999 12.6002 4.79999 12.3002 4.64999 12.0502C4.59999 11.9502 4.49999 11.8502 4.34999 11.8502C4.19999 11.8002 4.09999 11.8502 3.99999 11.9002C3.59999 12.1502 3.24999 12.2502 2.89999 12.1502C2.79999 12.1002 2.69999 12.1002 2.59999 12.0002C2.74999 11.8502 2.84999 11.6502 2.94999 11.4502C3.29999 10.8502 3.49999 10.2502 3.49999 9.60024L3.34999 7.55024C3.29999 6.75024 3.24999 6.15024 3.24999 5.50024C3.24999 4.65024 3.49999 3.85024 3.99999 3.20024C4.44999 2.60024 5.09999 2.10024 5.89999 1.70024C6.49999 1.40024 7.24999 1.20024 7.99999 1.05024L8.84999 0.950244H9.29999L10.4 1.05024C11.2 1.20024 12 1.40024 12.6 1.75024C13.4 2.15024 14.05 2.65024 14.5 3.25024C15 3.95024 15.25 4.70024 15.25 5.55024C15.25 6.05024 15.25 6.50024 15.2 6.90024L15 8.85024C15 9.15024 15 9.45024 15 9.70024C15 10.3002 15.2 10.9502 15.55 11.5502C15.65 11.7502 15.8 11.9002 15.9 12.1002C15.8 12.1502 15.7 12.2002 15.6 12.2502C15.3 12.3502 14.95 12.2502 14.5 12.0002C14.4 11.9002 14.25 11.9002 14.1 11.9502C14 12.0002 13.85 12.0502 13.8 12.1502C13.75 12.2502 13.7 12.4002 13.75 12.5502C13.8 12.6502 13.85 12.7502 13.95 12.8002C14.4 13.1002 14.85 13.2502 15.3 13.2502C15.5 13.2502 15.65 13.2002 15.8 13.1502C16.2 13.0502 16.55 12.8502 16.9 12.4502C16.9 12.4502 16.95 12.4002 16.95 12.3502C17 12.2502 17.05 12.1502 17.05 12.0502C17.1 11.9002 17 11.7502 16.9 11.7002Z" fill="#4195B9"/>
<path d="M19.95 16.4502L17.35 19.4502L16.15 18.3502C15.95 18.1502 15.65 18.1502 15.45 18.3002C15.35 18.4002 15.3 18.5002 15.25 18.6502C15.25 18.8002 15.3 18.9002 15.4 19.0002L17 20.5002C17.1 20.6002 17.25 20.6502 17.4 20.6502C17.55 20.6502 17.7 20.6002 17.8 20.4502L20.75 17.0002C20.85 16.9002 20.9 16.7502 20.85 16.6502C20.85 16.5002 20.75 16.4002 20.65 16.3002C20.45 16.2502 20.1 16.2502 19.95 16.4502Z" fill="#699C69"/>
<path d="M18.15 13.6003C15.4 13.6003 13.15 15.8503 13.15 18.6003C13.15 21.3503 15.4 23.6003 18.15 23.6003C20.9 23.6003 23.15 21.3503 23.15 18.6003C23.15 15.8503 20.9 13.6003 18.15 13.6003ZM22.15 18.6003C22.15 20.8003 20.35 22.6003 18.15 22.6003C15.95 22.6003 14.15 20.8003 14.15 18.6003C14.15 16.4003 15.95 14.6003 18.15 14.6003C20.35 14.6003 22.15 16.4003 22.15 18.6003Z" fill="#699C69"/>
</g>
<defs>
<clipPath id="clip0_121_1035">
<rect width="24" height="24" fill="white" transform="translate(0 0.000244141)"/>
</clipPath>
</defs>
</svg>
