<svg width="24" height="24" viewBox="0 0 24 24" fill="none" xmlns="http://www.w3.org/2000/svg">
<path fill-rule="evenodd" clip-rule="evenodd" d="M8.81084 7.10796C8.81084 5.45103 10.1538 4.10796 11.8108 4.10796C13.4677 4.10796 14.8108 5.45109 14.8108 7.10796C14.8108 8.7647 13.4677 10.108 11.8108 10.108C10.1539 10.108 8.81084 8.76476 8.81084 7.10796ZM9.41084 7.10796C9.41084 8.43341 10.4853 9.50796 11.8108 9.50796C13.1363 9.50796 14.2108 8.43332 14.2108 7.10796C14.2108 5.78245 13.1363 4.70796 11.8108 4.70796C10.4852 4.70796 9.41084 5.78237 9.41084 7.10796ZM6.27143 17.7003C5.95584 17.7003 5.7 17.4434 5.7 17.1264C5.7 13.7983 8.38631 11.1003 11.7 11.1003C15.0136 11.1003 17.7 13.7984 17.7 17.1264C17.7 17.4434 17.4442 17.7003 17.1286 17.7003H6.27143ZM17.1 17.1003C16.7834 14.0597 14.4863 11.7003 11.7 11.7003C8.91354 11.7003 6.6166 14.0597 6.3 17.1003H17.1Z" fill="#4195B9"/>
<path fill-rule="evenodd" clip-rule="evenodd" d="M8.61084 7.10796C8.61084 5.34058 10.0434 3.90796 11.8108 3.90796C13.5782 3.90796 15.0108 5.34063 15.0108 7.10796C15.0108 8.87516 13.5781 10.308 11.8108 10.308C10.0434 10.308 8.61084 8.87521 8.61084 7.10796ZM9.61084 7.10796C9.61084 8.32296 10.5957 9.30796 11.8108 9.30796C13.0258 9.30796 14.0108 8.32287 14.0108 7.10796C14.0108 5.89291 13.0259 4.90796 11.8108 4.90796C10.5957 4.90796 9.61084 5.89282 9.61084 7.10796ZM6.27143 17.9003C5.84456 17.9003 5.5 17.553 5.5 17.1264C5.5 13.6887 8.27504 10.9003 11.7 10.9003C15.1248 10.9003 17.9 13.6887 17.9 17.1264C17.9 17.553 17.5554 17.9003 17.1286 17.9003H6.27143ZM16.8744 16.9003C16.4812 14.05 14.2978 11.9003 11.7 11.9003C9.10206 11.9003 6.91879 14.05 6.52562 16.9003H16.8744ZM17.0762 16.9003C16.6819 13.9569 14.4249 11.7003 11.7 11.7003C8.97494 11.7003 6.71807 13.9568 6.3238 16.9003C6.31491 16.9667 6.30698 17.0333 6.3 17.1003H17.1C17.093 17.0333 17.0851 16.9667 17.0762 16.9003ZM11.8108 4.10796C10.1538 4.10796 8.81084 5.45103 8.81084 7.10796C8.81084 8.76476 10.1539 10.108 11.8108 10.108C13.4677 10.108 14.8108 8.7647 14.8108 7.10796C14.8108 5.45109 13.4677 4.10796 11.8108 4.10796ZM11.8108 9.50796C10.4853 9.50796 9.41084 8.43341 9.41084 7.10796C9.41084 5.78237 10.4852 4.70796 11.8108 4.70796C13.1363 4.70796 14.2108 5.78245 14.2108 7.10796C14.2108 8.43332 13.1363 9.50796 11.8108 9.50796ZM5.7 17.1264C5.7 17.4434 5.95584 17.7003 6.27143 17.7003H17.1286C17.4442 17.7003 17.7 17.4434 17.7 17.1264C17.7 13.7984 15.0136 11.1003 11.7 11.1003C8.38631 11.1003 5.7 13.7983 5.7 17.1264Z" fill="#4195B9"/>
<path fill-rule="evenodd" clip-rule="evenodd" d="M0.885481 10.7802L3.36471 8.37845C3.55937 8.18987 3.66854 8.023 3.50894 7.87243C3.34933 7.72186 3.20028 7.8256 3.00562 8.01417L0.445847 10.4388C0.341472 10.5399 0.294546 10.6681 0.302103 10.8005C0.30864 10.915 0.355566 11.0342 0.445847 11.1216L2.9523 13.5414C3.14695 13.73 3.31428 13.9087 3.50894 13.7202C3.70359 13.5316 3.55937 13.3705 3.36471 13.182L0.885481 10.7802ZM22.8158 10.7802L20.3366 8.37845C20.1419 8.18987 20.0327 8.023 20.1923 7.87243C20.3519 7.72186 20.501 7.8256 20.6957 8.01417L23.2554 10.4388C23.3598 10.5399 23.4067 10.6681 23.3992 10.8005C23.3926 10.915 23.3457 11.0342 23.2554 11.1216L20.749 13.5414C20.5543 13.73 20.387 13.9087 20.1923 13.7202C19.9977 13.5316 20.1419 13.3705 20.3366 13.182L22.8158 10.7802Z" fill="#699C69"/>
<path fill-rule="evenodd" clip-rule="evenodd" d="M0.445847 10.4388L3.00562 8.01417C3.20028 7.8256 3.34933 7.72186 3.50894 7.87243C3.66854 8.023 3.55937 8.18987 3.36471 8.37845L0.885481 10.7802L3.36471 13.182C3.55937 13.3705 3.70359 13.5316 3.50894 13.7202C3.32221 13.901 3.16063 13.744 2.97596 13.5644C2.96811 13.5568 2.96023 13.5491 2.9523 13.5414L0.445847 11.1216C0.355566 11.0342 0.30864 10.915 0.302103 10.8005C0.294546 10.6681 0.341472 10.5399 0.445847 10.4388ZM2.81314 13.6851C2.81307 13.685 2.81321 13.6851 2.81314 13.6851L0.306935 11.2655C0.176493 11.1392 0.111483 10.9705 0.102428 10.8119C0.0915755 10.6218 0.160355 10.4369 0.306688 10.2951L0.308303 10.2935L2.86728 7.86973C2.96178 7.77822 3.07473 7.67607 3.19998 7.62894C3.26903 7.60295 3.34818 7.59087 3.43245 7.60902C3.51581 7.62698 3.58659 7.67074 3.64618 7.72695C3.70811 7.78537 3.7561 7.85725 3.776 7.94356C3.79591 8.02994 3.78326 8.11151 3.75684 8.18167C3.70801 8.31135 3.60199 8.42704 3.50387 8.52209L1.17292 10.7802L3.50387 13.0383C3.59436 13.126 3.71291 13.242 3.7677 13.3748C3.79842 13.4492 3.81298 13.5365 3.79026 13.6302C3.76808 13.7216 3.71531 13.7987 3.64809 13.8638C3.57765 13.9321 3.49408 13.9817 3.39646 13.9962C3.2991 14.0105 3.21231 13.9862 3.14207 13.9516C3.02852 13.8955 2.92163 13.791 2.83922 13.7105C2.8303 13.7018 2.82146 13.6931 2.81314 13.6851ZM23.3946 10.2951C23.5409 10.4369 23.6097 10.6218 23.5988 10.8119C23.5898 10.9705 23.525 11.1389 23.3946 11.2653L20.8881 13.6851C20.8798 13.6932 20.871 13.7017 20.8621 13.7105C20.7796 13.791 20.6728 13.8955 20.5592 13.9516C20.489 13.9862 20.4022 14.0105 20.3048 13.9962C20.2072 13.9817 20.1236 13.9321 20.0532 13.8638C19.986 13.7987 19.9332 13.7216 19.911 13.6302C19.8883 13.5365 19.9029 13.4492 19.9336 13.3748C19.9884 13.242 20.1069 13.126 20.1974 13.0383L22.5284 10.7802L20.1974 8.52209C20.0993 8.42704 19.9933 8.31135 19.9444 8.18167C19.918 8.11151 19.9054 8.02994 19.9253 7.94356C19.9452 7.85725 19.9932 7.78537 20.0551 7.72695C20.1147 7.67074 20.1855 7.62698 20.2688 7.60902C20.3531 7.59087 20.4322 7.60295 20.5013 7.62894C20.6266 7.67608 20.7395 7.77826 20.8341 7.86979C20.8343 7.87003 20.8346 7.87028 20.8348 7.87053L23.3946 10.2951ZM20.6957 8.01417C20.501 7.8256 20.3519 7.72186 20.1923 7.87243C20.0327 8.023 20.1419 8.18987 20.3366 8.37845L22.8158 10.7802L20.3366 13.182C20.1419 13.3705 19.9977 13.5316 20.1923 13.7202C20.3791 13.901 20.5406 13.744 20.7253 13.5644C20.7332 13.5568 20.741 13.5491 20.749 13.5414L23.2554 11.1216C23.3457 11.0342 23.3926 10.915 23.3992 10.8005C23.4067 10.6681 23.3598 10.5399 23.2554 10.4388L20.6957 8.01417Z" fill="#699C69"/>
</svg>
