<svg width="24" height="24" viewBox="0 0 24 24" fill="none" xmlns="http://www.w3.org/2000/svg">
<path fill-rule="evenodd" clip-rule="evenodd" d="M13.4999 2.40017C13.7798 2.40017 14.0721 2.67887 14.0981 2.96161L14.0999 3.002V7.80137H13.4999V3.00153H0.899947V15.6015L9.89995 15.6014V16.2014L0.900735 16.2014C0.620924 16.2014 0.327886 15.9248 0.301824 15.6422L0.299947 15.6018V3.002C0.299947 2.7195 0.580267 2.42795 0.860703 2.40203L0.900735 2.40017H13.4999ZM7.19995 9.60017C8.24791 9.60017 9.19936 9.99192 9.90012 10.6293L9.90036 11.6963C9.28839 10.7886 8.30665 10.2002 7.19995 10.2002C5.56008 10.2002 4.19473 11.4919 3.89995 13.2002H9.89995V13.8002H3.83177C3.53805 13.8002 3.29995 13.5745 3.29995 13.2962C3.29995 11.2549 5.04599 9.60017 7.19995 9.60017ZM7.19995 4.80153C8.35974 4.80153 9.29995 5.74164 9.29995 6.90145C9.29995 8.0614 8.35978 9.00153 7.19995 9.00153C6.04012 9.00153 5.09995 8.0614 5.09995 6.90145C5.09995 5.74164 6.04015 4.80153 7.19995 4.80153ZM7.19995 5.40153C6.37148 5.40153 5.69995 6.07302 5.69995 6.90141C5.69995 7.73003 6.37145 8.40153 7.19995 8.40153C8.02844 8.40153 8.69995 7.73003 8.69995 6.90141C8.69995 6.07302 8.02842 5.40153 7.19995 5.40153Z" fill="#699C69"/>
<path fill-rule="evenodd" clip-rule="evenodd" d="M14.2979 2.95235L14.3002 3.002L14.2999 8.00137H13.2999V3.20153H1.09995V15.4015L10.0999 15.4014V16.4014L0.900735 16.4014C0.697219 16.4014 0.507381 16.303 0.369372 16.1737C0.231113 16.0441 0.121205 15.8615 0.102669 15.6606L0.101833 15.6515L0.0997314 15.6018L0.0999474 3.002C0.0999474 2.79668 0.199647 2.60639 0.329685 2.46855C0.459847 2.33059 0.642678 2.22133 0.842296 2.20288L0.85138 2.20204L0.900735 2.19995L13.4999 2.20017C13.704 2.20017 13.8938 2.29952 14.0314 2.42939C14.1694 2.55953 14.2788 2.74258 14.2972 2.9433L14.2979 2.95235ZM0.899947 15.6015V3.00153H13.4999V7.80137H14.0999V3.002L14.0981 2.96161C14.0721 2.67887 13.7798 2.40017 13.4999 2.40017H0.900735L0.860703 2.40203C0.580267 2.42795 0.299947 2.7195 0.299947 3.002V15.6018L0.301824 15.6422C0.327886 15.9248 0.620924 16.2014 0.900735 16.2014L9.89995 16.2014V15.6014L0.899947 15.6015ZM10.1001 10.5409L10.1005 12.351L9.73453 11.8081C9.15517 10.9488 8.23239 10.4002 7.19995 10.4002C5.74643 10.4002 4.50416 11.4921 4.14502 13.0002H10.0999V14.0002H3.83177C3.43785 14.0002 3.09995 13.695 3.09995 13.2962C3.09995 11.1345 4.94579 9.40017 7.19995 9.40017C8.29826 9.40017 9.29755 9.81088 10.0347 10.4814L10.1001 10.5409ZM3.89995 13.2002C3.91157 13.1328 3.92485 13.0662 3.93974 13.0002C4.30279 11.3921 5.62471 10.2002 7.19995 10.2002C8.19295 10.2002 9.08535 10.6739 9.7003 11.427C9.77072 11.5132 9.83749 11.6031 9.90036 11.6963L9.90012 10.6293C9.19936 9.99192 8.24791 9.60017 7.19995 9.60017C5.04599 9.60017 3.29995 11.2549 3.29995 13.2962C3.29995 13.5745 3.53805 13.8002 3.83177 13.8002H9.89995V13.2002H3.89995ZM7.19995 4.60153C8.47019 4.60153 9.49995 5.63117 9.49995 6.90145C9.49995 8.17185 8.47024 9.20153 7.19995 9.20153C5.92966 9.20153 4.89995 8.17185 4.89995 6.90145C4.89995 5.63117 5.92971 4.60153 7.19995 4.60153ZM7.19995 5.60153C6.48192 5.60153 5.89995 6.18349 5.89995 6.90141C5.89995 7.61958 6.48192 8.20153 7.19995 8.20153C7.91798 8.20153 8.49995 7.61958 8.49995 6.90141C8.49995 6.18349 7.91798 5.60153 7.19995 5.60153ZM9.29995 6.90145C9.29995 5.74164 8.35974 4.80153 7.19995 4.80153C6.04015 4.80153 5.09995 5.74164 5.09995 6.90145C5.09995 8.0614 6.04012 9.00153 7.19995 9.00153C8.35978 9.00153 9.29995 8.0614 9.29995 6.90145ZM5.69995 6.90141C5.69995 6.07302 6.37148 5.40153 7.19995 5.40153C8.02842 5.40153 8.69995 6.07302 8.69995 6.90141C8.69995 7.73003 8.02844 8.40153 7.19995 8.40153C6.37145 8.40153 5.69995 7.73003 5.69995 6.90141Z" fill="#699C69"/>
<path fill-rule="evenodd" clip-rule="evenodd" d="M23.0999 7.79885C23.3797 7.79885 23.6721 8.07755 23.6981 8.36029L23.6999 8.40068V21.0005C23.6999 21.283 23.4203 21.5725 23.14 21.5982L23.0999 21.6001H10.5007C10.2209 21.6001 9.92786 21.3235 9.9018 21.0409L9.89992 21.0005V8.40068C9.89992 8.11818 10.1802 7.82664 10.4607 7.80072L10.5007 7.79885H23.0999ZM23.0999 8.40022H10.4999V21.0002H23.0999V8.40022ZM16.7999 14.9988C18.9538 14.9988 20.6999 16.6537 20.6999 18.6948C20.6999 18.9732 20.4618 19.1989 20.1681 19.1989H13.4317C13.138 19.1989 12.8999 18.9732 12.8999 18.6948C12.8999 16.6536 14.646 14.9988 16.7999 14.9988ZM16.7999 15.5989C15.1601 15.5989 13.7947 16.8906 13.4999 18.5989H20.0999C19.8051 16.8906 18.4397 15.5989 16.7999 15.5989ZM16.7999 10.2002C17.9597 10.2002 18.8999 11.1403 18.8999 12.3001C18.8999 13.4601 17.9598 14.4002 16.7999 14.4002C15.6401 14.4002 14.6999 13.4601 14.6999 12.3001C14.6999 11.1403 15.6401 10.2002 16.7999 10.2002ZM16.7999 10.8002C15.9715 10.8002 15.2999 11.4717 15.2999 12.3001C15.2999 13.1287 15.9714 13.8002 16.7999 13.8002C17.6284 13.8002 18.2999 13.1287 18.2999 12.3001C18.2999 11.4717 17.6284 10.8002 16.7999 10.8002Z" fill="#4195B9"/>
<path fill-rule="evenodd" clip-rule="evenodd" d="M23.8978 8.35103L23.9001 8.40068L23.8999 21.0005C23.8999 21.2058 23.8004 21.3957 23.6703 21.5331C23.5401 21.6707 23.3575 21.7791 23.1582 21.7974L23.1492 21.7982L23.0999 21.8003L10.5007 21.8001C10.2972 21.8001 10.1074 21.7017 9.96935 21.5724C9.83109 21.4428 9.72118 21.2602 9.70265 21.0593L9.70181 21.0502L9.69971 21.0005L9.69992 8.40068C9.69992 8.19536 9.79962 8.00507 9.92966 7.86723C10.0598 7.72927 10.2427 7.62002 10.4423 7.60156L10.4514 7.60072L10.5007 7.59863L23.0999 7.59885C23.304 7.59885 23.4938 7.6982 23.6314 7.82807C23.7694 7.95821 23.8788 8.14126 23.8972 8.34198L23.8978 8.35103ZM10.4607 7.80072C10.1802 7.82664 9.89992 8.11818 9.89992 8.40068V21.0005L9.9018 21.0409C9.92786 21.3235 10.2209 21.6001 10.5007 21.6001H23.0999L23.14 21.5982C23.4203 21.5725 23.6999 21.283 23.6999 21.0005V8.40068L23.6981 8.36029C23.6721 8.07755 23.3797 7.79885 23.0999 7.79885H10.5007L10.4607 7.80072ZM10.4999 21.0002H23.0999V8.40022H10.4999V21.0002ZM10.6999 8.60022V20.8002H22.8999V8.60022H10.6999ZM16.7999 14.7988C19.054 14.7988 20.8999 16.5332 20.8999 18.6948C20.8999 19.0936 20.562 19.3989 20.1681 19.3989H13.4317C13.0378 19.3989 12.6999 19.0936 12.6999 18.6948C12.6999 16.5332 14.5458 14.7988 16.7999 14.7988ZM13.4999 18.5989H20.0999C20.0883 18.5315 20.075 18.4648 20.0601 18.3989C19.697 16.7908 18.375 15.5989 16.7999 15.5989C15.2247 15.5989 13.9028 16.7907 13.5397 18.3989C13.5248 18.4648 13.5115 18.5315 13.4999 18.5989ZM19.8548 18.3989C19.4957 16.8908 18.2533 15.7988 16.7999 15.7988C15.3464 15.7988 14.1041 16.8908 13.745 18.3989H19.8548ZM16.7999 10.0002C18.0702 10.0002 19.0999 11.0299 19.0999 12.3001C19.0999 13.5705 18.0702 14.6002 16.7999 14.6002C15.5296 14.6002 14.4999 13.5705 14.4999 12.3001C14.4999 11.0299 15.5297 10.0002 16.7999 10.0002ZM16.7999 11.0002C16.0819 11.0002 15.4999 11.5822 15.4999 12.3001C15.4999 13.0183 16.0819 13.6002 16.7999 13.6002C17.518 13.6002 18.0999 13.0183 18.0999 12.3001C18.0999 11.5822 17.518 11.0002 16.7999 11.0002ZM20.6999 18.6948C20.6999 16.6537 18.9538 14.9988 16.7999 14.9988C14.646 14.9988 12.8999 16.6536 12.8999 18.6948C12.8999 18.9732 13.138 19.1989 13.4317 19.1989H20.1681C20.4618 19.1989 20.6999 18.9732 20.6999 18.6948ZM18.8999 12.3001C18.8999 11.1403 17.9597 10.2002 16.7999 10.2002C15.6401 10.2002 14.6999 11.1403 14.6999 12.3001C14.6999 13.4601 15.6401 14.4002 16.7999 14.4002C17.9598 14.4002 18.8999 13.4601 18.8999 12.3001ZM15.2999 12.3001C15.2999 11.4717 15.9715 10.8002 16.7999 10.8002C17.6284 10.8002 18.2999 11.4717 18.2999 12.3001C18.2999 13.1287 17.6284 13.8002 16.7999 13.8002C15.9714 13.8002 15.2999 13.1287 15.2999 12.3001Z" fill="#4195B9"/>
</svg>
