<svg width="24" height="24" viewBox="0 0 24 24" fill="none" xmlns="http://www.w3.org/2000/svg">
<path fill-rule="evenodd" clip-rule="evenodd" d="M3.00613 13.0423C4.57516 11.7317 6.64138 11.1778 8.65561 11.5278C8.92768 11.5751 9.1099 11.834 9.06263 12.106C9.01535 12.3781 8.75647 12.5603 8.4844 12.513C6.75978 12.2133 4.99064 12.6876 3.64721 13.8098C2.33155 14.9088 1.55468 16.5202 1.51173 18.2304H9.09001C9.36615 18.2304 9.59001 18.4543 9.59001 18.7304C9.59001 19.0066 9.36615 19.2304 9.09001 19.2304H1.01001C0.733867 19.2304 0.51001 19.0066 0.51001 18.7304V18.3319C0.524164 16.2876 1.43709 14.353 3.00613 13.0423Z" fill="#4195B9"/>
<path fill-rule="evenodd" clip-rule="evenodd" d="M6.57502 4.20532C4.95683 4.20532 3.64502 5.51713 3.64502 7.13532C3.64502 8.75352 4.95682 10.0653 6.57502 10.0653C8.19321 10.0653 9.50502 8.75352 9.50502 7.13532C9.50502 5.51713 8.19321 4.20532 6.57502 4.20532ZM2.64502 7.13532C2.64502 4.96484 4.40454 3.20532 6.57502 3.20532C8.7455 3.20532 10.505 4.96484 10.505 7.13532C10.505 9.3058 8.7455 11.0653 6.57502 11.0653C4.40454 11.0653 2.64502 9.3058 2.64502 7.13532Z" fill="#4195B9"/>
<path d="M17.4301 9.05025L17.5951 10.7302C17.6173 10.9332 17.753 11.1059 17.9451 11.1753C18.376 11.3372 18.7765 11.5704 19.1301 11.8652C19.2251 11.9491 19.3484 11.9938 19.4751 11.9903C19.5507 11.9903 19.6255 11.9749 19.6951 11.9452L21.2351 11.2503L22.0851 12.7253L20.7201 13.7003C20.5559 13.8233 20.4747 14.0281 20.5101 14.2302C20.5553 14.4576 20.5804 14.6885 20.5851 14.9203C20.5804 15.152 20.5553 15.3829 20.5101 15.6102C20.4864 15.8035 20.5685 15.9945 20.7251 16.1103L22.0901 17.1103L21.2401 18.6103L19.7001 17.9153C19.6315 17.882 19.5562 17.8649 19.4801 17.8652C19.3557 17.8665 19.2356 17.9107 19.1401 17.9902C18.7862 18.2872 18.3836 18.5207 17.9501 18.6803C17.7585 18.752 17.6246 18.9266 17.6051 19.1302L17.4351 20.8053H15.7351L15.5651 19.1302C15.5459 18.9249 15.4093 18.7494 15.2151 18.6803C14.7738 18.5183 14.3655 18.2778 14.0101 17.9702C13.8534 17.8401 13.6369 17.8092 13.4501 17.8902L11.9101 18.5852L11.0601 17.0852L12.4201 16.0852C12.5881 15.9649 12.6718 15.7586 12.6351 15.5553C12.5417 15.1 12.5417 14.6305 12.6351 14.1753C12.6723 13.9733 12.5882 13.7681 12.4201 13.6502L11.0601 12.6502L11.9101 11.1753L13.4501 11.8702C13.5186 11.9035 13.5939 11.9206 13.6701 11.9203C13.7943 11.9182 13.9141 11.8741 14.0101 11.7953C14.3611 11.4969 14.7623 11.2633 15.1951 11.1052C15.3893 11.0361 15.5259 10.8606 15.5451 10.6552L15.7151 8.98025H17.4151L17.4301 9.05025ZM17.4151 7.98024H15.7151C15.1996 7.97767 14.7666 8.36735 14.7151 8.88025L14.5751 10.2752C14.2207 10.4258 13.8851 10.617 13.5751 10.8453L12.2951 10.2653C12.1663 10.2066 12.0266 10.1759 11.8851 10.1753C11.5264 10.1738 11.1944 10.3646 11.0151 10.6753L10.1651 12.1502C9.88261 12.6239 10.037 13.2368 10.5101 13.5203L11.6401 14.3353C11.6131 14.524 11.5997 14.7145 11.6001 14.9053C11.5999 15.0976 11.6133 15.2898 11.6401 15.4802L10.5101 16.3002C10.0931 16.5992 9.96995 17.1651 10.2251 17.6103L11.0751 19.1103C11.2544 19.4209 11.5864 19.6117 11.9451 19.6103C12.0866 19.6096 12.2263 19.5789 12.3551 19.5203L13.6351 18.9452C13.9444 19.1746 14.2801 19.3659 14.6351 19.5152L14.7751 20.9102C14.8266 21.4232 15.2596 21.8128 15.7751 21.8103H17.4751C17.9905 21.8128 18.4235 21.4232 18.4751 20.9102L18.6151 19.5152C18.9701 19.3662 19.3059 19.1748 19.6151 18.9452L20.8251 19.5203C20.9538 19.5789 21.0936 19.6096 21.2351 19.6103C21.592 19.6099 21.9216 19.4193 22.1001 19.1103L22.9501 17.6103C23.2062 17.1663 23.0853 16.6006 22.6701 16.3002L21.5401 15.4852C21.5646 15.2962 21.5779 15.1059 21.5801 14.9153C21.5778 14.723 21.5644 14.531 21.5401 14.3403L22.6701 13.5203C23.0853 13.2199 23.2062 12.6542 22.9501 12.2103L22.1001 10.7352C21.9216 10.4262 21.592 10.2356 21.2351 10.2352C21.0936 10.2359 20.9538 10.2666 20.8251 10.3252L19.5401 10.9002C19.2295 10.6741 18.894 10.4845 18.5401 10.3353L18.4001 8.93525C18.3485 8.42235 17.9155 8.03267 17.4001 8.03525L17.4151 7.98024Z" fill="#699C69"/>
<path d="M16.58 13.3452C17.4402 13.3507 18.1336 14.0516 18.13 14.9118C18.1263 15.7721 17.4269 16.467 16.5666 16.4652C15.7064 16.4634 15.01 15.7655 15.01 14.9052C15.01 14.0437 15.7084 13.3452 16.57 13.3452H16.58ZM16.57 12.3452C15.5341 12.3432 14.5991 12.9656 14.2013 13.9221C13.8034 14.8785 14.0212 15.9805 14.753 16.7136C15.4848 17.4468 16.5862 17.6668 17.5435 17.2708C18.5007 16.8749 19.125 15.9411 19.125 14.9052C19.1222 13.4945 17.9807 12.3507 16.57 12.3452Z" fill="#699C69"/>
</svg>
