<svg width="24" height="24" viewBox="0 0 24 24" fill="none" xmlns="http://www.w3.org/2000/svg">
<path d="M1.10005 14.4003C1.40005 14.0503 1.85005 13.9003 2.30005 13.9003C2.75005 13.9003 3.20005 14.1003 3.50005 14.4003C4.05005 14.9503 4.75005 15.2503 5.50005 15.2503C6.25005 15.2503 6.95005 14.9503 7.50005 14.4003V14.3503C7.80005 14.0003 8.25005 13.8503 8.70005 13.8503C9.15005 13.8503 9.60005 14.0503 9.90005 14.3503C10.45 14.9003 11.15 15.2003 11.9 15.2003C12.6 15.2003 13.25 14.9503 13.75 14.5003C13.8 14.4503 13.8 14.4503 13.85 14.4003L13.9 14.3503C14.2 14.0003 14.65 13.8503 15.1 13.8503C15.55 13.8503 16 14.0503 16.3 14.3503C16.85 14.9003 17.55 15.2003 18.3 15.2003C19.05 15.2003 19.75 14.9003 20.3 14.3503C20.6 14.0003 21.05 13.8503 21.5 13.8503C21.9501 13.8503 22.4001 14.0503 22.7001 14.4003C22.9001 14.6003 23.25 14.6503 23.5 14.4503C23.7001 14.2503 23.75 13.9003 23.55 13.6503C23 13.1003 22.3 12.7503 21.55 12.7503C20.8 12.7503 20.1 13.0503 19.55 13.6003C19.25 13.9503 18.8001 14.1003 18.35 14.1003C17.9 14.1003 17.45 13.9003 17.15 13.6003C16.6 13.0503 15.9 12.7503 15.15 12.7503C14.6 12.7503 14.05 12.9003 13.6 13.2503L11.5 9.70033C11.2 9.15033 10.75 8.75033 10.2 8.45033L7.30005 6.95033C6.75005 6.65033 6.15005 6.70033 5.60005 7.00033L2.80005 8.65033C2.00005 9.15033 1.70005 10.2003 2.15005 11.0003C2.40005 11.4003 2.75005 11.7003 3.20005 11.8003C3.65005 11.9003 4.10005 11.8503 4.50005 11.6003L6.45005 10.4503L6.95005 10.7003L3.20005 12.9003C2.90005 12.8003 2.55005 12.7003 2.20005 12.7003C1.45005 12.7003 0.750049 13.0003 0.200049 13.5503C4.88311e-05 13.7503 4.88311e-05 14.1003 0.200049 14.3503C0.550049 14.6503 0.900049 14.6003 1.10005 14.4003ZM8.50005 10.2503L6.80005 9.40033C6.65005 9.30033 6.45005 9.30033 6.25005 9.40033L4.05005 10.7003C3.90005 10.8003 3.75005 10.8003 3.60005 10.7503C3.45005 10.7003 3.30005 10.6003 3.20005 10.4503C3.05005 10.1503 3.15005 9.75034 3.45005 9.60034L6.25005 7.95033C6.45005 7.85033 6.70005 7.85033 6.90005 7.95033L9.80005 9.45033C10.15 9.65033 10.45 9.90033 10.65 10.2503L12.8 13.9503C12.55 14.1003 12.3 14.1503 12 14.1503C11.55 14.1503 11.1 13.9503 10.8 13.6503C10.25 13.1003 9.55005 12.8003 8.80005 12.8003C8.05005 12.8003 7.35005 13.1003 6.80005 13.6503V13.7003C6.50005 14.0503 6.05005 14.2003 5.60005 14.2003C5.15005 14.2003 4.70005 14.0003 4.40005 13.7003L8.60005 11.2503C8.75005 11.1503 8.90005 10.9503 8.85005 10.7503C8.80005 10.5003 8.70005 10.3503 8.50005 10.2503Z" fill="#4195B9"/>
<path d="M21.7001 15.5503C21.6501 15.5503 21.6501 15.5503 21.7001 15.5503C20.9001 15.5503 20.2001 15.8503 19.7001 16.4003C19.4001 16.7503 18.9501 16.9003 18.5001 16.9003C18.0501 16.9003 17.6001 16.7003 17.3001 16.4003C16.7501 15.8503 16.0501 15.5503 15.3001 15.5503C14.5501 15.5503 13.8501 15.8503 13.3001 16.4003C13.0001 16.7503 12.5501 16.9003 12.1001 16.9003C11.6501 16.9003 11.2001 16.7003 10.9001 16.4003C10.3501 15.8503 9.6501 15.5503 8.9001 15.5503C8.1501 15.5503 7.4501 15.8503 6.9001 16.4003V16.4503C6.6001 16.8003 6.1501 16.9503 5.7001 16.9503C5.2501 16.9503 4.8001 16.7503 4.5001 16.4503C3.9501 15.9003 3.2501 15.6003 2.5001 15.6003C1.7501 15.6003 1.0501 15.9003 0.500098 16.4503C0.300098 16.6503 0.300098 17.0003 0.500098 17.2503C0.700098 17.4503 1.0501 17.4503 1.3001 17.2503C1.6001 16.9003 2.0501 16.7503 2.5001 16.7503C2.9501 16.7503 3.4001 16.9503 3.7001 17.2503C4.2501 17.8003 4.9501 18.1003 5.7001 18.1003C6.4501 18.1003 7.1501 17.8003 7.7001 17.2503V17.2003C8.0001 16.8503 8.4501 16.7003 8.9001 16.7003C9.3501 16.7003 9.8001 16.9003 10.1001 17.2003C10.6501 17.7503 11.3501 18.0503 12.1001 18.0503C12.8501 18.0503 13.5501 17.7503 14.1001 17.2003C14.4001 16.8503 14.8501 16.7003 15.3001 16.7003C15.7501 16.7003 16.2001 16.9003 16.5001 17.2003C17.0501 17.7503 17.7501 18.0503 18.5001 18.0503C19.2501 18.0503 19.9501 17.7503 20.5001 17.2003C20.8001 16.8503 21.2501 16.7003 21.7001 16.7003C22.1501 16.7003 22.6001 16.9003 22.9001 17.2503C23.1001 17.4503 23.4501 17.5003 23.7001 17.3003C23.9001 17.1003 23.9501 16.7503 23.7501 16.5003C23.1501 15.9003 22.4501 15.5503 21.7001 15.5503Z" fill="#699C69"/>
<path d="M14.45 11.9503C14.7 12.0003 14.95 12.0503 15.2 12.0503C15.7 12.0503 16.2 11.9003 16.6 11.6503C17.95 10.8503 18.4 9.10029 17.65 7.75029C17.25 7.10029 16.65 6.60029 15.9 6.40029C15.15 6.20029 14.4 6.30029 13.75 6.70029C12.4 7.50029 11.95 9.25029 12.7 10.6003C13.1 11.3003 13.75 11.7503 14.45 11.9503ZM14.3 7.65029C14.55 7.50029 14.85 7.40029 15.15 7.40029C15.3 7.40029 15.45 7.40029 15.6 7.45029C16.05 7.55029 16.45 7.85029 16.65 8.25029C17.15 9.10029 16.85 10.1503 16 10.6503C15.6 10.9003 15.15 10.9503 14.7 10.8503C14.25 10.7503 13.85 10.4503 13.65 10.0503C13.2 9.25029 13.5 8.15029 14.3 7.65029Z" fill="#4195B9"/>
</svg>
