<svg width="24" height="24" viewBox="0 0 24 24" fill="none" xmlns="http://www.w3.org/2000/svg">
<g clip-path="url(#clip0_99_329)">
<path fill-rule="evenodd" clip-rule="evenodd" d="M8.37502 6.61499C7.14619 6.61499 6.15002 7.61116 6.15002 8.83999C6.15002 10.0688 7.14619 11.065 8.37502 11.065C9.60386 11.065 10.6 10.0688 10.6 8.83999C10.6 7.61116 9.60386 6.61499 8.37502 6.61499ZM5.15002 8.83999C5.15002 7.05887 6.59391 5.61499 8.37502 5.61499C10.1561 5.61499 11.6 7.05887 11.6 8.83999C11.6 10.6211 10.1561 12.065 8.37502 12.065C6.59391 12.065 5.15002 10.6211 5.15002 8.83999Z" fill="#699C69"/>
<path fill-rule="evenodd" clip-rule="evenodd" d="M1.27628 5.6908C2.86654 2.70416 6.15561 1.03177 9.5058 1.50636C12.856 1.98095 15.5511 4.50107 16.2493 7.81189C16.3063 8.08209 16.1334 8.34732 15.8632 8.4043C15.593 8.46128 15.3278 8.28842 15.2708 8.01822C14.6594 5.11894 12.2993 2.91207 9.36553 2.49647C6.43178 2.08087 3.55154 3.54538 2.15896 6.16079C0.768279 8.77261 1.15805 11.9746 3.13351 14.1765L8.27463 19.3475L8.2747 19.3476C8.30192 19.375 8.33893 19.3904 8.37755 19.3904C8.41616 19.3904 8.45318 19.375 8.4804 19.3476C8.48437 19.3436 8.48841 19.3397 8.49252 19.3358L9.91752 17.9958C10.1187 17.8066 10.4351 17.8164 10.6243 18.0175C10.8135 18.2187 10.8037 18.5351 10.6026 18.7243L9.18285 20.0593C8.96858 20.2713 8.67922 20.3904 8.37755 20.3904C8.07267 20.3904 7.78039 20.2688 7.56547 20.0526C7.56544 20.0526 7.56542 20.0525 7.5654 20.0525L2.41547 14.8726C2.40965 14.8667 2.40398 14.8607 2.39845 14.8546C0.134525 12.3399 -0.313972 8.67745 1.27628 5.6908Z" fill="#4195B9"/>
<path fill-rule="evenodd" clip-rule="evenodd" d="M19.1737 13.4022C18.5442 11.632 16.7073 10.5955 14.8666 10.9717C13.0259 11.3479 11.7431 13.022 11.8586 14.8973C11.9741 16.7725 13.4526 18.2765 15.3256 18.424C17.1986 18.5714 18.8943 17.3173 19.3019 15.4833C19.3618 15.2137 19.6289 15.0438 19.8984 15.1037C20.168 15.1636 20.338 15.4306 20.2781 15.7002C19.7624 18.0207 17.6169 19.6075 15.2471 19.4209C12.8773 19.2343 11.0066 17.3314 10.8604 14.9587C10.7143 12.5861 12.3374 10.468 14.6664 9.99198C16.9954 9.51598 19.3194 10.8274 20.1159 13.0671C20.2084 13.3273 20.0725 13.6132 19.8123 13.7057C19.5522 13.7983 19.2662 13.6624 19.1737 13.4022Z" fill="#699C69"/>
<path fill-rule="evenodd" clip-rule="evenodd" d="M15.6223 13.1608C14.7939 13.1608 14.1223 13.8323 14.1223 14.6608C14.1223 15.4892 14.7939 16.1608 15.6223 16.1608C16.4507 16.1608 17.1223 15.4892 17.1223 14.6608C17.1223 13.8323 16.4507 13.1608 15.6223 13.1608ZM13.1223 14.6608C13.1223 13.2801 14.2416 12.1608 15.6223 12.1608C17.003 12.1608 18.1223 13.2801 18.1223 14.6608C18.1223 16.0415 17.003 17.1608 15.6223 17.1608C14.2416 17.1608 13.1223 16.0415 13.1223 14.6608Z" fill="#699C69"/>
<path fill-rule="evenodd" clip-rule="evenodd" d="M18.9539 16.5063C19.1491 16.311 19.4657 16.311 19.661 16.5063L22.6979 19.5432C23.348 20.1964 23.348 21.2522 22.6979 21.9054L22.6962 21.9071C22.043 22.5573 20.9872 22.5573 20.334 21.9071L17.2971 18.8702C17.1018 18.675 17.1018 18.3584 17.2971 18.1631C17.4923 17.9679 17.8089 17.9679 18.0042 18.1631L21.0394 21.1983C21.0395 21.1984 21.0393 21.1983 21.0394 21.1983C21.3022 21.4596 21.7269 21.4601 21.9899 21.1992C22.2508 20.9361 22.2507 20.5118 21.9894 20.249C21.9893 20.2489 21.9895 20.2491 21.9894 20.249L18.9539 17.2134C18.7586 17.0182 18.7586 16.7016 18.9539 16.5063Z" fill="#699C69"/>
</g>
<defs>
<clipPath id="clip0_99_329">
<rect width="24" height="24" fill="white"/>
</clipPath>
</defs>
</svg>
