<svg width="24" height="24" viewBox="0 0 24 24" fill="none" xmlns="http://www.w3.org/2000/svg">
<g clip-path="url(#clip0_99_315)">
<path d="M11.4163 5.62149L11.3909 5.70596L11.3301 5.66516C11.3248 5.66132 11.3201 5.65785 11.3163 5.65485C11.1393 5.51758 10.8926 5.51478 10.7125 5.64798L10.0804 6.11106L9.53988 6.50146L9.00421 6.88122L8.70291 7.0894L8.53381 7.20307C8.45414 7.25582 8.25391 7.25046 7.96087 7.15125C7.77173 7.08721 7.56342 6.99071 7.34692 6.87049C7.19179 6.78435 7.04206 6.69148 6.9042 6.59874L6.75623 6.49576C6.74815 6.48987 6.74121 6.48474 6.73545 6.4804C6.58345 6.36605 6.37975 6.34785 6.20989 6.43343L5.55489 6.76343C5.55867 6.76162 5.56001 6.75891 5.55886 6.75401L5.54792 6.73149L5.50306 6.65631L5.45385 6.56739C5.44434 6.54945 5.43418 6.52984 5.42336 6.5084C5.34418 6.35152 5.2894 6.18733 5.26515 6.08956C5.18714 5.77512 4.83527 5.61676 4.54818 5.76687L0.943177 7.65187C0.735812 7.7603 0.631384 7.99805 0.691826 8.22411L1.57683 11.5341C1.64448 11.7871 1.89594 11.9451 2.15326 11.8962L2.58121 11.8132L3.21619 11.6861L3.75053 11.5745L4.22531 11.4697L4.50931 11.4017L4.60836 11.376L4.62856 11.422C4.67395 11.5332 4.72007 11.6802 4.76343 11.8522C4.79428 11.9747 4.82249 12.1042 4.84787 12.2361L4.89513 12.504L4.92386 12.6981C4.93774 12.8071 4.98719 12.9086 5.06456 12.9868C5.53084 13.4577 6.08387 13.8339 6.69314 14.0946L6.78092 14.1264C6.8941 14.172 6.92821 14.2144 6.93939 14.3382L6.94406 14.4337L6.94563 14.7197L6.94978 14.8848C6.95334 14.9592 6.95945 15.0251 6.96955 15.0983C7.04213 15.6245 7.48819 15.8292 8.35679 15.936L8.59299 15.9618L8.84856 15.984C8.89278 15.9875 8.93782 15.9908 8.98367 15.9941L9.23922 16.0098C9.49576 16.0234 9.75402 16.0307 10.0026 16.033L10.0944 16.033L10.1553 17.5153C10.1608 17.6499 10.2203 17.7765 10.3204 17.8666L11.3204 18.7666L11.3673 18.8041C11.5777 18.9524 11.8718 18.9171 12.0401 18.7137L13.4959 16.9535L13.5438 17.0493L13.6929 17.3384C13.7193 17.3885 13.7464 17.4395 13.7744 17.4915C14.0084 18.0287 14.1637 18.639 14.2167 19.2623C14.2283 19.3989 14.2955 19.5248 14.4026 19.6104L17.6726 22.2255C17.7845 22.3149 17.9294 22.3521 18.0705 22.3276L18.2681 22.2895L18.3356 22.2754C18.5316 22.2337 18.728 22.186 18.9136 22.1322C19.4756 21.9694 19.8174 21.8095 19.9838 21.5044C20.1304 21.2357 20.09 20.9197 19.9047 20.4061L19.823 20.1898L19.7264 19.9503L19.6035 19.662L19.5069 19.4459L19.4075 19.2308L19.2914 18.9875L19.155 19.2249C19.6022 18.4702 19.973 17.6729 20.262 16.8447L20.3286 16.6328C20.4059 16.4022 20.4487 16.3649 20.6003 16.3478L20.6858 16.3401C20.9077 16.3226 21.017 16.3068 21.1744 16.2538C21.5498 16.1274 21.9805 15.6877 22.2607 15.2118C22.6563 14.54 22.7065 13.8583 21.9657 13.6574C21.9397 13.6503 21.8939 13.5848 21.8338 13.4496L21.786 13.3349C21.7776 13.3136 21.7691 13.2911 21.7603 13.2675L21.7054 13.1117L21.6243 12.8544L21.5775 12.6996C21.4579 12.3067 21.3785 12.097 21.2528 11.9055C21.1297 11.7181 20.9594 11.5771 20.6646 11.4242L20.5064 11.3464C20.4782 11.3332 20.4491 11.3198 20.4189 11.3063L20.2256 11.2225L19.8861 11.0849L19.1898 10.814L18.8631 10.6816L18.6856 10.605L18.5601 10.5456L18.5025 10.5145L18.4729 10.4955C18.4688 10.467 18.4661 10.4379 18.4643 10.4048L18.462 10.2935C18.4621 10.273 18.4625 10.2516 18.4632 10.2293C18.4698 10.0069 18.5026 9.71597 18.5571 9.37601C18.5866 9.19246 18.6217 8.99854 18.6614 8.79805C18.6912 8.64759 18.7224 8.49876 18.7541 8.35451L18.8182 8.07117L18.8649 7.87623C18.906 7.71208 18.8612 7.53832 18.746 7.41443L17.681 6.26943L17.632 6.22336C17.4945 6.1105 17.3052 6.0782 17.136 6.14305L16.1534 6.51946L15.9559 6.28653C15.7504 6.03842 15.5541 5.78279 15.3673 5.52016C15.1025 5.07431 14.8226 5.02094 14.1843 5.1612L13.9918 5.20637L13.8048 5.25347L13.6673 5.28534C13.6264 5.29402 13.5896 5.3009 13.5542 5.30649L13.5018 5.31395C13.4233 5.32392 13.4118 5.32522 13.3623 5.27621L13.2507 5.16049C13.0709 4.97691 12.9041 4.86672 12.6606 4.81921C12.0398 4.69807 11.6087 5.02015 11.4163 5.62149ZM12.4183 5.80383L12.4302 5.79014L12.4396 5.79407L12.4739 5.80239L12.4918 5.81631L12.5326 5.85635L12.6145 5.94191C12.8941 6.22933 13.1866 6.36206 13.6279 6.30597C13.7319 6.29275 13.8275 6.27511 13.9433 6.24851L14.3952 6.13716L14.4746 6.12064L14.5323 6.11231L14.5624 6.10996L14.5307 6.06644C14.8874 6.57073 15.2509 7.02076 15.6408 7.44732L15.6898 7.49413C15.8275 7.60888 16.0182 7.64222 16.1887 7.57686L17.1779 7.19746L17.8309 7.89946L17.8273 7.91796C17.7772 8.13577 17.7272 8.36756 17.6804 8.60398C17.6385 8.8157 17.6012 9.02133 17.5697 9.21758L17.5473 9.36122L17.5091 9.63058C17.4142 10.3607 17.4363 10.8139 17.6654 11.0985L17.7131 11.1553L17.762 11.2073C17.7704 11.2157 17.7789 11.2239 17.7876 11.232L17.8425 11.2793C17.8715 11.3025 17.903 11.325 17.9383 11.3476L18.0145 11.3933C18.0282 11.4009 18.0424 11.4087 18.0572 11.4165L18.1529 11.4649L18.2646 11.5165L18.467 11.6031L18.9159 11.7817L19.3883 11.9642L19.7169 12.0963L19.9011 12.1746L20.0575 12.2448L20.186 12.3066C20.3198 12.3739 20.3967 12.4236 20.4169 12.4544C20.4411 12.4912 20.4661 12.5423 20.4944 12.6138L20.5396 12.7374L20.5917 12.8964L20.6901 13.2195L20.7274 13.3394C20.925 13.9618 21.1046 14.3209 21.43 14.5106L21.4834 14.539L21.481 14.5459C21.4604 14.5928 21.4329 14.6467 21.399 14.7044C21.2293 14.9926 20.9551 15.2725 20.8553 15.3061L20.8069 15.3196C20.7982 15.3215 20.7891 15.3233 20.7792 15.325L20.7088 15.3342L20.607 15.3432C19.9367 15.3962 19.5755 15.6694 19.3116 16.534C19.0507 17.2807 18.708 18.0176 18.2947 18.7151C18.2074 18.8624 18.2016 19.0441 18.2792 19.1967L18.4062 19.4542C18.5023 19.6532 18.5985 19.8602 18.6878 20.0638C18.7283 20.1559 18.7664 20.2453 18.8019 20.3314C18.9056 20.583 18.9834 20.7983 19.0283 20.9617L19.0452 21.0258C18.9435 21.0733 18.8029 21.1231 18.6354 21.1717L18.4714 21.2166L18.3012 21.2585L18.1154 21.2995L15.1904 18.9605L15.2131 19.1776C15.1508 18.4449 14.9682 17.7274 14.6727 17.054L14.5308 16.7837L14.4076 16.5412L14.3011 16.3233L14.1826 16.0675L14.1074 15.8931L14.0878 15.8438L14.0622 15.7865C13.9006 15.4768 13.4658 15.4218 13.2346 15.7012L11.6014 17.6745L11.1459 17.264L11.0744 15.5096C11.0641 15.256 10.8664 15.0537 10.6195 15.0319L10.4688 15.0319C10.0336 15.0383 9.52934 15.0303 9.05443 14.9966C8.65695 14.9684 8.32731 14.9243 8.09657 14.8654L7.98264 14.8322L7.94786 14.8195L7.94531 14.6189L7.94497 14.4853C7.93729 13.8069 7.71836 13.3826 7.04701 13.1603L6.89696 13.0913C6.59764 12.9456 6.30403 12.7535 6.03512 12.5243L5.88986 12.3945L5.86985 12.2689C5.83199 12.0447 5.7866 11.8201 5.73311 11.6079L5.68046 11.4088C5.67153 11.3768 5.66252 11.3454 5.65341 11.3146L5.59739 11.1372C5.38651 10.5144 5.11027 10.199 4.59242 10.3391L4.39038 10.3995L4.269 10.431L3.95028 10.5067L3.43117 10.6201L2.70445 10.7693L2.42236 10.825L1.76136 8.35246L4.50936 6.91546L4.53062 6.95898L4.57149 7.03676C4.89167 7.62206 5.36959 7.94859 5.98853 7.66433L6.39436 7.45996L6.34603 7.42846C6.50616 7.53619 6.67963 7.64379 6.86146 7.74475C7.12674 7.89205 7.38773 8.01296 7.64017 8.09843C8.19699 8.28696 8.68833 8.30011 9.08591 8.03685L9.46493 7.779L9.93801 7.44601L10.3932 7.11943L11.0344 6.65246L10.9575 6.61189C11.0616 6.67073 11.1662 6.71889 11.273 6.75268C11.7589 6.90639 12.237 6.70962 12.3244 6.1237C12.3493 5.95659 12.3861 5.85124 12.4183 5.80383Z" fill="#4195B9"/>
</g>
<defs>
<clipPath id="clip0_99_315">
<rect width="24" height="24" fill="white"/>
</clipPath>
</defs>
</svg>
