<svg width="24" height="24" viewBox="0 0 24 24" fill="none" xmlns="http://www.w3.org/2000/svg">
<g clip-path="url(#clip0_99_308)">
<path d="M5.14457 5.9971C5.39993 5.9738 5.62793 6.14682 5.67929 6.39183L5.68794 6.4496L5.93794 9.1896C5.9461 9.2791 5.92996 9.36873 5.89181 9.44921L5.8591 9.50771L5.1141 10.6527C4.9635 10.8842 4.65378 10.9497 4.42232 10.7991C4.20739 10.6593 4.13552 10.3822 4.24693 10.1581L4.27591 10.1073L4.926 9.10703L4.69207 6.54046C4.66877 6.2851 4.84179 6.0571 5.08681 6.00574L5.14457 5.9971Z" fill="#4195B9"/>
<path d="M10.2005 5.49536C10.4567 5.50583 10.6599 5.70732 10.6787 5.95696L10.6796 6.01536L10.5946 8.09536C10.5919 8.16281 10.5755 8.22877 10.5467 8.28934L10.5139 8.34798L9.26892 10.258C9.1667 10.4148 8.98673 10.4999 8.80367 10.4828L8.74264 10.4733L5.33264 9.72327C5.06295 9.66396 4.8924 9.39724 4.95172 9.12754C5.0068 8.87711 5.24071 8.71217 5.48978 8.73738L5.54745 8.74662L8.61955 9.42244L9.60055 7.91694L9.68046 5.97453C9.69093 5.71832 9.89242 5.51505 10.1421 5.49634L10.2005 5.49536Z" fill="#4195B9"/>
<path d="M15.5981 6.31093C15.766 6.09173 16.0799 6.05017 16.2991 6.21811C16.5014 6.37314 16.5524 6.65248 16.4269 6.86695L16.3919 6.9191L15.1469 8.5441C15.0608 8.6565 14.9317 8.72635 14.7925 8.73821L14.7323 8.7397L10.0773 8.5747C9.8013 8.56492 9.58551 8.33327 9.59529 8.0573C9.60437 7.80105 9.80476 7.59668 10.0543 7.57663L10.1127 7.57533L14.51 7.73102L15.5981 6.31093Z" fill="#4195B9"/>
<path d="M8.50141 9.62651C8.68416 9.44881 8.96794 9.43893 9.16193 9.59417L9.20845 9.63642L12.1984 12.7114C12.2699 12.7849 12.3167 12.8782 12.3333 12.9783L12.3395 13.0391L12.5095 17.1141C12.5211 17.39 12.3067 17.623 12.0308 17.6346C11.7746 17.6452 11.5554 17.4612 11.5162 17.2139L11.5104 17.1558L11.348 13.271L8.4915 10.3335C8.3138 10.1508 8.30392 9.86702 8.45916 9.67303L8.50141 9.62651Z" fill="#4195B9"/>
<path d="M14.7685 7.74036C15.0248 7.74985 15.2288 7.95056 15.2485 8.20012L15.2497 8.25852L15.1697 10.4185C15.1574 10.7496 14.8323 10.9775 14.5169 10.876L14.4301 10.8503L14.3109 10.8192L14.1612 10.7844L13.9828 10.7476C13.0005 10.557 11.9575 10.5478 10.9966 10.8344C10.7053 10.9213 10.4284 11.0343 10.1674 11.1751C9.92434 11.3062 9.62104 11.2154 9.48996 10.9724C9.35887 10.7293 9.44963 10.426 9.69267 10.2949C10.0153 10.1209 10.3555 9.98209 10.7108 9.87613C11.7778 9.55789 12.8967 9.54728 13.9611 9.72735L14.1925 9.76951L14.2504 8.22151C14.2599 7.96527 14.4606 7.76122 14.7101 7.74156L14.7685 7.74036Z" fill="#4195B9"/>
<path d="M17.7115 9.58387C17.9331 9.41903 18.2463 9.465 18.4112 9.68655C18.5633 9.89105 18.5358 10.1737 18.3565 10.3456L18.3085 10.3862L16.6285 11.6362C16.532 11.7079 16.4136 11.7421 16.295 11.7338L16.2357 11.726L14.9365 11.4765L14.9308 11.493C14.875 11.6409 14.8044 11.7986 14.717 11.9591L14.6482 12.0799C14.2834 12.6938 13.7679 13.1175 13.0805 13.2243L12.3364 13.333L12.0573 13.369L11.835 13.3916L11.76 13.395C11.4839 13.395 11.26 13.1712 11.26 12.895C11.26 12.6386 11.453 12.4273 11.7017 12.3984L11.785 12.3937L12.0397 12.3641L12.315 12.3265L12.9282 12.2359C13.2799 12.1813 13.563 11.9487 13.7886 11.569C13.8887 11.4006 13.969 11.2164 14.03 11.032L14.0661 10.9152L14.0946 10.8025C14.1444 10.5522 14.3731 10.3828 14.6216 10.4013L14.6793 10.409L16.208 10.702L17.7115 9.58387Z" fill="#4195B9"/>
<path d="M16.026 13.4716C16.1223 13.211 16.4099 13.0824 16.6644 13.1745L16.7183 13.1976L20.2133 14.9426C20.4604 15.066 20.5607 15.3662 20.4373 15.6133C20.3228 15.8427 20.0557 15.9456 19.8203 15.8603L19.7666 15.8373L16.77 14.341L15.3039 18.3083C15.215 18.5488 14.9607 18.6801 14.7174 18.621L14.6616 18.6039C14.4211 18.515 14.2898 18.2607 14.3489 18.0174L14.366 17.9616L16.026 13.4716Z" fill="#4195B9"/>
<path d="M14.4208 11.2737C14.6127 11.1059 14.8966 11.1109 15.0821 11.2762L15.1264 11.3208L16.8714 13.3158C17.0532 13.5237 17.032 13.8396 16.8242 14.0214C16.6323 14.1892 16.3484 14.1841 16.1629 14.0189L16.1187 13.9742L14.3737 11.9792C14.1919 11.7714 14.213 11.4555 14.4208 11.2737Z" fill="#4195B9"/>
<path d="M11.4164 5.12149L11.391 5.20596L11.3302 5.16516C11.3249 5.16132 11.3203 5.15785 11.3164 5.15485C11.1394 5.01758 10.8927 5.01478 10.7126 5.14798L10.0805 5.61106L9.54 6.00146L9.00433 6.38122L8.70303 6.5894L8.53393 6.70307C8.45426 6.75582 8.25403 6.75046 7.96099 6.65125C7.77185 6.58721 7.56355 6.49071 7.34704 6.37049C7.19191 6.28435 7.04218 6.19148 6.90433 6.09874L6.75635 5.99576C6.74828 5.98987 6.74133 5.98474 6.73557 5.9804C6.58357 5.86605 6.37987 5.84785 6.21001 5.93343L5.55501 6.26343C5.55879 6.26162 5.56013 6.25891 5.55898 6.25401L5.54804 6.23149L5.50318 6.15631L5.45397 6.06739C5.44446 6.04945 5.4343 6.02984 5.42348 6.0084C5.3443 5.85152 5.28952 5.68733 5.26527 5.58956C5.18726 5.27512 4.83539 5.11676 4.5483 5.26687L0.943299 7.15187C0.735934 7.2603 0.631506 7.49805 0.691948 7.72411L1.57695 11.0341C1.6446 11.2871 1.89606 11.4451 2.15338 11.3962L2.58133 11.3132L3.21631 11.1861L3.75065 11.0745L4.22544 10.9697L4.50943 10.9017L4.60848 10.876L4.62869 10.922C4.67407 11.0332 4.72019 11.1802 4.76355 11.3522C4.7944 11.4747 4.82261 11.6042 4.848 11.7361L4.89526 12.004L4.92398 12.1981C4.93786 12.3071 4.98731 12.4086 5.06468 12.4868C5.53096 12.9577 6.084 13.3339 6.69326 13.5946L6.78104 13.6264C6.89422 13.672 6.92833 13.7144 6.93951 13.8382L6.94418 13.9337L6.94575 14.2197L6.9499 14.3848C6.95346 14.4592 6.95957 14.5251 6.96967 14.5983C7.04225 15.1245 7.48831 15.3292 8.35691 15.436L8.59312 15.4618L8.84869 15.484C8.89291 15.4875 8.93794 15.4908 8.98379 15.4941L9.23934 15.5098C9.49588 15.5234 9.75414 15.5307 10.0027 15.533L10.0945 15.533L10.1554 17.0153C10.1609 17.1499 10.2204 17.2765 10.3205 17.3666L11.3205 18.2666L11.3675 18.3041C11.5778 18.4524 11.8719 18.4171 12.0402 18.2137L13.496 16.4535L13.5439 16.5493L13.693 16.8384C13.7194 16.8885 13.7466 16.9395 13.7745 16.9915C14.0085 17.5287 14.1638 18.139 14.2168 18.7623C14.2284 18.8989 14.2956 19.0248 14.4027 19.1104L17.6727 21.7255C17.7846 21.8149 17.9295 21.8521 18.0707 21.8276L18.2682 21.7895L18.3357 21.7754C18.5317 21.7337 18.7281 21.686 18.9137 21.6322C19.4757 21.4694 19.8175 21.3095 19.9839 21.0044C20.1305 20.7357 20.0901 20.4197 19.9049 19.9061L19.8231 19.6898L19.7265 19.4503L19.6037 19.162L19.507 18.9459L19.4076 18.7308L19.2915 18.4875L19.1551 18.7249C19.6023 17.9702 19.9731 17.1729 20.2621 16.3447L20.3287 16.1328C20.406 15.9022 20.4488 15.8649 20.6004 15.8478L20.6859 15.8401C20.9078 15.8226 21.0171 15.8068 21.1745 15.7538C21.5499 15.6274 21.9806 15.1877 22.2608 14.7118C22.6564 14.04 22.7067 13.3583 21.9658 13.1574C21.9398 13.1503 21.8941 13.0848 21.8339 12.9496L21.7861 12.8349C21.7778 12.8136 21.7692 12.7911 21.7604 12.7675L21.7055 12.6117L21.6244 12.3544L21.5776 12.1996C21.458 11.8067 21.3787 11.597 21.2529 11.4055C21.1299 11.2181 20.9595 11.0771 20.6647 10.9242L20.5065 10.8464C20.4783 10.8332 20.4492 10.8198 20.419 10.8063L20.2257 10.7225L19.8862 10.5849L19.1899 10.314L18.8633 10.1816L18.6858 10.105L18.5602 10.0456L18.5026 10.0145L18.473 9.99546C18.4689 9.96698 18.4662 9.93794 18.4644 9.90481L18.4621 9.79348C18.4622 9.773 18.4626 9.75159 18.4633 9.72929C18.4699 9.50694 18.5027 9.21597 18.5572 8.87601C18.5867 8.69246 18.6219 8.49854 18.6615 8.29805C18.6913 8.14759 18.7225 7.99876 18.7542 7.85451L18.8183 7.57117L18.8651 7.37623C18.9061 7.21208 18.8613 7.03832 18.7461 6.91443L17.6811 5.76943L17.6321 5.72336C17.4946 5.6105 17.3054 5.5782 17.1361 5.64305L16.1535 6.01946L15.956 5.78653C15.7506 5.53842 15.5542 5.28279 15.3674 5.02016C15.1026 4.57431 14.8227 4.52094 14.1844 4.6612L13.9919 4.70637L13.8049 4.75347L13.6674 4.78534C13.6265 4.79402 13.5897 4.8009 13.5543 4.80649L13.5019 4.81395C13.4235 4.82392 13.412 4.82522 13.3624 4.77621L13.2508 4.66049C13.071 4.47691 12.9042 4.36672 12.6607 4.31921C12.0399 4.19807 11.6088 4.52015 11.4164 5.12149ZM12.4184 5.30383L12.4303 5.29014L12.4397 5.29407L12.474 5.30239L12.492 5.31631L12.5327 5.35635L12.6146 5.44191C12.8942 5.72933 13.1868 5.86206 13.628 5.80597C13.732 5.79275 13.8276 5.77511 13.9434 5.74851L14.3953 5.63716L14.4748 5.62064L14.5324 5.61231L14.5625 5.60996L14.5308 5.56644C14.8875 6.07073 15.251 6.52076 15.6409 6.94732L15.6899 6.99413C15.8276 7.10888 16.0183 7.14222 16.1889 7.07686L17.178 6.69746L17.831 7.39946L17.8274 7.41796C17.7773 7.63577 17.7273 7.86756 17.6805 8.10398C17.6386 8.3157 17.6014 8.52133 17.5699 8.71758L17.5474 8.86122L17.5092 9.13058C17.4143 9.86068 17.4364 10.3139 17.6655 10.5985L17.7132 10.6553L17.7621 10.7073C17.7705 10.7157 17.779 10.7239 17.7877 10.732L17.8426 10.7793C17.8716 10.8025 17.9031 10.825 17.9384 10.8476L18.0146 10.8933C18.0283 10.9009 18.0425 10.9087 18.0573 10.9165L18.1531 10.9649L18.2648 11.0165L18.4671 11.1031L18.9161 11.2817L19.3884 11.4642L19.717 11.5963L19.9012 11.6746L20.0576 11.7448L20.1862 11.8066C20.3199 11.8739 20.3968 11.9236 20.417 11.9544C20.4412 11.9912 20.4662 12.0423 20.4945 12.1138L20.5398 12.2374L20.5918 12.3964L20.6902 12.7195L20.7275 12.8394C20.9251 13.4618 21.1047 13.8209 21.4301 14.0106L21.4835 14.039L21.4811 14.0459C21.4605 14.0928 21.4331 14.1467 21.3991 14.2044C21.2294 14.4926 20.9553 14.7725 20.8554 14.8061L20.807 14.8196C20.7983 14.8215 20.7892 14.8233 20.7794 14.825L20.7089 14.8342L20.6072 14.8432C19.9368 14.8962 19.5756 15.1694 19.3118 16.034C19.0508 16.7807 18.7081 17.5176 18.2948 18.2151C18.2075 18.3624 18.2017 18.5441 18.2794 18.6967L18.4063 18.9542C18.5025 19.1532 18.5986 19.3602 18.688 19.5638C18.7284 19.6559 18.7665 19.7453 18.802 19.8314C18.9057 20.083 18.9836 20.2983 19.0284 20.4617L19.0453 20.5258C18.9437 20.5733 18.803 20.6231 18.6355 20.6717L18.4715 20.7166L18.3013 20.7585L18.1155 20.7995L15.1905 18.4605L15.2132 18.6776C15.1509 17.9449 14.9684 17.2274 14.6728 16.554L14.531 16.2837L14.4078 16.0412L14.3013 15.8233L14.1828 15.5675L14.1075 15.3931L14.0879 15.3438L14.0623 15.2865C13.9008 14.9768 13.4659 14.9218 13.2347 15.2012L11.6015 17.1745L11.146 16.764L11.0746 15.0096C11.0642 14.756 10.8666 14.5537 10.6196 14.5319L10.4689 14.5319C10.0337 14.5383 9.52947 14.5303 9.05456 14.4966C8.65707 14.4684 8.32743 14.4243 8.09669 14.3654L7.98277 14.3322L7.94798 14.3195L7.94543 14.1189L7.94509 13.9853C7.93741 13.3069 7.71848 12.8826 7.04713 12.6603L6.89708 12.5913C6.59776 12.4456 6.30415 12.2535 6.03524 12.0243L5.88998 11.8945L5.86997 11.7689C5.83212 11.5447 5.78672 11.3201 5.73323 11.1079L5.68058 10.9088C5.67166 10.8768 5.66265 10.8454 5.65354 10.8146L5.59751 10.6372C5.38663 10.0144 5.1104 9.69897 4.59255 9.83915L4.3905 9.89948L4.26913 9.931L3.9504 10.0067L3.43129 10.1201L2.70457 10.2693L2.42248 10.325L1.76148 7.85246L4.50948 6.41546L4.53075 6.45898L4.57161 6.53676C4.89179 7.12206 5.36971 7.44859 5.98866 7.16433L6.39448 6.95996L6.34615 6.92846C6.50628 7.03619 6.67976 7.14379 6.86158 7.24475C7.12686 7.39205 7.38785 7.51296 7.64029 7.59843C8.19711 7.78696 8.68845 7.80011 9.08603 7.53685L9.46505 7.279L9.93813 6.94601L10.3933 6.61943L11.0345 6.15246L10.9576 6.11189C11.0617 6.17073 11.1663 6.21889 11.2732 6.25268C11.759 6.40639 12.2371 6.20962 12.3245 5.6237C12.3494 5.45659 12.3863 5.35124 12.4184 5.30383Z" fill="#4195B9"/>
</g>
<defs>
<clipPath id="clip0_99_308">
<rect width="24" height="24" fill="white"/>
</clipPath>
</defs>
</svg>
