<svg width="24" height="24" viewBox="0 0 24 24" fill="none" xmlns="http://www.w3.org/2000/svg">
<g clip-path="url(#clip0_99_103)">
<path fill-rule="evenodd" clip-rule="evenodd" d="M11 17.25C11 16.9739 11.2239 16.75 11.5 16.75H16.5C16.7761 16.75 17 16.9739 17 17.25C17 17.5261 16.7761 17.75 16.5 17.75H11.5C11.2239 17.75 11 17.5261 11 17.25Z" fill="#4195B9"/>
<path fill-rule="evenodd" clip-rule="evenodd" d="M5 6C5 5.72386 5.22386 5.5 5.5 5.5H15.3261C20.1157 5.5 24 9.37574 24 14.1587V17C24 17.2761 23.7761 17.5 23.5 17.5H21.2687C20.9926 17.5 20.7687 17.2761 20.7687 17C20.7687 16.7239 20.9926 16.5 21.2687 16.5H23V14.1587C23 9.92977 19.5652 6.5 15.3261 6.5H5.5C5.22386 6.5 5 6.27614 5 6Z" fill="#4195B9"/>
<path fill-rule="evenodd" clip-rule="evenodd" d="M7.99967 16C7.17176 16 6.5 16.6716 6.5 17.5C6.5 18.3284 7.17176 19 7.99967 19C8.82834 19 9.5 18.3283 9.5 17.5C9.5 16.6717 8.82834 16 7.99967 16ZM5.5 17.5C5.5 16.1193 6.61942 15 7.99967 15C9.38047 15 10.5 16.1192 10.5 17.5C10.5 18.8808 9.38047 20 7.99967 20C6.61942 20 5.5 18.8807 5.5 17.5Z" fill="#4195B9"/>
<path fill-rule="evenodd" clip-rule="evenodd" d="M18.9997 16C18.1718 16 17.5 16.6716 17.5 17.5C17.5 18.3284 18.1718 19 18.9997 19C19.8283 19 20.5 18.3283 20.5 17.5C20.5 16.6717 19.8283 16 18.9997 16ZM16.5 17.5C16.5 16.1193 17.6194 15 18.9997 15C20.3805 15 21.5 16.1192 21.5 17.5C21.5 18.8808 20.3805 20 18.9997 20C17.6194 20 16.5 18.8807 16.5 17.5Z" fill="#4195B9"/>
<path fill-rule="evenodd" clip-rule="evenodd" d="M15 5.5C15.2761 5.5 15.5 5.72386 15.5 6V10.0174C15.5 10.5519 15.9433 11 16.5088 11H22.5C22.7761 11 23 11.2239 23 11.5C23 11.7761 22.7761 12 22.5 12H16.5088C15.4076 12 14.5 11.1206 14.5 10.0174V6C14.5 5.72386 14.7239 5.5 15 5.5Z" fill="#4195B9"/>
<path fill-rule="evenodd" clip-rule="evenodd" d="M3 14.5C3.27614 14.5 3.5 14.7239 3.5 15C3.5 16.1046 4.39541 17 5.5 17C5.77614 17 6 17.2239 6 17.5C6 17.7761 5.77614 18 5.5 18C3.84312 18 2.5 16.6569 2.5 15C2.5 14.7239 2.72386 14.5 3 14.5Z" fill="#4195B9"/>
<path fill-rule="evenodd" clip-rule="evenodd" d="M0.25 8.25C0.25 7.97386 0.473858 7.75 0.75 7.75H5.25C5.52614 7.75 5.75 7.97386 5.75 8.25C5.75 8.52614 5.52614 8.75 5.25 8.75H0.75C0.473858 8.75 0.25 8.52614 0.25 8.25Z" fill="#699C69"/>
<path fill-rule="evenodd" clip-rule="evenodd" d="M2.25 10.25C2.25 9.97386 2.47386 9.75 2.75 9.75H7.25C7.52614 9.75 7.75 9.97386 7.75 10.25C7.75 10.5261 7.52614 10.75 7.25 10.75H2.75C2.47386 10.75 2.25 10.5261 2.25 10.25Z" fill="#699C69"/>
<path fill-rule="evenodd" clip-rule="evenodd" d="M0.25 12.25C0.25 11.9739 0.473858 11.75 0.75 11.75H5.25C5.52614 11.75 5.75 11.9739 5.75 12.25C5.75 12.5261 5.52614 12.75 5.25 12.75H0.75C0.473858 12.75 0.25 12.5261 0.25 12.25Z" fill="#699C69"/>
</g>
<defs>
<clipPath id="clip0_99_103">
<rect width="24" height="24" fill="white"/>
</clipPath>
</defs>
</svg>
