<svg width="24" height="24" viewBox="0 0 24 24" fill="none" xmlns="http://www.w3.org/2000/svg">
<path fill-rule="evenodd" clip-rule="evenodd" d="M4.84117 14.8414C5.07972 14.8414 5.2731 15.0291 5.2731 15.2605C5.2731 15.492 5.07972 15.6796 4.84117 15.6796L3.29 15.679L3.58779 17.1476C3.68936 17.6486 4.11497 18.0205 4.62823 18.0748L4.75824 18.0816L5.68958 18.0811C5.88115 16.8653 6.96358 15.9339 8.2702 15.9339C9.71194 15.9339 10.8808 17.0681 10.8808 18.467C10.8808 19.8659 9.71196 21 8.2702 21C6.98754 21 5.92094 20.1026 5.70102 18.9196L4.75824 18.9198C3.77535 18.9198 2.92989 18.2451 2.74018 17.3094L2.409 15.679L1.71702 15.6796C1.50498 15.6796 1.32862 15.5314 1.29205 15.3359L1.28509 15.2605C1.28509 15.0291 1.47847 14.8414 1.71702 14.8414H4.84117ZM14.6152 6C14.8934 6 15.1689 6.01175 15.441 6.03477C15.499 6.04003 15.5575 6.04555 15.6159 6.05159C15.6443 6.05408 15.6725 6.05711 15.7008 6.06027C15.7458 6.0658 15.7904 6.07114 15.8351 6.07679C17.4617 6.28105 18.9578 6.89019 20.2127 7.79635C20.2463 7.82141 20.2802 7.8462 20.3139 7.8712C20.3511 7.89811 20.3877 7.92573 20.4241 7.95361C20.4482 7.97261 20.4723 7.99125 20.4963 8.00999C20.5431 8.04599 20.5894 8.08284 20.6352 8.12011C20.6551 8.13669 20.6752 8.15307 20.6951 8.16953C20.7341 8.20137 20.7726 8.2337 20.8109 8.26633C20.9095 8.35067 21.0065 8.43695 21.1016 8.52519C21.1429 8.56345 21.1835 8.60182 21.2237 8.64054C21.2405 8.65661 21.2575 8.67314 21.2745 8.68974C21.3116 8.72601 21.3482 8.76238 21.3844 8.79903C21.419 8.8338 21.4527 8.86836 21.4861 8.90319C21.5088 8.927 21.5315 8.95094 21.5541 8.97499C21.5899 9.01282 21.6252 9.05111 21.6603 9.08971C21.6788 9.11044 21.6974 9.13112 21.7159 9.15188C21.7533 9.19347 21.7902 9.23562 21.8267 9.2781C21.8448 9.29949 21.8626 9.32044 21.8804 9.34146C21.9213 9.38964 21.9618 9.43872 22.0018 9.48822C22.7399 10.4008 23.3025 11.4538 23.6398 12.5989L23.77 13.0231L23.7534 13.0234C23.9147 13.6923 24 14.3895 24 15.1062V16.88C24 17.9821 23.0792 18.8756 21.9433 18.8756L20.991 18.8759C20.7895 20.0804 19.7125 21 18.4142 21C17.1158 21 16.0389 20.0804 15.8375 18.8759L12.921 18.8756C12.6825 18.8756 12.4891 18.688 12.4891 18.4565C12.4891 18.225 12.6825 18.0374 12.921 18.0374L15.8411 18.0372C16.0514 16.843 17.1234 15.9339 18.4142 15.9339C19.705 15.9339 20.777 16.843 20.9874 18.0373L21.9433 18.0374C22.6021 18.0374 23.1361 17.5192 23.1361 16.88V15.1062C23.1361 14.3866 23.0414 13.6886 22.8634 13.0231H15.944C14.877 13.0231 14.0121 12.1839 14.0121 11.1487L14.012 6.838L12.9444 6.83818L12.8667 6.83143C12.6652 6.79595 12.5124 6.62483 12.5124 6.41909C12.5124 6.18763 12.7058 6 12.9444 6H14.6152ZM8.2702 16.7721C7.30545 16.7721 6.52333 17.531 6.52333 18.467C6.52333 19.403 7.30541 20.1618 8.2702 20.1618C9.23486 20.1618 10.0169 19.403 10.0169 18.467C10.0169 17.531 9.23483 16.7721 8.2702 16.7721ZM18.4142 16.7721C17.4495 16.7721 16.6675 17.5309 16.6675 18.467C16.6675 19.4031 17.4495 20.1618 18.4142 20.1618C19.3789 20.1618 20.161 19.403 20.161 18.467C20.161 17.531 19.3789 16.7721 18.4142 16.7721ZM7.27499 12.4505C7.51354 12.4505 7.70692 12.6381 7.70692 12.8696C7.70692 13.101 7.51354 13.2887 7.27499 13.2887H0.43193C0.193382 13.2887 0 13.101 0 12.8696C0 12.6381 0.193382 12.4505 0.43193 12.4505H7.27499ZM14.876 6.84209V11.1487C14.876 11.721 15.3541 12.1849 15.944 12.1849H22.5875C21.3831 9.08643 18.3546 6.94442 14.876 6.84209Z" fill="#4195B9"/>
<path fill-rule="evenodd" clip-rule="evenodd" d="M13 2C11.353 5.83127 7.49036 9.76179 4.37837 10.7651C1.25932 11.7702 0.089543 9.45626 1.76375 5.60632L2.8443 5.25873C1.7488 7.7799 2.51493 9.2949 4.55856 8.63713C6.59753 7.98165 9.12889 5.40749 10.2138 2.89364L13 2ZM7 3.8C6.45568 5.10529 5.18664 6.44081 4.1641 6.78061C3.14179 7.12091 2.75905 6.33571 3.30728 5.02758L7 3.8Z" fill="#699C69"/>
</svg>
