<svg width="24" height="24" viewBox="0 0 24 24" fill="none" xmlns="http://www.w3.org/2000/svg">
<path fill-rule="evenodd" clip-rule="evenodd" d="M10 17.75C10 17.4739 10.2239 17.25 10.5 17.25H16C16.2761 17.25 16.5 17.4739 16.5 17.75C16.5 18.0261 16.2761 18.25 16 18.25H10.5C10.2239 18.25 10 18.0261 10 17.75Z" fill="#4195B9"/>
<path fill-rule="evenodd" clip-rule="evenodd" d="M0.5 5.5C0.5 5.22386 0.723858 5 1 5H14.5314C19.7512 5 24 9.14934 24 14.2891V17.3499C24 17.626 23.7761 17.8499 23.5 17.8499H21.0518C20.7756 17.8499 20.5518 17.626 20.5518 17.3499C20.5518 17.0737 20.7756 16.8499 21.0518 16.8499H23V14.2891C23 9.72059 19.2181 6 14.5314 6H1.5V15.0078C1.5 16.0986 2.40514 17 3.54312 17C3.81926 17 4.04312 17.2239 4.04312 17.5C4.04312 17.7761 3.81926 18 3.54312 18C1.87201 18 0.5 16.6698 0.5 15.0078V5.5Z" fill="#4195B9"/>
<path fill-rule="evenodd" clip-rule="evenodd" d="M6.24963 16C5.28371 16 4.5 16.7835 4.5 17.75C4.5 18.7165 5.28371 19.5 6.24963 19.5C7.2164 19.5 8 18.7164 8 17.75C8 16.7836 7.2164 16 6.24963 16ZM3.5 17.75C3.5 16.2313 4.73137 15 6.24963 15C7.76853 15 9 16.2312 9 17.75C9 19.2688 7.76853 20.5 6.24963 20.5C4.73137 20.5 3.5 19.2687 3.5 17.75Z" fill="#4195B9"/>
<path fill-rule="evenodd" clip-rule="evenodd" d="M18.7496 16C17.7837 16 17 16.7835 17 17.75C17 18.7165 17.7837 19.5 18.7496 19.5C19.7164 19.5 20.5 18.7164 20.5 17.75C20.5 16.7836 19.7164 16 18.7496 16ZM16 17.75C16 16.2313 17.2314 15 18.7496 15C20.2685 15 21.5 16.2312 21.5 17.75C21.5 19.2688 20.2685 20.5 18.7496 20.5C17.2314 20.5 16 19.2687 16 17.75Z" fill="#4195B9"/>
<path fill-rule="evenodd" clip-rule="evenodd" d="M14.5 5C14.7761 5 15 5.22386 15 5.5V9.88262C15 10.5021 15.499 11 16.1094 11H22.5C22.7761 11 23 11.2239 23 11.5C23 11.7761 22.7761 12 22.5 12H16.1094C14.942 12 14 11.0497 14 9.88262V5.5C14 5.22386 14.2239 5 14.5 5Z" fill="#4195B9"/>
<path d="M7.55039 8.4498C7.15039 9.2498 6.30039 10.0998 5.55039 10.3498C4.80039 10.5998 4.55039 10.0498 4.95039 9.2498L7.55039 8.4498ZM11.5504 7.2998C10.4004 9.7998 7.80039 12.3498 5.65039 13.0498C3.50039 13.6998 2.70039 12.1998 3.85039 9.6998L4.60039 9.4498C3.85039 11.0998 4.35039 12.0998 5.80039 11.6498C7.20039 11.1998 8.90039 9.5498 9.65039 7.8998L11.5504 7.2998Z" fill="#699C69"/>
</svg>
