<svg width="24" height="24" viewBox="0 0 24 24" fill="none" xmlns="http://www.w3.org/2000/svg">
<path fill-rule="evenodd" clip-rule="evenodd" d="M5.50175 2.89978C4.77223 2.89978 4.17798 3.49362 4.17798 4.22955V4.43145C4.17798 5.16737 4.77223 5.76121 5.50175 5.76121H7.25372V2.89978H5.50175ZM3.17798 4.22955C3.17798 2.94443 4.21685 1.89978 5.50175 1.89978H7.75372C8.02986 1.89978 8.25372 2.12364 8.25372 2.39978V6.26121C8.25372 6.53735 8.02986 6.76121 7.75372 6.76121H5.50175C4.21685 6.76121 3.17798 5.71656 3.17798 4.43145V4.22955Z" fill="#699C69"/>
<path fill-rule="evenodd" clip-rule="evenodd" d="M7.44409 3.56311C7.44409 3.28697 7.66795 3.06311 7.94409 3.06311H9.50963C9.78577 3.06311 10.0096 3.28697 10.0096 3.56311C10.0096 3.83925 9.78577 4.06311 9.50963 4.06311H7.94409C7.66795 4.06311 7.44409 3.83925 7.44409 3.56311Z" fill="#699C69"/>
<path fill-rule="evenodd" clip-rule="evenodd" d="M7.44409 5.09363C7.44409 4.81749 7.66795 4.59363 7.94409 4.59363H9.50963C9.78577 4.59363 10.0096 4.81749 10.0096 5.09363C10.0096 5.36977 9.78577 5.59363 9.50963 5.59363H7.94409C7.66795 5.59363 7.44409 5.36977 7.44409 5.09363Z" fill="#699C69"/>
<path fill-rule="evenodd" clip-rule="evenodd" d="M0.101562 7.31508C0.101562 5.33621 1.70078 3.72937 3.67715 3.72937C3.9533 3.72937 4.17715 3.95323 4.17715 4.22937C4.17715 4.50551 3.9533 4.72937 3.67715 4.72937C2.25616 4.72937 1.10156 5.8854 1.10156 7.31508V10.379C1.10156 11.8082 2.25621 12.9647 3.67715 12.9647H3.79568C4.07182 12.9647 4.29568 13.1886 4.29568 13.4647C4.29568 13.7409 4.07182 13.9647 3.79568 13.9647H3.67715C1.70072 13.9647 0.101562 12.3573 0.101562 10.379V7.31508Z" fill="#699C69"/>
<path fill-rule="evenodd" clip-rule="evenodd" d="M11.6984 19.0674C11.6984 18.7912 11.9222 18.5674 12.1984 18.5674H17.2839C17.5601 18.5674 17.7839 18.7912 17.7839 19.0674C17.7839 19.3435 17.5601 19.5674 17.2839 19.5674H12.1984C11.9222 19.5674 11.6984 19.3435 11.6984 19.0674Z" fill="#4195B9"/>
<path fill-rule="evenodd" clip-rule="evenodd" d="M3.53796 8.54553C3.53796 8.26939 3.76182 8.04553 4.03796 8.04553H15.6604C20.1815 8.04553 23.8638 11.6397 23.8638 16.0947V16.6208C23.8638 18.0583 22.6984 19.2237 21.2609 19.2237C20.9848 19.2237 20.7609 18.9998 20.7609 18.7237C20.7609 18.4475 20.9848 18.2237 21.2609 18.2237C22.1462 18.2237 22.8638 17.5061 22.8638 16.6208V16.0947C22.8638 12.211 19.6484 9.04553 15.6604 9.04553H4.53796V16.712C4.53796 17.6086 5.28248 18.3526 6.22231 18.3526C6.49846 18.3526 6.72231 18.5765 6.72231 18.8526C6.72231 19.1288 6.49846 19.3526 6.22231 19.3526C4.74935 19.3526 3.53796 18.1799 3.53796 16.712V8.54553Z" fill="#4195B9"/>
<path fill-rule="evenodd" clip-rule="evenodd" d="M8.54689 17.6348C7.7562 17.6348 7.11462 18.2761 7.11462 19.0673C7.11462 19.8586 7.7562 20.4999 8.54689 20.4999C9.33832 20.4999 9.97979 19.8584 9.97979 19.0673C9.97979 18.2762 9.33832 17.6348 8.54689 17.6348ZM6.11462 19.0673C6.11462 17.7239 7.20385 16.6348 8.54689 16.6348C9.89045 16.6348 10.9798 17.7238 10.9798 19.0673C10.9798 20.4109 9.89045 21.4999 8.54689 21.4999C7.20385 21.4999 6.11462 20.4108 6.11462 19.0673Z" fill="#4195B9"/>
<path fill-rule="evenodd" clip-rule="evenodd" d="M19.283 17.6348C18.4923 17.6348 17.8507 18.2761 17.8507 19.0673C17.8507 19.8586 18.4923 20.4999 19.283 20.4999C20.0744 20.4999 20.7159 19.8585 20.7159 19.0673C20.7159 18.2762 20.0744 17.6348 19.283 17.6348ZM16.8507 19.0673C16.8507 17.7239 17.9399 16.6348 19.283 16.6348C20.6265 16.6348 21.7159 17.7238 21.7159 19.0673C21.7159 20.4109 20.6265 21.4999 19.283 21.4999C17.9399 21.4999 16.8507 20.4108 16.8507 19.0673Z" fill="#4195B9"/>
<path fill-rule="evenodd" clip-rule="evenodd" d="M15.6333 8.04553C15.9094 8.04553 16.1333 8.26939 16.1333 8.54553V12.3099C16.1333 12.8033 16.5306 13.1991 17.0157 13.1991H22.7452C23.0213 13.1991 23.2452 13.4229 23.2452 13.6991C23.2452 13.9752 23.0213 14.1991 22.7452 14.1991H17.0157C15.9737 14.1991 15.1333 13.351 15.1333 12.3099V8.54553C15.1333 8.26939 15.3572 8.04553 15.6333 8.04553Z" fill="#4195B9"/>
<path d="M9.66489 11.0793C9.32132 11.7665 8.59123 12.4965 7.94704 12.7113C7.30285 12.926 7.08811 12.4536 7.43168 11.7665L9.66489 11.0793ZM13.1006 10.0916C12.1128 12.2389 9.87962 14.4291 8.03293 15.0304C6.18624 15.5887 5.4991 14.3003 6.48687 12.153L7.13106 11.9382C6.48687 13.3555 6.91633 14.2144 8.16177 13.8279C9.36427 13.4414 10.8244 12.0241 11.4686 10.6069L13.1006 10.0916Z" fill="#699C69"/>
</svg>
