<svg width="24" height="24" viewBox="0 0 24 24" fill="none" xmlns="http://www.w3.org/2000/svg">
<g clip-path="url(#clip0_99_341)">
<path fill-rule="evenodd" clip-rule="evenodd" d="M2.16783 2.02003C1.89591 2.01884 1.66318 2.21483 1.61808 2.48297L1.6179 2.48401L1.21739 4.83504H18.1768L17.7727 2.4823C17.7726 2.48196 17.7726 2.48163 17.7725 2.48129C17.7249 2.21538 17.4942 2.02134 17.224 2.02003L2.16783 2.02003ZM2.17099 1.02003C1.40987 1.01729 0.758557 1.56593 0.632025 2.31654C0.631993 2.31673 0.631962 2.31692 0.63193 2.31711L0.132105 5.25107C0.10737 5.39627 0.147912 5.54499 0.242914 5.65754C0.337917 5.7701 0.477714 5.83504 0.625004 5.83504H18.77C18.9174 5.83504 19.0573 5.76999 19.1523 5.65728C19.2473 5.54457 19.2877 5.39568 19.2628 5.2504L18.7578 2.31039L18.7573 2.30778C18.6257 1.56489 17.9812 1.0227 17.2268 1.02003H2.17099Z" fill="#4195B9"/>
<path fill-rule="evenodd" clip-rule="evenodd" d="M1.77876 4.98959C1.87336 4.88779 2.00606 4.82996 2.14502 4.82996H17.285C17.424 4.82996 17.5567 4.8878 17.6513 4.98962C17.7459 5.09144 17.7939 5.22803 17.7837 5.36664L17.3537 11.2116C17.3334 11.487 17.0937 11.6939 16.8183 11.6736C16.5429 11.6533 16.3361 11.4137 16.3564 11.1383L16.7469 5.82996H2.68306L3.54356 17.5568C3.54358 17.557 3.5436 17.5573 3.54361 17.5575C3.57101 17.9112 3.86581 18.1845 4.22068 18.185H5.97502C6.25116 18.185 6.47502 18.4088 6.47502 18.685C6.47502 18.9611 6.25116 19.185 5.97502 19.185H4.21936C3.34208 19.1838 2.61339 18.5078 2.54648 17.6331L2.54636 17.6315L1.64636 5.36655C1.63619 5.22795 1.68416 5.09138 1.77876 4.98959Z" fill="#4195B9"/>
<path d="M14.395 8.35999H5.14997C4.77442 8.35999 4.46997 8.66443 4.46997 9.03999V9.11999C4.46997 9.49554 4.77442 9.79999 5.14997 9.79999H14.395C14.7705 9.79999 15.075 9.49554 15.075 9.11999V9.03999C15.075 8.66443 14.7705 8.35999 14.395 8.35999Z" fill="#699C69"/>
<path fill-rule="evenodd" clip-rule="evenodd" d="M8.17505 15.88C8.45119 15.88 8.67505 16.1039 8.67505 16.38V19.8078L15.9153 22.9718C16.1683 23.0824 16.2838 23.3772 16.1732 23.6302C16.0626 23.8833 15.7679 23.9987 15.5148 23.8882L7.97483 20.5932C7.79273 20.5136 7.67505 20.3337 7.67505 20.135V16.38C7.67505 16.1039 7.89891 15.88 8.17505 15.88Z" fill="#4195B9"/>
<path fill-rule="evenodd" clip-rule="evenodd" d="M15.795 19.0699C16.0712 19.0699 16.295 19.2938 16.295 19.5699V22.6577L23.0704 19.6187C23.3224 19.5057 23.6182 19.6184 23.7313 19.8703C23.8443 20.1223 23.7316 20.4181 23.4797 20.5312L15.9997 23.8862C15.845 23.9555 15.6656 23.9418 15.5233 23.8497C15.381 23.7575 15.295 23.5995 15.295 23.4299V19.5699C15.295 19.2938 15.5189 19.0699 15.795 19.0699Z" fill="#4195B9"/>
<path fill-rule="evenodd" clip-rule="evenodd" d="M23.275 15.8149C23.5512 15.8149 23.775 16.0388 23.775 16.3149V18.1049C23.775 18.3811 23.5512 18.6049 23.275 18.6049C22.9989 18.6049 22.775 18.3811 22.775 18.1049V16.3149C22.775 16.0388 22.9989 15.8149 23.275 15.8149Z" fill="#4195B9"/>
<path fill-rule="evenodd" clip-rule="evenodd" d="M12.0939 14.3743C12.213 14.1252 12.5115 14.0198 12.7607 14.1388L19.9157 17.5588C20.0866 17.6405 20.1966 17.8118 20.2 18.0012L20.235 19.9962C20.2398 20.2723 20.0199 20.5 19.7438 20.5049C19.4677 20.5097 19.24 20.2898 19.2351 20.0137L19.2055 18.3278L12.3294 15.0411C12.0803 14.922 11.9748 14.6235 12.0939 14.3743Z" fill="#4195B9"/>
<path fill-rule="evenodd" clip-rule="evenodd" d="M15.5316 12.5811C15.6582 12.5264 15.8018 12.5263 15.9284 12.5811L23.4834 15.8461C23.6665 15.9252 23.7851 16.1056 23.7851 16.305C23.7851 16.5045 23.6665 16.6849 23.4834 16.764L15.9284 20.029C15.8018 20.0837 15.6582 20.0837 15.5316 20.029L7.98159 16.764C7.79855 16.6848 7.68005 16.5045 7.68005 16.305C7.68005 16.1056 7.79855 15.9253 7.98159 15.8461L15.5316 12.5811ZM15.7301 13.5848L9.43974 16.305L15.7301 19.0253L22.0247 16.305L15.7301 13.5848Z" fill="#4195B9"/>
</g>
<defs>
<clipPath id="clip0_99_341">
<rect width="24" height="24" fill="white"/>
</clipPath>
</defs>
</svg>
