<svg width="24" height="24" viewBox="0 0 24 24" fill="none" xmlns="http://www.w3.org/2000/svg">
<g clip-path="url(#clip0_99_348)">
<path fill-rule="evenodd" clip-rule="evenodd" d="M2.63206 3.50857L2.1526 6.31504H21.9514L21.4681 3.51021C21.468 3.50946 21.4679 3.50871 21.4677 3.50796C21.4042 3.16725 21.1067 2.92004 20.7599 2.92004H3.34494C2.99683 2.91981 2.69751 3.16698 2.63206 3.50857ZM3.34494 1.92004C2.51414 1.91964 1.80105 2.51151 1.64845 3.32821L1.64708 3.33584L1.06708 6.73084C1.04227 6.87607 1.08277 7.02485 1.17778 7.13746C1.27278 7.25007 1.41261 7.31504 1.55994 7.31504H22.5449C22.6924 7.31504 22.8323 7.24996 22.9273 7.13718C23.0223 7.02441 23.0627 6.87545 23.0377 6.73014L22.4527 3.33514L22.4517 3.32988C22.302 2.51319 21.5902 1.92004 20.7599 1.92004H3.34494C3.34499 1.92004 3.34489 1.92004 3.34494 1.92004Z" fill="#4195B9"/>
<path fill-rule="evenodd" clip-rule="evenodd" d="M2.94865 6.46972C3.04325 6.3679 3.17596 6.31006 3.31494 6.31006H20.8149C20.9538 6.31006 21.0865 6.36783 21.1811 6.46952C21.2756 6.57122 21.3237 6.70768 21.3136 6.84621L20.2836 21.0562L20.2828 21.0658C20.1945 22.026 19.3889 22.7606 18.4247 22.7601H5.71505C4.7513 22.7602 3.94693 22.0242 3.86189 21.0642L3.86129 21.0567L2.81629 6.84673C2.8061 6.70812 2.85405 6.57153 2.94865 6.46972ZM3.85306 7.31006L4.85829 20.9792C4.89916 21.4215 5.2703 21.7602 5.71483 21.7601H18.4249C18.8707 21.7603 19.2437 21.4218 19.2866 20.9785L20.2774 7.31006H3.85306Z" fill="#4195B9"/>
<path d="M17.445 10.3101H6.835C6.37661 10.3101 6.005 10.6817 6.005 11.1401V11.1451C6.005 11.6035 6.37661 11.9751 6.835 11.9751H17.445C17.9034 11.9751 18.275 11.6035 18.275 11.1451V11.1401C18.275 10.6817 17.9034 10.3101 17.445 10.3101Z" fill="#699C69"/>
</g>
<defs>
<clipPath id="clip0_99_348">
<rect width="24" height="24" fill="white"/>
</clipPath>
</defs>
</svg>
