<svg width="24" height="24" viewBox="0 0 24 24" fill="none" xmlns="http://www.w3.org/2000/svg">
<path fill-rule="evenodd" clip-rule="evenodd" d="M11.885 7.38C10.4905 7.38 9.35999 8.51049 9.35999 9.905C9.35999 11.2995 10.4905 12.43 11.885 12.43C13.2795 12.43 14.41 11.2995 14.41 9.905C14.41 8.51049 13.2795 7.38 11.885 7.38ZM8.35999 9.905C8.35999 7.9582 9.93818 6.38 11.885 6.38C13.8318 6.38 15.41 7.9582 15.41 9.905C15.41 11.8518 13.8318 13.43 11.885 13.43C9.93818 13.43 8.35999 11.8518 8.35999 9.905Z" fill="#699C69"/>
<path fill-rule="evenodd" clip-rule="evenodd" d="M4.35161 5.88709C6.45421 2.52471 10.5305 0.96281 14.3416 2.05926C18.1526 3.15572 20.7757 6.64502 20.77 10.6107L20.27 10.61L20.77 10.6099C20.77 10.6102 20.77 10.6104 20.77 10.6107C20.7701 12.8035 19.9562 14.9183 18.4859 16.5452C18.4804 16.5513 18.4748 16.5572 18.469 16.5631L12.7246 22.3224C12.2524 22.7844 11.4975 22.7844 11.0253 22.3224L11.0203 22.3175L5.30033 16.5624C5.29456 16.5566 5.28894 16.5507 5.28346 16.5446C2.62925 13.5981 2.24902 9.24947 4.35161 5.88709ZM14.0651 3.02028C10.6829 2.04723 7.06543 3.43334 5.19949 6.41729C3.33568 9.39782 3.67021 13.2516 6.01838 15.8663L11.7264 21.6093C11.8095 21.6888 11.9407 21.6887 12.0237 21.6091L17.7521 15.8657C19.0513 14.4237 19.7703 12.5513 19.77 10.61V10.6092C19.775 7.08992 17.4472 3.99333 14.0651 3.02028Z" fill="#4195B9"/>
</svg>
