<svg width="24" height="24" viewBox="0 0 24 24" fill="none" xmlns="http://www.w3.org/2000/svg">
<path fill-rule="evenodd" clip-rule="evenodd" d="M7.01473 5.53503C6.02614 5.53503 5.22473 6.33644 5.22473 7.32503C5.22473 8.31362 6.02614 9.11503 7.01473 9.11503C8.00332 9.11503 8.80473 8.31362 8.80473 7.32503C8.80473 6.33644 8.00332 5.53503 7.01473 5.53503ZM4.22473 7.32503C4.22473 5.78416 5.47386 4.53503 7.01473 4.53503C8.55561 4.53503 9.80473 5.78416 9.80473 7.32503C9.80473 8.86591 8.55561 10.115 7.01473 10.115C5.47386 10.115 4.22473 8.86591 4.22473 7.32503Z" fill="#699C69"/>
<path fill-rule="evenodd" clip-rule="evenodd" d="M0.955123 4.66335C2.29546 2.11132 5.09099 0.672485 7.94677 1.06481C10.8025 1.45713 13.1065 3.59652 13.709 6.41546C13.7667 6.6855 13.5946 6.9512 13.3245 7.00892C13.0545 7.06663 12.7888 6.89451 12.7311 6.62446C12.2166 4.21735 10.2492 2.39051 7.81067 2.0555C5.37209 1.72049 2.98497 2.94913 1.84045 5.12833C0.697769 7.30401 1.03818 9.96162 2.69118 11.779L7.04324 16.1011C7.0608 16.1186 7.08925 16.1186 7.10681 16.1011L7.11493 16.0931L8.30493 14.9581C8.50476 14.7676 8.82125 14.775 9.01184 14.9749C9.20243 15.1747 9.19494 15.4912 8.99512 15.6818L7.80858 16.8135C7.40047 17.2158 6.74377 17.2145 6.33734 16.8094C6.33716 16.8092 6.33699 16.809 6.33681 16.8089L1.97769 12.4797C1.97193 12.474 1.9663 12.4681 1.96083 12.4621C0.0169008 10.3336 -0.385217 7.21538 0.955123 4.66335Z" fill="#4195B9"/>
<path fill-rule="evenodd" clip-rule="evenodd" d="M17.7451 17.695C17.7451 17.4465 17.9466 17.245 18.1951 17.245H19.6951C20.2003 17.245 20.6849 17.4457 21.0421 17.803C21.3994 18.1602 21.6001 18.6448 21.6001 19.15V19.345C21.6001 20.3971 20.7472 21.25 19.6951 21.25H17.5351C17.2866 21.25 17.0851 21.0485 17.0851 20.8C17.0851 20.5515 17.2866 20.35 17.5351 20.35H19.6951C20.2501 20.35 20.7001 19.9 20.7001 19.345V19.15C20.7001 18.8835 20.5942 18.6278 20.4057 18.4394C20.2173 18.2509 19.9616 18.145 19.6951 18.145H18.1951C17.9466 18.145 17.7451 17.9435 17.7451 17.695Z" fill="#699C69"/>
<path fill-rule="evenodd" clip-rule="evenodd" d="M19.0876 16.1561C19.2637 16.3314 19.2643 16.6164 19.0889 16.7925L18.1702 17.7149L19.0889 18.6373C19.2643 18.8134 19.2637 19.0984 19.0876 19.2737C18.9115 19.4491 18.6266 19.4485 18.4512 19.2725L17.2162 18.0325C17.0414 17.8569 17.0414 17.5729 17.2162 17.3973L18.4512 16.1573C18.6266 15.9813 18.9115 15.9807 19.0876 16.1561Z" fill="#699C69"/>
<path fill-rule="evenodd" clip-rule="evenodd" d="M19.105 15.0349C16.9815 15.0349 15.26 16.7564 15.26 18.8799C15.26 21.0034 16.9815 22.7249 19.105 22.7249C21.2285 22.7249 22.95 21.0034 22.95 18.8799C22.95 16.7564 21.2285 15.0349 19.105 15.0349ZM14.26 18.8799C14.26 16.2041 16.4292 14.0349 19.105 14.0349C21.7808 14.0349 23.95 16.2041 23.95 18.8799C23.95 21.5557 21.7808 23.7249 19.105 23.7249C16.4292 23.7249 14.26 21.5557 14.26 18.8799Z" fill="#699C69"/>
<path fill-rule="evenodd" clip-rule="evenodd" d="M10.4575 9.95496C10.706 9.95356 10.9086 10.1539 10.91 10.4024L10.9384 15.4238L13.2854 16.4849C13.5119 16.5873 13.6124 16.8539 13.5101 17.0803C13.4077 17.3068 13.1411 17.4074 12.9146 17.305L10.3046 16.125C10.1444 16.0525 10.041 15.8934 10.04 15.7175L10.01 10.4075C10.0086 10.159 10.2089 9.95637 10.4575 9.95496Z" fill="#4195B9"/>
<path fill-rule="evenodd" clip-rule="evenodd" d="M14.9041 11.79C15.1526 11.7867 15.3568 11.9855 15.36 12.234L15.39 14.504C15.3933 14.7525 15.1945 14.9566 14.946 14.9599C14.6975 14.9632 14.4934 14.7644 14.4901 14.5159L14.4601 12.2459C14.4568 11.9974 14.6556 11.7932 14.9041 11.79Z" fill="#4195B9"/>
<path fill-rule="evenodd" clip-rule="evenodd" d="M19.253 9.86499C19.5015 9.86387 19.7039 10.0644 19.705 10.3129L19.715 12.5129C19.7162 12.7615 19.5156 12.9639 19.2671 12.965C19.0186 12.9661 18.8162 12.7656 18.8151 12.517L18.8051 10.317C18.8039 10.0685 19.0045 9.86612 19.253 9.86499Z" fill="#4195B9"/>
<path fill-rule="evenodd" clip-rule="evenodd" d="M14.4087 10.084C14.5031 9.8541 14.766 9.74425 14.9959 9.83865L17.2609 10.7687C17.4298 10.838 17.54 11.0024 17.54 11.1849V12.9599C17.54 13.2085 17.3385 13.4099 17.09 13.4099C16.8415 13.4099 16.64 13.2085 16.64 12.9599V11.4866L14.6541 10.6712C14.4242 10.5768 14.3143 10.3139 14.4087 10.084Z" fill="#4195B9"/>
<path fill-rule="evenodd" clip-rule="evenodd" d="M14.6689 8.02304C14.7826 7.97307 14.9118 7.97228 15.0261 8.02086L19.4361 9.89586C19.6013 9.96609 19.7089 10.1278 19.71 10.3072C19.7111 10.4867 19.6054 10.6497 19.4411 10.7219L15.0511 12.6519C14.9375 12.7019 14.8082 12.7027 14.6939 12.6541L10.2839 10.7791C10.1188 10.7089 10.0111 10.5472 10.01 10.3677C10.0089 10.1882 10.1146 10.0253 10.2789 9.95304L14.6689 8.02304ZM14.853 8.92524L11.5939 10.3581L14.867 11.7497L18.1262 10.3169L14.853 8.92524Z" fill="#4195B9"/>
</svg>
