<svg width="24" height="24" viewBox="0 0 24 24" fill="none" xmlns="http://www.w3.org/2000/svg">
<g clip-path="url(#clip0_99_133)">
<path fill-rule="evenodd" clip-rule="evenodd" d="M21.2003 17.0769C21.4146 17.251 21.4472 17.5659 21.2731 17.7803L18.8481 20.7653C18.7577 20.8765 18.6239 20.9436 18.4807 20.9496C18.3375 20.9555 18.1986 20.8997 18.0994 20.7963L16.8894 19.5363C16.6981 19.3371 16.7045 19.0206 16.9037 18.8293C17.1028 18.6381 17.4194 18.6445 17.6106 18.8437L18.4287 19.6955L20.4969 17.1497C20.671 16.9354 20.9859 16.9028 21.2003 17.0769Z" fill="#699C69"/>
<path fill-rule="evenodd" clip-rule="evenodd" d="M19.105 15.235C16.9815 15.235 15.26 16.9565 15.26 19.08C15.26 21.2035 16.9815 22.925 19.105 22.925C21.2285 22.925 22.95 21.2035 22.95 19.08C22.95 16.9565 21.2285 15.235 19.105 15.235ZM14.26 19.08C14.26 16.4042 16.4292 14.235 19.105 14.235C21.7808 14.235 23.95 16.4042 23.95 19.08C23.95 21.7558 21.7808 23.925 19.105 23.925C16.4292 23.925 14.26 21.7558 14.26 19.08Z" fill="#699C69"/>
<path fill-rule="evenodd" clip-rule="evenodd" d="M7.01461 5.53516C6.02602 5.53516 5.22461 6.33657 5.22461 7.32516C5.22461 8.31375 6.02602 9.11516 7.01461 9.11516C8.0032 9.11516 8.80461 8.31375 8.80461 7.32516C8.80461 6.33657 8.0032 5.53516 7.01461 5.53516ZM4.22461 7.32516C4.22461 5.78428 5.47373 4.53516 7.01461 4.53516C8.55548 4.53516 9.80461 5.78428 9.80461 7.32516C9.80461 8.86603 8.55548 10.1152 7.01461 10.1152C5.47373 10.1152 4.22461 8.86603 4.22461 7.32516Z" fill="#699C69"/>
<path fill-rule="evenodd" clip-rule="evenodd" d="M0.955123 4.66335C2.29546 2.11132 5.09099 0.672485 7.94677 1.06481C10.8025 1.45713 13.1065 3.59652 13.709 6.41546C13.7667 6.6855 13.5946 6.9512 13.3245 7.00892C13.0545 7.06663 12.7888 6.89451 12.7311 6.62446C12.2166 4.21735 10.2492 2.39051 7.81067 2.0555C5.37209 1.72049 2.98497 2.94913 1.84045 5.12833C0.697769 7.30401 1.03818 9.96162 2.69118 11.779L7.04324 16.1011C7.0608 16.1186 7.08925 16.1186 7.10681 16.1011L7.11493 16.0931L8.30493 14.9581C8.50476 14.7676 8.82125 14.775 9.01184 14.9749C9.20243 15.1747 9.19494 15.4912 8.99512 15.6818L7.80858 16.8135C7.40047 17.2158 6.74377 17.2145 6.33734 16.8094C6.33716 16.8092 6.33699 16.809 6.33681 16.8089L1.97769 12.4797C1.97193 12.474 1.9663 12.4681 1.96083 12.4621C0.0169008 10.3336 -0.385217 7.21538 0.955123 4.66335Z" fill="#4195B9"/>
<path fill-rule="evenodd" clip-rule="evenodd" d="M10.4575 9.95496C10.706 9.95356 10.9086 10.1539 10.91 10.4024L10.9384 15.4238L13.2854 16.4849C13.5119 16.5873 13.6124 16.8539 13.5101 17.0803C13.4077 17.3068 13.1411 17.4074 12.9146 17.305L10.3046 16.125C10.1444 16.0525 10.041 15.8934 10.04 15.7175L10.01 10.4075C10.0086 10.159 10.2089 9.95637 10.4575 9.95496Z" fill="#4195B9"/>
<path fill-rule="evenodd" clip-rule="evenodd" d="M14.904 11.7901C15.1525 11.7868 15.3566 11.9856 15.3599 12.2341L15.3899 14.5041C15.3932 14.7526 15.1944 14.9567 14.9459 14.96C14.6974 14.9633 14.4933 14.7645 14.49 14.516L14.46 12.246C14.4567 11.9975 14.6555 11.7934 14.904 11.7901Z" fill="#4195B9"/>
<path fill-rule="evenodd" clip-rule="evenodd" d="M19.2526 9.86524C19.5012 9.86411 19.7036 10.0647 19.7047 10.3132L19.7147 12.5132C19.7158 12.7617 19.5153 12.9641 19.2667 12.9652C19.0182 12.9664 18.8158 12.7658 18.8147 12.5173L18.8047 10.3173C18.8036 10.0688 19.0041 9.86637 19.2526 9.86524Z" fill="#4195B9"/>
<path fill-rule="evenodd" clip-rule="evenodd" d="M14.4087 10.0841C14.5031 9.85423 14.766 9.74438 14.9959 9.83877L17.2609 10.7688C17.4298 10.8381 17.54 11.0025 17.54 11.1851V12.96C17.54 13.2086 17.3385 13.41 17.09 13.41C16.8415 13.41 16.64 13.2086 16.64 12.96V11.4867L14.6541 10.6713C14.4242 10.5769 14.3143 10.314 14.4087 10.0841Z" fill="#4195B9"/>
<path fill-rule="evenodd" clip-rule="evenodd" d="M14.6689 8.02304C14.7826 7.97307 14.9118 7.97228 15.0261 8.02086L19.4361 9.89586C19.6013 9.96609 19.7089 10.1278 19.71 10.3072C19.7111 10.4867 19.6054 10.6497 19.4411 10.7219L15.0511 12.6519C14.9375 12.7019 14.8082 12.7027 14.6939 12.6541L10.2839 10.7791C10.1188 10.7089 10.0111 10.5472 10.01 10.3677C10.0089 10.1882 10.1146 10.0253 10.2789 9.95304L14.6689 8.02304ZM14.853 8.92524L11.5939 10.3581L14.867 11.7497L18.1262 10.3169L14.853 8.92524Z" fill="#4195B9"/>
</g>
<defs>
<clipPath id="clip0_99_133">
<rect width="24" height="24" fill="white"/>
</clipPath>
</defs>
</svg>
