<svg width="24" height="24" viewBox="0 0 24 24" fill="none" xmlns="http://www.w3.org/2000/svg">
<g clip-path="url(#clip0_99_117)">
<path fill-rule="evenodd" clip-rule="evenodd" d="M9.17711 6.69456C7.77489 6.69456 6.63817 7.83129 6.63817 9.2335C6.63817 10.6357 7.77489 11.7724 9.17711 11.7724C10.5793 11.7724 11.716 10.6357 11.716 9.2335C11.716 7.83129 10.5793 6.69456 9.17711 6.69456ZM5.49707 9.2335C5.49707 7.20108 7.14468 5.55347 9.17711 5.55347C11.2095 5.55347 12.8571 7.20108 12.8571 9.2335C12.8571 11.2659 11.2095 12.9135 9.17711 12.9135C7.14468 12.9135 5.49707 11.2659 5.49707 9.2335Z" fill="#699C69"/>
<path fill-rule="evenodd" clip-rule="evenodd" d="M1.0772 5.64013C2.89184 2.23209 6.64499 0.323725 10.4679 0.865279C14.2908 1.40683 17.3662 4.28254 18.1628 8.0605C18.2279 8.36883 18.0306 8.67148 17.7223 8.7365C17.414 8.80151 17.1113 8.60427 17.0463 8.29595C16.3487 4.98759 13.6555 2.46933 10.3078 1.99509C6.96013 1.52086 3.67349 3.19201 2.08442 6.17643C0.497522 9.15677 0.942287 12.8106 3.19647 15.3231L9.06299 21.2238L9.06307 21.2239C9.09413 21.2551 9.13637 21.2727 9.18043 21.2727C9.22449 21.2727 9.26673 21.2551 9.29779 21.2239C9.30233 21.2193 9.30694 21.2148 9.31163 21.2104L10.9377 19.6813C11.1672 19.4655 11.5283 19.4766 11.7442 19.7061C11.9601 19.9357 11.949 20.2968 11.7194 20.5126L10.0994 22.036C9.85485 22.2779 9.52467 22.4138 9.18043 22.4138C8.83254 22.4138 8.49902 22.2751 8.25377 22.0283C8.25374 22.0283 8.25372 22.0283 8.25369 22.0282L2.37712 16.1174C2.37048 16.1108 2.36401 16.1039 2.35771 16.0969C-0.225653 13.2274 -0.737431 9.04818 1.0772 5.64013Z" fill="#4195B9"/>
<path fill-rule="evenodd" clip-rule="evenodd" d="M13.4461 12.5598C13.7297 12.5598 13.9596 12.7897 13.9596 13.0733V18.7967L18.6613 20.853C18.9211 20.9666 19.0396 21.2694 18.926 21.5292C18.8123 21.789 18.5096 21.9075 18.2498 21.7939L13.2403 19.603C13.0534 19.5212 12.9326 19.3366 12.9326 19.1325V13.0733C12.9326 12.7897 13.1625 12.5598 13.4461 12.5598Z" fill="#699C69"/>
<path fill-rule="evenodd" clip-rule="evenodd" d="M23.48 12.5203C23.7636 12.5203 23.9935 12.7502 23.9935 13.0338V19.093C23.9935 19.2952 23.8748 19.4786 23.6903 19.5614L18.7209 21.7923C18.562 21.8636 18.3778 21.8495 18.2316 21.7549C18.0853 21.6603 17.9971 21.498 17.9971 21.3238V15.1961C17.9971 14.9125 18.227 14.6826 18.5106 14.6826C18.7942 14.6826 19.0241 14.9125 19.0241 15.1961V20.5305L22.9665 18.7606V13.0338C22.9665 12.7502 23.1964 12.5203 23.48 12.5203Z" fill="#699C69"/>
<path fill-rule="evenodd" clip-rule="evenodd" d="M18.7681 12.7633C18.886 13.0212 18.7724 13.3259 18.5145 13.4438L16.3528 14.4318L16.3326 16.9006C16.3303 17.1842 16.0986 17.4122 15.815 17.4099C15.5314 17.4076 15.3034 17.1758 15.3057 16.8922L15.3285 14.0965C15.3301 13.8971 15.4471 13.7166 15.6285 13.6337L18.0876 12.5097C18.3455 12.3918 18.6502 12.5054 18.7681 12.7633Z" fill="#699C69"/>
<path fill-rule="evenodd" clip-rule="evenodd" d="M18.2629 10.3828C18.3931 10.3265 18.5408 10.3265 18.671 10.3828L23.6918 12.5566C23.8797 12.638 24.0014 12.8233 24.0013 13.0281C24.0012 13.2329 23.8794 13.4181 23.6913 13.4993L18.6705 15.6674C18.5406 15.7235 18.3933 15.7235 18.2634 15.6674L13.2425 13.4993C13.0545 13.4181 12.9327 13.2329 12.9326 13.0281C12.9325 12.8233 13.0541 12.638 13.2421 12.5566L18.2629 10.3828ZM18.4669 11.4136L14.74 13.0272L18.4669 14.6366L22.1939 13.0272L18.4669 11.4136Z" fill="#699C69"/>
</g>
<defs>
<clipPath id="clip0_99_117">
<rect width="24" height="24" fill="white"/>
</clipPath>
</defs>
</svg>
