<svg width="24" height="24" viewBox="0 0 24 24" fill="none" xmlns="http://www.w3.org/2000/svg">
<path fill-rule="evenodd" clip-rule="evenodd" d="M8.93505 6.27002C7.07078 6.27002 5.55505 7.78158 5.55505 9.65002V13.29H12.3151V9.65002C12.3151 7.78574 10.8035 6.27002 8.93505 6.27002ZM4.55505 9.65002C4.55505 7.22846 6.51933 5.27002 8.93505 5.27002C11.3566 5.27002 13.3151 7.2343 13.3151 9.65002V13.79C13.3151 14.0662 13.0912 14.29 12.8151 14.29H5.05505C4.77891 14.29 4.55505 14.0662 4.55505 13.79V9.65002Z" fill="#4195B9"/>
<path fill-rule="evenodd" clip-rule="evenodd" d="M12.1547 6.2749C10.2904 6.2749 8.77466 7.78646 8.77466 9.6549V13.7949C8.77466 14.071 8.5508 14.2949 8.27466 14.2949C7.99852 14.2949 7.77466 14.071 7.77466 13.7949V9.6549C7.77466 7.23334 9.73894 5.2749 12.1547 5.2749C12.4308 5.2749 12.6547 5.49876 12.6547 5.7749C12.6547 6.05104 12.4308 6.2749 12.1547 6.2749Z" fill="#4195B9"/>
<path fill-rule="evenodd" clip-rule="evenodd" d="M8.10505 5.77502C8.10505 5.49888 8.32891 5.27502 8.60505 5.27502H16.705C19.1208 5.27502 21.085 7.23346 21.085 9.65502V13.795C21.085 14.0712 20.8612 14.295 20.585 14.295H2.80005C2.52391 14.295 2.30005 14.0712 2.30005 13.795C2.30005 13.5189 2.52391 13.295 2.80005 13.295H20.085V9.65502C20.085 7.78659 18.5693 6.27502 16.705 6.27502H8.60505C8.32891 6.27502 8.10505 6.05117 8.10505 5.77502Z" fill="#4195B9"/>
<path fill-rule="evenodd" clip-rule="evenodd" d="M11.6555 13.7949C11.6555 13.5188 11.8794 13.2949 12.1555 13.2949H14.5955C14.8717 13.2949 15.0955 13.5188 15.0955 13.7949V20.5699C15.0955 20.8461 14.8717 21.0699 14.5955 21.0699H12.1555C11.8794 21.0699 11.6555 20.8461 11.6555 20.5699V13.7949ZM12.6555 14.2949V20.0699H14.0955V14.2949H12.6555Z" fill="#4195B9"/>
<path fill-rule="evenodd" clip-rule="evenodd" d="M14.8501 9.06506C14.8501 8.78892 15.074 8.56506 15.3501 8.56506H18.3151C18.5912 8.56506 18.8151 8.78892 18.8151 9.06506V11.1851C18.8151 11.4612 18.5912 11.6851 18.3151 11.6851H16.8301C16.554 11.6851 16.3301 11.4612 16.3301 11.1851V9.56506H15.3501C15.074 9.56506 14.8501 9.34121 14.8501 9.06506ZM17.3301 9.56506V10.6851H17.8151V9.56506H17.3301Z" fill="#699C69"/>
</svg>
