<svg width="24" height="24" viewBox="0 0 24 24" fill="none" xmlns="http://www.w3.org/2000/svg">
<path fill-rule="evenodd" clip-rule="evenodd" d="M19.0111 1.49623L19.0426 1.49836C19.0476 1.49887 19.0526 1.49946 19.0576 1.50013C19.1385 1.50786 19.2136 1.53777 19.2783 1.58249C19.3485 1.62909 19.4038 1.68753 19.4423 1.75967C19.4811 1.82882 19.5039 1.90746 19.504 1.99155C19.5044 2.01242 19.5037 2.03352 19.5014 2.05465L19.5 18.0063C19.5 18.4251 19.016 18.6583 18.6884 18.3973L14.2988 14.8998L11.3202 17.3841C11.0651 17.5967 10.6867 17.5037 10.5498 17.2181L10.5187 17.1355L9.18775 12.4088L3.52493 9.95485C3.16372 9.7983 3.12487 9.31747 3.42216 9.09666L3.5035 9.04721L18.7456 1.56544C18.7639 1.55471 18.7827 1.54534 18.802 1.53727C18.8666 1.50782 18.9341 1.49494 19.0005 1.4959L19.0111 1.49623ZM18.5 4.21302L17.0058 7.35285L14.1 13.462L18.5 16.969V4.21302ZM17.198 4.62202L10.1288 12.0648L11.272 16.121L13.5 14.263L13.1666 13.9979C13.0077 13.8711 12.9435 13.6631 12.9968 13.4726L13.027 13.3922L17.198 4.62202ZM16.717 3.67602L4.915 9.46702L9.379 11.402L16.717 3.67602Z" fill="#4195B9"/>
<path fill-rule="evenodd" clip-rule="evenodd" d="M9.29154 18.0938C9.49098 18.2369 9.55373 18.4996 9.45214 18.7138L9.40629 18.7915L6.75724 22.4834C6.59625 22.7077 6.28386 22.7591 6.0595 22.5981C5.86007 22.455 5.79732 22.1923 5.8989 21.9781L5.94475 21.9004L8.59381 18.2085C8.7548 17.9841 9.06718 17.9328 9.29154 18.0938ZM7.71352 15.0048C7.90729 15.1555 7.95987 15.4205 7.85011 15.6306L7.8013 15.7065L5.31002 18.9103C5.14051 19.1283 4.82637 19.1676 4.60838 18.9981C4.41461 18.8474 4.36203 18.5825 4.47178 18.3724L4.52059 18.2965L7.01188 15.0926C7.18139 14.8746 7.49552 14.8353 7.71352 15.0048ZM12.8014 18.2151C12.9587 17.9882 13.2703 17.9318 13.4972 18.0891C13.6989 18.2289 13.7659 18.4906 13.6678 18.7064L13.6232 18.7849L11.2951 22.1431C11.1377 22.3701 10.8262 22.4265 10.5993 22.2692C10.3976 22.1293 10.3306 21.8677 10.4287 21.6518L10.4732 21.5734L12.8014 18.2151Z" fill="#699C69"/>
</svg>
