<svg width="24" height="24" viewBox="0 0 24 24" fill="none" xmlns="http://www.w3.org/2000/svg">
<path fill-rule="evenodd" clip-rule="evenodd" d="M12.5 20.9974H11.0032V15.002C11.0032 14.4499 10.555 14.002 10.0032 14.002H6.0057C5.45315 14.002 5.0057 14.4497 5.0057 15.002V20.9974H3L2.99963 10.5549L11.2503 3.01184L19.5 10.5547V11.3342C19.5 11.6103 19.7239 11.8342 20 11.8342C20.2761 11.8342 20.5 11.6103 20.5 11.3342V10.5547C20.5 10.2738 20.382 10.0058 20.1746 9.81646L11.9249 2.27369C11.5428 1.92458 10.9572 1.92458 10.5753 2.27356L2.32511 9.81669C2.11804 10.0058 2 10.2738 2 10.5547V20.9974C2 21.5497 2.44745 21.9974 3 21.9974H5.0057C5.55743 21.9974 6.0057 21.5495 6.0057 20.9974V15.002H10.0032V20.9974C10.0032 21.5497 10.4507 21.9974 11.0032 21.9974H12.5C12.7761 21.9974 13 21.7736 13 21.4974C13 21.2213 12.7761 20.9974 12.5 20.9974Z" fill="#4195B9"/>
<path fill-rule="evenodd" clip-rule="evenodd" d="M18 12.3224C20.7616 12.3224 23 14.5608 23 17.3224C23 20.0841 20.7616 22.3224 18 22.3224C15.2384 22.3224 13 20.0841 13 17.3224C13 14.5608 15.2384 12.3224 18 12.3224ZM18 13.3224C15.7906 13.3224 14 15.1131 14 17.3224C14 19.5318 15.7906 21.3224 18 21.3224C20.2094 21.3224 22 19.5318 22 17.3224C22 15.1131 20.2094 13.3224 18 13.3224ZM18 14.3224C18.2761 14.3224 18.5 14.5463 18.5 14.8224V17.1153L19.3536 17.9689C19.5488 18.1642 19.5488 18.4807 19.3536 18.676C19.1583 18.8713 18.8417 18.8713 18.6464 18.676L17.6464 17.676C17.5527 17.5822 17.5 17.4551 17.5 17.3224V14.8224C17.5 14.5463 17.7239 14.3224 18 14.3224Z" fill="#699C69"/>
</svg>
