<svg width="24" height="24" viewBox="0 0 24 24" fill="none" xmlns="http://www.w3.org/2000/svg">
<g clip-path="url(#clip0_81_585)">
<path d="M7.65002 3.45V6.05C7.65002 6.15 7.70002 6.25 7.80002 6.25H9.50002C9.60002 6.25 9.65002 6.15 9.65002 6.05V3.45C9.65002 3.35 9.60002 3.25 9.50002 3.25H7.80002C7.75002 3.25 7.65002 3.3 7.65002 3.45Z" fill="#4195B9"/>
<path d="M10.8 3.45V6.05C10.8 6.15 10.85 6.25 10.95 6.25H12.65C12.75 6.25 12.8 6.15 12.8 6.05V3.45C12.8 3.35 12.75 3.25 12.65 3.25H10.95C10.85 3.25 10.8 3.3 10.8 3.45Z" fill="#4195B9"/>
<path d="M13.9 3.45V6.05C13.9 6.15 13.95 6.25 14.05 6.25H15.75C15.85 6.25 15.9 6.15 15.9 6.05V3.45C15.9 3.35 15.85 3.25 15.75 3.25H14.05C13.95 3.25 13.9 3.3 13.9 3.45Z" fill="#4195B9"/>
<path d="M7.65002 7.90002V10.5C7.65002 10.6 7.70002 10.7 7.80002 10.7H9.50002C9.60002 10.7 9.65002 10.6 9.65002 10.5V7.90002C9.65002 7.80002 9.60002 7.70002 9.50002 7.70002H7.80002C7.75002 7.65002 7.65002 7.75002 7.65002 7.90002Z" fill="#4195B9"/>
<path d="M10.8 7.90002V10.5C10.8 10.6 10.85 10.7 10.95 10.7H12.65C12.75 10.7 12.8 10.6 12.8 10.5V7.90002C12.8 7.80002 12.75 7.70002 12.65 7.70002H10.95C10.85 7.65002 10.8 7.75002 10.8 7.90002Z" fill="#4195B9"/>
<path d="M13.9 7.90002V10.5C13.9 10.6 13.95 10.7 14.05 10.7H15.75C15.85 10.7 15.9 10.6 15.9 10.5V7.90002C15.9 7.80002 15.85 7.70002 15.75 7.70002H14.05C13.95 7.65002 13.9 7.75002 13.9 7.90002Z" fill="#4195B9"/>
<path d="M7.65002 12.3V14.9C7.65002 15 7.70002 15.1 7.80002 15.1H9.50002C9.60002 15.1 9.65002 15 9.65002 14.9V12.3C9.65002 12.2 9.60002 12.1 9.50002 12.1H7.80002C7.75002 12.1 7.65002 12.2 7.65002 12.3Z" fill="#4195B9"/>
<path d="M10.8 12.3V14.9C10.8 15 10.85 15.1 10.95 15.1H12.65C12.75 15.1 12.8 15 12.8 14.9V12.3C12.8 12.2 12.75 12.1 12.65 12.1H10.95C10.85 12.1 10.8 12.2 10.8 12.3Z" fill="#4195B9"/>
<path d="M13.9 12.3V14.9C13.9 15 13.95 15.1 14.05 15.1H15.75C15.85 15.1 15.9 15 15.9 14.9V12.3C15.9 12.2 15.85 12.1 15.75 12.1H14.05C13.95 12.1 13.9 12.2 13.9 12.3Z" fill="#4195B9"/>
<path d="M20.9501 19.75V17.7C20.9501 17.4 20.7501 17.2 20.4501 17.2H15.25H14.35H9.70005H8.70005H3.60005C3.30005 17.2 3.10005 17.4 3.10005 17.7V19.75H0.800049C0.500049 19.75 0.300049 19.95 0.300049 20.25V22.85C0.300049 23.15 0.500049 23.35 0.800049 23.35H5.80005H6.85005H11.35H12.35H17H18H23.2001C23.5001 23.35 23.7001 23.15 23.7001 22.85V20.25C23.7001 19.95 23.5001 19.75 23.2001 19.75H20.9501ZM15.35 18.2H19.9V19.75H18H17.1H15.4V18.2H15.35ZM9.70005 18.2H14.25V19.75H12.45H11.45H9.75005V18.2H9.70005ZM4.10005 18.2H8.65005V19.75H6.90005H5.85005H4.10005V18.2ZM1.30005 22.2999V20.75H3.05005H5.80005V22.2999H1.30005ZM11.4 22.2999H6.90005V20.75H8.65005H9.65005H11.35V22.2999H11.4ZM16.9501 22.2999H12.4V20.75H14.35H15.25H16.9501V22.2999ZM22.65 22.2999H18.1V20.75H20.9501H22.65V22.2999Z" fill="#699C69"/>
<path d="M17.65 0.800049H5.90005C5.55005 0.800049 5.30005 1.10005 5.30005 1.45005V15.95C5.30005 16.2 5.50005 16.4 5.75005 16.4C6.00005 16.4 6.20005 16.2 6.20005 15.95V1.85005H17.3V15.75C17.3 16 17.5 16.2 17.75 16.2C18 16.2 18.2 16 18.2 15.75V1.50005C18.25 1.10005 18 0.800049 17.65 0.800049Z" fill="#4195B9"/>
</g>
<defs>
<clipPath id="clip0_81_585">
<rect width="24" height="24" fill="white"/>
</clipPath>
</defs>
</svg>
