<svg width="24" height="24" viewBox="0 0 24 24" fill="none" xmlns="http://www.w3.org/2000/svg">
<g clip-path="url(#clip0_81_319)">
<path fill-rule="evenodd" clip-rule="evenodd" d="M14.45 2.84501C13.755 4.24501 12.275 5.73001 10.95 6.17001C9.62497 6.61001 9.20997 5.64501 9.90497 4.24501L14.45 2.84501ZM21.45 0.765015C19.45 5.12001 14.865 9.56501 11.14 10.765C7.41497 11.895 6.02997 9.26501 8.01997 4.93001L9.33497 4.52001C8.03497 7.39001 8.90497 9.13502 11.415 8.35002C13.845 7.56502 16.875 4.69001 18.175 1.82001L21.45 0.765015Z" fill="#699C69"/>
<path fill-rule="evenodd" clip-rule="evenodd" d="M0.339966 8.14001C0.339966 7.86387 0.563823 7.64001 0.839966 7.64001H5.39997C5.67611 7.64001 5.89997 7.86387 5.89997 8.14001C5.89997 8.41616 5.67611 8.64001 5.39997 8.64001H0.839966C0.563823 8.64001 0.339966 8.41616 0.339966 8.14001Z" fill="#4195B9"/>
<path fill-rule="evenodd" clip-rule="evenodd" d="M18.2452 8.14001C18.2452 7.86387 18.4691 7.64001 18.7452 7.64001H23.3002C23.5764 7.64001 23.8002 7.86387 23.8002 8.14001C23.8002 8.41616 23.5764 8.64001 23.3002 8.64001H18.7452C18.4691 8.64001 18.2452 8.41616 18.2452 8.14001Z" fill="#4195B9"/>
<path fill-rule="evenodd" clip-rule="evenodd" d="M3.12024 7.86023C3.39638 7.86023 3.62024 8.08409 3.62024 8.36023V22.2052H11.3502V15.3502C11.3502 15.0741 11.5741 14.8502 11.8502 14.8502H13.1902C13.4664 14.8502 13.6902 15.0741 13.6902 15.3502C13.6902 15.6264 13.4664 15.8502 13.1902 15.8502H12.3502V22.7052C12.3502 22.9814 12.1264 23.2052 11.8502 23.2052H3.12024C2.8441 23.2052 2.62024 22.9814 2.62024 22.7052V8.36023C2.62024 8.08409 2.8441 7.86023 3.12024 7.86023Z" fill="#4195B9"/>
<path fill-rule="evenodd" clip-rule="evenodd" d="M21.0449 7.85999C21.3211 7.85999 21.5449 8.08384 21.5449 8.35999V11.685C21.5449 11.9611 21.3211 12.185 21.0449 12.185C20.7688 12.185 20.5449 11.9611 20.5449 11.685V8.35999C20.5449 8.08384 20.7688 7.85999 21.0449 7.85999Z" fill="#4195B9"/>
<path fill-rule="evenodd" clip-rule="evenodd" d="M17.745 16.695C17.745 16.4465 17.9464 16.245 18.195 16.245H19.695C20.7471 16.245 21.6 17.0979 21.6 18.15V18.345C21.6 19.3971 20.7471 20.25 19.695 20.25H17.535C17.2864 20.25 17.085 20.0485 17.085 19.8C17.085 19.5515 17.2864 19.35 17.535 19.35H19.695C20.25 19.35 20.7 18.9 20.7 18.345V18.15C20.7 17.5949 20.25 17.145 19.695 17.145H18.195C17.9464 17.145 17.745 16.9435 17.745 16.695Z" fill="#699C69"/>
<path fill-rule="evenodd" clip-rule="evenodd" d="M19.0875 15.1562C19.2636 15.3316 19.2642 15.6165 19.0888 15.7926L18.1701 16.715L19.0888 17.6375C19.2642 17.8136 19.2636 18.0985 19.0875 18.2739C18.9114 18.4492 18.6265 18.4487 18.4511 18.2726L17.2161 17.0326C17.0412 16.857 17.0412 16.5731 17.2161 16.3975L18.4511 15.1575C18.6265 14.9814 18.9114 14.9808 19.0875 15.1562Z" fill="#699C69"/>
<path fill-rule="evenodd" clip-rule="evenodd" d="M19.105 14.035C16.9815 14.035 15.26 15.7565 15.26 17.88C15.26 20.0036 16.9815 21.725 19.105 21.725C21.2285 21.725 22.95 20.0036 22.95 17.88C22.95 15.7565 21.2285 14.035 19.105 14.035ZM14.26 17.88C14.26 15.2042 16.4292 13.035 19.105 13.035C21.7808 13.035 23.95 15.2042 23.95 17.88C23.95 20.5559 21.7808 22.725 19.105 22.725C16.4292 22.725 14.26 20.5559 14.26 17.88Z" fill="#699C69"/>
</g>
<defs>
<clipPath id="clip0_81_319">
<rect width="24" height="24" fill="white"/>
</clipPath>
</defs>
</svg>
