<svg width="24" height="24" viewBox="0 0 24 24" fill="none" xmlns="http://www.w3.org/2000/svg">
<path d="M22.6 9.4L12.25 0.5C11.95 0.25 11.6 0.25 11.3 0.5L1.34998 9.4C1.14998 9.55 1.09998 9.75 1.09998 9.95V22.75C1.09998 23.15 1.59998 23.65 1.99998 23.65C2.49998 23.65 2.14998 23.65 5.49998 23.6C5.94998 23.6 6.39998 23.15 6.39998 22.75V11.75C6.39998 11.7 6.44998 11.65 6.49998 11.65H17.65C17.7 11.65 17.75 11.7 17.75 11.75V22.8C17.75 23.2 18.25 23.7 18.65 23.7H21.4C21.8 23.7 22.3 23.7 22.3 23.2C22.3 22.7 21.8 22.7 21.4 22.7H18.9C18.8 22.7 18.75 22.65 18.75 22.55V11.55C18.75 10.65 18.25 10.65 17.85 10.65H6.34998C5.94998 10.65 5.44998 10.65 5.44998 11.25V22.6C5.44998 22.65 5.39998 22.7 5.34998 22.7H2.19998C2.14998 22.7 2.09998 22.65 2.09998 22.6V9.95L11.8 1.5L21.9 9.95V18.15C21.9 18.55 21.9 19.05 22.4 19.05C22.9 19.05 22.9 18.55 22.9 18.15V9.9C22.9 9.65 22.8 9.55 22.6 9.4Z" fill="#4195B9"/>
<path d="M18.75 12.75H5.44995V13.75H18.75V12.75Z" fill="#4195B9"/>
<path d="M18.75 14.75H5.44995V15.75H18.75V14.75Z" fill="#4195B9"/>
<path d="M16.3 16.6H13.15C12.9 16.6 12.7 16.8 12.7 17.05V19.65H10.1C9.85003 19.65 9.65002 19.85 9.65002 20.1V23.25C9.65002 23.5 9.85003 23.7 10.1 23.7H16.3C16.55 23.7 16.75 23.5 16.75 23.25V17.05C16.75 16.8 16.55 16.6 16.3 16.6ZM15.75 20.65V22.7H13.7V20.65H15.75ZM15.75 17.6V19.65H13.7V17.6H15.75ZM12.7 20.65V22.7H10.65V20.65H12.7Z" fill="#699C69"/>
<path d="M11.6 21.5C11.3 21.5 11.1 21.3 11.1 21V20.65H12.1V21C12.1 21.25 11.9 21.5 11.6 21.5Z" fill="#699C69"/>
<path d="M14.7 18.45C14.4 18.45 14.2 18.25 14.2 17.95V17.6H15.2V17.95C15.2 18.2 15 18.45 14.7 18.45Z" fill="#699C69"/>
<path d="M14.7 21.5C14.4 21.5 14.2 21.3 14.2 21V20.65H15.2V21C15.2 21.25 15 21.5 14.7 21.5Z" fill="#699C69"/>
</svg>
