<svg width="24" height="24" viewBox="0 0 24 24" fill="none" xmlns="http://www.w3.org/2000/svg">
<g clip-path="url(#clip0_81_309)">
<path fill-rule="evenodd" clip-rule="evenodd" d="M14.4501 2.84501C13.7551 4.24501 12.2751 5.73001 10.9501 6.17001C9.6251 6.61001 9.2101 5.64501 9.9051 4.24501L14.4501 2.84501ZM21.4501 0.765015C19.4501 5.12001 14.8651 9.56501 11.1401 10.765C7.4151 11.895 6.0301 9.26501 8.0201 4.93001L9.3351 4.52001C8.0351 7.39001 8.9051 9.13502 11.4151 8.35002C13.8451 7.56502 16.8751 4.69001 18.1751 1.82001L21.4501 0.765015Z" fill="#699C69"/>
<path fill-rule="evenodd" clip-rule="evenodd" d="M0.340088 8.14001C0.340088 7.86387 0.563946 7.64001 0.840088 7.64001H5.40009C5.67623 7.64001 5.90009 7.86387 5.90009 8.14001C5.90009 8.41616 5.67623 8.64001 5.40009 8.64001H0.840088C0.563946 8.64001 0.340088 8.41616 0.340088 8.14001Z" fill="#4195B9"/>
<path fill-rule="evenodd" clip-rule="evenodd" d="M18.2454 8.14001C18.2454 7.86387 18.4692 7.64001 18.7454 7.64001H23.3004C23.5765 7.64001 23.8004 7.86387 23.8004 8.14001C23.8004 8.41616 23.5765 8.64001 23.3004 8.64001H18.7454C18.4692 8.64001 18.2454 8.41616 18.2454 8.14001Z" fill="#4195B9"/>
<path fill-rule="evenodd" clip-rule="evenodd" d="M3.12036 7.86023C3.3965 7.86023 3.62036 8.08409 3.62036 8.36023V22.2052H11.3504V15.3502C11.3504 15.0741 11.5742 14.8502 11.8504 14.8502H13.3004C13.5765 14.8502 13.8004 15.0741 13.8004 15.3502C13.8004 15.6264 13.5765 15.8502 13.3004 15.8502H12.3504V22.7052C12.3504 22.9814 12.1265 23.2052 11.8504 23.2052H3.12036C2.84422 23.2052 2.62036 22.9814 2.62036 22.7052V8.36023C2.62036 8.08409 2.84422 7.86023 3.12036 7.86023Z" fill="#4195B9"/>
<path fill-rule="evenodd" clip-rule="evenodd" d="M21.045 7.85999C21.3212 7.85999 21.545 8.08384 21.545 8.35999V11.685C21.545 11.9611 21.3212 12.185 21.045 12.185C20.7689 12.185 20.545 11.9611 20.545 11.685V8.35999C20.545 8.08384 20.7689 7.85999 21.045 7.85999Z" fill="#4195B9"/>
<path fill-rule="evenodd" clip-rule="evenodd" d="M19.1051 14.235C16.9816 14.235 15.2601 15.9565 15.2601 18.08C15.2601 20.2035 16.9816 21.925 19.1051 21.925C21.2287 21.925 22.9501 20.2035 22.9501 18.08C22.9501 15.9565 21.2287 14.235 19.1051 14.235ZM14.2601 18.08C14.2601 15.4042 16.4293 13.235 19.1051 13.235C21.781 13.235 23.9501 15.4042 23.9501 18.08C23.9501 20.7558 21.781 22.925 19.1051 22.925C16.4293 22.925 14.2601 20.7558 14.2601 18.08Z" fill="#699C69"/>
<path fill-rule="evenodd" clip-rule="evenodd" d="M20.9799 16.1919C21.1943 16.366 21.2269 16.6809 21.0527 16.8952L18.6277 19.8802C18.5375 19.9914 18.4039 20.0584 18.2609 20.0645C18.1179 20.0706 17.9791 20.0151 17.8797 19.912L16.6647 18.652C16.4731 18.4533 16.4788 18.1367 16.6776 17.9451C16.8764 17.7534 17.1929 17.7591 17.3846 17.9579L18.2076 18.8114L20.2766 16.2647C20.4507 16.0504 20.7656 16.0178 20.9799 16.1919Z" fill="#699C69"/>
</g>
<defs>
<clipPath id="clip0_81_309">
<rect width="24" height="24" fill="white"/>
</clipPath>
</defs>
</svg>
