<svg width="24" height="24" viewBox="0 0 24 24" fill="none" xmlns="http://www.w3.org/2000/svg">
<path fill-rule="evenodd" clip-rule="evenodd" d="M0.545455 22C0.244208 22 0 21.7761 0 21.5C0 21.2239 0.244208 21 0.545455 21H1V2.5C1 2.25454 1.19295 2.05039 1.44741 2.00806L1.54545 2H12.4545C12.7558 2 13 2.22386 13 2.5V7.999L22.45 8C22.72 8 22.9446 8.17688 22.9911 8.41012L23 8.5V21H23.4545C23.7558 21 24 21.2239 24 21.5C24 21.7761 23.7558 22 23.4545 22H0.545455ZM12 3H2V21H4.5V15.5C4.5 15.2545 4.67688 15.0504 4.91012 15.0081L5 15H9C9.27614 15 9.5 15.2239 9.5 15.5V21H12V3ZM8.5 16H5.5V21H8.5V16ZM22 9H13V21H22V9Z" fill="#4195B9"/>
<path fill-rule="evenodd" clip-rule="evenodd" d="M14.75 10.5H15.75C15.8881 10.5 16 10.6119 16 10.75V11.75C16 11.8881 15.8881 12 15.75 12H14.75C14.6119 12 14.5 11.8881 14.5 11.75V10.75C14.5 10.6119 14.6119 10.5 14.75 10.5ZM14.75 15.5H15.75C15.8881 15.5 16 15.6119 16 15.75V16.75C16 16.8881 15.8881 17 15.75 17H14.75C14.6119 17 14.5 16.8881 14.5 16.75V15.75C14.5 15.6119 14.6119 15.5 14.75 15.5ZM14.75 13H15.75C15.8881 13 16 13.1119 16 13.25V14.25C16 14.3881 15.8881 14.5 15.75 14.5H14.75C14.6119 14.5 14.5 14.3881 14.5 14.25V13.25C14.5 13.1119 14.6119 13 14.75 13ZM14.75 18H15.75C15.8881 18 16 18.1119 16 18.25V19.25C16 19.3881 15.8881 19.5 15.75 19.5H14.75C14.6119 19.5 14.5 19.3881 14.5 19.25V18.25C14.5 18.1119 14.6119 18 14.75 18ZM19.25 10.5H20.25C20.3881 10.5 20.5 10.6119 20.5 10.75V11.75C20.5 11.8881 20.3881 12 20.25 12H19.25C19.1119 12 19 11.8881 19 11.75V10.75C19 10.6119 19.1119 10.5 19.25 10.5ZM19.25 15.5H20.25C20.3881 15.5 20.5 15.6119 20.5 15.75V16.75C20.5 16.8881 20.3881 17 20.25 17H19.25C19.1119 17 19 16.8881 19 16.75V15.75C19 15.6119 19.1119 15.5 19.25 15.5ZM19.25 13H20.25C20.3881 13 20.5 13.1119 20.5 13.25V14.25C20.5 14.3881 20.3881 14.5 20.25 14.5H19.25C19.1119 14.5 19 14.3881 19 14.25V13.25C19 13.1119 19.1119 13 19.25 13ZM19.25 18H20.25C20.3881 18 20.5 18.1119 20.5 18.25V19.25C20.5 19.3881 20.3881 19.5 20.25 19.5H19.25C19.1119 19.5 19 19.3881 19 19.25V18.25C19 18.1119 19.1119 18 19.25 18ZM17 10.5H18C18.1381 10.5 18.25 10.6119 18.25 10.75V11.75C18.25 11.8881 18.1381 12 18 12H17C16.8619 12 16.75 11.8881 16.75 11.75V10.75C16.75 10.6119 16.8619 10.5 17 10.5ZM17 15.5H18C18.1381 15.5 18.25 15.6119 18.25 15.75V16.75C18.25 16.8881 18.1381 17 18 17H17C16.8619 17 16.75 16.8881 16.75 16.75V15.75C16.75 15.6119 16.8619 15.5 17 15.5ZM17 13H18C18.1381 13 18.25 13.1119 18.25 13.25V14.25C18.25 14.3881 18.1381 14.5 18 14.5H17C16.8619 14.5 16.75 14.3881 16.75 14.25V13.25C16.75 13.1119 16.8619 13 17 13ZM17 18H18C18.1381 18 18.25 18.1119 18.25 18.25V19.25C18.25 19.3881 18.1381 19.5 18 19.5H17C16.8619 19.5 16.75 19.3881 16.75 19.25V18.25C16.75 18.1119 16.8619 18 17 18ZM3.75 4.5H4.75C4.88807 4.5 5 4.61193 5 4.75V5.75C5 5.88807 4.88807 6 4.75 6H3.75C3.61193 6 3.5 5.88807 3.5 5.75V4.75C3.5 4.61193 3.61193 4.5 3.75 4.5ZM3.75 7H4.75C4.88807 7 5 7.11193 5 7.25V8.25C5 8.38807 4.88807 8.5 4.75 8.5H3.75C3.61193 8.5 3.5 8.38807 3.5 8.25V7.25C3.5 7.11193 3.61193 7 3.75 7ZM3.75 9.5H4.75C4.88807 9.5 5 9.61193 5 9.75V10.75C5 10.8881 4.88807 11 4.75 11H3.75C3.61193 11 3.5 10.8881 3.5 10.75V9.75C3.5 9.61193 3.61193 9.5 3.75 9.5ZM3.75 12H4.75C4.88807 12 5 12.1119 5 12.25V13.25C5 13.3881 4.88807 13.5 4.75 13.5H3.75C3.61193 13.5 3.5 13.3881 3.5 13.25V12.25C3.5 12.1119 3.61193 12 3.75 12ZM9.25 4.5H10.25C10.3881 4.5 10.5 4.61193 10.5 4.75V5.75C10.5 5.88807 10.3881 6 10.25 6H9.25C9.11193 6 9 5.88807 9 5.75V4.75C9 4.61193 9.11193 4.5 9.25 4.5ZM9.25 7H10.25C10.3881 7 10.5 7.11193 10.5 7.25V8.25C10.5 8.38807 10.3881 8.5 10.25 8.5H9.25C9.11193 8.5 9 8.38807 9 8.25V7.25C9 7.11193 9.11193 7 9.25 7ZM9.25 9.5H10.25C10.3881 9.5 10.5 9.61193 10.5 9.75V10.75C10.5 10.8881 10.3881 11 10.25 11H9.25C9.11193 11 9 10.8881 9 10.75V9.75C9 9.61193 9.11193 9.5 9.25 9.5ZM9.25 12H10.25C10.3881 12 10.5 12.1119 10.5 12.25V13.25C10.5 13.3881 10.3881 13.5 10.25 13.5H9.25C9.11193 13.5 9 13.3881 9 13.25V12.25C9 12.1119 9.11193 12 9.25 12ZM6.5 4.5H7.5C7.63807 4.5 7.75 4.61193 7.75 4.75V5.75C7.75 5.88807 7.63807 6 7.5 6H6.5C6.36193 6 6.25 5.88807 6.25 5.75V4.75C6.25 4.61193 6.36193 4.5 6.5 4.5ZM6.5 7H7.5C7.63807 7 7.75 7.11193 7.75 7.25V8.25C7.75 8.38807 7.63807 8.5 7.5 8.5H6.5C6.36193 8.5 6.25 8.38807 6.25 8.25V7.25C6.25 7.11193 6.36193 7 6.5 7ZM6.5 9.5H7.5C7.63807 9.5 7.75 9.61193 7.75 9.75V10.75C7.75 10.8881 7.63807 11 7.5 11H6.5C6.36193 11 6.25 10.8881 6.25 10.75V9.75C6.25 9.61193 6.36193 9.5 6.5 9.5ZM6.5 12H7.5C7.63807 12 7.75 12.1119 7.75 12.25V13.25C7.75 13.3881 7.63807 13.5 7.5 13.5H6.5C6.36193 13.5 6.25 13.3881 6.25 13.25V12.25C6.25 12.1119 6.36193 12 6.5 12Z" fill="#699C69"/>
</svg>
