<svg width="24" height="24" viewBox="0 0 24 24" fill="none" xmlns="http://www.w3.org/2000/svg">
<g clip-path="url(#clip0_93_116)">
<path fill-rule="evenodd" clip-rule="evenodd" d="M7.21667 3.81824C7.44679 3.81824 7.63334 4.03116 7.63334 4.29382L7.63268 6.04224L6.79967 6.79724L6.80001 4.76941H4.30001L4.29967 9.06424L3.46667 9.81924V4.29382C3.46667 4.06035 3.61407 3.86617 3.80845 3.8259L3.88334 3.81824H7.21667Z" fill="#699C69"/>
<path fill-rule="evenodd" clip-rule="evenodd" d="M10.2821 3.09585C10.437 2.96805 10.6631 2.96805 10.818 3.09585L19.1514 9.96858C19.2456 10.0463 19.3 10.161 19.3 10.2818V10.8807C19.3 11.1067 19.1135 11.2898 18.8834 11.2898H18.3L18.2994 10.4714L18.4667 10.4716L10.55 3.94255L2.63338 10.4716V20.1818H10.1334V14.0455C10.1334 13.8446 10.2808 13.6776 10.4752 13.643L10.55 13.6364H15.55C15.7802 13.6364 15.9667 13.8195 15.9667 14.0455L15.9667 15.0491L15.1334 15.0496V14.4545H10.9667V20.5909C10.9667 20.7917 10.8193 20.9588 10.6249 20.9934L10.55 21H2.21672C1.9866 21 1.80005 20.8168 1.80005 20.5909V10.2818C1.80005 10.161 1.85447 10.0463 1.94872 9.96858L10.2821 3.09585Z" fill="#4195B9"/>
<rect x="18" y="21.0016" width="9" height="1" rx="0.5" transform="rotate(-90.0885 18 21.0016)" fill="#699C69"/>
<rect x="23" y="17.0009" width="9" height="1" rx="0.5" transform="rotate(-180 23 17.0009)" fill="#699C69"/>
</g>
<defs>
<clipPath id="clip0_93_116">
<rect width="24" height="24" fill="white"/>
</clipPath>
</defs>
</svg>
