<svg width="24" height="24" viewBox="0 0 24 24" fill="none" xmlns="http://www.w3.org/2000/svg">
<path fill-rule="evenodd" clip-rule="evenodd" d="M8 1.5C8.27614 1.5 8.5 1.72386 8.5 2V3.837L7.5 4.631V2.5H4.5V7.014L3.5 7.808V2C3.5 1.75454 3.67688 1.55039 3.91012 1.50806L4 1.5H8Z" fill="#699C69"/>
<path fill-rule="evenodd" clip-rule="evenodd" d="M11.6784 0.617148L1.6784 9.01715C1.56531 9.11215 1.5 9.2523 1.5 9.4V22C1.5 22.2761 1.72386 22.5 2 22.5H12L12.0899 22.4919C12.3231 22.4496 12.5 22.2455 12.5 22V14.5H17.5V22C17.5 22.2761 17.7239 22.5 18 22.5H22C22.2761 22.5 22.5 22.2761 22.5 22V9.4C22.5 9.2523 22.4347 9.11215 22.3216 9.01715L12.3216 0.617148C12.1356 0.460951 11.8644 0.460951 11.6784 0.617148ZM12 1.652L21.5 9.632V21.5H18.5V14C18.5 13.7239 18.2761 13.5 18 13.5H12L11.9101 13.5081C11.6769 13.5504 11.5 13.7545 11.5 14V21.5H2.5V9.632L12 1.652Z" fill="#4195B9"/>
</svg>
