<svg width="24" height="24" viewBox="0 0 24 24" fill="none" xmlns="http://www.w3.org/2000/svg">
<path fill-rule="evenodd" clip-rule="evenodd" d="M19.1057 15.2349C16.9822 15.2349 15.2607 16.9563 15.2607 19.0799C15.2607 21.2034 16.9822 22.9249 19.1057 22.9249C21.2293 22.9249 22.9507 21.2034 22.9507 19.0799C22.9507 16.9563 21.2293 15.2349 19.1057 15.2349ZM14.2607 19.0799C14.2607 16.404 16.4299 14.2349 19.1057 14.2349C21.7816 14.2349 23.9507 16.404 23.9507 19.0799C23.9507 21.7557 21.7816 23.9249 19.1057 23.9249C16.4299 23.9249 14.2607 21.7557 14.2607 19.0799Z" fill="#699C69"/>
<path fill-rule="evenodd" clip-rule="evenodd" d="M9.4518 1.15947C9.63602 1.00726 9.90219 1.00668 10.0871 1.15809L18.2071 7.80809C18.323 7.90306 18.3903 8.04504 18.3903 8.19492V12.8199C18.3903 13.0961 18.1664 13.3199 17.8903 13.3199C17.6141 13.3199 17.3903 13.0961 17.3903 12.8199V8.43172L9.77168 2.19235L2.15527 8.48539V17.1899H7.54027V12.1749C7.54027 11.8988 7.76413 11.6749 8.04027 11.6749H11.9403C12.2164 11.6749 12.4403 11.8988 12.4403 12.1749V17.1899H13.2953C13.5714 17.1899 13.7953 17.4138 13.7953 17.6899C13.7953 17.9661 13.5714 18.1899 13.2953 18.1899H11.9403C11.6641 18.1899 11.4403 17.9661 11.4403 17.6899V12.6749H8.54027V17.6899C8.54027 17.9661 8.31642 18.1899 8.04027 18.1899H1.65527C1.37913 18.1899 1.15527 17.9661 1.15527 17.6899V8.24992C1.15527 8.1008 1.22184 7.95946 1.3368 7.86447L9.4518 1.15947Z" fill="#4195B9"/>
<path fill-rule="evenodd" clip-rule="evenodd" d="M21.2003 17.0768C21.4146 17.2509 21.4472 17.5658 21.2731 17.7801L18.8481 20.7651C18.7577 20.8764 18.6239 20.9435 18.4807 20.9494C18.3375 20.9554 18.1986 20.8996 18.0994 20.7962L16.8894 19.5362C16.6981 19.337 16.7045 19.0205 16.9037 18.8292C17.1028 18.638 17.4194 18.6444 17.6106 18.8435L18.4287 19.6954L20.4969 17.1496C20.671 16.9353 20.9859 16.9027 21.2003 17.0768Z" fill="#699C69"/>
</svg>
