<svg width="24" height="24" viewBox="0 0 24 24" fill="none" xmlns="http://www.w3.org/2000/svg">
<path fill-rule="evenodd" clip-rule="evenodd" d="M9.29652 1.11455C9.48074 0.962337 9.74692 0.961759 9.9318 1.11317L18.0518 7.76317C18.1678 7.85814 18.235 8.00012 18.235 8.15V12.775C18.235 13.0511 18.0111 13.275 17.735 13.275C17.4589 13.275 17.235 13.0511 17.235 12.775V8.3868L9.61641 2.14743L2 8.44047V17.145H7.385V12.13C7.385 11.8539 7.60886 11.63 7.885 11.63H11.785C12.0611 11.63 12.285 11.8539 12.285 12.13V17.145H13.14C13.4161 17.145 13.64 17.3689 13.64 17.645C13.64 17.9211 13.4161 18.145 13.14 18.145H11.785C11.5089 18.145 11.285 17.9211 11.285 17.645V12.63H8.385V17.645C8.385 17.9211 8.16114 18.145 7.885 18.145H1.5C1.22386 18.145 1 17.9211 1 17.645V8.205C1 8.05588 1.06656 7.91454 1.18152 7.81955L9.29652 1.11455Z" fill="#4195B9"/>
<path d="M20.9359 18.0587V17.7546C20.9359 16.7661 20.1177 15.955 19.095 15.955C18.0978 15.955 17.2541 16.7661 17.2541 17.7799V18.0587L17.2029 18.1094C16.9728 18.3122 16.845 18.6163 16.845 18.9205V20.3652C16.845 20.9481 17.3308 21.455 17.9444 21.455H20.2455C20.8592 21.455 21.345 20.9735 21.345 20.3652V18.9205C21.345 18.6163 21.1916 18.3122 20.9614 18.1094L20.9359 18.0587ZM18.1152 17.6517C18.1555 17.045 18.5998 16.555 19.145 16.555C19.6902 16.555 20.1344 17.0217 20.1748 17.6517L20.195 17.815H18.095L18.1152 17.6517ZM20.6426 20.3336C20.6426 20.6431 20.3871 20.8812 20.0805 20.905H18.1681C17.836 20.905 17.555 20.6431 17.555 20.3336V18.9764C17.555 18.6669 17.836 18.405 18.1681 18.405H20.0805C20.4126 18.4288 20.6681 18.6669 20.6681 18.9764V20.3336H20.6426Z" fill="#699C69"/>
<path d="M19.1364 19.008C18.8854 19.008 18.7029 19.2209 18.6801 19.4575C18.6801 19.6231 18.7713 19.7886 18.9082 19.8596V20.1435C18.9082 20.2617 18.9995 20.38 19.1364 20.38C19.2504 20.38 19.3645 20.2854 19.3645 20.1435V19.8596C19.5698 19.7413 19.6611 19.4575 19.547 19.2446C19.4558 19.1027 19.2961 18.9844 19.1364 19.008Z" fill="#4195B9"/>
<path fill-rule="evenodd" clip-rule="evenodd" d="M18.95 14.99C16.8264 14.99 15.105 16.7115 15.105 18.835C15.105 20.9585 16.8264 22.68 18.95 22.68C21.0735 22.68 22.795 20.9585 22.795 18.835C22.795 16.7115 21.0735 14.99 18.95 14.99ZM14.105 18.835C14.105 16.1592 16.2742 13.99 18.95 13.99C21.6258 13.99 23.795 16.1592 23.795 18.835C23.795 21.5108 21.6258 23.68 18.95 23.68C16.2742 23.68 14.105 21.5108 14.105 18.835Z" fill="#699C69"/>
</svg>
