<svg width="24" height="24" viewBox="0 0 24 24" fill="none" xmlns="http://www.w3.org/2000/svg">
<path fill-rule="evenodd" clip-rule="evenodd" d="M19.0629 12.0023C17.8445 11.9486 15.5562 12.8133 15.4076 15.2274C15.2489 17.8075 17.7386 20.8712 18.904 22C20.0695 21.0325 22.4004 17.8132 22.4004 15.5499C22.4004 12.9699 20.1754 12.0024 19.0629 12.0023ZM18.9243 20.5609C19.3324 20.0893 19.804 19.4561 20.2328 18.7447C20.9377 17.575 21.4004 16.3996 21.4004 15.5499C21.4004 14.587 21.0008 13.9764 20.5186 13.585C19.9974 13.162 19.3845 13.0023 19.0629 13.0023C19.0482 13.0023 19.0335 13.002 19.0189 13.0014C18.6266 12.9841 17.9644 13.1255 17.4009 13.5132C16.8732 13.8764 16.4585 14.4321 16.4058 15.2888C16.3454 16.2694 16.7985 17.4631 17.5135 18.6381C17.9611 19.3736 18.4741 20.0412 18.9243 20.5609Z" fill="#699C69"/>
<path fill-rule="evenodd" clip-rule="evenodd" d="M9.02252 2.2518C9.21165 2.08788 9.49284 2.08905 9.6806 2.25454L17.3287 8.99531C17.4364 9.09022 17.4981 9.22685 17.4981 9.37041V11C17.4981 11.2761 17.2742 11.5 16.9981 11.5C16.7219 11.5 16.4981 11.2761 16.4981 11V9.59621L9.34724 3.29369L2.49996 9.22835L2.49814 18.5H6.29805V13.0741C6.29805 12.798 6.5219 12.5741 6.79805 12.5741H10.9981C11.2742 12.5741 11.4981 12.798 11.4981 13.0741V18.5H14.5981C14.8742 18.5 15.0981 18.7239 15.0981 19C15.0981 19.2762 14.8742 19.5 14.5981 19.5H10.9981C10.7219 19.5 10.4981 19.2762 10.4981 19V13.5741H7.29805V19C7.29805 19.2762 7.07419 19.5 6.79805 19.5H1.99805C1.86542 19.5 1.73823 19.4473 1.64446 19.3536C1.55069 19.2598 1.49802 19.1326 1.49805 18.9999L1.5 8.99991C1.50003 8.85494 1.56297 8.71712 1.67252 8.62217L9.02252 2.2518Z" fill="#4195B9"/>
<path d="M19.4998 15.1C19.4998 15.4314 19.2312 15.7 18.8998 15.7C18.5684 15.7 18.2998 15.4314 18.2998 15.1C18.2998 14.7686 18.5684 14.5 18.8998 14.5C19.2312 14.5 19.4998 14.7686 19.4998 15.1Z" fill="#699C69"/>
</svg>
