<svg width="24" height="24" viewBox="0 0 24 24" fill="none" xmlns="http://www.w3.org/2000/svg">
<path fill-rule="evenodd" clip-rule="evenodd" d="M15.5352 2.5359C15.7066 2.45197 15.9109 2.47301 16.0617 2.59011L22.9817 7.96511C23.1036 8.05983 23.175 8.20558 23.175 8.35999V19.42C23.175 20.0247 22.9348 20.6046 22.5072 21.0322C22.0796 21.4598 21.4997 21.7 20.895 21.7H2.72998C1.5894 21.7 0.663736 20.7774 0.659979 19.6368C0.659979 19.6367 0.659979 19.6369 0.659979 19.6368L0.599979 3.18681C0.599314 3.00444 0.698001 2.83617 0.857496 2.74772C1.01699 2.65928 1.21199 2.66469 1.36634 2.76184L7.85998 6.84944V2.98499C7.85998 2.80195 7.95999 2.63354 8.12072 2.54595C8.28144 2.45836 8.47718 2.4656 8.631 2.56482L15.255 6.83748V2.98499C15.255 2.79408 15.3637 2.61983 15.5352 2.5359ZM8.85998 3.9025V7.75499C8.85998 7.93704 8.76103 8.1047 8.60166 8.1927C8.44229 8.2807 8.24768 8.27512 8.09362 8.17814L1.60329 4.09263L1.65997 19.6332C1.66185 20.2228 2.14036 20.7 2.72998 20.7H20.895C21.2345 20.7 21.56 20.5651 21.8001 20.3251C22.0401 20.085 22.175 19.7595 22.175 19.42V8.60473L16.255 4.00647V7.75499C16.255 7.93803 16.155 8.10644 15.9942 8.19403C15.8335 8.28162 15.6378 8.27438 15.484 8.17516L8.85998 3.9025Z" fill="#4195B9"/>
<path d="M8.35994 12.79H5.18494V15.575H8.35994V12.79Z" fill="#699C69"/>
<path d="M13.425 12.79H10.25V15.575H13.425V12.79Z" fill="#699C69"/>
<path d="M18.4849 12.79H15.3099V15.575H18.4849V12.79Z" fill="#699C69"/>
</svg>
