<svg width="24" height="24" viewBox="0 0 24 24" fill="none" xmlns="http://www.w3.org/2000/svg">
<path fill-rule="evenodd" clip-rule="evenodd" d="M15.5348 2.53578C15.7063 2.45185 15.9106 2.47288 16.0613 2.58999L22.9813 7.96499C23.1033 8.05971 23.1746 8.20546 23.1746 8.35987V19.4199C23.1746 20.0246 22.9344 20.6045 22.5068 21.0321C22.0792 21.4597 21.4993 21.6999 20.8946 21.6999H2.72961C1.58903 21.6999 0.663369 20.7772 0.659613 19.6367C0.659612 19.6366 0.659613 19.6368 0.659613 19.6367L0.599613 3.18669C0.598948 3.00432 0.697635 2.83604 0.85713 2.7476C1.01663 2.65915 1.21163 2.66457 1.36597 2.76172L7.85961 6.84932V2.98487C7.85961 2.80183 7.95963 2.63341 8.12035 2.54583C8.28108 2.45824 8.47682 2.46548 8.63063 2.56469L15.2546 6.83736V2.98487C15.2546 2.79396 15.3633 2.61971 15.5348 2.53578ZM8.85961 3.90237V7.75487C8.85961 7.93692 8.76066 8.10458 8.60129 8.19258C8.44192 8.28057 8.24732 8.27499 8.09325 8.17801L1.60292 4.0925L1.65961 19.633C1.66148 20.2227 2.13999 20.6999 2.72961 20.6999H20.8946C21.2341 20.6999 21.5597 20.565 21.7997 20.325C22.0398 20.0849 22.1746 19.7593 22.1746 19.4199V8.60461L16.2546 4.00634V7.75487C16.2546 7.93791 16.1546 8.10632 15.9939 8.19391C15.8331 8.2815 15.6374 8.27426 15.4836 8.17504L8.85961 3.90237Z" fill="#4195B9"/>
<path fill-rule="evenodd" clip-rule="evenodd" d="M12.2596 11.0198C11.5646 12.4198 10.0846 13.9048 8.7596 14.3448C7.4346 14.7848 7.0196 13.8198 7.7146 12.4198L12.2596 11.0198ZM19.2596 8.94482C17.2596 13.2998 12.6746 17.7398 8.9446 18.9448C5.2196 20.0748 3.8346 17.4448 5.8296 13.1098L7.1296 12.6748C5.8296 15.5498 6.6946 17.2898 9.2046 16.5048C11.6546 15.7198 14.6846 12.8498 16.0096 9.97482L19.2596 8.94482Z" fill="#699C69"/>
</svg>
