<svg width="24" height="24" viewBox="0 0 24 24" fill="none" xmlns="http://www.w3.org/2000/svg">
<path fill-rule="evenodd" clip-rule="evenodd" d="M13.5395 3.5359C13.7109 3.45192 13.9151 3.47277 14.0659 3.58966L20.0659 8.23966C20.1881 8.33436 20.2596 8.48027 20.2596 8.63487V11.1949C20.2596 11.471 20.0358 11.6949 19.7596 11.6949C19.4835 11.6949 19.2596 11.471 19.2596 11.1949V8.87995L14.2596 5.00495V8.10987C14.2596 8.293 14.1595 8.46149 13.9986 8.54904C13.8378 8.63658 13.6419 8.62918 13.4881 8.52975L7.87961 4.90355V8.10987C7.87961 8.29189 7.7807 8.45953 7.62137 8.54753C7.46204 8.63554 7.26747 8.63002 7.1134 8.53311L1.60312 5.06725L1.65461 18.3849C1.65461 18.8571 2.03741 19.2399 2.50961 19.2399H12.7246C13.0008 19.2399 13.2246 19.4637 13.2246 19.7399C13.2246 20.016 13.0008 20.2399 12.7246 20.2399H2.50961C1.48547 20.2399 0.655174 19.4099 0.65461 18.3859C0.654609 18.3856 0.654609 18.3852 0.654609 18.3849L0.599613 4.1618C0.598908 3.97944 0.697545 3.81115 0.857005 3.72267C1.01646 3.63418 1.21145 3.63953 1.36582 3.73663L6.87961 7.2047V3.98487C6.87961 3.80173 6.97973 3.63325 7.14059 3.5457C7.30144 3.45815 7.49729 3.46555 7.65108 3.56498L13.2596 7.19119V3.98487C13.2596 3.79406 13.3682 3.61988 13.5395 3.5359Z" fill="#4195B9"/>
<path fill-rule="evenodd" clip-rule="evenodd" d="M17.745 16.6946C17.745 16.4461 17.9464 16.2446 18.195 16.2446H19.695C20.7471 16.2446 21.6 17.0975 21.6 18.1496V18.3446C21.6 19.3967 20.7471 20.2496 19.695 20.2496H17.535C17.2864 20.2496 17.085 20.0482 17.085 19.7996C17.085 19.5511 17.2864 19.3496 17.535 19.3496H19.695C20.25 19.3496 20.7 18.8997 20.7 18.3446V18.1496C20.7 17.5946 20.25 17.1446 19.695 17.1446H18.195C17.9464 17.1446 17.745 16.9432 17.745 16.6946Z" fill="#699C69"/>
<path fill-rule="evenodd" clip-rule="evenodd" d="M19.0875 15.1561C19.2636 15.3314 19.2642 15.6164 19.0888 15.7925L18.1701 16.7149L19.0888 17.6373C19.2642 17.8134 19.2636 18.0984 19.0875 18.2737C18.9114 18.4491 18.6265 18.4485 18.4511 18.2725L17.2161 17.0325C17.0412 16.8569 17.0412 16.5729 17.2161 16.3973L18.4511 15.1573C18.6265 14.9813 18.9114 14.9807 19.0875 15.1561Z" fill="#699C69"/>
<path fill-rule="evenodd" clip-rule="evenodd" d="M19.1046 14.0349C16.9811 14.0349 15.2596 15.7564 15.2596 17.8799C15.2596 20.0034 16.9811 21.7249 19.1046 21.7249C21.2282 21.7249 22.9496 20.0034 22.9496 17.8799C22.9496 15.7564 21.2282 14.0349 19.1046 14.0349ZM14.2596 17.8799C14.2596 15.2041 16.4288 13.0349 19.1046 13.0349C21.7805 13.0349 23.9496 15.2041 23.9496 17.8799C23.9496 20.5557 21.7805 22.7249 19.1046 22.7249C16.4288 22.7249 14.2596 20.5557 14.2596 17.8799Z" fill="#699C69"/>
</svg>
