<svg width="24" height="24" viewBox="0 0 24 24" fill="none" xmlns="http://www.w3.org/2000/svg">
<path d="M19.855 14.675C19.2794 15.8663 18.284 16.803 17.06 17.305C16.06 17.61 15.675 16.915 16.215 15.76L15.685 15.92C14.855 17.685 15.435 18.745 16.975 18.285C18.515 17.825 20.415 16.02 21.23 14.285L19.855 14.675Z" fill="#699C69"/>
<path d="M16.91 16.475C17.5353 16.2189 18.0432 15.7395 18.335 15.13L16.46 15.685C16.185 16.275 16.375 16.63 16.91 16.475Z" fill="#699C69"/>
<path fill-rule="evenodd" clip-rule="evenodd" d="M12.9399 2.05104C13.1113 1.96706 13.3155 1.98791 13.4663 2.1048L19.4663 6.7548C19.5885 6.8495 19.66 6.9954 19.66 7.15V9.71C19.66 9.98615 19.4361 10.21 19.16 10.21C18.8839 10.21 18.66 9.98615 18.66 9.71V7.39508L13.66 3.52008V6.625C13.66 6.80814 13.5599 6.97662 13.399 7.06417C13.2382 7.15172 13.0423 7.14432 12.8885 7.04489L7.28 3.41868V6.625C7.28 6.80702 7.18109 6.97466 7.02176 7.06267C6.86243 7.15068 6.66787 7.14515 6.51379 7.04824L1.00351 3.58238L1.055 16.9C1.055 17.3722 1.4378 17.755 1.91 17.755H12.125C12.4011 17.755 12.625 17.9789 12.625 18.255C12.625 18.5311 12.4011 18.755 12.125 18.755H1.91C0.88586 18.755 0.0555643 17.9251 0.0550003 16.901C0.0550001 16.9007 0.055 16.9004 0.055 16.9L3.75508e-06 2.67694C-0.000701338 2.49457 0.0979358 2.32629 0.257395 2.23781C0.416854 2.14932 0.611842 2.15467 0.76621 2.25176L6.28 5.71983V2.5C6.28 2.31687 6.38012 2.14838 6.54098 2.06084C6.70184 1.97329 6.89768 1.98069 7.05148 2.08012L12.66 5.70632V2.5C12.66 2.30919 12.7686 2.13502 12.9399 2.05104Z" fill="#4195B9"/>
<path fill-rule="evenodd" clip-rule="evenodd" d="M18.2649 12.01C16.0144 12.01 14.1899 13.8344 14.1899 16.085C14.1899 18.3356 16.0144 20.16 18.2649 20.16C20.5155 20.16 22.3399 18.3356 22.3399 16.085C22.3399 13.8344 20.5155 12.01 18.2649 12.01ZM13.1899 16.085C13.1899 13.2822 15.4621 11.01 18.2649 11.01C21.0678 11.01 23.3399 13.2822 23.3399 16.085C23.3399 18.8879 21.0678 21.16 18.2649 21.16C15.4621 21.16 13.1899 18.8879 13.1899 16.085Z" fill="#699C69"/>
</svg>
