<svg width="24" height="24" viewBox="0 0 24 24" fill="none" xmlns="http://www.w3.org/2000/svg">
<path fill-rule="evenodd" clip-rule="evenodd" d="M12.9399 2.05104C13.1113 1.96706 13.3155 1.98791 13.4663 2.1048L19.4663 6.7548C19.5885 6.8495 19.66 6.9954 19.66 7.15V9.71C19.66 9.98615 19.4361 10.21 19.16 10.21C18.8839 10.21 18.66 9.98615 18.66 9.71V7.39508L13.66 3.52008V6.625C13.66 6.80814 13.5599 6.97662 13.399 7.06417C13.2382 7.15172 13.0423 7.14432 12.8885 7.04489L7.28 3.41868V6.625C7.28 6.80702 7.18109 6.97466 7.02176 7.06267C6.86243 7.15068 6.66787 7.14515 6.51379 7.04824L1.00351 3.58238L1.055 16.9C1.055 17.3722 1.4378 17.755 1.91 17.755H12.125C12.4011 17.755 12.625 17.9789 12.625 18.255C12.625 18.5311 12.4011 18.755 12.125 18.755H1.91C0.88586 18.755 0.0555642 17.9251 0.0550003 16.901C0.0550001 16.9007 0.055 16.9004 0.055 16.9L3.75508e-06 2.67694C-0.000701338 2.49457 0.0979359 2.32629 0.257395 2.2378C0.416855 2.14932 0.611842 2.15467 0.76621 2.25176L6.28 5.71983V2.5C6.28 2.31687 6.38012 2.14838 6.54098 2.06084C6.70184 1.97329 6.89768 1.98069 7.05148 2.08012L12.66 5.70632V2.5C12.66 2.30919 12.7686 2.13502 12.9399 2.05104Z" fill="#4195B9"/>
<path d="M5.55999 10.535H3.10999V12.68H5.55999V10.535Z" fill="#699C69"/>
<path d="M9.46001 10.535H7.01001V12.68H9.46001V10.535Z" fill="#699C69"/>
<path d="M13.365 10.535H10.915V12.68H13.365V10.535Z" fill="#699C69"/>
<path fill-rule="evenodd" clip-rule="evenodd" d="M17.145 15.21C17.145 14.9615 17.3465 14.76 17.595 14.76H19.095C20.1471 14.76 21 15.6129 21 16.665V16.86C21 17.9121 20.1471 18.765 19.095 18.765H16.935C16.6865 18.765 16.485 18.5635 16.485 18.315C16.485 18.0665 16.6865 17.865 16.935 17.865H19.095C19.65 17.865 20.1 17.4151 20.1 16.86V16.665C20.1 16.11 19.65 15.66 19.095 15.66H17.595C17.3465 15.66 17.145 15.4585 17.145 15.21Z" fill="#699C69"/>
<path fill-rule="evenodd" clip-rule="evenodd" d="M18.4875 13.6712C18.6636 13.8466 18.6642 14.1315 18.4888 14.3076L17.5701 15.23L18.4888 16.1525C18.6642 16.3286 18.6636 16.6135 18.4875 16.7889C18.3115 16.9643 18.0265 16.9637 17.8511 16.7876L16.6161 15.5476C16.4413 15.372 16.4413 15.0881 16.6161 14.9125L17.8511 13.6725C18.0265 13.4964 18.3115 13.4958 18.4875 13.6712Z" fill="#699C69"/>
<path fill-rule="evenodd" clip-rule="evenodd" d="M18.505 12.55C16.3815 12.55 14.66 14.2715 14.66 16.395C14.66 18.5186 16.3815 20.24 18.505 20.24C20.6286 20.24 22.35 18.5186 22.35 16.395C22.35 14.2715 20.6286 12.55 18.505 12.55ZM13.66 16.395C13.66 13.7192 15.8292 11.55 18.505 11.55C21.1809 11.55 23.35 13.7192 23.35 16.395C23.35 19.0709 21.1809 21.24 18.505 21.24C15.8292 21.24 13.66 19.0709 13.66 16.395Z" fill="#699C69"/>
</svg>
