<svg width="24" height="24" viewBox="0 0 24 24" fill="none" xmlns="http://www.w3.org/2000/svg">
<g clip-path="url(#clip0_81_637)">
<path d="M18.68 15.16C18.1065 16.351 17.1127 17.2878 15.89 17.79C14.89 18.095 14.5 17.4 15.045 16.245L14.51 16.405C13.685 18.17 14.265 19.23 15.8 18.77C17.335 18.31 19.245 16.505 20.055 14.77L18.68 15.16Z" fill="#699C69"/>
<path d="M15.715 16.96C16.3412 16.7051 16.8494 16.2254 17.14 15.615L15.285 16.17C15.01 16.76 15.2 17.115 15.715 16.96Z" fill="#699C69"/>
<path d="M13.645 5.37995C13.645 4.98293 14.0808 4.75159 14.4061 4.95329L14.4518 4.98508L19.4018 8.83008C19.5063 8.91127 19.5736 9.02995 19.5907 9.15943L19.595 9.22495V10.3C19.595 10.5761 19.3712 10.8 19.095 10.8C18.8386 10.8 18.6273 10.6069 18.5984 10.3583L18.595 10.3V9.46945L14.645 6.40145V8.78995C14.645 9.16697 14.2476 9.40158 13.9223 9.23779L13.8741 9.21021L9.35504 6.29695V8.78995C9.35504 9.16381 8.96374 9.39846 8.63914 9.24112L8.58851 9.21299L4.16804 6.42795L4.21004 17.285C4.21004 17.4259 4.25803 17.5619 4.34497 17.6711L4.39164 17.7234C4.4913 17.823 4.6214 17.8853 4.76008 17.901L4.83004 17.905H10.645C10.9212 17.905 11.145 18.1288 11.145 18.405C11.145 18.6614 10.952 18.8727 10.7034 18.9016L10.645 18.905H4.83004C4.40039 18.905 3.98834 18.7343 3.68453 18.4305C3.40604 18.152 3.23941 17.7825 3.21358 17.3934L3.21005 17.2869L3.16504 5.52187C3.16361 5.14626 3.55752 4.90996 3.88328 5.06992L3.93158 5.09692L8.35504 7.88345V5.37995C8.35504 5.00294 8.75248 4.76833 9.07775 4.93211L9.12594 4.9597L13.645 7.87295V5.37995Z" fill="#4195B9"/>
<path d="M17.09 11.495C14.2872 11.495 12.015 13.7672 12.015 16.57C12.015 19.3728 14.2872 21.645 17.09 21.645C19.8929 21.645 22.165 19.3728 22.165 16.57C22.165 13.7672 19.8929 11.495 17.09 11.495ZM17.09 12.495C19.3406 12.495 21.165 14.3194 21.165 16.57C21.165 18.8206 19.3406 20.645 17.09 20.645C14.8395 20.645 13.015 18.8206 13.015 16.57C13.015 14.3194 14.8395 12.495 17.09 12.495Z" fill="#699C69"/>
</g>
<defs>
<clipPath id="clip0_81_637">
<rect width="24" height="24" fill="white"/>
</clipPath>
</defs>
</svg>
