<svg width="24" height="24" viewBox="0 0 24 24" fill="none" xmlns="http://www.w3.org/2000/svg">
<path fill-rule="evenodd" clip-rule="evenodd" d="M18.895 13.99C16.7715 13.99 15.05 15.7115 15.05 17.835C15.05 19.9585 16.7715 21.68 18.895 21.68C21.0186 21.68 22.74 19.9585 22.74 17.835C22.74 15.7115 21.0186 13.99 18.895 13.99ZM14.05 17.835C14.05 15.1592 16.2192 12.99 18.895 12.99C21.5709 12.99 23.74 15.1592 23.74 17.835C23.74 20.5108 21.5709 22.68 18.895 22.68C16.2192 22.68 14.05 20.5108 14.05 17.835Z" fill="#699C69"/>
<path fill-rule="evenodd" clip-rule="evenodd" d="M9.85153 1.86951C10.0358 1.71731 10.302 1.71678 10.4869 1.86827L17.3269 7.47327C17.4428 7.56823 17.51 7.71017 17.51 7.86V11.755C17.51 12.0311 17.2861 12.255 17.01 12.255C16.7338 12.255 16.51 12.0311 16.51 11.755V8.09671L10.1712 2.90248L3.82996 8.14051V15.365H8.20996V11.215C8.20996 10.9389 8.43381 10.715 8.70996 10.715H12C12.2761 10.715 12.5 10.9389 12.5 11.215V15.365H13.14C13.4161 15.365 13.64 15.5889 13.64 15.865C13.64 16.1411 13.4161 16.365 13.14 16.365H12C11.7238 16.365 11.5 16.1411 11.5 15.865V11.715H9.20996V15.865C9.20996 16.1411 8.9861 16.365 8.70996 16.365H3.32996C3.05381 16.365 2.82996 16.1411 2.82996 15.865V7.905C2.82996 7.75586 2.89654 7.6145 3.01153 7.51951L9.85153 1.86951Z" fill="#4195B9"/>
<path fill-rule="evenodd" clip-rule="evenodd" d="M6.44142 1.11463C6.62572 0.962281 6.89208 0.961735 7.07699 1.11333L9.04699 2.72833C9.26055 2.9034 9.29174 3.21844 9.11667 3.43199C8.9416 3.64555 8.62656 3.67674 8.41301 3.50167L6.76133 2.14763L1 6.91039V13.455H2.935C3.21114 13.455 3.435 13.6789 3.435 13.955C3.435 14.2311 3.21114 14.455 2.935 14.455H0.5C0.223858 14.455 0 14.2311 0 13.955V6.675C0 6.52592 0.0665228 6.38462 0.181424 6.28963L6.44142 1.11463Z" fill="#4195B9"/>
<path fill-rule="evenodd" clip-rule="evenodd" d="M16.215 17.84C16.215 17.5638 16.4388 17.34 16.715 17.34H20.41C20.6861 17.34 20.91 17.5638 20.91 17.84C20.91 18.1161 20.6861 18.34 20.41 18.34H16.715C16.4388 18.34 16.215 18.1161 16.215 17.84Z" fill="#699C69"/>
<path fill-rule="evenodd" clip-rule="evenodd" d="M19.0765 16.0864C19.2718 15.8911 19.5883 15.8911 19.7836 16.0864L21.2236 17.5264C21.4189 17.7217 21.4189 18.0382 21.2236 18.2335L19.7836 19.6735C19.5883 19.8688 19.2718 19.8688 19.0765 19.6735C18.8812 19.4782 18.8812 19.1617 19.0765 18.9664L20.1629 17.8799L19.0765 16.7935C18.8812 16.5982 18.8812 16.2817 19.0765 16.0864Z" fill="#699C69"/>
</svg>
