<svg width="24" height="24" viewBox="0 0 24 24" fill="none" xmlns="http://www.w3.org/2000/svg">
<g clip-path="url(#clip0_81_248)">
<path fill-rule="evenodd" clip-rule="evenodd" d="M18.8786 13.6948C19.041 13.6965 19.1925 13.7769 19.2849 13.9105L20.6375 15.8675L22.8975 16.5902C23.0523 16.6397 23.1734 16.7614 23.2221 16.9164C23.2709 17.0715 23.2413 17.2405 23.1427 17.3697L21.7019 19.2583L21.7075 21.6349C21.7079 21.7972 21.6295 21.9496 21.4972 22.0437C21.3648 22.1377 21.1951 22.1616 21.0419 22.1079L18.8044 21.3225L16.5459 22.0604C16.3917 22.1108 16.2226 22.0833 16.0924 21.9865C15.9622 21.8897 15.887 21.7358 15.8908 21.5736L15.9459 19.2012L14.5416 17.2814C14.4457 17.1503 14.4194 16.9808 14.4712 16.8268C14.523 16.6728 14.6464 16.5536 14.802 16.5071L17.0798 15.8269L18.4681 13.9023C18.5631 13.7706 18.7162 13.6932 18.8786 13.6948ZM18.8649 15.0616L17.7913 16.5498C17.7268 16.6393 17.6346 16.7049 17.5289 16.7364L15.7668 17.2627L16.8533 18.7478C16.9183 18.8367 16.9521 18.9446 16.9496 19.0547L16.9069 20.8905L18.6548 20.3193C18.7592 20.2852 18.872 20.2864 18.9757 20.3228L20.7059 20.9301L20.7015 19.091C20.7012 18.981 20.7372 18.874 20.804 18.7866L21.9177 17.3268L20.1707 16.7681C20.0655 16.7345 19.9745 16.667 19.9117 16.5761L18.8649 15.0616Z" fill="#699C69"/>
<path fill-rule="evenodd" clip-rule="evenodd" d="M10.0615 3.11451C10.2458 2.9623 10.512 2.96178 10.6968 3.11326L17.5368 8.71826C17.6527 8.81323 17.7199 8.95517 17.7199 9.105V13C17.7199 13.2761 17.4961 13.5 17.2199 13.5C16.9438 13.5 16.7199 13.2761 16.7199 13V9.34171L10.3812 4.14747L4.03992 9.38551V16.61H8.41992V12.46C8.41992 12.1839 8.64377 11.96 8.91992 11.96H12.2099C12.4861 11.96 12.7099 12.1839 12.7099 12.46V16.61H13.3499C13.6261 16.61 13.8499 16.8339 13.8499 17.11C13.8499 17.3861 13.6261 17.61 13.3499 17.61H12.2099C11.9338 17.61 11.7099 17.3861 11.7099 17.11V12.96H9.41992V17.11C9.41992 17.3861 9.19606 17.61 8.91992 17.61H3.53992C3.26377 17.61 3.03992 17.3861 3.03992 17.11V9.15C3.03992 9.00085 3.1065 8.85949 3.22149 8.76451L10.0615 3.11451Z" fill="#4195B9"/>
<path fill-rule="evenodd" clip-rule="evenodd" d="M6.65138 2.35963C6.83568 2.20728 7.10204 2.20673 7.28695 2.35832L9.25695 3.97332C9.47051 4.14839 9.5017 4.46343 9.32663 4.67699C9.15156 4.89054 8.83652 4.92174 8.62297 4.74667L6.97129 3.39263L1.20996 8.15539V14.7H3.14496C3.4211 14.7 3.64496 14.9239 3.64496 15.2C3.64496 15.4761 3.4211 15.7 3.14496 15.7H0.709961C0.433819 15.7 0.209961 15.4761 0.209961 15.2V7.92C0.209961 7.77092 0.276484 7.62961 0.391385 7.53463L6.65138 2.35963Z" fill="#4195B9"/>
</g>
<defs>
<clipPath id="clip0_81_248">
<rect width="24" height="24" fill="white"/>
</clipPath>
</defs>
</svg>
