<svg width="24" height="24" viewBox="0 0 24 24" fill="none" xmlns="http://www.w3.org/2000/svg">
<path fill-rule="evenodd" clip-rule="evenodd" d="M9.52238 2.18826C9.76443 1.96235 10.1267 1.93976 10.3928 2.12049L10.4776 2.18826L13.8561 5.34152L13.1738 6.07257L9.999 3.10942L3 9.64242V18.9264H7.5V19.9264H2.7C2.34562 19.9264 2.05274 19.6631 2.00639 19.3214L2 19.2264V9.51333C2 9.35811 2.05154 9.20846 2.14478 9.08703L2.22238 9.00159L9.52238 2.18826Z" fill="#699C69"/>
<path fill-rule="evenodd" clip-rule="evenodd" d="M14.5224 4.18826C14.7913 3.93725 15.2087 3.93725 15.4776 4.18826L22.7776 11.0016C22.9195 11.134 23 11.3193 23 11.5133V21.2264C23 21.613 22.6866 21.9264 22.3 21.9264H18.7C18.3134 21.9264 18 21.613 18 21.2264V15.9264H15V21.2264C15 21.5808 14.7367 21.8737 14.395 21.92L14.3 21.9264H7.7C7.3134 21.9264 7 21.613 7 21.2264V11.5133C7 11.3193 7.08053 11.134 7.22238 11.0016L14.5224 4.18826ZM15 5.10942L8 11.6424V20.9264H14V15.6264C14 15.272 14.2633 14.9792 14.605 14.9328L14.7 14.9264H18.3C18.6866 14.9264 19 15.2398 19 15.6264V20.9264H22V11.6434L15 5.10942Z" fill="#4195B9"/>
</svg>
