<svg width="24" height="24" viewBox="0 0 24 24" fill="none" xmlns="http://www.w3.org/2000/svg">
<path fill-rule="evenodd" clip-rule="evenodd" d="M18.0647 13.9902C15.9412 13.9902 14.2197 15.7117 14.2197 17.8352C14.2197 19.9588 15.9412 21.6802 18.0647 21.6802C20.1883 21.6802 21.9097 19.9588 21.9097 17.8352C21.9097 15.7117 20.1883 13.9902 18.0647 13.9902ZM13.2197 17.8352C13.2197 15.1594 15.3889 12.9902 18.0647 12.9902C20.7405 12.9902 22.9097 15.1594 22.9097 17.8352C22.9097 20.5111 20.7405 22.6802 18.0647 22.6802C15.3889 22.6802 13.2197 20.5111 13.2197 17.8352Z" fill="#699C69"/>
<path fill-rule="evenodd" clip-rule="evenodd" d="M9.02157 1.86951C9.20584 1.71731 9.47205 1.71678 9.65691 1.86827L16.4969 7.47327C16.6128 7.56823 16.68 7.71017 16.68 7.86V11.755C16.68 12.0311 16.4561 12.255 16.18 12.255C15.9039 12.255 15.68 12.0311 15.68 11.755V8.09671L9.34127 2.90248L3 8.14051V15.365H7.38V11.215C7.38 10.9389 7.60386 10.715 7.88 10.715H11.17C11.4461 10.715 11.67 10.9389 11.67 11.215V15.365H12.31C12.5861 15.365 12.81 15.5889 12.81 15.865C12.81 16.1411 12.5861 16.365 12.31 16.365H11.17C10.8939 16.365 10.67 16.1411 10.67 15.865V11.715H8.38V15.865C8.38 16.1411 8.15614 16.365 7.88 16.365H2.5C2.22386 16.365 2 16.1411 2 15.865V7.905C2 7.75586 2.06658 7.6145 2.18157 7.51951L9.02157 1.86951Z" fill="#4195B9"/>
<path fill-rule="evenodd" clip-rule="evenodd" d="M13.4585 1.11463C13.2742 0.962281 13.0079 0.961735 12.823 1.11333L10.853 2.72833C10.6394 2.9034 10.6082 3.21844 10.7833 3.43199C10.9584 3.64555 11.2734 3.67674 11.487 3.50167L13.1386 2.14763L18.9025 6.91248L18.96 12.2604C18.963 12.5365 19.1892 12.7579 19.4653 12.755C19.7415 12.752 19.9629 12.5258 19.9599 12.2496L19.8999 6.66962C19.8983 6.52243 19.832 6.38342 19.7185 6.28963L13.4585 1.11463Z" fill="#4195B9"/>
<path fill-rule="evenodd" clip-rule="evenodd" d="M19.2453 16.2948C19.4938 16.2948 19.6953 16.4962 19.6953 16.7448V18.2448C19.6953 18.75 19.4946 19.2345 19.1373 19.5918C18.7801 19.9491 18.2955 20.1498 17.7903 20.1498H17.5953C16.5432 20.1498 15.6903 19.2969 15.6903 18.2448V16.0848C15.6903 15.8362 15.8918 15.6348 16.1403 15.6348C16.3888 15.6348 16.5903 15.8362 16.5903 16.0848V18.2448C16.5903 18.7998 17.0403 19.2498 17.5953 19.2498H17.7903C18.0569 19.2498 18.3125 19.1439 18.501 18.9554C18.6894 18.7669 18.7953 18.5113 18.7953 18.2448V16.7448C18.7953 16.4962 18.9968 16.2948 19.2453 16.2948Z" fill="#699C69"/>
<path fill-rule="evenodd" clip-rule="evenodd" d="M20.7839 17.6376C20.6085 17.8137 20.3236 17.8142 20.1475 17.6389L19.225 16.7201L18.3026 17.6389C18.1265 17.8142 17.8416 17.8137 17.6662 17.6376C17.4908 17.4615 17.4914 17.1766 17.6675 17.0012L18.9075 15.7662C19.0831 15.5913 19.367 15.5913 19.5426 15.7662L20.7826 17.0012C20.9587 17.1766 20.9593 17.4615 20.7839 17.6376Z" fill="#699C69"/>
</svg>
