<svg width="24" height="24" viewBox="0 0 24 24" fill="none" xmlns="http://www.w3.org/2000/svg">
<path fill-rule="evenodd" clip-rule="evenodd" d="M13.0173 13.5H7.01733C6.74119 13.5 6.51733 13.7239 6.51733 14V22C6.51733 22.2761 6.74119 22.5 7.01733 22.5H13.0173C13.2935 22.5 13.5173 22.2761 13.5173 22V14C13.5173 13.7239 13.2935 13.5 13.0173 13.5ZM12.5173 14.5V21.5H7.51733V14.5H12.5173Z" fill="#699C69"/>
<path fill-rule="evenodd" clip-rule="evenodd" d="M22.0173 2C22.2935 2 22.5173 2.22386 22.5173 2.5C22.5173 2.74546 22.3405 2.94961 22.1072 2.99194L22.0173 3L20.5891 3.00028C20.6515 3.08202 20.7083 3.16947 20.7585 3.26232L20.8276 3.40266L22.8613 7.97039C23.2843 8.92057 22.9066 10.0243 22.0186 10.525L22.0173 22C22.0173 22.2455 21.8405 22.4496 21.6072 22.4919L21.5173 22.5H2.51734C2.27188 22.5 2.06773 22.3231 2.0254 22.0899L2.01734 22L2.01689 10.5254C1.17321 10.0502 0.789762 9.03095 1.11533 8.11562L1.17341 7.97039L3.20709 3.40266C3.27219 3.25646 3.35267 3.12191 3.44578 3.00007L2.01734 3C1.7412 3 1.51734 2.77614 1.51734 2.5C1.51734 2.25454 1.69422 2.05039 1.92746 2.00806L2.01734 2H22.0173ZM14.017 6.709L14.0173 9C14.0173 10.0544 13.2015 10.9182 12.1666 10.9945L12.0173 11C10.963 11 10.0992 10.1841 10.0228 9.14926L10.0173 9L10.017 6.709L9.45386 9.36119C9.23464 10.3925 8.257 11.0678 7.22888 10.9273L7.08174 10.9017C6.05042 10.6824 5.37512 9.70481 5.5156 8.67669L5.54127 8.52955L5.759 7.505L4.82759 9.59734C4.4986 10.3363 3.77658 10.7774 3.01732 10.7843L3.01734 21.5H21.0173L21.0174 10.7843C20.3075 10.7779 19.6302 10.3918 19.2762 9.73768L19.2071 9.59734L18.274 7.505L18.4934 8.52955C18.7231 9.60998 18.0334 10.672 16.9529 10.9017C15.9216 11.1209 14.9071 10.5024 14.6172 9.50605L14.5808 9.36119L14.017 6.709ZM12.0173 3C11.5045 3 11.0818 3.38604 11.0241 3.88338L11.0173 4V9C11.0173 9.55228 11.4651 10 12.0173 10C12.5302 10 12.9528 9.61396 13.0106 9.11662L13.0173 9V4C13.0173 3.44772 12.5696 3 12.0173 3ZM7.5898 3.73405L7.55897 3.84672L6.51941 8.73746C6.40459 9.27767 6.74943 9.80869 7.28965 9.92352C7.79128 10.0301 8.28498 9.74042 8.44488 9.26595L8.47571 9.15328L9.51527 4.26254C9.63009 3.72233 9.28525 3.19131 8.74503 3.07648C8.2434 2.96986 7.7497 3.25958 7.5898 3.73405ZM15.2896 3.07648C14.788 3.18311 14.4548 3.64859 14.5017 4.14707L14.5194 4.26254L15.559 9.15328C15.6738 9.6935 16.2048 10.0383 16.745 9.92352C17.2467 9.81689 17.5798 9.35141 17.5329 8.85293L17.5153 8.73746L16.4757 3.84672C16.3609 3.3065 15.8299 2.96166 15.2896 3.07648ZM4.17422 3.7056L4.12064 3.8094L2.08695 8.37713C1.86232 8.88166 2.08922 9.47277 2.59376 9.69741C3.06226 9.906 3.60541 9.72525 3.86046 9.2944L3.91404 9.1906L5.94773 4.62287C6.17236 4.11834 5.94546 3.52723 5.44092 3.30259C4.97242 3.094 4.42927 3.27475 4.17422 3.7056ZM18.5938 3.30259C18.1253 3.51118 17.8961 4.03576 18.0457 4.5136L18.087 4.62287L20.1206 9.1906C20.3453 9.69514 20.9364 9.92204 21.4409 9.69741C21.9094 9.48882 22.1385 8.96424 21.989 8.4864L21.9477 8.37713L19.914 3.8094C19.6894 3.30486 19.0983 3.07796 18.5938 3.30259Z" fill="#4195B9"/>
</svg>
