<svg width="24" height="24" viewBox="0 0 24 24" fill="none" xmlns="http://www.w3.org/2000/svg">
<path fill-rule="evenodd" clip-rule="evenodd" d="M17.8951 9.49108C17.3683 9.39781 17.3683 8.60219 17.8951 8.50892L18 8.5H22C22.2761 8.5 22.5 8.72386 22.5 9C22.5 9.24546 22.3231 9.44961 22.0899 9.49194L22 9.5H21.5V22C21.5 22.2455 21.3231 22.4496 21.0899 22.4919L21 22.5H17C16.7545 22.5 16.5504 22.3231 16.5081 22.0899L16.5 22V15.5H12.5V22C12.5 22.2455 12.3231 22.4496 12.0899 22.4919L12 22.5H3C2.75454 22.5 2.55039 22.3231 2.50806 22.0899L2.5 22V9.5H2C1.75454 9.5 1.55039 9.32312 1.50806 9.08988L1.5 9C1.5 8.75454 1.67688 8.55039 1.91012 8.50806L2 8.5H5C5.62963 8.5 5.66461 9.39198 5.10494 9.49108L5 9.5H3.5V21.5H11.5V15C11.5 14.7545 11.6769 14.5504 11.9101 14.5081L12 14.5H17C17.2455 14.5 17.4496 14.6769 17.4919 14.9101L17.5 15V21.5H20.5V9.5H18L17.8951 9.49108Z" fill="#4195B9"/>
<path fill-rule="evenodd" clip-rule="evenodd" d="M20.7039 1C18.8251 5.36846 14.413 9.84868 10.8594 10.9925C7.35839 12.119 6.0075 9.59131 7.775 5.33712L7.87091 5.11163L9.10399 4.7145C7.85297 7.58955 8.72734 9.316 11.0612 8.56692C13.3178 7.84355 16.1004 5.06698 17.3993 2.28895L17.5203 2.02018L20.7039 1ZM14.067 3.14301C13.4316 4.61165 11.9467 6.11373 10.7524 6.49582C9.59933 6.86473 9.14155 6.05377 9.68735 4.67335L9.74968 4.5233L14.067 3.14301Z" fill="#699C69"/>
</svg>
