<svg width="25" height="24" viewBox="0 0 25 24" fill="none" xmlns="http://www.w3.org/2000/svg">
<path d="M15.7131 1.85051C14.4624 4.44779 12.2952 6.49069 9.62867 7.58604C7.44787 8.25119 6.59735 6.73552 7.78589 4.21669L6.61916 4.56562C4.81999 8.41475 6.08486 10.7264 9.4324 9.72323C12.7799 8.72006 16.9453 4.7837 18.7117 1L15.7131 1.85051Z" fill="#699C69"/>
<path d="M9.24738 5.77608C10.6129 5.22019 11.7213 4.17401 12.355 2.8429L8.30964 4.05324C7.70991 5.33992 8.12427 6.11411 9.24738 5.77608Z" fill="#699C69"/>
<path fill-rule="evenodd" clip-rule="evenodd" d="M0.5 7.83997C0.5 7.56382 0.723858 7.33997 1 7.33997H4.9C5.17614 7.33997 5.4 7.56382 5.4 7.83997C5.4 8.11611 5.17614 8.33997 4.9 8.33997H1C0.723858 8.33997 0.5 8.11611 0.5 7.83997Z" fill="#4195B9"/>
<path fill-rule="evenodd" clip-rule="evenodd" d="M2.94995 7.33997C3.22609 7.33997 3.44995 7.56382 3.44995 7.83997V21.44H9.34995V14.74C9.34995 14.4638 9.57381 14.24 9.84995 14.24H13.45C13.7261 14.24 13.95 14.4638 13.95 14.74V21.44H16.55V18.94C16.55 18.6638 16.7738 18.44 17.05 18.44C17.3261 18.44 17.55 18.6638 17.55 18.94V21.94C17.55 22.2161 17.3261 22.44 17.05 22.44H13.45C13.1738 22.44 12.95 22.2161 12.95 21.94V15.24H10.35V21.94C10.35 22.2161 10.1261 22.44 9.84995 22.44H2.94995C2.67381 22.44 2.44995 22.2161 2.44995 21.94V7.83997C2.44995 7.56382 2.67381 7.33997 2.94995 7.33997Z" fill="#4195B9"/>
<path fill-rule="evenodd" clip-rule="evenodd" d="M14.45 7.83997C14.45 7.56382 14.6738 7.33997 14.95 7.33997H18.85C19.1261 7.33997 19.35 7.56382 19.35 7.83997C19.35 8.11611 19.1261 8.33997 18.85 8.33997H14.95C14.6738 8.33997 14.45 8.11611 14.45 7.83997Z" fill="#4195B9"/>
<path fill-rule="evenodd" clip-rule="evenodd" d="M17.05 7.33997C17.3262 7.33997 17.55 7.56382 17.55 7.83997V11.44C17.55 11.7161 17.3262 11.94 17.05 11.94C16.7739 11.94 16.55 11.7161 16.55 11.44V7.83997C16.55 7.56382 16.7739 7.33997 17.05 7.33997Z" fill="#4195B9"/>
<path fill-rule="evenodd" clip-rule="evenodd" d="M16.65 14.1694V16.94H18.95V14.0748C18.7976 13.6593 18.482 13.14 17.8 13.14C17.4323 13.14 17.1622 13.3046 16.9664 13.5303C16.768 13.7588 16.6708 14.0235 16.65 14.1694ZM16.2112 12.8748C16.5578 12.4754 17.0877 12.14 17.8 12.14C19.2372 12.14 19.7659 13.3566 19.9244 13.8319C19.9414 13.8829 19.95 13.9363 19.95 13.99V17.44C19.95 17.7162 19.7262 17.94 19.45 17.94H16.15C15.8739 17.94 15.65 17.7162 15.65 17.44V14.14C15.65 14.1234 15.6509 14.1068 15.6525 14.0903C15.6884 13.7308 15.8767 13.2601 16.2112 12.8748Z" fill="#4195B9"/>
<path fill-rule="evenodd" clip-rule="evenodd" d="M17.3 12.64C17.3 12.3639 17.5239 12.14 17.8 12.14H22.6C22.8279 12.14 23.1751 12.186 23.485 12.3454C23.8131 12.5141 24.15 12.846 24.15 13.39V17.44C24.15 17.7162 23.9262 17.94 23.65 17.94H18.85C18.5739 17.94 18.35 17.7162 18.35 17.44C18.35 17.1639 18.5739 16.94 18.85 16.94H23.15V13.39C23.15 13.3444 23.139 13.3251 23.1299 13.3124C23.1165 13.2939 23.087 13.2652 23.0276 13.2347C22.9 13.169 22.7222 13.14 22.6 13.14H17.8C17.5239 13.14 17.3 12.9162 17.3 12.64Z" fill="#4195B9"/>
<path fill-rule="evenodd" clip-rule="evenodd" d="M20.65 16.9401C20.9261 16.9401 21.15 17.1639 21.15 17.4401V23.1401C21.15 23.4162 20.9261 23.6401 20.65 23.6401H19.45C19.1738 23.6401 18.95 23.4162 18.95 23.1401V17.5901C18.95 17.3139 19.1738 17.0901 19.45 17.0901C19.7261 17.0901 19.95 17.3139 19.95 17.5901V22.6401H20.15V17.4401C20.15 17.1639 20.3738 16.9401 20.65 16.9401Z" fill="#4195B9"/>
</svg>
