<svg width="24" height="24" viewBox="0 0 24 24" fill="none" xmlns="http://www.w3.org/2000/svg">
<path d="M15.0118 1.85295C13.8207 4.45767 11.7568 6.50643 9.21732 7.60492C7.14045 8.27197 6.33047 6.75196 7.46236 4.22591L6.35124 4.57584C4.63782 8.436 5.8424 10.7543 9.0304 9.74823C12.2184 8.74219 16.1852 4.79455 17.8675 1L15.0118 1.85295Z" fill="#699C69"/>
<path d="M8.85367 5.78974C10.1541 5.23226 11.2096 4.18308 11.8132 2.84814L7.96062 4.06196C7.38948 5.35233 7.78408 6.12873 8.85367 5.78974Z" fill="#699C69"/>
<path fill-rule="evenodd" clip-rule="evenodd" d="M0.5 7.85962C0.5 7.58348 0.723858 7.35962 1 7.35962H4.71412C4.99026 7.35962 5.21412 7.58348 5.21412 7.85962C5.21412 8.13576 4.99026 8.35962 4.71412 8.35962H1C0.723858 8.35962 0.5 8.13576 0.5 7.85962Z" fill="#4195B9"/>
<path fill-rule="evenodd" clip-rule="evenodd" d="M2.85767 7.35962C3.13381 7.35962 3.35767 7.58348 3.35767 7.85962V21.5H8.9288V14.7794C8.9288 14.5033 9.15266 14.2794 9.4288 14.2794H12.8572C13.1334 14.2794 13.3572 14.5033 13.3572 14.7794V21.5H14.0002C14.2764 21.5 14.5002 21.7239 14.5002 22C14.5002 22.2762 14.2764 22.5 14.0002 22.5H12.8572C12.5811 22.5 12.3572 22.2762 12.3572 22V15.2794H9.9288V22C9.9288 22.2762 9.70495 22.5 9.4288 22.5H2.85767C2.58152 22.5 2.35767 22.2762 2.35767 22V7.85962C2.35767 7.58348 2.58152 7.35962 2.85767 7.35962Z" fill="#4195B9"/>
<path fill-rule="evenodd" clip-rule="evenodd" d="M13.7859 7.85962C13.7859 7.58348 14.0097 7.35962 14.2859 7.35962H18C18.2762 7.35962 18.5 7.58348 18.5 7.85962C18.5 8.13576 18.2762 8.35962 18 8.35962H14.2859C14.0097 8.35962 13.7859 8.13576 13.7859 7.85962Z" fill="#4195B9"/>
<path fill-rule="evenodd" clip-rule="evenodd" d="M16.2853 7.35962C16.5614 7.35962 16.7853 7.58348 16.7853 7.85962V15.5C16.7853 15.7761 16.5614 16 16.2853 16C16.0091 16 15.7853 15.7761 15.7853 15.5V7.85962C15.7853 7.58348 16.0091 7.35962 16.2853 7.35962Z" fill="#4195B9"/>
<path fill-rule="evenodd" clip-rule="evenodd" d="M15.1 17.8C15.1 17.4134 15.4134 17.1 15.8 17.1H23.2C23.5866 17.1 23.9 17.4134 23.9 17.8V22.2C23.9 22.5866 23.5866 22.9 23.2 22.9H15.8C15.4134 22.9 15.1 22.5866 15.1 22.2V17.8ZM15.9 17.9V22.1H23.1V17.9H15.9Z" fill="#4195B9"/>
<path fill-rule="evenodd" clip-rule="evenodd" d="M15.5932 17.7094C15.7537 17.4847 16.066 17.4327 16.2907 17.5932L19.5 19.8856L22.7094 17.5932C22.9341 17.4327 23.2464 17.4847 23.4069 17.7094C23.5674 17.9341 23.5154 18.2464 23.2907 18.4069L19.7907 20.9069C19.6168 21.0311 19.3833 21.0311 19.2094 20.9069L15.7094 18.4069C15.4847 18.2464 15.4327 17.9341 15.5932 17.7094Z" fill="#4195B9"/>
<path fill-rule="evenodd" clip-rule="evenodd" d="M17.8824 20.1172C18.0386 20.2734 18.0386 20.5266 17.8824 20.6828L15.8824 22.6828C15.7262 22.8391 15.473 22.8391 15.3167 22.6828C15.1605 22.5266 15.1605 22.2734 15.3167 22.1172L17.3167 20.1172C17.473 19.9609 17.7262 19.9609 17.8824 20.1172Z" fill="#4195B9"/>
<path fill-rule="evenodd" clip-rule="evenodd" d="M21.1175 20.1172C21.2737 19.9609 21.527 19.9609 21.6832 20.1172L23.6832 22.1172C23.8394 22.2734 23.8394 22.5266 23.6832 22.6828C23.527 22.8391 23.2737 22.8391 23.1175 22.6828L21.1175 20.6828C20.9613 20.5266 20.9613 20.2734 21.1175 20.1172Z" fill="#4195B9"/>
</svg>
