<svg width="24" height="24" viewBox="0 0 24 24" fill="none" xmlns="http://www.w3.org/2000/svg">
<path d="M22.005 3.87C22.2811 3.87 22.505 4.09385 22.505 4.37C22.505 4.62641 22.312 4.83775 22.0633 4.86663L22.005 4.87H2.10498C1.82884 4.87 1.60498 4.64614 1.60498 4.37C1.60498 4.11358 1.798 3.90224 2.04667 3.87336L2.10498 3.87H22.005Z" fill="#4195B9"/>
<path d="M3.77002 10.41C4.02644 10.41 4.23777 10.6031 4.26666 10.8517L4.27002 10.91V20.495H19.675V12.85C19.675 12.5936 19.868 12.3823 20.1167 12.3534L20.175 12.35C20.4314 12.35 20.6428 12.5431 20.6717 12.7917L20.675 12.85V20.995C20.675 21.2515 20.482 21.4628 20.2333 21.4917L20.175 21.495H3.77002C3.5136 21.495 3.30227 21.302 3.27338 21.0533L3.27002 20.995V10.91C3.27002 10.6339 3.49388 10.41 3.77002 10.41Z" fill="#4195B9"/>
<path d="M9.19995 10.075C9.45637 10.075 9.6677 10.268 9.69659 10.5166L9.69995 10.575V20.995C9.69995 21.2711 9.47609 21.495 9.19995 21.495C8.94353 21.495 8.7322 21.3019 8.70332 21.0533L8.69995 20.995V10.575C8.69995 10.2988 8.92381 10.075 9.19995 10.075Z" fill="#4195B9"/>
<path d="M2.96031 4.37886C3.03828 4.11395 3.31623 3.9624 3.58114 4.04037C3.82713 4.11277 3.97536 4.35761 3.93286 4.60431L3.91962 4.6612L2.64297 8.99753L2.64269 9.04432C2.65092 9.50378 2.87917 9.93201 3.25601 10.195L3.33901 10.2488C3.79353 10.5216 4.36141 10.5216 4.81592 10.2488C5.27044 9.97598 5.53755 9.47484 5.51061 8.94544C5.49658 8.66965 5.70877 8.43471 5.98456 8.42067C6.26035 8.40664 6.49529 8.61883 6.50932 8.89462C6.55503 9.79295 6.10178 10.6433 5.33053 11.1062C4.55928 11.5691 3.59566 11.5691 2.82441 11.1062C2.05316 10.6433 1.59991 9.79295 1.64561 8.89462L1.65205 8.83616L1.66531 8.77886L2.96031 4.37886Z" fill="#4195B9"/>
<path d="M6.65809 4.20467C6.91212 4.23958 7.09521 4.45958 7.08996 4.70987L7.08535 4.76809L6.51101 8.94551L6.51375 9.02353C6.53609 9.33257 6.65794 9.62622 6.86096 9.86027L6.93162 9.93602C7.20154 10.2052 7.56749 10.356 7.95001 10.355C8.7638 10.355 9.53309 9.71035 9.587 8.99926L9.59001 8.92001C9.59001 8.64387 9.81387 8.42001 10.09 8.42001C10.3662 8.42001 10.59 8.64387 10.59 8.92001C10.59 10.2471 9.31787 11.355 7.9513 11.355C7.3044 11.3567 6.68344 11.1009 6.22543 10.644C5.79795 10.2177 5.54522 9.64889 5.51343 9.049L5.51001 8.92001L5.51467 8.85193L6.09467 4.63193C6.12958 4.3779 6.34958 4.19482 6.59986 4.20006L6.65809 4.20467Z" fill="#4195B9"/>
<path d="M13.6609 4.08151C13.9166 4.06148 14.1423 4.23741 14.1905 4.48306L14.1984 4.54093L14.5397 8.90373C14.566 9.71306 15.23 10.3554 16.0402 10.355C16.8211 10.3554 17.4663 9.75812 17.535 8.98978L17.5375 8.94248L16.9105 4.77438C16.8724 4.52082 17.0318 4.28311 17.2734 4.21755L17.3306 4.20555C17.5841 4.16739 17.8218 4.32682 17.8874 4.56842L17.8994 4.62558L18.5344 8.84558L18.5397 8.93623C18.4959 10.2851 17.3893 11.3557 16.0402 11.355C14.7271 11.3557 13.6441 10.3422 13.5473 9.06598L13.5415 8.95903L13.2015 4.61903C13.1799 4.34373 13.3856 4.10308 13.6609 4.08151Z" fill="#4195B9"/>
<path d="M10.3845 4.20084C10.6405 4.21601 10.8401 4.42119 10.8542 4.67113L10.8541 4.72954L10.605 8.92126C10.604 9.30116 10.7542 9.66584 11.0225 9.93482C11.2908 10.2038 11.6551 10.355 12.0352 10.355C12.845 10.3554 13.5089 9.71305 13.5352 8.90372C13.5442 8.62772 13.7752 8.41126 14.0512 8.42023C14.3272 8.42921 14.5437 8.66022 14.5347 8.93622C14.4908 10.2851 13.3843 11.3557 12.035 11.355C11.3894 11.355 10.7704 11.0981 10.3145 10.641C9.88897 10.2144 9.63823 9.64615 9.60875 9.02441L9.60583 8.8904L9.85584 4.6704C9.87217 4.39474 10.1089 4.18451 10.3845 4.20084Z" fill="#4195B9"/>
<path d="M20.5463 4.14109C20.7919 4.06741 21.0497 4.19156 21.1489 4.42145L21.1688 4.47633L22.4589 8.77633C22.4727 8.82253 22.4798 8.87049 22.4799 8.91872C22.4816 9.56428 22.2263 10.184 21.7704 10.641C21.3145 11.0981 20.6955 11.355 20.0502 11.355C18.7006 11.3557 17.5941 10.2851 17.5502 8.93625C17.5412 8.66026 17.7577 8.42924 18.0337 8.42027C18.3097 8.41129 18.5407 8.62776 18.5497 8.90375C18.576 9.71308 19.2399 10.3554 20.0499 10.355C20.4298 10.355 20.7941 10.2038 21.0624 9.93486C21.3063 9.69033 21.4526 9.36671 21.4765 9.02447L21.4779 8.986L20.211 4.76368C20.1373 4.51808 20.2615 4.26019 20.4914 4.16107L20.5463 4.14109Z" fill="#4195B9"/>
<path d="M7.48499 15.455C7.7414 15.455 7.95274 15.648 7.98162 15.8966L7.98499 15.955V17.62C7.98499 17.8961 7.76113 18.12 7.48499 18.12C7.22857 18.12 7.01723 17.9269 6.98835 17.6783L6.98499 17.62V15.955C6.98499 15.6788 7.20884 15.455 7.48499 15.455Z" fill="#699C69"/>
<path d="M11.6949 15.915C11.7431 15.9207 11.7918 15.9207 11.8399 15.915C11.8734 15.9066 11.9055 15.8931 11.9349 15.875C11.9559 15.859 11.973 15.8385 11.9849 15.815C11.9902 15.7886 11.9902 15.7614 11.9849 15.735C11.9857 15.672 11.9534 15.6133 11.8999 15.58C11.8059 15.524 11.7051 15.4803 11.5999 15.45L11.4149 15.375C11.3564 15.346 11.3011 15.3108 11.2499 15.27C11.0846 15.1104 11.0385 14.8636 11.1349 14.655C11.1637 14.5858 11.2103 14.5254 11.2699 14.48C11.3347 14.4271 11.4095 14.388 11.4899 14.365C11.5841 14.3375 11.6818 14.3241 11.7799 14.325C11.8896 14.3238 11.9989 14.3373 12.1049 14.365C12.1838 14.389 12.2607 14.4191 12.3349 14.455L12.2149 14.79L12.0399 14.72C11.9638 14.6968 11.8846 14.685 11.8049 14.685C11.7289 14.6795 11.6527 14.6951 11.5849 14.73C11.5398 14.757 11.5144 14.8077 11.5199 14.86C11.5198 14.8902 11.5285 14.9197 11.5449 14.945C11.5632 14.9716 11.5871 14.9937 11.6149 15.01L11.7149 15.06L11.8449 15.11C11.932 15.1397 12.0172 15.1748 12.0999 15.215C12.1667 15.2459 12.2276 15.2882 12.2799 15.34C12.3283 15.3863 12.3658 15.4426 12.3899 15.505C12.4157 15.5789 12.4275 15.6569 12.4249 15.735C12.4317 15.8933 12.3631 16.0454 12.2399 16.145C12.0765 16.2543 11.881 16.3054 11.6849 16.29C11.6084 16.2955 11.5315 16.2955 11.4549 16.29L11.2799 16.255L11.1449 16.21L11.0499 16.165L11.1699 15.825C11.3233 15.9079 11.4956 15.9493 11.6699 15.945L11.6949 15.915Z" fill="#699C69"/>
<path d="M13.9 14.355H14.325V16.24H13.9V15.44H13.185V16.24H12.76V14.355H13.185V15.075H13.9V14.355Z" fill="#699C69"/>
<path d="M16.5549 15.2949C16.558 15.4402 16.5325 15.5846 16.4799 15.7199C16.4391 15.8367 16.3725 15.9426 16.2849 16.0299C16.1992 16.1121 16.0969 16.1752 15.9849 16.2149C15.7465 16.295 15.4884 16.295 15.2499 16.2149C15.138 16.1752 15.0357 16.1121 14.9499 16.0299C14.8625 15.9416 14.7944 15.836 14.7499 15.7199C14.6974 15.5846 14.6719 15.4402 14.6749 15.2949C14.6703 15.1491 14.6976 15.0041 14.7549 14.8699C14.7993 14.7526 14.8693 14.6467 14.9599 14.5599C15.0434 14.4772 15.1442 14.4141 15.2549 14.3749C15.4889 14.2884 15.746 14.2884 15.9799 14.3749C16.0928 14.4128 16.1955 14.4761 16.2799 14.5599C16.3674 14.6483 16.4355 14.7538 16.4799 14.8699C16.5325 15.0053 16.558 15.1497 16.5549 15.2949ZM15.1149 15.2949C15.1129 15.3796 15.1247 15.4641 15.1499 15.5449C15.1676 15.6144 15.2 15.6791 15.2449 15.7349C15.2877 15.7887 15.3425 15.8315 15.4049 15.8599C15.5382 15.9216 15.6917 15.9216 15.8249 15.8599C15.8874 15.8315 15.9422 15.7887 15.9849 15.7349C16.0299 15.6791 16.0623 15.6144 16.0799 15.5449C16.1052 15.4641 16.117 15.3796 16.1149 15.2949C16.1167 15.2103 16.1049 15.1259 16.0799 15.0449C16.0606 14.9746 16.0284 14.9085 15.9849 14.8499C15.9422 14.7962 15.8874 14.7534 15.8249 14.7249C15.7583 14.6978 15.6869 14.6842 15.6149 14.6849C15.5424 14.6834 15.4705 14.6988 15.4049 14.7299C15.3425 14.7584 15.2877 14.8012 15.2449 14.8549C15.2 14.9107 15.1676 14.9755 15.1499 15.0449C15.125 15.1259 15.1132 15.2103 15.1149 15.2949Z" fill="#699C69"/>
<path d="M17.475 14.33C17.7 14.3163 17.9242 14.3684 18.12 14.48C18.263 14.6016 18.3454 14.7799 18.3454 14.9675C18.3454 15.1552 18.263 15.3334 18.12 15.455C17.9219 15.5706 17.6939 15.6245 17.465 15.61H17.33V16.24H16.905V14.38C17.0027 14.3632 17.1011 14.3515 17.2 14.345L17.475 14.33ZM17.475 14.695H17.305V15.24H17.44C17.5533 15.2469 17.6665 15.2263 17.77 15.18C17.848 15.1355 17.893 15.0495 17.885 14.96C17.8875 14.9147 17.8771 14.8697 17.855 14.83C17.8365 14.795 17.8089 14.7656 17.775 14.745C17.7343 14.7233 17.6905 14.7081 17.645 14.7L17.475 14.695Z" fill="#699C69"/>
</svg>
