<svg width="24" height="24" viewBox="0 0 24 24" fill="none" xmlns="http://www.w3.org/2000/svg">
<path d="M22.005 3.87C22.2811 3.87 22.505 4.09385 22.505 4.37C22.505 4.62641 22.312 4.83775 22.0633 4.86663L22.005 4.87H2.10498C1.82884 4.87 1.60498 4.64614 1.60498 4.37C1.60498 4.11358 1.798 3.90224 2.04667 3.87336L2.10498 3.87H22.005Z" fill="#4195B9"/>
<path d="M3.77002 10.41C4.02644 10.41 4.23777 10.6031 4.26666 10.8517L4.27002 10.91V20.495H19.675V12.85C19.675 12.5936 19.868 12.3823 20.1167 12.3534L20.175 12.35C20.4314 12.35 20.6428 12.5431 20.6717 12.7917L20.675 12.85V20.995C20.675 21.2515 20.482 21.4628 20.2333 21.4917L20.175 21.495H3.77002C3.5136 21.495 3.30227 21.302 3.27338 21.0533L3.27002 20.995V10.91C3.27002 10.6339 3.49388 10.41 3.77002 10.41Z" fill="#4195B9"/>
<path d="M9.19995 10.075C9.45637 10.075 9.6677 10.268 9.69659 10.5166L9.69995 10.575V20.995C9.69995 21.2711 9.47609 21.495 9.19995 21.495C8.94353 21.495 8.7322 21.3019 8.70332 21.0533L8.69995 20.995V10.575C8.69995 10.2988 8.92381 10.075 9.19995 10.075Z" fill="#4195B9"/>
<path d="M7.48499 15.455C7.7414 15.455 7.95274 15.648 7.98162 15.8966L7.98499 15.955V17.62C7.98499 17.8961 7.76113 18.12 7.48499 18.12C7.22857 18.12 7.01723 17.9269 6.98835 17.6783L6.98499 17.62V15.955C6.98499 15.6788 7.20884 15.455 7.48499 15.455Z" fill="#699C69"/>
<path d="M2.96031 4.37886C3.03828 4.11395 3.31623 3.9624 3.58114 4.04037C3.82713 4.11277 3.97536 4.35761 3.93286 4.60431L3.91962 4.6612L2.64297 8.99753L2.64269 9.04432C2.65092 9.50378 2.87917 9.93201 3.25601 10.195L3.33901 10.2488C3.79353 10.5216 4.36141 10.5216 4.81592 10.2488C5.27044 9.97598 5.53755 9.47484 5.51061 8.94544C5.49658 8.66965 5.70877 8.43471 5.98456 8.42067C6.26035 8.40664 6.49529 8.61883 6.50932 8.89462C6.55503 9.79295 6.10178 10.6433 5.33053 11.1062C4.55928 11.5691 3.59566 11.5691 2.82441 11.1062C2.05316 10.6433 1.59991 9.79295 1.64561 8.89462L1.65205 8.83616L1.66531 8.77886L2.96031 4.37886Z" fill="#4195B9"/>
<path d="M6.65809 4.20467C6.91212 4.23958 7.09521 4.45958 7.08996 4.70987L7.08535 4.76809L6.51101 8.94551L6.51375 9.02353C6.53609 9.33257 6.65794 9.62622 6.86096 9.86027L6.93162 9.93602C7.20154 10.2052 7.56749 10.356 7.95001 10.355C8.7638 10.355 9.53309 9.71035 9.587 8.99926L9.59001 8.92001C9.59001 8.64387 9.81387 8.42001 10.09 8.42001C10.3662 8.42001 10.59 8.64387 10.59 8.92001C10.59 10.2471 9.31787 11.355 7.9513 11.355C7.3044 11.3567 6.68344 11.1009 6.22543 10.644C5.79795 10.2177 5.54522 9.64889 5.51343 9.049L5.51001 8.92001L5.51467 8.85193L6.09467 4.63193C6.12958 4.3779 6.34958 4.19482 6.59986 4.20006L6.65809 4.20467Z" fill="#4195B9"/>
<path d="M13.6609 4.08151C13.9166 4.06148 14.1423 4.23741 14.1905 4.48306L14.1984 4.54093L14.5397 8.90373C14.566 9.71306 15.23 10.3554 16.0402 10.355C16.8211 10.3554 17.4663 9.75812 17.535 8.98978L17.5375 8.94248L16.9105 4.77438C16.8724 4.52082 17.0318 4.28311 17.2734 4.21755L17.3306 4.20555C17.5841 4.16739 17.8218 4.32682 17.8874 4.56842L17.8994 4.62558L18.5344 8.84558L18.5397 8.93623C18.4959 10.2851 17.3893 11.3557 16.0402 11.355C14.7271 11.3557 13.6441 10.3422 13.5473 9.06598L13.5415 8.95903L13.2015 4.61903C13.1799 4.34373 13.3856 4.10308 13.6609 4.08151Z" fill="#4195B9"/>
<path d="M10.3845 4.20084C10.6405 4.21601 10.8401 4.42119 10.8542 4.67113L10.8541 4.72954L10.605 8.92126C10.604 9.30116 10.7542 9.66584 11.0225 9.93482C11.2908 10.2038 11.6551 10.355 12.0352 10.355C12.845 10.3554 13.5089 9.71305 13.5352 8.90372C13.5442 8.62772 13.7752 8.41126 14.0512 8.42023C14.3272 8.42921 14.5437 8.66022 14.5347 8.93622C14.4908 10.2851 13.3843 11.3557 12.035 11.355C11.3894 11.355 10.7704 11.0981 10.3145 10.641C9.88897 10.2144 9.63823 9.64615 9.60875 9.02441L9.60583 8.8904L9.85584 4.6704C9.87217 4.39474 10.1089 4.18451 10.3845 4.20084Z" fill="#4195B9"/>
<path d="M20.5463 4.14109C20.7919 4.06741 21.0497 4.19156 21.1489 4.42145L21.1688 4.47633L22.4589 8.77633C22.4727 8.82253 22.4798 8.87049 22.4799 8.91872C22.4816 9.56428 22.2263 10.184 21.7704 10.641C21.3145 11.0981 20.6955 11.355 20.0502 11.355C18.7006 11.3557 17.5941 10.2851 17.5502 8.93625C17.5412 8.66026 17.7577 8.42924 18.0337 8.42027C18.3097 8.41129 18.5407 8.62776 18.5497 8.90375C18.576 9.71308 19.2399 10.3554 20.0499 10.355C20.4298 10.355 20.7941 10.2038 21.0624 9.93486C21.3063 9.69033 21.4526 9.36671 21.4765 9.02447L21.4779 8.986L20.211 4.76368C20.1373 4.51808 20.2615 4.26019 20.4914 4.16107L20.5463 4.14109Z" fill="#4195B9"/>
<path fill-rule="evenodd" clip-rule="evenodd" d="M6.57493 12.865C6.40004 13.2221 6.10417 13.5055 5.73993 13.665C5.42493 13.77 5.32493 13.54 5.48993 13.205L6.57493 12.865ZM8.25993 12.365C7.75052 13.4379 6.87198 14.2916 5.78493 14.77C4.88993 15.04 4.55993 14.41 5.03493 13.365L5.34993 13.265C5.03493 13.95 5.24493 14.37 5.84993 14.18C6.56493 13.8749 7.14312 13.318 7.47493 12.615L8.25993 12.365Z" fill="#699C69"/>
</svg>
