<svg width="24" height="24" viewBox="0 0 24 24" fill="none" xmlns="http://www.w3.org/2000/svg">
<g clip-path="url(#clip0_81_258)">
<path d="M19.1057 13.2354C16.4299 13.2354 14.2607 15.4045 14.2607 18.0804C14.2607 20.7562 16.4299 22.9254 19.1057 22.9254C21.7816 22.9254 23.9507 20.7562 23.9507 18.0804C23.9507 15.4045 21.7816 13.2354 19.1057 13.2354ZM19.1057 14.2354C21.2293 14.2354 22.9507 15.9568 22.9507 18.0804C22.9507 20.2039 21.2293 21.9254 19.1057 21.9254C16.9822 21.9254 15.2607 20.2039 15.2607 18.0804C15.2607 15.9568 16.9822 14.2354 19.1057 14.2354Z" fill="#699C69"/>
<path d="M20.2774 16.2648C20.4516 16.0505 20.7665 16.0179 20.9808 16.192C21.1786 16.3527 21.2216 16.6334 21.0901 16.8442L21.0536 16.8954L18.6286 19.8804C18.4529 20.0967 18.1382 20.125 17.9273 19.9549L17.8806 19.9122L16.6656 18.6522C16.4739 18.4534 16.4797 18.1369 16.6784 17.9452C16.8619 17.7682 17.1458 17.7595 17.3391 17.9156L17.3854 17.958L18.208 18.8111L20.2774 16.2648Z" fill="#699C69"/>
<path d="M22.0055 3.87012C22.2816 3.87012 22.5055 4.09397 22.5055 4.37012C22.5055 4.62654 22.3124 4.83787 22.0638 4.86675L22.0055 4.87012H2.10547C1.82933 4.87012 1.60547 4.64626 1.60547 4.37012C1.60547 4.1137 1.79849 3.90236 2.04716 3.87348L2.10547 3.87012H22.0055Z" fill="#4195B9"/>
<path d="M20.1758 10.605C20.4322 10.605 20.6435 10.798 20.6724 11.0467L20.6758 11.105V11.88C20.6758 12.1561 20.4519 12.38 20.1758 12.38C19.9194 12.38 19.708 12.187 19.6791 11.9383L19.6758 11.88V11.105C19.6758 10.8288 19.8996 10.605 20.1758 10.605Z" fill="#4195B9"/>
<path d="M3.77051 10.4102C4.02693 10.4102 4.23826 10.6032 4.26714 10.8518L4.27051 10.9102V20.4952H12.8055C13.0619 20.4952 13.2733 20.6882 13.3021 20.9368L13.3055 20.9952C13.3055 21.2516 13.1125 21.4629 12.8638 21.4918L12.8055 21.4952H3.77051C3.51409 21.4952 3.30275 21.3021 3.27387 21.0535L3.27051 20.9952V10.9102C3.27051 10.634 3.49437 10.4102 3.77051 10.4102Z" fill="#4195B9"/>
<path d="M9.2002 10.0752C9.45661 10.0752 9.66795 10.2682 9.69683 10.5169L9.7002 10.5752V20.9952C9.7002 21.2713 9.47634 21.4952 9.2002 21.4952C8.94378 21.4952 8.73244 21.3022 8.70356 21.0535L8.7002 20.9952V10.5752C8.7002 10.2991 8.92405 10.0752 9.2002 10.0752Z" fill="#4195B9"/>
<path d="M2.96043 4.37898C3.0384 4.11407 3.31635 3.96253 3.58126 4.04049C3.82725 4.11289 3.97549 4.35773 3.93298 4.60443L3.91975 4.66132L2.64309 8.99765L2.64281 9.04444C2.65104 9.5039 2.8793 9.93213 3.25613 10.1951L3.33913 10.2489C3.79365 10.5217 4.36153 10.5217 4.81605 10.2489C5.27056 9.9761 5.53767 9.47497 5.51074 8.94556C5.4967 8.66977 5.7089 8.43483 5.98468 8.4208C6.26047 8.40676 6.49541 8.61896 6.50944 8.89474C6.55515 9.79307 6.1019 10.6434 5.33065 11.1063C4.5594 11.5692 3.59578 11.5692 2.82453 11.1063C2.05328 10.6434 1.60003 9.79307 1.64574 8.89474L1.65217 8.83628L1.66543 8.77898L2.96043 4.37898Z" fill="#4195B9"/>
<path d="M6.65882 4.20491C6.91285 4.23983 7.09594 4.45982 7.09069 4.71011L7.08609 4.76834L6.51174 8.94576L6.51448 9.02378C6.53682 9.33282 6.65867 9.62646 6.8617 9.86052L6.93235 9.93627C7.20227 10.2055 7.56822 10.3562 7.95074 10.3553C8.76454 10.3553 9.53382 9.71059 9.58773 8.99951L9.59074 8.92026C9.59074 8.64411 9.8146 8.42026 10.0907 8.42026C10.3669 8.42026 10.5907 8.64411 10.5907 8.92026C10.5907 10.2473 9.3186 11.3553 7.95203 11.3553C7.30514 11.3569 6.68417 11.1011 6.22616 10.6443C5.79868 10.2179 5.54595 9.64913 5.51416 9.04924L5.51074 8.92026L5.5154 8.85218L6.0954 4.63218C6.13031 4.37815 6.35031 4.19506 6.6006 4.20031L6.65882 4.20491Z" fill="#4195B9"/>
<path d="M13.6612 4.08163C13.9168 4.0616 14.1426 4.23753 14.1908 4.48318L14.1987 4.54105L14.54 8.90385C14.5663 9.71318 15.2302 10.3555 16.0405 10.3551C16.8213 10.3555 17.4666 9.75824 17.5352 8.98991L17.5377 8.9426L16.9108 4.7745C16.8726 4.52094 17.0321 4.28324 17.2737 4.21767L17.3308 4.20567C17.5844 4.16751 17.8221 4.32694 17.8877 4.56854L17.8997 4.6257L18.5347 8.8457L18.54 8.93635C18.4961 10.2852 17.3896 11.3558 16.0405 11.3551C14.7274 11.3558 13.6443 10.3423 13.5475 9.0661L13.5417 8.95915L13.2017 4.61915C13.1802 4.34386 13.3859 4.1032 13.6612 4.08163Z" fill="#4195B9"/>
<path d="M10.385 4.20096C10.641 4.21613 10.8405 4.42131 10.8547 4.67125L10.8546 4.72966L10.6054 8.92138C10.6045 9.30128 10.7547 9.66596 11.023 9.93494C11.2913 10.2039 11.6556 10.3551 12.0357 10.3551C12.8455 10.3555 13.5094 9.71317 13.5357 8.90384C13.5447 8.62784 13.7757 8.41138 14.0517 8.42035C14.3277 8.42933 14.5442 8.66034 14.5352 8.93634C14.4913 10.2852 13.3848 11.3558 12.0355 11.3551C11.3899 11.3551 10.7709 11.0982 10.315 10.6411C9.88946 10.2145 9.63871 9.64627 9.60924 9.02453L9.60632 8.89052L9.85633 4.67052C9.87266 4.39486 10.1094 4.18463 10.385 4.20096Z" fill="#4195B9"/>
<path d="M20.5471 4.14134C20.7927 4.06765 21.0506 4.19181 21.1497 4.42169L21.1697 4.47657L22.4597 8.77657C22.4736 8.82277 22.4807 8.87073 22.4808 8.91896C22.4825 9.56453 22.2272 10.1842 21.7713 10.6413C21.3154 11.0984 20.6964 11.3552 20.0511 11.3552C18.7015 11.356 17.5949 10.2854 17.5511 8.9365C17.5421 8.6605 17.7585 8.42949 18.0345 8.42051C18.3105 8.41154 18.5415 8.628 18.5505 8.904C18.5768 9.71333 19.2408 10.3557 20.0508 10.3552C20.4307 10.3552 20.795 10.2041 21.0633 9.9351C21.3072 9.69058 21.4535 9.36696 21.4773 9.02471L21.4788 8.98625L20.2119 4.76392C20.1382 4.51832 20.2623 4.26043 20.4922 4.16131L20.5471 4.14134Z" fill="#4195B9"/>
<path d="M7.48547 15.4551C7.74189 15.4551 7.95323 15.6481 7.98211 15.8968L7.98547 15.9551V17.6201C7.98547 17.8962 7.76162 18.1201 7.48547 18.1201C7.22906 18.1201 7.01772 17.9271 6.98884 17.6784L6.98547 17.6201V15.9551C6.98547 15.6789 7.20933 15.4551 7.48547 15.4551Z" fill="#699C69"/>
</g>
<defs>
<clipPath id="clip0_81_258">
<rect width="24" height="24" fill="white"/>
</clipPath>
</defs>
</svg>
