<svg width="24" height="24" viewBox="0 0 24 24" fill="none" xmlns="http://www.w3.org/2000/svg">
<path fill-rule="evenodd" clip-rule="evenodd" d="M2.48198 4.46849C2.74574 4.55027 2.89325 4.83039 2.81147 5.09414L1.5347 9.2117C1.53242 9.21907 1.52996 9.22639 1.52734 9.23365C1.48927 9.33891 1.47017 9.63586 1.61542 9.94427C1.74651 10.2226 2.01299 10.5111 2.55123 10.6352C3.26438 10.7996 3.76877 10.6294 4.09186 10.3668C4.4299 10.0921 4.59927 9.6942 4.59927 9.35773C4.59927 9.08159 4.82312 8.85773 5.09927 8.85773C5.37541 8.85773 5.59927 9.08159 5.59927 9.35773C5.59927 10.0016 5.28928 10.6822 4.72255 11.1428C4.14087 11.6156 3.31508 11.8375 2.3266 11.6096C1.48222 11.415 0.96919 10.9192 0.710726 10.3703C0.469029 9.85712 0.448164 9.29073 0.582531 8.90597L1.85633 4.79797C1.93812 4.53422 2.21823 4.3867 2.48198 4.46849Z" fill="#4195B9"/>
<path fill-rule="evenodd" clip-rule="evenodd" d="M6.5213 4.50851C6.78627 4.58625 6.93806 4.86407 6.86032 5.12905L5.60099 9.42159C5.61289 9.59023 5.67215 9.84181 5.83011 10.0682C5.99688 10.3072 6.29571 10.5518 6.86494 10.6267C7.4847 10.7083 7.87733 10.542 8.11541 10.3175C8.3639 10.0832 8.5 9.73269 8.5 9.3578C8.5 9.08166 8.72386 8.8578 9 8.8578C9.27614 8.8578 9.5 9.08166 9.5 9.3578C9.5 9.96328 9.28074 10.5931 8.80147 11.0451C8.31178 11.5068 7.60425 11.7327 6.73444 11.6182C5.89279 11.5074 5.34108 11.1148 5.01005 10.6404C4.69164 10.1842 4.59863 9.68428 4.59863 9.3578C4.59863 9.31015 4.60544 9.26276 4.61885 9.21704L5.90076 4.84753C5.9785 4.58256 6.25632 4.43077 6.5213 4.50851Z" fill="#4195B9"/>
<path fill-rule="evenodd" clip-rule="evenodd" d="M9.55631 4.50323C9.83069 4.53432 10.0279 4.78197 9.99682 5.05635L9.50021 9.43807C9.50343 9.63634 9.54377 9.92364 9.6918 10.1706C9.83131 10.4032 10.0918 10.6461 10.6493 10.7195C11.1855 10.79 11.832 10.6396 12.3448 10.3538C12.8905 10.0497 13.1 9.70695 13.1 9.50005C13.1 9.2239 13.3239 9.00005 13.6 9.00005C13.8761 9.00005 14.1 9.2239 14.1 9.50005C14.1 10.2735 13.463 10.8754 12.8316 11.2273C12.1672 11.5975 11.3058 11.8145 10.5189 11.7109C9.6655 11.5986 9.13396 11.1849 8.83413 10.6848C8.54954 10.2101 8.5 9.70335 8.5 9.41172C8.5 9.3929 8.50106 9.3741 8.50318 9.35541L9.00318 4.94374C9.03428 4.66935 9.28192 4.47213 9.55631 4.50323Z" fill="#4195B9"/>
<path fill-rule="evenodd" clip-rule="evenodd" d="M16.2831 4.46902C16.0196 4.55174 15.8731 4.83237 15.9558 5.09583L17.3572 9.5593C17.3436 9.70695 17.2839 9.92244 17.1297 10.1226C16.9602 10.3426 16.6502 10.5788 16.0669 10.6668C15.5698 10.7418 15.0687 10.5811 14.6875 10.2936C14.2947 9.99731 14.1063 9.62995 14.1063 9.35773C14.1063 9.3457 14.1059 9.33366 14.105 9.32166L13.7859 4.90999C13.766 4.63457 13.5266 4.42744 13.2512 4.44736C12.9757 4.46728 12.7686 4.7067 12.7885 4.98212L13.1064 9.3774C13.1145 10.0569 13.5408 10.6812 14.0854 11.0919C14.6467 11.5153 15.4132 11.7767 16.2161 11.6556C17.0322 11.5325 17.5817 11.1745 17.9218 10.733C18.2521 10.3043 18.3605 9.82919 18.3605 9.49295C18.3605 9.44215 18.3527 9.39164 18.3375 9.34317L16.9099 4.79628C16.8272 4.53282 16.5466 4.3863 16.2831 4.46902Z" fill="#4195B9"/>
<path fill-rule="evenodd" clip-rule="evenodd" d="M20.4716 4.4706C20.209 4.55606 20.0654 4.83821 20.1509 5.1008L21.4271 9.02228C21.4321 9.03755 21.4378 9.05257 21.4442 9.06729C21.4982 9.19112 21.5484 9.5428 21.4143 9.87959C21.2987 10.17 21.0297 10.4917 20.3548 10.5969C19.3502 10.7536 18.5144 10.0068 18.3496 9.25122C18.3462 9.23524 18.3419 9.21944 18.3369 9.20388L16.9102 4.79221C16.8252 4.52946 16.5433 4.38535 16.2806 4.47032C16.0178 4.55528 15.8737 4.83716 15.9587 5.09991L17.3783 9.48967C17.6534 10.6857 18.9273 11.8317 20.5089 11.585C21.518 11.4276 22.0913 10.8826 22.3434 10.2496C22.5718 9.67603 22.523 9.06238 22.3716 8.69288L21.1018 4.79132C21.0163 4.52873 20.7342 4.38515 20.4716 4.4706Z" fill="#4195B9"/>
<path fill-rule="evenodd" clip-rule="evenodd" d="M2 10.5C2.27614 10.5 2.5 10.7239 2.5 11V19C2.5 19.2761 2.72386 19.5 3 19.5H13C13.2761 19.5 13.5 19.7239 13.5 20C13.5 20.2761 13.2761 20.5 13 20.5H3C2.17157 20.5 1.5 19.8284 1.5 19V11C1.5 10.7239 1.72386 10.5 2 10.5Z" fill="#4195B9"/>
<path fill-rule="evenodd" clip-rule="evenodd" d="M6.96289 10.8018C7.23903 10.8018 7.46289 11.0256 7.46289 11.3018L7.46289 19.8598C7.46289 20.1359 7.23903 20.3598 6.96289 20.3598C6.68675 20.3598 6.46289 20.1359 6.46289 19.8598L6.46289 11.3018C6.46289 11.0256 6.68675 10.8018 6.96289 10.8018Z" fill="#4195B9"/>
<path fill-rule="evenodd" clip-rule="evenodd" d="M19.7842 10.8018C20.0603 10.8018 20.2842 11.0256 20.2842 11.3018L20.2842 11.7896C20.2842 12.0657 20.0603 12.2896 19.7842 12.2896C19.508 12.2896 19.2842 12.0657 19.2842 11.7896L19.2842 11.3018C19.2842 11.0256 19.508 10.8018 19.7842 10.8018Z" fill="#4195B9"/>
<path fill-rule="evenodd" clip-rule="evenodd" d="M0.5 3.30005C0.5 2.47162 1.17157 1.80005 2 1.80005H21C21.8284 1.80005 22.5 2.47162 22.5 3.30005C22.5 4.12848 21.8284 4.80005 21 4.80005H2C1.17157 4.80005 0.5 4.12848 0.5 3.30005ZM2 2.80005C1.72386 2.80005 1.5 3.02391 1.5 3.30005C1.5 3.57619 1.72386 3.80005 2 3.80005H21C21.2761 3.80005 21.5 3.57619 21.5 3.30005C21.5 3.02391 21.2761 2.80005 21 2.80005H2Z" fill="#4195B9"/>
<path fill-rule="evenodd" clip-rule="evenodd" d="M18.5 13.5C16.2909 13.5 14.5 15.2909 14.5 17.5C14.5 19.7091 16.2909 21.5 18.5 21.5C20.7091 21.5 22.5 19.7091 22.5 17.5C22.5 15.2909 20.7091 13.5 18.5 13.5ZM13.5 17.5C13.5 14.7386 15.7386 12.5 18.5 12.5C21.2614 12.5 23.5 14.7386 23.5 17.5C23.5 20.2614 21.2614 22.5 18.5 22.5C15.7386 22.5 13.5 20.2614 13.5 17.5Z" fill="#699C69"/>
<path fill-rule="evenodd" clip-rule="evenodd" d="M19 14.5C19.2761 14.5 19.5 14.7239 19.5 15V17.9026L20.3281 18.6227C20.5365 18.8039 20.5585 19.1197 20.3773 19.3281C20.1961 19.5365 19.8803 19.5585 19.6719 19.3773L18.6719 18.5077C18.5627 18.4128 18.5 18.2752 18.5 18.1304V15C18.5 14.7239 18.7239 14.5 19 14.5Z" fill="#699C69"/>
<path fill-rule="evenodd" clip-rule="evenodd" d="M6 13C5.58306 13.8472 4.62238 14.7114 3.84294 14.9486C3.0635 15.1689 2.77348 14.6606 3.19042 13.8134L3.46227 13.7286C3.19042 14.2878 3.37159 14.6267 3.89731 14.4742C4.40489 14.3216 5.03928 13.7625 5.31117 13.2034L6 13ZM4.53488 13.3333C4.39483 13.6325 4.09717 13.9504 3.83452 14.0439C3.57186 14.1374 3.48433 13.9317 3.62442 13.6325L4.53488 13.3333Z" fill="#699C69"/>
<path fill-rule="evenodd" clip-rule="evenodd" d="M5.5 15.5C5.77614 15.5 6 15.7239 6 16V17C6 17.2761 5.77614 17.5 5.5 17.5C5.22386 17.5 5 17.2761 5 17V16C5 15.7239 5.22386 15.5 5.5 15.5Z" fill="#4195B9"/>
</svg>
