<svg width="24" height="24" viewBox="0 0 24 24" fill="none" xmlns="http://www.w3.org/2000/svg">
<path fill-rule="evenodd" clip-rule="evenodd" d="M9.54653 3.11454C9.73091 2.96221 9.99734 2.96178 10.1822 3.11351L12.4972 5.01351C12.7107 5.1887 12.7417 5.50375 12.5665 5.71721C12.3913 5.93067 12.0762 5.96168 11.8628 5.78649L9.86606 4.14771L3 9.82048V17.645H5.36C5.63614 17.645 5.86 17.8689 5.86 18.145C5.86 18.4211 5.63614 18.645 5.36 18.645H2.5C2.22386 18.645 2 18.4211 2 18.145V9.585C2 9.43587 2.06657 9.29453 2.18153 9.19954L9.54653 3.11454Z" fill="#699C69"/>
<path fill-rule="evenodd" clip-rule="evenodd" d="M13.5565 3.99953C13.7408 3.84729 14.0071 3.84679 14.1919 3.99833L22.2369 10.5933C22.3528 10.6883 22.42 10.8302 22.42 10.98V17.83C22.42 18.1062 22.1961 18.33 21.92 18.33C21.6438 18.33 21.42 18.1062 21.42 17.83V11.2167L13.8762 5.03254L6.32495 11.2705V19.895H11.655V14.93C11.655 14.6539 11.8788 14.43 12.155 14.43H16.025C16.3011 14.43 16.525 14.6539 16.525 14.93V19.895H21.715C21.9911 19.895 22.215 20.1189 22.215 20.395C22.215 20.6712 21.9911 20.895 21.715 20.895H16.025C15.7488 20.895 15.525 20.6712 15.525 20.395V15.43H12.655V20.395C12.655 20.6712 12.4311 20.895 12.155 20.895H5.82495C5.54881 20.895 5.32495 20.6712 5.32495 20.395V11.035C5.32495 10.8859 5.39153 10.7445 5.50651 10.6495L13.5565 3.99953Z" fill="#4195B9"/>
</svg>
