<svg width="24" height="24" viewBox="0 0 24 24" fill="none" xmlns="http://www.w3.org/2000/svg">
<path d="M19.235 14.825C16.9485 14.825 15.095 16.6785 15.095 18.965C15.095 21.2514 16.9485 23.105 19.235 23.105C21.5214 23.105 23.375 21.2514 23.375 18.965C23.375 16.6785 21.5214 14.825 19.235 14.825ZM19.235 15.825C20.9691 15.825 22.375 17.2308 22.375 18.965C22.375 20.6991 20.9691 22.105 19.235 22.105C17.5008 22.105 16.095 20.6991 16.095 18.965C16.095 17.2308 17.5008 15.825 19.235 15.825Z" fill="#699C69"/>
<path d="M20.342 17.4146C20.5162 17.2003 20.8311 17.1678 21.0454 17.342C21.2432 17.5028 21.2861 17.7835 21.1545 17.9943L21.1179 18.0454L19.1179 20.5054C18.9423 20.7215 18.6279 20.7498 18.4171 20.5801L18.3704 20.5374L17.3704 19.5024C17.1785 19.3038 17.184 18.9873 17.3826 18.7954C17.5659 18.6183 17.8497 18.6093 18.0432 18.7652L18.0896 18.8076L18.6975 19.437L20.342 17.4146Z" fill="#699C69"/>
<path d="M10.705 1.6499C9.7126 1.6499 8.75717 1.72186 7.86638 1.85665L7.51358 1.91389C6.81514 2.035 6.16044 2.19554 5.56364 2.39086L5.27013 2.49139C3.29835 3.19785 2.03003 4.3011 2.03003 5.6149C2.03003 6.9287 3.29835 8.03195 5.27013 8.73842L5.56364 8.83895C6.16044 9.03426 6.81514 9.1948 7.51358 9.31591L7.86638 9.37316C8.69778 9.49896 9.5855 9.57003 10.507 9.57895L10.705 9.5799C11.6975 9.5799 12.6529 9.50795 13.5437 9.37316L13.8965 9.31591C14.5949 9.1948 15.2496 9.03426 15.8464 8.83895L16.1399 8.73842C18.1117 8.03195 19.38 6.9287 19.38 5.6149C19.38 4.3011 18.1117 3.19785 16.1399 2.49139L15.8464 2.39086C15.2496 2.19554 14.5949 2.035 13.8965 1.91389L13.5437 1.85665C12.6529 1.72186 11.6975 1.6499 10.705 1.6499ZM10.705 2.6499C11.2957 2.6499 11.87 2.6776 12.4211 2.72937L12.7849 2.7674L13.1414 2.81233C13.2002 2.82037 13.2587 2.8287 13.3168 2.8373L13.6615 2.89211C14.0021 2.95011 14.33 3.01755 14.6433 3.09335L14.9516 3.17189C15.3559 3.28023 15.733 3.4028 16.078 3.53703L16.3307 3.63986C17.6047 4.18203 18.38 4.8899 18.38 5.6149C18.38 6.33991 17.6047 7.04777 16.3307 7.58994L16.078 7.69277C15.733 7.82701 15.3559 7.94957 14.9516 8.05791L14.6433 8.13646C14.33 8.21226 14.0021 8.27969 13.6615 8.33769L13.3168 8.39251C13.2587 8.4011 13.2002 8.40943 13.1414 8.41748L12.7849 8.4624L12.4211 8.50044C11.87 8.5522 11.2957 8.5799 10.705 8.5799C10.1143 8.5799 9.54006 8.5522 8.989 8.50044L8.62514 8.4624L8.26861 8.41748C8.20982 8.40943 8.15136 8.4011 8.09323 8.39251L7.74851 8.33769C7.40794 8.27969 7.08003 8.21226 6.76678 8.13646L6.4585 8.05791C6.05416 7.94957 5.67709 7.82701 5.33203 7.69277L5.07931 7.58994C3.80538 7.04777 3.03003 6.33991 3.03003 5.6149C3.03003 4.8899 3.80538 4.18203 5.07931 3.63986L5.33203 3.53703C5.67709 3.4028 6.05416 3.28023 6.4585 3.17189L6.76678 3.09335C7.08003 3.01755 7.40794 2.95011 7.74851 2.89211L8.09323 2.8373C8.15136 2.8287 8.20982 2.82037 8.26861 2.81233L8.62514 2.7674L8.989 2.72937C9.54006 2.6776 10.1143 2.6499 10.705 2.6499Z" fill="#4195B9"/>
<path d="M18.865 5.02002C19.1214 5.02002 19.3328 5.21304 19.3616 5.46171L19.365 5.52002L19.3642 10.3743C19.2322 12.6235 15.3694 14.22 10.69 14.22C6.0817 14.22 2.25533 12.6659 2.01814 10.4435L2.01001 10.345V5.52002C2.01001 5.24388 2.23387 5.02002 2.51001 5.02002C2.76643 5.02002 2.97776 5.21304 3.00665 5.46171L3.01001 5.52002L3.00915 10.3157C3.07262 11.3946 4.84398 12.423 7.39419 12.9161L7.73116 12.9773C8.64114 13.1323 9.64045 13.22 10.69 13.22C11.1495 13.22 11.5993 13.2033 12.0361 13.1715L12.4072 13.1407C15.7173 12.8306 18.1983 11.6568 18.3585 10.4141L18.365 10.345V5.52002C18.365 5.24388 18.5889 5.02002 18.865 5.02002Z" fill="#4195B9"/>
<path d="M18.88 9.79492C19.1364 9.79492 19.3478 9.98794 19.3766 10.2366L19.38 10.2949V13.1249C19.38 13.4011 19.1561 13.6249 18.88 13.6249C18.6236 13.6249 18.4123 13.4319 18.3834 13.1832L18.38 13.1249V10.2949C18.38 10.0188 18.6039 9.79492 18.88 9.79492Z" fill="#4195B9"/>
<path d="M2.51001 9.79492C2.76643 9.79492 2.97776 9.98794 3.00665 10.2366L3.01001 10.2949L3.00915 14.5506C3.05468 15.3246 3.97918 16.0726 5.43986 16.6156L5.71127 16.712C6.2194 16.8845 6.78481 17.0331 7.39478 17.151L7.73184 17.2122C8.64204 17.3672 9.64165 17.4549 10.6916 17.4549C11.6787 17.4581 12.6643 17.3784 13.6381 17.2167C13.9105 17.1714 14.168 17.3556 14.2133 17.628C14.2585 17.9004 14.0743 18.1579 13.8019 18.2032C12.773 18.374 11.7315 18.4583 10.69 18.4549C6.0817 18.4549 2.25533 16.9008 2.01814 14.6784L2.01001 14.5799V10.2949C2.01001 10.0188 2.23387 9.79492 2.51001 9.79492Z" fill="#4195B9"/>
<path d="M2.51001 14.02C2.76643 14.02 2.97776 14.213 3.00665 14.4617L3.01001 14.52L3.00915 18.7807C3.074 19.8831 4.92182 20.9327 7.56217 21.4125L7.90346 21.4707C8.76708 21.608 9.70712 21.6851 10.6914 21.6851C11.6934 21.6879 12.6936 21.6049 13.6812 21.4371C13.9535 21.3908 14.2117 21.574 14.2579 21.8462C14.3042 22.1185 14.121 22.3767 13.8488 22.423C12.8049 22.6004 11.7477 22.688 10.69 22.6852C9.67348 22.6852 8.69499 22.6095 7.78468 22.4677L7.42427 22.4075C4.39286 21.8662 2.19603 20.5753 2.01814 18.9085L2.01001 18.81V14.52C2.01001 14.2439 2.23387 14.02 2.51001 14.02Z" fill="#4195B9"/>
</svg>
