<svg width="24" height="24" viewBox="0 0 24 24" fill="none" xmlns="http://www.w3.org/2000/svg">
<g clip-path="url(#clip0_144_437)">
<path fill-rule="evenodd" clip-rule="evenodd" d="M10.167 3.03705C10.167 2.81204 10.3494 2.62964 10.5744 2.62964H13.4263C13.6513 2.62964 13.8337 2.81204 13.8337 3.03705C13.8337 3.26205 13.6513 3.44445 13.4263 3.44445H10.5744C10.3494 3.44445 10.167 3.26205 10.167 3.03705Z" fill="#699C69"/>
<path fill-rule="evenodd" clip-rule="evenodd" d="M12.0988 8.91819C11.616 9.91501 10.8111 10.7075 9.82244 11.1593C8.98861 11.4513 8.68427 10.803 9.14287 9.87131L12.0988 8.91819ZM16.6848 7.51855C15.3841 10.4681 12.3739 13.4434 9.94751 14.2677C7.50857 15.0276 6.61221 13.2673 7.90464 10.335L8.73846 10.043C7.90464 11.9793 8.45496 13.1514 10.0976 12.6191C11.7402 12.0867 13.6705 10.1547 14.521 8.21837L16.6848 7.51855Z" fill="#699C69"/>
<path fill-rule="evenodd" clip-rule="evenodd" d="M12.0001 20.5556C12.3377 20.5556 12.6113 20.282 12.6113 19.9445C12.6113 19.607 12.3377 19.3334 12.0001 19.3334C11.6626 19.3334 11.389 19.607 11.389 19.9445C11.389 20.282 11.6626 20.5556 12.0001 20.5556ZM12.0001 21.3704C12.7877 21.3704 13.4261 20.732 13.4261 19.9445C13.4261 19.157 12.7877 18.5186 12.0001 18.5186C11.2126 18.5186 10.5742 19.157 10.5742 19.9445C10.5742 20.732 11.2126 21.3704 12.0001 21.3704Z" fill="#699C69"/>
<path fill-rule="evenodd" clip-rule="evenodd" d="M16 1H8C6.89543 1 6 1.89543 6 3V21C6 22.1046 6.89543 23 8 23H16C17.1046 23 18 22.1046 18 21V3C18 1.89543 17.1046 1 16 1ZM8 0C6.34315 0 5 1.34315 5 3V21C5 22.6569 6.34315 24 8 24H16C17.6569 24 19 22.6569 19 21V3C19 1.34315 17.6569 0 16 0H8Z" fill="#4195B9"/>
</g>
<defs>
<clipPath id="clip0_144_437">
<rect width="24" height="24" fill="white"/>
</clipPath>
</defs>
</svg>
