<svg width="24" height="24" viewBox="0 0 24 24" fill="none" xmlns="http://www.w3.org/2000/svg">
<path fill-rule="evenodd" clip-rule="evenodd" d="M12.0501 19.8301C11.7794 19.8301 11.5601 20.0495 11.5601 20.3201C11.5601 20.5907 11.7794 20.8101 12.0501 20.8101C12.3207 20.8101 12.5401 20.5907 12.5401 20.3201C12.5401 20.0495 12.3207 19.8301 12.0501 19.8301ZM10.5601 20.3201C10.5601 19.4972 11.2272 18.8301 12.0501 18.8301C12.873 18.8301 13.5401 19.4972 13.5401 20.3201C13.5401 21.143 12.873 21.8101 12.0501 21.8101C11.2272 21.8101 10.5601 21.143 10.5601 20.3201Z" fill="#699C69"/>
<path fill-rule="evenodd" clip-rule="evenodd" d="M7.17506 1.23511C6.76637 1.23511 6.43506 1.56642 6.43506 1.97511V22.1801C6.43506 22.5888 6.76637 22.9201 7.17506 22.9201H16.8901C17.2987 22.9201 17.6301 22.5888 17.6301 22.1801V1.97511C17.6301 1.56642 17.2987 1.23511 16.8901 1.23511H7.17506ZM5.43506 1.97511C5.43506 1.01413 6.21408 0.235107 7.17506 0.235107H16.8901C17.851 0.235107 18.6301 1.01413 18.6301 1.97511V22.1801C18.6301 23.1411 17.851 23.9201 16.8901 23.9201H7.17506C6.21408 23.9201 5.43506 23.1411 5.43506 22.1801V1.97511Z" fill="#4195B9"/>
<path fill-rule="evenodd" clip-rule="evenodd" d="M9.79504 2.875C9.79504 2.59886 10.0189 2.375 10.295 2.375H13.9C14.1762 2.375 14.4 2.59886 14.4 2.875C14.4 3.15114 14.1762 3.375 13.9 3.375H10.295C10.0189 3.375 9.79504 3.15114 9.79504 2.875Z" fill="#699C69"/>
</svg>
