<svg width="24" height="24" viewBox="0 0 24 24" fill="none" xmlns="http://www.w3.org/2000/svg">
<g clip-path="url(#clip0_144_438)">
<path fill-rule="evenodd" clip-rule="evenodd" d="M12.02 19.5452C11.7577 19.5452 11.545 19.7578 11.545 20.0202C11.545 20.2825 11.7577 20.4952 12.02 20.4952C12.2824 20.4952 12.495 20.2825 12.495 20.0202C12.495 19.7578 12.2824 19.5452 12.02 19.5452ZM10.545 20.0202C10.545 19.2055 11.2054 18.5452 12.02 18.5452C12.8347 18.5452 13.495 19.2055 13.495 20.0202C13.495 20.8348 12.8347 21.4952 12.02 21.4952C11.2054 21.4952 10.545 20.8348 10.545 20.0202Z" fill="#4195B9"/>
<path fill-rule="evenodd" clip-rule="evenodd" d="M9.04004 7.73511V16.2251H23.015V7.73511H9.04004ZM8.04004 7.66511C8.04004 7.15148 8.45642 6.73511 8.97004 6.73511H23.085C23.5987 6.73511 24.015 7.15148 24.015 7.66511V16.2951C24.015 16.8087 23.5987 17.2251 23.085 17.2251H8.97004C8.45641 17.2251 8.04004 16.8087 8.04004 16.2951V7.66511Z" fill="#699C69"/>
<path fill-rule="evenodd" clip-rule="evenodd" d="M7.21506 0.235107H16.7801C17.73 0.235107 18.5001 1.00518 18.5001 1.95511V5.16511C18.5001 5.44125 18.2762 5.66511 18.0001 5.66511C17.7239 5.66511 17.5001 5.44125 17.5001 5.16511V1.95511C17.5001 1.55746 17.1777 1.23511 16.7801 1.23511H7.21621C6.81881 1.2372 6.49715 1.55886 6.49506 1.95626V7.52011C6.49506 7.79625 6.2712 8.02011 5.99506 8.02011C5.71891 8.02011 5.49506 7.79625 5.49506 7.52011V1.95307C5.49891 1.00587 6.26582 0.23897 7.21302 0.235112L7.21506 0.235107Z" fill="#4195B9"/>
<path fill-rule="evenodd" clip-rule="evenodd" d="M5.99506 16.0852C6.2712 16.0852 6.49506 16.3091 6.49506 16.5852V21.8502C6.49506 22.2479 6.81741 22.5702 7.21506 22.5702H16.7801C17.1777 22.5702 17.5001 22.2479 17.5001 21.8502V18.6402C17.5001 18.3641 17.7239 18.1402 18.0001 18.1402C18.2762 18.1402 18.5001 18.3641 18.5001 18.6402V21.8502C18.5001 22.8001 17.73 23.5702 16.7801 23.5702H7.21506C6.26513 23.5702 5.49506 22.8001 5.49506 21.8502V16.5852C5.49506 16.3091 5.71891 16.0852 5.99506 16.0852Z" fill="#4195B9"/>
<path fill-rule="evenodd" clip-rule="evenodd" d="M18.84 9.34009C18.84 9.06395 19.0639 8.84009 19.34 8.84009H21.22C21.4962 8.84009 21.72 9.06395 21.72 9.34009V11.5651C21.72 11.8412 21.4962 12.0651 21.22 12.0651H19.34C19.0639 12.0651 18.84 11.8412 18.84 11.5651V9.34009ZM19.84 9.84009V11.0651H20.72V9.84009H19.84Z" fill="#699C69"/>
<path fill-rule="evenodd" clip-rule="evenodd" d="M13.5351 11.4302C13.2037 11.4302 12.9351 11.6988 12.9351 12.0302C12.9351 12.3615 13.2037 12.6302 13.5351 12.6302C13.8664 12.6302 14.1351 12.3615 14.1351 12.0302C14.1351 11.6988 13.8664 11.4302 13.5351 11.4302ZM11.9351 12.0302C11.9351 11.1465 12.6514 10.4302 13.5351 10.4302C14.4187 10.4302 15.1351 11.1465 15.1351 12.0302C15.1351 12.9138 14.4187 13.6302 13.5351 13.6302C12.6514 13.6302 11.9351 12.9138 11.9351 12.0302Z" fill="#699C69"/>
<path fill-rule="evenodd" clip-rule="evenodd" d="M13.51 8.53003C13.7862 8.53003 14.01 8.75389 14.01 9.03003V9.37503C14.01 9.65117 13.7862 9.87503 13.51 9.87503C13.2339 9.87503 13.01 9.65117 13.01 9.37503V9.03003C13.01 8.75389 13.2339 8.53003 13.51 8.53003Z" fill="#699C69"/>
<path fill-rule="evenodd" clip-rule="evenodd" d="M13.51 14.1101C13.7862 14.1101 14.01 14.334 14.01 14.6101V14.9551C14.01 15.2313 13.7862 15.4551 13.51 15.4551C13.2339 15.4551 13.01 15.2313 13.01 14.9551V14.6101C13.01 14.334 13.2339 14.1101 13.51 14.1101Z" fill="#699C69"/>
<path fill-rule="evenodd" clip-rule="evenodd" d="M15.63 11.99C15.63 11.7138 15.8539 11.49 16.13 11.49H16.475C16.7511 11.49 16.975 11.7138 16.975 11.99C16.975 12.2661 16.7511 12.49 16.475 12.49H16.13C15.8539 12.49 15.63 12.2661 15.63 11.99Z" fill="#699C69"/>
<path fill-rule="evenodd" clip-rule="evenodd" d="M10.045 11.99C10.045 11.7138 10.2689 11.49 10.545 11.49H10.89C11.1662 11.49 11.39 11.7138 11.39 11.99C11.39 12.2661 11.1662 12.49 10.89 12.49H10.545C10.2689 12.49 10.045 12.2661 10.045 11.99Z" fill="#699C69"/>
<path fill-rule="evenodd" clip-rule="evenodd" d="M15.0029 13.4953C15.1961 13.2981 15.5127 13.2948 15.7099 13.488L15.9549 13.728C16.1522 13.9213 16.1555 14.2378 15.9622 14.4351C15.769 14.6324 15.4524 14.6356 15.2552 14.4424L15.0102 14.2024C14.8129 14.0092 14.8096 13.6926 15.0029 13.4953Z" fill="#699C69"/>
<path fill-rule="evenodd" clip-rule="evenodd" d="M11.0615 9.54147C11.2567 9.3462 11.5733 9.3462 11.7686 9.54147L12.0136 9.78647C12.2089 9.98173 12.2089 10.2983 12.0136 10.4936C11.8183 10.6888 11.5017 10.6888 11.3065 10.4936L11.0615 10.2486C10.8662 10.0533 10.8662 9.73673 11.0615 9.54147Z" fill="#699C69"/>
<path fill-rule="evenodd" clip-rule="evenodd" d="M12.0172 13.4953C12.2105 13.6926 12.2072 14.0092 12.0099 14.2024L11.7649 14.4424C11.5677 14.6356 11.2511 14.6324 11.0579 14.4351C10.8646 14.2378 10.8679 13.9213 11.0651 13.728L11.3101 13.488C11.5074 13.2948 11.824 13.2981 12.0172 13.4953Z" fill="#699C69"/>
<path fill-rule="evenodd" clip-rule="evenodd" d="M15.9586 9.54147C16.1539 9.73673 16.1539 10.0533 15.9586 10.2486L15.7136 10.4936C15.5183 10.6888 15.2018 10.6888 15.0065 10.4936C14.8112 10.2983 14.8112 9.98173 15.0065 9.78647L15.2515 9.54147C15.4468 9.3462 15.7633 9.3462 15.9586 9.54147Z" fill="#699C69"/>
<path fill-rule="evenodd" clip-rule="evenodd" d="M18.455 13.3801C18.455 13.104 18.6789 12.8801 18.955 12.8801H21.25C21.5262 12.8801 21.75 13.104 21.75 13.3801C21.75 13.6563 21.5262 13.8801 21.25 13.8801H18.955C18.6789 13.8801 18.455 13.6563 18.455 13.3801Z" fill="#699C69"/>
<path fill-rule="evenodd" clip-rule="evenodd" d="M18.455 14.6851C18.455 14.4089 18.6789 14.1851 18.955 14.1851H20.25C20.5262 14.1851 20.75 14.4089 20.75 14.6851C20.75 14.9612 20.5262 15.1851 20.25 15.1851H18.955C18.6789 15.1851 18.455 14.9612 18.455 14.6851Z" fill="#699C69"/>
<path fill-rule="evenodd" clip-rule="evenodd" d="M0.405029 9.61499C0.405029 9.33885 0.628887 9.11499 0.905029 9.11499H5.65503C5.93117 9.11499 6.15503 9.33885 6.15503 9.61499C6.15503 9.89113 5.93117 10.115 5.65503 10.115H0.905029C0.628887 10.115 0.405029 9.89113 0.405029 9.61499Z" fill="#699C69"/>
<path fill-rule="evenodd" clip-rule="evenodd" d="M0.405029 14.3601C0.405029 14.084 0.628887 13.8601 0.905029 13.8601H5.65503C5.93117 13.8601 6.15503 14.084 6.15503 14.3601C6.15503 14.6362 5.93117 14.8601 5.65503 14.8601H0.905029C0.628887 14.8601 0.405029 14.6362 0.405029 14.3601Z" fill="#699C69"/>
<path fill-rule="evenodd" clip-rule="evenodd" d="M2.04004 11.9602C2.04004 11.6841 2.2639 11.4602 2.54004 11.4602H7.14004C7.41618 11.4602 7.64004 11.6841 7.64004 11.9602C7.64004 12.2363 7.41618 12.4602 7.14004 12.4602H2.54004C2.2639 12.4602 2.04004 12.2363 2.04004 11.9602Z" fill="#699C69"/>
</g>
<defs>
<clipPath id="clip0_144_438">
<rect width="24" height="24" fill="white"/>
</clipPath>
</defs>
</svg>
