<svg width="24" height="24" viewBox="0 0 24 24" fill="none" xmlns="http://www.w3.org/2000/svg">
<g clip-path="url(#clip0_144_439)">
<path d="M4.54999 4C4.84999 4 5.04999 3.75 5.04999 3.5C5.04999 3.2 4.79999 3 4.54999 3C4.24999 3 4.04999 3.25 4.04999 3.5C4.04999 3.75 4.29999 4 4.54999 4Z" fill="#699C69"/>
<path d="M3.04999 4C3.34999 4 3.54999 3.75 3.54999 3.5C3.54999 3.25 3.29999 3 3.04999 3C2.74999 3 2.54999 3.25 2.54999 3.5C2.54999 3.8 2.74999 4 3.04999 4Z" fill="#699C69"/>
<path d="M6.04999 4C6.34999 4 6.54999 3.75 6.54999 3.5C6.54999 3.2 6.29999 3 6.04999 3C5.74999 3 5.54999 3.25 5.54999 3.5C5.54999 3.8 5.79999 4 6.04999 4Z" fill="#699C69"/>
<path d="M22.4 0.649902H1.59999C0.899988 0.649902 0.299988 1.2499 0.299988 1.9499V19.6499C0.299988 20.3999 0.899988 20.9999 1.64999 20.9999H7.69999C7.99999 20.9999 8.19999 20.7499 8.19999 20.4999C8.19999 20.2499 7.94999 19.9999 7.69999 19.9999H1.34999V6.2499H7.69999C7.99999 6.2499 8.19999 5.9999 8.19999 5.7499C8.19999 5.4499 7.94999 5.2499 7.69999 5.2499H1.34999V1.6499H22.7V20.4999C22.7 20.7499 22.95 20.9999 23.2 20.9999C23.45 20.9999 23.7 20.7999 23.7 20.4999V1.9499C23.7 1.2499 23.1 0.649902 22.4 0.649902Z" fill="#4195B9"/>
<path d="M18.15 9.4998C18.15 7.9998 16.95 6.7998 15.45 6.7998C13.95 6.7998 12.7 7.9998 12.7 9.4998C12.7 10.9998 13.9 12.1998 15.4 12.1998C16.9 12.1998 18.15 10.9998 18.15 9.4998ZM15.45 11.1498C15 11.1498 14.6 10.9998 14.25 10.6498C13.95 10.3498 13.75 9.89981 13.75 9.4998C13.75 8.5998 14.5 7.8498 15.4 7.8498C15.85 7.8498 16.25 7.9998 16.55 8.3498C16.85 8.6498 17.05 9.0998 17.05 9.4998C17.1 10.3998 16.35 11.1498 15.45 11.1498Z" fill="#699C69"/>
<path d="M19.6 4.09985H10.2C10.05 4.09985 9.95001 4.14985 9.85001 4.24985C9.75001 4.34985 9.70001 4.49985 9.70001 4.59985V23.1499C9.70001 23.2499 9.70001 23.2999 9.70001 23.2999L16.4 23.3999H19.6C20 23.3999 20.4 23.2499 20.7 22.9499C21 22.6499 21.15 22.2499 21.15 21.8499V5.64985C21.15 4.79985 20.45 4.09985 19.6 4.09985ZM19.6 22.3999H10.7V5.09985H19.6C19.9 5.09985 20.1 5.29985 20.15 5.59985V21.8499C20.15 22.1499 19.9 22.3999 19.6 22.3999Z" fill="#4195B9"/>
<path d="M18.05 19.8999C18.35 19.8999 18.55 19.6499 18.55 19.3999C18.55 19.1499 18.3 18.8999 18.05 18.8999H12.85C12.55 18.8999 12.35 19.1499 12.35 19.3999C12.35 19.6499 12.6 19.8999 12.85 19.8999H18.05Z" fill="#4195B9"/>
<path d="M18.05 14.6998C18.15 14.6998 18.15 14.6998 18.2 14.6998C18.35 14.6998 18.45 14.5998 18.55 14.4998C18.65 14.3998 18.7 14.2498 18.65 14.1498C18.6 13.8498 18.4 13.6498 18.1 13.6998H12.85C12.65 13.6998 12.45 13.8998 12.45 14.1498C12.45 14.2998 12.5 14.3998 12.55 14.4998C12.65 14.5998 12.75 14.6498 12.9 14.6998H18.05Z" fill="#4195B9"/>
<path d="M18.05 17.2998C18.35 17.2998 18.55 17.0498 18.55 16.7998C18.55 16.5498 18.3 16.2998 18.05 16.2998H12.85C12.55 16.2998 12.35 16.5498 12.35 16.7998C12.35 17.0498 12.6 17.2998 12.85 17.2998H18.05Z" fill="#4195B9"/>
</g>
<defs>
<clipPath id="clip0_144_439">
<rect width="24" height="24" fill="white"/>
</clipPath>
</defs>
</svg>
