<svg width="24" height="24" viewBox="0 0 24 24" fill="none" xmlns="http://www.w3.org/2000/svg">
<path fill-rule="evenodd" clip-rule="evenodd" d="M21.3536 3.35355C21.5488 3.15829 21.5488 2.84171 21.3536 2.64645C21.1583 2.45118 20.8417 2.45118 20.6465 2.64645L18.2836 5.0093C16.6918 3.75486 14.3775 3.86187 12.909 5.33034L11.6414 6.59797C11.2988 6.94057 11.2988 7.49603 11.6414 7.83863L16.1365 12.3338C16.4791 12.6764 17.0346 12.6764 17.3772 12.3338L18.6448 11.0661C20.1047 9.60624 20.219 7.31026 18.9877 5.71946L21.3536 3.35355ZM17.9377 10.359L16.7568 11.5399L12.4353 7.2183L13.6161 6.03745C14.8095 4.84408 16.7443 4.84408 17.9377 6.03745C19.1311 7.23082 19.1311 9.16566 17.9377 10.359Z" fill="#699C69"/>
<path fill-rule="evenodd" clip-rule="evenodd" d="M10.4348 12.7292L11.8607 11.3033C12.3662 10.7978 12.3662 9.97832 11.8607 9.47285C11.3552 8.96738 10.5357 8.96738 10.0302 9.47285L8.60435 10.8987L8.2721 10.5665C7.73391 10.0283 6.86132 10.0283 6.32312 10.5665C5.88931 11.0003 5.80517 11.6514 6.07072 12.1695L5.28099 12.9592C3.81267 14.4275 3.70552 16.7415 4.95954 18.3333L2.64645 20.6464C2.45118 20.8416 2.45118 21.1582 2.64645 21.3535C2.84171 21.5488 3.15829 21.5488 3.35355 21.3535L5.6696 19.0374C7.26042 20.2692 9.55673 20.155 11.0168 18.695L11.8587 17.8531C12.3407 18.018 12.8958 17.9082 13.2803 17.5237C13.8185 16.9855 13.8185 16.1129 13.2803 15.5747L13.1702 15.4645L14.596 14.0387C15.1015 13.5332 15.1015 12.7137 14.596 12.2082C14.0906 11.7027 13.271 11.7027 12.7656 12.2082L11.3397 13.6341L10.4348 12.7292ZM9.72771 12.0221L11.1536 10.5962C11.2685 10.4813 11.2685 10.2949 11.1536 10.18C11.0386 10.065 10.8523 10.065 10.7373 10.18L9.31146 11.6058L9.72771 12.0221ZM12.0468 14.3412L12.4631 14.7574L13.8889 13.3316C14.0039 13.2166 14.0039 13.0303 13.8889 12.9153C13.774 12.8004 13.5876 12.8004 13.4727 12.9153L12.0468 14.3412ZM11.7414 16.5324L11.7478 16.5259L12.0385 16.8166C12.1861 16.9642 12.4256 16.9642 12.5732 16.8166C12.7209 16.6689 12.7209 16.4295 12.5732 16.2818L7.565 11.2736C7.41733 11.1259 7.1779 11.1259 7.03023 11.2736C6.88256 11.4212 6.88256 11.6607 7.03023 11.8083L7.38577 12.1639L7.37935 12.1703L11.7414 16.5324ZM10.3097 17.9879L11.0462 17.2514L6.72461 12.9298L5.98809 13.6663C4.79472 14.8597 4.79472 16.7945 5.98809 17.9879C7.18147 19.1813 9.11631 19.1813 10.3097 17.9879Z" fill="#4195B9"/>
</svg>
