<svg width="24" height="24" viewBox="0 0 24 24" fill="none" xmlns="http://www.w3.org/2000/svg">
<path d="M7.49995 7.30005V8.45005H7.14995C5.24995 8.50005 3.64995 9.85005 3.24995 11.75L3.19995 12H2.19995C1.09995 12 0.199951 12.9 0.199951 14V17.05C0.199951 18.15 1.09995 19.05 2.19995 19.05H3.19995L3.24995 19.35C3.64995 21.25 5.34995 22.65 7.29995 22.65H16.6C18.55 22.65 20.25 21.25 20.65 19.35L20.7 19.05H21.7C22.8 19.05 23.7 18.15 23.7 17.05V14C23.7 12.9 22.8 12 21.7 12H20.7L20.65 11.7C20.25 9.85005 18.65 8.50005 16.75 8.40005H16.4V7.25005C16.4 6.10005 15.45 5.15005 14.3 5.15005H12.45V2.50005L12.6 2.40005C12.9 2.20005 13.1 1.85005 13.1 1.45005C13.1 0.800049 12.6 0.300049 11.95 0.300049C11.35 0.300049 10.8 0.800049 10.8 1.45005C10.8 1.85005 11 2.20005 11.3 2.40005L11.45 2.50005V5.25005H9.59995C8.44995 5.20005 7.49995 6.15005 7.49995 7.30005ZM2.09995 18C1.54995 18 1.09995 17.55 1.09995 17V14C1.09995 13.45 1.54995 13 2.09995 13H3.09995L3.14995 18H2.09995ZM20.75 13H21.75C22.2999 13 22.75 13.45 22.75 14V17C22.75 17.55 22.2999 18 21.75 18H20.75V13ZM16.6 9.45005C18.3 9.45005 19.7 10.85 19.7 12.55V18.5C19.7 20.2001 18.3 21.6 16.6 21.6H7.29995C5.59995 21.6 4.19995 20.2001 4.19995 18.5V12.55C4.19995 10.85 5.59995 9.45005 7.29995 9.45005H16.6ZM14.35 6.20005C14.95 6.20005 15.45 6.70005 15.45 7.30005V8.45005H8.44995V7.30005C8.44995 6.70005 8.94995 6.20005 9.54995 6.20005H14.35Z" fill="#4195B9"/>
<path d="M8.75 12C7.65 12 6.75 12.9 6.75 14C6.75 15.1 7.65 16 8.75 16C9.85 16 10.75 15.1 10.75 14C10.75 12.9 9.85 12 8.75 12ZM8.75 15C8.2 15 7.75 14.55 7.75 14C7.75 13.45 8.2 13 8.75 13C9.3 13 9.75 13.45 9.75 14C9.75 14.55 9.3 15 8.75 15Z" fill="#699C69"/>
<path d="M15.1 12C14 12 13.1 12.9 13.1 14C13.1 15.1 14 16 15.1 16C16.2 16 17.1 15.1 17.1 14C17.1 12.9 16.2 12 15.1 12ZM15.1 15C14.55 15 14.1 14.55 14.1 14C14.1 13.45 14.55 13 15.1 13C15.65 13 16.1 13.45 16.1 14C16.1 14.55 15.65 15 15.1 15Z" fill="#699C69"/>
<path d="M14.1999 18.3001C14.0999 18.2001 13.9499 18.1501 13.8499 18.1501C13.6999 18.1501 13.5999 18.2001 13.4999 18.3001C13.0499 18.8001 12.6999 18.9501 11.9999 18.9501C11.2999 18.9501 10.8999 18.7501 10.4999 18.3501C10.3999 18.2501 10.2499 18.2001 10.1499 18.2001C9.99991 18.2001 9.89991 18.2501 9.74991 18.3001L9.69991 18.3501C9.54991 18.5501 9.49991 18.8501 9.69991 19.0501C10.2499 19.7001 10.9999 20.0501 11.9499 20.0501C12.9499 20.0501 13.5499 19.8001 14.1999 19.1001C14.2999 19.0001 14.3499 18.8501 14.3499 18.7501C14.3499 18.5501 14.2999 18.4001 14.1999 18.3001Z" fill="#699C69"/>
</svg>
