<svg width="24" height="25" viewBox="0 0 24 25" fill="none" xmlns="http://www.w3.org/2000/svg">
<g clip-path="url(#clip0_144_462)">
<path d="M12.9449 12.4522L13 12.4245V12.3629V1.58149C13 1.36058 12.8209 1.18149 12.6 1.18149H0.599988C0.379074 1.18149 0.199988 1.36058 0.199988 1.58149V24.3815C0.199988 24.6024 0.379074 24.7815 0.599988 24.7815H12.6C12.8209 24.7815 13 24.6024 13 24.3815L13.0002 18.7238V18.7102L12.9966 18.6971C12.6027 17.2726 12.4028 15.2838 12.4 12.7264L12.9449 12.4522ZM12.2 12.6648C12.2 12.6699 12.2 12.6749 12.2 12.68V20.3815H0.999988V4.38149H12.2V12.6648ZM0.999988 23.9315V21.1815H12.2V23.927L12.1985 23.9438C12.193 23.9655 12.1733 23.9815 12.15 23.9815H1.05446L1.03767 23.98C1.01602 23.9745 0.999988 23.9548 0.999988 23.9315ZM7.59999 22.5815C7.59999 22.0292 7.15227 21.5815 6.59999 21.5815C6.0477 21.5815 5.59999 22.0292 5.59999 22.5815C5.59999 23.1338 6.0477 23.5815 6.59999 23.5815C7.15227 23.5815 7.59999 23.1338 7.59999 22.5815ZM4.89999 12.3815C4.89999 11.9949 4.58659 11.6815 4.19999 11.6815C3.81339 11.6815 3.49999 11.9949 3.49999 12.3815C3.49999 12.7681 3.81339 13.0815 4.19999 13.0815C4.58659 13.0815 4.89999 12.7681 4.89999 12.3815ZM7.29999 12.3815C7.29999 11.9949 6.98659 11.6815 6.59999 11.6815C6.21339 11.6815 5.89999 11.9949 5.89999 12.3815C5.89999 12.7681 6.21339 13.0815 6.59999 13.0815C6.98659 13.0815 7.29999 12.7681 7.29999 12.3815ZM9.69999 12.3815C9.69999 11.9949 9.38659 11.6815 8.99999 11.6815C8.61339 11.6815 8.29999 11.9949 8.29999 12.3815C8.29999 12.7681 8.61339 13.0815 8.99999 13.0815C9.38659 13.0815 9.69999 12.7681 9.69999 12.3815ZM1.04999 1.98149H12.15C12.1776 1.98149 12.2 2.00388 12.2 2.03149V3.58149H0.999988V2.03597L1.00149 2.01917C1.00694 1.99752 1.02669 1.98149 1.04999 1.98149ZM7.89999 2.78149C7.89999 2.56058 7.7209 2.38149 7.49999 2.38149H5.69999C5.47907 2.38149 5.29999 2.56058 5.29999 2.78149C5.29999 3.00241 5.47907 3.18149 5.69999 3.18149H7.49999C7.7209 3.18149 7.89999 3.00241 7.89999 2.78149Z" fill="#4195B9" stroke="#4195B9" stroke-width="0.2"/>
<path fill-rule="evenodd" clip-rule="evenodd" d="M23.8966 12.2561L23.8999 12.3759C23.9773 15.1943 23.6343 17.6217 22.8634 19.6524C22.0982 21.6678 20.4515 23.3701 17.9568 24.7686C17.7943 24.8594 17.5943 24.8529 17.4382 24.7503C14.7217 22.9585 13.0258 21.2615 12.4131 19.6526C11.7997 18.0419 11.5002 15.6121 11.5007 12.3814L11.5008 12.2578L17.4764 9.26959C17.6171 9.1992 17.7828 9.1992 17.9236 9.26958L23.8966 12.2561ZM15.9971 17.2653L16.8929 18.076L18.3257 16.4088L19.4836 15.0614C19.6624 14.8525 19.9796 14.8225 20.1969 14.9873C20.4211 15.1574 20.4602 15.4754 20.2752 15.6918L17.3148 19.1381C17.1155 19.3708 16.7491 19.3783 16.5398 19.1569L14.9392 17.662L14.9334 17.6565L14.9281 17.6507C14.7364 17.4408 14.7639 17.1219 14.983 16.9444C15.1925 16.7747 15.5048 16.7928 15.691 16.9883L15.9971 17.2653ZM17.6726 23.8217C17.69 23.8336 17.7124 23.837 17.7326 23.8305L17.7521 23.821C19.9357 22.5561 21.3354 21.0416 21.9823 19.2854C22.6324 17.5206 22.942 15.4054 22.9049 12.935L22.9024 12.8062L17.7313 10.2206C17.7158 10.2129 17.6981 10.2112 17.6817 10.2157L17.6627 10.2236L12.5002 12.8049C12.5071 15.7246 12.7767 17.879 13.2963 19.2852C13.7922 20.6273 15.1805 22.1067 17.5189 23.7165L17.6726 23.8217Z" fill="#699C69"/>
</g>
<defs>
<clipPath id="clip0_144_462">
<rect width="24" height="24" fill="white" transform="translate(0 0.981445)"/>
</clipPath>
</defs>
</svg>
