<svg width="24" height="24" viewBox="0 0 24 24" fill="none" xmlns="http://www.w3.org/2000/svg">
<path fill-rule="evenodd" clip-rule="evenodd" d="M14.8531 14.6892L12.3523 12.1491C12.1575 11.9503 11.8415 11.9503 11.6467 12.1491L9.14677 14.6892C8.95108 14.8881 8.95108 15.2092 9.14677 15.4071C9.24416 15.5061 9.37186 15.5555 9.49957 15.5555C9.62819 15.5555 9.75682 15.5061 9.85421 15.4071L11.5006 13.7342V19.4931C11.5006 19.7722 11.7248 20 12.0004 20C12.2751 20 12.4993 19.7722 12.4993 19.4931V13.7342L14.1457 15.4071C14.244 15.5061 14.3717 15.5555 14.4994 15.5555C14.628 15.5555 14.7566 15.5061 14.854 15.4071C15.0488 15.2092 15.0488 14.8871 14.8531 14.6892Z" fill="#699C69"/>
<mask id="mask0_144_440" style="mask-type:alpha" maskUnits="userSpaceOnUse" x="2" y="4" width="20" height="15">
<path d="M2.5 4.75195H21.6733V18.4636H2.5V4.75195Z" fill="white"/>
</mask>
<g mask="url(#mask0_144_440)">
<path fill-rule="evenodd" clip-rule="evenodd" d="M17.7655 9.85729C17.516 7.00129 15.0636 4.75195 12.0865 4.75195C8.94363 4.75195 6.38648 7.25795 6.38648 10.338C6.38648 10.5928 6.40553 10.8485 6.44267 11.1042C6.38077 11.1014 6.31886 11.0996 6.25696 11.0996C4.18553 11.0996 2.49982 12.7516 2.49982 14.7816C2.49982 16.8116 4.18553 18.4636 6.25696 18.4636H9.49601C9.78267 18.4636 10.0141 18.2358 10.0141 17.9558C10.0141 17.6758 9.78172 17.4481 9.49601 17.4481H6.25696C4.75696 17.4481 3.53601 16.2525 3.53601 14.7816C3.53601 13.3106 4.75601 12.115 6.25696 12.115C6.49029 12.115 6.72934 12.1477 6.96839 12.2112C7.14839 12.2588 7.34077 12.2084 7.4722 12.0777C7.60363 11.948 7.65315 11.7585 7.60267 11.5821C7.48267 11.1677 7.42267 10.7486 7.42267 10.337C7.42267 7.81702 9.51506 5.76649 12.0865 5.76649C14.6579 5.76649 16.7512 7.81702 16.7512 10.337C16.7512 10.618 16.9827 10.8448 17.2693 10.8448C19.1255 10.8448 20.637 12.326 20.637 14.146C20.637 15.966 19.1265 17.4472 17.2693 17.4472H14.677C14.3903 17.4472 14.1589 17.6749 14.1589 17.9549C14.1589 18.2358 14.3912 18.4626 14.677 18.4626H17.2693C19.697 18.4626 21.6741 16.526 21.6741 14.146C21.6741 11.9312 19.9617 10.1 17.7655 9.85729Z" fill="#4195B9"/>
</g>
</svg>
