<svg width="360" height="197" viewBox="0 0 360 197" fill="none" xmlns="http://www.w3.org/2000/svg">
<g clip-path="url(#clip0_1046_21574)">
<path d="M260.336 0C224.602 78.2325 140.808 158.492 73.2923 178.975C5.62423 199.495 -19.7481 152.247 16.5687 73.6343L40.0156 66.5407C16.252 118.02 32.8713 148.953 77.2065 135.526C121.44 122.137 176.352 69.5808 199.888 18.2534L260.336 0Z" fill="white"/>
<path d="M50.6055 63.3232C38.4956 89.5696 46.9447 105.328 69.5302 98.5C92.1158 91.685 120.161 64.8813 132.182 38.6855L50.6055 63.3232Z" fill="white"/>
<path d="M235.774 183.358C233.558 183.358 231.113 182.965 229.808 182.598V197H219.345V149.65C222.423 148.282 228.263 147.117 234.47 147.117C247.821 147.117 255.079 153.894 255.079 165.256C255.079 176.087 248.416 183.358 235.774 183.358ZM234.622 154.02C232.721 154.02 230.733 154.324 229.821 154.73V175.935C230.644 176.289 232.873 176.593 234.71 176.593C241.208 176.593 244.603 171.932 244.603 165.269C244.591 158.163 241.044 154.02 234.622 154.02ZM279.02 183.763C267.024 183.763 260.336 175.897 260.336 165.396C260.336 154.92 267.024 147.117 279.02 147.117C291.041 147.117 297.717 154.907 297.717 165.396C297.717 175.897 291.041 183.763 279.02 183.763ZM279.02 154.071C273.51 154.071 270.774 158.302 270.774 165.345C270.774 172.363 273.51 176.53 279.02 176.53C284.581 176.53 287.304 172.363 287.304 165.345C287.304 158.315 284.581 154.071 279.02 154.071ZM315.033 183.763C309.839 183.763 304.734 182.598 301.644 181.217L305.026 174.453C307.065 175.542 311.701 176.72 314.678 176.72C318.478 176.72 320.885 175.225 320.885 172.869C320.885 170.285 318.212 169.158 314.513 168.043C309.282 166.434 302.72 164.344 302.72 157.441C302.72 151.259 308.243 147.104 317.87 147.104C323.19 147.104 327.472 148.194 330.613 149.638L327.396 155.705C325.661 154.768 321.936 153.678 319.188 153.678C315.527 153.678 313.348 155.249 313.348 157.327C313.348 160.012 316.059 161.051 319.656 162.165C325.091 163.85 331.779 165.801 331.779 172.895C331.792 179.469 326.028 183.763 315.033 183.763ZM352.806 183.497C344.813 183.497 341.039 179.786 341.039 172.426V154.527H335.731V147.89H341.039V140.074L351.312 137.553V147.89H359.064V154.527H351.312V171.856C351.312 174.719 353.402 175.694 356.087 175.694C357.176 175.694 358.355 175.428 359.064 175.162V182.534C357.835 183.041 355.302 183.497 352.806 183.497ZM212.669 165.256C212.669 176.631 205.398 183.434 192.047 183.434C185.815 183.434 180.001 182.268 176.948 180.875V133.563H187.373V147.953C188.678 147.56 191.135 147.18 193.314 147.18C205.981 147.168 212.669 154.464 212.669 165.256ZM202.156 165.256C202.156 158.606 198.786 153.932 192.262 153.932C190.413 153.932 188.222 154.248 187.36 154.578V175.795C188.285 176.201 190.274 176.53 192.174 176.53C198.647 176.53 202.156 172.363 202.156 165.256Z" fill="white"/>
</g>
<defs>
<clipPath id="clip0_1046_21574">
<rect width="359.064" height="197" fill="white"/>
</clipPath>
</defs>
</svg>
