<svg width="160" height="160" viewBox="0 0 160 160" fill="none" xmlns="http://www.w3.org/2000/svg">
<path fill-rule="evenodd" clip-rule="evenodd" d="M18.582 142.969L12.8721 138.066C11.6396 136.647 11.0233 132.631 11.0233 126.018C11.0233 119.405 11.0233 90.3027 11.0233 38.7104C10.7619 31.5793 12.6963 26.3227 16.8266 22.9406C20.9569 19.5586 33.8748 12.0235 55.5804 0.335448C57.7447 -0.111816 59.5415 -0.111816 60.9705 0.335448C62.3996 0.782712 64.6649 1.89516 67.7664 3.67278L18.582 142.969Z" fill="#377F9D"/>
<path fill-rule="evenodd" clip-rule="evenodd" d="M24.7558 143.414L67.0328 117.262C69.4651 115.419 70.6813 112.486 70.6813 108.465C70.6813 104.939 70.5821 75.8145 70.6813 47.7416C70.7038 41.387 70.7858 33.2339 70.8404 26.0175C70.8771 21.1774 71.1793 10.9447 70.8404 8.42322C70.5745 6.44459 69.3657 3.95779 68.0328 3.11554C65.641 1.60413 62.3926 2.77608 61.5163 3.11554C57.5604 4.64793 45.3069 11.6787 24.7558 24.2078C19.3587 27.2945 16.6602 31.4798 16.6602 36.7636C16.6602 42.0475 16.6602 75.1889 16.6602 136.188C17.0288 140.223 17.9904 142.631 19.5449 143.414C21.0993 144.196 22.8363 144.196 24.7558 143.414Z" fill="#4195B9"/>
<path fill-rule="evenodd" clip-rule="evenodd" d="M28.6154 120.02L63.9837 100.119C66.0186 98.7163 67.036 96.4846 67.036 93.4242C67.036 90.7413 66.953 68.5784 67.036 47.2156C67.0548 42.38 67.1234 36.1757 67.1691 30.6842C67.1998 27.0011 67.4526 19.2143 67.1691 17.2955C66.9467 15.7898 66.3451 12.5348 65.23 11.8939C63.2291 10.7437 59.8893 11.6356 59.1562 11.8939C55.8468 13.06 45.6665 18.8644 28.6154 29.3071C24.1003 32.8972 21.8428 36.7026 21.8428 40.7235C21.8428 44.7444 21.8428 69.3435 21.8428 114.521C22.1512 117.591 22.9556 119.424 24.2561 120.02C25.5565 120.615 27.0096 120.615 28.6154 120.02Z" fill="#F5F5F5"/>
<path fill-rule="evenodd" clip-rule="evenodd" d="M30.6801 58.4378C35.6247 60.0445 41.3263 56.1359 43.415 49.7078C45.5036 43.2797 43.1883 36.7663 38.2436 35.1597C33.2989 33.5531 27.5973 37.4616 25.5087 43.8897C23.4201 50.3178 25.7354 56.8312 30.6801 58.4378Z" fill="#C8DEE7"/>
<path fill-rule="evenodd" clip-rule="evenodd" d="M45.7101 124.618C48.1825 125.421 51.0333 123.467 52.0776 120.253C53.1219 117.039 51.9642 113.782 49.4919 112.979C47.0196 112.175 44.1688 114.13 43.1245 117.344C42.0802 120.558 43.2378 123.815 45.7101 124.618Z" fill="#6DAEC9"/>
<path fill-rule="evenodd" clip-rule="evenodd" d="M26.2109 69.9967V74.581L57.649 55.4776V50.5874L26.2109 69.9967Z" fill="#C8DEE7"/>
<path fill-rule="evenodd" clip-rule="evenodd" d="M26.2109 78.9992V83.5835L57.649 64.48V59.5898L26.2109 78.9992Z" fill="#C8DEE7"/>
<path fill-rule="evenodd" clip-rule="evenodd" d="M26.2109 88.0011V92.5854L57.649 73.482V68.5918L26.2109 88.0011Z" fill="#C8DEE7"/>
<path d="M32.0246 97.0684L33.724 97.7159L33.4324 98.4827L32.5425 101.017L31.6884 103.659L30.5478 107.457L30.0614 109.249C29.5346 110.593 28.3777 110.623 27.578 109.434L26.6 107.705L25.5049 105.685L27.1032 104.822L28.6119 107.602L29.0947 105.927L30.1166 102.586L30.9149 100.146C31.1889 99.3374 31.4676 98.5458 31.7418 97.8103L32.0246 97.0684Z" fill="#C8DEE7"/>
<path fill-rule="evenodd" clip-rule="evenodd" d="M62.2441 33.9933V84.0008L113.001 51.8005V1.79297L62.2441 33.9933Z" fill="#4195B9"/>
<path fill-rule="evenodd" clip-rule="evenodd" d="M113.001 1.79179L62.2442 34.3648V83.9996L59.001 80.7749V31.4152L108.432 0L113.001 1.79179Z" fill="#377F9D"/>
<path d="M108.395 10.986C108.731 10.4514 109.4 10.3158 109.89 10.6832C110.281 10.977 110.439 11.5037 110.314 11.9763L110.167 12.3162L91.6958 41.6756L90.6072 42.1639L68.5253 37.5402C67.9421 37.418 67.56 36.8026 67.6718 36.1656C67.765 35.6348 68.1718 35.2565 68.6423 35.2158L68.9303 35.2334L90.3198 39.7092L108.395 10.986Z" fill="#FCFCFC"/>
<path fill-rule="evenodd" clip-rule="evenodd" d="M115.096 112.035L149 90.9549C149 77.5067 149 70.1234 149 68.8049C149 66.8272 146.9 53.999 133.927 53.999C131.951 53.999 128.376 55.8994 125.825 57.3878C121.643 59.8276 113.104 64.799 100.208 72.302C99.4514 72.8308 99.0093 73.1334 98.8814 73.2098C97.8559 73.8226 96.327 75.2694 95.7609 77.5068C94.6569 81.8705 95.0794 89.3058 95.0794 99.876C95.0794 100.771 96.153 101.089 97.3551 101.842C98.7407 102.711 100.339 103.753 101.35 104.329C103.809 105.732 108.391 108.301 115.096 112.035Z" fill="#6DAEC9"/>
<path fill-rule="evenodd" clip-rule="evenodd" d="M98.3236 100.354L113.544 109.157V93.7876C113.004 84.2117 110.205 78.4168 105.144 76.4029C97.5529 73.3821 96.9523 81.4857 96.8031 82.1708C96.7037 82.6276 96.7037 88.3573 96.8031 99.3602L98.3236 100.354Z" fill="#377F9D"/>
<path fill-rule="evenodd" clip-rule="evenodd" d="M119.518 89.5312L119.716 105.541C119.031 105.553 118.504 105.237 118.135 104.593C117.891 104.168 117.891 103.404 118.417 102.706C118.488 102.612 118.627 102.512 118.832 102.406L118.848 89.1382" fill="#377F9D"/>
<path fill-rule="evenodd" clip-rule="evenodd" d="M119.519 102.665C119.187 103.075 118.987 103.369 118.917 103.545C118.431 104.768 118.765 105.54 119.519 105.54C120.238 105.54 120.796 104.891 121.078 104.36C121.131 104.259 121.273 104.036 121.345 103.649C121.362 103.56 121.362 103.33 121.345 102.96C121.276 102.386 121 102.099 120.517 102.099C120.517 102.099 120.517 101.33 120.517 100.594C120.517 99.5422 120.517 96.683 120.517 92.0161L124.715 89.531V86.7412L119.519 89.531V102.665Z" fill="#C8DEE7"/>
<path fill-rule="evenodd" clip-rule="evenodd" d="M124.713 86.7421L123.989 86.4048L118.848 89.1388L119.517 89.5318L124.713 86.7421Z" fill="#F5F5F5"/>
<path fill-rule="evenodd" clip-rule="evenodd" d="M120.767 108.509V143.998H125.084V105.737L120.767 108.509Z" fill="#9DC9DB"/>
<path fill-rule="evenodd" clip-rule="evenodd" d="M118.244 110.086V143.999H120.767V108.509L118.244 110.086Z" fill="#377F9D"/>
</svg>
