<svg width="24" height="24" viewBox="0 0 24 24" fill="none" xmlns="http://www.w3.org/2000/svg">
<path fill-rule="evenodd" clip-rule="evenodd" d="M21.5 2C21.7761 2 22 2.22386 22 2.5V6.5C22 6.77614 21.7761 7 21.5 7H2.5C2.22386 7 2 6.77614 2 6.5V2.5C2 2.22386 2.22386 2 2.5 2H21.5ZM21 3H3V6H21V3Z" fill="#4195B9"/>
<path d="M6 5V21H18V5H6Z" fill="white"/>
<path fill-rule="evenodd" clip-rule="evenodd" d="M19.5 4C19.7761 4 20 4.22386 20 4.5C20 4.77614 19.7761 5 19.5 5H19V21.5C19 21.7761 18.7761 22 18.5 22H5.5C5.22386 22 5 21.7761 5 21.5V5H4.5C4.22386 5 4 4.77614 4 4.5C4 4.22386 4.22386 4 4.5 4H19.5ZM6 5V21H18V5H6Z" fill="#4195B9"/>
<path fill-rule="evenodd" clip-rule="evenodd" d="M12.75 7C14.6908 7 16.25 8.6675 16.25 10.7083V11.1667C16.25 11.4428 16.0261 11.6667 15.75 11.6667C15.4739 11.6667 15.25 11.4428 15.25 11.1667V10.7083C15.25 9.20534 14.1229 8 12.75 8C11.3771 8 10.25 9.20534 10.25 10.7083V11.5H12.25C12.5261 11.5 12.75 11.7239 12.75 12C12.75 12.2761 12.5261 12.5 12.25 12.5H10.25V13.5H12.25C12.5261 13.5 12.75 13.7239 12.75 14C12.75 14.2761 12.5261 14.5 12.25 14.5H10.25V15.2917C10.25 16.7369 11.292 17.9068 12.5927 17.9947L12.75 18C14.1229 18 15.25 16.7947 15.25 15.2917V14.8333C15.25 14.5572 15.4739 14.3333 15.75 14.3333C16.0261 14.3333 16.25 14.5572 16.25 14.8333V15.2917C16.25 17.3325 14.6908 19 12.75 19C10.8092 19 9.25 17.3325 9.25 15.2917V14.5H7.75C7.47386 14.5 7.25 14.2761 7.25 14C7.25 13.7239 7.47386 13.5 7.75 13.5H9.25V12.5H7.75C7.47386 12.5 7.25 12.2761 7.25 12C7.25 11.7239 7.47386 11.5 7.75 11.5H9.25V10.7083C9.25 8.73333 10.7102 7.10797 12.5634 7.00516L12.75 7Z" fill="#699C69"/>
</svg>
