<svg width="24" height="24" viewBox="0 0 24 24" fill="none" xmlns="http://www.w3.org/2000/svg">
<path fill-rule="evenodd" clip-rule="evenodd" d="M2 13.5C2 13.2239 2.22386 13 2.5 13H7.5C7.77614 13 8 13.2239 8 13.5C8 13.7761 7.77614 14 7.5 14H2.5C2.22386 14 2 13.7761 2 13.5Z" fill="#4195B9"/>
<path fill-rule="evenodd" clip-rule="evenodd" d="M0 4C0 3.44772 0.447715 3 1 3H19C19.5523 3 20 3.44771 20 4V9.5C20 9.77614 19.7761 10 19.5 10C19.2239 10 19 9.77614 19 9.5V8H1V15H12C12.2761 15 12.5 15.2239 12.5 15.5C12.5 15.7761 12.2761 16 12 16H1C0.447715 16 0 15.5523 0 15V4ZM1 7H19V4H1V7Z" fill="#4195B9"/>
<path fill-rule="evenodd" clip-rule="evenodd" d="M2 11.5C2 11.2239 2.22386 11 2.5 11H7.5C7.77614 11 8 11.2239 8 11.5C8 11.7761 7.77614 12 7.5 12H2.5C2.22386 12 2 11.7761 2 11.5Z" fill="#4195B9"/>
<path fill-rule="evenodd" clip-rule="evenodd" d="M23 15C23 12.2386 20.7614 10 18 10C15.2386 10 13 12.2386 13 15C13 17.7614 15.2386 20 18 20C20.7614 20 23 17.7614 23 15ZM24 15C24 11.6863 21.3137 9 18 9C14.6863 9 12 11.6863 12 15C12 18.3137 14.6863 21 18 21C21.3137 21 24 18.3137 24 15Z" fill="#699C69"/>
<path fill-rule="evenodd" clip-rule="evenodd" d="M15.6464 13.3536L19.6464 17.3536C19.8417 17.5488 20.1583 17.5488 20.3536 17.3536C20.5488 17.1583 20.5488 16.8417 20.3536 16.6464L16.3536 12.6464C16.1583 12.4512 15.8417 12.4512 15.6464 12.6464C15.4512 12.8417 15.4512 13.1583 15.6464 13.3536Z" fill="#699C69"/>
<path fill-rule="evenodd" clip-rule="evenodd" d="M16.3536 17.3536L20.3536 13.3536C20.5488 13.1583 20.5488 12.8417 20.3536 12.6464C20.1583 12.4512 19.8417 12.4512 19.6464 12.6464L15.6464 16.6464C15.4512 16.8417 15.4512 17.1583 15.6464 17.3536C15.8417 17.5488 16.1583 17.5488 16.3536 17.3536Z" fill="#699C69"/>
</svg>
