<svg width="24" height="24" viewBox="0 0 24 24" fill="none" xmlns="http://www.w3.org/2000/svg">
<path fill-rule="evenodd" clip-rule="evenodd" d="M3.14494 6.13501C2.54847 6.13501 2.06494 6.61854 2.06494 7.21501V17.075C2.06494 17.6715 2.54847 18.155 3.14494 18.155H20.5299C21.1264 18.155 21.6099 17.6715 21.6099 17.075V7.21501C21.6099 6.61854 21.1264 6.13501 20.5299 6.13501H3.14494ZM1.06494 7.21501C1.06494 6.06626 1.99619 5.13501 3.14494 5.13501H20.5299C21.6787 5.13501 22.6099 6.06626 22.6099 7.21501V17.075C22.6099 18.2238 21.6787 19.155 20.5299 19.155H3.14494C1.99619 19.155 1.06494 18.2238 1.06494 17.075V7.21501Z" fill="#4195B9"/>
<path fill-rule="evenodd" clip-rule="evenodd" d="M16.2699 14.2749C16.2699 13.9988 16.4938 13.7749 16.7699 13.7749H18.8449C19.121 13.7749 19.3449 13.9988 19.3449 14.2749C19.3449 14.551 19.121 14.7749 18.8449 14.7749H16.7699C16.4938 14.7749 16.2699 14.551 16.2699 14.2749Z" fill="#4195B9"/>
<path fill-rule="evenodd" clip-rule="evenodd" d="M12.25 14.2749C12.25 13.9988 12.4739 13.7749 12.75 13.7749H14.83C15.1061 13.7749 15.33 13.9988 15.33 14.2749C15.33 14.551 15.1061 14.7749 14.83 14.7749H12.75C12.4739 14.7749 12.25 14.551 12.25 14.2749Z" fill="#4195B9"/>
<path fill-rule="evenodd" clip-rule="evenodd" d="M8.22998 14.2749C8.22998 13.9988 8.45384 13.7749 8.72998 13.7749H10.81C11.0861 13.7749 11.31 13.9988 11.31 14.2749C11.31 14.551 11.0861 14.7749 10.81 14.7749H8.72998C8.45384 14.7749 8.22998 14.551 8.22998 14.2749Z" fill="#4195B9"/>
<path fill-rule="evenodd" clip-rule="evenodd" d="M4.21497 14.2749C4.21497 13.9988 4.43882 13.7749 4.71497 13.7749H6.78997C7.06611 13.7749 7.28997 13.9988 7.28997 14.2749C7.28997 14.551 7.06611 14.7749 6.78997 14.7749H4.71497C4.43882 14.7749 4.21497 14.551 4.21497 14.2749Z" fill="#4195B9"/>
<path fill-rule="evenodd" clip-rule="evenodd" d="M4.21497 16.105C4.21497 15.8288 4.43882 15.605 4.71497 15.605H10.865C11.1411 15.605 11.365 15.8288 11.365 16.105C11.365 16.3811 11.1411 16.605 10.865 16.605H4.71497C4.43882 16.605 4.21497 16.3811 4.21497 16.105Z" fill="#4195B9"/>
<path d="M7.30997 8.30002C7.0256 8.8623 6.55579 9.30915 5.97997 9.56502C5.47997 9.73002 5.31497 9.36502 5.57997 8.83002L7.30997 8.30002ZM9.96997 7.52002C9.20498 9.18002 7.46997 10.875 6.04497 11.345C4.61997 11.815 4.08497 10.775 4.84997 9.11502L5.34997 8.95002C4.84997 10.045 5.17997 10.71 6.14497 10.41C7.27748 9.92101 8.18925 9.03062 8.70497 7.91002L9.96997 7.52002Z" fill="#699C69"/>
<path fill-rule="evenodd" clip-rule="evenodd" d="M16.001 8.79125C15.6853 8.42454 15.1764 8.29003 14.7207 8.45283C14.265 8.61563 13.9566 9.04215 13.9447 9.5259C13.9328 10.0097 14.22 10.4508 14.6671 10.6358C15.1143 10.8207 15.6291 10.7114 15.9625 10.3606C16.1527 10.1604 16.4692 10.1524 16.6693 10.3426C16.8695 10.5328 16.8776 10.8493 16.6874 11.0495C16.0691 11.7 15.1142 11.9029 14.2849 11.5598C13.4555 11.2168 12.923 10.3986 12.945 9.50136C12.967 8.60415 13.5391 7.81307 14.3843 7.51112C15.2294 7.20917 16.1733 7.45866 16.7588 8.13879C16.939 8.34806 16.9154 8.66376 16.7061 8.84393C16.4969 9.0241 16.1812 9.00052 16.001 8.79125Z" fill="#4195B9"/>
<path fill-rule="evenodd" clip-rule="evenodd" d="M17.76 8.38501C17.1138 8.38501 16.59 8.90884 16.59 9.55501C16.59 10.2012 17.1138 10.725 17.76 10.725C18.4061 10.725 18.93 10.2012 18.93 9.55501C18.93 8.90884 18.4061 8.38501 17.76 8.38501ZM15.59 9.55501C15.59 8.35655 16.5615 7.38501 17.76 7.38501C18.9584 7.38501 19.93 8.35655 19.93 9.55501C19.93 10.7535 18.9584 11.725 17.76 11.725C16.5615 11.725 15.59 10.7535 15.59 9.55501Z" fill="#4195B9"/>
</svg>
