<svg width="24" height="24" viewBox="0 0 24 24" fill="none" xmlns="http://www.w3.org/2000/svg">
<path fill-rule="evenodd" clip-rule="evenodd" d="M20.5 13H17.5C17.2239 13 17 13.2239 17 13.5V16.5C17 16.7761 17.2239 17 17.5 17H20.5C20.7761 17 21 16.7761 21 16.5V13.5C21 13.2239 20.7761 13 20.5 13ZM20 14V16H18V14H20ZM8.5 13C8.77614 13 9 13.2239 9 13.5C9 13.7761 8.77614 14 8.5 14H3.5C3.22386 14 3 13.7761 3 13.5C3 13.2239 3.22386 13 3.5 13H8.5ZM8.5 16C8.77614 16 9 16.2239 9 16.5C9 16.7761 8.77614 17 8.5 17H3.5C3.22386 17 3 16.7761 3 16.5C3 16.2239 3.22386 16 3.5 16H8.5Z" fill="#699C69"/>
<path fill-rule="evenodd" clip-rule="evenodd" d="M24 19C24 19.5523 23.5523 20 23 20H1C0.447715 20 0 19.5523 0 19V5C0 4.44772 0.447715 4 1 4H23C23.5523 4 24 4.44772 24 5V19ZM23 9H1V19H23V9ZM23 5H1V8H23V5Z" fill="#4195B9"/>
</svg>
