<svg width="24" height="24" viewBox="0 0 24 24" fill="none" xmlns="http://www.w3.org/2000/svg">
<path d="M22.6 6.02017H8.15002C7.85002 6.02017 7.65002 6.27017 7.65002 6.52017C7.65002 6.82017 7.90002 7.02017 8.15002 7.02017H21.85L20.9 10.7202H9.40002C9.10002 10.7202 8.90002 10.9702 8.90002 11.2202C8.90002 11.4702 9.15002 11.7202 9.40002 11.7202H20.6L19.8 14.7202H8.20002L4.70002 3.77017C4.60002 3.57017 4.45002 3.42017 4.20002 3.42017H1.40002C1.10002 3.42017 0.900024 3.67017 0.900024 3.92017C0.900024 4.17017 1.15002 4.42017 1.40002 4.42017H3.85002L7.35002 15.3702C7.45002 15.5702 7.60002 15.7202 7.85002 15.7202H20.25C20.5 15.7202 20.7 15.5702 20.75 15.3702L23.1 6.62017C23.1 6.57017 23.15 6.52017 23.15 6.47017C23.15 6.27017 22.9 6.02017 22.6 6.02017Z" fill="#4195B9"/>
<path d="M9.45 16.8701C8.35 16.8701 7.5 17.7701 7.5 18.9201C7.5 20.0701 8.4 20.9701 9.45 20.9701C10.5 20.9701 11.4 20.0701 11.4 18.9201C11.4 17.7701 10.5 16.8701 9.45 16.8701ZM9.45 19.9701C8.95 19.9701 8.5 19.5201 8.5 18.9701C8.5 18.4201 8.9 17.9701 9.45 17.9701C9.95 17.9701 10.4 18.4201 10.4 18.9701C10.35 19.4701 9.95 19.9701 9.45 19.9701Z" fill="#699C69"/>
<path d="M18.5 16.8701C17.4 16.8701 16.55 17.7701 16.55 18.9201C16.55 20.0701 17.45 20.9701 18.5 20.9701C19.6 20.9701 20.45 20.0701 20.45 18.9201C20.45 17.7701 19.6 16.8701 18.5 16.8701ZM18.5 19.9701C18 19.9701 17.55 19.5201 17.55 18.9701C17.55 18.4201 17.95 17.9701 18.5 17.9701C19.05 17.9701 19.45 18.4201 19.45 18.9701C19.45 19.4701 19 19.9701 18.5 19.9701Z" fill="#699C69"/>
</svg>
