<svg width="24" height="24" viewBox="0 0 24 24" fill="none" xmlns="http://www.w3.org/2000/svg">
<path fill-rule="evenodd" clip-rule="evenodd" d="M17.5 15C17.5 14.7239 17.2761 14.5 17 14.5C16.7239 14.5 16.5 14.7239 16.5 15V18.7197C16.5 19.0639 16.6784 19.3987 16.996 19.5778C17.5508 19.8907 18.0571 20.0807 18.5788 20.0783C19.108 20.0759 19.5775 19.8761 20.0579 19.5651C20.3463 19.3784 20.5 19.061 20.5 18.7417V17.207L21.1464 17.8535C21.3417 18.0487 21.6583 18.0487 21.8536 17.8535C22.0488 17.6582 22.0488 17.3416 21.8536 17.1464L20.7071 15.9999C20.3166 15.6094 19.6834 15.6094 19.2929 15.9999L18.1464 17.1464C17.9512 17.3416 17.9512 17.6582 18.1464 17.8535C18.3417 18.0487 18.6583 18.0487 18.8536 17.8535L19.5 17.207V18.735C19.1092 18.9859 18.8329 19.0771 18.5742 19.0783C18.307 19.0796 17.9838 18.9853 17.5 18.7139V15Z" fill="#699C69"/>
<path d="M18.2996 8.0498H16.3996C16.2496 3.3498 13.7496 0.549805 9.64961 0.549805C5.59961 0.549805 2.94961 3.3998 2.79961 8.0498H0.899609C0.499609 8.0498 0.0996094 8.4498 0.0996094 8.8498V20.8498C0.0996094 21.2498 0.499609 21.6498 0.899609 21.6498H11.9996C12.2996 21.6498 12.7996 21.6498 12.7996 21.1498C12.7996 20.6498 12.2496 20.6498 12.0496 20.6498H1.09961V9.0498H18.0996V10.3498C18.0996 10.6498 18.0996 11.1498 18.5996 11.1498C19.0996 11.1498 19.0996 10.6498 19.0996 10.3998V8.8498C19.0996 8.4498 18.6996 8.0498 18.2996 8.0498ZM15.3996 8.0498H3.79961C3.99961 4.1998 6.34961 1.5498 9.64961 1.5498C12.8496 1.5498 15.1996 4.1998 15.3996 8.0498Z" fill="#4195B9"/>
<path d="M7.29956 14.8498C7.29956 16.2998 8.44956 17.4498 9.89956 17.4498C11.3496 17.4498 12.4996 16.2998 12.4996 14.8498C12.4996 13.3998 11.3496 12.2498 9.89956 12.2498C8.44956 12.2498 7.29956 13.3998 7.29956 14.8498ZM8.29956 14.8498C8.29956 13.9498 8.99956 13.2498 9.89956 13.2498C10.7996 13.2498 11.4996 13.9498 11.4996 14.8498C11.4996 15.7498 10.7996 16.4498 9.89956 16.4498C8.99956 16.4498 8.29956 15.6998 8.29956 14.8498Z" fill="#4195B9"/>
<path d="M18.8994 11.9502C16.1494 11.9502 13.8994 14.2002 13.8994 16.9502C13.8994 19.7002 16.1494 21.9502 18.8994 21.9502C21.6494 21.9502 23.8994 19.7002 23.8994 16.9502C23.8994 14.2002 21.6494 11.9502 18.8994 11.9502ZM22.8994 16.9502C22.8994 19.1502 21.0994 20.9502 18.8994 20.9502C16.6994 20.9502 14.8994 19.1502 14.8994 16.9502C14.8994 14.7502 16.6994 12.9502 18.8994 12.9502C21.0994 12.9502 22.8994 14.7502 22.8994 16.9502Z" fill="#699C69"/>
</svg>
