<svg width="24" height="24" viewBox="0 0 24 24" fill="none" xmlns="http://www.w3.org/2000/svg">
<path d="M4.54993 5.2002C4.84993 5.2002 5.04993 4.9502 5.04993 4.7002C5.04993 4.4002 4.79993 4.2002 4.54993 4.2002C4.29993 4.2002 4.04993 4.4502 4.04993 4.7002C4.04993 4.9502 4.24993 5.2002 4.54993 5.2002Z" fill="#4195B9"/>
<path d="M3 5.2002C3.3 5.2002 3.5 4.9502 3.5 4.7002C3.5 4.4002 3.25 4.2002 3 4.2002C2.75 4.2002 2.5 4.4502 2.5 4.7002C2.5 4.9502 2.75 5.2002 3 5.2002Z" fill="#4195B9"/>
<path d="M6.10003 5.2002C6.40003 5.2002 6.60003 4.9502 6.60003 4.7002C6.60003 4.4002 6.35003 4.2002 6.10003 4.2002C5.85003 4.2002 5.60003 4.4502 5.60003 4.7002C5.55003 4.9502 5.80003 5.2002 6.10003 5.2002Z" fill="#4195B9"/>
<path d="M22.35 1.8501H1.64998C0.949976 1.8501 0.349976 2.4501 0.349976 3.1501V20.8001C0.349976 21.5001 0.949976 22.1001 1.64998 22.1001H22.4C23.1 22.1001 23.7 21.5001 23.7 20.8001V3.2001C23.7 2.4501 23.1 1.8501 22.35 1.8501ZM22.65 21.1501H1.29998V7.4501H22.65V21.1501ZM22.65 6.4501H1.29998V2.8501H1.59998H22.65V6.4501Z" fill="#4195B9"/>
<path d="M12 5.2002H20.35C20.65 5.2002 20.85 4.9502 20.85 4.7002C20.85 4.4502 20.6 4.2002 20.35 4.2002H12C11.7 4.2002 11.5 4.4502 11.5 4.7002C11.5 4.9502 11.7 5.2002 12 5.2002Z" fill="#4195B9"/>
<path d="M15.0499 13.0001V12.4001C15.0499 10.4501 13.4499 8.8501 11.4499 8.8501C9.49993 8.8501 7.84993 10.4501 7.84993 12.4501V13.0001L7.74993 13.1001C7.29993 13.5001 7.04993 14.1001 7.04993 14.7001V17.5501C7.04993 18.7001 7.99993 19.7001 9.19993 19.7001H13.6999C14.8999 19.7001 15.8499 18.7501 15.8499 17.5501V14.7001C15.8499 14.1001 15.5499 13.5001 15.0999 13.1001L15.0499 13.0001ZM8.94993 12.2501C9.04993 10.9501 10.1499 9.9001 11.4999 9.9001C12.8499 9.9001 13.9499 10.9001 14.0499 12.2501L14.0999 12.6001H8.89993L8.94993 12.2501ZM14.8999 17.5501C14.8999 18.2001 14.3999 18.7001 13.7999 18.7501H9.29993C8.64993 18.7501 8.09993 18.2001 8.09993 17.5501V14.7001C8.09993 14.0501 8.64993 13.5001 9.29993 13.5001H13.7999C14.4499 13.5501 14.9499 14.0501 14.9499 14.7001V17.5501H14.8999Z" fill="#699C69"/>
<path d="M11.5 14.7C10.95 14.7 10.55 15.15 10.5 15.65C10.5 16 10.7 16.35 11 16.5V17.1C11 17.35 11.2 17.6 11.5 17.6C11.75 17.6 12 17.4 12 17.1V16.5C12.45 16.25 12.65 15.65 12.4 15.2C12.2 14.9 11.85 14.65 11.5 14.7Z" fill="#4195B9"/>
</svg>
