<svg width="24" height="24" viewBox="0 0 24 24" fill="none" xmlns="http://www.w3.org/2000/svg">
<path d="M12.375 4.5C14.801 4.5 16.75 6.58438 16.75 9.13542V9.70833C16.75 10.0535 16.4702 10.3333 16.125 10.3333C15.7798 10.3333 15.5 10.0535 15.5 9.70833V9.13542C15.5 7.25667 14.0912 5.75 12.375 5.75C10.6588 5.75 9.25 7.25667 9.25 9.13542L9.24932 10.125H11.9915C12.2033 10.125 12.375 10.3011 12.375 10.5184V10.9816C12.375 11.1989 12.2033 11.375 11.9915 11.375L9.24932 11.3743V12.6244L11.9915 12.625C12.2033 12.625 12.375 12.8011 12.375 13.0184V13.4816C12.375 13.6989 12.2033 13.875 11.9915 13.875L9.24932 13.8745L9.25 14.8646C9.25 16.6864 10.5747 18.1583 12.2199 18.2459L12.375 18.25C14.0912 18.25 15.5 16.7433 15.5 14.8646V14.2917C15.5 13.9465 15.7798 13.6667 16.125 13.6667C16.4702 13.6667 16.75 13.9465 16.75 14.2917V14.8646C16.75 17.4156 14.801 19.5 12.375 19.5C9.94903 19.5 8 17.4156 8 14.8646L7.9998 13.8745L5.88352 13.875C5.67171 13.875 5.5 13.6989 5.5 13.4816V13.0184C5.5 12.8011 5.67171 12.625 5.88352 12.625L7.9998 12.6244V11.3743L5.88352 11.375C5.67171 11.375 5.5 11.1989 5.5 10.9816V10.5184C5.5 10.3011 5.67171 10.125 5.88352 10.125H7.9998L8 9.13542C8 6.6437 9.85943 4.5972 12.2065 4.50336L12.375 4.5Z" fill="#699C69"/>
<path fill-rule="evenodd" clip-rule="evenodd" d="M2.5 2C2.5 1.72386 2.72386 1.5 3 1.5H20.5C20.7761 1.5 21 1.72386 21 2V22C21 22.2761 20.7761 22.5 20.5 22.5H3C2.72386 22.5 2.5 22.2761 2.5 22V2ZM3.5 2.5V21.5H20V2.5H3.5Z" fill="#4195B9"/>
</svg>
