<svg width="24" height="24" viewBox="0 0 24 24" fill="none" xmlns="http://www.w3.org/2000/svg">
<path fill-rule="evenodd" clip-rule="evenodd" d="M18.3132 8.53081H5.18684C5.41316 4.15166 8.07237 1.13744 11.8066 1.13744C15.4276 1.13744 18.0868 4.15166 18.3132 8.53081ZM22.5 23.1424V9.44076C22.5 8.94028 22.0926 8.53081 21.5947 8.53081H19.4447C19.275 3.18483 16.4461 0 11.8066 0C7.22368 0 4.225 3.24171 4.05526 8.53081H1.90526C1.40737 8.53081 1 8.94028 1 9.44076V23.09C1 23.5905 1.40737 24 1.90526 24H21.6468C22.1181 24 22.5 23.6161 22.5 23.1424ZM21.3724 22.8626H2.13158V9.66825H21.3684V22.8626H21.3724Z" fill="#4195B9"/>
<path fill-rule="evenodd" clip-rule="evenodd" d="M10.1538 16.5C10.1538 15.4615 10.9615 14.6538 12 14.6538C13.0385 14.6538 13.8462 15.4615 13.8462 16.5C13.8462 17.5385 13.0385 18.3462 12 18.3462C10.9615 18.3462 10.1538 17.4808 10.1538 16.5ZM9 16.5C9 18.1731 10.3269 19.5 12 19.5C13.6731 19.5 15 18.1731 15 16.5C15 14.8269 13.6731 13.5 12 13.5C10.3269 13.5 9 14.8269 9 16.5Z" fill="#699C69"/>
</svg>
