<svg width="24" height="24" viewBox="0 0 24 24" fill="none" xmlns="http://www.w3.org/2000/svg">
<path fill-rule="evenodd" clip-rule="evenodd" d="M12.5 6C14.4408 6 16 7.6675 16 9.70833V10.1667C16 10.4428 15.7761 10.6667 15.5 10.6667C15.2239 10.6667 15 10.4428 15 10.1667V9.70833C15 8.20534 13.8729 7 12.5 7C11.1271 7 10 8.20534 10 9.70833V10.5H12C12.2761 10.5 12.5 10.7239 12.5 11C12.5 11.2761 12.2761 11.5 12 11.5H10V12.5H12C12.2761 12.5 12.5 12.7239 12.5 13C12.5 13.2761 12.2761 13.5 12 13.5H10V14.2917C10 15.7369 11.042 16.9068 12.3427 16.9947L12.5 17C13.8729 17 15 15.7947 15 14.2917V13.8333C15 13.5572 15.2239 13.3333 15.5 13.3333C15.7761 13.3333 16 13.5572 16 13.8333V14.2917C16 16.3325 14.4408 18 12.5 18C10.5592 18 9 16.3325 9 14.2917V13.5H7.5C7.22386 13.5 7 13.2761 7 13C7 12.7239 7.22386 12.5 7.5 12.5H9V11.5H7.5C7.22386 11.5 7 11.2761 7 11C7 10.7239 7.22386 10.5 7.5 10.5H9V9.70833C9 7.73333 10.4602 6.10797 12.3134 6.00516L12.5 6Z" fill="#699C69"/>
<path fill-rule="evenodd" clip-rule="evenodd" d="M12 1.5C6.20101 1.5 1.5 6.20101 1.5 12C1.5 17.799 6.20101 22.5 12 22.5C17.799 22.5 22.5 17.799 22.5 12C22.5 6.20101 17.799 1.5 12 1.5ZM12 2.5C17.2467 2.5 21.5 6.75329 21.5 12C21.5 17.2467 17.2467 21.5 12 21.5C6.75329 21.5 2.5 17.2467 2.5 12C2.5 6.75329 6.75329 2.5 12 2.5Z" fill="#4195B9"/>
</svg>
