<svg width="24" height="24" viewBox="0 0 24 24" fill="none" xmlns="http://www.w3.org/2000/svg">
<path d="M12.5 3C17.7467 3 22 7.25329 22 12.5C22 17.7467 17.7467 22 12.5 22C7.25329 22 3 17.7467 3 12.5C3 12.2239 3.22386 12 3.5 12C3.77614 12 4 12.2239 4 12.5C4 17.1944 7.80558 21 12.5 21C17.1944 21 21 17.1944 21 12.5C21 7.80558 17.1944 4 12.5 4C10.4138 4 8.44754 4.75434 6.91453 6.09252L8.37197 6.01732C8.6171 6.00448 8.83022 6.17043 8.88471 6.40114L8.89745 6.49047C8.9103 6.73559 8.74435 6.94872 8.51364 7.00321L8.42431 7.01595L5.59976 7.16398C5.35463 7.17683 5.14151 7.01088 5.08702 6.78017L5.07427 6.69084L4.92625 3.86628C4.91179 3.59052 5.12363 3.35525 5.39939 3.3408C5.64452 3.32796 5.85764 3.4939 5.91213 3.72462L5.92488 3.81395L6.016 5.557L6.10673 5.47307C7.84051 3.89425 10.1003 3 12.5 3Z" fill="#4195B9"/>
<path fill-rule="evenodd" clip-rule="evenodd" d="M12.5 6.50505C14.4408 6.50505 16 8.17255 16 10.2134V10.6717C16 10.9479 15.7761 11.1717 15.5 11.1717C15.2239 11.1717 15 10.9479 15 10.6717V10.2134C15 8.71039 13.8729 7.50505 12.5 7.50505C11.1271 7.50505 10 8.71039 10 10.2134V11.0051H12C12.2761 11.0051 12.5 11.2289 12.5 11.5051C12.5 11.7812 12.2761 12.0051 12 12.0051H10V13.0051H12C12.2761 13.0051 12.5 13.2289 12.5 13.5051C12.5 13.7812 12.2761 14.0051 12 14.0051H10V14.7967C10 16.2419 11.042 17.4119 12.3427 17.4998L12.5 17.5051C13.8729 17.5051 15 16.2997 15 14.7967V14.3384C15 14.0622 15.2239 13.8384 15.5 13.8384C15.7761 13.8384 16 14.0622 16 14.3384V14.7967C16 16.8376 14.4408 18.5051 12.5 18.5051C10.5592 18.5051 9 16.8376 9 14.7967V14.0051H7.5C7.22386 14.0051 7 13.7812 7 13.5051C7 13.2289 7.22386 13.0051 7.5 13.0051H9V12.0051H7.5C7.22386 12.0051 7 11.7812 7 11.5051C7 11.2289 7.22386 11.0051 7.5 11.0051H9V10.2134C9 8.23839 10.4602 6.61302 12.3134 6.51021L12.5 6.50505Z" fill="#699C69"/>
</svg>
