<svg width="24" height="24" viewBox="0 0 24 24" fill="none" xmlns="http://www.w3.org/2000/svg">
<path fill-rule="evenodd" clip-rule="evenodd" d="M10.5002 18C10.814 18.4179 11 18.9372 11 19.5C11 20.8807 9.88071 22 8.5 22C7.11929 22 6 20.8807 6 19.5C6 18.9477 6.17909 18.4373 6.48236 18.0235L6.5 18C6.28072 18 6.09108 17.858 6.02491 17.656L6.00439 17.5661L4.062 3H2.5C2.25454 3 2.05039 2.82312 2.00806 2.58988L2 2.5C2 2.25454 2.17688 2.05039 2.41012 2.00806L2.5 2H4.5C4.71928 2 4.90892 2.14203 4.97509 2.34395L4.99561 2.43392L5.337 4.999L7.337 4.99912C7.6131 4.99914 7.83691 5.22296 7.83691 5.49906V5.49906C7.83691 5.77517 7.61308 5.999 7.33697 5.999H5.47L6.539 14.017L19.925 12.996L21.419 5.999H18.2839C18.0079 5.999 17.7842 5.77532 17.7842 5.49939V5.49939C17.7842 5.22345 18.0079 4.99976 18.2839 4.99978L22.0379 5C22.3272 5 22.5495 5.24237 22.5376 5.52023L22.5269 5.60444L20.8251 13.5719C20.7846 13.7616 20.639 13.9082 20.4551 13.9531L20.3741 13.966L6.672 15.01L6.937 17H18.5C19.8807 17 21 18.1193 21 19.5C21 20.8807 19.8807 22 18.5 22C17.1193 22 16 20.8807 16 19.5C16 18.9372 16.186 18.4179 16.4998 18H10.5002ZM17 19.5C17 18.6716 17.6716 18 18.5 18C19.3284 18 20 18.6716 20 19.5C20 20.3284 19.3284 21 18.5 21C17.6716 21 17 20.3284 17 19.5ZM7 19.5C7 18.6716 7.67157 18 8.5 18C9.32843 18 10 18.6716 10 19.5C10 20.3284 9.32843 21 8.5 21C7.67157 21 7 20.3284 7 19.5Z" fill="#4195B9"/>
<path d="M14.106 2C14.3624 2 14.5737 2.19302 14.6026 2.44169L14.606 2.5V5.345H15.806C16.2358 5.345 16.4569 5.8451 16.1929 6.16214L16.1538 6.20418L12.8288 9.42418C12.6413 9.6058 12.3493 9.61058 12.1562 9.44525L12.1101 9.40038L9.13015 6.10538C8.85204 5.79788 9.04867 5.31432 9.44563 5.27286L9.50098 5.27H10.456V2.525C10.456 2.26858 10.649 2.05725 10.8977 2.02836L10.956 2.025C11.2124 2.025 11.4237 2.21802 11.4526 2.46669L11.456 2.525V5.77C11.456 6.02642 11.263 6.23775 11.0143 6.26664L10.956 6.27H10.627L12.5045 8.346L14.5705 6.345H14.106C13.8496 6.345 13.6382 6.15198 13.6093 5.90331L13.606 5.845V2.5C13.606 2.22386 13.8298 2 14.106 2Z" fill="#699C69"/>
</svg>
