<svg width="24" height="24" viewBox="0 0 24 24" fill="none" xmlns="http://www.w3.org/2000/svg">
<path fill-rule="evenodd" clip-rule="evenodd" d="M10.5002 18C10.814 18.4179 11 18.9372 11 19.5C11 20.8807 9.88071 22 8.5 22C7.11929 22 6 20.8807 6 19.5C6 18.9477 6.17909 18.4373 6.48236 18.0235L6.5 18C6.28072 18 6.09108 17.858 6.02491 17.656L6.00439 17.5661L4.062 3H2.5C2.25454 3 2.05039 2.82312 2.00806 2.58988L2 2.5C2 2.25454 2.17688 2.05039 2.41012 2.00806L2.5 2H4.5C4.71928 2 4.90892 2.14203 4.97509 2.34395L4.99561 2.43392L5.337 4.999L22.0379 5C22.3272 5 22.5495 5.24237 22.5376 5.52023L22.5269 5.60444L20.8251 13.5719C20.7846 13.7616 20.639 13.9082 20.4551 13.9531L20.3741 13.966L6.672 15.01L6.937 17H18.5C19.8807 17 21 18.1193 21 19.5C21 20.8807 19.8807 22 18.5 22C17.1193 22 16 20.8807 16 19.5C16 18.9372 16.186 18.4179 16.4998 18H10.5002ZM18.5 18C17.6716 18 17 18.6716 17 19.5C17 20.3284 17.6716 21 18.5 21C19.3284 21 20 20.3284 20 19.5C20 18.6716 19.3284 18 18.5 18ZM8.5 18C7.67157 18 7 18.6716 7 19.5C7 20.3284 7.67157 21 8.5 21C9.32843 21 10 20.3284 10 19.5C10 18.6716 9.32843 18 8.5 18ZM21.419 5.999H5.47L6.539 14.017L19.925 12.996L21.419 5.999Z" fill="#4195B9"/>
</svg>
