<svg width="24" height="24" viewBox="0 0 24 24" fill="none" xmlns="http://www.w3.org/2000/svg">
<path d="M11.9524 12.0476V3H11.5C6.25329 3 2 7.25329 2 12.5C2 17.7467 6.25329 22 11.5 22C16.7467 22 21 17.7467 21 12.5V12.0476H11.9524ZM11.0586 4V12.9419H20L19.9991 12.9768C19.7488 17.4499 16.0422 21 11.5063 21C6.80839 21 3 17.1918 3 12.4942C3 8.03953 6.4246 4.38469 10.7848 4.01852L11.0586 4Z" fill="#4195B9"/>
<path d="M21 11H13V3H13.3636C17.5811 3 21 6.41892 21 10.6364V11ZM14 10H20L19.9993 9.9739C19.8227 6.81682 17.3374 4.27628 14.2041 4.01314L14 4V10Z" fill="#699C69"/>
</svg>
