<svg width="24" height="24" viewBox="0 0 24 24" fill="none" xmlns="http://www.w3.org/2000/svg">
<g clip-path="url(#clip0_118_377)">
<path fill-rule="evenodd" clip-rule="evenodd" d="M19 9.5C19 4.25329 14.7467 0 9.5 0C4.25329 0 0 4.25329 0 9.5C0 14.7467 4.25329 19 9.5 19C10.7401 19 11.9247 18.7624 13.0107 18.3302C13.0036 18.2211 13 18.111 13 18C13 17.7349 13.0206 17.4746 13.0604 17.2207C11.9774 17.7209 10.7713 18 9.5 18C4.80558 18 1 14.1944 1 9.5C1 4.80558 4.80558 1 9.5 1C14.1944 1 18 4.80558 18 9.5C18 10.7713 17.7209 11.9774 17.2207 13.0604C17.4746 13.0206 17.7349 13 18 13C18.111 13 18.2211 13.0036 18.3302 13.0107C18.7624 11.9247 19 10.7401 19 9.5ZM12.6202 7.11069C12.5338 5.58682 11.2968 4.375 9.77778 4.375L9.6102 4.37994C8.11325 4.46847 6.93056 5.7355 6.93056 7.28125L6.93 7.75H5.875L5.78512 7.75806C5.55188 7.80039 5.375 8.00454 5.375 8.25L5.38306 8.33988C5.42539 8.57312 5.62954 8.75 5.875 8.75H6.93V9.25H5.875L5.78512 9.25806C5.55188 9.30039 5.375 9.50454 5.375 9.75L5.38306 9.83988C5.42539 10.0731 5.62954 10.25 5.875 10.25H6.93L6.93056 10.7188L6.93538 10.8893C7.02179 12.4132 8.25874 13.625 9.77778 13.625C11.3531 13.625 12.625 12.3218 12.625 10.7188V10.375L12.6167 10.2849C12.573 10.0511 12.3625 9.875 12.1111 9.875C11.8283 9.875 11.5972 10.0978 11.5972 10.375V10.7188L11.5917 10.868C11.5189 11.8531 10.7316 12.625 9.77778 12.625L9.63602 12.6193C8.70018 12.5435 7.95833 11.7238 7.95833 10.7188L7.958 10.25H9.40278L9.49265 10.2419C9.7259 10.1996 9.90278 9.99546 9.90278 9.75L9.89472 9.66012C9.85239 9.42688 9.64824 9.25 9.40278 9.25H7.958V8.75H9.40278L9.49265 8.74194C9.7259 8.69961 9.90278 8.49546 9.90278 8.25L9.89472 8.16012C9.85239 7.92688 9.64824 7.75 9.40278 7.75H7.958L7.95833 7.28125L7.96383 7.13196C8.03664 6.14688 8.82392 5.375 9.77778 5.375C10.7793 5.375 11.5972 6.226 11.5972 7.28125V7.625L11.6055 7.71515C11.6492 7.94894 11.8597 8.125 12.1111 8.125C12.3939 8.125 12.625 7.90218 12.625 7.625V7.28125L12.6202 7.11069Z" fill="#4195B9"/>
<path d="M18 12.5C21.0376 12.5 23.5 14.9624 23.5 18C23.5 21.0376 21.0376 23.5 18 23.5C14.9624 23.5 12.5 21.0376 12.5 18C12.5 14.9624 14.9624 12.5 18 12.5Z" stroke="#699C69"/>
<path fill-rule="evenodd" clip-rule="evenodd" d="M18 15C18.2761 15 18.5 15.2239 18.5 15.5V17.5H20.5C20.7761 17.5 21 17.7239 21 18C21 18.2761 20.7761 18.5 20.5 18.5H18.5V20.5C18.5 20.7761 18.2761 21 18 21C17.7239 21 17.5 20.7761 17.5 20.5V18.5H15.5C15.2239 18.5 15 18.2761 15 18C15 17.7239 15.2239 17.5 15.5 17.5H17.5V15.5C17.5 15.2239 17.7239 15 18 15Z" fill="#699C69"/>
</g>
<defs>
<clipPath id="clip0_118_377">
<rect width="24" height="24" fill="white"/>
</clipPath>
</defs>
</svg>
