<svg width="24" height="24" viewBox="0 0 24 24" fill="none" xmlns="http://www.w3.org/2000/svg">
<g clip-path="url(#clip0_118_379)">
<path fill-rule="evenodd" clip-rule="evenodd" d="M9.5 0C14.7467 0 19 4.25329 19 9.5C19 14.7467 14.7467 19 9.5 19C4.25329 19 0 14.7467 0 9.5C0 4.25329 4.25329 0 9.5 0ZM9.5 1C4.80558 1 1 4.80558 1 9.5C1 14.1944 4.80558 18 9.5 18C14.1944 18 18 14.1944 18 9.5C18 4.80558 14.1944 1 9.5 1ZM9.77778 4.375C11.2968 4.375 12.5338 5.58682 12.6202 7.11069L12.625 7.28125V7.625C12.625 7.90218 12.3939 8.125 12.1111 8.125C11.8597 8.125 11.6492 7.94894 11.6055 7.71515L11.5972 7.625V7.28125C11.5972 6.226 10.7793 5.375 9.77778 5.375C8.82392 5.375 8.03664 6.14688 7.96383 7.13196L7.95833 7.28125L7.958 7.75H9.40278C9.64824 7.75 9.85239 7.92688 9.89472 8.16012L9.90278 8.25C9.90278 8.49546 9.7259 8.69961 9.49265 8.74194L9.40278 8.75H7.958V9.25H9.40278C9.64824 9.25 9.85239 9.42688 9.89472 9.66012L9.90278 9.75C9.90278 9.99546 9.7259 10.1996 9.49265 10.2419L9.40278 10.25H7.958L7.95833 10.7188C7.95833 11.7237 8.70018 12.5435 9.63602 12.6193L9.77778 12.625C10.7316 12.625 11.5189 11.8531 11.5917 10.868L11.5972 10.7188V10.375C11.5972 10.0978 11.8283 9.875 12.1111 9.875C12.3625 9.875 12.573 10.0511 12.6167 10.2849L12.625 10.375V10.7188C12.625 12.3218 11.3531 13.625 9.77778 13.625C8.25874 13.625 7.02179 12.4132 6.93538 10.8893L6.93056 10.7188L6.93 10.25H5.875C5.62954 10.25 5.42539 10.0731 5.38306 9.83988L5.375 9.75C5.375 9.50454 5.55188 9.30039 5.78512 9.25806L5.875 9.25H6.93V8.75H5.875C5.62954 8.75 5.42539 8.57312 5.38306 8.33988L5.375 8.25C5.375 8.00454 5.55188 7.80039 5.78512 7.75806L5.875 7.75H6.93L6.93056 7.28125C6.93056 5.7355 8.11325 4.46847 9.6102 4.37994L9.77778 4.375Z" fill="#4195B9"/>
<path fill-rule="evenodd" clip-rule="evenodd" d="M18 12C21.3137 12 24 14.6863 24 18C24 21.3137 21.3137 24 18 24C14.6863 24 12 21.3137 12 18C12 14.6863 14.6863 12 18 12Z" fill="#699C69"/>
<path d="M18 13C15.2386 13 13 15.2386 13 18C13 20.7614 15.2386 23 18 23C20.7614 23 23 20.7614 23 18C23 15.2386 20.7614 13 18 13Z" fill="white"/>
<path d="M18.5 15.5C18.5 15.2239 18.2761 15 18 15C17.7239 15 17.5 15.2239 17.5 15.5V20.5C17.5 20.7761 17.7239 21 18 21C18.2761 21 18.5 20.7761 18.5 20.5V15.5Z" fill="#699C69"/>
</g>
<defs>
<clipPath id="clip0_118_379">
<rect width="24" height="24" fill="white"/>
</clipPath>
</defs>
</svg>
