<svg width="24" height="24" viewBox="0 0 24 24" fill="none" xmlns="http://www.w3.org/2000/svg">
<path fill-rule="evenodd" clip-rule="evenodd" d="M13.8559 3.45167C13.2742 4.62102 12.0356 5.86136 10.9267 6.22887C9.81782 6.59638 9.4705 5.79036 10.0522 4.62102L13.8559 3.45167ZM19.7142 1.71436C18.0404 5.35186 14.2032 9.06453 11.0857 10.0668C7.96825 11.0107 6.80914 8.81396 8.47458 5.19316L9.57511 4.85071C8.48714 7.24787 9.21524 8.70538 11.3159 8.04971C13.3496 7.39404 15.8854 4.9927 16.9734 2.59554L19.7142 1.71436Z" fill="#699C69"/>
<path fill-rule="evenodd" clip-rule="evenodd" d="M2.07141 7.28589C2.07141 7.00975 2.29527 6.78589 2.57141 6.78589H5.99998C6.27612 6.78589 6.49998 7.00975 6.49998 7.28589C6.49998 7.56203 6.27612 7.78589 5.99998 7.78589H2.57141C2.29527 7.78589 2.07141 7.56203 2.07141 7.28589Z" fill="#4195B9"/>
<path fill-rule="evenodd" clip-rule="evenodd" d="M16.6428 7.28589C16.6428 7.00975 16.8667 6.78589 17.1428 6.78589H20.5714C20.8475 6.78589 21.0714 7.00975 21.0714 7.28589C21.0714 7.56203 20.8475 7.78589 20.5714 7.78589H17.1428C16.8667 7.78589 16.6428 7.56203 16.6428 7.28589Z" fill="#4195B9"/>
<path fill-rule="evenodd" clip-rule="evenodd" d="M4.28564 7.21436C4.56179 7.21436 4.78564 7.43821 4.78564 7.71436V19.2144H11.9351V13.5617C11.9351 13.2855 12.1589 13.0617 12.4351 13.0617H16.1379C16.414 13.0617 16.6379 13.2855 16.6379 13.5617V19.16H18.3571V7.71436C18.3571 7.43821 18.5809 7.21436 18.8571 7.21436C19.1332 7.21436 19.3571 7.43821 19.3571 7.71436V19.66C19.3571 19.9361 19.1332 20.16 18.8571 20.16H16.1379C15.8617 20.16 15.6379 19.9361 15.6379 19.66V14.0617H12.9351V19.7144C12.9351 19.9905 12.7112 20.2144 12.4351 20.2144H4.28564C4.0095 20.2144 3.78564 19.9905 3.78564 19.7144V7.71436C3.78564 7.43821 4.0095 7.21436 4.28564 7.21436Z" fill="#4195B9"/>
</svg>
