<svg width="24" height="24" viewBox="0 0 24 24" fill="none" xmlns="http://www.w3.org/2000/svg">
<path fill-rule="evenodd" clip-rule="evenodd" d="M1.14148 6.32788C1.14148 6.05174 1.36534 5.82788 1.64148 5.82788H22.2129C22.489 5.82788 22.7129 6.05174 22.7129 6.32788V18.3279C22.7129 18.604 22.489 18.8279 22.2129 18.8279H1.64148C1.36534 18.8279 1.14148 18.604 1.14148 18.3279V6.32788ZM2.14148 6.82788V17.8279H21.7129V6.82788H2.14148Z" fill="#4195B9"/>
<path fill-rule="evenodd" clip-rule="evenodd" d="M6.57031 5.94189C6.84645 5.94189 7.07031 6.16575 7.07031 6.44189V18.2404C7.07031 18.5165 6.84645 18.7404 6.57031 18.7404C6.29417 18.7404 6.07031 18.5165 6.07031 18.2404V6.44189C6.07031 6.16575 6.29417 5.94189 6.57031 5.94189Z" fill="#4195B9"/>
<path fill-rule="evenodd" clip-rule="evenodd" d="M11.5867 5.94189C11.8628 5.94189 12.0867 6.16575 12.0867 6.44189V17.9512C12.0867 18.2273 11.8628 18.4512 11.5867 18.4512C11.3105 18.4512 11.0867 18.2273 11.0867 17.9512V6.44189C11.0867 6.16575 11.3105 5.94189 11.5867 5.94189Z" fill="#4195B9"/>
<path fill-rule="evenodd" clip-rule="evenodd" d="M1.19434 14.2358C1.19434 13.9597 1.41819 13.7358 1.69434 13.7358H21.4086C21.6848 13.7358 21.9086 13.9597 21.9086 14.2358C21.9086 14.512 21.6848 14.7358 21.4086 14.7358H1.69434C1.41819 14.7358 1.19434 14.512 1.19434 14.2358Z" fill="#4195B9"/>
<path fill-rule="evenodd" clip-rule="evenodd" d="M1.34741 10.3936C1.34741 10.1174 1.57127 9.89355 1.84741 9.89355H21.5617C21.8378 9.89355 22.0617 10.1174 22.0617 10.3936C22.0617 10.6697 21.8378 10.8936 21.5617 10.8936H1.84741C1.57127 10.8936 1.34741 10.6697 1.34741 10.3936Z" fill="#4195B9"/>
<path fill-rule="evenodd" clip-rule="evenodd" d="M16.7521 5.94189C17.0282 5.94189 17.2521 6.16575 17.2521 6.44189V18.0476C17.2521 18.3237 17.0282 18.5476 16.7521 18.5476C16.4759 18.5476 16.2521 18.3237 16.2521 18.0476V6.44189C16.2521 6.16575 16.4759 5.94189 16.7521 5.94189Z" fill="#4195B9"/>
</svg>
