<svg width="24" height="24" viewBox="0 0 24 24" fill="none" xmlns="http://www.w3.org/2000/svg">
<path fill-rule="evenodd" clip-rule="evenodd" d="M1.21423 6C1.21423 5.72386 1.43809 5.5 1.71423 5.5H22.2857C22.5618 5.5 22.7857 5.72386 22.7857 6V18C22.7857 18.2761 22.5618 18.5 22.2857 18.5H1.71423C1.43809 18.5 1.21423 18.2761 1.21423 18V6ZM2.21423 6.5V17.5H21.7857V6.5H2.21423Z" fill="#4195B9"/>
<path fill-rule="evenodd" clip-rule="evenodd" d="M6.42847 5.5C6.70461 5.5 6.92847 5.72386 6.92847 6V18C6.92847 18.2761 6.70461 18.5 6.42847 18.5C6.15232 18.5 5.92847 18.2761 5.92847 18V6C5.92847 5.72386 6.15232 5.5 6.42847 5.5Z" fill="#4195B9"/>
<path fill-rule="evenodd" clip-rule="evenodd" d="M11.5714 5.5C11.8476 5.5 12.0714 5.72386 12.0714 6V7.71429C12.0714 7.99043 11.8476 8.21429 11.5714 8.21429C11.2953 8.21429 11.0714 7.99043 11.0714 7.71429V6C11.0714 5.72386 11.2953 5.5 11.5714 5.5Z" fill="#4195B9"/>
<path fill-rule="evenodd" clip-rule="evenodd" d="M11.5714 15.7856C11.8476 15.7856 12.0714 16.0095 12.0714 16.2856V17.9999C12.0714 18.2761 11.8476 18.4999 11.5714 18.4999C11.2953 18.4999 11.0714 18.2761 11.0714 17.9999V16.2856C11.0714 16.0095 11.2953 15.7856 11.5714 15.7856Z" fill="#4195B9"/>
<path fill-rule="evenodd" clip-rule="evenodd" d="M2.07141 9.85718C2.07141 9.58104 2.29527 9.35718 2.57141 9.35718H9.42855C9.7047 9.35718 9.92855 9.58104 9.92855 9.85718C9.92855 10.1333 9.7047 10.3572 9.42855 10.3572H2.57141C2.29527 10.3572 2.07141 10.1333 2.07141 9.85718Z" fill="#4195B9"/>
<path fill-rule="evenodd" clip-rule="evenodd" d="M1.21423 14.1428C1.21423 13.8667 1.43809 13.6428 1.71423 13.6428H8.57138C8.84752 13.6428 9.07138 13.8667 9.07138 14.1428C9.07138 14.419 8.84752 14.6428 8.57138 14.6428H1.71423C1.43809 14.6428 1.21423 14.419 1.21423 14.1428Z" fill="#4195B9"/>
<path fill-rule="evenodd" clip-rule="evenodd" d="M20.0714 9.85718C20.0714 9.58104 20.2953 9.35718 20.5714 9.35718H22.2857C22.5618 9.35718 22.7857 9.58104 22.7857 9.85718C22.7857 10.1333 22.5618 10.3572 22.2857 10.3572H20.5714C20.2953 10.3572 20.0714 10.1333 20.0714 9.85718Z" fill="#4195B9"/>
<path fill-rule="evenodd" clip-rule="evenodd" d="M20.0714 14.1428C20.0714 13.8667 20.2953 13.6428 20.5714 13.6428H22.2857C22.5618 13.6428 22.7857 13.8667 22.7857 14.1428C22.7857 14.419 22.5618 14.6428 22.2857 14.6428H20.5714C20.2953 14.6428 20.0714 14.419 20.0714 14.1428Z" fill="#4195B9"/>
<path fill-rule="evenodd" clip-rule="evenodd" d="M15.3393 7.30211C15.5094 7.18537 15.7338 7.18508 15.9042 7.30139L19.139 9.50947C19.2754 9.60262 19.3571 9.75719 19.3571 9.92243V12.0001C19.3571 12.2762 19.1332 12.5001 18.8571 12.5001C18.5809 12.5001 18.3571 12.2762 18.3571 12.0001V10.1865L15.6231 8.32027L12.2829 10.6128C12.0552 10.7691 11.7439 10.7112 11.5877 10.4835C11.4314 10.2558 11.4893 9.9446 11.717 9.78833L15.3393 7.30211Z" fill="#699C69"/>
<path fill-rule="evenodd" clip-rule="evenodd" d="M13.5342 9.16517C13.6796 8.93044 13.9878 8.85807 14.2225 9.00352L17.1613 10.8246C17.3084 10.9158 17.398 11.0765 17.398 11.2496V12.8571C17.398 13.1332 17.1741 13.3571 16.898 13.3571C16.6218 13.3571 16.398 13.1332 16.398 12.8571V11.528L13.6958 9.85355C13.4611 9.70809 13.3887 9.39989 13.5342 9.16517Z" fill="#699C69"/>
<path fill-rule="evenodd" clip-rule="evenodd" d="M12 11.5C12.2761 11.5 12.5 11.7239 12.5 12V13.9387L15.2096 15.6841L18.5717 13.3463C18.7984 13.1887 19.11 13.2447 19.2677 13.4714C19.4253 13.6981 19.3693 14.0097 19.1426 14.1674L15.5057 16.6962C15.3394 16.8119 15.1198 16.8157 14.9495 16.7061L11.7292 14.6317C11.5863 14.5397 11.5 14.3814 11.5 14.2114V12C11.5 11.7239 11.7239 11.5 12 11.5Z" fill="#699C69"/>
<path fill-rule="evenodd" clip-rule="evenodd" d="M13.9146 11.48C14.1907 11.4838 14.4114 11.7108 14.4076 11.9869L14.3924 13.0937L16.7937 14.7791C17.0197 14.9378 17.0743 15.2496 16.9157 15.4756C16.7571 15.7016 16.4452 15.7563 16.2192 15.5976L13.6016 13.7604C13.4662 13.6654 13.3866 13.5096 13.3888 13.3443L13.4077 11.9731C13.4115 11.697 13.6384 11.4762 13.9146 11.48Z" fill="#699C69"/>
</svg>
