<svg width="24" height="24" viewBox="0 0 24 24" fill="none" xmlns="http://www.w3.org/2000/svg">
<path fill-rule="evenodd" clip-rule="evenodd" d="M3.41911 6.12939C3.51371 6.02757 3.64642 5.96973 3.7854 5.96973H20.4185C20.5574 5.96973 20.69 6.0275 20.7846 6.12919C20.8792 6.23089 20.9272 6.36735 20.9172 6.50587L19.9375 20.0216C19.8524 20.9469 19.0759 21.6548 18.1466 21.6543H6.06662C5.13777 21.6545 4.36254 20.9451 4.28058 20.0199L4.27992 20.0124L3.28675 6.5064C3.27656 6.36779 3.32451 6.2312 3.41911 6.12939ZM4.32352 6.96973L5.27698 19.9349C5.31475 20.3424 5.65677 20.6544 6.0664 20.6543H18.1469C18.5577 20.6546 18.9015 20.3427 18.9412 19.9342L19.8809 6.96973H4.32352Z" fill="#4195B9"/>
<path d="M17.2131 9.79614H7.13342C6.69642 9.79614 6.34216 10.1504 6.34216 10.5874C6.34216 11.0244 6.69642 11.3787 7.13342 11.3787H17.2131C17.6501 11.3787 18.0043 11.0244 18.0043 10.5874C18.0043 10.1504 17.6501 9.79614 17.2131 9.79614Z" fill="#699C69"/>
<path fill-rule="evenodd" clip-rule="evenodd" d="M3.1607 3.33613L2.70998 5.9744H21.4692L21.0149 3.33774C21.0148 3.337 21.0146 3.33626 21.0145 3.33552C20.9562 3.02349 20.6838 2.79712 20.3662 2.79712H3.81389C3.495 2.7969 3.22077 3.02327 3.1607 3.33613ZM3.81389 1.79712C3.01232 1.79673 2.32432 2.36778 2.17709 3.15574L1.62445 6.3902C1.59964 6.53542 1.64015 6.6842 1.73515 6.79681C1.83015 6.90942 1.96998 6.9744 2.11731 6.9744H22.0627C22.2102 6.9744 22.3501 6.90931 22.4451 6.79654C22.5401 6.68376 22.5805 6.5348 22.5555 6.38949L21.9995 3.16268L21.9985 3.15742C21.8541 2.36942 21.1673 1.79712 20.3662 1.79712H3.81389C3.81394 1.79712 3.81383 1.79712 3.81389 1.79712Z" fill="#4195B9"/>
</svg>
