<svg width="24" height="24" viewBox="0 0 24 24" fill="none" xmlns="http://www.w3.org/2000/svg">
<path fill-rule="evenodd" clip-rule="evenodd" d="M8.14286 7.35718C7.23553 7.35718 6.5 8.09271 6.5 9.00004C6.5 9.90736 7.23553 10.6429 8.14286 10.6429C9.05018 10.6429 9.78571 9.90736 9.78571 9.00004C9.78571 8.09271 9.05018 7.35718 8.14286 7.35718ZM5.5 9.00004C5.5 7.54043 6.68325 6.35718 8.14286 6.35718C9.60247 6.35718 10.7857 7.54043 10.7857 9.00004C10.7857 10.4596 9.60247 11.6429 8.14286 11.6429C6.68325 11.6429 5.5 10.4596 5.5 9.00004Z" fill="#699C69"/>
<path fill-rule="evenodd" clip-rule="evenodd" d="M2.0307 5.97137C3.40719 3.25024 6.26739 1.70776 9.19808 2.14476C12.1262 2.58137 14.4591 4.89426 15.0617 7.90228C15.116 8.17304 14.9405 8.43651 14.6697 8.49075C14.3989 8.545 14.1355 8.36947 14.0812 8.09871C13.5559 5.47677 11.5348 3.50424 9.0506 3.13382C6.56901 2.76379 4.11562 4.06517 2.92303 6.42276C1.73005 8.7811 2.06668 11.6721 3.75543 13.6543L8.18244 18.3412L8.18251 18.3413C8.1952 18.3547 8.20676 18.3571 8.21299 18.3571C8.21923 18.3571 8.23079 18.3547 8.24348 18.3413L8.2553 18.3292L9.48264 17.1144C9.6789 16.9201 9.99548 16.9217 10.1897 17.118C10.384 17.3143 10.3824 17.6308 10.1861 17.8251L8.96384 19.0349C8.76848 19.2381 8.49931 19.3571 8.21299 19.3571C7.92336 19.3571 7.65127 19.2353 7.45539 19.0278L3.01982 14.3318C3.01417 14.3258 3.00868 14.3197 3.00334 14.3135C1.04146 12.0197 0.65643 8.6881 2.0307 5.97137Z" fill="#4195B9"/>
<path fill-rule="evenodd" clip-rule="evenodd" d="M12.0001 11.3501C12.3591 11.3501 12.6501 11.6411 12.6501 12.0001V17.8722L17.406 19.9771C17.7343 20.1224 17.8826 20.5063 17.7373 20.8346C17.592 21.1629 17.2081 21.3112 16.8799 21.1659L11.737 18.8897C11.5018 18.7856 11.3501 18.5525 11.3501 18.2953V12.0001C11.3501 11.6411 11.6411 11.3501 12.0001 11.3501Z" fill="#4195B9"/>
<path fill-rule="evenodd" clip-rule="evenodd" d="M22.2858 11.3501C22.6448 11.3501 22.9358 11.6411 22.9358 12.0001V18.265C22.9358 18.521 22.7854 18.7533 22.5518 18.858L17.4089 21.1646C17.2078 21.2548 16.9747 21.2369 16.7896 21.1171C16.6046 20.9973 16.4929 20.7919 16.4929 20.5715V14.2359C16.4929 13.8769 16.7839 13.5859 17.1429 13.5859C17.5019 13.5859 17.7929 13.8769 17.7929 14.2359V19.5676L21.6358 17.8441V12.0001C21.6358 11.6411 21.9268 11.3501 22.2858 11.3501Z" fill="#4195B9"/>
<path fill-rule="evenodd" clip-rule="evenodd" d="M17.5933 11.7826C17.7133 12.0314 17.6089 12.3302 17.3602 12.4502L15.0928 13.5439L15.0715 16.2895C15.0694 16.5656 14.8438 16.7877 14.5677 16.7856C14.2915 16.7834 14.0694 16.5579 14.0715 16.2817L14.0952 13.2249C14.0967 13.0344 14.2063 12.8613 14.378 12.7785L16.9257 11.5495C17.1745 11.4296 17.4733 11.5339 17.5933 11.7826Z" fill="#699C69"/>
<path fill-rule="evenodd" clip-rule="evenodd" d="M16.8927 8.82868C17.0528 8.76186 17.2331 8.76186 17.3932 8.82868L22.5361 10.9744C22.7783 11.0754 22.9359 11.3121 22.9358 11.5745C22.9357 11.8369 22.7778 12.0735 22.5355 12.1744L17.3927 14.3144C17.2328 14.3809 17.0531 14.3809 16.8932 14.3144L11.7504 12.1744C11.5081 12.0735 11.3502 11.8369 11.3501 11.5745C11.35 11.3121 11.5076 11.0754 11.7498 10.9744L16.8927 8.82868ZM13.6901 11.5734L17.143 13.0102L20.5958 11.5734L17.143 10.1329L13.6901 11.5734Z" fill="#4195B9"/>
<path fill-rule="evenodd" clip-rule="evenodd" d="M12 11.5C12.2761 11.5 12.5 11.7239 12.5 12V17.9697L17.3452 20.1142C17.5977 20.226 17.7118 20.5213 17.6001 20.7738C17.4883 21.0263 17.193 21.1404 16.9405 21.0286L11.7976 18.7524C11.6167 18.6723 11.5 18.4931 11.5 18.2952V12C11.5 11.7239 11.7239 11.5 12 11.5Z" fill="#699C69"/>
<path fill-rule="evenodd" clip-rule="evenodd" d="M22.2858 11.5C22.5619 11.5 22.7858 11.7239 22.7858 12V18.2649C22.7858 18.4619 22.6701 18.6405 22.4904 18.7211L17.3476 21.0276C17.1929 21.097 17.0135 21.0833 16.8712 20.9911C16.7289 20.899 16.6429 20.741 16.6429 20.5714V14.2358C16.6429 13.9596 16.8668 13.7358 17.1429 13.7358C17.4191 13.7358 17.6429 13.9596 17.6429 14.2358V19.7992L21.7858 17.9411V12C21.7858 11.7239 22.0097 11.5 22.2858 11.5Z" fill="#699C69"/>
<path fill-rule="evenodd" clip-rule="evenodd" d="M16.9503 8.96702C17.0735 8.91562 17.2122 8.91562 17.3354 8.96702L22.4782 11.1127C22.6645 11.1904 22.7858 11.3725 22.7857 11.5744C22.7856 11.7762 22.6642 11.9582 22.4778 12.0358L17.3349 14.1758C17.212 14.227 17.0737 14.227 16.9508 14.1758L11.8079 12.0358C11.6215 11.9582 11.5001 11.7762 11.5 11.5744C11.4999 11.3725 11.6212 11.1904 11.8075 11.1127L16.9503 8.96702ZM13.3 11.5735L17.1429 13.1726L20.9857 11.5735L17.1429 9.97024L13.3 11.5735Z" fill="#699C69"/>
</svg>
