<svg width="24" height="24" viewBox="0 0 24 24" fill="none" xmlns="http://www.w3.org/2000/svg">
<path fill-rule="evenodd" clip-rule="evenodd" d="M2.28564 4.17847C2.28564 3.90232 2.5095 3.67847 2.78564 3.67847H21.4285C21.7046 3.67847 21.9285 3.90232 21.9285 4.17847C21.9285 4.45461 21.7046 4.67847 21.4285 4.67847H2.78564C2.5095 4.67847 2.28564 4.45461 2.28564 4.17847Z" fill="#4195B9"/>
<path fill-rule="evenodd" clip-rule="evenodd" d="M4.07141 9.98584C4.34755 9.98584 4.57141 10.2097 4.57141 10.4858V20.0714H19.6428V12.7835C19.6428 12.5073 19.8667 12.2835 20.1428 12.2835C20.419 12.2835 20.6428 12.5073 20.6428 12.7835V20.5714C20.6428 20.8475 20.419 21.0714 20.1428 21.0714H4.07141C3.79527 21.0714 3.57141 20.8475 3.57141 20.5714V10.4858C3.57141 10.2097 3.79527 9.98584 4.07141 9.98584Z" fill="#4195B9"/>
<path fill-rule="evenodd" clip-rule="evenodd" d="M9.53564 9.78564C9.81179 9.78564 10.0356 10.0095 10.0356 10.2856V20.5714C10.0356 20.8475 9.81179 21.0714 9.53564 21.0714C9.2595 21.0714 9.03564 20.8475 9.03564 20.5714V10.2856C9.03564 10.0095 9.2595 9.78564 9.53564 9.78564Z" fill="#4195B9"/>
<path fill-rule="evenodd" clip-rule="evenodd" d="M3.72486 4.03859C3.79264 3.83396 3.98394 3.6958 4.1995 3.6958H7.12088C7.26583 3.6958 7.40365 3.75871 7.49862 3.86821C7.59359 3.97772 7.63636 4.12305 7.61585 4.26655L7.01329 8.48225C7.03803 9.30687 6.58401 10.0646 5.85369 10.4738C5.11139 10.8896 4.18851 10.8896 3.44621 10.4738C2.70043 10.056 2.24277 9.27464 2.28882 8.42981C2.29123 8.38557 2.29951 8.34186 2.31344 8.29981L3.72486 4.03859ZM4.5606 4.6958L3.28568 8.54491C3.28561 8.96303 3.51983 9.36878 3.93497 9.60135C4.37363 9.8471 4.92627 9.8471 5.36493 9.60135C5.80012 9.35754 6.0365 8.92342 6.01256 8.48423C6.01078 8.45152 6.01221 8.41871 6.01685 8.38627L6.54433 4.6958H4.5606Z" fill="#4195B9"/>
<path fill-rule="evenodd" clip-rule="evenodd" d="M6.61821 4.10928C6.65272 3.86227 6.86399 3.67847 7.1134 3.67847H10.4858C10.6233 3.67847 10.7548 3.73511 10.8492 3.83506C10.9437 3.93501 10.9928 4.06945 10.985 4.20675L10.7428 8.48169C10.7379 9.14683 10.4119 9.72403 9.96362 10.1256C9.51367 10.5287 8.90853 10.7855 8.28718 10.7855V10.2855L8.2885 10.7855C8.28806 10.7855 8.28762 10.7855 8.28718 10.7855C7.68042 10.7867 7.10098 10.5396 6.67578 10.1034C6.25073 9.6673 6.01428 9.07812 6.01428 8.46656C6.01428 8.44341 6.01589 8.42029 6.01909 8.39737L6.61821 4.10928ZM7.5484 4.67847L7.01466 8.49864C7.02267 8.84172 7.15895 9.1664 7.39188 9.40538C7.63159 9.65132 7.95354 9.78635 8.28586 9.78547L8.28718 9.78546C8.6391 9.78546 9.0118 9.63569 9.29637 9.38077C9.57922 9.12738 9.74285 8.80084 9.74285 8.46656C9.74285 8.45712 9.74312 8.44769 9.74365 8.43827L9.95669 4.67847H7.5484Z" fill="#4195B9"/>
<path fill-rule="evenodd" clip-rule="evenodd" d="M13.9349 4.0011C14.2103 3.981 14.4499 4.18797 14.47 4.46338L14.7621 8.46497C14.7626 8.47205 14.763 8.47914 14.7632 8.48623C14.7861 9.24331 15.3554 9.78585 15.9814 9.78549H15.982C16.597 9.78584 17.1573 9.26212 17.1984 8.52575L16.6592 4.67985C16.6209 4.40638 16.8115 4.15361 17.0849 4.11526C17.3584 4.07692 17.6112 4.26753 17.6495 4.541L18.1951 8.43195C18.199 8.45995 18.2005 8.48825 18.1997 8.51651C18.1623 9.74927 17.2107 10.786 15.9817 10.7855C14.7564 10.786 13.8068 9.75556 13.764 8.52775L13.4727 4.53618C13.4526 4.26077 13.6595 4.02121 13.9349 4.0011ZM15.9817 10.7855C15.9816 10.7855 15.9815 10.7855 15.9814 10.7855L15.9817 10.2855L15.982 10.7855C15.9819 10.7855 15.9818 10.7855 15.9817 10.7855Z" fill="#4195B9"/>
<path fill-rule="evenodd" clip-rule="evenodd" d="M9.99537 4.1579C10.0109 3.89362 10.2298 3.68726 10.4945 3.68726H13.9814C14.2446 3.68726 14.4627 3.8913 14.4803 4.15392L14.7657 8.4251C14.7668 8.44165 14.767 8.45825 14.7665 8.47483C14.7437 9.16977 14.3473 9.75194 13.8527 10.1443C13.3575 10.5372 12.71 10.7859 12.0736 10.7856L12.0739 10.2856V10.7856C12.0738 10.7856 12.0737 10.7856 12.0736 10.7856C11.4559 10.7855 10.8627 10.542 10.4251 10.1073C9.98723 9.67232 9.74121 9.08166 9.74281 8.46536C9.74283 8.456 9.74312 8.44664 9.74367 8.43729L9.99537 4.1579ZM10.966 4.68726L10.7428 8.48085C10.7454 8.82386 10.8837 9.1533 11.1298 9.3978C11.3792 9.64551 11.7188 9.78556 12.0739 9.78556H12.0742C12.4621 9.78576 12.8944 9.62808 13.2312 9.36088C13.561 9.09927 13.7478 8.77669 13.766 8.4641L13.5137 4.68726H10.966Z" fill="#4195B9"/>
<path fill-rule="evenodd" clip-rule="evenodd" d="M20.2127 3.68213H16.9681L16.6277 4.22027L17.2067 8.59661C17.2067 8.59661 17.3523 9.39513 17.9296 10.0257C18.5601 10.7143 19.5976 10.7858 19.5976 10.7858C20.2133 10.7857 20.8058 10.5462 21.2439 10.1166C21.6824 9.68654 21.93 9.10112 21.9284 8.48888C21.9283 8.44341 21.922 8.39817 21.9096 8.3544L20.6939 4.04634C20.6331 3.8309 20.4366 3.68213 20.2127 3.68213ZM17.5596 4.68213L18.198 8.46121C18.2018 8.48326 18.204 8.50553 18.2047 8.52788C18.2281 9.23205 18.8141 9.78617 19.5971 9.78576C19.9543 9.78576 20.2948 9.64666 20.5437 9.40258C20.7769 9.17396 20.9119 8.87114 20.927 8.55439L19.8343 4.68213H17.5596Z" fill="#4195B9"/>
<path fill-rule="evenodd" clip-rule="evenodd" d="M7.60706 14.9285C7.8832 14.9285 8.10706 15.1523 8.10706 15.4285V16.7142C8.10706 16.9903 7.8832 17.2142 7.60706 17.2142C7.33091 17.2142 7.10706 16.9903 7.10706 16.7142V15.4285C7.10706 15.1523 7.33091 14.9285 7.60706 14.9285Z" fill="#699C69"/>
</svg>
