<svg width="24" height="24" viewBox="0 0 24 24" fill="none" xmlns="http://www.w3.org/2000/svg">
<path d="M19.1787 15.7543C18.5958 16.7487 17.5876 17.5305 16.3478 17.9496C15.3349 18.2042 14.945 17.624 15.4919 16.6599L14.9551 16.7935C14.1144 18.2668 14.7019 19.1516 16.2617 18.7676C17.8215 18.3836 19.7459 16.877 20.5714 15.4287L19.1787 15.7543Z" fill="#699C69"/>
<path d="M16.7787 17.1202C17.3146 16.9613 17.7499 16.6639 17.9999 16.2856L16.393 16.63C16.1573 16.9961 16.3202 17.2164 16.7787 17.1202Z" fill="#699C69"/>
<path fill-rule="evenodd" clip-rule="evenodd" d="M17.5715 12.5C15.244 12.5 13.3572 14.3868 13.3572 16.7143C13.3572 19.0418 15.244 20.9286 17.5715 20.9286C19.899 20.9286 21.7858 19.0418 21.7858 16.7143C21.7858 14.3868 19.899 12.5 17.5715 12.5ZM12.3572 16.7143C12.3572 13.8345 14.6917 11.5 17.5715 11.5C20.4512 11.5 22.7858 13.8345 22.7858 16.7143C22.7858 19.5941 20.4512 21.9286 17.5715 21.9286C14.6917 21.9286 12.3572 19.5941 12.3572 16.7143Z" fill="#699C69"/>
<path fill-rule="evenodd" clip-rule="evenodd" d="M13.8241 2.81617C13.9954 2.73219 14.1996 2.75305 14.3504 2.86993L20.3504 7.51993C20.4726 7.61464 20.5442 7.76054 20.5442 7.91514V10.4751C20.5442 10.7513 20.3203 10.9751 20.0442 10.9751C19.768 10.9751 19.5442 10.7513 19.5442 10.4751V8.16022L14.5442 4.28522V7.39014C14.5442 7.57328 14.444 7.74176 14.2832 7.82931C14.1223 7.91686 13.9265 7.90946 13.7727 7.81002L8.16416 4.18382V7.39014C8.16416 7.57216 8.06524 7.7398 7.90591 7.82781C7.74659 7.91582 7.55202 7.91029 7.39795 7.81338L1.88767 4.34752L1.93916 17.6651C1.93916 18.1373 2.32195 18.5201 2.79416 18.5201H10.6931C10.9692 18.5201 11.1931 18.744 11.1931 19.0201C11.1931 19.2963 10.9692 19.5201 10.6931 19.5201H2.79416C1.77002 19.5201 0.93972 18.6902 0.939156 17.6662L0.939155 17.6651L0.884159 3.44207C0.883454 3.25971 0.982091 3.09143 1.14155 3.00294C1.30101 2.91446 1.496 2.91981 1.65037 3.0169L7.16416 6.48497V3.26514C7.16416 3.082 7.26428 2.91352 7.42513 2.82597C7.58599 2.73842 7.78184 2.74582 7.93563 2.84526L13.5442 6.47146V3.26514C13.5442 3.07433 13.6528 2.90015 13.8241 2.81617Z" fill="#4195B9"/>
</svg>
