<svg width="24" height="24" viewBox="0 0 24 24" fill="none" xmlns="http://www.w3.org/2000/svg">
<path fill-rule="evenodd" clip-rule="evenodd" d="M12 2C17.5228 2 22 6.47715 22 12C22 17.5228 17.5228 22 12 22C6.47715 22 2 17.5228 2 12C2 6.47715 6.47715 2 12 2ZM12 3C7.02944 3 3 7.02944 3 12C3 16.9706 7.02944 21 12 21C16.9706 21 21 16.9706 21 12C21 7.02944 16.9706 3 12 3Z" fill="#4195B9"/>
<path fill-rule="evenodd" clip-rule="evenodd" d="M11.3333 6.64409V13.5532C11.3333 13.8544 11.6318 14.0986 12 14.0986C12.3682 14.0986 12.6667 13.8544 12.6667 13.5532V6.64409C12.6667 6.34284 12.3682 6.09863 12 6.09863C11.6318 6.09863 11.3333 6.34284 11.3333 6.64409ZM11 17.0003C11 16.4481 11.4478 16.0003 12 16.0003C12.552 16.0003 13 16.4481 13 17.0003C13 17.5525 12.552 18.0003 12 18.0003C11.4478 18.0003 11 17.5525 11 17.0003Z" fill="#699C69"/>
</svg>
