<svg width="24" height="24" viewBox="0 0 24 24" fill="none" xmlns="http://www.w3.org/2000/svg">
<g clip-path="url(#clip0_146_1503)">
<path d="M23.2 17.5499L22.35 11.9999L22.25 11.3999L22.1 10.3999L21.8 8.29988L21.65 7.29988L21.55 6.69988L20.8 1.09988C20.7 0.499885 20.15 0.0998847 19.55 0.199885C19.2 0.249885 18.95 0.449885 18.75 0.749885C16.95 3.84988 13.9 5.94988 10.3 6.49988L4 7.39988C1.5 7.74988 -0.200003 10.0499 0.149997 12.4999C0.499997 14.6499 2.35 16.2999 4.5 16.3499C5.8 18.0499 6.6 20.0999 6.85 22.1999C6.95 22.8999 7.35 23.4499 7.9 23.6999C8.1 23.7999 8.35 23.8499 8.6 23.8499C8.9 23.8499 9.2 23.7499 9.5 23.5999L11.15 22.5999C11.55 22.3499 11.85 21.9499 11.9 21.5499C11.95 21.1499 11.8 20.6999 11.55 20.3999C11.05 19.8499 10.6 19.2499 10.3 18.5999L11.05 18.4999C11.3 18.4499 11.55 18.2999 11.7 18.0999C11.85 17.8999 11.9 17.6499 11.9 17.3499C11.9 17.2999 11.9 17.2499 11.85 17.1999L11.3 15.3999L11.65 15.3499C15.2 14.8499 18.75 15.9499 21.35 18.4499C21.6 18.6999 21.95 18.7999 22.25 18.7499C22.55 18.6999 22.8 18.5499 22.95 18.3499C23.15 18.1499 23.2 17.8499 23.2 17.5499ZM1.15 12.3499C0.849997 10.4499 2.2 8.64988 4.1 8.39988L8.2 7.79988L9.2 14.7499L5.1 15.3499C3.2 15.5999 1.45 14.2499 1.15 12.3499ZM10.8 21.0499C10.95 21.2499 10.95 21.4999 10.8 21.6499L10.75 21.6999L9 22.7499C8.85 22.8499 8.65 22.8999 8.45 22.8499C8.25 22.7999 8.1 22.6999 8 22.4999C7.95 22.3999 7.9 22.2999 7.9 22.1999C7.65 20.0499 6.9 17.9999 5.7 16.2499L8.45 15.8499C8.65 17.7999 9.5 19.5999 10.8 21.0499ZM9.85 17.6499C9.6 17.0499 9.45 16.3999 9.4 15.7499L10.3 15.5999L10.9 17.4999L9.85 17.6499ZM22.25 17.8999C22.2 17.8999 22.15 17.8999 22.15 17.8999C19.35 15.1499 15.35 13.8499 11.5 14.3999L10.25 14.5999L9.25 7.69988L10.5 7.49988C14.45 6.89988 17.8 4.64988 19.7 1.19988C19.7 1.19988 19.75 1.14988 19.8 1.14988C19.9 1.49988 20.3 3.99988 20.75 6.94988C21 8.64988 21.3 10.4999 21.5 12.1999C21.95 15.1499 22.25 17.6499 22.25 17.8999Z" fill="#4195B9"/>
<path d="M23.45 10.5998C23.15 10.9998 22.75 11.2498 22.25 11.3998L22.1 10.3998C22.6 10.2498 22.9 9.7498 22.8 9.2498C22.75 8.9498 22.6 8.6998 22.4 8.5498C22.2 8.3998 22 8.3498 21.8 8.2998L21.65 7.2998C22.15 7.2998 22.6 7.3998 23 7.6998C23.45 8.0498 23.75 8.4998 23.8 9.0498C23.95 9.5998 23.8 10.1498 23.45 10.5998Z" fill="#699C69"/>
<path d="M9.19008 7.66711L8.20068 7.81201L9.21498 14.7378L10.2044 14.5929L9.19008 7.66711Z" fill="#699C69"/>
</g>
<defs>
<clipPath id="clip0_146_1503">
<rect width="24" height="24" fill="white"/>
</clipPath>
</defs>
</svg>
