<svg width="25" height="24" viewBox="0 0 25 24" fill="none" xmlns="http://www.w3.org/2000/svg">
<g clip-path="url(#clip0_146_1549)">
<path fill-rule="evenodd" clip-rule="evenodd" d="M19.2126 4.25788C19.3461 4.15984 19.5339 4.18865 19.6319 4.32222L19.8829 4.66411C20.3501 5.30056 19.8903 6.18902 19.1057 6.18902H17.6454L18.2408 8.07658C18.3192 8.12925 18.3828 8.20413 18.4217 8.29471C18.4741 8.41702 18.4747 8.55228 18.4286 8.67178L20.2079 14.3127C20.2578 14.4707 20.1701 14.6392 20.0121 14.689C19.8541 14.7389 19.6856 14.6512 19.6357 14.4932L17.969 9.20951L14.0201 13.3569C14.3006 13.6827 14.4701 14.1067 14.4701 14.5704C14.4701 15.5981 13.637 16.4312 12.6093 16.4312C11.7222 16.4312 10.9801 15.8106 10.7936 14.9798H5.62335C5.43851 14.9798 5.26875 14.8778 5.18194 14.7146C5.09512 14.5515 5.10541 14.3537 5.2087 14.2004L8.71837 8.9917H7.61935C7.34321 8.9917 7.11935 8.76784 7.11935 8.4917C7.11935 8.21556 7.34321 7.9917 7.61935 7.9917H17.5849L17.0817 6.39657L15.7453 6.45113C15.7385 6.4514 15.7317 6.45154 15.7249 6.45154C14.7449 6.45154 14.2423 5.33283 14.7797 4.57389C14.9393 4.34853 15.2514 4.2952 15.4767 4.45477C15.7021 4.61435 15.7554 4.92641 15.5958 5.15177C15.4999 5.28727 15.6028 5.44585 15.7184 5.45139L17.1742 5.39196C17.3439 5.38503 17.4972 5.46346 17.5928 5.58902H19.1057C19.4055 5.58902 19.5715 5.25389 19.3992 5.01921L19.1482 4.67724C19.0502 4.54367 19.079 4.35591 19.2126 4.25788ZM10.998 14.9748C10.9979 14.9748 10.998 14.9748 10.998 14.9748ZM10.9612 14.7776C10.9612 14.7776 10.9612 14.7776 10.9612 14.7776ZM10.76 14.7798C10.76 14.7799 10.76 14.7797 10.76 14.7798ZM11.2675 13.281C11.0786 13.4775 10.9324 13.7154 10.844 13.9798H6.56317L9.4704 9.66518L11.2675 13.281ZM11.4202 13.1389C11.4202 13.1389 11.4202 13.1388 11.4202 13.1389ZM13.173 12.7964C12.9952 12.7399 12.8058 12.7095 12.6093 12.7095C12.4439 12.7095 12.2836 12.731 12.131 12.7715L10.2524 8.9917H16.7956L13.173 12.7964ZM13.3753 12.874C13.3753 12.8739 13.3753 12.874 13.3753 12.874ZM11.7484 14.5704C11.7484 14.0949 12.1338 13.7095 12.6093 13.7095C13.0847 13.7095 13.4701 14.0949 13.4701 14.5704C13.4701 15.0458 13.0847 15.4312 12.6093 15.4312C12.1338 15.4312 11.7484 15.0458 11.7484 14.5704Z" fill="#4195B9"/>
<path fill-rule="evenodd" clip-rule="evenodd" d="M20.1395 10.1694C19.8633 10.1694 19.6395 10.3933 19.6395 10.6694C19.6395 10.9456 19.8633 11.1694 20.1395 11.1694C21.968 11.1694 23.4499 12.6514 23.4499 14.4799C23.4499 16.308 21.9679 17.7904 20.1395 17.7904C18.311 17.7904 16.829 16.308 16.829 14.4799C16.829 13.5988 17.1723 12.7993 17.7337 12.206C17.9236 12.0054 17.9148 11.6889 17.7143 11.4991C17.5137 11.3093 17.1972 11.3181 17.0074 11.5186C16.2771 12.2904 15.829 13.3333 15.829 14.4799C15.829 16.8602 17.7586 18.7904 20.1395 18.7904C22.5203 18.7904 24.4499 16.8602 24.4499 14.4799C24.4499 12.0991 22.5203 10.1694 20.1395 10.1694Z" fill="#699C69"/>
<path fill-rule="evenodd" clip-rule="evenodd" d="M1.94998 14.4799C1.94998 12.6581 3.44905 11.1694 5.31136 11.1694C5.50205 11.1694 5.68786 11.185 5.86855 11.215C6.14096 11.2603 6.39848 11.0761 6.44374 10.8037C6.489 10.5313 6.30486 10.2738 6.03245 10.2285C5.7973 10.1895 5.55666 10.1694 5.31136 10.1694C2.9093 10.1694 0.949982 12.0933 0.949982 14.4799C0.949982 16.8671 2.90935 18.7904 5.31136 18.7904C7.13603 18.7904 8.70161 17.6827 9.35175 16.1057C9.45701 15.8504 9.33537 15.5581 9.08007 15.4529C8.82478 15.3476 8.53249 15.4693 8.42724 15.7246C7.92853 16.9342 6.72328 17.7904 5.31136 17.7904C3.449 17.7904 1.94998 16.3022 1.94998 14.4799Z" fill="#699C69"/>
</g>
<defs>
<clipPath id="clip0_146_1549">
<rect width="24" height="24" fill="white" transform="translate(0.849976)"/>
</clipPath>
</defs>
</svg>
