<svg width="24" height="24" viewBox="0 0 24 24" fill="none" xmlns="http://www.w3.org/2000/svg">
<path d="M18.0006 5.5C18.0006 5.22386 17.7766 5 17.5003 5C17.224 5 17 5.22386 17 5.5V12.5C17 12.7761 17.224 13 17.5003 13C17.7766 13 18.0006 12.7761 18.0006 12.5V5.5Z" fill="#699C69"/>
<path fill-rule="evenodd" clip-rule="evenodd" d="M20.5 2H3.5C3.22386 2 3 2.22386 3 2.5V21.5L3.00635 21.5812C3.06053 21.9222 3.45087 22.1155 3.76026 21.9269L12 16.904L20.2397 21.9269C20.5729 22.13 21 21.8902 21 21.5V2.5C21 2.22386 20.7761 2 20.5 2ZM20 3V20.61L12.2603 15.8913L12.1773 15.8507C12.0346 15.7965 11.8729 15.8101 11.7397 15.8913L4 20.609V3H20Z" fill="#4195B9"/>
</svg>
