<svg width="24" height="24" viewBox="0 0 24 24" fill="none" xmlns="http://www.w3.org/2000/svg">
<path d="M12.45 7.8C13.75 7.8 14.85 6.75 14.85 5.4C14.85 4.05 13.75 3 12.45 3C11.15 3 10.05 4.05 10.05 5.4C10.05 6.75 11.15 7.8 12.45 7.8ZM12.45 4C13.2 4 13.85 4.6 13.85 5.4C13.85 6.15 13.25 6.8 12.45 6.8C11.7 6.8 11.05 6.2 11.05 5.4C11.05 4.65 11.7 4 12.45 4Z" fill="#4195B9"/>
<path d="M22.05 21.3999L19.45 8.84994C19.3 8.04994 18.55 7.44994 17.75 7.44994H16.95L17 7.29994C17.3 6.59994 17.4 5.84994 17.35 5.09994C17.2 2.84994 15.4 0.899942 13.15 0.599942C10.15 0.199942 7.54999 2.54994 7.54999 5.44994C7.54999 6.09994 7.64999 6.69994 7.89999 7.29994L7.94999 7.44994H7.14999C6.29999 7.44994 5.59999 8.04994 5.44999 8.84994L2.84999 21.3999C2.84999 21.4999 2.79999 21.6499 2.79999 21.7499C2.79999 22.6999 3.59999 23.4999 4.54999 23.4999H15.9C16.2 23.4999 16.4 23.2499 16.4 22.9999C16.4 22.6999 16.15 22.4999 15.9 22.4999H4.54999C4.14999 22.4999 3.79999 22.1499 3.79999 21.7499C3.79999 21.6999 3.79999 21.6499 3.79999 21.5999L6.44999 8.99994C6.49999 8.64994 6.84999 8.39994 7.19999 8.39994H8.84999C9.04999 8.39994 9.19999 8.29994 9.29999 8.14994C9.39999 7.99994 9.39999 7.79994 9.29999 7.69994C9.14999 7.39994 8.89999 7.09994 8.79999 6.79994C7.79999 3.89994 10.15 1.19994 13 1.59994C14.7 1.84994 16.05 3.19994 16.3 4.89994C16.45 5.89994 16.2 6.89994 15.65 7.69994C15.55 7.84994 15.55 8.04994 15.6 8.19994C15.7 8.34994 15.85 8.44994 16.05 8.44994H17.7C18.05 8.44994 18.35 8.69994 18.45 9.04994L21.05 21.5999C21.15 21.9999 20.85 22.3999 20.45 22.4999C20.4 22.4999 20.35 22.4999 20.3 22.4999H18.75C18.45 22.4999 18.25 22.7499 18.25 22.9999C18.25 23.2999 18.5 23.4999 18.75 23.4999H20.3C20.4 23.4999 20.55 23.4999 20.65 23.4499C21.1 23.3499 21.5 23.0999 21.75 22.6999C22.05 22.2999 22.15 21.8499 22.05 21.3999Z" fill="#4195B9"/>
<path d="M11.9 17.3999C11.8 17.2499 11.7 17.0999 11.55 16.8999C11.4 16.6999 11.3 16.5499 11.1 16.3499C10.95 16.1499 10.8 15.9999 10.6 15.7999C10.45 15.6499 10.25 15.4999 10.1 15.3499V17.3999H9V12.5999H10.1V14.3999C10.4 14.0999 10.65 13.7999 10.95 13.4999C11.25 13.1999 11.5 12.8999 11.75 12.5999H13.05C12.7 12.9999 12.4 13.3499 12.05 13.6999C11.7 14.0499 11.35 14.3999 11 14.7999C11.4 15.0999 11.75 15.4999 12.1 15.9499C12.45 16.3999 12.8 16.8499 13.15 17.3999H11.9Z" fill="#699C69"/>
<path d="M16.6 16.9499C16.6 17.5499 16.45 17.9999 16.15 18.2499C15.85 18.5499 15.4 18.6999 14.75 18.6999C14.55 18.6999 14.3 18.6999 14.1 18.6499C13.9 18.5999 13.65 18.5499 13.5 18.4999L13.7 17.6499C13.85 17.6999 14.05 17.7499 14.2 17.7999C14.4 17.8499 14.6 17.8499 14.8 17.8499C15.1 17.8499 15.3 17.7999 15.4 17.6499C15.5 17.4999 15.6 17.3499 15.6 17.1499V16.9999C15.5 17.0499 15.4 17.0999 15.25 17.0999C15.15 17.1499 15 17.1499 14.85 17.1499C14.35 17.1499 13.95 16.9999 13.7 16.6999C13.45 16.3999 13.3 15.9999 13.3 15.4499C13.3 15.1999 13.35 14.9499 13.4 14.6999C13.5 14.4999 13.6 14.2999 13.75 14.1499C13.9 13.9999 14.1 13.8499 14.35 13.7999C14.6 13.6999 14.85 13.6499 15.15 13.6499C15.25 13.6499 15.4 13.6499 15.55 13.6499C15.7 13.6499 15.8 13.6999 15.95 13.6999C16.1 13.6999 16.2 13.7499 16.3 13.7499C16.4 13.7499 16.5 13.7999 16.6 13.8499V16.9499ZM14.35 15.4999C14.35 16.0999 14.6 16.3499 15.05 16.3499C15.15 16.3499 15.25 16.3499 15.35 16.2999C15.45 16.2499 15.5 16.2499 15.6 16.1999V14.5499C15.55 14.5499 15.5 14.5499 15.4 14.5499C15.35 14.5499 15.25 14.5499 15.15 14.5499C14.9 14.5499 14.7 14.6499 14.55 14.7999C14.4 14.9999 14.35 15.1999 14.35 15.4999Z" fill="#699C69"/>
</svg>
