<svg width="24" height="24" viewBox="0 0 24 24" fill="none" xmlns="http://www.w3.org/2000/svg">
<g clip-path="url(#clip0_146_1502)">
<path d="M17.8 11.2C17.45 8.5 15.15 6.5 12.45 6.5C10.55 6.5 8.85 7.45 7.85 9.1C6.95 8.75 5.8 8.8 4.75 9.4C3.75 10 3.1 11.15 2.95 12.45C1.2 12.95 0 14.6 0 16.5C0 18.85 2 20.65 4.65 20.65H16.1C18.8 20.65 21 18.45 21 15.75C21 13.75 19.75 11.9 17.8 11.2ZM3.95 12.85C3.95 11.7 4.4 10.75 5.25 10.25C5.7 10 6.15 9.9 6.65 9.9C7.05 9.9 7.45 10 7.8 10.15C7.95 10.2 8.1 10.2 8.25 10.15C8.3 10.1 8.45 10.05 8.5 9.9C9.1 8.75 10.45 7.5 12.45 7.5C15 7.5 16.65 9.6 16.85 11.55C16.85 11.75 17 11.95 17.2 12.05C18.85 12.55 20 14.05 20 15.75C20 17.9 18.25 19.65 16.15 19.65H4.65C2.5 19.65 1 18.35 1 16.5C1 14.95 2.1 13.6 3.5 13.35C3.8 13.3 3.95 13.1 3.95 12.85Z" fill="#4195B9"/>
<path d="M20.8 7.05005C20.4 4.35005 18.1 2.30005 15.45 2.30005C13.55 2.30005 11.85 3.25005 10.85 4.90005C9.95003 4.55005 8.80003 4.60005 7.75003 5.20005C7.00003 5.65005 6.45003 6.40005 6.15003 7.30005C6.10003 7.45005 6.10003 7.60005 6.20003 7.75005C6.30003 7.90005 6.45003 7.95005 6.60003 7.95005C6.85003 7.95005 7.05003 7.80005 7.10003 7.60005C7.30003 6.95005 7.70003 6.40005 8.25003 6.05005C9.05003 5.60005 10 5.55005 10.8 5.95005C10.95 6.00005 11.1 6.00005 11.25 5.95005C11.3 5.90005 11.45 5.85005 11.5 5.70005C12.1 4.55005 13.45 3.30005 15.45 3.30005C18 3.30005 19.65 5.40005 19.85 7.35005C19.85 7.55005 20 7.75005 20.2 7.85005C21.85 8.35005 23 9.85005 23 11.55C23 13 22.7 13.65 21.7 14.3L21.65 14.35C21.6 14.4 21.45 14.55 21.45 14.7C21.4 14.9 21.5 15.05 21.65 15.2C21.75 15.25 21.85 15.3 21.95 15.3C22.05 15.3 22.15 15.25 22.25 15.2C23.5 14.4 24.05 13.35 24.05 11.6C24 9.60005 22.7 7.75005 20.8 7.05005Z" fill="#4195B9"/>
<path d="M9 15.2001L8.65 15.3501C8.6 15.3501 8.6 15.3501 8.55 15.4001C8.5 15.4001 8.45 15.4001 8.4 15.4501C8.3 15.4501 8.1 15.4501 8.05 15.4501C8 15.4501 7.95 15.4001 7.95 15.3501C7.9 15.3001 7.9 15.2501 7.9 15.2001C7.9 15.1501 7.85 15.0501 7.85 14.9501C7.85 14.8501 7.85 14.7501 7.9 14.7001C7.9 14.6501 7.95 14.6001 8 14.5501C8 14.5001 8.05 14.5001 8.05 14.5001C8.2 14.4501 8.35 14.4501 8.45 14.5001C8.55 14.5001 8.6 14.5501 8.65 14.6001L8.95 14.7501L9.3 13.8001L9.1 13.7001C9.1 13.7001 9.05 13.6501 9 13.6501C8.95 13.6001 8.9 13.6001 8.8 13.5501C8.75 13.5501 8.65 13.5001 8.55 13.5001C8.3 13.4501 7.9 13.4501 7.65 13.5501C7.45 13.6001 7.3 13.7501 7.15 13.8501C7 14.0001 6.9 14.1501 6.85 14.3501C6.75 14.5501 6.75 14.7501 6.75 15.0001C6.75 15.5001 6.9 15.8501 7.15 16.1501C7.4 16.4501 7.8 16.5501 8.25 16.5501C8.45 16.5501 8.65 16.5501 8.8 16.5001C8.95 16.4501 9.1 16.4001 9.2 16.3501L9.4 16.2501L9.15 15.5001L9 15.2001Z" fill="#699C69"/>
<path d="M12.2 13.8C12.05 13.65 11.9 13.55 11.7 13.5C11.35 13.35 10.95 13.35 10.55 13.5C10.35 13.55 10.2 13.65 10.05 13.8C9.89998 13.95 9.79998 14.1 9.69998 14.3C9.59998 14.5 9.59998 14.7 9.59998 14.95C9.59998 15.2 9.64998 15.4 9.69998 15.6C9.79998 15.8 9.89998 15.95 10.05 16.1C10.2 16.25 10.35 16.35 10.55 16.4C10.75 16.45 10.9 16.5 11.1 16.5C11.3 16.5 11.5 16.45 11.7 16.4C11.9 16.35 12.05 16.25 12.2 16.1C12.35 15.95 12.45 15.8 12.5 15.6C12.55 15.4 12.6 15.2 12.6 14.95C12.6 14.7 12.55 14.5 12.5 14.3C12.45 14.1 12.35 13.95 12.2 13.8ZM11.45 15.2C11.45 15.25 11.4 15.3 11.35 15.35C11.3 15.4 11.3 15.4 11.25 15.45C11.15 15.5 11.05 15.5 10.95 15.45C10.9 15.45 10.9 15.4 10.85 15.35C10.8 15.3 10.8 15.25 10.75 15.2C10.75 15.15 10.7 15.05 10.7 14.95C10.7 14.85 10.7 14.8 10.75 14.7C10.75 14.65 10.8 14.6 10.85 14.55C10.9 14.5 10.9 14.5 10.95 14.45C11 14.45 11.05 14.4 11.1 14.4C11.15 14.4 11.2 14.4 11.25 14.45C11.3 14.45 11.3 14.5 11.35 14.55C11.4 14.6 11.4 14.65 11.45 14.7C11.45 14.75 11.5 14.85 11.5 14.95C11.5 15.05 11.5 15.1 11.45 15.2Z" fill="#699C69"/>
<path d="M14.5 15.4501C14.55 15.4001 14.6 15.3501 14.65 15.3001C14.75 15.2001 14.8 15.1501 14.85 15.0501C14.9 14.9501 15 14.8501 15 14.7501C15.05 14.6501 15.1 14.5001 15.1 14.4001C15.1 14.2501 15.1 14.1501 15.05 14.0001C15 13.8501 14.95 13.7501 14.8 13.6501C14.7 13.5501 14.6 13.5001 14.45 13.4501C14.15 13.3501 13.75 13.3501 13.45 13.5001C13.3 13.6001 13.15 13.6501 13 13.8001L12.8 13.9501L13.4 14.8001L13.65 14.5501L13.7 14.5001C13.7 14.5001 13.75 14.4501 13.8 14.4501C13.85 14.4501 13.85 14.4001 13.9 14.4001C13.95 14.4001 13.95 14.4001 14 14.4001C14 14.4001 13.95 14.4501 13.95 14.5001C13.9 14.5501 13.9 14.6001 13.85 14.6001L13.5 15.0001C13.4 15.1001 13.35 15.1501 13.25 15.2501C13.2 15.3501 13.1 15.4501 13.05 15.6001C13.05 15.7001 13 15.8501 13 16.0001V16.1001C13 16.1501 13 16.2001 13 16.2501L13.05 16.5001H15.2V15.5001H14.5V15.4501Z" fill="#699C69"/>
</g>
<defs>
<clipPath id="clip0_146_1502">
<rect width="24" height="24" fill="white"/>
</clipPath>
</defs>
</svg>
