<svg width="24" height="24" viewBox="0 0 24 24" fill="none" xmlns="http://www.w3.org/2000/svg">
<path fill-rule="evenodd" clip-rule="evenodd" d="M18.5 1C18.7761 1 19 1.22386 19 1.5V2H21.5C21.7455 2 21.9496 2.17688 21.9919 2.41012L22 2.5V21.5C22 21.7761 21.7761 22 21.5 22H2.5C2.22386 22 2 21.7761 2 21.5V2.5C2 2.22386 2.22386 2 2.5 2H5V1.5C5 1.22386 5.22386 1 5.5 1C5.77614 1 6 1.22386 6 1.5V2H8V1.5C8 1.22386 8.22386 1 8.5 1C8.77614 1 9 1.22386 9 1.5V2H11.5V1.5C11.5 1.22386 11.7239 1 12 1C12.2761 1 12.5 1.22386 12.5 1.5V2H15V1.5C15 1.22386 15.2239 1 15.5 1C15.7761 1 16 1.22386 16 1.5V2H18V1.5C18 1.22386 18.2239 1 18.5 1ZM21 7H3V21H21V7ZM5 3H3V6H21V3H19V3.5C19 3.77614 18.7761 4 18.5 4C18.2239 4 18 3.77614 18 3.5V3H16V3.5C16 3.77614 15.7761 4 15.5 4C15.2239 4 15 3.77614 15 3.5V3H12.5V3.5C12.5 3.77614 12.2761 4 12 4C11.7239 4 11.5 3.77614 11.5 3.5V3H9V3.5C9 3.77614 8.77614 4 8.5 4C8.22386 4 8 3.77614 8 3.5V3H6V3.5C6 3.77614 5.77614 4 5.5 4C5.22386 4 5 3.77614 5 3.5V3Z" fill="#4195B9"/>
<path fill-rule="evenodd" clip-rule="evenodd" d="M8 9C8.27614 9 8.5 9.22386 8.5 9.5C8.5 9.77614 8.27614 10 8 10H6C5.72386 10 5.5 9.77614 5.5 9.5C5.5 9.22386 5.72386 9 6 9H8ZM8 13C8.27614 13 8.5 13.2239 8.5 13.5C8.5 13.7761 8.27614 14 8 14H6C5.72386 14 5.5 13.7761 5.5 13.5C5.5 13.2239 5.72386 13 6 13H8ZM8 17C8.27614 17 8.5 17.2239 8.5 17.5C8.5 17.7761 8.27614 18 8 18H6C5.72386 18 5.5 17.7761 5.5 17.5C5.5 17.2239 5.72386 17 6 17H8ZM13.125 9C13.3321 9 13.5 9.22386 13.5 9.5C13.5 9.77614 13.3321 10 13.125 10H10.875C10.6679 10 10.5 9.77614 10.5 9.5C10.5 9.22386 10.6679 9 10.875 9H13.125ZM13.125 13C13.3321 13 13.5 13.2239 13.5 13.5C13.5 13.7761 13.3321 14 13.125 14H10.875C10.6679 14 10.5 13.7761 10.5 13.5C10.5 13.2239 10.6679 13 10.875 13H13.125ZM13.125 17C13.3321 17 13.5 17.2239 13.5 17.5C13.5 17.7761 13.3321 18 13.125 18H10.875C10.6679 18 10.5 17.7761 10.5 17.5C10.5 17.2239 10.6679 17 10.875 17H13.125ZM18 9C18.2761 9 18.5 9.22386 18.5 9.5C18.5 9.77614 18.2761 10 18 10H16C15.7239 10 15.5 9.77614 15.5 9.5C15.5 9.22386 15.7239 9 16 9H18ZM18 13C18.2761 13 18.5 13.2239 18.5 13.5C18.5 13.7761 18.2761 14 18 14H16C15.7239 14 15.5 13.7761 15.5 13.5C15.5 13.2239 15.7239 13 16 13H18ZM18 17C18.2761 17 18.5 17.2239 18.5 17.5C18.5 17.7761 18.2761 18 18 18H16C15.7239 18 15.5 17.7761 15.5 17.5C15.5 17.2239 15.7239 17 16 17H18Z" fill="#699C69"/>
</svg>
