<svg width="24" height="24" viewBox="0 0 24 24" fill="none" xmlns="http://www.w3.org/2000/svg">
<path fill-rule="evenodd" clip-rule="evenodd" d="M10.8129 3.79464L1.25438 18.5174L1.25358 18.5186C0.991578 18.9196 0.969302 19.4316 1.19549 19.8538C1.42137 20.2754 1.8591 20.5404 2.33733 20.5451H16.235C16.5112 20.5451 16.735 20.769 16.735 21.0451C16.735 21.3212 16.5112 21.5451 16.235 21.5451H2.33081C1.48623 21.538 0.71285 21.0705 0.314006 20.326C-0.0847101 19.5817 -0.0455816 18.6792 0.416 17.9723C0.416148 17.9721 0.416296 17.9718 0.416444 17.9716L9.97832 3.2437C10.4045 2.60128 11.1241 2.21509 11.895 2.21509C12.6659 2.21509 13.3855 2.6013 13.8117 3.24371L13.8145 3.24802L23.365 17.9738C23.8251 18.6859 23.8591 19.5927 23.4536 20.3374C23.048 21.082 22.2679 21.5453 21.42 21.5451C21.42 21.5451 21.4201 21.5451 21.42 21.5451H19.095C18.8189 21.5451 18.595 21.3212 18.595 21.0451C18.595 20.769 18.8189 20.5451 19.095 20.5451H21.42C21.9017 20.5452 22.345 20.2821 22.5754 19.8591C22.8057 19.4361 22.7864 18.9211 22.5251 18.5166C22.5251 18.5165 22.5252 18.5166 22.5251 18.5166L12.9783 3.79649C12.9779 3.79583 12.9775 3.79517 12.977 3.79452C12.736 3.43259 12.3299 3.21509 11.895 3.21509C11.46 3.21509 11.0539 3.43264 10.8129 3.79464Z" fill="#4195B9"/>
<path fill-rule="evenodd" clip-rule="evenodd" d="M11.265 7.40517C11.265 7.06828 11.5381 6.79517 11.875 6.79517H12.155C12.4919 6.79517 12.765 7.06827 12.765 7.40517V14.8752C12.765 15.2121 12.4919 15.4852 12.155 15.4852H11.875C11.5381 15.4852 11.265 15.2121 11.265 14.8752V7.40517Z" fill="#699C69"/>
<path d="M11.88 17.925C12.1561 17.925 12.38 17.7012 12.38 17.425C12.38 17.1489 12.1561 16.925 11.88 16.925C11.6039 16.925 11.38 17.1489 11.38 17.425C11.38 17.7012 11.6039 17.925 11.88 17.925Z" fill="#699C69"/>
<path fill-rule="evenodd" clip-rule="evenodd" d="M10.88 17.425C10.88 16.8728 11.3277 16.425 11.88 16.425C12.4323 16.425 12.88 16.8728 12.88 17.425C12.88 17.9773 12.4323 18.425 11.88 18.425C11.3277 18.425 10.88 17.9773 10.88 17.425Z" fill="#699C69"/>
</svg>
