<svg width="24" height="24" viewBox="0 0 24 24" fill="none" xmlns="http://www.w3.org/2000/svg">
<path fill-rule="evenodd" clip-rule="evenodd" d="M11.6631 5.39302C11.6631 5.17596 11.839 5 12.0561 5C12.2732 5 12.4491 5.17596 12.4491 5.39302C12.4491 5.61008 12.2732 5.78605 12.0561 5.78605C11.839 5.78605 11.6631 5.61008 11.6631 5.39302ZM12.0561 4C11.2868 4 10.6631 4.62368 10.6631 5.39302C10.6631 5.98154 11.028 6.48482 11.544 6.68889L11.5 9.49219L12.4999 9.50787L12.5439 6.69824C13.0727 6.50053 13.4491 5.99074 13.4491 5.39302C13.4491 4.62368 12.8255 4 12.0561 4Z" fill="#699C69"/>
<path fill-rule="evenodd" clip-rule="evenodd" d="M16.2972 14.2607C15.8952 14.2607 15.5693 14.5866 15.5693 14.9886C15.5693 15.3907 15.8952 15.7166 16.2972 15.7166C16.6993 15.7166 17.0251 15.3907 17.0251 14.9886C17.0251 14.5866 16.6993 14.2607 16.2972 14.2607ZM14.5693 14.9886C14.5693 14.0344 15.3429 13.2607 16.2972 13.2607C17.2515 13.2607 18.0251 14.0344 18.0251 14.9886C18.0251 15.9429 17.2515 16.7166 16.2972 16.7166C15.3429 16.7166 14.5693 15.9429 14.5693 14.9886Z" fill="#699C69"/>
<path fill-rule="evenodd" clip-rule="evenodd" d="M7.92517 14.2607C7.52316 14.2607 7.19727 14.5866 7.19727 14.9886C7.19727 15.3907 7.52316 15.7166 7.92517 15.7166C8.32718 15.7166 8.65308 15.3907 8.65308 14.9886C8.65308 14.5866 8.32719 14.2607 7.92517 14.2607ZM6.19727 14.9886C6.19727 14.0344 6.97088 13.2607 7.92517 13.2607C8.87947 13.2607 9.65308 14.0344 9.65308 14.9886C9.65308 15.9429 8.87947 16.7166 7.92517 16.7166C6.97088 16.7166 6.19727 15.9429 6.19727 14.9886Z" fill="#699C69"/>
<path d="M12.0551 20.2344C13.3388 20.2344 14.3993 19.3972 14.3993 18.3926H9.71094C9.71094 19.3972 10.7714 20.2344 12.0551 20.2344Z" fill="#699C69"/>
<path fill-rule="evenodd" clip-rule="evenodd" d="M20.1462 18.9566C20.3697 19.1087 20.6397 19.1977 20.9305 19.1977C21.6585 19.1977 22.2563 18.6401 22.3202 17.9288C22.4856 18.0257 22.6783 18.0813 22.8839 18.0813C23.5004 18.0813 24.0001 17.5816 24.0001 16.965V14.7325C24.0001 14.116 23.5004 13.6162 22.8839 13.6162C22.8746 13.6162 22.8654 13.6163 22.8562 13.6165C22.9807 11.8198 23.0292 8.85582 21.8199 6.2489C21.159 4.82422 20.121 3.50215 18.5213 2.54058C16.9245 1.58074 14.8014 1 11.9999 1C9.19839 1 7.07524 1.58074 5.47849 2.54058C3.87884 3.50216 2.84093 4.82423 2.1801 6.24891C0.970884 8.85584 1.01946 11.8198 1.14406 13.6166C1.13483 13.6163 1.12557 13.6162 1.11628 13.6162C0.499775 13.6162 0 14.116 0 14.7325V16.965C0 17.5816 0.499775 18.0813 1.11628 18.0813C1.32209 18.0813 1.51489 18.0256 1.68043 17.9285C1.74419 18.64 2.34205 19.1977 3.07015 19.1977C3.41063 19.1977 3.72263 19.0757 3.96484 18.8731V22.1884C3.96484 23.1343 4.74684 23.9163 5.69275 23.9163H18.4183C19.449 23.9163 20.1462 23.1044 20.1462 22.1326V18.9566ZM3.08726 6.66969C2.11682 8.76186 2.02842 11.1476 2.10436 12.8883C2.35505 12.6478 2.69535 12.5 3.07015 12.5C3.41063 12.5 3.72263 12.6219 3.96484 12.8245V10.3558C3.96484 9.40993 4.74684 8.62793 5.69275 8.62793H18.4183C19.3642 8.62793 20.1462 9.40993 20.1462 10.3558V12.7411C20.3697 12.5889 20.6397 12.5 20.9305 12.5C21.3051 12.5 21.6452 12.6476 21.8959 12.8878C21.9717 11.1473 21.8832 8.7617 20.9127 6.66971C20.3235 5.39962 19.4109 4.24204 18.0061 3.39765C16.5985 2.55153 14.6635 2 11.9999 2C9.33624 2 7.40127 2.55153 5.99369 3.39765C4.58901 4.24203 3.67638 5.3996 3.08726 6.66969ZM3.4655 13.8953V17.8023C3.4655 18.0207 3.2885 18.1977 3.07015 18.1977C2.85181 18.1977 2.6748 18.0207 2.6748 17.8023V13.8953C2.6748 13.677 2.85181 13.5 3.07015 13.5C3.2885 13.5 3.4655 13.677 3.4655 13.8953ZM21.3259 13.8953V17.8023C21.3259 18.0207 21.1489 18.1977 20.9305 18.1977C20.7122 18.1977 20.5352 18.0207 20.5352 17.8023V13.8953C20.5352 13.677 20.7122 13.5 20.9305 13.5C21.1488 13.5 21.3259 13.677 21.3259 13.8953ZM23.0001 16.965V14.7325C23.0001 14.6683 22.9481 14.6162 22.8839 14.6162C22.8196 14.6162 22.7676 14.6683 22.7676 14.7325V16.965C22.7676 17.0293 22.8196 17.0813 22.8839 17.0813C22.9481 17.0813 23.0001 17.0293 23.0001 16.965ZM1.23256 14.7325V16.965C1.23256 17.0293 1.1805 17.0813 1.11628 17.0813C1.05206 17.0813 1 17.0293 1 16.965V14.7325C1 14.6683 1.05206 14.6162 1.11628 14.6162C1.1805 14.6162 1.23256 14.6683 1.23256 14.7325ZM4.96484 10.3558C4.96484 9.96221 5.29913 9.62793 5.69275 9.62793H18.4183C18.812 9.62793 19.1462 9.96221 19.1462 10.3558V22.1326C19.1462 22.6119 18.8388 22.9163 18.4183 22.9163H5.69275C5.29913 22.9163 4.96484 22.582 4.96484 22.1884V10.3558Z" fill="#4195B9"/>
</svg>
