<svg width="24" height="24" viewBox="0 0 24 24" fill="none" xmlns="http://www.w3.org/2000/svg">
<path fill-rule="evenodd" clip-rule="evenodd" d="M12 2C17.5228 2 22 6.47715 22 12C22 17.5228 17.5228 22 12 22C6.47715 22 2 17.5228 2 12C2 6.47715 6.47715 2 12 2ZM12 3C7.02944 3 3 7.02944 3 12C3 16.9706 7.02944 21 12 21C16.9706 21 21 16.9706 21 12C21 7.02944 16.9706 3 12 3Z" fill="#4195B9"/>
<path fill-rule="evenodd" clip-rule="evenodd" d="M16.2731 8.05026C16.4417 7.83155 16.7556 7.7909 16.9743 7.95947C17.1688 8.10931 17.2225 8.37403 17.1136 8.58462L17.0651 8.66072L11.4137 15.9933C11.24 16.2186 10.9198 16.2498 10.7066 16.0797L10.6398 16.0155L6.89415 11.6939C6.71329 11.4852 6.73583 11.1695 6.9445 10.9886C7.12999 10.8278 7.4001 10.8278 7.58486 10.9763L7.64981 11.039L10.994 14.8978L16.2731 8.05026Z" fill="#699C69"/>
</svg>
