<svg width="24" height="24" viewBox="0 0 24 24" fill="none" xmlns="http://www.w3.org/2000/svg">
<path fill-rule="evenodd" clip-rule="evenodd" d="M21.0206 1.5981C20.8437 1.44944 20.5793 1.47226 20.4303 1.64977L20.4282 1.65219L13.5617 9.72869C13.3829 9.93907 13.0673 9.96462 12.8569 9.78576C12.6465 9.60689 12.621 9.29134 12.7999 9.08096L19.6643 1.00688C19.6647 1.00643 19.6651 1.00599 19.6654 1.00555C20.1696 0.406273 21.0643 0.328575 21.664 0.832547C22.2638 1.33621 22.342 2.22972 21.8397 2.83005L13.9964 12.3316C13.8206 12.5446 13.5055 12.5747 13.2925 12.3989C13.0795 12.2231 13.0494 11.908 13.2252 11.695L21.0723 2.18887C21.2214 2.01129 21.198 1.74699 21.0206 1.5981Z" fill="#4195B9"/>
<path fill-rule="evenodd" clip-rule="evenodd" d="M12.1632 11.4874C10.9558 10.7054 9.40421 10.6967 8.18863 11.4649L8.18856 11.465L2.84565 14.8405L11.041 21.7218L13.3623 16.2578C13.3669 16.2469 13.372 16.2361 13.3774 16.2255C13.8505 15.3008 13.9624 14.2343 13.6157 13.2997C13.3456 12.5724 12.8478 11.9308 12.1632 11.4875L12.1632 11.4874ZM12.7068 10.6481C11.1722 9.65415 9.19986 9.64289 7.65445 10.6196C7.65442 10.6196 7.6544 10.6196 7.65437 10.6196L1.73295 14.3606C1.59803 14.4458 1.51191 14.5903 1.50114 14.7496C1.49038 14.9088 1.55626 15.0636 1.67848 15.1662L10.9155 22.9222C11.0369 23.0241 11.1994 23.0625 11.3536 23.0255C11.5077 22.9885 11.6352 22.8807 11.6972 22.7348L14.2759 16.6648C14.85 15.5328 15.0094 14.1814 14.5533 12.9519L14.5532 12.9517C14.2103 12.0281 13.5772 11.2118 12.7068 10.6481Z" fill="#4195B9"/>
<path fill-rule="evenodd" clip-rule="evenodd" d="M7.62879 10.8081C7.79855 10.6059 8.10006 10.5796 8.30223 10.7494L14.0312 15.5599C14.2334 15.7297 14.2597 16.0312 14.0899 16.2333C13.9202 16.4355 13.6187 16.4618 13.4165 16.292L7.68748 11.4815C7.48531 11.3118 7.45903 11.0103 7.62879 10.8081Z" fill="#4195B9"/>
<path fill-rule="evenodd" clip-rule="evenodd" d="M7.51716 14.3904C7.70378 14.5939 7.69008 14.9102 7.48655 15.0968L4.99405 17.3823C4.79052 17.5689 4.47423 17.5552 4.28761 17.3517C4.10098 17.1482 4.11468 16.8319 4.31821 16.6452L6.81071 14.3597C7.01424 14.1731 7.33053 14.1868 7.51716 14.3904Z" fill="#4195B9"/>
<path fill-rule="evenodd" clip-rule="evenodd" d="M10.5795 16.9614C10.8122 17.1101 10.8804 17.4192 10.7318 17.6519L8.91184 20.5024C8.76324 20.7352 8.45409 20.8034 8.22135 20.6548C7.9886 20.5062 7.92039 20.197 8.06899 19.9643L9.88899 17.1138C10.0376 16.8811 10.3467 16.8128 10.5795 16.9614Z" fill="#4195B9"/>
<path fill-rule="evenodd" clip-rule="evenodd" d="M6.99558 4.55591C7.18586 4.55591 7.35965 4.66391 7.4439 4.83453L7.90509 5.7685L8.93566 5.91863C9.12398 5.94607 9.2804 6.07803 9.33915 6.25904C9.39791 6.44005 9.34881 6.63873 9.2125 6.77153L8.46682 7.49805L8.64289 8.52491C8.67505 8.71249 8.59793 8.90207 8.44395 9.01393C8.28998 9.12579 8.08585 9.14054 7.91739 9.05197L6.99558 8.5673L6.07376 9.05197C5.90531 9.14054 5.70118 9.12579 5.5472 9.01393C5.39323 8.90207 5.31611 8.71249 5.34827 8.52491L5.52434 7.49805L4.77866 6.77153C4.64235 6.63873 4.59325 6.44005 4.652 6.25904C4.71076 6.07803 4.86718 5.94607 5.0555 5.91863L6.08606 5.7685L6.54726 4.83453C6.63151 4.66391 6.8053 4.55591 6.99558 4.55591ZM6.99558 6.18518L6.8664 6.44679C6.79358 6.59425 6.6529 6.69648 6.49016 6.72019L6.20202 6.76216L6.4105 6.96528C6.52839 7.08015 6.5822 7.24568 6.55439 7.40791L6.50509 7.69539L6.76289 7.55985C6.90856 7.48326 7.08259 7.48326 7.22826 7.55985L7.48606 7.69539L7.43677 7.40791C7.40895 7.24568 7.46276 7.08015 7.58066 6.96528L7.78913 6.76216L7.501 6.72019C7.33825 6.69648 7.19758 6.59425 7.12476 6.44679L6.99558 6.18518Z" fill="#699C69"/>
<path fill-rule="evenodd" clip-rule="evenodd" d="M17.7548 15.8386C17.9451 15.8386 18.1189 15.9466 18.2031 16.1172L18.6643 17.0512L19.6949 17.2013C19.8832 17.2288 20.0396 17.3607 20.0984 17.5418C20.1571 17.7228 20.108 17.9214 19.9717 18.0542L19.226 18.7808L19.4021 19.8076C19.4343 19.9952 19.3571 20.1848 19.2032 20.2966C19.0492 20.4085 18.8451 20.4233 18.6766 20.3347L17.7548 19.85L16.833 20.3347C16.6645 20.4233 16.4604 20.4085 16.3064 20.2966C16.1524 20.1848 16.0753 19.9952 16.1075 19.8076L16.2836 18.7808L15.5379 18.0542C15.4016 17.9214 15.3525 17.7228 15.4112 17.5418C15.47 17.3607 15.6264 17.2288 15.8147 17.2013L16.8453 17.0512L17.3065 16.1172C17.3907 15.9466 17.5645 15.8386 17.7548 15.8386ZM17.7548 17.4679L17.6256 17.7295C17.5528 17.877 17.4121 17.9792 17.2494 18.0029L16.9612 18.0449L17.1697 18.248C17.2876 18.3629 17.3414 18.5284 17.3136 18.6906L17.2643 18.9781L17.5221 18.8426C17.6678 18.766 17.8418 18.766 17.9875 18.8426L18.2453 18.9781L18.196 18.6906C18.1682 18.5284 18.222 18.3629 18.3399 18.248L18.5484 18.0449L18.2602 18.0029C18.0975 17.9792 17.9568 17.877 17.884 17.7295L17.7548 17.4679Z" fill="#699C69"/>
<path fill-rule="evenodd" clip-rule="evenodd" d="M19.623 8.64917C19.8132 8.64917 19.987 8.75717 20.0713 8.92779L20.5325 9.86176L21.563 10.0119C21.7514 10.0393 21.9078 10.1713 21.9665 10.3523C22.0253 10.5333 21.9762 10.732 21.8399 10.8648L21.0942 11.5913L21.2703 12.6182C21.3024 12.8058 21.2253 12.9953 21.0713 13.1072C20.9174 13.2191 20.7132 13.2338 20.5448 13.1452L19.623 12.6606L18.7011 13.1452C18.5327 13.2338 18.3286 13.2191 18.1746 13.1072C18.0206 12.9953 17.9435 12.8058 17.9757 12.6182L18.1517 11.5913L17.406 10.8648C17.2697 10.732 17.2206 10.5333 17.2794 10.3523C17.3381 10.1713 17.4946 10.0393 17.6829 10.0119L18.7134 9.86176L19.1746 8.92779C19.2589 8.75718 19.4327 8.64917 19.623 8.64917ZM19.623 10.2784L19.4938 10.5401C19.421 10.6875 19.2803 10.7897 19.1175 10.8134L18.8294 10.8554L19.0379 11.0585C19.1558 11.1734 19.2096 11.3389 19.1818 11.5012L19.1325 11.7887L19.3903 11.6531C19.5359 11.5765 19.71 11.5765 19.8556 11.6531L20.1134 11.7887L20.0642 11.5012C20.0363 11.3389 20.0901 11.1734 20.208 11.0585L20.4165 10.8554L20.1284 10.8134C19.9656 10.7897 19.825 10.6875 19.7521 10.5401L19.623 10.2784Z" fill="#699C69"/>
</svg>
