<svg width="24" height="25" viewBox="0 0 24 25" fill="none" xmlns="http://www.w3.org/2000/svg">
<path fill-rule="evenodd" clip-rule="evenodd" d="M12 1.70264C6.20101 1.70264 1.5 6.40365 1.5 12.2026C1.5 18.0016 6.20101 22.7026 12 22.7026C17.799 22.7026 22.5 18.0016 22.5 12.2026C22.5 6.40365 17.799 1.70264 12 1.70264ZM12 2.70264C17.2467 2.70264 21.5 6.95593 21.5 12.2026C21.5 17.4493 17.2467 21.7026 12 21.7026C6.75329 21.7026 2.5 17.4493 2.5 12.2026C2.5 6.95593 6.75329 2.70264 12 2.70264Z" fill="#4195B9"/>
<path fill-rule="evenodd" clip-rule="evenodd" d="M12 5.70264C12.2455 5.70264 12.4496 5.87951 12.4919 6.11276L12.5 6.20264V11.9956L16.3536 15.8491C16.5271 16.0226 16.5464 16.2921 16.4114 16.4869L16.3536 16.5562C16.18 16.7298 15.9106 16.749 15.7157 16.614L15.6464 16.5562L11.6464 12.5562C11.5714 12.4812 11.5227 12.3848 11.5062 12.2813L11.5 12.2026V6.20264C11.5 5.92649 11.7239 5.70264 12 5.70264Z" fill="#699C69"/>
</svg>
