<svg width="24" height="24" viewBox="0 0 24 24" fill="none" xmlns="http://www.w3.org/2000/svg">
<path fill-rule="evenodd" clip-rule="evenodd" d="M21.5 3H2.5C2.22386 3 2 3.22386 2 3.5V17.5L2.00806 17.5899C2.05039 17.8231 2.25454 18 2.5 18H5.5V22L5.50663 22.0838C5.56751 22.461 6.03417 22.6419 6.33448 22.3716L11.191 18H21.5C21.7761 18 22 17.7761 22 17.5V3.5C22 3.22386 21.7761 3 21.5 3ZM21 4V17H11L10.9085 17.0084C10.8186 17.0252 10.7344 17.0664 10.6655 17.1284L6.5 20.877V17.5L6.49194 17.4101C6.44961 17.1769 6.24546 17 6 17H3V4H21Z" fill="#4195B9"/>
<path fill-rule="evenodd" clip-rule="evenodd" d="M12 11.5C12.5523 11.5 13 11.0523 13 10.5C13 9.94772 12.5523 9.5 12 9.5C11.4477 9.5 11 9.94772 11 10.5C11 11.0523 11.4477 11.5 12 11.5ZM16 11.5C16.5523 11.5 17 11.0523 17 10.5C17 9.94772 16.5523 9.5 16 9.5C15.4477 9.5 15 9.94772 15 10.5C15 11.0523 15.4477 11.5 16 11.5ZM8 11.5C8.55228 11.5 9 11.0523 9 10.5C9 9.94772 8.55228 9.5 8 9.5C7.44772 9.5 7 9.94772 7 10.5C7 11.0523 7.44772 11.5 8 11.5Z" fill="#699C69"/>
</svg>
