<svg width="24" height="24" viewBox="0 0 24 24" fill="none" xmlns="http://www.w3.org/2000/svg">
<path d="M9.45 18.7C8.35 18.7 7.5 19.6 7.5 20.75C7.5 21.9 8.4 22.8 9.45 22.8C10.5 22.8 11.4 21.9 11.4 20.75C11.4 19.6 10.5 18.7 9.45 18.7ZM9.45 21.8C8.95 21.8 8.5 21.35 8.5 20.8C8.5 20.25 8.9 19.8 9.45 19.8C9.95 19.8 10.4 20.25 10.4 20.8C10.35 21.3 9.95 21.8 9.45 21.8Z" fill="#4195B9"/>
<path d="M18.5 18.7C17.4 18.7 16.55 19.6 16.55 20.75C16.55 21.9 17.45 22.8 18.5 22.8C19.6 22.8 20.45 21.9 20.45 20.75C20.45 19.6 19.6 18.7 18.5 18.7ZM18.5 21.8C18 21.8 17.55 21.35 17.55 20.8C17.55 20.25 17.95 19.8 18.5 19.8C19.05 19.8 19.45 20.25 19.45 20.8C19.45 21.3 19 21.8 18.5 21.8Z" fill="#4195B9"/>
<path d="M9.29999 3.10005C9.49999 3.30005 9.79999 3.35005 10.05 3.15005L10.85 2.40005C11 4.45005 11.75 5.65005 12.65 6.40005C12.8 6.35005 12.95 6.25005 13.1 6.20005C13.3 6.10005 13.55 6.00005 13.75 5.95005C12.8 5.35005 12.1 4.45005 11.9 2.50005L12.6 3.15005C12.8 3.35005 13.15 3.30005 13.35 3.10005C13.55 2.90005 13.5 2.55005 13.3 2.35005L11.7 0.900049C11.7 0.900049 11.7 0.900049 11.65 0.850049C11.65 0.850049 11.6 0.850049 11.6 0.800049H11.55H11.5H11.45H11.4C11.4 0.800049 11.4 0.800049 11.35 0.800049C11.3 0.800049 11.3 0.800049 11.25 0.800049H11.2H11.15H11.1H11.05C11.05 0.800049 11 0.800049 11 0.850049C11 0.850049 11 0.850049 10.95 0.850049L9.29999 2.35005C9.14999 2.60005 9.09999 2.90005 9.29999 3.10005Z" fill="#699C69"/>
<path d="M15 7.64995C16.35 8.14995 17.05 8.49995 17.05 9.64995C17.05 9.94995 17.3 10.15 17.55 10.15C17.85 10.15 18.05 9.89995 18.05 9.64995C18.05 8.04995 17.05 7.39995 16 6.94995C15.65 7.19995 15.3 7.44995 15 7.64995C14.95 7.64995 14.95 7.64995 15 7.64995Z" fill="#699C69"/>
<path d="M11.3 10.1501C11.6 10.1501 11.8 9.90015 11.8 9.65015C11.8 8.45015 12.4 8.15015 13.65 7.65015C13.85 7.55015 14.05 7.50015 14.25 7.40015C14.65 7.25015 15.05 7.00015 15.4 6.75015C16.4 6.00015 17.25 4.80015 17.4 2.45015L18.2 3.20015C18.25 3.20015 18.25 3.25015 18.3 3.25015C18.3 3.25015 18.3 3.25015 18.35 3.25015C18.35 3.25015 18.4 3.25015 18.4 3.30015H18.45H18.5H18.55H18.6H18.65H18.7H18.75H18.8C18.8 3.30015 18.85 3.30015 18.85 3.25015C18.85 3.25015 18.85 3.25015 18.9 3.25015C18.95 3.25015 18.95 3.20015 19 3.20015C19.2 3.00015 19.2 2.65015 18.95 2.45015L17.3 0.950146C17.3 0.950146 17.3 0.950146 17.25 0.950146C17.25 0.950146 17.25 0.950146 17.2 0.900146H17.15H17.1H17.05C17.05 0.900146 17.05 0.900146 17 0.900146C16.95 0.900146 16.95 0.900146 16.9 0.900146C16.9 0.900146 16.9 0.900146 16.85 0.900146H16.8H16.75H16.7H16.65C16.65 0.900146 16.6 0.900146 16.6 0.950146C16.6 0.950146 16.55 0.950146 16.55 1.00015L15 2.35015C14.8 2.55015 14.75 2.85015 14.95 3.10015C14.95 3.15015 15 3.15015 15.05 3.15015C15.05 3.15015 15.05 3.15015 15.1 3.15015C15.1 3.15015 15.15 3.15015 15.15 3.20015H15.2H15.25H15.3H15.35H15.4H15.45H15.5H15.55C15.55 3.20015 15.6 3.20015 15.6 3.15015C15.6 3.15015 15.6 3.15015 15.65 3.15015C15.7 3.15015 15.7 3.10015 15.75 3.10015L16.5 2.45015C16.3 4.75015 15.4 5.65015 14.35 6.20015C14.05 6.35015 13.7 6.50015 13.35 6.65015C13.3 6.70015 13.25 6.70015 13.15 6.75015C12.05 7.20015 10.85 7.80015 10.85 9.65015C10.8 9.95015 11 10.1501 11.3 10.1501Z" fill="#699C69"/>
<path d="M7.75 8.8501H9.75C10.05 8.8501 10.25 8.6501 10.25 8.3501C10.25 8.0501 10.05 7.8501 9.75 7.8501H7.75C7.45 7.8501 7.25 8.1001 7.25 8.3501C7.25 8.6501 7.5 8.8501 7.75 8.8501Z" fill="#4195B9"/>
<path d="M22.6 7.85H18.9C18.6 7.85 18.4 8.05 18.4 8.35C18.4 8.65 18.6 8.85 18.9 8.85H21.85L20.9 12.55H9.39999C9.09999 12.55 8.89999 12.8 8.89999 13.05C8.89999 13.3 9.14999 13.55 9.39999 13.55H20.6L19.8 16.55H8.19999L4.69999 5.6C4.59999 5.4 4.44999 5.25 4.19999 5.25H1.39999C1.09999 5.25 0.899994 5.5 0.899994 5.75C0.899994 6 1.14999 6.25 1.39999 6.25H3.84999L7.34999 17.2C7.44999 17.4 7.59999 17.55 7.84999 17.55H20.25C20.5 17.55 20.7 17.4 20.75 17.2L23.1 8.45C23.1 8.4 23.15 8.35 23.15 8.3C23.15 8.1 22.9 7.85 22.6 7.85Z" fill="#4195B9"/>
</svg>
