<svg width="24" height="24" viewBox="0 0 24 24" fill="none" xmlns="http://www.w3.org/2000/svg">
<path d="M20.4571 11.8272C20.3151 11.8249 20.178 11.8788 20.0761 11.977C19.9742 12.0752 19.916 12.2097 19.9143 12.3506L19.9143 17.1083C19.8911 18.4242 18.7982 19.4731 17.4714 19.4527L5.52857 19.4527C4.20183 19.4731 3.10891 18.4242 3.08571 17.1083L3.08571 12.273C3.084 12.1321 3.02577 11.9977 2.9239 11.8995C2.82203 11.8013 2.6849 11.7473 2.54286 11.7496C2.40081 11.7473 2.26369 11.8013 2.16182 11.8995C2.05994 11.9977 2.00171 12.1321 2 12.273L2 17.1083C2.03034 19.0112 3.6101 20.5294 5.52857 20.4994L17.4714 20.4994C19.3899 20.5294 20.9697 19.0112 21 17.1083L21 12.3506C20.9952 12.0576 20.7525 11.8236 20.4571 11.8272Z" fill="#4195B9"/>
<path d="M14.6292 12.0699L12.0539 14.6049L12.0539 3.54952C12.0539 3.2462 11.806 3.0003 11.5002 3.0003C11.1944 3.0003 10.9465 3.2462 10.9465 3.54952L10.9465 14.6049L8.37117 12.0699C8.26754 11.9676 8.12762 11.9096 7.9814 11.9084C7.83465 11.907 7.69373 11.9654 7.59163 12.0699C7.48684 12.1713 7.42774 12.3103 7.42774 12.4555C7.42774 12.6006 7.48684 12.7396 7.59163 12.841L11.1104 16.3043C11.2143 16.4063 11.3541 16.4642 11.5002 16.4658C11.6468 16.4664 11.7874 16.4081 11.89 16.3043L15.4088 12.841C15.5136 12.7396 15.5727 12.6006 15.5727 12.4555C15.5727 12.3103 15.5136 12.1713 15.4088 12.0699C15.192 11.8601 14.846 11.8601 14.6292 12.0699Z" fill="#699C69"/>
</svg>
