<svg width="25" height="25" viewBox="0 0 25 25" fill="none" xmlns="http://www.w3.org/2000/svg">
<path fill-rule="evenodd" clip-rule="evenodd" d="M23.9607 12.4998C23.9607 6.31418 18.9464 1.2998 12.7607 1.2998C6.5751 1.2998 1.56073 6.31418 1.56073 12.4998C1.56073 18.6852 6.5751 23.6998 12.7607 23.6998C18.9464 23.6998 23.9607 18.6852 23.9607 12.4998ZM23.0107 12.4998C23.0107 18.1514 18.4124 22.7498 12.7607 22.7498C7.1089 22.7498 2.51073 18.1514 2.51073 12.4998C2.51073 6.84797 7.1089 2.2498 12.7607 2.2498C18.4124 2.2498 23.0107 6.84798 23.0107 12.4998Z" fill="#4195B9"/>
<path d="M17.8943 7.83293L17.965 7.90364L17.47 7.40867L17.3993 7.33796L17.3993 7.33796L12.684 12.0529L8.12218 7.49108C8.12218 7.49108 8.12218 7.49108 8.12218 7.49108C7.96597 7.33487 7.7127 7.33487 7.55649 7.49108C7.40029 7.64729 7.40028 7.90056 7.55649 8.05677C7.55649 8.05677 7.55649 8.05677 7.55649 8.05677L12.1184 12.6188L7.64124 17.096C7.48503 17.2522 7.48503 17.5055 7.64124 17.6617C7.79745 17.8179 8.05072 17.8179 8.20693 17.6617L8.13621 17.591L8.20693 17.6617L12.684 13.1844L17.1024 17.6027C17.2586 17.7589 17.5119 17.7589 17.6681 17.6027C17.8243 17.4465 17.8243 17.1932 17.6681 17.037L17.5974 17.1077L17.6681 17.037L13.2497 12.6188L17.965 7.90365L17.8943 7.83293Z" fill="#699C69" stroke="#699C69" stroke-width="0.2"/>
</svg>
