<svg width="24" height="24" viewBox="0 0 24 24" fill="none" xmlns="http://www.w3.org/2000/svg">
<path d="M12 1.8501C14.7109 1.8501 17.2602 2.90607 19.1772 4.82295C21.094 6.73982 22.15 9.28927 22.15 12.0001C22.15 14.7109 21.094 17.2603 19.1772 19.1773C17.2602 21.0941 14.7108 22.1501 12 22.1501C10.1292 22.1501 8.32035 21.6435 6.73495 20.6788L6.48101 20.5181L3.11091 21.5659C2.98305 21.6055 2.84753 21.5958 2.72933 21.5429L2.64432 21.4952L2.56815 21.4318C2.44993 21.3134 2.39444 21.1486 2.4137 20.9861L2.43431 20.8892L3.48101 17.5181L3.32128 17.2651C2.48527 15.8911 1.99325 14.3493 1.87691 12.7447L1.85675 12.3734L1.85001 12.0001C1.85001 9.28925 2.90601 6.73981 4.82286 4.82295C6.73972 2.9061 9.28916 1.8501 12 1.8501ZM12 2.93135C6.99954 2.93135 2.93126 6.99963 2.93126 12.0001C2.93126 13.842 3.48046 15.6149 4.51978 17.1278C4.59468 17.237 4.62634 17.3688 4.61083 17.4981L4.5903 17.5942L3.77201 20.2271L6.40624 19.4096C6.43237 19.4016 6.45893 19.3955 6.48568 19.3914L6.56636 19.3853C6.67523 19.3853 6.78211 19.4183 6.87239 19.4804C8.38526 20.5196 10.1582 21.0689 12 21.0689C17.0005 21.0689 21.0688 17.0006 21.0688 12.0001C21.0688 6.99964 17.0005 2.93135 12 2.93135Z" fill="#4195B9"/>
<path d="M14.1778 7.40576C16.1256 7.40576 17.7054 9.10124 17.7054 11.1805C17.7054 12.3849 16.7733 13.8359 14.9469 15.5093C13.9587 16.4148 12.9746 17.1588 12.297 17.6151C12.2087 17.6746 12.1053 17.7058 11.9999 17.7058C11.8945 17.7058 11.7912 17.6746 11.7026 17.615L11.301 17.3357C11.2299 17.2849 11.1567 17.2319 11.0819 17.1769L10.6132 16.8234C10.1267 16.4469 9.59176 16.0032 9.05272 15.5093C7.22642 13.8358 6.29434 12.3849 6.29434 11.1805C6.29434 9.10127 7.87419 7.40576 9.82185 7.40576C10.5784 7.40576 11.3173 7.66938 11.9229 8.14852L11.999 8.2131L12.0769 8.14852C12.5613 7.76522 13.1311 7.51983 13.727 7.43701L13.9515 7.41362L14.1778 7.40576ZM14.1779 8.45764C13.5015 8.45764 12.871 8.75318 12.4001 9.29255C12.2994 9.40789 12.1535 9.474 12 9.474C11.8465 9.474 11.7007 9.40794 11.5998 9.29254C11.1289 8.75318 10.4984 8.45764 9.822 8.45764C8.46418 8.45764 7.35346 9.67627 7.35346 11.1805C7.35346 12.1634 8.43921 13.5625 9.95387 14.9176L10.3977 15.3032C10.7007 15.5589 11.0169 15.8114 11.3419 16.0576L11.8353 16.4216L11.999 16.5381L12.1645 16.4215C12.6634 16.0627 13.1477 15.6861 13.6022 15.3024L14.046 14.9167C15.4886 13.6258 16.5419 12.2956 16.639 11.3236L16.6463 11.1805C16.6463 9.67626 15.5357 8.45764 14.1779 8.45764Z" fill="#699C69"/>
</svg>
