<svg width="24" height="24" viewBox="0 0 24 24" fill="none" xmlns="http://www.w3.org/2000/svg">
<path d="M12 2.5C17.2467 2.5 21.5 6.75329 21.5 12C21.5 17.2467 17.2467 21.5 12 21.5C6.75329 21.5 2.5 17.2467 2.5 12C2.5 11.7239 2.72386 11.5 3 11.5C3.27614 11.5 3.5 11.7239 3.5 12C3.5 16.6944 7.30558 20.5 12 20.5C16.6944 20.5 20.5 16.6944 20.5 12C20.5 7.30558 16.6944 3.5 12 3.5C9.91375 3.5 7.94754 4.25434 6.41453 5.59252L7.87197 5.51732C8.1171 5.50448 8.33022 5.67043 8.38471 5.90114L8.39745 5.99047C8.4103 6.23559 8.24435 6.44872 8.01364 6.50321L7.92431 6.51595L5.09976 6.66398C4.85463 6.67683 4.64151 6.51088 4.58702 6.28017L4.57427 6.19084L4.42625 3.36628C4.41179 3.09052 4.62363 2.85525 4.89939 2.8408C5.14452 2.82796 5.35764 2.9939 5.41213 3.22462L5.42488 3.31395L5.516 5.057L5.60673 4.97307C7.34051 3.39425 9.60035 2.5 12 2.5Z" fill="#4195B9"/>
<path d="M12 6.0061C12.2455 6.0061 12.4496 6.18298 12.4919 6.41623L12.5 6.5061V11.8069L14.7046 14.238C14.8695 14.4199 14.8756 14.6899 14.7313 14.8779L14.6701 14.9443C14.4883 15.1092 14.2182 15.1153 14.0302 14.971L13.9639 14.9098L11.6296 12.3358C11.5671 12.2668 11.5254 12.1822 11.5085 12.0918L11.5 11.9999V6.5061C11.5 6.22996 11.7239 6.0061 12 6.0061Z" fill="#699C69"/>
</svg>
