<svg width="24" height="24" viewBox="0 0 24 24" fill="none" xmlns="http://www.w3.org/2000/svg">
<path fill-rule="evenodd" clip-rule="evenodd" d="M2.46904 19.9954C1.65685 19.9954 1.18606 19.0753 1.6617 18.4177L7.1462 10.8237C7.56678 10.2414 8.4333 10.2414 8.85388 10.8237L11.4914 14.477L14.8522 9.00249C15.2633 8.3325 16.2369 8.3325 16.648 9.0025L22.413 18.3976C22.842 19.0969 22.339 19.9955 21.5183 19.9955L2.46904 19.9954ZM7.95688 11.4092L2.47797 18.9954H13.5222L8.0432 11.4092C8.02178 11.3795 7.9783 11.3795 7.95688 11.4092ZM15.7045 9.52552L12.1268 15.3555L14.7555 18.9955H21.5183C21.5573 18.9955 21.5809 18.9534 21.5607 18.9205L15.7957 9.52551C15.7748 9.4915 15.7254 9.4915 15.7045 9.52552Z" fill="#699C69"/>
<path fill-rule="evenodd" clip-rule="evenodd" d="M21.5 4C22.3281 4 23 4.6515 23 5.45455V18.5455C23 19.3485 22.3281 20 21.5 20H2.5C1.67186 20 1 19.3485 1 18.5455V5.45455C1 4.6515 1.67186 4 2.5 4H21.5ZM21.5 5H2.5C2.22414 5 2 5.21641 2 5.48276V18.5172C2 18.7836 2.22414 19 2.5 19H21.5C21.7759 19 22 18.7836 22 18.5172V5.48276C22 5.21641 21.7759 5 21.5 5Z" fill="#4195B9"/>
</svg>
