<svg width="24" height="24" viewBox="0 0 24 24" fill="none" xmlns="http://www.w3.org/2000/svg">
<path fill-rule="evenodd" clip-rule="evenodd" d="M17.3604 3.5C18.5521 3.5 19.5781 4.34115 19.8118 5.50971L21.4903 13.9019C21.4961 13.9311 21.4993 13.9601 21.5 13.9886L21.5 14V19C21.5 20.3807 20.3807 21.5 19 21.5H5C3.61929 21.5 2.5 20.3807 2.5 19V14C2.5 13.998 2.50001 13.9959 2.50004 13.9939L2.50007 13.9856L2.50971 13.9019L4.18816 5.50971C4.42187 4.34115 5.44791 3.5 6.63961 3.5H17.3604ZM8.754 14.5H3.5V19C3.5 19.7797 4.09489 20.4204 4.85554 20.4931L5 20.5H19C19.8284 20.5 20.5 19.8284 20.5 19V14.5H15.244L15.117 14.657L15.0366 14.7565C14.1848 15.7614 13.3053 16.3426 12.393 16.4722L12.197 16.493L12 16.5C11.7155 16.5 11.4341 16.4566 11.1559 16.3706C11.0732 16.3448 10.9909 16.3155 10.9088 16.2825C10.7852 16.2331 10.6621 16.1749 10.5396 16.1083C10.4863 16.0788 10.4329 16.0481 10.3796 16.0157C9.89873 15.7248 9.42697 15.3034 8.96339 14.7565L8.961 14.754L8.78083 14.5341L8.754 14.5ZM17.3604 4.5H6.63961C5.92459 4.5 5.30896 5.00469 5.16874 5.70583L3.61 13.499L9 13.5C9.06948 13.5 9.13716 13.5144 9.19923 13.5414C9.24795 13.5626 9.29312 13.5914 9.333 13.627L9.32123 13.6168C9.3503 13.6412 9.37678 13.669 9.4 13.7C9.45407 13.7721 9.50799 13.842 9.56175 13.9096C9.72695 14.1169 9.88493 14.2974 10.0413 14.4587C10.7234 15.1618 11.3779 15.5 12 15.5H11.991L12.1011 15.497C12.1145 15.4962 12.1279 15.4953 12.1413 15.4942C12.1602 15.4928 12.1791 15.4909 12.1981 15.4888L12.1413 15.4942C12.196 15.4897 12.251 15.4827 12.3061 15.473L12.1981 15.4888C12.2383 15.4842 12.2786 15.4783 12.3191 15.4709L12.3061 15.473C12.3539 15.4647 12.4019 15.4543 12.4501 15.4421L12.3191 15.4709C12.3813 15.4596 12.4439 15.4449 12.5067 15.4269L12.4501 15.4421C12.5006 15.4292 12.5513 15.4141 12.6023 15.3968L12.5067 15.4269C12.5594 15.4118 12.6122 15.3944 12.6653 15.3746L12.6023 15.3968C12.6535 15.3795 12.705 15.3599 12.7567 15.3381L12.6653 15.3746C12.7174 15.3551 12.7697 15.3334 12.8222 15.3094L12.7567 15.3381C12.8061 15.3173 12.8557 15.2944 12.9055 15.2694L12.8222 15.3094C12.8784 15.2837 12.9349 15.2553 12.9917 15.2243L12.9055 15.2694C12.9582 15.243 13.0112 15.2143 13.0643 15.1833L12.9917 15.2243C13.0384 15.1987 13.0854 15.1714 13.1325 15.1422L13.0643 15.1833C13.1198 15.1509 13.1755 15.1159 13.2314 15.0785L13.1325 15.1422C13.1838 15.1104 13.2353 15.0764 13.2871 15.0403L13.2314 15.0785C13.2869 15.0413 13.3427 15.0016 13.3986 14.9593L13.2871 15.0403C13.341 15.0026 13.3951 14.9625 13.4494 14.9201L13.3986 14.9593C13.4444 14.9248 13.4902 14.8886 13.5362 14.8507L13.4494 14.9201C13.5069 14.8753 13.5645 14.8278 13.6224 14.7777L13.5362 14.8507C13.5944 14.8028 13.6528 14.7521 13.7115 14.6987L13.6224 14.7777C13.6722 14.7346 13.7221 14.6895 13.7721 14.6424L13.7115 14.6987C13.7682 14.6471 13.8252 14.5928 13.8824 14.536L13.7721 14.6424C13.8315 14.5867 13.891 14.5281 13.9508 14.4667L13.8824 14.536C13.9197 14.4989 13.9572 14.4606 13.9947 14.4213L13.9508 14.4667C14.0546 14.3602 14.159 14.2452 14.264 14.1217C14.3753 13.9908 14.4873 13.8502 14.6 13.7C14.6944 13.5741 14.8426 13.5 15 13.5L20.389 13.499L18.8313 5.70583C18.7004 5.05143 18.1554 4.56817 17.502 4.50664L17.3604 4.5Z" fill="#191C1D"/>
</svg>
