<svg width="24" height="24" viewBox="0 0 24 24" fill="none" xmlns="http://www.w3.org/2000/svg">
<path fill-rule="evenodd" clip-rule="evenodd" d="M14.1049 17.0089C14.6317 17.1022 14.6317 17.8978 14.1049 17.9911L14 18H10C9.72386 18 9.5 17.7761 9.5 17.5C9.5 17.2545 9.67688 17.0504 9.91012 17.0081L10 17H11.5V10H11C10.7545 10 10.5504 9.82312 10.5081 9.58988L10.5 9.5C10.5 9.25454 10.6769 9.05039 10.9101 9.00806L11 9H12C12.2455 9 12.4496 9.17688 12.4919 9.41012L12.5 9.5V17H14L14.1049 17.0089ZM12 7.5C12.4142 7.5 12.75 7.16421 12.75 6.75C12.75 6.33579 12.4142 6 12 6C11.5858 6 11.25 6.33579 11.25 6.75C11.25 7.16421 11.5858 7.5 12 7.5Z" fill="#699C69"/>
<path fill-rule="evenodd" clip-rule="evenodd" d="M12 1.5C6.20101 1.5 1.5 6.20101 1.5 12C1.5 17.799 6.20101 22.5 12 22.5C17.799 22.5 22.5 17.799 22.5 12C22.5 6.20101 17.799 1.5 12 1.5ZM12 2.5C17.2467 2.5 21.5 6.75329 21.5 12C21.5 17.2467 17.2467 21.5 12 21.5C6.75329 21.5 2.5 17.2467 2.5 12C2.5 6.75329 6.75329 2.5 12 2.5Z" fill="#4195B9"/>
</svg>
