<svg width="24" height="24" viewBox="0 0 24 24" fill="none" xmlns="http://www.w3.org/2000/svg">
<g clip-path="url(#clip0_146_1524)">
<path d="M23.35 22.8701H22.2V7.57012C22.2 6.72012 21.55 6.07012 20.7 6.07012H18.2V4.87012C18.2 4.07012 17.55 3.37012 16.7 3.37012H14.7C14.2 3.37012 14.2 3.37012 14.2 3.37012V1.62012C14.2 0.770117 13.55 0.120117 12.7 0.120117H10.7C9.90002 0.120117 9.20002 0.770117 9.20002 1.62012V5.87012C9.20002 5.87012 9.20002 5.87012 8.70002 5.87012H6.70002C5.85002 5.87012 5.20002 6.52012 5.20002 7.37012V12.3701H2.85002C2.00002 12.3701 1.35002 13.0201 1.35002 13.8701V22.8701H0.650024C0.350024 22.8701 0.150024 23.0701 0.150024 23.3701C0.150024 23.6701 0.350024 23.8701 0.650024 23.8701H23.3C23.6 23.8701 23.8 23.6701 23.8 23.3701C23.85 23.1201 23.6 22.8701 23.35 22.8701ZM2.35002 22.8701V13.8701C2.35002 13.6201 2.60002 13.3701 2.85002 13.3701H5.25002V22.8701H2.35002ZM9.20002 22.8701H6.20002V7.37012C6.20002 7.12012 6.45002 6.87012 6.70002 6.87012H8.70002C8.85002 6.87012 9.20002 6.87012 9.20002 6.87012V22.8701ZM13.2 22.8701H10.2V7.37012V1.62012C10.2 1.32012 10.4 1.12012 10.7 1.12012H12.7C12.95 1.12012 13.2 1.37012 13.2 1.62012V22.8701ZM17.2 22.8701H14.2V4.37012C14.2 4.37012 14.2 4.37012 14.7 4.37012H16.7C17 4.37012 17.2 4.57012 17.2 4.87012V22.8701ZM20.65 7.07012C20.9 7.07012 21.15 7.27012 21.15 7.57012V22.8701H18.15V7.07012H20.65Z" fill="#4195B9"/>
</g>
<defs>
<clipPath id="clip0_146_1524">
<rect width="24" height="24" fill="white"/>
</clipPath>
</defs>
</svg>
