<svg width="24" height="24" viewBox="0 0 24 24" fill="none" xmlns="http://www.w3.org/2000/svg">
<path fill-rule="evenodd" clip-rule="evenodd" d="M2.47498 5.78491C2.47498 5.50877 2.69883 5.28491 2.97498 5.28491H20.93C21.2061 5.28491 21.43 5.50877 21.43 5.78491C21.43 6.06105 21.2061 6.28491 20.93 6.28491H2.97498C2.69883 6.28491 2.47498 6.06105 2.47498 5.78491Z" fill="#4195B9"/>
<path fill-rule="evenodd" clip-rule="evenodd" d="M2.47498 5.78491C2.47498 5.50877 2.69883 5.28491 2.97498 5.28491H20.93C21.2061 5.28491 21.43 5.50877 21.43 5.78491C21.43 6.06105 21.2061 6.28491 20.93 6.28491H2.97498C2.69883 6.28491 2.47498 6.06105 2.47498 5.78491Z" fill="#4195B9"/>
<path fill-rule="evenodd" clip-rule="evenodd" d="M7.29498 20.75C7.29498 20.4739 7.51884 20.25 7.79498 20.25H16.11C16.3861 20.25 16.61 20.4739 16.61 20.75C16.61 21.0261 16.3861 21.25 16.11 21.25H7.79498C7.51884 21.25 7.29498 21.0261 7.29498 20.75Z" fill="#4195B9"/>
<path fill-rule="evenodd" clip-rule="evenodd" d="M11.955 2.125C12.2311 2.125 12.455 2.34886 12.455 2.625V20.58C12.455 20.8561 12.2311 21.08 11.955 21.08C11.6788 21.08 11.455 20.8561 11.455 20.58V2.625C11.455 2.34886 11.6788 2.125 11.955 2.125Z" fill="#4195B9"/>
<path fill-rule="evenodd" clip-rule="evenodd" d="M11.955 5.36011C11.7672 5.36011 11.615 5.51233 11.615 5.70011C11.615 5.88788 11.7672 6.04011 11.955 6.04011C12.1428 6.04011 12.295 5.88788 12.295 5.70011C12.295 5.51233 12.1428 5.36011 11.955 5.36011ZM10.615 5.70011C10.615 4.96005 11.2149 4.36011 11.955 4.36011C12.6951 4.36011 13.295 4.96005 13.295 5.70011C13.295 6.44017 12.6951 7.04011 11.955 7.04011C11.2149 7.04011 10.615 6.44017 10.615 5.70011Z" fill="#4195B9"/>
<path fill-rule="evenodd" clip-rule="evenodd" d="M17.5163 5.36507C17.7201 5.36153 17.9056 5.48207 17.9853 5.66973L20.5603 11.7397C20.6681 11.9939 20.5494 12.2874 20.2952 12.3953C20.041 12.5031 19.7475 12.3845 19.6397 12.1303L17.5481 7.1999L15.6618 12.1142C15.5628 12.372 15.2736 12.5007 15.0158 12.4018C14.758 12.3028 14.6292 12.0136 14.7282 11.7558L17.0582 5.68581C17.1312 5.49551 17.3125 5.3686 17.5163 5.36507Z" fill="#4195B9"/>
<path fill-rule="evenodd" clip-rule="evenodd" d="M6.12627 5.36507C6.33008 5.36153 6.51563 5.48207 6.59524 5.66973L9.17024 11.7397C9.27808 11.9939 9.15942 12.2874 8.90521 12.3953C8.651 12.5031 8.35749 12.3845 8.24965 12.1303L6.15811 7.1999L4.27174 12.1142C4.17278 12.372 3.88357 12.5007 3.62576 12.4018C3.36796 12.3028 3.23919 12.0136 3.33815 11.7558L5.66815 5.68581C5.7412 5.49551 5.92246 5.3686 6.12627 5.36507Z" fill="#4195B9"/>
<path fill-rule="evenodd" clip-rule="evenodd" d="M2.08531 11.9167C2.09517 11.6479 2.31596 11.4351 2.58497 11.4351H10.02C10.289 11.4351 10.5098 11.6479 10.5196 11.9167C10.5763 13.4603 9.78508 14.9114 8.45698 15.7C7.12887 16.4886 5.47607 16.4886 4.14796 15.7C2.81986 14.9114 2.02869 13.4603 2.08531 11.9167ZM3.103 12.4351C3.21557 13.4267 3.78475 14.3213 4.65851 14.8401C5.6719 15.4418 6.93304 15.4418 7.94643 14.8401C8.82019 14.3213 9.38937 13.4267 9.50194 12.4351H3.103Z" fill="#699C69"/>
<path fill-rule="evenodd" clip-rule="evenodd" d="M13.47 11.9351C13.47 11.6589 13.6938 11.4351 13.97 11.4351H21.41C21.6861 11.4351 21.91 11.6589 21.91 11.9351C21.91 14.2657 20.0206 16.1551 17.69 16.1551C15.3593 16.1551 13.47 14.2657 13.47 11.9351ZM14.5086 12.4351C14.7488 13.976 16.0817 15.1551 17.69 15.1551C19.2983 15.1551 20.6312 13.976 20.8714 12.4351H14.5086Z" fill="#699C69"/>
</svg>
