<svg width="24" height="24" viewBox="0 0 24 24" fill="none" xmlns="http://www.w3.org/2000/svg">
<path fill-rule="evenodd" clip-rule="evenodd" d="M3.37198 18.5C3.60386 17.8377 3.82931 17.2013 4.04831 16.5909C4.26731 15.9805 4.48631 15.3831 4.70531 14.7987H11.2174C11.4235 15.3831 11.6361 15.9805 11.8551 16.5909C12.0741 17.2013 12.306 17.8377 12.5507 18.5H14C13.4718 17.0974 12.9823 15.789 12.5314 14.5747C12.0805 13.3604 11.6393 12.211 11.2077 11.1266C10.7762 10.0422 10.3478 9 9.92271 8C9.49758 7 9.0467 6 8.57005 5H7.41063C6.93398 6 6.48309 7 6.05797 8C5.63285 9 5.20451 10.0422 4.77295 11.1266C4.34138 12.211 3.90016 13.3604 3.44928 14.5747C2.99839 15.789 2.5153 17.0974 2 18.5H3.37198ZM10.8116 13.6688H5.11111C5.60064 12.3312 6.07407 11.0844 6.5314 9.92857C6.98873 8.77273 7.46216 7.63636 7.95169 6.51948C8.44122 7.63636 8.91787 8.77273 9.38164 9.92857C9.84541 11.0844 10.3221 12.3312 10.8116 13.6688Z" fill="#4195B9"/>
<path fill-rule="evenodd" clip-rule="evenodd" d="M18.2402 18.5C18.6601 18.5 19.0702 18.4838 19.4705 18.4514C19.8707 18.419 20.2349 18.3769 20.563 18.325C20.8911 18.2731 21.1798 18.2245 21.4291 18.1792C21.6785 18.1338 21.8688 18.0917 22 18.0528V11.7139C22 11.1824 21.9344 10.6898 21.8032 10.2361C21.6719 9.78241 21.4619 9.39028 21.1732 9.05972C20.8845 8.72917 20.5072 8.46991 20.0413 8.28194C19.5755 8.09398 19.0079 8 18.3386 8C17.6824 8 17.1214 8.04537 16.6555 8.13611C16.1896 8.22685 15.8451 8.32407 15.622 8.42778L15.7992 9.53611C15.9698 9.4713 16.2388 9.38704 16.6063 9.28333C16.9738 9.17963 17.5315 9.12778 18.2795 9.12778C18.8045 9.12778 19.2277 9.2088 19.5492 9.37083C19.8707 9.53287 20.1201 9.74676 20.2972 10.0125C20.4744 10.2782 20.5892 10.5764 20.6417 10.9069C20.6942 11.2375 20.7205 11.5778 20.7205 11.9278V12.55C20.668 12.5241 20.5728 12.4949 20.435 12.4625C20.2972 12.4301 20.1332 12.3977 19.9429 12.3653C19.7526 12.3329 19.5558 12.3069 19.3524 12.2875C19.1489 12.2681 18.9554 12.2583 18.7717 12.2583C18.1549 12.2583 17.584 12.3167 17.0591 12.4333C16.5341 12.55 16.0814 12.7347 15.7008 12.9875C15.3202 13.2403 15.0249 13.5611 14.815 13.95C14.605 14.3389 14.5 14.8056 14.5 15.35C14.5 15.9204 14.5951 16.4032 14.7854 16.7986C14.9757 17.194 15.2382 17.5181 15.5728 17.7708C15.9075 18.0236 16.3012 18.2083 16.7539 18.325C17.2067 18.4417 17.7021 18.5 18.2402 18.5ZM18.4567 17.3722C18.0499 17.3722 17.6857 17.3366 17.3642 17.2653C17.0427 17.194 16.7671 17.0806 16.5374 16.925C16.3077 16.7694 16.1306 16.562 16.0059 16.3028C15.8812 16.0435 15.8189 15.7259 15.8189 15.35C15.8189 14.9222 15.9108 14.5787 16.0945 14.3194C16.2782 14.0602 16.5144 13.856 16.8031 13.7069C17.0919 13.5579 17.4068 13.4606 17.748 13.4153C18.0892 13.3699 18.4173 13.3472 18.7323 13.3472C19.2835 13.3472 19.7165 13.3829 20.0315 13.4542C20.3465 13.5255 20.5761 13.5935 20.7205 13.6583V17.1972C20.458 17.2491 20.1398 17.2912 19.7657 17.3236C19.3917 17.356 18.9554 17.3722 18.4567 17.3722Z" fill="#699C69"/>
</svg>
