<svg width="24" height="24" viewBox="0 0 24 24" fill="none" xmlns="http://www.w3.org/2000/svg">
<path fill-rule="evenodd" clip-rule="evenodd" d="M13.5 12C13.7761 12 14 12.2239 14 12.5V16.5C14 16.7761 13.7761 17 13.5 17H10.5C10.2239 17 10 16.7761 10 16.5V12.5C10 12.2239 10.2239 12 10.5 12H13.5ZM13 13H11V16H13V13Z" fill="#699C69"/>
<path fill-rule="evenodd" clip-rule="evenodd" d="M12 2C16.4183 2 20 5.58172 20 10C20 12.2091 19.1046 14.2091 17.6569 15.6569C16.92 16.3937 16.04 16.9875 15.0622 17.393C14.1189 17.7841 13.0847 18 12 18C10.9153 18 9.88106 17.7841 8.93783 17.393C7.96002 16.9875 7.08004 16.3937 6.34315 15.6569C4.89543 14.2091 4 12.2091 4 10C4 5.58172 7.58172 2 12 2ZM12 3C8.13401 3 5 6.13401 5 10C5 11.933 5.7835 13.683 7.05025 14.9497C7.69503 15.5945 8.46501 16.1141 9.3206 16.4689C10.1459 16.8111 11.0509 17 12 17C15.866 17 19 13.866 19 10C19 6.13401 15.866 3 12 3Z" fill="#4195B9"/>
<path fill-rule="evenodd" clip-rule="evenodd" d="M13.5 19C13.7761 19 14 19.2239 14 19.5V21.5C14 21.7761 13.7761 22 13.5 22H10.5C10.2239 22 10 21.7761 10 21.5V19.5C10 19.2239 10.2239 19 10.5 19H13.5ZM13 20H11V21H13V20Z" fill="#4195B9"/>
<path fill-rule="evenodd" clip-rule="evenodd" d="M15.5 16C15.7761 16 16 16.2239 16 16.5V19.5C16 19.7761 15.7761 20 15.5 20H8.5C8.22386 20 8 19.7761 8 19.5V16.5C8 16.2239 8.22386 16 8.5 16H15.5ZM15 17H9V19H15V17Z" fill="#4195B9"/>
<path d="M15 17H9V19H15V17Z" fill="white"/>
</svg>
