<svg width="24" height="24" viewBox="0 0 24 24" fill="none" xmlns="http://www.w3.org/2000/svg">
<path fill-rule="evenodd" clip-rule="evenodd" d="M9.6014 11.3264C9.79666 11.1311 10.1132 11.1311 10.3085 11.3264L12.0004 13.0183L13.6968 11.3259C13.8923 11.1309 14.2089 11.1313 14.4039 11.3268C14.599 11.5223 14.5986 11.8389 14.4031 12.0339L12.3531 14.0789C12.1577 14.2738 11.8415 14.2736 11.6464 14.0785L9.6014 12.0335C9.40614 11.8382 9.40614 11.5216 9.6014 11.3264Z" fill="#4195B9"/>
<path fill-rule="evenodd" clip-rule="evenodd" d="M12 13.2251C12.2761 13.2251 12.5 13.449 12.5 13.7251V19.1201C12.5 19.3962 12.2761 19.6201 12 19.6201C11.7239 19.6201 11.5 19.3962 11.5 19.1201V13.7251C11.5 13.449 11.7239 13.2251 12 13.2251Z" fill="#4195B9"/>
<path fill-rule="evenodd" clip-rule="evenodd" d="M5.77947 9.0161C6.98276 6.04092 10.1243 4.33433 13.2751 4.94423C16.426 5.55413 18.7038 8.30975 18.71 11.519L18.21 11.52L18.71 11.5185C18.71 11.5187 18.71 11.5189 18.71 11.519C18.7168 13.7876 17.5735 15.9051 15.673 17.1439L15.6704 17.1456C15.1765 17.4632 14.8743 18.0067 14.865 18.5937V18.59H14.365L14.8649 18.597C14.8649 18.5959 14.8649 18.5948 14.865 18.5937V19.12C14.865 19.3962 14.6411 19.62 14.365 19.62H9.65495C9.37881 19.62 9.15495 19.3962 9.15495 19.12V18.5988C9.15497 18.5999 9.15499 18.6011 9.15501 18.6022L9.65495 18.595H9.15495V18.5988C9.14543 18.0125 8.84034 17.4705 8.34379 17.1583L8.33701 17.1539C5.64808 15.402 4.57617 11.9913 5.77947 9.0161ZM13.0851 5.926C10.4039 5.407 7.73048 6.85925 6.70651 9.39104C5.68302 11.9217 6.59388 14.8226 8.87976 16.314C9.66185 16.8076 10.1417 17.663 10.1549 18.5879L10.155 18.595V18.62H13.865V18.583C13.8779 17.6601 14.3522 16.8051 15.1281 16.3054C16.744 15.2516 17.716 13.4508 17.71 11.5216L17.71 11.521C17.7047 8.78996 15.7664 6.44501 13.0851 5.926Z" fill="#4195B9"/>
<path fill-rule="evenodd" clip-rule="evenodd" d="M9.19495 21.0649C9.19495 20.7888 9.4188 20.5649 9.69495 20.5649H14.4049C14.6811 20.5649 14.9049 20.7888 14.9049 21.0649C14.9049 21.3411 14.6811 21.5649 14.4049 21.5649H9.69495C9.4188 21.5649 9.19495 21.3411 9.19495 21.0649Z" fill="#4195B9"/>
<path fill-rule="evenodd" clip-rule="evenodd" d="M10.1899 23.0549C10.1899 22.7788 10.4138 22.5549 10.6899 22.5549H13.4149C13.6911 22.5549 13.9149 22.7788 13.9149 23.0549C13.9149 23.3311 13.6911 23.5549 13.4149 23.5549H10.6899C10.4138 23.5549 10.1899 23.3311 10.1899 23.0549Z" fill="#4195B9"/>
<path fill-rule="evenodd" clip-rule="evenodd" d="M11.96 1.01001C12.2361 1.01001 12.46 1.23387 12.46 1.51001V3.23001C12.46 3.50615 12.2361 3.73001 11.96 3.73001C11.6838 3.73001 11.46 3.50615 11.46 3.23001V1.51001C11.46 1.23387 11.6838 1.01001 11.96 1.01001Z" fill="#699C69"/>
<path fill-rule="evenodd" clip-rule="evenodd" d="M20.9764 5.25537C21.1613 5.4605 21.1448 5.77666 20.9397 5.96152L19.6747 7.10152C19.4696 7.28638 19.1534 7.26995 18.9685 7.06482C18.7837 6.85968 18.8001 6.54353 19.0052 6.35866L20.2702 5.21866C20.4754 5.0338 20.7915 5.05023 20.9764 5.25537Z" fill="#699C69"/>
<path fill-rule="evenodd" clip-rule="evenodd" d="M3.71789 5.2561C3.90235 5.0506 4.21847 5.03355 4.42397 5.21801L5.69397 6.35801C5.89946 6.54247 5.91652 6.85859 5.73205 7.06409C5.54759 7.26959 5.23147 7.28664 5.02597 7.10218L3.75597 5.96218C3.55048 5.77772 3.53343 5.46159 3.71789 5.2561Z" fill="#699C69"/>
</svg>
