<svg width="24" height="24" viewBox="0 0 24 24" fill="none" xmlns="http://www.w3.org/2000/svg">
<path d="M11.4227 20.7071C11.425 20.5651 11.3711 20.428 11.2728 20.3261C11.1746 20.2242 11.0402 20.166 10.8993 20.1643H6.14158C4.82566 20.1411 3.77678 19.0482 3.79718 17.7214V5.77857C3.77678 4.45183 4.82566 3.35891 6.14158 3.33571H10.9768C11.1177 3.334 11.2522 3.27577 11.3504 3.1739C11.4486 3.07203 11.5025 2.9349 11.5003 2.79286C11.5025 2.65081 11.4486 2.51369 11.3504 2.41182C11.2522 2.30994 11.1177 2.25171 10.9768 2.25H6.14158C4.23869 2.28034 2.72046 3.8601 2.75044 5.77857V17.7214C2.72046 19.6399 4.23869 21.2197 6.14158 21.25H10.8993C11.1923 21.2452 11.4263 21.0025 11.4227 20.7071Z" fill="#4195B9"/>
<path d="M15.8541 8.62092L18.3891 11.1962H7.3337C7.03038 11.1962 6.78448 11.4441 6.78448 11.7499C6.78448 12.0558 7.03038 12.3037 7.3337 12.3037H18.3891L15.8541 14.879C15.7518 14.9826 15.6938 15.1225 15.6926 15.2687C15.6911 15.4155 15.7495 15.5564 15.8541 15.6585C15.9554 15.7633 16.0945 15.8224 16.2396 15.8224C16.3848 15.8224 16.5238 15.7633 16.6252 15.6585L20.0885 12.1397C20.1905 12.0359 20.2484 11.8961 20.25 11.7499C20.2506 11.6034 20.1923 11.4628 20.0885 11.3602L16.6252 7.84138C16.5238 7.73659 16.3848 7.67749 16.2396 7.67749C16.0945 7.67749 15.9554 7.73659 15.8541 7.84138C15.6443 8.05816 15.6443 8.40414 15.8541 8.62092Z" fill="#699C69"/>
</svg>
