<svg width="24" height="24" viewBox="0 0 24 24" fill="none" xmlns="http://www.w3.org/2000/svg">
<path d="M17.8 7.6C17.75 7.2 17.55 6.85 17.15 6.55C16.85 6.35 16.55 6.25 16.1 6.25H15.95L16.1 7.1V7.15H16.15C16.3 7.2 16.4 7.2 16.55 7.3C16.7 7.4 16.75 7.55 16.8 7.75C16.85 8.05 16.7 8.35 16.35 8.45L16.3 8.5L16.45 9.45L16.55 9.4C16.95 9.3 17.25 9.05 17.5 8.8C17.8 8.4 17.9 8 17.8 7.6Z" fill="#699C69"/>
<path d="M23.15 14C22.65 12.95 21.7 12.1 20.55 11.55C19.8 11.2 18.95 11.05 18.15 11.05C15.15 11.05 12.65 13.4 12.65 16.25C12.65 17.25 12.95 18.2 13.5 19.05L12.7 21.35C12.65 21.55 12.7 21.7 12.8 21.8C12.9 21.9 13 21.95 13.15 21.95C13.2 21.95 13.25 21.95 13.3 21.9L15.95 20.95C15.95 20.95 16 21 16.05 21C17.25 21.45 18.6 21.5 19.9 21.15C22.15 20.5 23.65 18.5 23.65 16.25C23.65 15.5 23.5 14.7 23.15 14ZM14.5 19.1C14.55 18.95 14.55 18.8 14.45 18.65C13.9 17.95 13.65 17.1 13.65 16.25C13.65 13.9 15.7 12 18.2 12C20.75 12 22.75 13.85 22.75 16.25C22.75 18.6 20.7 20.5 18.2 20.5C17.5 20.5 16.85 20.35 16.2 20.05C16.05 20 15.95 20 15.8 20.05L13.95 20.7L14.5 19.1Z" fill="#4195B9"/>
<path d="M15.6 15.3999C15.15 15.3999 14.75 15.7999 14.75 16.2499C14.75 16.6999 15.15 17.0999 15.6 17.0999C16.05 17.0999 16.45 16.6999 16.45 16.2499C16.45 15.7999 16.05 15.3999 15.6 15.3999Z" fill="#699C69"/>
<path d="M18.15 15.3999C17.7 15.3999 17.3 15.7999 17.3 16.2499C17.3 16.6999 17.7 17.0999 18.15 17.0999C18.6 17.0999 19 16.6999 19 16.2499C19 15.7999 18.6 15.3999 18.15 15.3999Z" fill="#699C69"/>
<path d="M20.7 15.3999C20.25 15.3999 19.85 15.7999 19.85 16.2499C19.85 16.6999 20.25 17.0999 20.7 17.0999C21.15 17.0999 21.55 16.6999 21.55 16.2499C21.55 15.7999 21.15 15.3999 20.7 15.3999Z" fill="#699C69"/>
<path d="M16.65 9.3L15.6 1.75C15.55 1.5 15.45 1.3 15.25 1.15C15.05 1 14.8 1 14.55 1C14.3 1.05 14.05 1.2 13.9 1.45C12.6 3.7 10.4 5.2 7.80001 5.6L3.20001 6.25C2.30001 6.4 1.50001 6.85 0.950012 7.6C0.400012 8.35 0.150012 9.2 0.300012 10.15C0.550012 11.75 1.90001 13 3.50001 13.05C4.40001 14.25 5.00001 15.7 5.15001 17.25C5.25001 17.8 5.55001 18.25 6.00001 18.45C6.15001 18.55 6.35001 18.55 6.55001 18.55C6.75001 18.55 7.00001 18.5 7.25001 18.35L8.45001 17.6C8.80001 17.4 9.00001 17.05 9.05001 16.75C9.10001 16.45 9.00001 16.1 8.75001 15.8C8.40001 15.4 8.10001 15 7.90001 14.65L8.30001 14.6C8.50001 14.55 8.70001 14.45 8.85001 14.25C8.95001 14.1 9.00001 13.9 9.00001 13.65C9.00001 13.6 9.00001 13.55 8.95001 13.5L8.60001 12.35H8.75001C10.25 12.15 11.8 12.35 13.15 12.9C13.35 13 13.55 12.95 13.65 12.8C13.75 12.7 13.8 12.55 13.75 12.4C13.7 12.25 13.6 12.15 13.5 12.1C11.95 11.45 10.25 11.25 8.60001 11.45L7.85001 11.5L7.15001 6.7L7.95001 6.55C10.85 6.1 13.25 4.45 14.65 2.05C14.75 2.6 15 4 15.3 6.05C15.35 6.35 15.4 6.7 15.45 7C15.6 7.95 15.75 8.95 15.85 9.85L15.9 10.3C15.9 10.4 16 10.55 16.1 10.6C16.2 10.65 16.35 10.7 16.45 10.65C16.65 10.6 16.8 10.4 16.75 10.15L16.65 9.3ZM6.85001 11.65L4.00001 12.1C2.70001 12.25 1.45001 11.35 1.25001 10C1.15001 9.35 1.30001 8.7 1.70001 8.2C2.10001 7.65 2.65001 7.35 3.30001 7.25L6.20001 6.85L6.85001 11.65ZM7.25001 12.6L7.70001 12.5L8.05001 13.65L7.50001 13.75C7.40001 13.4 7.30001 13 7.25001 12.6ZM6.35001 12.7C6.50001 14.05 7.10001 15.35 8.10001 16.45C8.15001 16.55 8.20001 16.65 8.10001 16.75L6.80001 17.5C6.70001 17.55 6.60001 17.6 6.50001 17.55C6.35001 17.5 6.30001 17.45 6.25001 17.35C6.20001 17.3 6.20001 17.25 6.20001 17.15C6.00001 15.6 5.50001 14.15 4.65001 12.9L6.35001 12.7Z" fill="#4195B9"/>
</svg>
