<svg width="24" height="24" viewBox="0 0 24 24" fill="none" xmlns="http://www.w3.org/2000/svg">
<path d="M6.41999 9.28979C5.16354 9.28979 4.14499 10.3083 4.14499 11.5648C4.14499 12.8212 5.16354 13.8398 6.41999 13.8398C7.67644 13.8398 8.69499 12.8212 8.69499 11.5648C8.69499 10.3083 7.67644 9.28979 6.41999 9.28979ZM6.41999 10.2898C7.12415 10.2898 7.69499 10.8606 7.69499 11.5648C7.69499 12.269 7.12415 12.8398 6.41999 12.8398C5.71583 12.8398 5.14499 12.269 5.14499 11.5648C5.14499 10.8606 5.71583 10.2898 6.41999 10.2898Z" fill="#699C69"/>
<path d="M11.905 9.28979C10.6486 9.28979 9.63 10.3083 9.63 11.5648C9.63 12.8212 10.6486 13.8398 11.905 13.8398C13.1615 13.8398 14.18 12.8212 14.18 11.5648C14.18 10.3083 13.1615 9.28979 11.905 9.28979ZM11.905 10.2898C12.6092 10.2898 13.18 10.8606 13.18 11.5648C13.18 12.269 12.6092 12.8398 11.905 12.8398C11.2008 12.8398 10.63 12.269 10.63 11.5648C10.63 10.8606 11.2008 10.2898 11.905 10.2898Z" fill="#699C69"/>
<path d="M17.395 9.28979C16.1385 9.28979 15.12 10.3083 15.12 11.5648C15.12 12.8212 16.1385 13.8398 17.395 13.8398C18.6514 13.8398 19.67 12.8212 19.67 11.5648C19.67 10.3083 18.6514 9.28979 17.395 9.28979ZM17.395 10.2898C18.0992 10.2898 18.67 10.8606 18.67 11.5648C18.67 12.269 18.0992 12.8398 17.395 12.8398C16.6908 12.8398 16.12 12.269 16.12 11.5648C16.12 10.8606 16.6908 10.2898 17.395 10.2898Z" fill="#699C69"/>
<path d="M12.165 2.1499C5.71062 2.1499 0.434998 6.38209 0.434998 11.6499L0.43726 11.8385C0.496013 14.2856 1.69671 16.5687 3.74647 18.2854L3.872 18.3884L3.82004 22.5487L3.82265 22.6076C3.85612 22.935 4.20016 23.1476 4.51372 23.0158L9.454 20.9389L9.30091 20.91C10.2439 21.1006 11.2036 21.1961 12.1656 21.1949C18.6161 21.1949 23.895 16.9614 23.895 11.6949C23.895 6.42077 18.606 2.1499 12.165 2.1499ZM12.165 3.1499C18.0952 3.1499 22.895 7.02578 22.895 11.6949C22.895 16.3545 18.1063 20.1949 12.165 20.1949C11.2693 20.196 10.3764 20.1072 9.49909 19.9298L9.43976 19.9215C9.36034 19.9152 9.28025 19.9279 9.20627 19.959L4.829 21.7984L4.87496 18.1561C4.87691 17.9995 4.80531 17.8509 4.68152 17.7549C2.61459 16.1511 1.435 13.9691 1.435 11.6499C1.435 6.98885 6.22043 3.1499 12.165 3.1499Z" fill="#4195B9"/>
</svg>
