<svg width="24" height="24" viewBox="0 0 24 24" fill="none" xmlns="http://www.w3.org/2000/svg">
<path fill-rule="evenodd" clip-rule="evenodd" d="M4 9C5.65685 9 7 10.3431 7 12C7 13.6569 5.65685 15 4 15C2.34315 15 1 13.6569 1 12C1 10.3431 2.34315 9 4 9ZM4 10C2.89543 10 2 10.8954 2 12C2 13.1046 2.89543 14 4 14C5.10457 14 6 13.1046 6 12C6 10.8954 5.10457 10 4 10ZM12 9C13.6569 9 15 10.3431 15 12C15 13.6569 13.6569 15 12 15C10.3431 15 9 13.6569 9 12C9 10.3431 10.3431 9 12 9ZM12 10C10.8954 10 10 10.8954 10 12C10 13.1046 10.8954 14 12 14C13.1046 14 14 13.1046 14 12C14 10.8954 13.1046 10 12 10ZM20 9C21.6569 9 23 10.3431 23 12C23 13.6569 21.6569 15 20 15C18.3431 15 17 13.6569 17 12C17 10.3431 18.3431 9 20 9ZM20 10C18.8954 10 18 10.8954 18 12C18 13.1046 18.8954 14 20 14C21.1046 14 22 13.1046 22 12C22 10.8954 21.1046 10 20 10Z" fill="#191C1D"/>
</svg>
