<svg width="24" height="24" viewBox="0 0 24 24" fill="none" xmlns="http://www.w3.org/2000/svg">
<g clip-path="url(#clip0_146_1519)">
<path d="M23.8 6.05005L21.75 2.95005C21.6 2.70005 21.3 2.55005 21 2.55005H8.8C8.3 2.55005 7.9 2.95005 7.9 3.45005V7.90005H2.6C2.45 7.90005 2.3 8.00005 2.2 8.10005L0.149997 11.2C0.0499969 11.35 0.0499969 11.6 0.149997 11.75L2.2 14.85C2.3 15 2.45 15.05 2.6 15.05H14.85C15.1 15.05 15.35 14.85 15.35 14.55V10.5H21.05C21.35 10.5 21.65 10.35 21.8 10.1L23.85 7.00005C24 6.75005 24 6.35005 23.8 6.05005ZM14.35 14.1H2.85L1.15 11.5L2.85 8.90005H7.9V9.65005C7.9 10.15 8.3 10.55 8.8 10.55H14.35V14.1ZM20.9 9.55005H8.9V3.55005H20.9L22.9 6.55005L20.9 9.55005Z" fill="#699C69"/>
<path d="M10.85 2.54995V1.19995H12.85V2.54995H13.85V0.949951C13.85 0.549951 13.5 0.199951 13.1 0.199951H10.6C10.2 0.199951 9.84999 0.549951 9.84999 0.949951V2.54995H10.85Z" fill="#4195B9"/>
<path d="M15.65 22.7999H13.85V15.0999H12.85V22.7499H10.85V15.0999H9.85V22.7499H8.2C7.9 22.7499 7.5 22.7499 7.5 23.2499C7.5 23.7499 7.95 23.7499 8.2 23.7499H10.55H13.1H15.65C15.95 23.7499 16.3 23.7499 16.3 23.2499C16.3 22.7999 15.95 22.7999 15.65 22.7999Z" fill="#4195B9"/>
</g>
<defs>
<clipPath id="clip0_146_1519">
<rect width="24" height="24" fill="white"/>
</clipPath>
</defs>
</svg>
