<svg width="24" height="24" viewBox="0 0 24 24" fill="none" xmlns="http://www.w3.org/2000/svg">
<path fill-rule="evenodd" clip-rule="evenodd" d="M14 18.5H10C9.72386 18.5 9.5 18.7239 9.5 19.0001C9.5 20.3812 10.6193 21.5008 12 21.5008C13.3807 21.5008 14.5 20.3812 14.5 19.0001C14.5 18.7239 14.2761 18.5 14 18.5ZM13.413 19.5003L13.3952 19.5523C13.1753 20.1077 12.6335 20.5005 12 20.5005L11.8555 20.4937C11.2851 20.4391 10.8078 20.065 10.6048 19.5523L10.586 19.5003H13.413Z" fill="#699C69"/>
<path fill-rule="evenodd" clip-rule="evenodd" d="M12 1.5C12.2455 1.5 12.4496 1.67688 12.4919 1.91012L12.5 2L12.5007 2.51702C16.2712 2.77422 19.25 5.91424 19.25 9.75L19.249 13.274L19.4337 13.416C20.6686 14.4144 21.422 15.8976 21.4943 17.4918L21.5 17.7444V19C21.5 19.2761 21.2761 19.5 21 19.5H3C2.72386 19.5 2.5 19.2761 2.5 19V17.7444C2.5 15.9782 3.33817 14.3181 4.76527 13.2626L4.75 13.274V9.75C4.75 5.9139 7.72933 2.77365 11.5003 2.51695L11.5 2C11.5 1.72386 11.7239 1.5 12 1.5ZM12 3.5C8.54822 3.5 5.75 6.29822 5.75 9.75V13.5329C5.75 13.6956 5.67081 13.8482 5.53773 13.9418L5.35035 14.0735C4.18761 14.9336 3.5 16.2955 3.5 17.7444V18.5H20.5V17.7444C20.5 16.3002 19.8172 14.9462 18.6679 14.0871L18.472 13.9485C18.3333 13.8557 18.25 13.6998 18.25 13.5329V9.75C18.25 6.29822 15.4518 3.5 12 3.5Z" fill="#4195B9"/>
</svg>
