<svg width="24" height="24" viewBox="0 0 24 24" fill="none" xmlns="http://www.w3.org/2000/svg">
<path fill-rule="evenodd" clip-rule="evenodd" d="M21.0185 8.15531C18.1181 4.56688 12.858 4.00887 9.26927 6.90891C9.05449 7.08247 8.73967 7.04906 8.56611 6.83428C8.39255 6.6195 8.42596 6.30469 8.64074 6.13112C12.659 2.88398 18.5487 3.50878 21.7962 7.5267C25.0438 11.5446 24.4196 17.4344 20.402 20.6823C16.3844 23.9303 10.4946 23.3067 7.24621 19.2894C7.07258 19.0747 7.10589 18.7598 7.32062 18.5862C7.53535 18.4126 7.85017 18.4459 8.0238 18.6606C10.9249 22.2485 16.1852 22.8054 19.7733 19.9047C23.3614 17.0039 23.9189 11.7437 21.0185 8.15531Z" fill="#4195B9"/>
<path fill-rule="evenodd" clip-rule="evenodd" d="M4.22 9.68994C4.22 9.4138 4.44386 9.18994 4.72 9.18994H10.625C10.9011 9.18994 11.125 9.4138 11.125 9.68994C11.125 9.96608 10.9011 10.1899 10.625 10.1899H4.72C4.44386 10.1899 4.22 9.96608 4.22 9.68994Z" fill="#699C69"/>
<path fill-rule="evenodd" clip-rule="evenodd" d="M18.3719 8.51917C18.5961 8.6804 18.6472 8.99284 18.4859 9.21703L15.0409 14.007C14.8797 14.2312 14.5672 14.2822 14.3431 14.121C14.1189 13.9598 14.0678 13.6473 14.2291 13.4231L17.6741 8.63315C17.8353 8.40896 18.1478 8.35793 18.3719 8.51917Z" fill="#699C69"/>
<path fill-rule="evenodd" clip-rule="evenodd" d="M21.2868 4.3677C21.5091 4.53164 21.5563 4.84468 21.3924 5.06689L20.3374 6.49689C20.1734 6.7191 19.8604 6.76634 19.6382 6.6024C19.4159 6.43846 19.3687 6.12542 19.5326 5.90321L20.5876 4.47321C20.7516 4.251 21.0646 4.20376 21.2868 4.3677Z" fill="#4195B9"/>
<path fill-rule="evenodd" clip-rule="evenodd" d="M2.39 12.5151C2.39 12.239 2.61386 12.0151 2.89 12.0151H8.795C9.07115 12.0151 9.295 12.239 9.295 12.5151C9.295 12.7913 9.07115 13.0151 8.795 13.0151H2.89C2.61386 13.0151 2.39 12.7913 2.39 12.5151Z" fill="#699C69"/>
<path fill-rule="evenodd" clip-rule="evenodd" d="M0.560001 15.345C0.560001 15.0688 0.783859 14.845 1.06 14.845H6.965C7.24114 14.845 7.465 15.0688 7.465 15.345C7.465 15.6211 7.24114 15.845 6.965 15.845H1.06C0.783859 15.845 0.560001 15.6211 0.560001 15.345Z" fill="#699C69"/>
<path d="M14.655 14.6051C15.2349 14.6051 15.705 14.135 15.705 13.5551C15.705 12.9752 15.2349 12.5051 14.655 12.5051C14.0751 12.5051 13.605 12.9752 13.605 13.5551C13.605 14.135 14.0751 14.6051 14.655 14.6051Z" fill="#699C69"/>
<path fill-rule="evenodd" clip-rule="evenodd" d="M14.655 13.0051C14.3512 13.0051 14.105 13.2514 14.105 13.5551C14.105 13.8589 14.3512 14.1051 14.655 14.1051C14.9588 14.1051 15.205 13.8589 15.205 13.5551C15.205 13.2514 14.9588 13.0051 14.655 13.0051ZM13.105 13.5551C13.105 12.6991 13.799 12.0051 14.655 12.0051C15.511 12.0051 16.205 12.6991 16.205 13.5551C16.205 14.4112 15.511 15.1051 14.655 15.1051C13.799 15.1051 13.105 14.4112 13.105 13.5551Z" fill="#699C69"/>
<path fill-rule="evenodd" clip-rule="evenodd" d="M14.445 1.70996C14.7211 1.70996 14.945 1.93382 14.945 2.20996V4.45496C14.945 4.7311 14.7211 4.95496 14.445 4.95496C14.1689 4.95496 13.945 4.7311 13.945 4.45496V2.20996C13.945 1.93382 14.1689 1.70996 14.445 1.70996Z" fill="#4195B9"/>
<path fill-rule="evenodd" clip-rule="evenodd" d="M12.45 2.16504C12.45 1.8889 12.6739 1.66504 12.95 1.66504H15.945C16.2211 1.66504 16.445 1.8889 16.445 2.16504C16.445 2.44118 16.2211 2.66504 15.945 2.66504H12.95C12.6739 2.66504 12.45 2.44118 12.45 2.16504Z" fill="#4195B9"/>
</svg>
