<svg width="24" height="24" viewBox="0 0 24 24" fill="none" xmlns="http://www.w3.org/2000/svg">
<path fill-rule="evenodd" clip-rule="evenodd" d="M6.84198 2.86673C2.84268 5.39767 1.95538 8.90374 5.58244 15.186C9.40773 21.8116 12.3694 22.657 16.9914 20.0925L17.7456 19.6529C17.9687 19.5227 18.056 19.244 17.947 19.0099C17.2281 17.4663 16.2041 15.803 15.1834 14.635C15.0202 14.4483 14.7448 14.4094 14.5363 14.5435C12.4798 15.8669 11.3397 15.5853 9.72747 12.7929C8.24288 10.2215 8.49942 9.15373 10.3109 7.98648L10.6707 7.76339C10.8517 7.65113 10.9417 7.43656 10.8949 7.22879C10.5795 5.82594 9.80552 4.33116 8.52274 2.43694C8.38748 2.23721 8.1289 2.16252 7.90797 2.25938C7.77484 2.31775 7.09159 2.70877 6.84198 2.86673ZM7.94609 3.37463L8.12854 3.65404C8.95029 4.93135 9.49804 6.00192 9.79287 6.9714L9.83094 7.10728L9.77651 7.14129C7.50887 8.60239 7.11054 10.2602 8.86144 13.2929L8.9936 13.5175C10.7095 16.3776 12.3466 16.9116 14.5569 15.6958L14.6999 15.6146L14.9502 15.9328C15.555 16.728 16.146 17.6783 16.6413 18.6251L16.8425 19.0217L16.497 19.2234C12.3644 21.5162 10.0026 20.842 6.44846 14.686C3.15102 8.97465 3.80338 6.06226 7.18934 3.83269L7.45179 3.66535L7.94609 3.37463Z" fill="#4195B9"/>
<path fill-rule="evenodd" clip-rule="evenodd" d="M20.498 6.41316C21.6973 8.49041 21.5536 11.1016 20.3763 12.7804C20.2177 13.0065 19.9059 13.0612 19.6798 12.9026C19.4537 12.7441 19.399 12.4323 19.5575 12.2062C20.514 10.8424 20.6347 8.64984 19.632 6.91316C18.5726 5.07828 16.8036 4.13463 15.0214 4.33005C14.7469 4.36015 14.5 4.16203 14.4699 3.88753C14.4398 3.61303 14.6379 3.36611 14.9124 3.33601C17.0973 3.09643 19.2443 4.24173 20.498 6.41316ZM17.6839 8.14553C18.445 9.46384 18.2359 11.3261 17.3304 12.2597C17.1382 12.458 16.8216 12.4628 16.6234 12.2706C16.4252 12.0783 16.4203 11.7618 16.6126 11.5635C17.2036 10.9541 17.3578 9.58077 16.8179 8.64553C16.3183 7.78035 15.1226 7.23639 14.3117 7.34247L14.1803 7.36623C13.9114 7.42926 13.6424 7.26241 13.5793 6.99356C13.5163 6.72471 13.6832 6.45566 13.952 6.39263C15.1865 6.10321 16.935 6.84846 17.6839 8.14553Z" fill="#699C69"/>
</svg>
