<svg width="24" height="25" viewBox="0 0 24 25" fill="none" xmlns="http://www.w3.org/2000/svg">
<path fill-rule="evenodd" clip-rule="evenodd" d="M19.5001 10.5903H15.4464V9.59033H19.5001C20.8808 9.59033 22.0001 10.7096 22.0001 12.0903V18.5903C22.0001 19.971 20.8808 21.0903 19.5001 21.0903H18.0001V20.0903H19.5001C20.3285 20.0903 21.0001 19.4188 21.0001 18.5903V12.0903C21.0001 11.2619 20.3285 10.5903 19.5001 10.5903Z" fill="#4195B9"/>
<path fill-rule="evenodd" clip-rule="evenodd" d="M3.99995 10.5903H8.05359V9.59033H3.99995C2.61924 9.59033 1.49995 10.7096 1.49995 12.0903L1.49995 18.5903C1.49995 19.971 2.61924 21.0903 3.99995 21.0903H5.49995V20.0903H3.99995C3.17152 20.0903 2.49995 19.4188 2.49995 18.5903L2.49995 12.0903C2.49995 11.2619 3.17152 10.5903 3.99995 10.5903Z" fill="#4195B9"/>
<path fill-rule="evenodd" clip-rule="evenodd" d="M14.9885 2.59033L18.4822 6.08345L18.5 10.5908H5.5L5.50003 2.59084L14.9885 2.59033ZM6.50002 3.59079L6.5 9.59081H17.496L17.4839 6.49935L14.5744 3.59035L6.50002 3.59079Z" fill="#4195B9"/>
<path fill-rule="evenodd" clip-rule="evenodd" d="M5.5 22.0903C5.5 22.6426 5.94772 23.0903 6.5 23.0903H17C17.5523 23.0903 18 22.6426 18 22.0903V17.0903C18 16.538 17.5523 16.0903 17 16.0903H6.5C5.94772 16.0903 5.5 16.538 5.5 17.0903V22.0903ZM17 22.0903H6.5V17.0903H17V22.0903Z" fill="#699C69"/>
<path fill-rule="evenodd" clip-rule="evenodd" d="M18 12.5903C17.7239 12.5903 17.5 12.8142 17.5 13.0903C17.5 13.3665 17.7239 13.5903 18 13.5903C18.2761 13.5903 18.5 13.3665 18.5 13.0903C18.5 12.8142 18.2761 12.5903 18 12.5903ZM16.5 13.0903C16.5 12.2619 17.1716 11.5903 18 11.5903C18.8284 11.5903 19.5 12.2619 19.5 13.0903C19.5 13.9188 18.8284 14.5903 18 14.5903C17.1716 14.5903 16.5 13.9188 16.5 13.0903Z" fill="#4195B9"/>
<path fill-rule="evenodd" clip-rule="evenodd" d="M7.75 18.8403C7.75 18.5642 7.97386 18.3403 8.25 18.3403H15.25C15.5261 18.3403 15.75 18.5642 15.75 18.8403C15.75 19.1165 15.5261 19.3403 15.25 19.3403H8.25C7.97386 19.3403 7.75 19.1165 7.75 18.8403Z" fill="#699C69"/>
<path fill-rule="evenodd" clip-rule="evenodd" d="M7.75 20.3403C7.75 20.0642 7.97386 19.8403 8.25 19.8403H15.25C15.5261 19.8403 15.75 20.0642 15.75 20.3403C15.75 20.6165 15.5261 20.8403 15.25 20.8403H8.25C7.97386 20.8403 7.75 20.6165 7.75 20.3403Z" fill="#699C69"/>
<path fill-rule="evenodd" clip-rule="evenodd" d="M14.0928 6.24361V3.09424H15.0928V5.74361H17.936V6.74361H14.5928C14.3166 6.74361 14.0928 6.51976 14.0928 6.24361Z" fill="#4195B9"/>
</svg>
