<svg width="24" height="24" viewBox="0 0 24 24" fill="none" xmlns="http://www.w3.org/2000/svg">
<path d="M12.1601 2.1499C5.70898 2.1499 0.430054 6.38343 0.430054 11.6499L0.432316 11.8385C0.49107 14.2856 1.69176 16.5687 3.74153 18.2854L3.86705 18.3884L3.82009 22.5492L3.82276 22.6081C3.85658 22.9353 4.20058 23.1476 4.51394 23.0158L9.44955 20.9389L9.29596 20.91C10.2389 21.1006 11.1986 21.1961 12.1607 21.1949C18.6144 21.1949 23.8901 16.9627 23.8901 11.6949C23.8901 6.41941 18.6044 2.1499 12.1601 2.1499ZM12.1601 3.1499C18.0935 3.1499 22.8901 7.02434 22.8901 11.6949C22.8901 16.356 18.1046 20.1949 12.1601 20.1949C11.2644 20.196 10.3715 20.1072 9.49414 19.9298L9.43478 19.9215C9.35532 19.9151 9.27518 19.9279 9.20117 19.959L4.82805 21.7984L4.87002 18.1556C4.8718 17.9991 4.80021 17.8508 4.67657 17.7549C2.60964 16.1511 1.43005 13.9691 1.43005 11.6499C1.43005 6.99027 6.21874 3.1499 12.1601 3.1499Z" fill="#4195B9"/>
<path d="M11.0401 13.215V12.965C11.0401 11.21 13.1701 10.885 13.1701 9.41502C13.1513 9.05667 12.9868 8.72157 12.7149 8.48743C12.443 8.25328 12.0872 8.14042 11.7301 8.17502C11.3438 8.18227 10.9662 8.2909 10.6351 8.49002C10.5428 8.55414 10.4285 8.5781 10.3182 8.55642C10.2079 8.53475 10.1112 8.46929 10.0501 8.37502L9.88506 8.15002C9.73506 7.92502 9.73506 7.73502 9.96006 7.58502C10.512 7.22398 11.1556 7.02797 11.8151 7.02002C13.2451 7.02002 14.4401 7.92002 14.4401 9.31502C14.4401 11.315 12.3301 11.585 12.2301 13.04V13.3C12.2216 13.397 12.1731 13.4861 12.0963 13.5459C12.0194 13.6056 11.9211 13.6307 11.8251 13.615H11.4651C11.3528 13.6305 11.2395 13.5943 11.157 13.5166C11.0744 13.4389 11.0314 13.328 11.0401 13.215ZM11.0101 15.25C10.9951 15.136 11.034 15.0215 11.1153 14.9402C11.1966 14.8589 11.3111 14.8201 11.4251 14.835H11.8651C11.9791 14.8201 12.0935 14.8589 12.1748 14.9402C12.2561 15.0215 12.295 15.136 12.2801 15.25V15.65C12.293 15.7636 12.2534 15.8768 12.1726 15.9576C12.0918 16.0384 11.9786 16.0779 11.8651 16.065H11.4251C11.3111 16.08 11.1966 16.0411 11.1153 15.9598C11.034 15.8785 10.9951 15.764 11.0101 15.65V15.25Z" fill="#699C69"/>
</svg>
