<svg width="24" height="24" viewBox="0 0 24 24" fill="none" xmlns="http://www.w3.org/2000/svg">
<path fill-rule="evenodd" clip-rule="evenodd" d="M12.0001 2C15.7777 2 19.1406 4.22549 20.6603 7.5892L21.3977 5.14482C21.4775 4.88047 21.7565 4.7309 22.0209 4.81074C22.2558 4.8817 22.4001 5.11005 22.3732 5.34558L22.3549 5.43394L21.2259 9.17229C21.1456 9.43799 20.8688 9.58125 20.6132 9.50959L20.5187 9.47246L17.0453 7.68777C16.7997 7.56157 16.7028 7.26015 16.829 7.01453C16.9412 6.7962 17.1918 6.69546 17.4187 6.7644L17.5023 6.79831L19.7189 7.93518C18.3452 4.9623 15.3555 3 12.0001 3C7.83356 3 4.29977 6.01829 3.61769 10.0822C3.57199 10.3545 3.31416 10.5382 3.04183 10.4925C2.7695 10.4468 2.58578 10.189 2.63149 9.91663C3.39408 5.37301 7.34319 2 12.0001 2Z" fill="#4195B9"/>
<path fill-rule="evenodd" clip-rule="evenodd" d="M20.9583 13.5075C21.2306 13.5532 21.4144 13.811 21.3687 14.0833C20.6061 18.6269 16.657 22 12.0001 22C8.22244 22 4.85956 19.7745 3.33987 16.4108L2.60243 18.855C2.5226 19.1194 2.24358 19.269 1.97923 19.1891C1.74425 19.1182 1.59996 18.8898 1.62687 18.6543L1.64514 18.5659L2.77421 14.8276C2.85446 14.5619 3.13134 14.4186 3.38694 14.4903L3.48136 14.5274L6.95482 16.3121C7.20044 16.4383 7.29724 16.7397 7.17104 16.9853C7.05887 17.2037 6.80824 17.3044 6.58143 17.2355L6.49781 17.2016L4.28107 16.0644C5.65468 19.0375 8.6445 21 12.0001 21C16.1666 21 19.7004 17.9817 20.3825 13.9178C20.4282 13.6455 20.686 13.4618 20.9583 13.5075Z" fill="#699C69"/>
</svg>
