<svg width="24" height="24" viewBox="0 0 24 24" fill="none" xmlns="http://www.w3.org/2000/svg">
<path fill-rule="evenodd" clip-rule="evenodd" d="M16.609 2.49858C16.6098 2.77472 16.3866 2.99921 16.1104 3L4.83642 3.032L4.835 3.032C3.54564 3.032 2.5 4.07764 2.5 5.367V17.756C2.5 19.0452 3.54553 20.0905 4.835 20.0905H19.247C20.5364 20.0905 21.5815 19.0454 21.5815 17.756V10.6665C21.5815 10.3904 21.8054 10.1665 22.0815 10.1665C22.3576 10.1665 22.5815 10.3904 22.5815 10.6665V17.756C22.5815 19.5976 21.0886 21.0905 19.247 21.0905H4.835C2.99347 21.0905 1.5 19.5978 1.5 17.756V5.367C1.5 3.52561 2.99295 2.0324 4.83426 2.032C4.8345 2.032 4.83475 2.032 4.835 2.032L16.1076 2C16.3837 1.99922 16.6082 2.22244 16.609 2.49858Z" fill="#4195B9"/>
<path fill-rule="evenodd" clip-rule="evenodd" d="M18.8594 3.80626C19.032 3.59067 19.3466 3.55575 19.5622 3.72827L21.4037 5.20177C21.5072 5.28462 21.5736 5.40521 21.5883 5.53702C21.6029 5.66882 21.5646 5.80104 21.4817 5.90458L13.1227 16.3501C12.9502 16.5657 12.6355 16.6006 12.4199 16.4281L10.5784 14.9546C10.4749 14.8717 10.4085 14.7511 10.3939 14.6193C10.3792 14.4875 10.4176 14.3553 10.5004 14.2518L18.8594 3.80626ZM19.3278 4.82144L11.5936 14.4862L12.6543 15.3349L20.3885 5.67017L19.3278 4.82144Z" fill="#699C69"/>
<path fill-rule="evenodd" clip-rule="evenodd" d="M19.7496 2.69381C20.3293 1.96901 21.386 1.85242 22.11 2.43185C22.8339 3.01128 22.9515 4.06787 22.3719 4.7921C22.3719 4.79212 22.3719 4.79209 22.3719 4.7921L21.1484 6.3211C20.9759 6.53671 20.6612 6.57164 20.4456 6.39911C20.23 6.22657 20.1951 5.91192 20.3676 5.69631L21.5911 4.16731C21.8255 3.87455 21.7781 3.44713 21.4851 3.21257C21.1921 2.97804 20.7649 3.02539 20.5305 3.31846L19.3069 4.8476C19.1344 5.06321 18.8197 5.09814 18.6041 4.92561C18.3885 4.75308 18.3536 4.43843 18.5261 4.22281L19.7496 2.69381Z" fill="#699C69"/>
<path fill-rule="evenodd" clip-rule="evenodd" d="M10.9993 14.1138C11.2642 14.1918 11.4157 14.4698 11.3377 14.7346L10.8063 16.5388L12.5015 15.5806C12.7419 15.4447 13.0469 15.5295 13.1828 15.7698C13.3187 16.0102 13.234 16.3153 12.9936 16.4512L10.2241 18.0167C10.0468 18.1169 9.82647 18.0996 9.66703 17.9729C9.50758 17.8462 9.44089 17.6355 9.49842 17.4401L10.3784 14.4521C10.4564 14.1872 10.7344 14.0357 10.9993 14.1138Z" fill="#699C69"/>
</svg>
