<svg width="24" height="24" viewBox="0 0 24 24" fill="none" xmlns="http://www.w3.org/2000/svg">
<path d="M7.10003 4.07012C7.00003 3.97012 6.90003 3.87012 6.75003 3.87012H6.70003C6.60003 3.87012 6.45003 3.92012 6.35003 3.97012C4.10003 5.82012 3.75003 9.17012 5.55003 11.4701C5.75003 11.6701 6.05003 11.7201 6.30003 11.5701C6.50003 11.3701 6.55003 11.0701 6.40003 10.8201C4.95003 8.97012 5.20003 6.32012 7.05003 4.82012C7.25003 4.62012 7.30003 4.27012 7.10003 4.07012Z" fill="#699C69"/>
<path d="M10.5 0.220215C8.40001 0.0202154 6.35001 0.620215 4.70001 1.97022C3.10001 3.27022 2.05001 5.22022 1.80001 7.32022C1.35001 11.6702 4.50001 15.6202 8.80001 16.0702C9.05001 16.1202 9.35001 16.1202 9.65001 16.1202C10.5 16.1202 11.35 15.9702 12.2 15.7202L12.35 15.6702V15.8202C12.4 16.7702 13.2 17.5202 14.15 17.5202H14.2H14.3L14.35 17.6202C14.35 17.6702 14.4 17.7202 14.4 17.7702L18.4 22.7702C18.9 23.4202 19.5 23.8202 20.15 23.9202C20.8 24.0202 21.4 23.8702 21.9 23.4702C22.85 22.6702 23 21.2702 22.25 20.2702L17.75 14.6702V14.6202C17.9 14.0702 17.75 13.4702 17.4 13.0702C17.1 12.6702 16.65 12.4702 16.2 12.4202C15.7 12.3702 15.25 12.5202 14.9 12.8202L13.9 13.6202C12.45 14.7702 10.7 15.2702 8.90001 15.0702C7.10001 14.8702 5.45001 13.9702 4.30001 12.5202C1.95001 9.57021 2.40001 5.22022 5.35001 2.82022C6.50001 1.87022 8.00001 1.32022 9.50001 1.27022C11.3 1.22022 13.05 1.92022 14.4 3.17022C15.7 4.42022 16.45 6.17022 16.5 8.02022C16.5 8.82022 16.4 9.57022 16.15 10.3702C16.15 10.4202 16.1 10.4702 16.1 10.5202C16.1 10.8202 16.35 11.0702 16.6 11.0702C16.85 11.0702 17.05 10.9202 17.1 10.7202C17.4 9.87022 17.5 8.92022 17.5 8.02022C17.45 6.27022 16.85 4.57022 15.75 3.22022C14.5 1.47022 12.6 0.420215 10.5 0.220215ZM21.5 20.9202C21.9 21.4202 21.85 22.2202 21.3 22.6202C21.1 22.7702 20.9 22.8702 20.65 22.8702C20.6 22.8702 20.55 22.8702 20.55 22.8702C20.15 22.8202 19.7 22.5702 19.3 22.0702L15.35 17.1202L17.2 15.6202L21.5 20.9202ZM13.75 15.0702L15.6 13.5702C15.75 13.4202 15.95 13.3702 16.15 13.4202C16.35 13.4202 16.55 13.5202 16.65 13.7202C16.9 14.0702 16.85 14.5202 16.55 14.8202L14.7 16.3202C14.55 16.4202 14.4 16.4702 14.25 16.4702C14.05 16.4702 13.8 16.3702 13.65 16.2202C13.35 15.8202 13.4 15.3202 13.75 15.0702Z" fill="#4195B9"/>
</svg>
