<svg width="24" height="24" viewBox="0 0 24 24" fill="none" xmlns="http://www.w3.org/2000/svg">
<path fill-rule="evenodd" clip-rule="evenodd" d="M8.73163 7.96932L2.42817 8.88196L2.34423 8.9012C1.9975 9.01184 1.87612 9.46341 2.15137 9.73073L6.71287 14.1606L5.63641 20.4172L5.6289 20.4971C5.62326 20.8628 6.0191 21.1209 6.36108 20.9417L12 17.9872L17.6389 20.9417L17.7129 20.9735C18.0602 21.0919 18.4289 20.7966 18.3636 20.4172L17.2861 14.1606L21.8486 9.73073L21.9052 9.66601C22.1204 9.37345 21.9522 8.93704 21.5718 8.88196L15.2674 7.96932L12.4479 2.27738C12.2647 1.90754 11.7353 1.90754 11.5521 2.27738L8.73163 7.96932ZM12 3.62221L14.4878 8.64428L14.5392 8.72672C14.6177 8.82873 14.7337 8.89765 14.8638 8.91649L20.4266 9.72091L16.4014 13.6312L16.3386 13.7054C16.2654 13.8112 16.2355 13.9425 16.2577 14.0716L17.2082 19.5915L12.2324 16.9854L12.1422 16.9489C12.0185 16.9123 11.884 16.9245 11.7676 16.9854L6.79079 19.5915L7.74225 14.0716L7.74929 13.9748C7.746 13.8463 7.69278 13.7226 7.59861 13.6312L3.57236 9.72091L9.13616 8.91649C9.29883 8.89294 9.43946 8.79114 9.51221 8.64428L12 3.62221Z" fill="#4195B9"/>
<path d="M12.5 20C12.5 19.7239 12.2761 19.5 12 19.5C11.7239 19.5 11.5 19.7239 11.5 20V22C11.5 22.2761 11.7239 22.5 12 22.5C12.2761 22.5 12.5 22.2761 12.5 22V20Z" fill="#699C69"/>
<path d="M4.68664 15.1056C4.94927 15.0202 5.09299 14.7382 5.00766 14.4755C4.92233 14.2129 4.64025 14.0692 4.37762 14.1545L2.47551 14.7725C2.21288 14.8579 2.06915 15.14 2.15449 15.4026C2.23982 15.6652 2.5219 15.8089 2.78453 15.7236L4.68664 15.1056Z" fill="#699C69"/>
<path d="M19.4755 15.1056C19.2129 15.0202 19.0692 14.7382 19.1545 14.4755C19.2398 14.2129 19.5219 14.0692 19.7845 14.1545L21.6867 14.7725C21.9493 14.8579 22.093 15.14 22.0077 15.4026C21.9224 15.6652 21.6403 15.8089 21.3776 15.7236L19.4755 15.1056Z" fill="#699C69"/>
<path d="M6.59586 5.16051C6.81347 5.33052 6.85205 5.64474 6.68204 5.86234C6.51203 6.07995 6.1978 6.11853 5.9802 5.94852L4.40418 4.71719C4.18658 4.54718 4.14799 4.23296 4.31801 4.01536C4.48802 3.79775 4.80224 3.75917 5.01984 3.92918L6.59586 5.16051Z" fill="#699C69"/>
<path d="M17.4593 5.40852C17.2745 5.61373 17.2911 5.92988 17.4963 6.11465C17.7015 6.29943 18.0176 6.28286 18.2024 6.07765L19.5407 4.59136C19.7255 4.38614 19.7089 4.06999 19.5037 3.88522C19.2985 3.70044 18.9823 3.71701 18.7975 3.92223L17.4593 5.40852Z" fill="#699C69"/>
</svg>
