<svg width="24" height="24" viewBox="0 0 24 24" fill="none" xmlns="http://www.w3.org/2000/svg">
<path fill-rule="evenodd" clip-rule="evenodd" d="M9.3917 1.82666C8.50626 2.05303 7.65751 2.39405 6.86434 2.83965L6.79414 2.8873C6.64207 3.01059 6.57382 3.21438 6.62714 3.40819L7.40899 6.25303L7.38042 6.27673C7.0919 6.52132 6.8221 6.78735 6.57348 7.07241L6.54599 7.10503L3.60199 6.29674C3.38741 6.2378 3.1597 6.32777 3.04335 6.51746C2.57476 7.28142 2.20544 8.10291 1.94582 8.9637L1.92811 9.04796C1.90414 9.24514 1.99983 9.44168 2.17722 9.54264L4.78999 11.029L4.7569 11.3339C4.73747 11.5545 4.72769 11.7766 4.72769 12L4.73153 12.2422L4.73899 12.396L2.03517 13.935C1.84121 14.0453 1.74384 14.2708 1.79653 14.4876C2.00419 15.3422 2.31834 16.1639 2.7303 16.9361L2.7773 17.0084C2.8997 17.1653 3.10677 17.237 3.30399 17.1828L6.15299 16.399L6.33996 16.6464C6.61976 17.0005 6.93108 17.3291 7.27499 17.632L6.48436 20.5102C6.42427 20.7287 6.51869 20.9603 6.71443 21.0746C7.45731 21.5081 8.25142 21.8492 9.08072 22.0887L9.16441 22.1054C9.36009 22.1272 9.55408 22.0314 9.65407 21.8556L11.047 19.406L11.2953 19.4426C11.6029 19.4808 11.9141 19.5 12.2277 19.5L12.5968 19.4911L12.7804 19.4799L12.984 19.461L14.3459 21.8556C14.4602 22.0565 14.6972 22.1529 14.9193 22.0887C15.7485 21.8492 16.5427 21.5081 17.2855 21.0746L17.3541 21.0265C17.5024 20.9027 17.5682 20.7015 17.5156 20.5103L16.809 17.938L17.0655 17.7313C17.4141 17.4368 17.7354 17.1111 18.0251 16.7585L18.225 16.503L20.696 17.1828C20.9214 17.2448 21.1596 17.1423 21.2697 16.9361C21.6816 16.1639 21.9958 15.3422 22.2034 14.4876L22.2163 14.4061C22.2303 14.2162 22.1345 14.0315 21.9648 13.935L19.7 12.646L19.7206 12.3301C19.7253 12.2204 19.7277 12.1104 19.7277 12L19.721 11.6811C19.7121 11.4691 19.6944 11.2584 19.668 11.0494L19.629 10.79L21.8229 9.54371C22.0257 9.42837 22.1218 9.18812 22.0545 8.96475C21.7948 8.10358 21.4254 7.28173 20.9566 6.51746L20.9003 6.44242C20.7755 6.30513 20.582 6.24624 20.3981 6.29672L17.821 7.00303L17.6068 6.77358C17.3828 6.54308 17.1442 6.32708 16.8927 6.12702L16.671 5.95903L17.3728 3.40816C17.4338 3.18667 17.3359 2.95216 17.1356 2.83965C16.3425 2.39405 15.4937 2.05303 14.6083 1.82666L14.5262 1.81279C14.3346 1.79667 14.1474 1.89244 14.0498 2.06381L12.655 4.51203L12.4811 4.50423L12.2277 4.50003L11.9224 4.50614C11.8209 4.5102 11.7196 4.5163 11.6188 4.52442L11.365 4.54903L9.95008 2.06373C9.83862 1.86793 9.60998 1.77085 9.3917 1.82666ZM13.369 5.28253L14.726 2.89703L14.758 2.90643C15.1525 3.02591 15.538 3.17094 15.9124 3.34038L16.302 3.52703L15.6139 6.03248C15.5567 6.24066 15.6395 6.46208 15.8194 6.58155C16.362 6.94202 16.8483 7.38245 17.261 7.88677L17.3191 7.94685C17.444 8.05589 17.6169 8.09715 17.7803 8.0523L20.292 7.36303L20.3087 7.39021C20.5712 7.8623 20.793 8.35623 20.974 8.87503L18.8264 10.0975C18.6369 10.2053 18.5391 10.4233 18.5845 10.6365C18.6794 11.0811 18.7277 11.5373 18.7277 12C18.7277 12.2875 18.7091 12.5726 18.6722 12.854L18.6683 12.9399C18.6754 13.11 18.7692 13.2674 18.9207 13.3536L21.135 14.613L21.1299 14.6353C21.0201 15.0164 20.8865 15.3895 20.7302 15.7527L20.567 16.11L18.1545 15.4469C17.9482 15.3901 17.7286 15.471 17.6083 15.648C17.1625 16.3043 16.5995 16.875 15.9494 17.3298L15.8811 17.3873C15.7565 17.5128 15.7059 17.6972 15.7539 17.872L16.447 20.396C16.0983 20.582 15.7439 20.7427 15.3804 20.8811L15.016 21.011L13.6887 18.6781C13.5867 18.4989 13.3853 18.4007 13.1814 18.4306C12.8677 18.4767 12.5492 18.5 12.2277 18.5C11.7739 18.5 11.3265 18.4536 10.8901 18.3624L10.799 18.3519C10.6177 18.3477 10.4452 18.4427 10.3531 18.6045L8.98299 21.011L8.61957 20.8811C8.25606 20.7427 7.90168 20.582 7.55199 20.396L8.32467 17.5892C8.37749 17.3971 8.31123 17.1919 8.15602 17.067C7.62125 16.6367 7.15685 16.1242 6.78158 15.5497L6.72463 15.4779C6.59935 15.3466 6.41003 15.2917 6.23042 15.3411L3.43199 16.11L3.26982 15.7527C3.16559 15.5106 3.07149 15.2641 2.9878 15.0137L2.86399 14.613L5.50712 13.1104C5.67832 13.013 5.7764 12.8242 5.75762 12.6281C5.73771 12.4204 5.72769 12.2108 5.72769 12C5.72769 11.6121 5.76162 11.2287 5.82853 10.8528L5.83629 10.7638C5.83583 10.5868 5.74123 10.4203 5.58357 10.3306L3.02499 8.87503C3.16259 8.48334 3.32079 8.10988 3.50223 7.748L3.70699 7.36303L6.59242 8.15517C6.78633 8.20844 6.99329 8.14035 7.11769 7.98235C7.45627 7.55236 7.84791 7.16617 8.28261 6.83369L8.34628 6.77568C8.46205 6.65031 8.50726 6.47228 8.46094 6.30391L7.69699 3.52703L7.71689 3.51792C8.20593 3.27046 8.71596 3.06574 9.24197 2.90643L9.27399 2.89703L10.6633 5.33809C10.7666 5.51956 10.9718 5.61773 11.1779 5.58428C11.5226 5.52835 11.8733 5.50003 12.2277 5.50003C12.4482 5.50003 12.6674 5.51099 12.8845 5.53277C13.0813 5.55249 13.2712 5.4544 13.369 5.28253Z" fill="#4195B9"/>
<path fill-rule="evenodd" clip-rule="evenodd" d="M12 9C13.6569 9 15 10.3431 15 12C15 13.6569 13.6569 15 12 15C10.3431 15 9 13.6569 9 12C9 10.3431 10.3431 9 12 9ZM12 10C10.8954 10 10 10.8954 10 12C10 13.1046 10.8954 14 12 14C13.1046 14 14 13.1046 14 12C14 10.8954 13.1046 10 12 10Z" fill="#699C69"/>
</svg>
