<svg width="24" height="24" viewBox="0 0 24 24" fill="none" xmlns="http://www.w3.org/2000/svg">
<g clip-path="url(#clip0_146_1534)">
<path fill-rule="evenodd" clip-rule="evenodd" d="M12.7536 2.84783C12.9168 2.85893 13.0642 2.94914 13.1484 3.08937L19.2642 13.279C19.3469 13.4167 19.3583 13.5858 19.295 13.7334C19.2317 13.881 19.1014 13.9892 18.9446 14.0243L8.85956 16.2804C8.64925 16.3274 8.43246 16.2344 8.32162 16.0496L5.74681 11.7566C5.63918 11.5771 5.65468 11.3496 5.78568 11.1864L12.3298 3.0337C12.4322 2.90615 12.5904 2.83674 12.7536 2.84783ZM6.78349 11.5409L8.99353 15.2257L18.0503 13.1996L12.6603 4.21938L6.78349 11.5409Z" fill="#4195B9"/>
<path fill-rule="evenodd" clip-rule="evenodd" d="M5.89798 11.1826C6.13376 11.0389 6.44142 11.1135 6.58517 11.3493L9.10254 15.4782C9.24629 15.714 9.17169 16.0217 8.93591 16.1654L5.2832 18.3924C3.99285 19.1791 2.30253 18.7693 1.51583 17.4789L1.33175 17.177C0.545053 15.8867 0.954922 14.1963 2.24527 13.4096L5.89798 11.1826ZM5.99163 12.2967L2.76583 14.2635C1.94704 14.7627 1.68637 15.8377 2.18558 16.6565L2.36965 16.9584C2.86885 17.7772 3.94384 18.0378 4.76263 17.5386L7.98843 15.5719L5.99163 12.2967Z" fill="#4195B9"/>
<path fill-rule="evenodd" clip-rule="evenodd" d="M5.91344 18.1562L8.3313 21.7913C8.4615 21.987 8.7279 22.0395 8.9224 21.9102C9.11813 21.78 9.17063 21.5136 9.04126 21.3191L6.62339 17.684L5.91344 18.1562ZM4.91698 18.4638C4.70777 18.1492 4.78144 17.7082 5.11331 17.4874L6.31586 16.6876C6.63039 16.4783 7.07145 16.552 7.2922 16.8839L9.87389 20.7652C10.3072 21.4167 10.1347 22.3048 9.47622 22.7428C8.82479 23.1761 7.93667 23.0036 7.49867 22.3451L4.91698 18.4638Z" fill="#4195B9"/>
<path fill-rule="evenodd" clip-rule="evenodd" d="M17.2345 7.52414C16.8156 6.89764 15.9659 6.7293 15.3383 7.14892C15.1088 7.3024 14.7982 7.24073 14.6448 7.01117C14.4913 6.78162 14.5529 6.4711 14.7825 6.31761C15.8681 5.59177 17.3392 5.88161 18.0658 6.96833C18.7917 8.05395 18.5018 9.52505 17.4151 10.2516C17.1855 10.4051 16.875 10.3435 16.7215 10.1139C16.5681 9.88433 16.6297 9.57382 16.8593 9.42033C17.4858 9.00145 17.6541 8.15175 17.2345 7.52414Z" fill="#4195B9"/>
<path fill-rule="evenodd" clip-rule="evenodd" d="M17.9639 1.48193C18.2401 1.48193 18.4639 1.70579 18.4639 1.98193V4.22804C18.4639 4.50418 18.2401 4.72804 17.9639 4.72804C17.6878 4.72804 17.4639 4.50418 17.4639 4.22804V1.98193C17.4639 1.70579 17.6878 1.48193 17.9639 1.48193Z" fill="#699C69"/>
<path fill-rule="evenodd" clip-rule="evenodd" d="M22.8463 4.11912C23.0082 4.34287 22.958 4.65544 22.7342 4.81728L20.9164 6.13208C20.6927 6.29391 20.3801 6.24372 20.2183 6.01997C20.0564 5.79622 20.1066 5.48364 20.3304 5.32181L22.1482 4.00701C22.3719 3.84518 22.6845 3.89537 22.8463 4.11912Z" fill="#699C69"/>
<path fill-rule="evenodd" clip-rule="evenodd" d="M20.1244 8.30804C20.2612 8.06817 20.5665 7.98462 20.8064 8.12142L22.7537 9.23203C22.9936 9.36883 23.0771 9.67419 22.9403 9.91406C22.8035 10.1539 22.4981 10.2375 22.2583 10.1007L20.311 8.99008C20.0711 8.85327 19.9875 8.54791 20.1244 8.30804Z" fill="#699C69"/>
</g>
<defs>
<clipPath id="clip0_146_1534">
<rect width="24" height="24" fill="white"/>
</clipPath>
</defs>
</svg>
