<svg width="24" height="24" viewBox="0 0 24 24" fill="none" xmlns="http://www.w3.org/2000/svg">
<path fill-rule="evenodd" clip-rule="evenodd" d="M11.7673 19.1223L5.84325 22.2367C5.59883 22.3652 5.29652 22.2713 5.16802 22.0268C5.11685 21.9295 5.09919 21.818 5.11778 21.7096L6.24917 15.1132C6.27698 14.951 6.22321 14.7855 6.10537 14.6706L1.31274 9.99893C1.115 9.80618 1.11095 9.48963 1.3037 9.29188C1.38045 9.21314 1.48103 9.1619 1.58984 9.14609L8.2131 8.18367C8.37595 8.16001 8.51673 8.05772 8.58956 7.91015L11.5516 1.90847C11.6738 1.66084 11.9736 1.55917 12.2212 1.68138C12.3198 1.73005 12.3996 1.80986 12.4483 1.90847L15.4103 7.91015C15.4831 8.05772 15.6239 8.16001 15.7868 8.18367L22.41 9.14609C22.6833 9.1858 22.8726 9.43952 22.8329 9.71279C22.8171 9.82161 22.7659 9.92218 22.6871 9.99893L17.8945 14.6706C17.7767 14.7855 17.7229 14.951 17.7507 15.1132L18.8821 21.7096C18.9288 21.9818 18.746 22.2403 18.4738 22.287C18.3654 22.3056 18.254 22.2879 18.1566 22.2367L12.2326 19.1223C12.0869 19.0457 11.9129 19.0457 11.7673 19.1223Z" fill="#4195B9"/>
</svg>
