<svg width="24" height="24" viewBox="0 0 24 24" fill="none" xmlns="http://www.w3.org/2000/svg">
<path fill-rule="evenodd" clip-rule="evenodd" d="M18.3878 7.23261C17.7804 4.22609 15.1009 2 12 2C8.8987 2 6.21957 4.22609 5.61261 7.23261C3.59522 7.38696 2 9.07435 2 11.1304C2 13.2878 3.75522 15.0435 5.91304 15.0435H7.65217C7.89261 15.0435 8.08696 14.8487 8.08696 14.6087C8.08696 14.3687 7.89261 14.1739 7.65217 14.1739H5.91304C4.23522 14.1739 2.86957 12.8087 2.86957 11.1304C2.86957 9.45217 4.23522 8.08696 5.89217 8.08348C5.89696 8.08435 5.90217 8.08391 5.90696 8.08478C5.90913 8.08522 5.91043 8.08652 5.91261 8.08696C5.93304 8.09 5.95304 8.0913 5.97304 8.0913H5.97435C6.20087 8.0913 6.43391 8.12087 6.66739 8.17957C6.68435 8.18696 6.70217 8.19304 6.72043 8.19783C7.48609 8.40696 8.15261 8.9213 8.54957 9.6087C8.66957 9.81696 8.93565 9.88739 9.14348 9.76783C9.35174 9.64783 9.42304 9.38174 9.30261 9.17391C8.80261 8.30783 7.97 7.65565 7.01087 7.37609C6.99087 7.36696 6.97 7.35957 6.94826 7.35391C6.79609 7.31304 6.64391 7.28217 6.49174 7.26043C7.07217 4.72739 9.3613 2.86957 12 2.86957C14.6383 2.86957 16.9278 4.72739 17.5083 7.26043C17.3561 7.28261 17.2035 7.31304 17.0517 7.35435C17.0304 7.36 17.01 7.36739 16.99 7.37609C16.0313 7.65522 15.1983 8.30783 14.6974 9.17391C14.5774 9.38217 14.6487 9.64783 14.8565 9.76783C15.0639 9.88826 15.33 9.81696 15.4504 9.60913C15.8478 8.9213 16.5143 8.40696 17.2796 8.19783C17.2974 8.19261 17.3152 8.18696 17.3322 8.17957C17.5657 8.12087 17.7987 8.0913 18.0261 8.0913C18.0539 8.09174 18.0596 8.09261 18.087 8.08696C19.7648 8.08696 21.1304 9.45217 21.1304 11.1304C21.1304 12.8087 19.7648 14.1739 18.087 14.1739H16.3478C16.1074 14.1739 15.913 14.3687 15.913 14.6087C15.913 14.8487 16.1074 15.0435 16.3478 15.0435H18.087C20.2448 15.0435 22 13.2878 22 11.1304C22 9.07435 20.4052 7.38739 18.3878 7.23261Z" fill="#4195B9"/>
<path fill-rule="evenodd" clip-rule="evenodd" d="M13.7391 15.4783H11.2291L14.0644 12.2892C14.2235 12.1092 14.2074 11.8348 14.0278 11.6748C13.8487 11.5153 13.5735 11.5313 13.4144 11.7109L9.93609 15.624C9.82218 15.7518 9.79436 15.9348 9.86436 16.0909C9.93436 16.247 10.0896 16.3479 10.2609 16.3479H12.85L10.3526 19.5592C10.2048 19.7487 10.2391 20.0218 10.4287 20.1692C10.5083 20.2309 10.6022 20.2605 10.6952 20.2605C10.8248 20.2605 10.9531 20.2027 11.0387 20.0927L14.0822 16.1796C14.1839 16.0487 14.2026 15.8709 14.1296 15.7218C14.0565 15.5731 13.9052 15.4783 13.7391 15.4783Z" fill="#699C69"/>
<path fill-rule="evenodd" clip-rule="evenodd" d="M18.6373 16.5298C18.8944 16.5313 19.0388 16.7045 18.9846 16.8865C18.8945 17.1889 18.7922 17.4882 18.6829 17.7843C18.6269 17.936 18.4719 17.9979 18.3318 17.9492C18.1819 17.8971 18.0996 17.7496 18.1492 17.5907C18.2396 17.3007 18.3288 17.0091 18.4431 16.7282C18.4814 16.6343 18.5951 16.5709 18.6373 16.5298Z" fill="#4195B9"/>
<path fill-rule="evenodd" clip-rule="evenodd" d="M16.6946 18.8468C16.6828 18.8903 16.6698 18.9483 16.6512 19.0045C16.5673 19.2592 16.4858 19.5148 16.3956 19.7673C16.3344 19.9387 16.1789 20.0163 16.0282 19.9638C15.8724 19.9095 15.797 19.7596 15.8515 19.5881C15.9416 19.3042 16.0351 19.0211 16.1352 18.7406C16.1877 18.5933 16.3039 18.5211 16.46 18.5519C16.6057 18.5807 16.6815 18.6827 16.6946 18.8468Z" fill="#4195B9"/>
<path fill-rule="evenodd" clip-rule="evenodd" d="M6.71839 18.7301C6.46059 18.7228 6.32197 18.5478 6.37691 18.3655C6.4663 18.069 6.56624 17.7753 6.67238 17.4843C6.73077 17.3243 6.88954 17.2571 7.03454 17.3106C7.18237 17.365 7.25958 17.5123 7.20944 17.6731C7.12072 17.9574 7.03565 18.2441 6.92241 18.519C6.88177 18.6176 6.76431 18.6847 6.71839 18.7301Z" fill="#4195B9"/>
<path fill-rule="evenodd" clip-rule="evenodd" d="M3.38155 18.257C3.12504 18.2545 2.98109 18.0806 3.03546 17.899C3.126 17.5966 3.22844 17.2974 3.33788 17.0013C3.39354 16.8506 3.54972 16.7884 3.68925 16.8371C3.83857 16.8892 3.92 17.0369 3.87034 17.1964C3.77999 17.4864 3.69117 17.778 3.57678 18.0589C3.53854 18.1527 3.42411 18.2157 3.38155 18.257Z" fill="#4195B9"/>
<path fill-rule="evenodd" clip-rule="evenodd" d="M18.7112 21.4303C18.6993 21.4738 18.6863 21.5318 18.6677 21.588C18.5839 21.8427 18.5025 22.0984 18.4122 22.3508C18.3511 22.5218 18.1945 22.5992 18.0441 22.5462C17.8887 22.4914 17.8141 22.3417 17.8686 22.1699C17.9586 21.886 18.052 21.6029 18.1523 21.3225C18.2049 21.1754 18.3215 21.1033 18.4775 21.1347C18.623 21.1639 18.6986 21.2662 18.7112 21.4303Z" fill="#4195B9"/>
<path fill-rule="evenodd" clip-rule="evenodd" d="M6.48145 20.8571C6.47421 20.8869 6.46701 20.928 6.45415 20.9672C6.36687 21.2333 6.28094 21.4999 6.18949 21.7645C6.12534 21.9502 5.97525 22.0361 5.81969 21.9854C5.65224 21.9308 5.5841 21.7755 5.64758 21.5787C5.73534 21.3064 5.82368 21.0343 5.91921 20.7647C5.97122 20.6181 6.08441 20.5422 6.24135 20.5702C6.38784 20.5963 6.46466 20.6976 6.48145 20.8571Z" fill="#4195B9"/>
</svg>
