<svg width="24" height="24" viewBox="0 0 24 24" fill="none" xmlns="http://www.w3.org/2000/svg">
<g clip-path="url(#clip0_146_1535)">
<path fill-rule="evenodd" clip-rule="evenodd" d="M12 7.46484C9.49541 7.46484 7.46503 9.49522 7.46503 11.9998C7.46503 14.5044 9.49541 16.5348 12 16.5348C14.5046 16.5348 16.535 14.5044 16.535 11.9998C16.535 9.49522 14.5046 7.46484 12 7.46484ZM6.46503 11.9998C6.46503 8.94293 8.94312 6.46484 12 6.46484C15.0569 6.46484 17.535 8.94293 17.535 11.9998C17.535 15.0567 15.0569 17.5348 12 17.5348C8.94312 17.5348 6.46503 15.0567 6.46503 11.9998Z" fill="#699C69"/>
<path fill-rule="evenodd" clip-rule="evenodd" d="M12 0.422852C12.2761 0.422852 12.5 0.646709 12.5 0.922852V2.93684C12.5 3.21298 12.2761 3.43684 12 3.43684C11.7239 3.43684 11.5 3.21298 11.5 2.93684V0.922852C11.5 0.646709 11.7239 0.422852 12 0.422852Z" fill="#4195B9"/>
<path fill-rule="evenodd" clip-rule="evenodd" d="M12 20.5625C12.2761 20.5625 12.5 20.7864 12.5 21.0625V23.0765C12.5 23.3526 12.2761 23.5765 12 23.5765C11.7239 23.5765 11.5 23.3526 11.5 23.0765V21.0625C11.5 20.7864 11.7239 20.5625 12 20.5625Z" fill="#4195B9"/>
<path fill-rule="evenodd" clip-rule="evenodd" d="M3.81204 3.81197C4.0073 3.61671 4.32389 3.61671 4.51915 3.81197L5.94908 5.2419C6.14434 5.43717 6.14434 5.75375 5.94908 5.94901C5.75382 6.14427 5.43723 6.14427 5.24197 5.94901L3.81204 4.51908C3.61678 4.32382 3.61678 4.00724 3.81204 3.81197Z" fill="#4195B9"/>
<path fill-rule="evenodd" clip-rule="evenodd" d="M18.0509 18.0507C18.2462 17.8555 18.5628 17.8555 18.758 18.0507L20.188 19.4807C20.3832 19.6759 20.3832 19.9925 20.188 20.1878C19.9927 20.383 19.6761 20.383 19.4808 20.1878L18.0509 18.7579C17.8557 18.5626 17.8557 18.246 18.0509 18.0507Z" fill="#4195B9"/>
<path fill-rule="evenodd" clip-rule="evenodd" d="M0.423077 12C0.423077 11.7239 0.646934 11.5 0.923077 11.5H2.93706C3.21321 11.5 3.43706 11.7239 3.43706 12C3.43706 12.2761 3.21321 12.5 2.93706 12.5H0.923077C0.646934 12.5 0.423077 12.2761 0.423077 12Z" fill="#4195B9"/>
<path fill-rule="evenodd" clip-rule="evenodd" d="M20.5629 12C20.5629 11.7239 20.7868 11.5 21.0629 11.5H23.0769C23.3531 11.5 23.5769 11.7239 23.5769 12C23.5769 12.2761 23.3531 12.5 23.0769 12.5H21.0629C20.7868 12.5 20.5629 12.2761 20.5629 12Z" fill="#4195B9"/>
<path fill-rule="evenodd" clip-rule="evenodd" d="M5.94908 18.0507C6.14434 18.246 6.14434 18.5626 5.94908 18.7579L4.51915 20.1878C4.32389 20.383 4.0073 20.383 3.81204 20.1878C3.61678 19.9925 3.61678 19.6759 3.81204 19.4807L5.24197 18.0507C5.43723 17.8555 5.75382 17.8555 5.94908 18.0507Z" fill="#4195B9"/>
<path fill-rule="evenodd" clip-rule="evenodd" d="M20.188 3.81197C20.3832 4.00724 20.3832 4.32382 20.188 4.51908L18.758 5.94901C18.5628 6.14427 18.2462 6.14427 18.0509 5.94901C17.8557 5.75375 17.8557 5.43717 18.0509 5.2419L19.4808 3.81197C19.6761 3.61671 19.9927 3.61671 20.188 3.81197Z" fill="#4195B9"/>
</g>
<defs>
<clipPath id="clip0_146_1535">
<rect width="24" height="24" fill="white"/>
</clipPath>
</defs>
</svg>
