<svg width="24" height="24" viewBox="0 0 24 24" fill="none" xmlns="http://www.w3.org/2000/svg">
<path fill-rule="evenodd" clip-rule="evenodd" d="M12 1.5C6.20101 1.5 1.5 6.20101 1.5 12C1.5 17.799 6.20101 22.5 12 22.5C17.799 22.5 22.5 17.799 22.5 12C22.5 6.20101 17.799 1.5 12 1.5ZM12 2.5C17.2467 2.5 21.5 6.75329 21.5 12C21.5 17.2467 17.2467 21.5 12 21.5C6.75329 21.5 2.5 17.2467 2.5 12C2.5 6.75329 6.75329 2.5 12 2.5Z" fill="#4195B9"/>
<path fill-rule="evenodd" clip-rule="evenodd" d="M12 18.5C12.4142 18.5 12.75 18.1642 12.75 17.75C12.75 17.3358 12.4142 17 12 17C11.5858 17 11.25 17.3358 11.25 17.75C11.25 18.1642 11.5858 18.5 12 18.5ZM12 5.5C14.2091 5.5 16 7.29086 16 9.5C16 11.5083 14.52 13.1709 12.5911 13.4566L12.5 13.467V15C12.5 15.2455 12.3231 15.4496 12.0899 15.4919L12 15.5C11.7545 15.5 11.5504 15.3231 11.5081 15.0899L11.5 15V13C11.5 12.7239 11.7239 12.5 12 12.5C13.6569 12.5 15 11.1569 15 9.5C15 7.84315 13.6569 6.5 12 6.5C10.3431 6.5 9 7.84315 9 9.5C9 9.77614 8.77614 10 8.5 10C8.22386 10 8 9.77614 8 9.5C8 7.29086 9.79086 5.5 12 5.5Z" fill="#699C69"/>
</svg>
