<svg width="24" height="24" viewBox="0 0 24 24" fill="none" xmlns="http://www.w3.org/2000/svg">
<g clip-path="url(#clip0_146_1533)">
<path fill-rule="evenodd" clip-rule="evenodd" d="M12.09 6.92969C9.2043 6.92969 6.86499 9.269 6.86499 12.1547C6.86499 15.0404 9.2043 17.3797 12.09 17.3797C14.9757 17.3797 17.315 15.0404 17.315 12.1547C17.315 9.269 14.9757 6.92969 12.09 6.92969ZM5.86499 12.1547C5.86499 8.71671 8.65202 5.92969 12.09 5.92969C15.528 5.92969 18.315 8.71671 18.315 12.1547C18.315 15.5927 15.528 18.3797 12.09 18.3797C8.65202 18.3797 5.86499 15.5927 5.86499 12.1547Z" fill="#4195B9"/>
<path fill-rule="evenodd" clip-rule="evenodd" d="M13.2508 3.78006C9.06779 3.19912 5.09537 5.78652 3.93574 9.84736C3.85992 10.1129 3.5832 10.2667 3.31767 10.1909C3.05214 10.115 2.89836 9.8383 2.97418 9.57278C4.27064 5.03278 8.71178 2.14007 13.3884 2.78956C18.065 3.43905 21.5497 7.43252 21.56 12.154C21.5606 12.4301 21.3372 12.6545 21.061 12.6551C20.7849 12.6557 20.5606 12.4323 20.56 12.1562C20.5508 7.93299 17.4338 4.361 13.2508 3.78006Z" fill="#4195B9"/>
<path fill-rule="evenodd" clip-rule="evenodd" d="M3.10872 11.9553C3.38472 11.9464 3.61575 12.1628 3.62474 12.4388C3.76125 16.6281 6.94133 20.0875 11.1043 20.5754C15.2674 21.0633 19.1611 18.4329 20.2626 14.3887C20.3351 14.1223 20.61 13.9651 20.8764 14.0377C21.1428 14.1102 21.3 14.385 21.2274 14.6515C19.996 19.1731 15.6425 22.1141 10.9879 21.5686C6.33343 21.0231 2.77789 17.1552 2.62527 12.4714C2.61628 12.1954 2.83273 11.9643 3.10872 11.9553Z" fill="#4195B9"/>
<path fill-rule="evenodd" clip-rule="evenodd" d="M12.17 0.899902C12.4461 0.899902 12.67 1.12376 12.67 1.3999V6.4299C12.67 6.70604 12.4461 6.9299 12.17 6.9299C11.8938 6.9299 11.67 6.70604 11.67 6.4299V1.3999C11.67 1.12376 11.8938 0.899902 12.17 0.899902Z" fill="#4195B9"/>
<path fill-rule="evenodd" clip-rule="evenodd" d="M12.17 17.5151C12.4461 17.5151 12.67 17.739 12.67 18.0151V23.0451C12.67 23.3213 12.4461 23.5451 12.17 23.5451C11.8938 23.5451 11.67 23.3213 11.67 23.0451V18.0151C11.67 17.739 11.8938 17.5151 12.17 17.5151Z" fill="#4195B9"/>
<path fill-rule="evenodd" clip-rule="evenodd" d="M17.465 12.2251C17.465 11.949 17.6888 11.7251 17.965 11.7251H22.995C23.2711 11.7251 23.495 11.949 23.495 12.2251C23.495 12.5012 23.2711 12.7251 22.995 12.7251H17.965C17.6888 12.7251 17.465 12.5012 17.465 12.2251Z" fill="#4195B9"/>
<path fill-rule="evenodd" clip-rule="evenodd" d="M0.849976 12.2251C0.849976 11.949 1.07383 11.7251 1.34998 11.7251H6.37498C6.65112 11.7251 6.87498 11.949 6.87498 12.2251C6.87498 12.5012 6.65112 12.7251 6.37498 12.7251H1.34998C1.07383 12.7251 0.849976 12.5012 0.849976 12.2251Z" fill="#4195B9"/>
<path fill-rule="evenodd" clip-rule="evenodd" d="M12.09 10.1797C10.9992 10.1797 10.115 11.0639 10.115 12.1547C10.115 13.2454 10.9992 14.1297 12.09 14.1297C13.1808 14.1297 14.065 13.2454 14.065 12.1547C14.065 11.0639 13.1808 10.1797 12.09 10.1797ZM9.11499 12.1547C9.11499 10.5116 10.4469 9.17969 12.09 9.17969C13.733 9.17969 15.065 10.5116 15.065 12.1547C15.065 13.7977 13.733 15.1297 12.09 15.1297C10.4469 15.1297 9.11499 13.7977 9.11499 12.1547Z" fill="#699C69"/>
</g>
<defs>
<clipPath id="clip0_146_1533">
<rect width="24" height="24" fill="white"/>
</clipPath>
</defs>
</svg>
