<svg width="24" height="24" viewBox="0 0 24 24" fill="none" xmlns="http://www.w3.org/2000/svg">
<path fill-rule="evenodd" clip-rule="evenodd" d="M4 3.49986L4 20.5105C4 20.7715 4.06812 21.028 4.19764 21.2547C4.60865 21.974 5.52493 22.2239 6.24421 21.8129L20.7655 13.515C20.9886 13.3875 21.1753 13.2048 21.3075 12.9844C21.7337 12.274 21.5034 11.3526 20.793 10.9264L6.27174 2.21362C6.03862 2.07374 5.77187 1.99986 5.5 1.99986C4.67157 1.99986 4 2.67143 4 3.49986ZM5 20.5105L5 3.49986C5 3.22371 5.22386 2.99986 5.5 2.99986C5.59062 2.99986 5.67954 3.02448 5.75725 3.07111L20.2785 11.7839C20.5153 11.9259 20.5921 12.2331 20.45 12.4699C20.4059 12.5433 20.3437 12.6042 20.2693 12.6467L5.74807 20.9446C5.50831 21.0816 5.20288 20.9983 5.06588 20.7586C5.02271 20.683 5 20.5975 5 20.5105Z" fill="#191C1D"/>
</svg>
