<svg width="24" height="24" viewBox="0 0 24 24" fill="none" xmlns="http://www.w3.org/2000/svg">
<path fill-rule="evenodd" clip-rule="evenodd" d="M17.0393 6.91365C16.2336 4.66422 14.0155 3.23826 11.6346 3.43925C9.25369 3.64024 7.30594 5.41787 6.88881 7.77053C6.47167 10.1232 7.68953 12.4621 9.85618 13.4694C12.0228 14.4767 14.596 13.9002 16.1259 12.0649L16.1275 12.0631C16.6715 11.4168 17.0505 10.648 17.2316 9.82284C17.2908 9.55312 17.5575 9.38248 17.8272 9.4417C18.0969 9.50091 18.2676 9.76757 18.2084 10.0373C17.9925 11.0203 17.5413 11.9361 16.8933 12.7061C15.073 14.889 12.012 15.5744 9.43461 14.3762C6.85683 13.1778 5.40787 10.395 5.90416 7.59594C6.40045 4.79687 8.71779 2.68192 11.5505 2.4428C14.3831 2.20367 17.0222 3.90021 17.9807 6.57647C18.0738 6.83645 17.9386 7.12267 17.6786 7.21578C17.4186 7.30889 17.1324 7.17362 17.0393 6.91365Z" fill="#4195B9"/>
<path fill-rule="evenodd" clip-rule="evenodd" d="M12.085 5.7251C10.4557 5.7251 9.13498 7.04586 9.13498 8.6751C9.13498 10.3043 10.4557 11.6251 12.085 11.6251C13.7142 11.6251 15.035 10.3043 15.035 8.6751C15.035 7.04586 13.7142 5.7251 12.085 5.7251ZM8.13498 8.6751C8.13498 6.49357 9.90345 4.7251 12.085 4.7251C14.2665 4.7251 16.035 6.49357 16.035 8.6751C16.035 10.8566 14.2665 12.6251 12.085 12.6251C9.90345 12.6251 8.13498 10.8566 8.13498 8.6751Z" fill="#4195B9"/>
<path fill-rule="evenodd" clip-rule="evenodd" d="M16.7162 11.2968C16.9114 11.1014 17.2279 11.1012 17.4233 11.2964L21.5333 15.4014L21.5349 15.4029C22.3436 16.2178 22.3436 17.5325 21.5349 18.3473L21.5344 18.3478C21.144 18.7401 20.6134 18.9607 20.06 18.9607C19.5068 18.9607 18.9765 18.7404 18.5862 18.3484C18.586 18.3482 18.5858 18.348 18.5856 18.3478L14.4766 14.2439C14.2813 14.0488 14.2811 13.7322 14.4762 13.5368C14.6714 13.3414 14.9879 13.3412 15.1833 13.5364L19.2944 17.6425C19.4971 17.8462 19.7726 17.9607 20.06 17.9607C20.3472 17.9607 20.6225 17.8463 20.8252 17.6429C21.2466 17.2181 21.2468 16.533 20.8258 16.108C20.8255 16.1078 20.8253 16.1076 20.8251 16.1073L16.7166 12.0039C16.5213 11.8088 16.5211 11.4922 16.7162 11.2968Z" fill="#4195B9"/>
<path fill-rule="evenodd" clip-rule="evenodd" d="M1.79999 11.9102C1.79999 11.634 2.02385 11.4102 2.29999 11.4102H4.55499C4.83113 11.4102 5.05499 11.634 5.05499 11.9102C5.05499 12.1863 4.83113 12.4102 4.55499 12.4102H2.29999C2.02385 12.4102 1.79999 12.1863 1.79999 11.9102Z" fill="#699C69"/>
<path fill-rule="evenodd" clip-rule="evenodd" d="M1.79999 14.9451C1.79999 14.6689 2.02385 14.4451 2.29999 14.4451H6.55499C6.83113 14.4451 7.05499 14.6689 7.05499 14.9451C7.05499 15.2212 6.83113 15.4451 6.55499 15.4451H2.29999C2.02385 15.4451 1.79999 15.2212 1.79999 14.9451Z" fill="#699C69"/>
<path fill-rule="evenodd" clip-rule="evenodd" d="M1.79999 17.98C1.79999 17.7038 2.02385 17.48 2.29999 17.48H12.555C12.8311 17.48 13.055 17.7038 13.055 17.98C13.055 18.2561 12.8311 18.48 12.555 18.48H2.29999C2.02385 18.48 1.79999 18.2561 1.79999 17.98Z" fill="#699C69"/>
<path fill-rule="evenodd" clip-rule="evenodd" d="M1.79999 21.01C1.79999 20.7339 2.02385 20.51 2.29999 20.51H17.055C17.3311 20.51 17.555 20.7339 17.555 21.01C17.555 21.2862 17.3311 21.51 17.055 21.51H2.29999C2.02385 21.51 1.79999 21.2862 1.79999 21.01Z" fill="#699C69"/>
</svg>
