<svg width="24" height="24" viewBox="0 0 24 24" fill="none" xmlns="http://www.w3.org/2000/svg">
<path d="M12 2C9.34784 2 6.8043 3.05357 4.92893 4.92893C3.05357 6.8043 2 9.34784 2 12C2 14.6522 3.05357 17.1957 4.92893 19.0711C6.8043 20.9464 9.34784 22 12 22C14.6522 22 17.1957 20.9464 19.0711 19.0711C20.9464 17.1957 22 14.6522 22 12C22 9.34784 20.9464 6.8043 19.0711 4.92893C17.1957 3.05357 14.6522 2 12 2V2Z" fill="#3877EB"/>
<path d="M13.3537 14.6504H15.9416L16.3479 12.0215H13.3532V10.5847C13.3532 9.49256 13.71 8.52413 14.7316 8.52413H16.3732V6.22992C16.0848 6.19098 15.4748 6.10571 14.3221 6.10571C11.9153 6.10571 10.5042 7.37677 10.5042 10.2726V12.0215H8.03003V14.6504H10.5042V21.8762C10.9942 21.9499 11.4906 21.9999 12 21.9999C12.4606 21.9999 12.91 21.9578 13.3537 21.8978V14.6504Z" fill="white"/>
</svg>
