<svg width="24" height="24" viewBox="0 0 24 24" fill="none" xmlns="http://www.w3.org/2000/svg">
<path d="M17.5623 21.9894L6.45709 22C4.01394 22.0022 2.01333 20.0055 2.01055 17.5623L2 6.45709C1.99778 4.01394 3.9945 2.01333 6.43766 2.01055L17.5429 2C19.9861 1.99778 21.9867 3.9945 21.9894 6.43766L22 17.5429C22.0028 19.9866 20.0055 21.9872 17.5623 21.9894Z" fill="url(#paint0_radial_141_402)"/>
<path d="M17.5623 21.9894L6.45709 22C4.01394 22.0022 2.01333 20.0055 2.01055 17.5623L2 6.45709C1.99778 4.01394 3.9945 2.01333 6.43766 2.01055L17.5429 2C19.9861 1.99778 21.9867 3.9945 21.9894 6.43766L22 17.5429C22.0028 19.9866 20.0055 21.9872 17.5623 21.9894Z" fill="url(#paint1_radial_141_402)"/>
<path d="M12.0001 15.887C9.85736 15.887 8.11328 14.1434 8.11328 12.0001C8.11328 9.85681 9.85736 8.11328 12.0001 8.11328C14.1429 8.11328 15.887 9.85681 15.887 12.0001C15.887 14.1434 14.1429 15.887 12.0001 15.887ZM12.0001 9.22381C10.4693 9.22381 9.22381 10.4693 9.22381 12.0001C9.22381 13.531 10.4693 14.7764 12.0001 14.7764C13.531 14.7764 14.7764 13.531 14.7764 12.0001C14.7764 10.4693 13.531 9.22381 12.0001 9.22381Z" fill="white"/>
<path d="M16.1646 8.66847C16.6246 8.66847 16.9975 8.29557 16.9975 7.83558C16.9975 7.37558 16.6246 7.00269 16.1646 7.00269C15.7046 7.00269 15.3317 7.37558 15.3317 7.83558C15.3317 8.29557 15.7046 8.66847 16.1646 8.66847Z" fill="white"/>
<path d="M15.3317 19.2186H8.66857C6.52582 19.2186 4.78174 17.475 4.78174 15.3317V8.66857C4.78174 6.52526 6.52582 4.78174 8.66857 4.78174H15.3317C17.4745 4.78174 19.2186 6.52526 19.2186 8.66857V15.3317C19.2186 17.475 17.4745 19.2186 15.3317 19.2186ZM8.66857 5.89226C7.13772 5.89226 5.89226 7.13772 5.89226 8.66857V15.3317C5.89226 16.8626 7.13772 18.108 8.66857 18.108H15.3317C16.8626 18.108 18.108 16.8626 18.108 15.3317V8.66857C18.108 7.13772 16.8626 5.89226 15.3317 5.89226H8.66857Z" fill="white"/>
<defs>
<radialGradient id="paint0_radial_141_402" cx="0" cy="0" r="1" gradientUnits="userSpaceOnUse" gradientTransform="translate(9.43497 22.0144) scale(24.9307)">
<stop stop-color="#FFDD55"/>
<stop offset="0.328" stop-color="#FF543F"/>
<stop offset="0.348" stop-color="#FC5245"/>
<stop offset="0.504" stop-color="#E64771"/>
<stop offset="0.643" stop-color="#D53E91"/>
<stop offset="0.761" stop-color="#CC39A4"/>
<stop offset="0.841" stop-color="#C837AB"/>
</radialGradient>
<radialGradient id="paint1_radial_141_402" cx="0" cy="0" r="1" gradientUnits="userSpaceOnUse" gradientTransform="translate(5.2183 1.7503) scale(16.554 11.03)">
<stop stop-color="#4168C9"/>
<stop offset="0.999" stop-color="#4168C9" stop-opacity="0"/>
</radialGradient>
</defs>
</svg>
