<svg width="24" height="24" viewBox="0 0 24 24" fill="none" xmlns="http://www.w3.org/2000/svg">
<path d="M20.5714 2.00049H3.42411C2.63839 2.00049 2 2.64781 2 3.44245V20.5585C2 21.3532 2.63839 22.0005 3.42411 22.0005H20.5714C21.3571 22.0005 22 21.3532 22 20.5585V3.44245C22 2.64781 21.3571 2.00049 20.5714 2.00049ZM8.04464 19.1433H5.08036V9.5987H8.04911V19.1433H8.04464ZM6.5625 8.29513C5.61161 8.29513 4.84375 7.52281 4.84375 6.57638C4.84375 5.62995 5.61161 4.85763 6.5625 4.85763C7.50893 4.85763 8.28125 5.62995 8.28125 6.57638C8.28125 7.52727 7.51339 8.29513 6.5625 8.29513ZM19.1562 19.1433H16.192V14.5005C16.192 13.3933 16.1696 11.9692 14.6518 11.9692C13.1071 11.9692 12.8705 13.1746 12.8705 14.4201V19.1433H9.90625V9.5987H12.75V10.9023H12.7902C13.1875 10.1523 14.1563 9.36209 15.5982 9.36209C18.5982 9.36209 19.1562 11.3398 19.1562 13.9112V19.1433Z" fill="#191C1D"/>
</svg>
