<svg width="24" height="24" viewBox="0 0 24 24" fill="none" xmlns="http://www.w3.org/2000/svg">
<path fill-rule="evenodd" clip-rule="evenodd" d="M4.92893 4.92893C6.8043 3.05357 9.34784 2 12 2C14.6522 2 17.1957 3.05357 19.0711 4.92893C20.9464 6.8043 22 9.34784 22 12C22 14.6522 20.9464 17.1957 19.0711 19.0711C17.1957 20.9464 14.6522 22 12 22C9.34784 22 6.8043 20.9464 4.92893 19.0711C3.05357 17.1957 2 14.6522 2 12C2 9.34784 3.05357 6.8043 4.92893 4.92893ZM15.9419 14.6502H13.354V21.8976C12.9103 21.9576 12.4608 21.9997 12.0003 21.9997C11.4908 21.9997 10.9945 21.9497 10.5045 21.876V14.6502H8.03027V12.0213H10.5045V10.2723C10.5045 7.37652 11.9155 6.10547 14.3224 6.10547C15.4548 6.10547 16.0634 6.18776 16.3579 6.22758L16.3734 6.22968V8.52389H14.7319C13.7103 8.52389 13.3534 9.49231 13.3534 10.5844V12.0213H16.3482L15.9419 14.6502Z" fill="#191C1D"/>
</svg>
