<svg width="24" height="24" viewBox="0 0 24 24" fill="none" xmlns="http://www.w3.org/2000/svg">
<path d="M22.0617 7.29922C21.9422 6.854 21.7078 6.44798 21.382 6.1218C21.0563 5.79563 20.6505 5.56073 20.2055 5.44063C18.5672 5 12 5 12 5C12 5 5.43281 5 3.79453 5.43828C3.34927 5.558 2.94334 5.79276 2.61751 6.119C2.29169 6.44524 2.05744 6.85146 1.93828 7.29688C1.5 8.9375 1.5 12.3594 1.5 12.3594C1.5 12.3594 1.5 15.7813 1.93828 17.4195C2.17969 18.3242 2.89219 19.0367 3.79453 19.2781C5.43281 19.7188 12 19.7188 12 19.7188C12 19.7188 18.5672 19.7188 20.2055 19.2781C21.1102 19.0367 21.8203 18.3242 22.0617 17.4195C22.5 15.7813 22.5 12.3594 22.5 12.3594C22.5 12.3594 22.5 8.9375 22.0617 7.29922ZM9.91406 15.5V9.21875L15.3516 12.3359L9.91406 15.5Z" fill="#191C1D"/>
</svg>
