<svg width="24" height="25" viewBox="0 0 24 25" fill="none" xmlns="http://www.w3.org/2000/svg">
<g clip-path="url(#clip0_146_297)">
<path d="M13.533 1.50732C14.2226 3.0899 14.377 4.13675 13.9962 4.64789C13.425 5.4146 11.0003 5.89164 11.0003 7.14498C11.0003 8.39833 10.9882 9.63172 10.6867 9.95246C10.3852 10.2732 8.30799 10.915 8.78464 11.7882C9.26128 12.6614 7.93121 14.004 7.93121 16.1245C7.93121 18.245 9.93385 18.1081 10.2747 18.845C10.6155 19.5819 10.9553 22.8567 12 23.4875C13.0447 24.1182 12.0972 20.6052 13.856 20.6052C15.6148 20.6052 16.1326 16.8112 15.0516 15.0642C13.9948 13.3565 13.2585 13.445 12.5149 12.9708C12.4634 12.9379 12.4072 12.921 12.3508 12.8947C9.83818 11.7226 8.13198 13.2102 6.98959 12.0623C5.8472 10.9145 6.14948 10.2804 6.58407 8.34498C6.87379 7.05467 5.64594 6.28231 2.90051 6.02788" stroke="#699C69"/>
<path d="M19.4008 4.23828C18.6391 5.52014 18.1398 6.33809 17.903 6.69213C17.5479 7.22319 17.2429 8.3192 17.903 8.85463C18.5632 9.39007 20.4398 10.0509 20.4398 11.2979C20.4398 12.545 18.6016 14.1985 20.4398 14.9461C21.6652 15.4446 22.4626 15.6844 22.8321 15.6656" stroke="#699C69"/>
<path d="M12 23.7949C18.2132 23.7949 23.25 18.7581 23.25 12.5449C23.25 6.33172 18.2132 1.29492 12 1.29492C5.7868 1.29492 0.75 6.33172 0.75 12.5449C0.75 18.7581 5.7868 23.7949 12 23.7949Z" stroke="#4195B9"/>
</g>
<defs>
<clipPath id="clip0_146_297">
<rect width="24" height="24" fill="white" transform="translate(0 0.544922)"/>
</clipPath>
</defs>
</svg>
