<svg width="24" height="25" viewBox="0 0 24 25" fill="none" xmlns="http://www.w3.org/2000/svg">
<g clip-path="url(#clip0_146_288)">
<path fill-rule="evenodd" clip-rule="evenodd" d="M19.9207 5.95894C20.2155 5.75767 20.5875 5.61646 20.9797 5.61646V6.61646C20.8237 6.61646 20.6446 6.6755 20.4845 6.78482C20.3218 6.89593 20.2205 7.02992 20.1825 7.13234C20.0746 7.42291 19.839 7.79727 19.4483 7.98071C19.2402 8.07842 18.9966 8.11629 18.7373 8.05747C18.4845 8.00014 18.2514 7.85905 18.039 7.65744C17.7242 7.35861 17.4208 7.1362 17.1234 7.03739C16.8543 6.94793 16.5694 6.95131 16.2288 7.15646C15.8168 7.40461 15.5463 7.68076 15.3812 7.88877C15.2985 7.99291 15.2425 8.07984 15.2086 8.13725C15.1917 8.16593 15.1804 8.18713 15.1742 8.19927L15.1686 8.21044L15.1697 8.20806M14.2909 7.73041C14.305 7.70337 14.3236 7.66933 14.3472 7.6294C14.402 7.53636 14.4838 7.41087 14.5978 7.26717C14.8261 6.97951 15.1841 6.61833 15.7129 6.29984C16.3131 5.93834 16.9028 5.91028 17.4388 6.08842C17.9467 6.2572 18.379 6.60144 18.7274 6.93214C18.8467 7.04529 18.9252 7.0747 18.9585 7.08225C18.9853 7.08832 19.0021 7.08547 19.0233 7.07554C19.0514 7.06231 19.0929 7.03195 19.1386 6.97449C19.1837 6.9178 19.2209 6.84935 19.2451 6.78426C19.3709 6.44535 19.6285 6.15841 19.9207 5.95894M14.2909 7.73041L14.269 7.75723C14.233 7.80128 14.1809 7.86449 14.1174 7.94044C13.9901 8.09273 13.8183 8.29456 13.638 8.49533C13.4559 8.69812 13.2729 8.89109 13.1222 9.03014C13.0539 9.09315 13.0009 9.13693 12.9636 9.16387C12.8951 9.17281 12.8289 9.18789 12.7759 9.20128C12.6813 9.22516 12.5749 9.25802 12.4657 9.29664C12.2503 9.37288 11.9977 9.48105 11.7833 9.60791C11.6767 9.67095 11.5646 9.74733 11.4689 9.83703C11.3823 9.9182 11.2573 10.0577 11.2115 10.2548C11.1543 10.5007 11.2426 10.7283 11.405 10.8846C11.5402 11.0149 11.7165 11.0891 11.8772 11.1376C12.2902 11.2622 12.6031 11.2877 12.8306 11.2854C12.8407 11.3643 12.8541 11.4473 12.8706 11.5306C12.907 11.7147 12.9644 11.9316 13.0532 12.1272C12.8703 12.0504 12.6669 12.0254 12.4759 12.0363C12.0238 12.0622 11.4898 12.3013 11.1951 12.8529C10.8811 13.4407 10.3452 13.8489 9.44331 13.8489C8.87149 13.8489 8.27747 13.9851 8.03322 14.4897C7.79314 14.9856 8.05254 15.5092 8.32006 15.8623C8.32924 15.8743 8.34257 15.8919 8.32283 15.9542C8.29834 16.0315 8.22886 16.1415 8.10451 16.2472C7.83342 16.4778 7.53713 16.5141 7.37545 16.4278C7.16299 16.3145 6.88407 16.2407 6.59592 16.3521C6.3184 16.4594 6.15606 16.6921 6.06025 16.9054C5.87588 17.316 5.80971 17.9404 5.80846 18.6991C5.78234 19.0128 5.80984 19.3479 5.98728 19.6199C6.19353 19.9361 6.52415 20.0553 6.85254 20.0553C6.95729 20.0553 7.06697 20.0645 7.20379 20.076C7.23526 20.0787 7.26817 20.0815 7.30279 20.0843C7.47415 20.0982 7.68009 20.112 7.88905 20.096C8.33693 20.0617 8.81916 19.8853 9.14745 19.3377C9.41244 18.8956 9.57962 18.8991 9.62891 18.9061C9.79001 18.9289 9.95215 18.872 10.0636 18.7534L10.3809 18.4156C10.9714 18.2565 11.35 18.1798 11.551 18.1613C11.578 18.184 11.614 18.2178 11.6584 18.2652C11.7846 18.4002 11.9344 18.5981 12.0801 18.824C12.2249 19.0484 12.3558 19.285 12.4484 19.4914C12.4948 19.5946 12.5287 19.6838 12.5503 19.7558C12.561 19.7914 12.5676 19.8195 12.5714 19.8404C12.5749 19.8593 12.5752 19.8678 12.5752 19.8678C12.5751 19.9885 12.5239 20.0861 12.4464 20.1606C12.4068 20.1987 12.3647 20.226 12.3296 20.2423C12.3084 20.2521 12.2956 20.2554 12.2916 20.2563C12.2168 20.2575 12.0742 20.2735 11.9438 20.3819C11.7839 20.5147 11.7457 20.6964 11.7535 20.8251C11.7603 20.9371 11.7997 21.0239 11.8241 21.0705C11.8518 21.1233 11.8842 21.1687 11.9133 21.2052C12.0241 21.3437 12.1932 21.4814 12.3767 21.5895C12.715 21.789 13.369 22.033 13.9454 21.6241C14.1488 21.4799 14.2941 21.3305 14.3946 21.1733C14.4504 21.0862 14.4873 21.0044 14.5128 20.9328C14.5717 20.9165 14.6358 20.8897 14.6969 20.846C14.7981 20.7735 14.8814 20.6613 14.9113 20.5182C14.9379 20.3909 14.9125 20.2846 14.8921 20.2241C14.8547 20.1137 14.7883 20.0274 14.7599 19.9909C14.7253 19.9465 14.6844 19.8996 14.652 19.8624L14.6467 19.8564C14.5704 19.7689 14.5111 19.6992 14.4679 19.6305C14.4352 19.5785 14.4291 19.5535 14.4282 19.5504C14.427 19.3849 14.3651 19.2201 14.323 19.1172C14.2723 18.9933 14.2054 18.8568 14.1374 18.7242C14.1019 18.655 14.0664 18.587 14.0311 18.5202C14.2364 18.7033 14.3636 18.8768 14.4541 19.0283C14.526 19.1486 14.5767 19.2575 14.6317 19.3757C14.6425 19.3988 14.6534 19.4221 14.6646 19.446C14.7237 19.5716 14.8133 19.7611 14.9628 19.9098C15.1198 20.066 15.2877 20.2241 15.4963 20.3311C15.7217 20.4469 15.9525 20.4834 16.21 20.4834C16.359 20.4834 16.5048 20.4407 16.6302 20.3506C16.7495 20.2649 16.823 20.156 16.8686 20.0636C16.9528 19.893 16.9777 19.7016 16.9905 19.5877C16.9929 19.5666 16.9949 19.5474 16.9967 19.5297C17.0353 19.5213 17.0748 19.5119 17.1144 19.5017C17.316 19.4498 17.5665 19.3661 17.8145 19.2373C18.2977 18.9865 18.8832 18.4973 18.8832 17.6568C18.8832 17.1116 18.9789 16.9677 18.9989 16.9456C18.9988 16.9458 18.999 16.9454 18.9989 16.9456C19.0004 16.9436 19.0046 16.9384 19.0287 16.9318C19.0653 16.9218 19.1249 16.9147 19.2326 16.9147C19.39 16.9147 19.523 16.8682 19.6148 16.8289C19.6872 16.7979 19.7645 16.7571 19.8226 16.7265C19.8346 16.7202 19.8457 16.7143 19.8559 16.709C19.9935 16.6373 20.0985 16.5916 20.2231 16.5783C20.4487 16.5544 20.9457 16.6237 21.9204 17.5463L22.6078 16.82C21.5601 15.8284 20.782 15.5135 20.1177 15.5839C19.7974 15.6179 19.5537 15.7389 19.3938 15.8222C19.3735 15.8328 19.3557 15.8421 19.3397 15.8505C19.2855 15.879 19.2534 15.8958 19.2212 15.9096C19.2161 15.9118 19.2118 15.9135 19.2085 15.9148C18.9538 15.9162 18.5546 15.9447 18.256 16.2762C17.9716 16.5919 17.8832 17.069 17.8832 17.6568C17.8832 17.9493 17.6963 18.172 17.3538 18.3498C17.1889 18.4354 17.0132 18.4952 16.8653 18.5332C16.7353 18.5667 16.6522 18.577 16.6305 18.5797C16.6254 18.5804 16.6237 18.5806 16.6254 18.5806C16.3784 18.5806 16.2172 18.7295 16.1389 18.8552C16.0741 18.9595 16.0496 19.0681 16.0383 19.1262C16.0223 19.2085 16.0111 19.3268 16.0034 19.4091C16.0015 19.4284 15.9999 19.4458 15.9984 19.4603C15.9797 19.4543 15.9653 19.4479 15.9529 19.4415C15.8964 19.4125 15.8247 19.3566 15.668 19.2007C15.668 19.2007 15.6589 19.1914 15.6409 19.1609C15.6216 19.1281 15.5999 19.0849 15.5694 19.0201C15.561 19.0023 15.5521 18.9831 15.5426 18.9626C15.4876 18.8441 15.4132 18.6839 15.3126 18.5155C15.0636 18.0986 14.6624 17.6388 13.8967 17.2185C13.7142 17.1183 13.5224 17.0315 13.3403 17.0069C13.2454 16.9941 13.1076 16.9915 12.9659 17.0553C12.8064 17.127 12.7013 17.2558 12.6498 17.3956C12.6044 17.5189 12.6053 17.6352 12.6125 17.7134C12.6181 17.7739 12.6296 17.8323 12.6432 17.8859C12.5589 17.7755 12.4732 17.6725 12.3889 17.5823C12.2998 17.487 12.2008 17.3936 12.0966 17.3201C12.0081 17.2579 11.8432 17.1568 11.6361 17.1568C11.2998 17.1568 10.7262 17.2827 9.98033 17.4883C9.89179 17.5127 9.81168 17.561 9.74879 17.628L9.48502 17.9087C8.96547 17.9583 8.57118 18.354 8.28974 18.8235C8.17127 19.0212 8.03093 19.0822 7.81269 19.0989C7.6886 19.1084 7.5506 19.1011 7.38367 19.0875C7.35802 19.0855 7.33117 19.0832 7.30337 19.0808C7.16515 19.069 7.00374 19.0553 6.85254 19.0553C6.83762 19.0553 6.82604 19.0545 6.81733 19.0535C6.81426 19.0433 6.81075 19.0287 6.80767 19.009C6.7994 18.956 6.79617 18.8774 6.80634 18.767C6.80774 18.7518 6.80844 18.7365 6.80844 18.7212C6.80844 17.9882 6.87599 17.5518 6.96223 17.3392C7.61688 17.6511 8.32976 17.3684 8.75238 17.009C8.98107 16.8145 9.18146 16.5552 9.27618 16.2561C9.37525 15.9432 9.35752 15.5757 9.11714 15.2584C9.01582 15.1247 8.96697 15.0223 8.94833 14.9566C8.94514 14.9454 8.94307 14.9362 8.94175 14.9289C8.95078 14.9239 8.96342 14.9178 8.9807 14.911C9.06052 14.8797 9.20591 14.8489 9.44331 14.8489C10.7308 14.8489 11.5972 14.2225 12.0771 13.3241C12.1794 13.1326 12.365 13.0443 12.5331 13.0347C12.5573 13.0333 12.5791 13.0338 12.5981 13.0354C12.6295 13.1535 12.6918 13.2589 12.778 13.3444C12.8917 13.4571 13.0267 13.5158 13.1321 13.5492C13.3389 13.6147 13.5882 13.6295 13.8108 13.632C14.0442 13.6345 14.3072 13.6228 14.5612 13.6115L14.5683 13.6112C14.8258 13.5997 15.0781 13.5885 15.3154 13.5885C16.1017 13.5885 16.5592 13.0226 16.8129 12.567C16.9447 12.3302 17.0438 12.0853 17.1198 11.8861C17.1448 11.8205 17.1661 11.7635 17.1848 11.7137C17.2294 11.5944 17.2585 11.5166 17.2857 11.462C17.3074 11.4185 17.3324 11.3724 17.3616 11.3193C17.3652 11.3127 17.3689 11.3059 17.3728 11.299C17.3979 11.2534 17.4262 11.2018 17.4524 11.1514C17.506 11.0481 17.5881 10.8816 17.611 10.7016C17.6236 10.6029 17.6222 10.4755 17.5703 10.3424C17.5159 10.2029 17.4206 10.0942 17.3057 10.0183C17.1028 9.88416 16.8489 9.8577 16.6254 9.8577C16.5811 9.8577 16.5634 9.85038 16.5614 9.84952C16.5607 9.84923 16.5608 9.84983 16.5579 9.84647C16.5455 9.8323 16.5115 9.77814 16.4873 9.63888C16.464 9.50484 16.4575 9.34014 16.4593 9.14918C16.4599 9.0841 16.4622 8.99419 16.4646 8.90112C16.4677 8.78352 16.4708 8.66088 16.4708 8.57694C16.4708 8.51258 16.4664 8.43904 16.45 8.36441C16.4345 8.29374 16.4007 8.18689 16.3175 8.08813C16.2221 7.97489 16.0858 7.90195 15.9329 7.88973C15.7993 7.87906 15.6913 7.91753 15.6277 7.94689C15.5055 8.00325 15.4058 8.09298 15.3423 8.15469C15.2697 8.22517 15.1964 8.30759 15.1274 8.38935C15.0363 8.49736 14.9346 8.62622 14.8386 8.74789C14.7933 8.80531 14.7492 8.86114 14.7081 8.91242C14.5663 9.08946 14.4573 9.21551 14.3831 9.28097C14.1234 9.50998 14.0675 9.80593 14.0638 10.0335C14.0612 10.1875 14.0843 10.3707 14.1028 10.5175C14.1082 10.5602 14.1132 10.5998 14.117 10.6347C14.1554 10.9823 14.1526 11.2881 13.9229 11.6096C13.8958 11.53 13.8713 11.4365 13.8516 11.3366C13.8193 11.1736 13.8072 11.0328 13.8072 10.9667C13.8072 10.9003 13.8038 10.8046 13.776 10.7071C13.7441 10.5954 13.6721 10.4555 13.5202 10.3602C13.3876 10.277 13.2545 10.268 13.1914 10.2663C13.1297 10.2647 13.0647 10.2702 13.0245 10.2736C13.0221 10.2738 13.0198 10.274 13.0176 10.2742C13.0134 10.2745 13.0092 10.2749 13.0048 10.2753C12.925 10.2821 12.8227 10.2908 12.6865 10.2815C12.7243 10.2666 12.7621 10.2525 12.7993 10.2394C12.8857 10.2088 12.9621 10.1857 13.0208 10.1708C13.0684 10.1588 13.089 10.1562 13.0893 10.1558C13.2043 10.1531 13.2974 10.1171 13.3511 10.0927C13.4135 10.0644 13.4699 10.0295 13.517 9.9972C13.6112 9.9325 13.7085 9.84976 13.8001 9.76524C13.9855 9.59432 14.1929 9.374 14.382 9.16348C14.5728 8.95096 14.7529 8.73949 14.8847 8.5818C14.9507 8.50277 15.005 8.43683 15.043 8.39047L15.0871 8.33634L15.0989 8.32177L15.102 8.31786L15.1029 8.31679L14.7138 8.00281M8.93968 14.9055C8.93972 14.9055 8.9397 14.9062 8.9395 14.9074ZM13.5621 20.0605C13.5817 20.0976 13.6018 20.1318 13.6213 20.1628C13.6427 20.1968 13.6651 20.2297 13.6879 20.2613C13.6442 20.3314 13.6223 20.3968 13.6104 20.4378C13.5994 20.4756 13.5882 20.5277 13.584 20.5473C13.5833 20.5507 13.5828 20.5532 13.5825 20.5544C13.5738 20.5926 13.5677 20.6103 13.5523 20.6344C13.5344 20.6624 13.4877 20.7228 13.3668 20.8085C13.3291 20.8353 13.2665 20.8519 13.1801 20.8408C13.3652 20.6482 13.5177 20.3837 13.5621 20.0605ZM14.3001 19.9587C14.3166 19.9571 14.3202 19.9587 14.3046 19.9587C14.3031 19.9587 14.3016 19.9587 14.3001 19.9587ZM14.3041 12.6217C14.3727 12.6189 14.4437 12.6158 14.5167 12.6125L14.5342 12.6117C14.7842 12.6006 15.0555 12.5885 15.3154 12.5885C15.5399 12.5885 15.7373 12.443 15.9392 12.0805C16.0351 11.9082 16.1139 11.7174 16.1855 11.5297C16.1994 11.4933 16.2139 11.4544 16.2288 11.4144C16.281 11.2744 16.338 11.1215 16.3908 11.0157C16.42 10.9572 16.4509 10.9001 16.4787 10.8495C16.2109 10.8191 15.9792 10.7035 15.8056 10.5053C15.6194 10.2928 15.5403 10.0303 15.5021 9.81014C15.4877 9.72744 15.4779 9.64311 15.4713 9.55924C15.346 9.71502 15.202 9.88735 15.0658 10.0119C15.0648 10.0204 15.0639 10.0328 15.0636 10.0501C15.0624 10.1276 15.0722 10.206 15.0871 10.3249C15.0941 10.3811 15.1023 10.4464 15.111 10.5249C15.1598 10.9673 15.1823 11.5973 14.7047 12.2345C14.5998 12.3745 14.4663 12.5205 14.3041 12.6217ZM15.0684 9.99628C15.0684 9.99632 15.0682 9.99698 15.0679 9.99815ZM16.7908 10.8715C16.7908 10.8715 16.7904 10.8714 16.7897 10.8712Z" fill="#699C69"/>
<path fill-rule="evenodd" clip-rule="evenodd" d="M8.41916 7.65588C8.57828 7.62217 8.74387 7.66797 8.86305 7.77866C8.97811 7.88553 9.09804 7.95386 9.22481 7.9927C9.48676 8.07294 9.63409 8.27128 9.70091 8.45683C9.76223 8.6271 9.76499 8.80256 9.75284 8.93985C9.73052 9.19194 9.64282 9.46893 9.52354 9.66924C9.51958 9.69488 9.51595 9.73582 9.51545 9.79228C9.51438 9.91449 9.52825 10.0703 9.55741 10.2249C9.58722 10.383 9.62783 10.5119 9.66711 10.592C9.66772 10.5932 9.66831 10.5944 9.6689 10.5956C9.86173 10.6612 10.0058 10.791 10.1017 10.9088C10.2219 11.0565 10.3081 11.2345 10.3557 11.4118C10.4022 11.585 10.423 11.7996 10.363 12.0105C10.2975 12.2403 10.1326 12.4624 9.84772 12.5592C9.55524 12.6587 9.17531 12.7743 8.71087 12.9057C8.68853 12.912 8.66579 12.9167 8.64279 12.9199C8.18591 12.9827 7.76142 13.1149 7.36656 13.3158C7.30084 13.3493 7.23043 13.3817 7.16129 13.405L7.15978 13.4055C7.11672 13.42 6.97253 13.4686 6.80897 13.4307C6.70206 13.4059 6.56379 13.3376 6.47446 13.1878C6.39279 13.0508 6.39521 12.9167 6.40457 12.8439C6.42144 12.7126 6.48308 12.608 6.51025 12.5634C6.60175 12.413 6.7824 12.2022 7.026 11.9452C7.00338 11.8989 6.98692 11.8546 6.97546 11.8164C6.92 11.6311 6.92228 11.4285 6.9623 11.2478C7.02847 10.9491 7.24996 10.5541 7.69134 10.4417C7.64344 10.4 7.59575 10.3547 7.55196 10.3069C7.31995 10.0538 7.09077 9.63381 7.25056 9.09627C7.25095 9.09018 7.25153 9.07779 7.2513 9.05746C7.25088 9.02123 7.24886 8.98674 7.24617 8.94082C7.24489 8.91884 7.24345 8.89425 7.24195 8.86559C7.23808 8.79108 7.23398 8.6882 7.24376 8.58513C7.25297 8.48821 7.27886 8.33248 7.3781 8.18787C7.49996 8.01028 7.68177 7.90251 7.83876 7.83269C8.0047 7.75889 8.20212 7.70187 8.41916 7.65588ZM7.99545 10.4065C7.99546 10.4065 7.99513 10.4066 7.99443 10.4068ZM7.36453 13.0832C7.36454 13.0832 7.36456 13.0831 7.36457 13.0831ZM8.26973 11.9672C8.33644 11.955 8.40361 11.9439 8.47125 11.9342C8.83853 11.83 9.14305 11.7382 9.38639 11.6589C9.37142 11.6098 9.34767 11.5665 9.32605 11.5399C9.32582 11.5397 9.32558 11.5394 9.32535 11.5391C9.16537 11.4992 9.04681 11.4079 8.96734 11.3248C8.8797 11.2331 8.81609 11.1277 8.76942 11.0326C8.76685 11.0273 8.7643 11.0221 8.76177 11.0168C8.71166 11.0922 8.64653 11.1636 8.56345 11.2252C8.38892 11.3546 8.17796 11.409 7.95817 11.4106C7.95717 11.4124 7.95611 11.4143 7.955 11.4165C7.95366 11.4192 7.95233 11.422 7.95101 11.4251C8.02574 11.4613 8.1664 11.548 8.23521 11.7265C8.26901 11.8142 8.27701 11.8951 8.26973 11.9672ZM8.5154 9.81032C8.51538 9.80133 8.51541 9.7924 8.51549 9.78352C8.51634 9.68641 8.52294 9.58596 8.53939 9.49143C8.55389 9.40812 8.58387 9.2802 8.66071 9.16344C8.67149 9.14707 8.69426 9.10361 8.71637 9.03705C8.7337 8.98491 8.74628 8.93157 8.75301 8.88389C8.62975 8.83186 8.51303 8.76691 8.40302 8.68992C8.33744 8.70943 8.28534 8.72851 8.24513 8.7464C8.24269 8.74748 8.24033 8.74855 8.23804 8.7496C8.23847 8.76755 8.23931 8.78867 8.2406 8.81363C8.24129 8.82682 8.24219 8.84226 8.24319 8.85923C8.24639 8.91399 8.25052 8.98457 8.25123 9.04595C8.25213 9.12411 8.24982 9.25016 8.21056 9.3764C8.19189 9.43643 8.19719 9.47325 8.20592 9.50092C8.21684 9.53554 8.24176 9.57952 8.28913 9.6312C8.36773 9.71694 8.43942 9.76258 8.5154 9.81032ZM8.24068 8.66961C8.24073 8.66968 8.24053 8.67125 8.2399 8.67411C8.24031 8.67096 8.24062 8.66953 8.24068 8.66961ZM7.45908 11.5473C7.46166 11.5458 7.4631 11.5451 7.46318 11.5451C7.46326 11.5451 7.46197 11.5459 7.45908 11.5473ZM9.52793 9.64756C9.52798 9.64763 9.52761 9.64923 9.5267 9.65214C9.52742 9.64894 9.52788 9.64749 9.52793 9.64756Z" fill="#699C69"/>
<path fill-rule="evenodd" clip-rule="evenodd" d="M6.10416 10.5348C6.09595 10.6729 6.07781 10.8072 6.04859 10.9369C6.0604 10.9365 6.07234 10.936 6.08437 10.9356C6.08563 10.93 6.08697 10.924 6.08839 10.9176C6.10486 10.8436 6.13218 10.7209 6.17032 10.6185C6.1922 10.5598 6.22478 10.4862 6.27466 10.4119C6.26387 10.4173 6.25247 10.4226 6.2405 10.4278C6.22396 10.4348 6.20325 10.4429 6.17889 10.4503C6.15931 10.4702 6.13446 10.4979 6.10416 10.5348ZM6.9049 9.31533C7.0124 9.42176 7.0602 9.54802 7.08405 9.63748C7.09278 9.67021 7.1125 9.71667 7.15209 9.78912C7.15955 9.80278 7.17214 9.82486 7.18708 9.85105C7.21994 9.90867 7.26415 9.98621 7.29017 10.0379C7.3298 10.1167 7.41218 10.2879 7.39848 10.4902C7.38275 10.7225 7.25551 10.8918 7.09754 10.9974C7.09051 11.0214 7.08422 11.0492 7.07487 11.0906C7.06897 11.1166 7.06186 11.1481 7.05257 11.1874C7.03089 11.2791 6.9883 11.4563 6.88103 11.6097C6.74584 11.8031 6.52955 11.9321 6.25468 11.9321C6.19002 11.9321 6.12416 11.9347 6.04772 11.9378C6.01523 11.9391 5.98082 11.9404 5.94378 11.9417C5.83384 11.9455 5.69598 11.9487 5.56965 11.9354C5.50552 11.9287 5.42679 11.9161 5.34662 11.8892C5.26912 11.8632 5.15747 11.813 5.06198 11.7104C4.95496 11.5954 4.89936 11.4475 4.90003 11.2935C4.90063 11.1561 4.94543 11.0402 4.98789 10.9577C5.06126 10.8151 5.10933 10.6214 5.10933 10.3577C5.10933 10.251 5.14346 10.1471 5.20673 10.0612C5.30817 9.92342 5.40995 9.79991 5.51012 9.70583C5.56023 9.65878 5.62177 9.60778 5.6935 9.56612C5.72755 9.54634 5.77318 9.5232 5.82846 9.50513C5.83204 9.50178 5.83601 9.49804 5.84032 9.49399C5.88057 9.45616 5.95033 9.39057 6.00126 9.34846C6.04189 9.31487 6.09715 9.27247 6.1621 9.23603C6.2224 9.2022 6.32765 9.15238 6.46176 9.14575C6.61856 9.138 6.78019 9.19186 6.9049 9.31533Z" fill="#699C69"/>
<path fill-rule="evenodd" clip-rule="evenodd" d="M12 1.89502C6.06294 1.89502 1.25 6.70796 1.25 12.645C1.25 18.5821 6.06294 23.395 12 23.395C17.9371 23.395 22.75 18.5821 22.75 12.645C22.75 6.70796 17.9371 1.89502 12 1.89502ZM0.25 12.645C0.25 6.15567 5.51065 0.89502 12 0.89502C18.4893 0.89502 23.75 6.15567 23.75 12.645C23.75 19.1344 18.4893 24.395 12 24.395C5.51065 24.395 0.25 19.1344 0.25 12.645Z" fill="#4195B9"/>
</g>
<defs>
<clipPath id="clip0_146_288">
<rect width="24" height="24" fill="white" transform="translate(0 0.64502)"/>
</clipPath>
</defs>
</svg>
