<svg width="24" height="24" viewBox="0 0 24 24" fill="none" xmlns="http://www.w3.org/2000/svg">
<g clip-path="url(#clip0_146_292)">
<path d="M23.05 9.99997C22.85 9.44997 22.4 8.89997 21.85 8.54997C20.3 7.54997 17.9 7.49997 16.3 8.39997C15.4 8.84997 14.85 9.74997 14.65 10.65C14.3 12.15 14.4 13.95 15.55 15.05C16.9 16.25 18.85 16.5 20.6 16C20.7 16 20.95 15.9 21.15 15.8H21.2C21.75 15.55 22.25 15.2 22.65 14.7C23.55 13.45 23.6 11.45 23.05 9.99997ZM20.2 13.4C20.15 13.7 19.95 14 19.65 14.1C19.15 14.3 18.5 14.25 18.05 14C17.7 13.75 17.65 13.3 17.6 12.9C17.55 12.1 17.5 11.2 17.75 10.45C17.95 9.99997 18.4 9.84997 18.85 9.84997C19.3 9.84997 19.8 9.89997 20.05 10.3C20.25 10.55 20.2 10.95 20.25 11.25C20.25 11.9 20.35 12.7 20.2 13.4Z" fill="#699C69"/>
<path d="M5.94998 14.1001C5.54998 14.1001 5.09998 14.1001 4.69998 14.0501V9.9001V9.8501H5.89998C5.89998 9.2001 5.89998 8.4501 5.89998 7.8501H1.34998H0.599976C0.599976 8.5001 0.599976 9.2001 0.599976 9.8501C0.999976 9.8501 1.39998 9.8501 1.79998 9.9001V13.9001V14.0501H0.599976C0.599976 14.7001 0.599976 15.3501 0.599976 16.0001H5.89998L5.94998 14.1001Z" fill="#699C69"/>
<path d="M11.5 14.2C10.35 14.5 9.14997 14.25 8.29997 13.4C8.19997 13.3 8.14997 13.15 8.04997 13H6.39997C6.34997 13.95 6.34997 15.05 6.39997 16H8.19997V15.45C8.39997 15.55 8.59997 15.65 8.79997 15.75C10.05 16.25 11.65 16.4 12.9 15.75C13.8 15.25 14.3 14.3 14.15 13.25C14 12.25 13.05 11.35 12.1 11.1L9.19997 10.25L8.99997 10.15C8.89997 10.05 8.84997 9.95001 8.84997 9.85001C9.09997 9.45001 9.59997 9.60001 9.99997 9.60001C10.85 9.70001 11.7 10 12.2 10.75C12.75 10.75 13.35 10.75 13.9 10.75C13.9 9.80001 13.9 8.95001 13.9 7.95001C13.35 7.95001 12.7 7.95001 12.15 7.95001C12.15 8.10001 12.15 8.30001 12.1 8.45001L11.55 8.15001C10.2 7.60001 8.34997 7.55001 7.14997 8.40001C6.34997 8.95001 6.14997 10 6.34997 10.9C6.49997 11.75 7.29997 12.4 8.09997 12.65C9.14997 13.05 10.3 13.3 11.4 13.65C11.5 13.7 11.65 13.8 11.65 13.95C11.7 14.1 11.6 14.15 11.5 14.2Z" fill="#699C69"/>
<path d="M22.45 6.1C20.3 2.6 16.35 0.25 11.9 0.25C9.25 0.25 6.7 1.05 4.55 2.65C4.5 2.65 4.45 2.7 4.4 2.7C3.1 3.65 2.05 4.85 1.25 6.2C0.999999 6.65 1.35 7.2 1.85 7.15C2.05 7.15 2.25 7 2.35 6.85C3 5.8 3.8 4.85 4.75 4.05C5.55 4.25 6.9 4.55 8.75 4.75C8.6 5.15 8.5 5.6 8.35 6.05C8.25 6.45 8.55 6.85 8.95 6.85C9.25 6.85 9.5 6.65 9.55 6.4C9.7 5.85 9.85 5.35 10.05 4.9C10.6 4.95 11.15 4.95 11.75 4.95C12.6 4.95 13.45 4.9 14.35 4.85C14.5 5.35 14.7 5.85 14.85 6.45C14.95 6.7 15.2 6.9 15.45 6.9C15.85 6.9 16.2 6.5 16.05 6.1C15.9 5.6 15.75 5.15 15.6 4.7C16.7 4.5 17.85 4.3 18.95 4C19.9 4.75 20.7 5.7 21.35 6.7C21.45 6.9 21.65 7 21.85 7C22.4 7.1 22.7 6.55 22.45 6.1ZM6.05 3.1C7.25 2.4 8.5 1.9 9.9 1.65C9.7 2.15 9.4 2.75 9.15 3.55C7.9 3.45 6.85 3.3 6.05 3.1ZM10.45 3.65C10.85 2.65 11.2 1.9 11.35 1.5C11.5 1.5 11.7 1.5 11.85 1.5C12.25 1.5 12.6 1.5 13 1.55C13.2 1.9 13.5 2.65 13.85 3.6C12.7 3.7 11.55 3.7 10.45 3.65ZM15.25 3.45C15 2.8 14.8 2.25 14.6 1.8C15.7 2.05 16.75 2.5 17.65 3.05C16.8 3.25 16 3.35 15.25 3.45Z" fill="#4195B9"/>
<path d="M21.85 16.8999C21.65 16.8999 21.45 17.0499 21.35 17.1999C20.7 18.1999 19.9 19.1499 18.95 19.8999C18.15 19.6999 16.8 19.3999 14.95 19.2499C15.1 18.8499 15.2 18.4499 15.35 17.9999C15.45 17.5999 15.15 17.1999 14.75 17.1999C14.45 17.1999 14.2 17.3999 14.15 17.6499C14 18.1999 13.85 18.6499 13.65 19.1499C12.35 19.0999 10.9 19.0999 9.35 19.1999C9.2 18.6999 9 18.1999 8.85 17.6499C8.75 17.3999 8.5 17.1999 8.25 17.1999C7.85 17.1999 7.5 17.5999 7.65 17.9999C7.8 18.4999 7.95 18.8999 8.1 19.3499C7 19.4999 5.85 19.6999 4.75 19.9999C3.8 19.2499 3 18.3499 2.35 17.3499C2.25 17.1999 2.05 17.0499 1.85 17.0499C1.35 16.9999 0.999999 17.5499 1.25 17.9999C3.4 21.3999 7.35 23.6999 11.8 23.6999C14.45 23.6999 17 22.8999 19.15 21.3999C19.2 21.3499 19.25 21.3499 19.3 21.2999C20.6 20.3499 21.65 19.1999 22.45 17.8999C22.7 17.3999 22.35 16.8999 21.85 16.8999ZM6.05 20.8999C6.85 20.7499 7.7 20.5999 8.45 20.4999C8.7 21.1499 8.9 21.6999 9.1 22.0999C8.05 21.8499 7 21.4499 6.05 20.8999ZM11.8 22.4499C11.4 22.4499 11 22.4499 10.65 22.3999C10.45 22.0499 10.15 21.3499 9.8 20.3999C11.05 20.2999 12.2 20.2999 13.25 20.3499C12.85 21.3499 12.5 22.0999 12.35 22.4499C12.15 22.4499 12 22.4499 11.8 22.4499ZM13.8 22.2999C14 21.8499 14.3 21.1999 14.55 20.4499C15.8 20.5499 16.85 20.6999 17.6 20.8499C16.45 21.5499 15.15 22.0499 13.8 22.2999Z" fill="#4195B9"/>
</g>
<defs>
<clipPath id="clip0_146_292">
<rect width="24" height="24" fill="white"/>
</clipPath>
</defs>
</svg>
