<svg width="24" height="24" viewBox="0 0 24 24" fill="none" xmlns="http://www.w3.org/2000/svg">
<g clip-path="url(#clip0_146_293)">
<path fill-rule="evenodd" clip-rule="evenodd" d="M20 10C20 4.47715 15.5228 0 10 0C4.47715 0 0 4.47715 0 10C0 15.5228 4.47715 20 10 20C10.7763 20 11.532 19.9115 12.2574 19.7441C12.1616 19.4283 12.0912 19.1015 12.0484 18.766C11.8175 18.8197 11.5831 18.8645 11.3457 18.9001C11.5777 18.7417 11.8002 18.5764 12.0134 18.4041C12.0045 18.2705 12 18.1358 12 18C12 17.7057 12.0212 17.4163 12.0621 17.1333C11.5935 17.6004 11.0585 18.0207 10.4552 18.3949L10.455 15L12.8025 15.0003C13.0097 14.6422 13.2527 14.3075 13.5268 14.0011L10.455 14V11L14.5885 11.0008C14.5344 11.8381 14.41 12.6194 14.2135 13.3455C14.5728 13.0528 14.9667 12.8009 15.388 12.5969C15.4839 12.0861 15.5496 11.554 15.5852 11.001L18.945 11.0005C18.9056 11.3565 18.8455 11.7062 18.7659 12.0484C19.1014 12.0912 19.4283 12.1616 19.7441 12.2574C19.9115 11.532 20 10.7763 20 10ZM2.51601 15.0007L5.51667 15.0014C6.23421 16.5965 7.34872 17.9079 8.85811 18.9282C6.21564 18.5937 3.93043 17.1133 2.51601 15.0007ZM6.52376 15.0004L9.544 15L9.54448 18.2923C8.21072 17.4313 7.20443 16.3361 6.52376 15.0004ZM1.055 11.0007L4.57699 11.0014C4.64658 12.0821 4.8313 13.0824 5.13082 14.0012L1.93554 14C1.47768 13.0787 1.17305 12.0678 1.055 11.0007ZM5.48786 11.0006L9.544 11V14L6.09153 14.0015C5.7638 13.096 5.56273 12.0962 5.48786 11.0006ZM1.51234 6.99936L4.85741 6.99839C4.64953 7.92595 4.54545 8.92682 4.54545 10H1C1 8.94785 1.18054 7.93788 1.51234 6.99936ZM5.79028 6.99892L9.544 6.999V10H5.45455C5.45455 8.91475 5.56633 7.91481 5.79028 6.99892ZM10.455 6.999L14.2997 6.99938C14.5144 7.91514 14.62 8.91493 14.62 10V10.001L10.455 10V6.999ZM15.3047 6.99828L18.4875 6.99898C18.8194 7.9376 19 8.94771 19 10H15.6167C15.6167 8.92678 15.5126 7.92588 15.3047 6.99828ZM8.69331 1.09417L8.85781 1.0718C7.04395 2.29802 5.80033 3.94473 5.13068 5.99919L1.93584 5.99935C3.22368 3.40843 5.72341 1.52613 8.69331 1.09417ZM6.09146 5.99867C6.74209 4.20078 7.89197 2.77441 9.54458 1.70764L9.544 5.999L6.09146 5.99867ZM10.455 5.999L10.4551 1.60538C12.1894 2.68269 13.3617 4.14283 14.0098 5.99891L10.455 5.999ZM11.4876 1.19846L11.3448 1.0998C14.2979 1.54224 16.7817 3.41939 18.064 5.99909L15.0313 5.99864C14.3844 4.01436 13.202 2.41047 11.4876 1.19846Z" fill="#4195B9"/>
<path fill-rule="evenodd" clip-rule="evenodd" d="M24 18C24 14.6863 21.3137 12 18 12C14.6863 12 12 14.6863 12 18C12 21.3137 14.6863 24 18 24C21.3137 24 24 21.3137 24 18ZM13 18C13 15.2386 15.2386 13 18 13C20.7614 13 23 15.2386 23 18C23 20.7614 20.7614 23 18 23C15.2386 23 13 20.7614 13 18Z" fill="#699C69"/>
<path fill-rule="evenodd" clip-rule="evenodd" d="M19.85 15.7C20.0157 15.4791 20.3291 15.4343 20.55 15.6C20.7464 15.7473 20.8036 16.0113 20.6975 16.2233L20.65 16.3L17.65 20.3C17.4877 20.5164 17.1885 20.5604 16.9729 20.4164L16.8964 20.3536L15.3964 18.8536C15.2012 18.6583 15.2012 18.3417 15.3964 18.1465C15.57 17.9729 15.8394 17.9536 16.0343 18.0886L16.1036 18.1465L17.196 19.239L19.85 15.7Z" fill="#699C69"/>
</g>
<defs>
<clipPath id="clip0_146_293">
<rect width="24" height="24" fill="white"/>
</clipPath>
</defs>
</svg>
