<svg width="24" height="24" viewBox="0 0 24 24" fill="none" xmlns="http://www.w3.org/2000/svg">
<path fill-rule="evenodd" clip-rule="evenodd" d="M14.2801 13.1602C14.5286 13.1602 14.7301 13.3616 14.7301 13.6102V18.6258L18.8504 20.4279C19.0781 20.5275 19.182 20.7928 19.0824 21.0205C18.9828 21.2482 18.7175 21.352 18.4898 21.2524L14.0998 19.3324C13.9359 19.2608 13.8301 19.099 13.8301 18.9202V13.6102C13.8301 13.3616 14.0315 13.1602 14.2801 13.1602Z" fill="#699C69"/>
<path fill-rule="evenodd" clip-rule="evenodd" d="M23.075 13.125C23.3235 13.125 23.525 13.3265 23.525 13.575V18.885C23.525 19.0622 23.421 19.223 23.2593 19.2955L18.9043 21.2505C18.7651 21.313 18.6036 21.3007 18.4755 21.2178C18.3474 21.1348 18.27 20.9926 18.27 20.84V15.47C18.27 15.2215 18.4715 15.02 18.72 15.02C18.9685 15.02 19.17 15.2215 19.17 15.47V20.1447L22.625 18.5937V13.575C22.625 13.3265 22.8265 13.125 23.075 13.125Z" fill="#699C69"/>
<path fill-rule="evenodd" clip-rule="evenodd" d="M18.9439 13.3323C19.0477 13.5582 18.9487 13.8253 18.7229 13.9291L16.8277 14.7997L16.81 16.9638C16.808 17.2124 16.6049 17.4122 16.3564 17.4102C16.1078 17.4081 15.908 17.205 15.91 16.9565L15.93 14.5065C15.9315 14.332 16.0336 14.1741 16.1922 14.1013L18.3472 13.1113C18.573 13.0075 18.8402 13.1065 18.9439 13.3323Z" fill="#699C69"/>
<path fill-rule="evenodd" clip-rule="evenodd" d="M18.5013 11.2521C18.6154 11.2027 18.7448 11.2027 18.8589 11.2521L23.2589 13.1571C23.4236 13.2284 23.5302 13.3908 23.5301 13.5703C23.53 13.7498 23.4233 13.9121 23.2585 13.9832L18.8585 15.8832C18.7446 15.9324 18.6155 15.9324 18.5017 15.8832L14.1017 13.9832C13.9369 13.9121 13.8302 13.7498 13.8301 13.5703C13.83 13.3908 13.9366 13.2284 14.1013 13.1571L18.5013 11.2521ZM15.4139 13.5695L18.6801 14.9799L21.9462 13.5695L18.6801 12.1555L15.4139 13.5695Z" fill="#699C69"/>
<path fill-rule="evenodd" clip-rule="evenodd" d="M7.28219 5.89931C6.72203 7.35799 6.36499 9.40696 6.36499 11.6951C6.36499 13.9833 6.72203 16.0322 7.28219 17.4909C7.56292 18.2219 7.88496 18.7792 8.21707 19.145C8.5491 19.5107 8.85159 19.6451 9.10999 19.6451C9.36839 19.6451 9.67088 19.5107 10.0029 19.145C10.335 18.7792 10.6571 18.2219 10.9378 17.4909C11.498 16.0322 11.855 13.9833 11.855 11.6951C11.855 9.40696 11.498 7.35799 10.9378 5.89931C10.6571 5.1683 10.335 4.61106 10.0029 4.24526C9.67088 3.87957 9.36839 3.74512 9.10999 3.74512C8.85159 3.74512 8.5491 3.87957 8.21707 4.24526C7.88496 4.61106 7.56292 5.1683 7.28219 5.89931ZM7.47671 3.57306C7.92113 3.08356 8.47231 2.74512 9.10999 2.74512C9.74767 2.74512 10.2988 3.08356 10.7433 3.57306C11.1876 4.06245 11.5648 4.74268 11.8713 5.54082C12.4856 7.14044 12.855 9.31647 12.855 11.6951C12.855 14.0738 12.4856 16.2498 11.8713 17.8494C11.5648 18.6476 11.1876 19.3278 10.7433 19.8172C10.2988 20.3067 9.74767 20.6451 9.10999 20.6451C8.47231 20.6451 7.92113 20.3067 7.47671 19.8172C7.03237 19.3278 6.65517 18.6476 6.34866 17.8494C5.73437 16.2498 5.36499 14.0738 5.36499 11.6951C5.36499 9.31647 5.73437 7.14044 6.34866 5.54082C6.65517 4.74268 7.03237 4.06245 7.47671 3.57306Z" fill="#4195B9"/>
<path fill-rule="evenodd" clip-rule="evenodd" d="M0.660009 11.1851C0.936151 11.185 1.16002 11.4089 1.16003 11.685C1.16016 14.2528 2.39972 16.6626 4.48855 18.1559C6.57738 19.6493 9.2586 20.0425 11.6883 19.2119C11.9496 19.1226 12.2338 19.262 12.3232 19.5233C12.4125 19.7846 12.2731 20.0688 12.0118 20.1582C9.27665 21.0932 6.25838 20.6505 3.90697 18.9694C1.55555 17.2883 0.160179 14.5756 0.160034 11.6851C0.16002 11.4089 0.383867 11.1851 0.660009 11.1851Z" fill="#4195B9"/>
<path fill-rule="evenodd" clip-rule="evenodd" d="M1.77219 8.63509H16.4452C15.335 5.97419 12.8348 4.07087 9.87166 3.78505C6.39109 3.44933 3.11099 5.4263 1.77219 8.63509ZM16.7862 9.63509H1.15508C1.06846 9.63509 0.969955 9.6143 0.876511 9.55759C0.784287 9.50162 0.723734 9.42693 0.686147 9.35943C0.619067 9.23896 0.613651 9.12209 0.613082 9.07203C0.611813 8.96028 0.637506 8.85112 0.653831 8.78866C0.673037 8.71518 0.696049 8.64589 0.713019 8.59771C0.721751 8.57293 0.729459 8.55211 0.735133 8.53711L0.742103 8.51891L0.743695 8.51484C2.17776 4.74677 5.95433 2.40256 9.96767 2.78967C13.9819 3.17687 17.2414 6.20096 17.9278 10.175C17.9748 10.4471 17.7923 10.7058 17.5202 10.7528C17.2481 10.7998 16.9894 10.6173 16.9424 10.3452C16.9008 10.1044 16.8486 9.86755 16.7862 9.63509Z" fill="#4195B9"/>
<path fill-rule="evenodd" clip-rule="evenodd" d="M0.655029 14.1702C0.655029 13.894 0.878887 13.6702 1.15503 13.6702H12.185C12.4612 13.6702 12.685 13.894 12.685 14.1702C12.685 14.4463 12.4612 14.6702 12.185 14.6702H1.15503C0.878887 14.6702 0.655029 14.4463 0.655029 14.1702Z" fill="#4195B9"/>
</svg>
