<svg width="24" height="24" viewBox="0 0 24 24" fill="none" xmlns="http://www.w3.org/2000/svg">
<path fill-rule="evenodd" clip-rule="evenodd" d="M7.28219 5.89931C6.72203 7.35799 6.36499 9.40696 6.36499 11.6951C6.36499 13.9833 6.72203 16.0322 7.28219 17.4909C7.56292 18.2219 7.88496 18.7792 8.21707 19.145C8.5491 19.5107 8.85159 19.6451 9.10999 19.6451C9.36839 19.6451 9.67088 19.5107 10.0029 19.145C10.335 18.7792 10.6571 18.2219 10.9378 17.4909C11.498 16.0322 11.855 13.9833 11.855 11.6951C11.855 9.40696 11.498 7.35799 10.9378 5.89931C10.6571 5.1683 10.335 4.61106 10.0029 4.24526C9.67088 3.87957 9.36839 3.74512 9.10999 3.74512C8.85159 3.74512 8.5491 3.87957 8.21707 4.24526C7.88496 4.61106 7.56292 5.1683 7.28219 5.89931ZM7.47671 3.57306C7.92113 3.08356 8.47231 2.74512 9.10999 2.74512C9.74767 2.74512 10.2988 3.08356 10.7433 3.57306C11.1876 4.06245 11.5648 4.74268 11.8713 5.54082C12.4856 7.14044 12.855 9.31647 12.855 11.6951C12.855 14.0738 12.4856 16.2498 11.8713 17.8494C11.5648 18.6476 11.1876 19.3278 10.7433 19.8172C10.2988 20.3067 9.74767 20.6451 9.10999 20.6451C8.47231 20.6451 7.92113 20.3067 7.47671 19.8172C7.03237 19.3278 6.65517 18.6476 6.34866 17.8494C5.73437 16.2498 5.36499 14.0738 5.36499 11.6951C5.36499 9.31647 5.73437 7.14044 6.34866 5.54082C6.65517 4.74268 7.03237 4.06245 7.47671 3.57306Z" fill="#4195B9"/>
<path fill-rule="evenodd" clip-rule="evenodd" d="M0.660009 11.1851C0.936151 11.185 1.16002 11.4089 1.16003 11.685C1.16016 14.2528 2.39972 16.6626 4.48855 18.1559C6.57738 19.6493 9.2586 20.0425 11.6883 19.2119C11.9496 19.1226 12.2338 19.262 12.3232 19.5233C12.4125 19.7846 12.2731 20.0688 12.0118 20.1582C9.27665 21.0932 6.25838 20.6505 3.90697 18.9694C1.55555 17.2883 0.160179 14.5756 0.160034 11.6851C0.16002 11.4089 0.383867 11.1851 0.660009 11.1851Z" fill="#4195B9"/>
<path fill-rule="evenodd" clip-rule="evenodd" d="M1.77219 8.63509H16.4452C15.335 5.97419 12.8348 4.07087 9.87166 3.78505C6.39109 3.44933 3.11099 5.4263 1.77219 8.63509ZM16.7862 9.63509H1.15508C1.06846 9.63509 0.969955 9.6143 0.876511 9.55759C0.784287 9.50162 0.723734 9.42693 0.686147 9.35943C0.619067 9.23896 0.613651 9.12209 0.613082 9.07203C0.611813 8.96028 0.637506 8.85112 0.653831 8.78866C0.673037 8.71518 0.696049 8.64589 0.713019 8.59771C0.721751 8.57293 0.729459 8.55211 0.735133 8.53711L0.742103 8.51891L0.743695 8.51484C2.17776 4.74677 5.95433 2.40256 9.96767 2.78967C13.9817 3.17685 17.2411 6.20067 17.9277 10.1744C18.0266 10.7393 18.089 11.3099 18.1146 11.8828C18.1269 12.1587 17.9132 12.3923 17.6374 12.4046C17.3615 12.4169 17.1279 12.2032 17.1156 11.9274C17.0919 11.3972 17.0341 10.8691 16.9426 10.3464L16.9424 10.3452C16.9008 10.1044 16.8486 9.86755 16.7862 9.63509Z" fill="#4195B9"/>
<path fill-rule="evenodd" clip-rule="evenodd" d="M0.655029 14.1702C0.655029 13.894 0.878887 13.6702 1.15503 13.6702H14.65C14.9262 13.6702 15.15 13.894 15.15 14.1702C15.15 14.4463 14.9262 14.6702 14.65 14.6702H1.15503C0.878887 14.6702 0.655029 14.4463 0.655029 14.1702Z" fill="#4195B9"/>
<path fill-rule="evenodd" clip-rule="evenodd" d="M17.7451 17.1951C17.7451 16.9466 17.9466 16.7451 18.1951 16.7451H19.6951C20.7472 16.7451 21.6001 17.598 21.6001 18.6501V18.8451C21.6001 19.8972 20.7472 20.7501 19.6951 20.7501H17.5351C17.2866 20.7501 17.0851 20.5486 17.0851 20.3001C17.0851 20.0516 17.2866 19.8501 17.5351 19.8501H19.6951C20.2501 19.8501 20.7001 19.4002 20.7001 18.8451V18.6501C20.7001 18.0951 20.2501 17.6451 19.6951 17.6451H18.1951C17.9466 17.6451 17.7451 17.4436 17.7451 17.1951Z" fill="#699C69"/>
<path fill-rule="evenodd" clip-rule="evenodd" d="M19.0876 15.6563C19.2637 15.8317 19.2643 16.1166 19.0889 16.2927L18.1702 17.2151L19.0889 18.1376C19.2643 18.3137 19.2637 18.5986 19.0876 18.774C18.9115 18.9494 18.6266 18.9488 18.4512 18.7727L17.2162 17.5327C17.0414 17.3571 17.0414 17.0732 17.2162 16.8976L18.4512 15.6576C18.6266 15.4815 18.9115 15.4809 19.0876 15.6563Z" fill="#699C69"/>
<path fill-rule="evenodd" clip-rule="evenodd" d="M19.105 14.5352C16.9815 14.5352 15.26 16.2566 15.26 18.3802C15.26 20.5037 16.9815 22.2252 19.105 22.2252C21.2285 22.2252 22.95 20.5037 22.95 18.3802C22.95 16.2566 21.2285 14.5352 19.105 14.5352ZM14.26 18.3802C14.26 15.7043 16.4292 13.5352 19.105 13.5352C21.7808 13.5352 23.95 15.7043 23.95 18.3802C23.95 21.056 21.7808 23.2252 19.105 23.2252C16.4292 23.2252 14.26 21.056 14.26 18.3802Z" fill="#699C69"/>
</svg>
