<svg width="24" height="24" viewBox="0 0 24 24" fill="none" xmlns="http://www.w3.org/2000/svg">
<path fill-rule="evenodd" clip-rule="evenodd" d="M9.94223 5.89931C9.38206 7.35799 9.02502 9.40696 9.02502 11.6951C9.02502 13.9833 9.38206 16.0322 9.94223 17.4909C10.223 18.2219 10.545 18.7792 10.8771 19.145C11.2091 19.5107 11.5116 19.6451 11.77 19.6451C12.0284 19.6451 12.3309 19.5107 12.6629 19.145C12.9951 18.7792 13.3171 18.2219 13.5978 17.4909C14.158 16.0322 14.515 13.9833 14.515 11.6951C14.515 9.40696 14.158 7.35799 13.5978 5.89931C13.3171 5.1683 12.9951 4.61106 12.6629 4.24526C12.3309 3.87957 12.0284 3.74512 11.77 3.74512C11.5116 3.74512 11.2091 3.87957 10.8771 4.24526C10.545 4.61106 10.223 5.1683 9.94223 5.89931ZM10.1367 3.57306C10.5812 3.08356 11.1323 2.74512 11.77 2.74512C12.4077 2.74512 12.9589 3.08356 13.4033 3.57306C13.8476 4.06245 14.2248 4.74268 14.5314 5.54082C15.1456 7.14044 15.515 9.31647 15.515 11.6951C15.515 14.0738 15.1456 16.2498 14.5314 17.8494C14.2248 18.6476 13.8476 19.3278 13.4033 19.8172C12.9589 20.3067 12.4077 20.6451 11.77 20.6451C11.1323 20.6451 10.5812 20.3067 10.1367 19.8172C9.69241 19.3278 9.3152 18.6476 9.0087 17.8494C8.3944 16.2498 8.02502 14.0738 8.02502 11.6951C8.02502 9.31647 8.3944 7.14044 9.0087 5.54082C9.3152 4.74268 9.69241 4.06245 10.1367 3.57306Z" fill="#4195B9"/>
<path fill-rule="evenodd" clip-rule="evenodd" d="M4.43216 8.63509H19.1052C17.9949 5.97419 15.4948 4.07087 12.5316 3.78505C9.05106 3.44933 5.77097 5.4263 4.43216 8.63509ZM19.4462 9.63509H3.81505C3.72843 9.63509 3.62993 9.6143 3.53648 9.55759C3.44426 9.50162 3.38371 9.42693 3.34612 9.35943C3.27904 9.23896 3.27362 9.12209 3.27306 9.07203C3.27179 8.96028 3.29748 8.85112 3.3138 8.78866C3.33301 8.71518 3.35602 8.64589 3.37299 8.59771C3.38172 8.57293 3.38943 8.55211 3.39511 8.53711L3.40208 8.51892L3.40367 8.51484C4.83773 4.74677 8.61431 2.40256 12.6276 2.78967C16.6417 3.17685 19.901 6.20067 20.5877 10.1744C20.6866 10.7393 20.749 11.3099 20.7746 11.8828C20.7869 12.1587 20.5732 12.3923 20.2973 12.4046C20.0215 12.4169 19.7879 12.2032 19.7756 11.9274C19.7519 11.3972 19.6941 10.8691 19.6026 10.3464L19.6024 10.3452C19.5608 10.1044 19.5085 9.86755 19.4462 9.63509Z" fill="#4195B9"/>
<path fill-rule="evenodd" clip-rule="evenodd" d="M3.30805 10.9507C3.58392 10.9385 3.8174 11.1524 3.82954 11.4282C3.85286 11.9582 3.91063 12.4861 4.00248 13.0086L4.00277 13.0103L4.00277 13.0103C4.04424 13.251 4.09634 13.4878 4.15856 13.7202H19.79C19.8777 13.7202 19.977 13.7415 20.0707 13.7991C20.1631 13.8557 20.2231 13.931 20.2601 13.9982C20.3262 14.1181 20.3315 14.2343 20.332 14.2841C20.3333 14.3956 20.3079 14.5048 20.2916 14.5678C20.2725 14.6418 20.2496 14.7115 20.2327 14.7601C20.224 14.7851 20.2163 14.8061 20.2106 14.8212L20.2037 14.8396L20.2023 14.843C20.2021 14.8436 20.2019 14.8443 20.2016 14.8449C18.7669 18.6134 14.9891 20.9572 10.9753 20.5688C6.96111 20.1804 3.70258 17.1552 3.01743 13.1809C2.91816 12.616 2.85572 12.0452 2.83051 11.4722C2.81837 11.1963 3.03217 10.9628 3.30805 10.9507ZM4.49902 14.7202C5.60824 17.3821 8.1081 19.2867 11.0716 19.5735C14.5542 19.9104 17.8367 17.9319 19.1749 14.7202H4.49902Z" fill="#4195B9"/>
</svg>
