<svg width="24" height="24" viewBox="0 0 24 24" fill="none" xmlns="http://www.w3.org/2000/svg">
<path d="M18.605 10.735C15.9292 10.735 13.76 12.9042 13.76 15.58C13.76 18.2558 15.9292 20.425 18.605 20.425C21.2808 20.425 23.45 18.2558 23.45 15.58C23.45 12.9042 21.2808 10.735 18.605 10.735ZM18.605 11.735C20.7285 11.735 22.45 13.4565 22.45 15.58C22.45 17.7035 20.7285 19.425 18.605 19.425C16.4815 19.425 14.76 17.7035 14.76 15.58C14.76 13.4565 16.4815 11.735 18.605 11.735Z" fill="#699C69"/>
<path d="M19.7769 13.7647C19.9511 13.5504 20.266 13.5178 20.4803 13.6919C20.6781 13.8526 20.7211 14.1333 20.5896 14.3441L20.5531 14.3952L18.1281 17.3802C17.9524 17.5966 17.6377 17.6249 17.4268 17.4548L17.3801 17.412L16.1651 16.152C15.9734 15.9533 15.9792 15.6367 16.178 15.445C16.3614 15.2681 16.6453 15.2594 16.8386 15.4155L16.8849 15.4579L17.7075 16.311L19.7769 13.7647Z" fill="#699C69"/>
<path d="M20.179 6.47998C20.7666 6.48468 21.2466 6.93942 21.2916 7.52005L21.295 7.59998V10.035C21.295 10.3111 21.0711 10.535 20.795 10.535C20.5386 10.535 20.3272 10.342 20.2983 10.0933L20.295 10.035L20.295 7.60396C20.2945 7.54708 20.2561 7.49927 20.2061 7.48461L20.175 7.47998H2.71497C2.65974 7.47998 2.61323 7.51729 2.59926 7.56808L2.59497 7.59998V18.215C2.59497 18.2702 2.63228 18.3167 2.68307 18.3307L2.71497 18.335H13.17C13.4461 18.335 13.67 18.5588 13.67 18.835C13.67 19.0914 13.477 19.3027 13.2283 19.3316L13.17 19.335H2.71497C2.12331 19.335 1.6388 18.8762 1.59778 18.295L1.59497 18.215V7.59998C1.59497 7.00832 2.05376 6.52381 2.63498 6.48279L2.71497 6.47998H20.179Z" fill="#4195B9"/>
<path d="M11.6749 10.7C11.9511 10.7 12.1749 10.9238 12.1749 11.2C12.1749 11.4564 11.9819 11.6677 11.7333 11.6966L11.6749 11.7H5.68994C5.4138 11.7 5.18994 11.4761 5.18994 11.2C5.18994 10.9435 5.38296 10.7322 5.63163 10.7033L5.68994 10.7H11.6749Z" fill="#4195B9"/>
<path d="M11.6749 12.36C11.9511 12.36 12.1749 12.5838 12.1749 12.86C12.1749 13.1164 11.9819 13.3277 11.7333 13.3566L11.6749 13.36H5.68994C5.4138 13.36 5.18994 13.1361 5.18994 12.86C5.18994 12.6036 5.38296 12.3922 5.63163 12.3633L5.68994 12.36H11.6749Z" fill="#4195B9"/>
<path d="M11.6749 14.025C11.9511 14.025 12.1749 14.2489 12.1749 14.525C12.1749 14.7814 11.9819 14.9928 11.7333 15.0217L11.6749 15.025H5.68994C5.4138 15.025 5.18994 14.8012 5.18994 14.525C5.18994 14.2686 5.38296 14.0573 5.63163 14.0284L5.68994 14.025H11.6749Z" fill="#4195B9"/>
</svg>
