<svg width="24" height="24" viewBox="0 0 24 24" fill="none" xmlns="http://www.w3.org/2000/svg">
<g clip-path="url(#clip0_114_1221)">
<path d="M20.179 5.97998C20.7666 5.98468 21.2466 6.43942 21.2916 7.02005L21.295 7.09998V9.53498C21.295 9.81112 21.0711 10.035 20.795 10.035C20.5386 10.035 20.3272 9.84196 20.2983 9.59329L20.295 9.53498L20.295 7.10396C20.2945 7.04708 20.2561 6.99927 20.2061 6.98461L20.175 6.97998H2.71497C2.65974 6.97998 2.61323 7.01729 2.59926 7.06808L2.59497 7.09998V17.715C2.59497 17.7702 2.63228 17.8167 2.68307 17.8307L2.71497 17.835H10.17C10.4461 17.835 10.67 18.0588 10.67 18.335C10.67 18.5914 10.477 18.8027 10.2283 18.8316L10.17 18.835H2.71497C2.12331 18.835 1.6388 18.3762 1.59778 17.795L1.59497 17.715V7.09998C1.59497 6.50832 2.05376 6.02381 2.63498 5.98279L2.71497 5.97998H20.179Z" fill="#4195B9"/>
<path d="M9.67494 10.2C9.95108 10.2 10.1749 10.4238 10.1749 10.7C10.1749 10.9564 9.98192 11.1677 9.73325 11.1966L9.67494 11.2H5.68994C5.4138 11.2 5.18994 10.9761 5.18994 10.7C5.18994 10.4435 5.38296 10.2322 5.63163 10.2033L5.68994 10.2H9.67494Z" fill="#4195B9"/>
<path d="M9.67494 11.86C9.95108 11.86 10.1749 12.0838 10.1749 12.36C10.1749 12.6164 9.98192 12.8277 9.73325 12.8566L9.67494 12.86H5.68994C5.4138 12.86 5.18994 12.6361 5.18994 12.36C5.18994 12.1036 5.38296 11.8922 5.63163 11.8633L5.68994 11.86H9.67494Z" fill="#4195B9"/>
<path d="M9.67494 13.525C9.95108 13.525 10.1749 13.7489 10.1749 14.025C10.1749 14.2814 9.98192 14.4928 9.73325 14.5217L9.67494 14.525H5.68994C5.4138 14.525 5.18994 14.3012 5.18994 14.025C5.18994 13.7686 5.38296 13.5573 5.63163 13.5284L5.68994 13.525H9.67494Z" fill="#4195B9"/>
<path d="M13.597 16.027C13.9144 16.027 14.1454 15.9734 14.29 15.866C14.4347 15.7587 14.507 15.607 14.507 15.411C14.507 15.2944 14.4825 15.194 14.4335 15.11C14.3845 15.026 14.3145 14.9502 14.2235 14.8825C14.1325 14.8149 14.0217 14.7519 13.891 14.6935C13.7604 14.6352 13.611 14.578 13.443 14.522C13.275 14.4614 13.1129 14.3949 12.9565 14.3225C12.8002 14.2502 12.6625 14.1604 12.5435 14.053C12.4245 13.9457 12.3289 13.8174 12.2565 13.668C12.1842 13.5187 12.148 13.339 12.148 13.129C12.148 12.6904 12.2997 12.3462 12.603 12.0965C12.9064 11.8469 13.3194 11.722 13.842 11.722C14.1454 11.722 14.4149 11.7559 14.6505 11.8235C14.8862 11.8912 15.0717 11.9647 15.207 12.044L14.934 12.758C14.7754 12.6694 14.6015 12.6017 14.4125 12.555C14.2235 12.5084 14.0287 12.485 13.828 12.485C13.59 12.485 13.4045 12.534 13.2715 12.632C13.1385 12.73 13.072 12.8677 13.072 13.045C13.072 13.1524 13.0942 13.2445 13.1385 13.3215C13.1829 13.3985 13.2459 13.4674 13.3275 13.528C13.4092 13.5887 13.5049 13.6447 13.6145 13.696C13.7242 13.7474 13.8444 13.7964 13.975 13.843C14.2037 13.927 14.4079 14.0122 14.5875 14.0985C14.7672 14.1849 14.9189 14.2875 15.0425 14.4065C15.1662 14.5255 15.2607 14.6655 15.326 14.8265C15.3914 14.9875 15.424 15.1824 15.424 15.411C15.424 15.8497 15.2689 16.1892 14.9585 16.4295C14.6482 16.6699 14.1944 16.79 13.597 16.79C13.3964 16.79 13.2132 16.7772 13.0475 16.7515C12.8819 16.7259 12.7349 16.6944 12.6065 16.657C12.4782 16.6197 12.3674 16.5812 12.274 16.5415C12.1807 16.5019 12.106 16.4657 12.05 16.433L12.309 15.712C12.435 15.782 12.6054 15.852 12.82 15.922C13.0347 15.992 13.2937 16.027 13.597 16.027Z" fill="#699C69"/>
<path d="M17.9791 12.8771C17.8671 13.0124 17.7516 13.1571 17.6326 13.3111C17.5136 13.4651 17.3981 13.6261 17.2861 13.7941C17.1741 13.9621 17.0667 14.1336 16.9641 14.3086C16.8614 14.4836 16.7681 14.6574 16.6841 14.8301H17.9791V12.8771ZM18.8051 11.8341V14.8301H19.3511V15.5231H18.8051V16.6851H17.9791V15.5231H15.8511V14.9211C15.9444 14.7158 16.0692 14.4801 16.2256 14.2141C16.3819 13.9481 16.5557 13.6751 16.7471 13.3951C16.9384 13.1151 17.1414 12.8398 17.3561 12.5691C17.5707 12.2984 17.7854 12.0534 18.0001 11.8341H18.8051Z" fill="#699C69"/>
<path d="M22.963 13.094C22.963 13.262 22.928 13.4265 22.858 13.5875C22.788 13.7485 22.6982 13.9049 22.5885 14.0565C22.4788 14.2082 22.354 14.3552 22.214 14.4975C22.074 14.6399 21.934 14.7787 21.794 14.914C21.7193 14.984 21.6353 15.068 21.542 15.166C21.4487 15.264 21.36 15.362 21.276 15.46C21.192 15.558 21.1197 15.6525 21.059 15.7435C20.9983 15.8345 20.9657 15.9104 20.961 15.971H23.117V16.685H20.03C20.0253 16.6477 20.023 16.6022 20.023 16.5485C20.023 16.4949 20.023 16.454 20.023 16.426C20.023 16.202 20.0592 15.9955 20.1315 15.8065C20.2038 15.6175 20.2983 15.4414 20.415 15.278C20.5317 15.1147 20.6623 14.9607 20.807 14.816C20.9517 14.6714 21.0963 14.529 21.241 14.389C21.353 14.2817 21.4603 14.1767 21.563 14.074C21.6657 13.9714 21.7555 13.8699 21.8325 13.7695C21.9095 13.6692 21.9713 13.5665 22.018 13.4615C22.0647 13.3565 22.088 13.248 22.088 13.136C22.088 12.8934 22.018 12.7207 21.878 12.618C21.738 12.5154 21.5677 12.464 21.367 12.464C21.2363 12.464 21.115 12.4827 21.003 12.52C20.891 12.5574 20.7918 12.6017 20.7055 12.653C20.6192 12.7044 20.5433 12.7569 20.478 12.8105C20.4127 12.8642 20.3637 12.9074 20.331 12.94L19.911 12.345C20.107 12.1584 20.3368 12.0079 20.6005 11.8935C20.8642 11.7792 21.1477 11.722 21.451 11.722C21.969 11.722 22.3505 11.8445 22.5955 12.0895C22.8405 12.3345 22.963 12.6694 22.963 13.094Z" fill="#699C69"/>
<path d="M20.3699 17.955C20.6461 17.955 20.8699 18.1788 20.8699 18.455C20.8699 18.7114 20.6769 18.9227 20.4283 18.9516L20.3699 18.955H14.5649C14.2888 18.955 14.0649 18.7311 14.0649 18.455C14.0649 18.1985 14.258 17.9872 14.5066 17.9583L14.5649 17.955H20.3699Z" fill="#699C69"/>
</g>
<defs>
<clipPath id="clip0_114_1221">
<rect width="24" height="24" fill="white"/>
</clipPath>
</defs>
</svg>
