<svg width="24" height="24" viewBox="0 0 24 24" fill="none" xmlns="http://www.w3.org/2000/svg">
<path d="M19.0099 4.12C19.6016 4.12 20.0861 4.5788 20.1271 5.16003L20.1299 5.24002V10.24C20.1299 10.5162 19.906 10.74 19.6299 10.74C19.3735 10.74 19.1621 10.547 19.1333 10.2983L19.1299 10.24V5.24002C19.1299 5.18478 19.0926 5.13826 19.0418 5.12428L19.0099 5.12L1.55087 5.11998C1.52001 5.11973 1.49036 5.13187 1.46855 5.15368C1.45402 5.16821 1.44377 5.18624 1.43864 5.20698L1.43487 5.24002L1.43485 15.854C1.43461 15.8849 1.44675 15.9146 1.46855 15.9364C1.48309 15.9509 1.50111 15.9611 1.52185 15.9663L1.55489 15.97H11.3099C11.586 15.97 11.8099 16.1939 11.8099 16.47C11.8099 16.7265 11.6169 16.9378 11.3682 16.9667L11.3099 16.9701H1.55891C1.26007 16.9724 0.972764 16.8548 0.761445 16.6435C0.573607 16.4556 0.459783 16.2077 0.438483 15.9479L0.434849 15.85V5.24404C0.432483 4.94519 0.550127 4.65789 0.761445 4.44657C0.949284 4.25873 1.19716 4.14491 1.45699 4.12361L1.55489 4.12H19.0099Z" fill="#4195B9"/>
<path d="M1.13148 4.85339C1.29802 4.66042 1.57985 4.62579 1.78666 4.7635L1.83669 4.80153L9.78295 11.6592C9.92255 11.7742 10.1179 11.7857 10.2692 11.6932L10.3179 11.6585L18.6179 4.84852C18.8313 4.67336 19.1464 4.70443 19.3216 4.91791C19.4832 5.11497 19.4692 5.39858 19.2982 5.57881L19.2522 5.6216L10.953 12.431C10.4535 12.8425 9.74308 12.862 9.21599 12.4834L9.13835 12.4236L1.18335 5.5586C0.974292 5.37818 0.95107 5.06245 1.13148 4.85339Z" fill="#4195B9"/>
<path d="M7.7179 10.4354C7.93582 10.2658 8.24997 10.305 8.41958 10.5229C8.57615 10.724 8.55483 11.0072 8.37923 11.1829L8.33213 11.2245L1.67713 16.4045C1.45922 16.5742 1.14507 16.535 0.975454 16.3171C0.818887 16.1159 0.840204 15.8328 1.0158 15.657L1.0629 15.6154L7.7179 10.4354Z" fill="#4195B9"/>
<path d="M11.7495 10.5156C11.9021 10.3114 12.1808 10.2572 12.3967 10.3801L12.4493 10.4145L13.9943 11.5695C14.2155 11.7348 14.2607 12.0482 14.0954 12.2693C13.9428 12.4735 13.6641 12.5278 13.4481 12.4049L13.3956 12.3704L11.8506 11.2154C11.6294 11.0501 11.5841 10.7368 11.7495 10.5156Z" fill="#4195B9"/>
<path d="M18.475 11.8251C15.6004 11.8251 13.27 14.1554 13.27 17.0301C13.27 19.9047 15.6004 22.2351 18.475 22.2351C21.3497 22.2351 23.68 19.9047 23.68 17.0301C23.68 14.1554 21.3497 11.8251 18.475 11.8251ZM18.475 12.8251C20.7974 12.8251 22.68 14.7077 22.68 17.0301C22.68 19.3524 20.7974 21.2351 18.475 21.2351C16.1527 21.2351 14.27 19.3524 14.27 17.0301C14.27 14.7077 16.1527 12.8251 18.475 12.8251Z" fill="#699C69"/>
<path d="M19.685 16.72C19.9612 16.72 20.185 16.9438 20.185 17.22C20.185 17.4764 19.992 17.6877 19.7433 17.7166L19.685 17.72H16.52C16.2439 17.72 16.02 17.4961 16.02 17.22C16.02 16.9636 16.213 16.7522 16.4617 16.7233L16.52 16.72H19.685Z" fill="#699C69"/>
<path d="M18.9121 15.4509C19.0926 15.271 19.3763 15.2576 19.5721 15.4104L19.6192 15.4521L21.0692 16.9071C21.2487 17.0872 21.2625 17.37 21.1106 17.5659L21.0692 17.613L19.6192 19.068C19.4243 19.2636 19.1077 19.2641 18.9121 19.0692C18.7315 18.8893 18.7172 18.6057 18.8693 18.4093L18.9109 18.3621L20.009 17.2601L18.9109 16.158C18.7309 15.9774 18.7175 15.6938 18.8704 15.4979L18.9121 15.4509Z" fill="#699C69"/>
</svg>
