<svg width="24" height="24" viewBox="0 0 24 24" fill="none" xmlns="http://www.w3.org/2000/svg">
<path d="M19.85 4.65005C19.85 4.35005 19.75 4.10005 19.6 3.90005C19.4 3.70005 19.1 3.55005 18.8 3.55005H1.35005C0.750049 3.55005 0.300049 4.05005 0.300049 4.60005V15.2C0.300049 15.8 0.800049 16.25 1.35005 16.25L12.5 16.3C12.8 16.3 13 16.1 13 15.8C13 15.5 12.8 15.3 12.5 15.3L2.00005 15.25L7.85005 10.9L8.70005 11.65C9.05005 11.9 9.40005 12.05 9.80005 12.05C10.2 12.05 10.55 11.95 10.85 11.7L11.95 10.8L13.5 11.95C13.6 12 13.7 12.05 13.8 12.05C13.95 12.05 14.1 12 14.2 11.85C14.25 11.75 14.3 11.6 14.3 11.5C14.3 11.35 14.2 11.25 14.1 11.15L12.75 10.15L18.8 5.25005V8.90005C18.8 9.20005 19 9.40005 19.3 9.40005C19.6 9.40005 19.8 9.20005 19.8 8.90005L19.85 4.65005ZM7.10005 10.25L1.30005 14.6V5.20005L7.10005 10.25ZM18.15 4.55005L10.3 11C10.05 11.2 9.65005 11.2 9.40005 10.95L2.05005 4.55005H18.15Z" fill="#4195B9"/>
<path d="M22.6499 11.5497C21.8999 10.7997 20.8499 10.3997 19.6999 10.3997C18.2499 10.3997 16.9499 10.9497 15.9999 11.9497C15.0999 12.8997 14.5999 14.1997 14.5999 15.5997C14.5999 16.8497 15.0499 17.9497 15.8499 18.7497C16.5999 19.4997 17.6999 19.8997 18.7999 19.8997C19.6999 19.8997 20.3999 19.7497 21.0999 19.4497L21.3499 19.3497L21.0499 18.3997L20.7999 18.5497C20.3999 18.7497 19.8999 18.8497 19.3499 18.8997H18.9999C18.0499 18.8997 17.2499 18.5997 16.6499 17.9997C16.0499 17.3997 15.6999 16.5497 15.6999 15.4997C15.6999 14.2997 16.0999 13.2497 16.8499 12.4997C17.5499 11.7997 18.4999 11.3997 19.4999 11.3997C20.4499 11.3997 21.2499 11.6997 21.7999 12.2497C22.2999 12.7997 22.5999 13.5497 22.5999 14.4497C22.5999 15.2997 22.3499 15.9997 21.9499 16.3497C21.7499 16.4997 21.5499 16.5997 21.3999 16.5997C21.2999 16.5997 21.1999 16.5497 21.1999 16.4997C21.0999 16.3997 21.0499 16.1497 21.1499 15.5497L21.5999 12.8997L21.3999 12.7997C21.0999 12.6497 20.6999 12.5997 20.2499 12.5497H19.8999C18.9499 12.5497 18.1499 12.8997 17.5499 13.5497C16.9499 14.1497 16.6499 14.9497 16.6499 15.7997C16.6499 16.8997 17.2999 17.6497 18.2499 17.6497C18.8999 17.6497 19.4999 17.3997 19.8999 16.8497L19.9499 16.7497C20.0999 17.3497 20.4999 17.6497 21.0999 17.6497C21.7999 17.6497 22.4499 17.3497 22.9499 16.7497C23.4499 16.1497 23.6999 15.2997 23.6999 14.3497C23.7999 13.2997 23.3999 12.2997 22.6499 11.5497ZM20.2999 13.6997L20.0499 15.0497C19.8999 15.8997 19.2999 16.6497 18.6999 16.6497C18.1499 16.6497 17.9999 16.1997 17.9499 15.8997V15.6997C17.9499 14.5497 18.7499 13.5997 19.7499 13.5997C19.8999 13.5997 20.0499 13.5997 20.1499 13.6497L20.2999 13.6997Z" fill="#699C69"/>
</svg>
