<svg width="24" height="24" viewBox="0 0 24 24" fill="none" xmlns="http://www.w3.org/2000/svg">
<path d="M0.650024 17.85H5.40002C5.65002 17.85 5.90002 17.65 5.90002 17.35C5.90002 17.05 5.70002 16.85 5.40002 16.85H0.650024C0.400024 16.85 0.150024 17.05 0.150024 17.35C0.150024 17.65 0.350024 17.85 0.650024 17.85Z" fill="#699C69"/>
<path d="M7.09998 19.15H2.34998C2.09998 19.15 1.84998 19.35 1.84998 19.65C1.84998 19.95 2.04998 20.15 2.34998 20.15H7.09998C7.34998 20.15 7.59998 19.95 7.59998 19.65C7.59998 19.35 7.34998 19.15 7.09998 19.15Z" fill="#699C69"/>
<path d="M5.5 21.5H0.75C0.5 21.5 0.25 21.7 0.25 22C0.25 22.3 0.45 22.5 0.75 22.5H5.5C5.75 22.5 6 22.3 6 22C6 21.7 5.8 21.5 5.5 21.5Z" fill="#699C69"/>
<path d="M23.1 7.44999L5.80003 1.54999C5.25003 1.34999 4.60003 1.64999 4.40003 2.24999L0.850035 12.75C0.650035 13.3 0.950034 13.95 1.55003 14.15L18.85 20.05C18.95 20.1 19.1 20.1 19.2 20.1C19.35 20.1 19.55 20.05 19.7 20C19.95 19.85 20.15 19.65 20.25 19.35L23.8 8.84999C24 8.24999 23.7 7.64999 23.1 7.44999ZM22.65 9.09999L19.45 18.55L14.9 11.95L22.65 9.09999ZM11.25 11.6L6.10003 2.74999L22.2 8.19999L12.2 11.9H12.15C11.8 12.05 11.45 11.9 11.25 11.6ZM9.80003 11.05L10.4 12.1L10.45 12.2C10.65 12.55 11 12.75 11.35 12.9C11.75 13.05 12.15 13 12.5 12.9L13.9 12.4L18.35 18.85L2.45003 13.4L9.80003 11.05ZM9.25003 10.15L2.00003 12.5L5.15003 3.14999L9.25003 10.15Z" fill="#4195B9"/>
</svg>
