<svg width="24" height="24" viewBox="0 0 24 24" fill="none" xmlns="http://www.w3.org/2000/svg">
<path d="M18.8496 7.09961H1.19961C0.599609 7.09961 0.0996094 7.59961 0.0996094 8.19961V18.9496C0.0996094 19.5496 0.599609 20.0496 1.19961 20.0496H18.8496C19.4496 20.0496 19.9496 19.5496 19.9496 18.9496V8.14961C19.9496 7.59961 19.4496 7.09961 18.8496 7.09961ZM18.9496 8.79961V18.3996L12.7996 13.7996L18.9496 8.79961ZM7.79961 14.5496L8.69961 15.3496L8.79961 15.3996C9.14961 15.6996 9.54961 15.7496 9.84961 15.7496C10.2496 15.7496 10.5996 15.5996 10.8996 15.3496L11.9996 14.4496L18.0996 18.9496H1.89961L7.79961 14.5496ZM10.2496 14.5996C9.94961 14.7996 9.59961 14.7996 9.34961 14.5496L1.89961 8.04961H18.2496L10.2496 14.5996ZM7.04961 13.8996L1.14961 18.2496V8.74961L7.04961 13.8996Z" fill="#4195B9"/>
<path d="M22.7996 2.59961H5.14956C4.54956 2.59961 4.04956 3.09961 4.04956 3.69961V6.09961C4.04956 6.39961 4.29956 6.59961 4.54956 6.59961C4.79956 6.59961 5.04956 6.34961 5.04956 6.09961V4.24961L7.44956 6.34961C7.64956 6.49961 7.89956 6.49961 8.09956 6.34961C8.19956 6.24961 8.29956 6.09961 8.29956 5.94961C8.29956 5.79961 8.24956 5.64961 8.14956 5.54961L5.79956 3.49961H22.1496L19.7496 5.44961C19.5496 5.59961 19.4996 5.94961 19.6996 6.14961C19.7996 6.24961 19.8996 6.29961 20.0496 6.34961C20.1996 6.34961 20.2996 6.34961 20.3996 6.24961L22.8996 4.24961V13.8496L21.8996 13.0496C21.6996 12.8996 21.3996 12.8996 21.2496 13.0996C21.1496 13.1996 21.0996 13.3496 21.1496 13.4496C21.1496 13.5996 21.2496 13.6996 21.3496 13.7996L22.0496 14.2996H21.0496C20.7496 14.2996 20.4996 14.5496 20.4996 14.8496C20.4996 15.1496 20.6996 15.4996 20.9996 15.4996H22.7996C23.3996 15.4996 23.8996 14.9996 23.8996 14.3996V3.64961C23.8996 3.04961 23.3996 2.59961 22.7996 2.59961Z" fill="#699C69"/>
</svg>
