<svg width="24" height="24" viewBox="0 0 24 24" fill="none" xmlns="http://www.w3.org/2000/svg">
<path fill-rule="evenodd" clip-rule="evenodd" d="M23 4H1V20H23V4ZM1 3C0.447715 3 0 3.44772 0 4V20C0 20.5523 0.447716 21 1 21H23C23.5523 21 24 20.5523 24 20V4C24 3.44772 23.5523 3 23 3H1Z" fill="#4195B9"/>
<path fill-rule="evenodd" clip-rule="evenodd" d="M21 7H19V9H21V7ZM19 6C18.4477 6 18 6.44772 18 7V9C18 9.55228 18.4477 10 19 10H21C21.5523 10 22 9.55228 22 9V7C22 6.44772 21.5523 6 21 6H19Z" fill="#4195B9"/>
<path fill-rule="evenodd" clip-rule="evenodd" d="M21 12H12L12 17H21V12ZM12 11C11.4477 11 11 11.4477 11 12V17C11 17.5523 11.4477 18 12 18H21C21.5523 18 22 17.5523 22 17V12C22 11.4477 21.5523 11 21 11H12Z" fill="#699C69"/>
<path fill-rule="evenodd" clip-rule="evenodd" d="M13.5 13.5C13.5 13.2239 13.7239 13 14 13H19C19.2761 13 19.5 13.2239 19.5 13.5C19.5 13.7761 19.2761 14 19 14H14C13.7239 14 13.5 13.7761 13.5 13.5Z" fill="#699C69"/>
<path fill-rule="evenodd" clip-rule="evenodd" d="M13.5 15.5C13.5 15.2239 13.7239 15 14 15H19C19.2761 15 19.5 15.2239 19.5 15.5C19.5 15.7761 19.2761 16 19 16H14C13.7239 16 13.5 15.7761 13.5 15.5Z" fill="#699C69"/>
</svg>
