<svg width="24" height="24" viewBox="0 0 24 24" fill="none" xmlns="http://www.w3.org/2000/svg">
<path d="M16.6 11.9H1.09998C0.649976 11.9 0.349976 12.25 0.349976 12.65V22C0.349976 22.45 0.699976 22.75 1.09998 22.75H16.6C17.05 22.75 17.35 22.4 17.35 22V12.65C17.35 12.2 17 11.9 16.6 11.9ZM9.09998 18.35C8.84998 18.6 8.39998 18.55 8.09998 18.3L1.24998 12.4H16.45L9.09998 18.35ZM0.899976 21.8V12.8L6.49998 17.65L0.899976 21.8ZM1.24998 22.25L6.94998 18.05L7.79998 18.8C8.04998 19 8.39998 19.15 8.69998 19.15C8.99998 19.15 9.29998 19.05 9.49998 18.85L10.55 17.95L16.35 22.25H1.24998ZM10.95 17.6L16.8 12.85V21.9L10.95 17.6Z" fill="#699C69"/>
<path fill-rule="evenodd" clip-rule="evenodd" d="M0.125 12.65C0.125 12.1358 0.515987 11.675 1.1 11.675H16.6C17.1143 11.675 17.575 12.066 17.575 12.65V22C17.575 22.5143 17.184 22.975 16.6 22.975H1.1C0.585715 22.975 0.125 22.5841 0.125 22V12.65ZM0.675 12.3331C0.610738 12.4217 0.575 12.5319 0.575 12.65V22C0.575 22.1491 0.628257 22.2744 0.714522 22.3651L6.96271 17.7612L7.94463 18.6276C8.16572 18.803 8.4654 18.925 8.7 18.925C8.95534 18.925 9.19265 18.8392 9.3409 18.6909L9.34701 18.6848L10.5398 17.6624L16.9403 22.4076C16.9666 22.3857 16.9904 22.3613 17.0115 22.3348L10.5821 17.6089L17.025 12.3775V22.317C17.0893 22.2284 17.125 22.1182 17.125 22V12.65C17.125 12.492 17.0651 12.3607 16.9695 12.269L9.24995 18.5181C9.06993 18.6922 8.83 18.7527 8.60327 18.737C8.37331 18.7212 8.14115 18.6272 7.95596 18.4729L7.95314 18.4706L0.741165 12.2587C0.721387 12.2769 0.703183 12.2966 0.686658 12.3176L6.85946 17.6637L0.675 22.2468V12.3331ZM0.866294 12.175H16.8316C16.7614 12.1425 16.6826 12.125 16.6 12.125H1.1C1.01335 12.125 0.93475 12.143 0.866294 12.175ZM16.8337 22.475H0.868377C0.938587 22.5076 1.01735 22.525 1.1 22.525H16.6C16.6866 22.525 16.7652 22.5071 16.8337 22.475ZM1.856 12.625L8.24535 18.1283C8.35994 18.2233 8.5022 18.279 8.63423 18.2881C8.76614 18.2972 8.8719 18.26 8.9409 18.1909L8.94925 18.1826L15.8145 12.625H1.856ZM1.125 13.2926V21.3533L6.14054 17.6364L1.125 13.2926ZM11.3179 17.5912L16.575 21.4554V13.3226L11.3179 17.5912ZM10.5602 18.2377L9.65261 19.0156C9.40114 19.2628 9.04171 19.375 8.7 19.375C8.33604 19.375 7.93798 19.1986 7.65944 18.9757L7.6552 18.9724L6.93729 18.3389L1.93466 22.025H15.6687L10.5602 18.2377Z" fill="#699C69"/>
<path d="M23.55 4.85006C23.5 4.80006 23.4 4.75006 23.4 4.75006L14.55 0.85006L14.5 0.80006C14.35 0.70006 14.2 0.80006 14.2 0.80006L5.25 4.60006C5.25 4.60006 5.15 4.65006 5.1 4.70006C5 4.85006 5 5.00006 5 5.00006V10.2001C5 10.3501 5.1 10.4501 5.25 10.4501C5.4 10.4501 5.5 10.3501 5.5 10.2001V5.35006L14.05 8.95006V10.2001C14.05 10.3501 14.15 10.4501 14.3 10.4501C14.45 10.4501 14.55 10.3501 14.55 10.2001V9.00006L18.7 7.25006V9.55006C18.7 9.55006 18.7 9.90006 18.95 9.90006H19C19.25 9.85006 19.25 9.55006 19.25 9.55006V7.05006L23 5.45006V15.5501L18.5 17.4001C18.4 17.4501 18.3 17.5501 18.3 17.6501C18.3 17.8501 18.5 17.9501 18.65 17.9001L23.5 16.0001C23.6 15.9501 23.65 15.9001 23.65 15.8001V5.15006C23.65 5.15006 23.65 4.95006 23.55 4.85006ZM14.45 8.55006C9.95 6.65006 7.1 5.45006 5.95 4.95006L10 3.25006C10.05 3.30006 10.1 3.30006 10.1 3.30006L18.35 6.95006L14.45 8.55006ZM19.05 6.60006L10.7 2.90006L14.35 1.35006L22.75 5.05006L19.05 6.60006Z" fill="#4195B9"/>
<path fill-rule="evenodd" clip-rule="evenodd" d="M14.245 0.542879C14.3435 0.520984 14.4855 0.519938 14.6248 0.612809L14.6434 0.625168L14.6793 0.661121L23.4958 4.54633L23.5006 4.54877L23.5016 4.54924L23.5031 4.55001L23.5078 4.55242C23.5108 4.554 23.5148 4.55607 23.5195 4.55856C23.5206 4.55918 23.5218 4.55983 23.5231 4.56051C23.5356 4.56722 23.5528 4.57677 23.572 4.58833C23.6061 4.60877 23.6636 4.64538 23.7091 4.69092C23.8069 4.78874 23.843 4.91769 23.8582 4.9934C23.8666 5.03556 23.8707 5.07296 23.8728 5.09995C23.8738 5.1136 23.8744 5.12499 23.8747 5.13348L23.875 5.14406L23.875 5.14765L23.875 5.14899L23.875 5.14954C23.875 5.1496 23.875 5.15002 23.6718 5.15002L23.875 5.14954V15.8C23.875 15.892 23.8504 15.9816 23.7882 16.0593C23.7325 16.129 23.6598 16.1717 23.6006 16.2013L23.5916 16.2058L18.7267 18.1116L18.7212 18.1135C18.5776 18.1613 18.4199 18.1362 18.298 18.0586C18.17 17.9772 18.075 17.8335 18.075 17.65C18.075 17.5261 18.1351 17.4258 18.1917 17.3598C18.2504 17.2913 18.325 17.236 18.3994 17.1988L18.4068 17.1951L22.775 15.3992V5.79065L19.475 7.19865V9.55002H19.25C19.475 9.55002 19.475 9.54993 19.475 9.55002L19.475 9.55081L19.475 9.55172L19.475 9.5539L19.4749 9.55962C19.4748 9.56401 19.4745 9.5696 19.4741 9.57622C19.4734 9.58941 19.4719 9.60703 19.4691 9.62781C19.4636 9.66858 19.4524 9.72565 19.4288 9.78704C19.3811 9.91106 19.271 10.0753 19.0442 10.1207L19.0223 10.125H18.95C18.8289 10.125 18.7276 10.0804 18.652 10.0098C18.5814 9.94397 18.542 9.86416 18.5194 9.8007C18.4963 9.73597 18.4856 9.67445 18.4805 9.63131C18.4779 9.60915 18.4765 9.59037 18.4758 9.57652C18.4755 9.56957 18.4753 9.56377 18.4752 9.55931L18.475 9.55362L18.475 9.55155L18.475 9.55072L18.475 9.55018C18.475 9.5501 18.475 9.55002 18.7 9.55002L18.475 9.55018V7.58909L14.775 9.14933V10.2C14.775 10.3262 14.732 10.4487 14.6404 10.5404C14.5487 10.632 14.4262 10.675 14.3 10.675C14.1739 10.675 14.0513 10.632 13.9597 10.5404C13.868 10.4487 13.825 10.3262 13.825 10.2V9.09941L5.72502 5.68889V10.2C5.72502 10.3262 5.682 10.4487 5.59037 10.5404C5.49875 10.632 5.37616 10.675 5.25002 10.675C5.12389 10.675 5.0013 10.632 4.90968 10.5404C4.81805 10.4487 4.77502 10.3262 4.77502 10.2V5.00002H5.00002C4.77502 5.00002 4.77502 5.00009 4.77502 5.00002L4.77503 4.9994L4.77503 4.99873L4.77504 4.9972L4.7751 4.99346L4.77544 4.98329C4.77579 4.97536 4.77644 4.96513 4.7776 4.95291C4.77992 4.92855 4.78436 4.89583 4.79288 4.85746C4.8098 4.78131 4.84378 4.67877 4.91281 4.57521L4.92517 4.55668L4.94093 4.54092C4.98647 4.49538 5.04396 4.45877 5.07801 4.43833C5.09729 4.42677 5.11448 4.41722 5.12695 4.41051C5.13323 4.40713 5.13844 4.4044 5.14226 4.40242L5.14695 4.40001L5.14847 4.39924L5.14901 4.39897L5.15566 4.39565L14.0982 0.598803C14.1066 0.594089 14.1169 0.588595 14.1291 0.582815C14.157 0.569514 14.1967 0.553614 14.245 0.542879ZM5.3459 4.80375L5.34029 4.80672C5.33244 4.81095 5.32151 4.81702 5.30954 4.82421C5.29738 4.8315 5.28551 4.83913 5.27533 4.84639C5.27451 4.84698 5.27372 4.84755 5.27295 4.84811C5.25114 4.88681 5.2389 4.9248 5.23217 4.95508C5.22819 4.97296 5.22638 4.98712 5.22557 4.99557C5.22524 4.99909 5.22509 5.00153 5.22502 5.00273V10.2C5.22502 10.2125 5.22708 10.2192 5.228 10.2216C5.22804 10.2217 5.22795 10.2215 5.228 10.2216C5.2281 10.2216 5.22834 10.222 5.22845 10.222C5.23084 10.223 5.23756 10.225 5.25002 10.225C5.26249 10.225 5.2692 10.223 5.2716 10.222C5.27171 10.222 5.2715 10.2221 5.2716 10.222C5.27164 10.2219 5.27201 10.2217 5.27205 10.2216C5.27297 10.2192 5.27502 10.2125 5.27502 10.2V5.01115L14.275 8.80063V10.2C14.275 10.2125 14.2771 10.2192 14.278 10.2216C14.278 10.2217 14.278 10.2215 14.278 10.2216C14.2781 10.2216 14.2783 10.222 14.2785 10.222C14.2808 10.223 14.2876 10.225 14.3 10.225C14.3125 10.225 14.3192 10.223 14.3216 10.222C14.3217 10.222 14.3215 10.2221 14.3216 10.222C14.3216 10.2219 14.322 10.2217 14.3221 10.2216C14.323 10.2192 14.325 10.2125 14.325 10.2V8.85071L14.8684 8.62156L14.4488 8.79373L14.3625 8.7573C13.6051 8.43749 12.8943 8.13749 12.2305 7.8573C8.95155 6.4733 6.8179 5.5727 5.86031 5.15636L5.37736 4.94638L10.0523 2.98407L10.1432 3.07502H10.1476L18.8701 6.9341L18.925 6.91095V9.54867L18.9252 9.55359C18.9255 9.55889 18.9261 9.56745 18.9274 9.57811C18.93 9.60059 18.935 9.62657 18.9432 9.64934C18.9477 9.66207 18.952 9.67021 18.9549 9.67502H18.9705C18.9858 9.66842 18.9973 9.65522 19.0088 9.6255C19.0164 9.60564 19.0208 9.58459 19.0231 9.56754C19.0242 9.55942 19.0247 9.55321 19.0249 9.5498L19.025 9.54771V6.9014L23.225 5.1094V15.7008L18.5946 17.6044C18.5711 17.6172 18.5484 17.6352 18.5334 17.6527C18.5302 17.6563 18.5279 17.6594 18.5262 17.6619C18.527 17.6653 18.5281 17.6673 18.5287 17.6684C18.5303 17.6712 18.5334 17.675 18.5396 17.6789C18.546 17.683 18.5542 17.6861 18.5627 17.6873C18.569 17.6881 18.5737 17.6877 18.5765 17.6872L23.4077 15.7945C23.4147 15.7909 23.4204 15.7877 23.425 15.7849V5.15123V5.15042L23.425 5.14898C23.4249 5.14614 23.4246 5.14113 23.4241 5.13446C23.4231 5.12083 23.421 5.10198 23.4169 5.08165C23.4127 5.06088 23.4073 5.04233 23.401 5.02771C23.3951 5.01392 23.3908 5.00902 23.3908 5.009C23.3904 5.00864 23.3891 5.00747 23.3867 5.00551C23.3837 5.00303 23.3797 4.99997 23.3747 4.99639C23.3645 4.98913 23.3527 4.9815 23.3405 4.97421C23.3285 4.96702 23.3176 4.96095 23.3098 4.95672L23.3029 4.95312L14.4207 1.03892L14.3633 0.981525C14.3573 0.979923 14.3511 0.980279 14.3426 0.982163C14.3346 0.983927 14.3274 0.986777 14.3225 0.989102C14.3217 0.989485 14.3211 0.989817 14.3206 0.990081L14.3073 0.998903L5.3459 4.80375ZM14.3517 1.10488L23.32 5.05521L19.0475 6.84501L10.1347 2.89563L14.3517 1.10488ZM11.2653 2.90441L19.0525 6.35503L22.1801 5.04483L14.3484 1.59516L11.2653 2.90441ZM6.52461 4.95285C7.63139 5.42762 9.59705 6.25731 12.4048 7.44243C13.0435 7.712 13.7257 7.99996 14.4513 8.30631L17.7763 6.94221L10.036 3.51775C10.0243 3.51521 10.0114 3.5118 9.99762 3.50722C9.9925 3.50552 9.98727 3.50365 9.98197 3.50162L6.52461 4.95285Z" fill="#4195B9"/>
</svg>
