<svg width="24" height="24" viewBox="0 0 24 24" fill="none" xmlns="http://www.w3.org/2000/svg">
<path d="M22.7 4.55005H1.39995C0.749951 4.55005 0.199951 5.10005 0.199951 5.75005V18.7C0.199951 19.35 0.749951 19.9 1.39995 19.9H22.7C23.35 19.9 23.9 19.35 23.9 18.7V5.75005C23.9 5.10005 23.35 4.55005 22.7 4.55005ZM15.2 12.55L22.9 6.30005V18.3L15.2 12.55ZM12.35 13.6L12.3 13.65C11.95 13.9 11.45 13.85 11.15 13.55L1.94995 5.55005H22.25L12.35 13.6ZM8.59995 12.65L1.24995 18.15V6.25005L8.59995 12.65ZM9.34995 13.3L10.5 14.3L10.6 14.35C10.95 14.65 11.4 14.75 11.8 14.75C12.25 14.75 12.65 14.6 13 14.3L14.4 13.15L22.0499 18.8H1.89995L9.34995 13.3Z" fill="#4195B9"/>
</svg>
