<svg width="24" height="24" viewBox="0 0 24 24" fill="none" xmlns="http://www.w3.org/2000/svg">
<path d="M19.65 4.65005C19.65 4.35005 19.55 4.10005 19.4 3.90005C19.2 3.70005 18.9 3.55005 18.6 3.55005H1.14998C0.549976 3.55005 0.0999756 4.05005 0.0999756 4.60005V15.2C0.0999756 15.8 0.599976 16.25 1.14998 16.25L12.3 16.3C12.6 16.3 12.8 16.1 12.8 15.8C12.8 15.5 12.6 15.3 12.3 15.3L1.79998 15.25L7.64998 10.9L8.49998 11.65C8.84998 11.9 9.19998 12.05 9.59998 12.05C9.99998 12.05 10.35 11.95 10.65 11.7L11.75 10.8L13.3 11.95C13.4 12 13.5 12.05 13.6 12.05C13.75 12.05 13.9 12 14 11.85C14.05 11.75 14.1 11.6 14.1 11.5C14.1 11.35 14 11.25 13.9 11.15L12.55 10.15L18.6 5.25005V8.90005C18.6 9.20005 18.8 9.40005 19.1 9.40005C19.4 9.40005 19.6 9.20005 19.6 8.90005L19.65 4.65005ZM6.89998 10.25L1.09998 14.6V5.20005L6.89998 10.25ZM17.95 4.55005L10.1 11C9.84998 11.2 9.44998 11.2 9.19998 10.95L1.84998 4.55005H17.95Z" fill="#4195B9"/>
<path d="M18.75 10.1001C15.9 10.1001 13.6 12.4001 13.6 15.2501C13.6 18.1001 15.9 20.4001 18.75 20.4001C21.6 20.4001 23.9 18.1001 23.9 15.2501C23.9 12.4001 21.6 10.1001 18.75 10.1001ZM22.95 15.2501C22.95 17.5501 21.1 19.4501 18.75 19.4501C16.4 19.4501 14.55 17.6001 14.55 15.2501C14.55 12.9001 16.4 11.0501 18.75 11.0501C21.1 11.0501 22.95 12.9501 22.95 15.2501Z" fill="#699C69"/>
<path d="M20.55 14.3501C20.55 13.5001 19.95 12.9501 19.05 12.9001H17.6C17.35 12.9001 17.15 13.0501 17.1 13.3001V17.0001C17.1 17.3001 17.3 17.5001 17.6 17.5001C17.85 17.5001 18.05 17.3501 18.1 17.1001V15.8001H18.85L19.6 17.2001C19.75 17.4001 19.85 17.5501 20.05 17.5501C20.3 17.5501 20.55 17.3501 20.55 17.1001C20.55 17.0501 20.55 16.9501 20.5 16.8501L19.8 15.6501C20.25 15.4001 20.55 14.9001 20.55 14.3501ZM19.55 14.3501C19.55 14.7501 19.3 15.0001 18.9 15.0001H18V13.6501H18.8C19.3 13.6501 19.55 13.9501 19.55 14.3501Z" fill="#699C69"/>
</svg>
