<svg width="24" height="24" viewBox="0 0 24 24" fill="none" xmlns="http://www.w3.org/2000/svg">
<g clip-path="url(#clip0_114_1115)">
<path d="M1.81995 5.40002C2.07636 5.40002 2.2877 5.59304 2.31658 5.84171L2.31995 5.90002L2.31945 16.2025L10.8152 19.9169C11.0502 20.0196 11.1665 20.2811 11.0934 20.5205L11.0731 20.5753C10.9704 20.8103 10.7089 20.9266 10.4694 20.8534L10.4147 20.8332L1.61966 16.9882C1.45783 16.9174 1.34689 16.7674 1.32423 16.5954L1.31995 16.53V5.90002C1.31995 5.62388 1.5438 5.40002 1.81995 5.40002Z" fill="#4195B9"/>
<path d="M10.71 9.12C10.9664 9.12 11.1777 9.31302 11.2066 9.56168L11.21 9.62V19.602L12.1301 19.1889C12.364 19.0838 12.6358 19.1733 12.7641 19.3883L12.7911 19.4401C12.8961 19.674 12.8067 19.9459 12.5917 20.0741L12.5399 20.1011L10.9149 20.8311C10.6024 20.9715 10.2514 20.7634 10.2134 20.4343L10.21 20.375V9.62C10.21 9.34385 10.4338 9.12 10.71 9.12Z" fill="#4195B9"/>
<path d="M19.4349 5.32495C19.6914 5.32495 19.9027 5.51797 19.9316 5.76664L19.9349 5.82495V11.795C19.9349 12.0711 19.7111 12.295 19.4349 12.295C19.1785 12.295 18.9672 12.1019 18.9383 11.8533L18.9349 11.795V5.82495C18.9349 5.54881 19.1588 5.32495 19.4349 5.32495Z" fill="#4195B9"/>
<path d="M10.4215 4.97055C10.6725 4.85545 10.9693 4.96563 11.0844 5.21664C11.1913 5.44972 11.1039 5.72228 10.8899 5.85218L10.8383 5.87954L6.36194 7.93155L6.32492 13.0237C6.32303 13.2802 6.12845 13.4901 5.87957 13.5171L5.82124 13.52C5.56483 13.5181 5.35493 13.3236 5.32788 13.0747L5.32495 13.0164L5.36495 7.60635C5.36623 7.43379 5.45619 7.27575 5.6001 7.18593L5.65653 7.15555L10.4215 4.97055Z" fill="#699C69"/>
<path d="M10.4365 1.54108L1.62648 5.35108C1.22444 5.52495 1.22444 6.09505 1.62648 6.26892L10.4365 10.0789C10.5631 10.1337 10.7068 10.1337 10.8334 10.0789L19.6434 6.26892C20.0455 6.09505 20.0455 5.52495 19.6434 5.35108L10.8334 1.54108C10.7068 1.48631 10.5631 1.48631 10.4365 1.54108ZM10.635 2.544L18.1855 5.81L10.635 9.0755L3.08395 5.81L10.635 2.544Z" fill="#4195B9"/>
<path d="M18.695 16.245C19.2002 16.245 19.6847 16.4457 20.042 16.803C20.3718 17.1327 20.5682 17.571 20.5964 18.0338L20.6 18.15V18.345C20.6 19.3642 19.7995 20.1965 18.793 20.2475L18.695 20.25H16.535C16.2864 20.25 16.085 20.0485 16.085 19.8C16.085 19.5706 16.2566 19.3813 16.4785 19.3535L16.535 19.35H18.695C19.2248 19.35 19.6588 18.94 19.6972 18.42L19.7 18.345V18.15C19.7 17.8835 19.5941 17.6278 19.4056 17.4394C19.2381 17.2718 19.0175 17.1695 18.7833 17.1489L18.695 17.145H17.195C16.9464 17.145 16.745 16.9435 16.745 16.695C16.745 16.4656 16.9166 16.2763 17.1385 16.2485L17.195 16.245H18.695Z" fill="#699C69"/>
<path d="M17.4511 15.1575C17.6265 14.9814 17.9114 14.9808 18.0875 15.1562C18.2489 15.3169 18.2629 15.5698 18.129 15.7464L18.0888 15.7926L17.17 16.715L18.0888 17.6375C18.2496 17.7989 18.2625 18.0518 18.1279 18.2279L18.0875 18.2739C17.9261 18.4346 17.6732 18.4475 17.4971 18.3129L17.4511 18.2726L16.2161 17.0326C16.0558 16.8716 16.0425 16.6196 16.176 16.4435L16.2161 16.3975L17.4511 15.1575Z" fill="#699C69"/>
<path d="M18.1049 13.035C15.4291 13.035 13.2599 15.2042 13.2599 17.88C13.2599 20.5559 15.4291 22.725 18.1049 22.725C20.7807 22.725 22.9499 20.5559 22.9499 17.88C22.9499 15.2042 20.7807 13.035 18.1049 13.035ZM18.1049 14.035C20.2284 14.035 21.9499 15.7565 21.9499 17.88C21.9499 20.0036 20.2284 21.725 18.1049 21.725C15.9814 21.725 14.2599 20.0036 14.2599 17.88C14.2599 15.7565 15.9814 14.035 18.1049 14.035Z" fill="#699C69"/>
</g>
<defs>
<clipPath id="clip0_114_1115">
<rect width="24" height="24" fill="white"/>
</clipPath>
</defs>
</svg>
