<svg width="24" height="24" viewBox="0 0 24 24" fill="none" xmlns="http://www.w3.org/2000/svg">
<path d="M1.55505 5.34009C1.81147 5.34009 2.02281 5.53311 2.05169 5.78178L2.05505 5.84009L2.05455 18.2726L12.3153 22.7569C12.5502 22.8596 12.6666 23.1211 12.5935 23.3605L12.5732 23.4153C12.4705 23.6503 12.209 23.7666 11.9696 23.6935L11.9148 23.6732L1.35483 19.0582C1.19297 18.9875 1.082 18.8375 1.05934 18.6655L1.05505 18.6001V5.84009C1.05505 5.56395 1.27891 5.34009 1.55505 5.34009Z" fill="#4195B9"/>
<path d="M12.2251 9.81006C12.4815 9.81006 12.6929 10.0031 12.7217 10.2517L12.7251 10.3101V22.4421L22.0553 18.2539C22.2892 18.1489 22.5611 18.2384 22.6893 18.4535L22.7162 18.5053C22.8213 18.7392 22.7317 19.0111 22.5167 19.1393L22.4649 19.1662L12.4299 23.6712C12.1174 23.8115 11.7665 23.6034 11.7285 23.2743L11.7251 23.2151V10.3101C11.7251 10.0339 11.949 9.81006 12.2251 9.81006Z" fill="#4195B9"/>
<path d="M22.6951 5.255C22.9515 5.255 23.1628 5.44803 23.1917 5.69669L23.1951 5.755V15.36C23.1951 15.6361 22.9712 15.86 22.6951 15.86C22.4387 15.86 22.2273 15.667 22.1984 15.4183L22.1951 15.36V5.755C22.1951 5.47886 22.4189 5.255 22.6951 5.255Z" fill="#4195B9"/>
<path d="M11.9215 4.81559C12.1725 4.70041 12.4693 4.8105 12.5845 5.06147C12.6915 5.29452 12.6042 5.5671 12.3902 5.69707L12.3386 5.72445L6.90709 8.21652L6.86008 14.3889C6.8581 14.6453 6.66346 14.8551 6.41458 14.8821L6.35624 14.885C6.09983 14.883 5.88999 14.6884 5.86302 14.4395L5.86011 14.3812L5.91011 7.89117C5.91144 7.71871 6.00134 7.56077 6.14516 7.47096L6.20155 7.44059L11.9215 4.81559Z" fill="#699C69"/>
<path d="M11.9367 0.706064L1.36171 5.27606C0.959595 5.44984 0.959481 6.02 1.36153 6.19394L11.9365 10.7689C12.0632 10.8238 12.207 10.8237 12.3337 10.7689L22.9037 6.1939C23.3056 6.01993 23.3055 5.44991 22.9035 5.2761L12.3335 0.706098C12.2069 0.651365 12.0633 0.651352 11.9367 0.706064ZM12.1346 1.70904L21.4461 5.73504L12.1346 9.76504L2.81906 5.73504L12.1346 1.70904Z" fill="#4195B9"/>
</svg>
