<svg width="24" height="24" viewBox="0 0 24 24" fill="none" xmlns="http://www.w3.org/2000/svg">
<path d="M9.12 7.69507C9.37641 7.69507 9.58775 7.88809 9.61663 8.13676L9.62 8.19507V10.2951C9.62 10.5712 9.39614 10.7951 9.12 10.7951C8.86358 10.7951 8.65224 10.602 8.62336 10.3534L8.62 10.2951V8.19507C8.62 7.91893 8.84385 7.69507 9.12 7.69507Z" fill="#4195B9"/>
<path d="M1.245 4.27002C1.50141 4.27002 1.71275 4.46304 1.74163 4.71171L1.745 4.77002V13.911L4.68144 15.1281C4.91832 15.2263 5.03964 15.4855 4.97111 15.7263L4.95189 15.7815C4.85371 16.0183 4.59448 16.1397 4.3537 16.0711L4.29855 16.0519L1.05355 14.7069C0.885444 14.6372 0.769999 14.4826 0.748591 14.305L0.744995 14.245V4.77002C0.744995 4.49388 0.968853 4.27002 1.245 4.27002Z" fill="#4195B9"/>
<path d="M16.96 4.27002C17.2164 4.27002 17.4277 4.46304 17.4566 4.71171L17.46 4.77002V10.295C17.46 10.5712 17.2361 10.795 16.96 10.795C16.7035 10.795 16.4922 10.602 16.4633 10.3533L16.46 10.295V4.77002C16.46 4.49388 16.6838 4.27002 16.96 4.27002Z" fill="#4195B9"/>
<path d="M8.90128 0.836231L1.05128 4.23623C0.649456 4.41027 0.649609 4.98014 1.05152 5.15396L8.90152 8.54896C9.02814 8.60372 9.17175 8.60374 9.29837 8.54901L17.1534 5.15401C17.5554 4.98024 17.5556 4.41017 17.1536 4.23618L9.29862 0.836184C9.17185 0.781314 9.02803 0.781331 8.90128 0.836231ZM9.1 1.83954L15.6955 4.69454L9.1 7.54554L2.508 4.69454L9.1 1.83954Z" fill="#4195B9"/>
<path d="M5.09109 2.64172C5.19282 2.40635 5.45384 2.28894 5.69356 2.36108L5.74842 2.38113L13.6034 5.77613C13.7649 5.84592 13.8763 5.99452 13.9002 6.16566L13.905 6.23078L13.9401 10.2908C13.9424 10.5669 13.7205 10.7927 13.4444 10.7951C13.188 10.7973 12.975 10.6061 12.9439 10.3577L12.9401 10.2994L12.9081 6.56459L5.35169 3.29906C5.11631 3.19733 4.9989 2.9363 5.07104 2.69658L5.09109 2.64172Z" fill="#4195B9"/>
<path d="M11.35 14.5901C11.6064 14.5901 11.8177 14.7831 11.8466 15.0318L11.85 15.0901V19.1351C11.85 19.4112 11.6261 19.6351 11.35 19.6351C11.0936 19.6351 10.8822 19.4421 10.8533 19.1934L10.85 19.1351V15.0901C10.85 14.8139 11.0738 14.5901 11.35 14.5901Z" fill="#4195B9"/>
<path d="M13.39 14.5901C13.6464 14.5901 13.8578 14.7831 13.8867 15.0318L13.89 15.0901V19.4651C13.89 19.7412 13.6662 19.9651 13.39 19.9651C13.1336 19.9651 12.9223 19.7721 12.8934 19.5234L12.89 19.4651V15.0901C12.89 14.8139 13.1139 14.5901 13.39 14.5901Z" fill="#699C69"/>
<path d="M9.30994 14.5901C9.56635 14.5901 9.77769 14.7831 9.80657 15.0318L9.80994 15.0901V20.4651C9.80994 20.7412 9.58608 20.9651 9.30994 20.9651C9.05352 20.9651 8.84218 20.7721 8.8133 20.5234L8.80994 20.4651V15.0901C8.80994 14.8139 9.03379 14.5901 9.30994 14.5901Z" fill="#4195B9"/>
<path d="M15.4301 14.5901C15.6865 14.5901 15.8978 14.7831 15.9267 15.0318L15.9301 15.0901V17.8601C15.9301 18.1362 15.7062 18.3601 15.4301 18.3601C15.1736 18.3601 14.9623 18.1671 14.9334 17.9184L14.9301 17.8601V15.0901C14.9301 14.8139 15.1539 14.5901 15.4301 14.5901Z" fill="#4195B9"/>
<path d="M15.4301 19.775C15.6865 19.775 15.8978 19.968 15.9267 20.2167L15.9301 20.275V20.535C15.9301 20.8112 15.7062 21.035 15.4301 21.035C15.1736 21.035 14.9623 20.842 14.9334 20.5933L14.9301 20.535V20.275C14.9301 19.9989 15.1539 19.775 15.4301 19.775Z" fill="#4195B9"/>
<path d="M17.47 14.5901C17.7264 14.5901 17.9377 14.7831 17.9666 15.0318L17.97 15.0901V19.4651C17.97 19.7412 17.7461 19.9651 17.47 19.9651C17.2136 19.9651 17.0022 19.7721 16.9733 19.5234L16.97 19.4651V15.0901C16.97 14.8139 17.1938 14.5901 17.47 14.5901Z" fill="#699C69"/>
<path d="M19.51 14.5901C19.7664 14.5901 19.9778 14.7831 20.0066 15.0318L20.01 15.0901V20.4651C20.01 20.7412 19.7862 20.9651 19.51 20.9651C19.2536 20.9651 19.0423 20.7721 19.0134 20.5234L19.01 20.4651V15.0901C19.01 14.8139 19.2339 14.5901 19.51 14.5901Z" fill="#4195B9"/>
<path d="M16.7399 12.2201C17.0161 12.2201 17.2399 12.444 17.2399 12.7201C17.2399 12.9765 17.0469 13.1878 16.7983 13.2167L16.7399 13.2201H7.50994C7.44201 13.2201 7.37689 13.2472 7.32902 13.2954C7.29072 13.3339 7.26599 13.3834 7.25786 13.4382L7.25493 13.4801L7.25491 21.7184C7.25447 21.7863 7.28114 21.8516 7.32902 21.8998C7.36731 21.9384 7.41665 21.9634 7.46963 21.9719L7.50994 21.9751H21.3599C21.4279 21.9751 21.493 21.948 21.5409 21.8998C21.5792 21.8613 21.6039 21.8117 21.612 21.757L21.615 21.7151L21.615 13.4768C21.6154 13.4089 21.5887 13.3436 21.5409 13.2954C21.5026 13.2568 21.4532 13.2318 21.4002 13.2233L21.3599 13.2201H19.1499C18.8738 13.2201 18.6499 12.9962 18.6499 12.7201C18.6499 12.4637 18.843 12.2523 19.0916 12.2235L19.1499 12.2201H21.3599C21.6942 12.2201 22.0147 12.3535 22.2503 12.5906C22.4623 12.804 22.5898 13.0857 22.6116 13.3812L22.615 13.4801V21.7118C22.6171 22.0461 22.4859 22.3674 22.2503 22.6046C22.0383 22.818 21.7575 22.9474 21.4597 22.9711L21.3599 22.9751H7.50994C7.17565 22.9751 6.85518 22.8417 6.61958 22.6046C6.40755 22.3911 6.28004 22.1095 6.25825 21.814L6.25491 21.7151V13.4834C6.25275 13.1491 6.38399 12.8278 6.61958 12.5906C6.83162 12.3772 7.11241 12.2478 7.41014 12.2241L7.50994 12.2201H16.7399Z" fill="#699C69"/>
</svg>
