<svg width="24" height="24" viewBox="0 0 24 24" fill="none" xmlns="http://www.w3.org/2000/svg">
<path fill-rule="evenodd" clip-rule="evenodd" d="M0.890015 4.66003C0.890015 4.38389 1.11387 4.16003 1.39001 4.16003H22.79C23.0662 4.16003 23.29 4.38389 23.29 4.66003V19.305C23.29 19.5812 23.0662 19.805 22.79 19.805H1.39001C1.11387 19.805 0.890015 19.5812 0.890015 19.305V4.66003ZM1.89001 5.16003V18.805H22.29V5.16003H1.89001Z" fill="#4195B9"/>
<path d="M5.40002 6.865C5.17169 7.32121 4.79158 7.68364 4.32502 7.89C3.92502 8.02 3.79002 7.725 4.00502 7.295L5.40002 6.865ZM7.55502 6.25C6.93502 7.59 5.55502 8.965 4.38002 9.34C3.20502 9.715 2.79502 8.88 3.41502 7.52L3.81502 7.385C3.41502 8.27 3.68002 8.81 4.46002 8.565C5.3719 8.17468 6.10858 7.46292 6.53002 6.565L7.55502 6.25Z" fill="#699C69"/>
<path d="M6.01 10.63C6.34198 10.6091 6.6727 10.6874 6.96 10.855C7.18656 11.0182 7.31315 11.2865 7.295 11.565C7.29939 11.7135 7.26854 11.8608 7.205 11.995C7.14514 12.1141 7.05559 12.2157 6.945 12.29C6.82 12.3705 6.68087 12.4265 6.535 12.455C6.36266 12.4945 6.18675 12.5163 6.01 12.5201H5.75V13.5201H5.25V10.7C5.38195 10.6728 5.51558 10.6544 5.65 10.6451L6.01 10.63ZM6.045 11.08H5.72V12.0551H6.01C6.20726 12.0658 6.40427 12.0298 6.585 11.95C6.72684 11.8694 6.80735 11.7123 6.79 11.55C6.79113 11.4684 6.77225 11.3877 6.735 11.315C6.69951 11.2537 6.64755 11.2034 6.585 11.17C6.51793 11.1286 6.44304 11.1013 6.365 11.09C6.26385 11.0775 6.16176 11.0741 6.06 11.08H6.045Z" fill="#4195B9"/>
<path fill-rule="evenodd" clip-rule="evenodd" d="M6.8917 10.9599C6.62708 10.8069 6.32306 10.7355 6.01789 10.7548L6.01521 10.755L5.65695 10.7699C5.56245 10.7765 5.46835 10.7878 5.375 10.8037V13.3951H5.625V12.3951H6.00864C6.17647 12.3914 6.34348 12.3706 6.50712 12.3332L6.51096 12.3323C6.6409 12.3069 6.76486 12.2571 6.87629 12.1856C6.96816 12.1236 7.04264 12.0391 7.09266 11.9402C7.14732 11.8242 7.17384 11.6969 7.17005 11.5687L7.16988 11.5628L7.17026 11.5569C7.18549 11.3233 7.08032 11.0982 6.8917 10.9599ZM6.00348 10.5052C6.35978 10.483 6.71466 10.5671 7.02301 10.7471L7.02818 10.7501L7.03304 10.7536C7.29295 10.9407 7.43888 11.2478 7.4201 11.5672C7.42409 11.7334 7.38913 11.8983 7.31798 12.0485L7.31671 12.0512C7.24719 12.1895 7.14316 12.3074 7.01474 12.3938L7.01266 12.3952C6.87492 12.4838 6.72166 12.5456 6.56098 12.5773C6.38098 12.6184 6.19727 12.6411 6.01268 12.645L6.01 12.6451L5.875 12.6451V13.6451H5.125V10.5983L5.22468 10.5776C5.36212 10.5492 5.50133 10.5301 5.64134 10.5204L5.64479 10.5201L6.00348 10.5052ZM6.05643 10.955C6.16454 10.949 6.27297 10.9526 6.38043 10.966L6.38291 10.9663C6.47664 10.9799 6.56663 11.0124 6.64743 11.0617C6.72897 11.1061 6.79672 11.1721 6.84321 11.2525L6.84638 11.258C6.89181 11.3466 6.91524 11.4448 6.91505 11.5443C6.93442 11.7533 6.82967 11.9547 6.64679 12.0587L6.64128 12.0618L6.63547 12.0644C6.4378 12.1517 6.22242 12.1913 6.00668 12.1801H5.595V10.955H6.05643ZM6.34828 11.2139C6.25507 11.2024 6.16102 11.1994 6.06727 11.2048L6.06364 11.205H5.845V11.9301H6.01681C6.19217 11.9396 6.36731 11.9083 6.52834 11.8384C6.62374 11.7815 6.67756 11.6742 6.66571 11.5633L6.66491 11.5559L6.66501 11.5483C6.66585 11.4882 6.65219 11.4287 6.62523 11.375C6.60146 11.335 6.5672 11.3022 6.52613 11.2803L6.52263 11.2785L6.51926 11.2764C6.46711 11.2441 6.40893 11.2229 6.34828 11.2139Z" fill="#4195B9"/>
<path fill-rule="evenodd" clip-rule="evenodd" d="M10.535 10.54C10.8112 10.54 11.035 10.7639 11.035 11.04V13.255C11.035 13.5312 10.8112 13.755 10.535 13.755C10.2589 13.755 10.035 13.5312 10.035 13.255V11.04C10.035 10.7639 10.2589 10.54 10.535 10.54Z" fill="#699C69"/>
<path fill-rule="evenodd" clip-rule="evenodd" d="M8.84497 10.54C9.12111 10.54 9.34497 10.7639 9.34497 11.04V13.255C9.34497 13.5312 9.12111 13.755 8.84497 13.755C8.56883 13.755 8.34497 13.5312 8.34497 13.255V11.04C8.34497 10.7639 8.56883 10.54 8.84497 10.54Z" fill="#699C69"/>
<path fill-rule="evenodd" clip-rule="evenodd" d="M12.225 10.54C12.5011 10.54 12.725 10.7639 12.725 11.04V13.255C12.725 13.5312 12.5011 13.755 12.225 13.755C11.9488 13.755 11.725 13.5312 11.725 13.255V11.04C11.725 10.7639 11.9488 10.54 12.225 10.54Z" fill="#699C69"/>
<path fill-rule="evenodd" clip-rule="evenodd" d="M13.915 10.54C14.1912 10.54 14.415 10.7639 14.415 11.04V13.255C14.415 13.5312 14.1912 13.755 13.915 13.755C13.6389 13.755 13.415 13.5312 13.415 13.255V11.04C13.415 10.7639 13.6389 10.54 13.915 10.54Z" fill="#699C69"/>
<path fill-rule="evenodd" clip-rule="evenodd" d="M15.605 10.54C15.8811 10.54 16.105 10.7639 16.105 11.04V13.255C16.105 13.5312 15.8811 13.755 15.605 13.755C15.3288 13.755 15.105 13.5312 15.105 13.255V11.04C15.105 10.7639 15.3288 10.54 15.605 10.54Z" fill="#699C69"/>
<path fill-rule="evenodd" clip-rule="evenodd" d="M17.295 10.54C17.5712 10.54 17.795 10.7639 17.795 11.04V13.255C17.795 13.5312 17.5712 13.755 17.295 13.755C17.0189 13.755 16.795 13.5312 16.795 13.255V11.04C16.795 10.7639 17.0189 10.54 17.295 10.54Z" fill="#699C69"/>
<path fill-rule="evenodd" clip-rule="evenodd" d="M18.985 10.54C19.2611 10.54 19.485 10.7639 19.485 11.04V13.255C19.485 13.5312 19.2611 13.755 18.985 13.755C18.7088 13.755 18.485 13.5312 18.485 13.255V11.04C18.485 10.7639 18.7088 10.54 18.985 10.54Z" fill="#699C69"/>
<path fill-rule="evenodd" clip-rule="evenodd" d="M10.03 7.31506C10.03 7.03892 10.2539 6.81506 10.53 6.81506H13.145C13.4212 6.81506 13.645 7.03892 13.645 7.31506C13.645 7.59121 13.4212 7.81506 13.145 7.81506H10.53C10.2539 7.81506 10.03 7.59121 10.03 7.31506Z" fill="#4195B9"/>
<path fill-rule="evenodd" clip-rule="evenodd" d="M14.795 7.31506C14.795 7.03892 15.0189 6.81506 15.295 6.81506H20.23C20.5062 6.81506 20.73 7.03892 20.73 7.31506C20.73 7.59121 20.5062 7.81506 20.23 7.81506H15.295C15.0189 7.81506 14.795 7.59121 14.795 7.31506Z" fill="#4195B9"/>
<path fill-rule="evenodd" clip-rule="evenodd" d="M8.005 16.895C8.005 16.6189 8.22886 16.395 8.505 16.395H13.44C13.7161 16.395 13.94 16.6189 13.94 16.895C13.94 17.1712 13.7161 17.395 13.44 17.395H8.505C8.22886 17.395 8.005 17.1712 8.005 16.895Z" fill="#4195B9"/>
<path fill-rule="evenodd" clip-rule="evenodd" d="M3.54504 16.895C3.54504 16.6189 3.7689 16.395 4.04504 16.395H6.37004C6.64619 16.395 6.87004 16.6189 6.87004 16.895C6.87004 17.1712 6.64619 17.395 6.37004 17.395H4.04504C3.7689 17.395 3.54504 17.1712 3.54504 16.895Z" fill="#4195B9"/>
</svg>
