<svg width="24" height="24" viewBox="0 0 24 24" fill="none" xmlns="http://www.w3.org/2000/svg">
<path d="M23.2001 11.75L20.9501 9.49998C20.7001 9.24998 20.3001 9.09998 19.9501 9.09998H19.5501H18.5001H15.6501C14.8501 9.09998 14.2001 9.74998 14.2001 10.55V15.55V16.6V20.6C14.2501 21.4 14.9001 22.05 15.7001 22.05H22.2001C22.9501 22.05 23.6001 21.45 23.6501 20.65V12.8C23.6001 12.4 23.5001 12.05 23.2001 11.75ZM20.5501 10.5L21.9501 11.95H20.5501V10.5ZM22.5501 20.6C22.5501 20.8 22.4001 20.95 22.2001 21H15.7001H15.6501C15.4501 21 15.2501 20.85 15.2501 20.65V10.55C15.3001 10.3 15.5001 10.15 15.7001 10.15H19.4501V11.95C19.5001 12.6 20.0001 13.1 20.6501 13.1H22.6001L22.5501 20.6Z" fill="#699C69"/>
<path d="M13.75 16.05C13.75 15.75 13.5 15.5 13.2 15.5H1.70002C1.70002 15.5 1.70002 15.5 1.65002 15.5H1.60002C1.45002 15.5 1.35002 15.35 1.35002 15.2V4.65002L9.20002 10C9.65002 10.3 10.25 10.3 10.7 10L18.5 4.65002V7.65002C18.5 7.95002 18.75 8.15002 19 8.15002C19.3 8.15002 19.5 7.90002 19.5 7.65002V4.50002C19.5 3.75002 18.9 3.15002 18.15 3.15002H1.75002C1.00002 3.15002 0.400024 3.75002 0.400024 4.50002V15.2C0.400024 15.95 1.00002 16.55 1.75002 16.55H13.2C13.5 16.55 13.75 16.35 13.75 16.05ZM17.35 4.20002L10.1 9.15002H9.75002L2.60002 4.20002H17.35Z" fill="#4195B9"/>
</svg>
