<svg width="24" height="24" viewBox="0 0 24 24" fill="none" xmlns="http://www.w3.org/2000/svg">
<path fill-rule="evenodd" clip-rule="evenodd" d="M10.5896 1.63642C10.8506 1.51898 11.1494 1.51898 11.4104 1.63642L21.5 6.17675V11C21.5 11.2762 21.2761 11.5 21 11.5C20.7239 11.5 20.5 11.2762 20.5 11V7.23856L16.5 8.83856V11.5C16.5 11.7762 16.2761 12 16 12C15.7239 12 15.5 11.7762 15.5 11.5V9.23856L11.5 10.8386V21.191L12.7764 20.5528C13.0234 20.4293 13.3237 20.5295 13.4472 20.7764C13.5707 21.0234 13.4706 21.3238 13.2236 21.4473L11.0228 22.5477L1.12861 18.59C0.748951 18.4381 0.5 18.0704 0.5 17.6615V6.17675L10.5896 1.63642ZM10.5 21.2615V10.8386L1.5 7.23856V17.6615L10.5 21.2615ZM2.2786 6.47297L11 9.96153L14.7472 8.46263L6.49522 4.57549L2.2786 6.47297ZM7.69536 4.03543L16.0163 7.95502L19.7214 6.47297L11 2.54834L7.69536 4.03543Z" fill="#4195B9"/>
<circle cx="18.8999" cy="17" r="4.5" stroke="#699C69"/>
<path fill-rule="evenodd" clip-rule="evenodd" d="M18.3999 14C18.676 14 18.8999 14.2239 18.8999 14.5V17.1909L20.6234 18.0527C20.8704 18.1762 20.9705 18.4765 20.847 18.7235C20.7235 18.9705 20.4232 19.0706 20.1762 18.9471L17.8999 17.8089V14.5C17.8999 14.2239 18.1238 14 18.3999 14Z" fill="#699C69"/>
</svg>
