<svg width="24" height="24" viewBox="0 0 24 24" fill="none" xmlns="http://www.w3.org/2000/svg">
<g clip-path="url(#clip0_114_368)">
<path fill-rule="evenodd" clip-rule="evenodd" d="M16.5571 1.26134C16.1995 1.11829 15.8005 1.11829 15.4429 1.26134L13.7038 1.95699L19.7532 4.46019L22.1537 3.49999L16.5571 1.26134ZM23 4.2385L20.25 5.3385V11C20.25 11.2761 20.0261 11.5 19.75 11.5C19.4739 11.5 19.25 11.2761 19.25 11V5.7385L16.5 6.8385V8.99999C16.5 9.27613 16.2761 9.49999 16 9.49999C15.7239 9.49999 15.5 9.27613 15.5 8.99999V6.8385L9 4.2385V8.99999C9 9.27613 8.77614 9.49999 8.5 9.49999C8.22386 9.49999 8 9.27613 8 8.99999V3.49999C8 3.29553 8.12448 3.11168 8.3143 3.03575L15.0715 0.332861C15.6676 0.0944502 16.3324 0.0944498 16.9285 0.332861L23.6857 3.03575C23.8755 3.11168 24 3.29553 24 3.49999V12C24 12.1894 23.893 12.3625 23.7236 12.4472L21.7236 13.4472C21.4766 13.5707 21.1763 13.4706 21.0528 13.2236C20.9293 12.9766 21.0294 12.6763 21.2764 12.5528L23 11.691V4.2385ZM9.84629 3.49999L16 5.96147L18.4233 4.99214L12.3739 2.48893L9.84629 3.49999Z" fill="#4195B9"/>
<path fill-rule="evenodd" clip-rule="evenodd" d="M1.10797 11.1896C1.2794 10.9731 1.59387 10.9366 1.81035 11.108L7.68956 15.7635C7.87143 15.9075 8.12848 15.9075 8.31035 15.7635L14.1896 11.108C14.406 10.9366 14.7205 10.9731 14.8919 11.1896C15.0634 11.4061 15.0268 11.7206 14.8104 11.892L10.1327 15.596L11.0789 16.2321C11.3081 16.3862 11.369 16.6969 11.2149 16.926C11.0608 17.1552 10.7502 17.2161 10.521 17.062L9.30971 16.2477L8.93115 16.5475C8.38553 16.9795 7.61439 16.9795 7.06877 16.5475L6.67947 16.2392L1.25347 19.431C1.01545 19.571 0.709 19.4915 0.56899 19.2535C0.428981 19.0155 0.508431 18.7091 0.746448 18.5691L5.83881 15.5735L1.18956 11.892C0.973072 11.7206 0.936543 11.4061 1.10797 11.1896Z" fill="#4195B9"/>
<path d="M18.15 13.5C15.3 13.5 13 15.8 13 18.65C13 21.5 15.3 23.8 18.15 23.8C21 23.8 23.3 21.5 23.3 18.65C23.3 15.8 21 13.5 18.15 13.5ZM22.35 18.65C22.35 20.95 20.5 22.85 18.15 22.85C15.8 22.85 13.95 21 13.95 18.65C13.95 16.3 15.8 14.45 18.15 14.45C20.5 14.45 22.35 16.35 22.35 18.65Z" fill="#699C69"/>
<path d="M19.95 17.75C19.95 16.9 19.35 16.35 18.45 16.3H17C16.75 16.3 16.55 16.45 16.5 16.7V20.4C16.5 20.7 16.7 20.9 17 20.9C17.25 20.9 17.45 20.75 17.5 20.5V19.2H18.25L19 20.6C19.15 20.8 19.25 20.95 19.45 20.95C19.7 20.95 19.95 20.75 19.95 20.5C19.95 20.45 19.95 20.35 19.9 20.25L19.2 19.05C19.65 18.8 19.95 18.3 19.95 17.75ZM18.95 17.75C18.95 18.15 18.7 18.4 18.3 18.4H17.4V17.05H18.2C18.7 17.05 18.95 17.35 18.95 17.75Z" fill="#699C69"/>
<path fill-rule="evenodd" clip-rule="evenodd" d="M0.5 12C0.5 11.1716 1.17157 10.5 2 10.5H14C14.8284 10.5 15.5 11.1716 15.5 12V13C15.5 13.2761 15.2761 13.5 15 13.5C14.7239 13.5 14.5 13.2761 14.5 13V12C14.5 11.7239 14.2761 11.5 14 11.5H2C1.72386 11.5 1.5 11.7239 1.5 12V19C1.5 19.2761 1.72386 19.5 2 19.5H11.5C11.7761 19.5 12 19.7239 12 20C12 20.2761 11.7761 20.5 11.5 20.5H2C1.17157 20.5 0.5 19.8284 0.5 19V12Z" fill="#4195B9"/>
</g>
<defs>
<clipPath id="clip0_114_368">
<rect width="24" height="24" fill="white"/>
</clipPath>
</defs>
</svg>
