<svg width="24" height="24" viewBox="0 0 24 24" fill="none" xmlns="http://www.w3.org/2000/svg">
<path d="M1.55469 5.34009C1.81111 5.34009 2.02244 5.53311 2.05132 5.78178L2.05469 5.84009L2.05419 18.2726L12.3149 22.7569C12.5499 22.8596 12.6662 23.1211 12.5931 23.3605L12.5728 23.4153C12.4702 23.6503 12.2087 23.7666 11.9692 23.6935L11.9145 23.6732L1.35446 19.0582C1.1926 18.9875 1.08163 18.8375 1.05897 18.6655L1.05469 18.6001V5.84009C1.05469 5.56395 1.27855 5.34009 1.55469 5.34009Z" fill="#4195B9"/>
<path d="M12.2246 9.80957C12.481 9.80957 12.6924 10.0026 12.7212 10.2513L12.7246 10.3096V22.4496L13.5891 22.0715C13.824 21.9687 14.095 22.0608 14.2212 22.277L14.2477 22.3291C14.3505 22.564 14.2584 22.835 14.0422 22.9612L13.9901 22.9876L12.4251 23.6726C12.1131 23.8092 11.7656 23.6009 11.728 23.2735L11.7246 23.2146V10.3096C11.7246 10.0334 11.9485 9.80957 12.2246 9.80957Z" fill="#4195B9"/>
<path d="M22.6943 5.25488C22.9508 5.25488 23.1621 5.4479 23.191 5.69657L23.1943 5.75488V14.9199C23.1943 15.196 22.9705 15.4199 22.6943 15.4199C22.4379 15.4199 22.2266 15.2269 22.1977 14.9782L22.1943 14.9199V5.75488C22.1943 5.47874 22.4182 5.25488 22.6943 5.25488Z" fill="#4195B9"/>
<path d="M11.9208 4.81522C12.1718 4.70004 12.4686 4.81013 12.5838 5.06111C12.6907 5.29416 12.6035 5.56674 12.3895 5.69671L12.3379 5.72408L6.90636 8.21615L6.85935 14.3885C6.85737 14.6449 6.66273 14.8548 6.41384 14.8817L6.35551 14.8846C6.0991 14.8827 5.88926 14.688 5.86229 14.4391L5.85938 14.3808L5.90938 7.8908C5.9107 7.71834 6.00061 7.5604 6.14443 7.4706L6.20081 7.44022L11.9208 4.81522Z" fill="#699C69"/>
<path d="M11.9363 0.706064L1.36135 5.27606C0.959229 5.44984 0.959115 6.02 1.36116 6.19394L11.9362 10.7689C12.0629 10.8238 12.2066 10.8237 12.3333 10.7689L22.9033 6.1939C23.3052 6.01993 23.3051 5.44991 22.9031 5.2761L12.3331 0.706098C12.2065 0.651365 12.0629 0.651352 11.9363 0.706064ZM12.1342 1.70904L21.4457 5.73504L12.1342 9.76504L2.81869 5.73504L12.1342 1.70904Z" fill="#4195B9"/>
<path d="M19.2347 15.2705C16.9483 15.2705 15.0947 17.1241 15.0947 19.4105C15.0947 21.697 16.9483 23.5505 19.2347 23.5505C21.5212 23.5505 23.3747 21.697 23.3747 19.4105C23.3747 17.1241 21.5212 15.2705 19.2347 15.2705ZM19.2347 16.2705C20.9689 16.2705 22.3747 17.6763 22.3747 19.4105C22.3747 21.1447 20.9689 22.5505 19.2347 22.5505C17.5006 22.5505 16.0947 21.1447 16.0947 19.4105C16.0947 17.6763 17.5006 16.2705 19.2347 16.2705Z" fill="#699C69"/>
<path d="M20.3415 17.855C20.5154 17.6406 20.8303 17.6078 21.0448 17.7818C21.2427 17.9424 21.2859 18.223 21.1545 18.4339L21.118 18.4851L19.118 20.9501C18.9422 21.1668 18.627 21.195 18.416 21.0245L18.3693 20.9816L17.3693 19.9416C17.1779 19.7426 17.1841 19.426 17.3832 19.2346C17.5669 19.058 17.8508 19.0497 18.0439 19.206L18.0902 19.2485L18.6977 19.8801L20.3415 17.855Z" fill="#699C69"/>
</svg>
