<svg width="24" height="24" viewBox="0 0 24 24" fill="none" xmlns="http://www.w3.org/2000/svg">
<g clip-path="url(#clip0_114_244)">
<path d="M10.47 7.64001C10.7264 7.64001 10.9377 7.83303 10.9666 8.0817L10.97 8.14001V21.2095L13.2157 20.779C13.4676 20.7306 13.7115 20.8804 13.7867 21.1192L13.801 21.1758C13.8493 21.4276 13.6996 21.6715 13.4608 21.7468L13.4042 21.7611L10.5642 22.3061C10.2752 22.3615 10.0058 22.1573 9.97326 21.8729L9.96997 21.815V8.14001C9.96997 7.86387 10.1938 7.64001 10.47 7.64001Z" fill="#4195B9"/>
<path d="M18.2001 11.64C18.4565 11.64 18.6678 11.833 18.6967 12.0817L18.7001 12.14V12.97C18.7001 13.2462 18.4762 13.47 18.2001 13.47C17.9437 13.47 17.7323 13.277 17.7034 13.0283L17.7001 12.97V12.14C17.7001 11.8639 17.9239 11.64 18.2001 11.64Z" fill="#4195B9"/>
<path d="M4.59998 11.67C4.85639 11.67 5.06773 11.8631 5.09661 12.1117L5.09998 12.17V18.8984C5.10116 19.2512 5.31255 19.5665 5.63105 19.7034L5.7009 19.73L10.5909 21.335C10.8533 21.4211 10.9962 21.7036 10.91 21.966C10.8301 22.2096 10.5808 22.3502 10.3355 22.3001L10.279 22.2851L5.38737 20.6796C4.65286 20.4356 4.14632 19.7682 4.10298 19.0007L4.09998 18.9V12.17C4.09998 11.8939 4.32383 11.67 4.59998 11.67Z" fill="#4195B9"/>
<path d="M18.19 7.45996H10.51C10.1098 7.45996 9.87181 7.90664 10.095 8.2388L12.685 12.0938C12.8721 12.376 13.1979 12.5389 13.539 12.5191L19.8871 12.1742C20.2342 12.1508 20.5371 11.9497 20.6905 11.645C20.8439 11.3403 20.8251 10.9772 20.6409 10.69L18.6041 7.67975C18.5111 7.5423 18.356 7.45996 18.19 7.45996ZM17.9245 8.45996L19.7645 11.1795L13.5035 11.5195L11.4485 8.45996H17.9245Z" fill="#4195B9"/>
<path d="M10.6832 7.44505L4.36818 7.40504C4.19739 7.40397 4.03786 7.49014 3.94513 7.63357L2.12513 10.4486C1.92326 10.7633 1.89518 11.1571 2.04956 11.4956C2.20395 11.8342 2.51969 12.0711 2.88788 12.1248L7.03905 12.72C7.44691 12.7743 7.84676 12.6025 8.08507 12.2732L11.0813 8.24337C11.3257 7.91466 11.0928 7.44764 10.6832 7.44505ZM4.63551 8.40604L9.69001 8.43854L7.27876 11.6817C7.25232 11.7182 7.21432 11.7345 7.17604 11.7294L3.03098 11.1351C3.0002 11.1306 2.97281 11.1101 2.95942 11.0807C2.94602 11.0513 2.94846 11.0171 2.96589 10.99L4.63551 8.40604Z" fill="#4195B9"/>
<path d="M12.995 0.380005C13.2514 0.380005 13.4628 0.573025 13.4916 0.821694L13.495 0.880005V2.7295L14.7 2.73C15.1298 2.73 15.3509 3.23008 15.0869 3.54713L15.0479 3.58917L11.7129 6.81917C11.5251 7.00098 11.2328 7.00557 11.0398 6.83984L10.9937 6.79486L8.0087 3.48486C7.73124 3.1772 7.92802 2.69427 8.3247 2.65286L8.38001 2.65L9.34001 2.6495V0.905005C9.34001 0.648587 9.53303 0.437251 9.7817 0.408369L9.84001 0.405005C10.0964 0.405005 10.3078 0.598025 10.3366 0.846694L10.34 0.905005V3.15C10.34 3.40642 10.147 3.61776 9.89832 3.64664L9.84001 3.65L9.50351 3.6495L11.389 5.74001L13.465 3.7295L12.995 3.73C12.7386 3.73 12.5273 3.53698 12.4984 3.28832L12.495 3.23V0.880005C12.495 0.603862 12.7189 0.380005 12.995 0.380005Z" fill="#699C69"/>
<path d="M19.695 17.245C20.2002 17.245 20.6847 17.4457 21.042 17.803C21.3718 18.1327 21.5682 18.571 21.5964 19.0338L21.6 19.15V19.345C21.6 20.3642 20.7995 21.1965 19.793 21.2475L19.695 21.25H17.535C17.2864 21.25 17.085 21.0485 17.085 20.8C17.085 20.5706 17.2566 20.3813 17.4785 20.3535L17.535 20.35H19.695C20.2248 20.35 20.6588 19.94 20.6972 19.42L20.7 19.345V19.15C20.7 18.8835 20.5941 18.6278 20.4056 18.4394C20.2381 18.2718 20.0175 18.1695 19.7833 18.1489L19.695 18.145H18.195C17.9464 18.145 17.745 17.9435 17.745 17.695C17.745 17.4656 17.9166 17.2763 18.1385 17.2485L18.195 17.245H19.695Z" fill="#699C69"/>
<path d="M18.4511 16.1575C18.6265 15.9814 18.9114 15.9808 19.0875 16.1562C19.2489 16.3169 19.2629 16.5698 19.129 16.7464L19.0888 16.7926L18.17 17.715L19.0888 18.6375C19.2496 18.7989 19.2625 19.0518 19.1279 19.2279L19.0875 19.2739C18.9261 19.4346 18.6732 19.4475 18.4971 19.3129L18.4511 19.2726L17.2161 18.0326C17.0558 17.8716 17.0425 17.6196 17.176 17.4435L17.2161 17.3975L18.4511 16.1575Z" fill="#699C69"/>
<path d="M19.105 14.035C16.4292 14.035 14.26 16.2042 14.26 18.88C14.26 21.5559 16.4292 23.725 19.105 23.725C21.7808 23.725 23.95 21.5559 23.95 18.88C23.95 16.2042 21.7808 14.035 19.105 14.035ZM19.105 15.035C21.2285 15.035 22.95 16.7565 22.95 18.88C22.95 21.0036 21.2285 22.725 19.105 22.725C16.9815 22.725 15.26 21.0036 15.26 18.88C15.26 16.7565 16.9815 15.035 19.105 15.035Z" fill="#699C69"/>
</g>
<defs>
<clipPath id="clip0_114_244">
<rect width="24" height="24" fill="white"/>
</clipPath>
</defs>
</svg>
