<svg width="24" height="24" viewBox="0 0 24 24" fill="none" xmlns="http://www.w3.org/2000/svg">
<path d="M19.1057 14.0352C16.4299 14.0352 14.2607 16.2043 14.2607 18.8802C14.2607 21.556 16.4299 23.7252 19.1057 23.7252C21.7816 23.7252 23.9507 21.556 23.9507 18.8802C23.9507 16.2043 21.7816 14.0352 19.1057 14.0352ZM19.1057 15.0352C21.2293 15.0352 22.9507 16.7566 22.9507 18.8802C22.9507 21.0037 21.2293 22.7252 19.1057 22.7252C16.9822 22.7252 15.2607 21.0037 15.2607 18.8802C15.2607 16.7566 16.9822 15.0352 19.1057 15.0352Z" fill="#699C69"/>
<path d="M3.32031 6.40039C3.57673 6.40039 3.78807 6.59341 3.81695 6.84208L3.82031 6.90039L3.81981 17.2029L12.3156 20.9173C12.5505 21.02 12.6669 21.2815 12.5937 21.5209L12.5734 21.5757C12.4707 21.8106 12.2092 21.9269 11.9698 21.8538L11.915 21.8335L3.12003 17.9885C2.9582 17.9178 2.84725 17.7678 2.8246 17.5958L2.82031 17.5304V6.90039C2.82031 6.62425 3.04417 6.40039 3.32031 6.40039Z" fill="#4195B9"/>
<path d="M12.21 10.1201C12.4664 10.1201 12.6777 10.3131 12.7066 10.5618L12.71 10.6201V20.6021L13.6301 20.189C13.864 20.0839 14.1358 20.1734 14.2641 20.3884L14.2911 20.4402C14.3961 20.6741 14.3067 20.946 14.0917 21.0742L14.0399 21.1012L12.4149 21.8312C12.1024 21.9716 11.7514 21.7635 11.7134 21.4344L11.71 21.3751V10.6201C11.71 10.344 11.9338 10.1201 12.21 10.1201Z" fill="#4195B9"/>
<path d="M20.9353 6.32495C21.1917 6.32495 21.4031 6.51797 21.4319 6.76664L21.4353 6.82495V12.795C21.4353 13.0711 21.2114 13.295 20.9353 13.295C20.6789 13.295 20.4675 13.1019 20.4387 12.8533L20.4353 12.795V6.82495C20.4353 6.54881 20.6592 6.32495 20.9353 6.32495Z" fill="#4195B9"/>
<path d="M11.9219 5.97055C12.1729 5.85545 12.4697 5.96563 12.5848 6.21664C12.6917 6.44972 12.6043 6.72228 12.3903 6.85218L12.3387 6.87954L7.8623 8.93155L7.82529 14.0237C7.82339 14.2802 7.62882 14.4901 7.37994 14.5171L7.32161 14.52C7.0652 14.5181 6.85529 14.3236 6.82825 14.0747L6.82532 14.0164L6.86532 8.60635C6.86659 8.43379 6.95655 8.27575 7.10047 8.18593L7.15689 8.15555L11.9219 5.97055Z" fill="#699C69"/>
<path d="M11.9368 2.54108L3.12685 6.35108C2.72481 6.52495 2.72481 7.09505 3.12685 7.26892L11.9368 11.0789C12.0635 11.1337 12.2071 11.1337 12.3338 11.0789L21.1438 7.26892C21.5458 7.09505 21.5458 6.52495 21.1438 6.35108L12.3338 2.54108C12.2071 2.48631 12.0635 2.48631 11.9368 2.54108ZM12.1353 3.544L19.6858 6.8095L12.1348 10.0755L4.58432 6.81L12.1353 3.544Z" fill="#4195B9"/>
<path d="M20.2518 16.9814C20.4471 16.7861 20.7636 16.7861 20.9589 16.9814C21.1391 17.1616 21.153 17.4453 21.0005 17.6414L20.9589 17.6885L17.9589 20.6885C17.7636 20.8838 17.4471 20.8838 17.2518 20.6885C17.0716 20.5083 17.0577 20.2247 17.2102 20.0285L17.2518 19.9814L20.2518 16.9814Z" fill="#699C69"/>
<path d="M17.2518 16.9814C17.432 16.8012 17.7157 16.7873 17.9118 16.9398L17.9589 16.9814L20.9589 19.9814C21.1542 20.1767 21.1542 20.4933 20.9589 20.6885C20.7787 20.8688 20.495 20.8826 20.2989 20.7301L20.2518 20.6885L17.2518 17.6885C17.0565 17.4933 17.0565 17.1767 17.2518 16.9814Z" fill="#699C69"/>
</svg>
