<svg width="24" height="24" viewBox="0 0 24 24" fill="none" xmlns="http://www.w3.org/2000/svg">
<path fill-rule="evenodd" clip-rule="evenodd" d="M11.1945 2.03912L20.695 6.03962C20.722 6.05093 20.7475 6.06442 20.7715 6.07983C20.7737 6.08131 20.7756 6.08256 20.7775 6.08382L20.8008 6.10014C20.8169 6.11225 20.8323 6.12528 20.8468 6.13915L20.7775 6.08382C20.812 6.1067 20.8431 6.1335 20.8704 6.16341C20.8845 6.17875 20.8975 6.19487 20.9094 6.21173C20.9138 6.21819 20.9184 6.22493 20.9227 6.23177C20.935 6.25085 20.9458 6.27063 20.9552 6.29109C20.9597 6.30113 20.964 6.31125 20.9679 6.3215C20.9738 6.3365 20.9789 6.35208 20.9833 6.36794C20.9871 6.38225 20.9904 6.39672 20.993 6.41135C20.9983 6.43997 21.001 6.46932 21.001 6.4991L21.001 6.49829L21.001 10.9448C21.001 11.2208 20.7775 11.4448 20.501 11.4448C20.2245 11.4448 20.001 11.2208 20.001 10.9448V7.25332L16.5 8.72612L16.5005 11.2298C16.5005 11.5058 16.277 11.7298 16.0005 11.7298C15.724 11.7298 15.5005 11.5058 15.5005 11.2298L15.5 9.14712L11.5005 10.8308V20.7463L12.22 20.4433C12.4725 20.3368 12.7675 20.4553 12.875 20.7098C12.982 20.9648 12.863 21.2578 12.608 21.3648L11.1945 21.9598L11.19 21.9601C11.1884 21.9625 11.1867 21.9632 11.1851 21.9638C11.1659 21.9721 11.1364 21.9814 11.1065 21.9879C11.1004 21.9892 11.0937 21.9905 11.0869 21.9917C11.058 21.9969 11.0293 21.9993 11.0005 21.9993C10.9717 21.9993 10.943 21.9968 10.9145 21.9919L11.0005 21.9993C10.9647 21.9993 10.9289 21.9954 10.8939 21.9878C10.8646 21.9815 10.8351 21.9723 10.8065 21.9603L1.306 17.9618C1.1205 17.8838 1 17.7018 1 17.5008L1.00005 6.49862C1.00005 6.46814 1.00282 6.43809 1.00817 6.40877L1 6.50027C1 6.45857 1.00521 6.41756 1.01518 6.37804C1.01995 6.3572 1.02655 6.33649 1.03444 6.31634C1.03835 6.30807 1.04196 6.29964 1.04579 6.29131C1.05425 6.27111 1.06455 6.25197 1.07603 6.23358C1.081 6.22738 1.08563 6.22038 1.09045 6.2135C1.14284 6.13655 1.21695 6.07509 1.30605 6.03762L10.8066 2.03912C10.9306 1.98712 11.07 1.98712 11.1945 2.03912ZM2 7.25327V17.1688L10.5005 20.7463V10.8308L2 7.25327ZM6.646 4.87412L2.78855 6.49862L7.519 8.49012L11 9.95512L14.621 8.43112L6.646 4.87412ZM11.0006 3.04262L7.908 4.34312L15.884 7.90012L19.2125 6.50012L11.0006 3.04262Z" fill="#4195B9"/>
<path fill-rule="evenodd" clip-rule="evenodd" d="M14.5 19.5001C14.7765 19.5001 15 19.7241 15 20.0001V21.0001H16C16.2765 21.0001 16.5 21.2241 16.5 21.5001C16.5 21.7761 16.2765 22.0001 16 22.0001H14.5C14.2235 22.0001 14 21.7761 14 21.5001V20.0001C14 19.7241 14.2235 19.5001 14.5 19.5001ZM16.25 15.5001C16.5265 15.5001 16.75 15.7241 16.75 16.0001V19.0001C16.75 19.2761 16.5265 19.5001 16.25 19.5001C15.9735 19.5001 15.75 19.2761 15.75 19.0001V16.0001C15.75 15.7241 15.9735 15.5001 16.25 15.5001ZM16 13.0001C16.2765 13.0001 16.5 13.2241 16.5 13.5001C16.5 13.7761 16.2765 14.0001 16 14.0001H15V15.0001C15 15.2761 14.7765 15.5001 14.5 15.5001C14.2235 15.5001 14 15.2761 14 15.0001V13.5001C14 13.2241 14.2235 13.0001 14.5 13.0001H16ZM22.5 19.5001C22.7765 19.5001 23 19.7241 23 20.0001V21.5001C23 21.7761 22.7765 22.0001 22.5 22.0001H21C20.7235 22.0001 20.5 21.7761 20.5 21.5001C20.5 21.2241 20.7235 21.0001 21 21.0001H22V20.0001C22 19.7241 22.2235 19.5001 22.5 19.5001ZM20.75 15.5001C21.0265 15.5001 21.25 15.7241 21.25 16.0001V19.0001C21.25 19.2761 21.0265 19.5001 20.75 19.5001C20.4735 19.5001 20.25 19.2761 20.25 19.0001V16.0001C20.25 15.7241 20.4735 15.5001 20.75 15.5001ZM22.5 13.0001C22.7765 13.0001 23 13.2241 23 13.5001V15.0001C23 15.2761 22.7765 15.5001 22.5 15.5001C22.2235 15.5001 22 15.2761 22 15.0001V14.0001H21C20.7235 14.0001 20.5 13.7761 20.5 13.5001C20.5 13.2241 20.7235 13.0001 21 13.0001H22.5ZM17.75 19.5001C17.4735 19.5001 17.25 19.2761 17.25 19.0001V16.0001C17.25 15.7241 17.4735 15.5001 17.75 15.5001C18.0265 15.5001 18.25 15.7241 18.25 16.0001V19.0001C18.25 19.2761 18.0265 19.5001 17.75 19.5001ZM19.25 19.5001C18.9735 19.5001 18.75 19.2761 18.75 19.0001V16.0001C18.75 15.7241 18.9735 15.5001 19.25 15.5001C19.5265 15.5001 19.75 15.7241 19.75 16.0001V19.0001C19.75 19.2761 19.5265 19.5001 19.25 19.5001Z" fill="#699C69"/>
</svg>
