<svg width="24" height="24" viewBox="0 0 24 24" fill="none" xmlns="http://www.w3.org/2000/svg">
<path d="M10.51 7.71997C10.7664 7.71997 10.9778 7.91299 11.0066 8.16166L11.01 8.21997V21.25L17.0255 20.099C17.4105 20.0249 17.6958 19.705 17.7313 19.3223L17.735 19.245V12.21C17.735 11.9338 17.9589 11.71 18.235 11.71C18.4914 11.71 18.7028 11.903 18.7316 12.1517L18.735 12.21V19.2469C18.7317 20.1098 18.1409 20.8544 17.3108 21.0598L17.214 21.0811L10.604 22.3461C10.315 22.4014 10.0458 22.1972 10.0133 21.9129L10.01 21.855V8.21997C10.01 7.94383 10.2339 7.71997 10.51 7.71997Z" fill="#4195B9"/>
<path d="M4.66992 11.74C4.92634 11.74 5.13768 11.933 5.16656 12.1817L5.16992 12.24V18.9459C5.16926 19.2979 5.3803 19.6129 5.70011 19.7485L5.77027 19.7747L10.6653 21.3747C10.9277 21.4605 11.071 21.7429 10.9852 22.0053C10.9055 22.2491 10.6564 22.39 10.411 22.3402L10.3546 22.3252L5.45982 20.7253C4.72135 20.4843 4.21223 19.8137 4.17243 19.0457L4.16992 18.945V12.24C4.16992 11.9638 4.39378 11.74 4.66992 11.74Z" fill="#4195B9"/>
<path d="M18.2199 7.52002H10.5699C10.1716 7.52002 9.9332 7.96306 10.1527 8.29549L12.6877 12.1355C12.8792 12.4199 13.2026 12.5796 13.5403 12.5591L19.8909 12.2293C20.2337 12.2131 20.5431 12.0117 20.6976 11.7026C20.8521 11.3936 20.8277 11.0251 20.6336 10.7392L18.636 7.74267C18.5432 7.60357 18.3871 7.52002 18.2199 7.52002ZM17.9519 8.52002L19.7619 11.2345L13.5054 11.5595L11.4989 8.52002H17.9519Z" fill="#4195B9"/>
<path d="M10.595 7.52002H4.40997C4.24026 7.52002 4.08213 7.60611 3.99002 7.74865L2.20002 10.5186C1.99822 10.8333 1.97013 11.2271 2.12452 11.5656C2.27891 11.9041 2.59465 12.1411 2.96284 12.1948L7.12768 12.7605C7.52762 12.8258 7.942 12.6461 8.17517 12.2986L11.0029 8.30914C11.2376 7.97803 11.0008 7.52002 10.595 7.52002ZM4.68147 8.52002H9.62747L7.35204 11.7309C7.32951 11.7642 7.3024 11.7759 7.27538 11.7715L3.10226 11.2046C3.07516 11.2006 3.04777 11.18 3.03437 11.1507L3.02728 11.1279C3.02313 11.1046 3.02777 11.0803 3.04084 11.06L4.68147 8.52002Z" fill="#4195B9"/>
<path d="M13.0449 0.474976C13.3014 0.474976 13.5127 0.667996 13.5416 0.916665L13.5449 0.974976V2.81998H14.7449C15.1747 2.81998 15.3959 3.32007 15.1318 3.63712L15.0928 3.67915L11.7678 6.89915C11.5802 7.08078 11.2882 7.08555 11.0952 6.92023L11.0491 6.87536L8.06911 3.58036C7.791 3.27285 7.98763 2.7893 8.3846 2.74783L8.43995 2.74498H9.39495V0.999976C9.39495 0.743558 9.58797 0.532222 9.83664 0.503339L9.89495 0.499976C10.1514 0.499976 10.3627 0.692996 10.3916 0.941665L10.3949 0.999976V3.24498C10.3949 3.50139 10.2019 3.71273 9.95326 3.74161L9.89495 3.74498H9.56595L11.4434 5.82098L13.5094 3.81998H13.0449C12.7885 3.81998 12.5772 3.62696 12.5483 3.37829L12.5449 3.31998V0.974976C12.5449 0.698833 12.7688 0.474976 13.0449 0.474976Z" fill="#699C69"/>
</svg>
