<svg width="24" height="24" viewBox="0 0 24 24" fill="none" xmlns="http://www.w3.org/2000/svg">
<path fill-rule="evenodd" clip-rule="evenodd" d="M20.1667 5H1.83333C1.32707 5 0.916667 5.44772 0.916667 6V19C0.916667 19.5523 1.32707 20 1.83333 20H20.1667C20.6729 20 21.0833 19.5523 21.0833 19V6C21.0833 5.44771 20.6729 5 20.1667 5ZM1.83333 4C0.820811 4 0 4.89543 0 6V19C0 20.1046 0.820811 21 1.83333 21H20.1667C21.1792 21 22 20.1046 22 19V6C22 4.89543 21.1792 4 20.1667 4H1.83333Z" fill="#4195B9"/>
<path fill-rule="evenodd" clip-rule="evenodd" d="M3 9.5C3 9.22386 3.18655 9 3.41667 9H7.58333C7.81345 9 8 9.22386 8 9.5C8 9.77614 7.81345 10 7.58333 10H3.41667C3.18655 10 3 9.77614 3 9.5Z" fill="#4195B9"/>
<path fill-rule="evenodd" clip-rule="evenodd" d="M16 11.5C16 11.2239 16.2985 11 16.6667 11H23.3333C23.7015 11 24 11.2239 24 11.5C24 11.7761 23.7015 12 23.3333 12H16.6667C16.2985 12 16 11.7761 16 11.5Z" fill="#699C69"/>
<path fill-rule="evenodd" clip-rule="evenodd" d="M16 13.5C16 13.2239 16.1119 13 16.25 13H18.75C18.8881 13 19 13.2239 19 13.5C19 13.7761 18.8881 14 18.75 14H16.25C16.1119 14 16 13.7761 16 13.5Z" fill="#699C69"/>
<path fill-rule="evenodd" clip-rule="evenodd" d="M3 12.5C3 12.2239 3.18655 12 3.41667 12H7.58333C7.81345 12 8 12.2239 8 12.5C8 12.7761 7.81345 13 7.58333 13H3.41667C3.18655 13 3 12.7761 3 12.5Z" fill="#4195B9"/>
<path fill-rule="evenodd" clip-rule="evenodd" d="M3 15.5C3 15.2239 3.18655 15 3.41667 15H7.58333C7.81345 15 8 15.2239 8 15.5C8 15.7761 7.81345 16 7.58333 16H3.41667C3.18655 16 3 15.7761 3 15.5Z" fill="#4195B9"/>
<path fill-rule="evenodd" clip-rule="evenodd" d="M13.5 15C14.8807 15 16 13.8807 16 12.5C16 11.1193 14.8807 10 13.5 10C12.1193 10 11 11.1193 11 12.5C11 13.8807 12.1193 15 13.5 15ZM13.5 16C15.433 16 17 14.433 17 12.5C17 10.567 15.433 9 13.5 9C11.567 9 10 10.567 10 12.5C10 14.433 11.567 16 13.5 16Z" fill="#699C69"/>
</svg>
