<svg width="24" height="24" viewBox="0 0 24 24" fill="none" xmlns="http://www.w3.org/2000/svg">
<g clip-path="url(#clip0_114_1165)">
<path d="M23.46 4.64502H0.64502C0.368877 4.64502 0.14502 4.86888 0.14502 5.14502V19.8C0.14502 20.0762 0.368877 20.3 0.64502 20.3H23.46C23.7362 20.3 23.96 20.0762 23.96 19.8V5.14502C23.96 4.86888 23.7362 4.64502 23.46 4.64502ZM22.96 5.64502V19.2995H1.14452V5.64502H22.96Z" fill="#4195B9"/>
<path d="M20.825 7.17505H17.51C17.2339 7.17505 17.01 7.39891 17.01 7.67505V10.41C17.01 10.6862 17.2339 10.91 17.51 10.91H20.825C21.1012 10.91 21.325 10.6862 21.325 10.41V7.67505C21.325 7.39891 21.1012 7.17505 20.825 7.17505ZM20.325 8.17505V9.91005H18.01V8.17505H20.325Z" fill="#4195B9"/>
<path d="M12.09 7.08008C12.3464 7.08008 12.5577 7.2731 12.5866 7.52177L12.59 7.58008V17.4051C12.59 17.6812 12.3661 17.9051 12.09 17.9051C11.8335 17.9051 11.6222 17.7121 11.5933 17.4634L11.59 17.4051V7.58008C11.59 7.30394 11.8138 7.08008 12.09 7.08008Z" fill="#4195B9"/>
<path d="M17.9401 12.51C18.2162 12.51 18.4401 12.7339 18.4401 13.01C18.4401 13.2664 18.247 13.4778 17.9984 13.5066L17.9401 13.51H14.5601C14.2839 13.51 14.0601 13.2862 14.0601 13.01C14.0601 12.7536 14.2531 12.5423 14.5017 12.5134L14.5601 12.51H17.9401Z" fill="#4195B9"/>
<path d="M20.8801 14.505C21.1562 14.505 21.3801 14.7289 21.3801 15.005C21.3801 15.2614 21.187 15.4728 20.9384 15.5016L20.8801 15.505H14.5601C14.2839 15.505 14.0601 15.2811 14.0601 15.005C14.0601 14.7486 14.2531 14.5373 14.5017 14.5084L14.5601 14.505H20.8801Z" fill="#4195B9"/>
<path d="M20.8801 16.5C21.1562 16.5 21.3801 16.7239 21.3801 17C21.3801 17.2564 21.187 17.4678 20.9384 17.4966L20.8801 17.5H14.5601C14.2839 17.5 14.0601 17.2761 14.0601 17C14.0601 16.7436 14.2531 16.5322 14.5017 16.5034L14.5601 16.5H20.8801Z" fill="#4195B9"/>
<path d="M6.31002 9.82007C4.84095 9.82007 3.65002 11.011 3.65002 12.4801C3.65002 13.9491 4.84095 15.1401 6.31002 15.1401C7.7791 15.1401 8.97002 13.9491 8.97002 12.4801C8.97002 11.011 7.7791 9.82007 6.31002 9.82007ZM6.31002 10.8201C7.22682 10.8201 7.97002 11.5633 7.97002 12.4801C7.97002 13.3969 7.22682 14.1401 6.31002 14.1401C5.39323 14.1401 4.65002 13.3969 4.65002 12.4801C4.65002 11.5633 5.39323 10.8201 6.31002 10.8201Z" fill="#699C69"/>
<path d="M6.27502 7.89001C6.53144 7.89001 6.74278 8.08303 6.77166 8.3317L6.77502 8.39001V8.86001C6.77502 9.13616 6.55117 9.36001 6.27502 9.36001C6.01861 9.36001 5.80727 9.16699 5.77839 8.91833L5.77502 8.86001V8.39001C5.77502 8.11387 5.99888 7.89001 6.27502 7.89001Z" fill="#699C69"/>
<path d="M6.27502 15.5C6.53144 15.5 6.74278 15.693 6.77166 15.9417L6.77502 16V16.47C6.77502 16.7461 6.55117 16.97 6.27502 16.97C6.01861 16.97 5.80727 16.777 5.77839 16.5283L5.77502 16.47V16C5.77502 15.7239 5.99888 15.5 6.27502 15.5Z" fill="#699C69"/>
<path d="M10.315 11.9301C10.5911 11.9301 10.815 12.1539 10.815 12.4301C10.815 12.6865 10.622 12.8978 10.3733 12.9267L10.315 12.9301H9.84497C9.56883 12.9301 9.34497 12.7062 9.34497 12.4301C9.34497 12.1736 9.53799 11.9623 9.78666 11.9334L9.84497 11.9301H10.315Z" fill="#699C69"/>
<path d="M2.70499 11.9301C2.98113 11.9301 3.20499 12.1539 3.20499 12.4301C3.20499 12.6865 3.01197 12.8978 2.7633 12.9267L2.70499 12.9301H2.23499C1.95884 12.9301 1.73499 12.7062 1.73499 12.4301C1.73499 12.1736 1.92801 11.9623 2.17667 11.9334L2.23499 11.9301H2.70499Z" fill="#699C69"/>
<path d="M8.4465 14.6015C8.62674 14.4213 8.91035 14.4074 9.1065 14.5599L9.1536 14.6015L9.4836 14.9315C9.67886 15.1268 9.67886 15.4434 9.4836 15.6386C9.30336 15.8189 9.01974 15.8327 8.8236 15.6802L8.7765 15.6386L8.4465 15.3086C8.25123 15.1134 8.25123 14.7968 8.4465 14.6015Z" fill="#699C69"/>
<path d="M3.06149 9.21651C3.24173 9.03627 3.52534 9.02241 3.72149 9.17492L3.76859 9.21651L4.10359 9.55151C4.29885 9.74678 4.29885 10.0634 4.10359 10.2586C3.92335 10.4389 3.63973 10.4527 3.44359 10.3002L3.39649 10.2586L3.06149 9.92362C2.86622 9.72836 2.86622 9.41178 3.06149 9.21651Z" fill="#699C69"/>
<path d="M3.39915 14.5989C3.59588 14.4051 3.91245 14.4075 4.10624 14.6042C4.28512 14.7858 4.29685 15.0695 4.14287 15.2645L4.10092 15.3113L3.76592 15.6413C3.5692 15.8351 3.25263 15.8327 3.05884 15.636C2.87996 15.4544 2.86822 15.1707 3.02221 14.9757L3.06415 14.9289L3.39915 14.5989Z" fill="#699C69"/>
<path d="M8.77385 9.21918C8.96764 9.02246 9.28421 9.02008 9.48093 9.21387C9.66253 9.39275 9.67852 9.67625 9.52749 9.87354L9.48625 9.92095L9.15625 10.256C8.96246 10.4527 8.64589 10.4551 8.44916 10.2613C8.26757 10.0824 8.25158 9.79889 8.40261 9.6016L8.44385 9.55418L8.77385 9.21918Z" fill="#699C69"/>
</g>
<defs>
<clipPath id="clip0_114_1165">
<rect width="24" height="24" fill="white"/>
</clipPath>
</defs>
</svg>
