<svg width="24" height="24" viewBox="0 0 24 24" fill="none" xmlns="http://www.w3.org/2000/svg">
<path d="M19.65 4.65005C19.65 4.35005 19.55 4.10005 19.4 3.90005C19.2 3.70005 18.9 3.55005 18.6 3.55005H1.14998C0.549976 3.55005 0.0999756 4.05005 0.0999756 4.60005V15.2C0.0999756 15.8 0.599976 16.25 1.14998 16.25L12.3 16.3C12.6 16.3 12.8 16.1 12.8 15.8C12.8 15.5 12.6 15.3 12.3 15.3L1.79998 15.25L7.64998 10.9L8.49998 11.65C8.84998 11.9 9.19998 12.05 9.59998 12.05C9.99998 12.05 10.35 11.95 10.65 11.7L11.75 10.8L13.3 11.95C13.4 12 13.5 12.05 13.6 12.05C13.75 12.05 13.9 12 14 11.85C14.05 11.75 14.1 11.6 14.1 11.5C14.1 11.35 14 11.25 13.9 11.15L12.55 10.15L18.6 5.25005V8.90005C18.6 9.20005 18.8 9.40005 19.1 9.40005C19.4 9.40005 19.6 9.20005 19.6 8.90005L19.65 4.65005ZM6.89998 10.25L1.09998 14.6V5.20005L6.89998 10.25ZM17.95 4.55005L10.1 11C9.84998 11.2 9.44998 11.2 9.19998 10.95L1.84998 4.55005H17.95Z" fill="#4195B9"/>
<path d="M18.8454 10.7351C16.1695 10.7351 14.0004 12.9043 14.0004 15.5801C14.0004 18.2559 16.1695 20.4251 18.8454 20.4251C21.5212 20.4251 23.6904 18.2559 23.6904 15.5801C23.6904 12.9043 21.5212 10.7351 18.8454 10.7351ZM18.8454 11.7351C20.9689 11.7351 22.6904 13.4566 22.6904 15.5801C22.6904 17.7036 20.9689 19.4251 18.8454 19.4251C16.7218 19.4251 15.0004 17.7036 15.0004 15.5801C15.0004 13.4566 16.7218 11.7351 18.8454 11.7351Z" fill="#699C69"/>
<path d="M20.0179 13.7651C20.192 13.5507 20.5069 13.5181 20.7213 13.6923C20.9191 13.853 20.9621 14.1337 20.8306 14.3445L20.7941 14.3956L18.3691 17.3806C18.1933 17.5969 17.8786 17.6252 17.6678 17.4552L17.6211 17.4124L16.4061 16.1524C16.2144 15.9536 16.2201 15.6371 16.4189 15.4454C16.6024 15.2685 16.8862 15.2598 17.0796 15.4158L17.1259 15.4583L17.9485 16.3113L20.0179 13.7651Z" fill="#699C69"/>
</svg>
