<svg width="24" height="24" viewBox="0 0 24 24" fill="none" xmlns="http://www.w3.org/2000/svg">
<path fill-rule="evenodd" clip-rule="evenodd" d="M6 2C6.27614 2 6.5 2.22386 6.5 2.5C6.5 2.74546 6.32312 2.94961 6.08988 2.99194L6 3H2.5V6.5C2.5 6.74546 2.32312 6.94961 2.08988 6.99194L2 7C1.75454 7 1.55039 6.82312 1.50806 6.58988L1.5 6.5V2.5C1.5 2.25454 1.67688 2.05039 1.91012 2.00806L2 2H6ZM6 22C6.27614 22 6.5 21.7761 6.5 21.5C6.5 21.2545 6.32312 21.0504 6.08988 21.0081L6 21H2.5V17.5C2.5 17.2545 2.32312 17.0504 2.08988 17.0081L2 17C1.75454 17 1.55039 17.1769 1.50806 17.4101L1.5 17.5V21.5C1.5 21.7455 1.67688 21.9496 1.91012 21.9919L2 22H6ZM18 2C17.7239 2 17.5 2.22386 17.5 2.5C17.5 2.74546 17.6769 2.94961 17.9101 2.99194L18 3H21.5V6.5C21.5 6.74546 21.6769 6.94961 21.9101 6.99194L22 7C22.2455 7 22.4496 6.82312 22.4919 6.58988L22.5 6.5V2.5C22.5 2.25454 22.3231 2.05039 22.0899 2.00806L22 2H18ZM18 22C17.7239 22 17.5 21.7761 17.5 21.5C17.5 21.2545 17.6769 21.0504 17.9101 21.0081L18 21H21.5V17.5C21.5 17.2545 21.6769 17.0504 21.9101 17.0081L22 17C22.2455 17 22.4496 17.1769 22.4919 17.4101L22.5 17.5V21.5C22.5 21.7455 22.3231 21.9496 22.0899 21.9919L22 22H18Z" fill="#4195B9"/>
<path fill-rule="evenodd" clip-rule="evenodd" d="M6 7.5C6.27614 7.5 6.5 7.72386 6.5 8V16C6.5 16.2761 6.27614 16.5 6 16.5C5.72386 16.5 5.5 16.2761 5.5 16V8C5.5 7.72386 5.72386 7.5 6 7.5ZM10 7.5C10.2761 7.5 10.5 7.72386 10.5 8V16C10.5 16.2761 10.2761 16.5 10 16.5C9.72386 16.5 9.5 16.2761 9.5 16V8C9.5 7.72386 9.72386 7.5 10 7.5ZM14 7.5C14.2761 7.5 14.5 7.72386 14.5 8V16C14.5 16.2761 14.2761 16.5 14 16.5C13.7239 16.5 13.5 16.2761 13.5 16V8C13.5 7.72386 13.7239 7.5 14 7.5ZM18 7.5C18.2761 7.5 18.5 7.72386 18.5 8V16C18.5 16.2761 18.2761 16.5 18 16.5C17.7239 16.5 17.5 16.2761 17.5 16V8C17.5 7.72386 17.7239 7.5 18 7.5Z" fill="#699C69"/>
</svg>
