<svg width="24" height="24" viewBox="0 0 24 24" fill="none" xmlns="http://www.w3.org/2000/svg">
<path fill-rule="evenodd" clip-rule="evenodd" d="M6.5 2C6.77614 2 7 2.22386 7 2.5C7 2.74546 6.82312 2.94961 6.58988 2.99194L6.5 3H3V6.5C3 6.74546 2.82312 6.94961 2.58988 6.99194L2.5 7C2.25454 7 2.05039 6.82312 2.00806 6.58988L2 6.5V2.5C2 2.25454 2.17688 2.05039 2.41012 2.00806L2.5 2H6.5ZM6.5 22C6.77614 22 7 21.7761 7 21.5C7 21.2545 6.82312 21.0504 6.58988 21.0081L6.5 21H3V17.5C3 17.2545 2.82312 17.0504 2.58988 17.0081L2.5 17C2.25454 17 2.05039 17.1769 2.00806 17.4101L2 17.5V21.5C2 21.7455 2.17688 21.9496 2.41012 21.9919L2.5 22H6.5ZM17.5 2C17.2239 2 17 2.22386 17 2.5C17 2.74546 17.1769 2.94961 17.4101 2.99194L17.5 3H21V6.5C21 6.74546 21.1769 6.94961 21.4101 6.99194L21.5 7C21.7455 7 21.9496 6.82312 21.9919 6.58988L22 6.5V2.5C22 2.25454 21.8231 2.05039 21.5899 2.00806L21.5 2H17.5ZM17.5 22C17.2239 22 17 21.7761 17 21.5C17 21.2545 17.1769 21.0504 17.4101 21.0081L17.5 21H21V17.5C21 17.2545 21.1769 17.0504 21.4101 17.0081L21.5 17C21.7455 17 21.9496 17.1769 21.9919 17.4101L22 17.5V21.5C22 21.7455 21.8231 21.9496 21.5899 21.9919L21.5 22H17.5Z" fill="#4195B9"/>
<path fill-rule="evenodd" clip-rule="evenodd" d="M5.09929 8.84928C5.51272 8.0566 5.82188 7.80335 6.47566 8.06797C7.15184 8.34166 7.20114 8.79101 6.91311 10.6161L6.71586 11.8315C6.54336 12.9759 6.52921 13.5807 6.54529 13.5859C6.5535 13.5885 6.62669 13.5419 6.77515 13.3502L6.84342 13.2589C6.92333 13.1485 7.0083 13.0167 7.10936 12.8477L7.57526 12.0364C8.24849 10.8708 8.74982 10.2757 9.48729 10.0569C10.0514 9.88956 10.3844 10.282 10.3894 10.7989C10.3906 10.9222 10.3833 11.0255 10.3582 11.1865L10.2317 11.8652C10.1889 12.0908 10.1628 12.2606 10.1525 12.3919L10.148 12.4589L10.1749 12.4364C10.2612 12.3501 10.3757 12.1936 10.536 11.9364L10.6465 11.7554C11.228 10.7913 11.5548 10.4451 12.2464 10.5058C12.899 10.5631 13.0619 10.9095 13.1151 11.7798L13.1407 12.3998C13.1474 12.5393 13.1555 12.6354 13.1674 12.7111L13.178 12.7669L13.2092 12.7532C13.3603 12.6728 13.54 12.458 13.8134 12.0324L13.9792 11.7686C14.6166 10.7484 15.0271 10.3599 15.7954 10.5321C16.5419 10.6993 16.6586 11.1148 16.5473 12.1567L16.4857 12.6564C16.4378 13.0365 16.4304 13.2884 16.4562 13.4431L16.466 13.4909L16.5946 13.3607L16.7503 13.1931C17.2173 12.6869 17.4913 12.4787 17.938 12.4861C18.8128 12.5006 19.5 13.4373 19.5 14.4999C19.5 14.7761 19.2762 14.9999 19 14.9999C18.7239 14.9999 18.5 14.7761 18.5 14.4999C18.5 13.9307 18.1768 13.4902 17.9214 13.4859C17.8874 13.4854 17.7775 13.5656 17.5769 13.7739L17.1733 14.2011C17.0806 14.2924 17.0178 14.3414 16.9224 14.4055C16.5828 14.6337 16.1957 14.6542 15.8725 14.371C15.452 14.0025 15.3838 13.5412 15.4708 12.7259L15.5611 11.9724C15.5974 11.6082 15.5845 11.5096 15.5768 11.5079C15.4327 11.4756 15.2598 11.6262 14.9167 12.1576L14.7568 12.4116C14.1312 13.4154 13.7693 13.7949 13.0606 13.7916C12.3645 13.7884 12.2003 13.4483 12.1469 12.5336L12.1204 11.897C12.1124 11.747 12.102 11.6465 12.0858 11.5659L12.075 11.5209L12.064 11.5277C11.9714 11.5817 11.8497 11.7252 11.6658 12.0097L11.4762 12.3159C10.8913 13.2853 10.5444 13.6377 9.82897 13.5076C9.14205 13.3828 9.04601 12.934 9.18935 12.0204L9.27786 11.5311L9.32201 11.2979L9.25212 11.3676C9.04193 11.5864 8.81644 11.9057 8.55534 12.3422L8.05258 13.2168C7.90007 13.4788 7.77653 13.6753 7.65341 13.8453C7.23136 14.4282 6.79071 14.7152 6.23923 14.5379C5.41771 14.2738 5.40514 13.6287 5.76093 11.4594L5.93232 10.415C5.994 10.0176 6.02423 9.76874 6.03927 9.53304L6.04734 9.36542L6.04901 9.19295L5.9477 9.38488L5.70405 9.88131C5.58371 10.1183 5.50092 10.2512 5.38347 10.3916C5.20626 10.6034 4.89091 10.6314 4.67914 10.4542C4.46736 10.277 4.43934 9.96162 4.61655 9.74985C4.66776 9.68866 4.71652 9.61157 4.78602 9.47899L5.09929 8.84928Z" fill="#699C69"/>
</svg>
