<svg width="24" height="24" viewBox="0 0 24 24" fill="none" xmlns="http://www.w3.org/2000/svg">
<path fill-rule="evenodd" clip-rule="evenodd" d="M16.0833 10.25V12.5834H14.9167V11.4167H13.75V13.75H11.4167V14.9165H13.75V19H12.5833V16.0834H10.25V12.5834H12.5833V10.25H16.0833ZM11.4167 17.25V19H10.25V17.25H11.4167ZM9.08327 14.9165V19H5V14.9165H9.08327ZM19 16.0834V19H17.8333V17.25H16.0833V19H14.9167V16.0834H19ZM7.91672 16.0834H6.16672V17.8334H7.91672V16.0834ZM19 10.25V14.9165H14.9167V13.75H17.8333V10.25H19ZM11.4167 7.33327V11.4167H6.16672V13.75H5V10.25H10.25V7.33327H11.4167ZM9.08327 12.5834V13.75H7.33327V12.5834H9.08327ZM9.08327 5V9.08327H5V5H9.08327ZM13.75 5V9.08327H12.5833V6.16672H10.25V5H13.75ZM19 5V9.08327H14.9167V5H19ZM7.91672 6.16672H6.16672V7.91672H7.91672V6.16672ZM17.8333 6.16672H16.0833V7.91672H17.8333V6.16672Z" fill="#699C69"/>
<path fill-rule="evenodd" clip-rule="evenodd" d="M6 2C6.27614 2 6.5 2.22386 6.5 2.5C6.5 2.74546 6.32312 2.94961 6.08988 2.99194L6 3H2.5V6.5C2.5 6.74546 2.32312 6.94961 2.08988 6.99194L2 7C1.75454 7 1.55039 6.82312 1.50806 6.58988L1.5 6.5V2.5C1.5 2.25454 1.67688 2.05039 1.91012 2.00806L2 2H6ZM6 22C6.27614 22 6.5 21.7761 6.5 21.5C6.5 21.2545 6.32312 21.0504 6.08988 21.0081L6 21H2.5V17.5C2.5 17.2545 2.32312 17.0504 2.08988 17.0081L2 17C1.75454 17 1.55039 17.1769 1.50806 17.4101L1.5 17.5V21.5C1.5 21.7455 1.67688 21.9496 1.91012 21.9919L2 22H6ZM18 2C17.7239 2 17.5 2.22386 17.5 2.5C17.5 2.74546 17.6769 2.94961 17.9101 2.99194L18 3H21.5V6.5C21.5 6.74546 21.6769 6.94961 21.9101 6.99194L22 7C22.2455 7 22.4496 6.82312 22.4919 6.58988L22.5 6.5V2.5C22.5 2.25454 22.3231 2.05039 22.0899 2.00806L22 2H18ZM18 22C17.7239 22 17.5 21.7761 17.5 21.5C17.5 21.2545 17.6769 21.0504 17.9101 21.0081L18 21H21.5V17.5C21.5 17.2545 21.6769 17.0504 21.9101 17.0081L22 17C22.2455 17 22.4496 17.1769 22.4919 17.4101L22.5 17.5V21.5C22.5 21.7455 22.3231 21.9496 22.0899 21.9919L22 22H18Z" fill="#4195B9"/>
</svg>
