<svg width="24" height="24" viewBox="0 0 24 24" fill="none" xmlns="http://www.w3.org/2000/svg">
<g clip-path="url(#clip0_114_1452)">
<path d="M4.33996 8.42004C4.55422 8.42274 4.72726 8.59578 4.72996 8.81004V11.86C4.7246 12.0724 4.55232 12.2424 4.33996 12.245C4.12845 12.2423 3.95765 12.0715 3.95496 11.86V8.81004C3.95758 8.59768 4.12765 8.4254 4.33996 8.42004Z" fill="#699C69"/>
<path d="M5.86498 8.42004C6.07924 8.42274 6.25228 8.59578 6.25498 8.81004V10.335C6.24962 10.5474 6.07734 10.7174 5.86498 10.72C5.65261 10.7174 5.48034 10.5474 5.47498 10.335V8.81004C5.47767 8.59578 5.65071 8.42274 5.86498 8.42004Z" fill="#699C69"/>
<path d="M7.395 8.42004C7.60927 8.42274 7.78231 8.59578 7.785 8.81004V11.86C7.77964 12.0724 7.60737 12.2424 7.395 12.245C7.18264 12.2424 7.01037 12.0724 7.005 11.86V8.81004C7.0077 8.59578 7.18074 8.42274 7.395 8.42004Z" fill="#699C69"/>
<path d="M10.395 11.47C10.6093 11.4727 10.7823 11.6457 10.785 11.86C10.7796 12.0723 10.6074 12.2423 10.395 12.245C10.1846 12.2397 10.0153 12.0704 10.01 11.86C10.0126 11.6476 10.1827 11.4753 10.395 11.47Z" fill="#699C69"/>
<path d="M8.895 8.42004C9.10731 8.4254 9.27738 8.59768 9.28 8.81004V10.335C9.27731 10.5465 9.10651 10.7173 8.895 10.72C8.68264 10.7174 8.51037 10.5474 8.505 10.335V8.81004C8.51948 8.60094 8.6859 8.43452 8.895 8.42004Z" fill="#699C69"/>
<path d="M10.395 10.93C10.6074 10.9274 10.7796 10.7573 10.785 10.545V9.61497C10.7789 9.42514 10.6417 9.26505 10.455 9.22997C10.3433 9.21406 10.2302 9.24731 10.1448 9.32114C10.0595 9.39497 10.0103 9.50214 10.01 9.61497V10.545C10.0265 10.7504 10.1896 10.9135 10.395 10.93Z" fill="#699C69"/>
<path d="M12.32 12.065V9.97501C12.3206 9.77081 12.1636 9.60071 11.96 9.58501C11.8515 9.57492 11.7439 9.61187 11.6646 9.68646C11.5852 9.76106 11.5416 9.86613 11.545 9.97501V12.065C11.5476 12.2774 11.7177 12.4496 11.93 12.455C12.1442 12.4523 12.3173 12.2793 12.32 12.065Z" fill="#699C69"/>
<path d="M13.065 10.02V12.8C13.0623 13.0115 12.8915 13.1823 12.68 13.185H3.59496C3.3826 13.1824 3.21032 13.0123 3.20496 12.8V8.26998C3.21032 8.05767 3.3826 7.8876 3.59496 7.88498H8.59496C8.80923 7.88229 8.98227 7.70924 8.98496 7.49498C8.98227 7.28072 8.80923 7.10768 8.59496 7.10498H2.84996C2.6357 7.10768 2.46266 7.28072 2.45996 7.49498V13.56C2.46266 13.7742 2.6357 13.9473 2.84996 13.95H13.455C13.6692 13.9473 13.8423 13.7742 13.845 13.56V10.02C13.8423 9.80572 13.6692 9.63268 13.455 9.62998C13.2459 9.64445 13.0794 9.81088 13.065 10.02Z" fill="#699C69"/>
<path d="M12.8478 0.214694L21.7474 1.48626C22.8886 1.64688 23.7461 2.59835 23.7976 3.73907L23.8 3.85004L23.8 6.5682C23.8103 7.26758 23.5066 7.93239 22.9763 8.38254L22.8804 8.45971C22.5411 8.7165 22.3253 9.10195 22.2819 9.51842L22.275 9.61504L22.2748 10.4023C22.2715 10.4586 22.2755 10.5151 22.2878 10.5756L22.303 10.6376L23.7668 18.6621C23.7874 18.7514 23.7987 18.8425 23.8009 18.9305L23.8 19.0172C23.813 19.5884 23.5643 20.132 23.1287 20.4955L23.1075 20.5115L23.81 23.09V23.965H21.4432L20.3045 20.9055L20.2866 20.9035C19.4164 20.7826 18.7451 20.081 18.6553 19.215L18.6477 19.1181L18.645 19.02V17.7755C18.6391 16.0196 18.2129 14.2919 17.4037 12.7363L17.3195 12.5795L16.8604 12.58C16.6438 12.5719 16.4305 12.5304 16.228 12.4575L16.1078 12.41L16.0265 12.3715L15.9882 12.5316C15.0126 16.3979 11.3505 18.9767 7.38219 18.5931L7.21194 18.5748L7.04828 18.5539C2.84395 17.9726 -0.193983 14.2375 0.0933888 10.0029C0.380761 5.76837 3.89547 2.47795 8.14297 2.47007C8.48428 2.47817 8.82477 2.50582 9.16277 2.55286L9.30501 2.57454L9.30959 2.55871C9.71172 1.24376 10.88 0.314056 12.2425 0.209803L12.3707 0.202461L12.4957 0.20011C12.6138 0.19604 12.732 0.200998 12.8478 0.214694ZM22.136 20.903L22.0733 20.9118C22.0431 20.9146 22.0131 20.9162 21.9833 20.9168L21.895 20.915H21.3775L22.165 22.9345H22.728L22.136 20.903ZM22.7075 19.4395H19.719L19.7436 19.4856C19.8927 19.7398 20.1589 19.9094 20.4593 19.9324L20.535 19.935L21.32 19.9345L21.2651 19.9111L21.8968 19.92C22.2243 19.9247 22.5221 19.7529 22.6853 19.4815L22.7075 19.4395ZM21.877 13.7955L21.8316 13.8964C21.6728 14.2678 21.5817 14.6656 21.5634 15.0713L21.56 15.2456C21.5546 16.4232 21.0751 17.5419 20.2415 18.3558L20.1575 18.4345H22.7345L21.877 13.7955ZM8.13542 3.465C4.39417 3.4774 1.30638 6.39463 1.08166 10.1291C0.856944 13.8636 3.57264 17.1301 7.28472 17.5909C11.0626 18.0385 14.5082 15.4222 15.1079 11.6843L15.1245 11.5705L15.0855 11.5038C14.9443 11.2476 14.8593 10.9641 14.8361 10.6711L14.83 10.545L14.8295 9.52954L12.3059 9.52857L11.5399 9.40843C11.3214 9.33439 11.1107 9.23942 10.9087 9.12359L10.7589 9.03281L10.3569 8.7534C10.169 8.58615 9.99899 8.40018 9.85262 8.20298L9.74737 8.05309C9.71834 8.01676 9.69264 7.97796 9.67111 7.93835L9.36269 7.28909L9.27618 7.08383C9.19928 6.84827 9.15567 6.60337 9.14643 6.35756L9.14501 6.21004L9.14451 3.53804L9.02838 3.52105C8.80639 3.49234 8.5831 3.47463 8.35932 3.46797L8.13542 3.465ZM13.19 3.20004V8.53504H16.875C17.1758 8.53504 17.4654 8.64256 17.6926 8.83633L17.766 8.90408C17.9786 9.11675 18.1074 9.39761 18.1311 9.69527L18.135 9.79504L18.1345 11.9425L18.2415 12.1394C19.0798 13.7236 19.5521 15.4746 19.6251 17.2633L19.6315 17.4765C20.1664 16.8926 20.4793 16.1426 20.5163 15.3537L20.52 15.2054C20.5169 14.1847 20.8704 13.1969 21.5162 12.411L21.586 12.329L21.3021 10.8026C21.282 10.6932 21.271 10.5825 21.269 10.4734L21.27 10.365L21.27 9.58703C21.2581 8.83664 21.6161 8.12842 22.2271 7.69351C22.5627 7.45249 22.7707 7.07451 22.7972 6.66504L22.8 6.57004V5.29754L22.7106 5.27957C22.2638 5.17949 21.8359 5.00893 21.4445 4.77523L21.2791 4.67123C20.8144 4.38269 20.2906 4.20259 19.737 4.14289C19.2529 4.05212 18.7555 4.06851 18.2792 4.19021L18.1212 4.23467C17.524 4.41554 16.8958 4.46694 16.2829 4.387L16.0996 4.35908C15.4736 4.2813 14.8721 4.0705 14.3342 3.7408L14.189 3.64794C13.9303 3.46949 13.6458 3.3329 13.346 3.24257L13.19 3.20004ZM16.8784 9.53003H15.8695L15.87 10.545C15.87 11.0775 16.282 11.5137 16.8046 11.5523L16.88 11.555H17.1445L17.145 9.79661C17.1434 9.66642 17.0497 9.5585 16.9261 9.53483L16.8784 9.53003ZM12.195 1.21004L12.1128 1.22243C11.0426 1.41013 10.2341 2.31603 10.1781 3.41003L10.175 3.52004V6.18037C10.1719 7.32663 11.0017 8.29193 12.1111 8.47904L12.195 8.49104V1.21004ZM13.1795 1.27254V2.16254L13.2698 2.18054C13.7179 2.28071 14.1471 2.45126 14.5404 2.68523L14.7068 2.78937C15.1195 3.05022 15.5792 3.22671 16.0634 3.30999L16.2461 3.33683C16.7844 3.42911 17.337 3.38941 17.8591 3.22029C18.4655 3.03873 19.1025 2.9873 19.725 3.06795L19.9113 3.0961C20.5887 3.18515 21.2358 3.43199 21.7972 3.81463C22.1012 4.00847 22.4319 4.15633 22.7784 4.25372L22.8 4.25904V3.8566C22.7917 3.19154 22.3208 2.62706 21.6772 2.49369L21.5923 2.47877L13.1795 1.27254Z" fill="#4195B9"/>
</g>
<defs>
<clipPath id="clip0_114_1452">
<rect width="24" height="24" fill="white"/>
</clipPath>
</defs>
</svg>
