<svg width="24" height="24" viewBox="0 0 24 24" fill="none" xmlns="http://www.w3.org/2000/svg">
<path d="M5.44289 18.7131C5.28782 18.7131 5.16211 18.5752 5.16211 18.4051V4.41887C5.16319 3.23575 6.03724 2.27695 7.11576 2.27576H19.8813C20.0364 2.27576 20.1621 2.41366 20.1621 2.58376C20.1621 2.75387 20.0364 2.89177 19.8813 2.89177H7.11576C6.34731 2.89279 5.72459 3.5759 5.72367 4.41887V18.4051C5.72367 18.5752 5.59796 18.7131 5.44289 18.7131Z" fill="#4195B9" stroke="#4195B9" stroke-width="0.4"/>
<path d="M20.8915 6.65906H17.4327C17.2833 6.65906 17.1622 6.51729 17.1622 6.34242V4.64425C17.1539 3.80137 17.5332 3.01828 18.1554 2.59398C18.7776 2.16968 19.5466 2.16968 20.1688 2.59398C20.791 3.01828 21.1703 3.80137 21.162 4.64425V6.34242C21.162 6.51729 21.0409 6.65906 20.8915 6.65906ZM17.7032 6.02577H20.621V4.64425C20.6282 4.02856 20.3517 3.45602 19.8973 3.14573C19.443 2.83545 18.8812 2.83545 18.4269 3.14573C17.9725 3.45602 17.6961 4.02856 17.7032 4.64425V6.02577Z" fill="#4195B9" stroke="#4195B9" stroke-width="0.4"/>
<path d="M15.5098 22.0006H4.86835C3.37444 21.9988 2.1638 20.7088 2.16211 19.1169V18.7594C2.16211 18.5948 2.28732 18.4614 2.44177 18.4614H13.137C13.2914 18.4614 13.4166 18.5948 13.4166 18.7594V19.1748C13.4166 20.4065 14.3537 21.4051 15.5097 21.4051C16.6657 21.4051 17.6028 20.4065 17.6028 19.1748V6.95705C17.6028 6.79247 17.728 6.65906 17.8825 6.65906C18.0369 6.65906 18.1621 6.79247 18.1621 6.95705V19.1748C18.1595 20.7344 16.9735 21.998 15.5098 22.0006ZM2.72142 19.057V19.1166C2.72266 20.3796 3.68314 21.403 4.86835 21.4043H13.8822C13.2357 20.8695 12.8574 20.0463 12.8573 19.1742V19.0567L2.72142 19.057Z" fill="#4195B9" stroke="#4195B9" stroke-width="0.4"/>
<path d="M15.8809 8.85087H7.44336C7.28803 8.85087 7.16211 8.60553 7.16211 8.30288C7.16211 8.00023 7.28803 7.75488 7.44336 7.75488H15.8809C16.0362 7.75488 16.1621 8.00023 16.1621 8.30288C16.1621 8.60553 16.0362 8.85087 15.8809 8.85087Z" fill="#699C69"/>
<path d="M15.8809 12.1383H7.44336C7.28803 12.1383 7.16211 11.893 7.16211 11.5904C7.16211 11.2877 7.28803 11.0424 7.44336 11.0424H15.8809C16.0362 11.0424 16.1621 11.2877 16.1621 11.5904C16.1621 11.893 16.0362 12.1383 15.8809 12.1383Z" fill="#699C69"/>
<path d="M15.8809 15.4258H7.44336C7.28803 15.4258 7.16211 15.1805 7.16211 14.8778C7.16211 14.5752 7.28803 14.3298 7.44336 14.3298H15.8809C16.0362 14.3298 16.1621 14.5752 16.1621 14.8778C16.1621 15.1805 16.0362 15.4258 15.8809 15.4258Z" fill="#699C69"/>
</svg>
