<svg width="24" height="24" viewBox="0 0 24 24" fill="none" xmlns="http://www.w3.org/2000/svg">
<path d="M18.1716 3.03906H5.02478C4.74864 3.03906 4.52478 3.26292 4.52478 3.53906V23.4425C4.52478 23.7187 4.74864 23.9425 5.02478 23.9425H18.1716C19.0022 23.9425 19.6756 23.2692 19.6756 22.4386V4.54302C19.6756 3.71241 19.0022 3.03906 18.1716 3.03906ZM5.52447 22.9421V4.03861L18.1716 4.03906C18.4499 4.03906 18.6756 4.26469 18.6756 4.54302V22.4386C18.6756 22.7169 18.4499 22.9425 18.1716 22.9425L5.52447 22.9421Z" fill="#4195B9"/>
<path d="M14.9909 0.411794C15.4643 0.280384 15.9719 0.37533 16.3658 0.668979C16.7335 0.943052 16.9635 1.36145 17.0002 1.82309L17.005 1.92264V3.56411C17.005 3.84025 16.7812 4.06411 16.505 4.06411C16.2486 4.06411 16.0373 3.87109 16.0084 3.62242L16.005 3.56411L16.0051 1.93207C16.0017 1.74992 15.9142 1.57961 15.7681 1.47072C15.6403 1.37545 15.4803 1.33659 15.3207 1.36208L15.2524 1.37697L5.1526 4.0475C4.88563 4.11809 4.61198 3.95889 4.54139 3.69192C4.47585 3.44402 4.60843 3.19037 4.84145 3.09888L4.89697 3.08072L14.9909 0.411794Z" fill="#4195B9"/>
<path d="M14.4097 10.4041L12.4704 11.7716L10.0954 11.6735L10.0354 11.6745C9.72144 11.6982 9.50093 12.0102 9.59699 12.3208L10.2994 14.5926L9.4753 16.8183L9.45779 16.8756C9.38359 17.1812 9.61166 17.4869 9.93626 17.492L12.3119 17.5296L14.1719 19.0006L14.2209 19.0349C14.4887 19.2001 14.8502 19.0774 14.9552 18.7701L15.7229 16.5211L17.7008 15.2045L17.7515 15.1661C17.9887 14.9615 17.9823 14.5814 17.7227 14.3876L15.8209 12.9686L15.1794 10.6778C15.0862 10.3452 14.6919 10.205 14.4097 10.4041ZM14.4069 11.6296L14.9041 13.4022L14.9261 13.4644C14.9606 13.5449 15.0158 13.6152 15.0866 13.6681L16.5564 14.7651L15.0282 15.7827L14.976 15.8226C14.9104 15.8801 14.8606 15.954 14.8321 16.0373L14.2374 17.7771L12.7994 16.64L12.7454 16.6028C12.6705 16.5582 12.585 16.5337 12.4971 16.5323L10.6584 16.5031L11.2965 14.7814L11.3152 14.7184C11.3346 14.6332 11.3313 14.5441 11.3053 14.4599L10.7614 12.7016L12.599 12.778C12.7092 12.7826 12.8178 12.7506 12.9079 12.6871L14.4069 11.6296Z" fill="#699C69"/>
<path d="M8.16325 8.49458C8.20497 8.17241 8.53482 7.98027 8.83019 8.08884L8.88508 8.11276L11.002 9.18504L13.3352 8.74513C13.6557 8.68463 13.9416 8.9409 13.9276 9.25702L13.922 9.31337L13.5304 11.8283C13.4879 12.1011 13.2323 12.2879 12.9595 12.2454C12.7061 12.206 12.527 11.9827 12.5367 11.7326L12.5423 11.6745L12.8245 9.85904L11.0208 10.1996C10.9341 10.216 10.8451 10.2091 10.7626 10.1801L10.7021 10.1543L9.06397 9.32404L8.82869 11.1429C8.81737 11.2303 8.7832 11.3128 8.73014 11.3823L8.68687 11.4318L7.38897 12.733L9.0497 13.5237C9.12904 13.5614 9.19667 13.6193 9.24619 13.6909L9.27983 13.7472L10.4394 16.0111C10.5653 16.2569 10.4681 16.5582 10.2223 16.6841C9.99409 16.801 9.718 16.7255 9.57893 16.5174L9.54936 16.467L8.46647 14.354L6.32085 13.3323C6.0276 13.1927 5.94724 12.8197 6.14195 12.5725L6.18169 12.5278L7.85847 10.846L8.16325 8.49458Z" fill="#699C69"/>
</svg>
