<svg width="24" height="24" viewBox="0 0 24 24" fill="none" xmlns="http://www.w3.org/2000/svg">
<path fill-rule="evenodd" clip-rule="evenodd" d="M7.33496 0.5C7.6111 0.5 7.83496 0.723858 7.83496 1V2.64648H16.4395V1C16.4395 0.723858 16.6633 0.5 16.9395 0.5C17.2156 0.5 17.4395 0.723858 17.4395 1V2.64648H20.2318C21.4441 2.64648 22.4269 3.62927 22.4269 4.84161V21.305C22.4269 22.5174 21.4441 23.5001 20.2318 23.5001H3.76837C2.55603 23.5001 1.57324 22.5174 1.57324 21.305V4.84161C1.57324 3.62928 2.55603 2.64648 3.76836 2.64648H6.83496V1C6.83496 0.723858 7.05882 0.5 7.33496 0.5ZM16.4395 3.64648V4.56707C16.4395 4.84322 16.6633 5.06707 16.9395 5.06707C17.2156 5.06707 17.4395 4.84322 17.4395 4.56707V3.64648H20.2318C20.8918 3.64648 21.4269 4.18156 21.4269 4.84161V6.53613L2.57324 6.53613V4.84161C2.57324 4.18156 3.10832 3.64648 3.76836 3.64648H6.83496V4.56707C6.83496 4.84322 7.05882 5.06707 7.33496 5.06707C7.6111 5.06707 7.83496 4.84322 7.83496 4.56707V3.64648H16.4395ZM2.57324 7.53613V21.305C2.57324 21.9651 3.10832 22.5001 3.76837 22.5001H20.2318C20.8918 22.5001 21.4269 21.9651 21.4269 21.305V7.53613L2.57324 7.53613Z" fill="#4195B9"/>
<path fill-rule="evenodd" clip-rule="evenodd" d="M17.2693 10.5027C17.4766 10.6851 17.4968 11.0011 17.3144 11.2084L11.2778 18.0681C11.18 18.1792 11.038 18.2413 10.8901 18.2377C10.7421 18.234 10.6034 18.165 10.5112 18.0492L7.7673 14.6014C7.59534 14.3853 7.6311 14.0708 7.84717 13.8988C8.06324 13.7268 8.3778 13.7626 8.54975 13.9787L10.9217 16.9591L16.5637 10.5477C16.7461 10.3404 17.062 10.3203 17.2693 10.5027Z" fill="#699C69"/>
</svg>
