<svg width="24" height="24" viewBox="0 0 24 24" fill="none" xmlns="http://www.w3.org/2000/svg">
<path d="M22.7 4.55H1.4C0.749997 4.55 0.199997 5.1 0.199997 5.75V18.7C0.199997 19.35 0.749997 19.9 1.4 19.9H22.7C23.35 19.9 23.9 19.35 23.9 18.7V5.75C23.9 5.1 23.35 4.55 22.7 4.55ZM15.2 12.55L22.9 6.3V18.3L15.2 12.55ZM12.35 13.6L12.3 13.65C11.95 13.9 11.45 13.85 11.15 13.55L1.95 5.55H22.25L12.35 13.6ZM8.6 12.65L1.25 18.15V6.25L8.6 12.65ZM9.35 13.3L10.5 14.3L10.6 14.35C10.95 14.65 11.4 14.75 11.8 14.75C12.25 14.75 12.65 14.6 13 14.3L14.4 13.15L22.05 18.8H1.9L9.35 13.3Z" fill="#4195B9"/>
</svg>
