<svg width="24" height="24" viewBox="0 0 24 24" fill="none" xmlns="http://www.w3.org/2000/svg">
<path d="M4.05 0C3.8 0 3.55 0.3 3.55 0.5V5.05H0.5C0.25 5.05 0 5.35 0 5.55V21.75C0 23 1 24 2.25 24H21.7C22.95 24 23.95 23 23.95 21.75V0.5C23.95 0.25 23.7 0 23.45 0H4.05ZM4.55 1H23V21.7C23 22.4 22.45 22.95 21.75 22.95H4.1C4.35 22.6 4.55 22.15 4.55 21.7V1ZM16.9 3C16.6 3 16.4 3.25 16.4 3.5C16.4 3.75 16.65 4 16.9 4H21.3C21.6 4 21.8 3.75 21.8 3.5C21.8 3.25 21.55 3 21.3 3H16.9ZM16.9 5.55C16.6 5.55 16.4 5.8 16.4 6.05C16.4 6.35 16.65 6.55 16.9 6.55H21.3C21.6 6.55 21.8 6.3 21.8 6.05C21.8 5.75 21.55 5.55 21.3 5.55H16.9ZM16.9 8.05C16.6 8.05 16.4 8.3 16.4 8.55C16.4 8.85 16.65 9.05 16.9 9.05H21.3C21.6 9.05 21.8 8.8 21.8 8.55C21.8 8.25 21.55 8.05 21.3 8.05H16.9ZM1 6.05H3.5V21.75C3.5 22.45 2.95 23 2.25 23C1.55 23 1 22.45 1 21.75V6.05ZM6.7 11.35C6.4 11.35 6.2 11.6 6.2 11.85C6.2 12.15 6.45 12.35 6.7 12.35H21.25C21.55 12.35 21.75 12.1 21.75 11.85C21.75 11.55 21.5 11.35 21.25 11.35H6.7ZM6.7 14.1C6.4 14.1 6.2 14.35 6.2 14.6C6.2 14.9 6.45 15.1 6.7 15.1H21.25C21.55 15.1 21.75 14.85 21.75 14.6C21.75 14.3 21.5 14.1 21.25 14.1H6.7ZM6.7 16.9C6.4 16.9 6.2 17.15 6.2 17.4C6.2 17.7 6.45 17.9 6.7 17.9H21.25C21.55 17.9 21.75 17.65 21.75 17.4C21.75 17.1 21.5 16.9 21.25 16.9H6.7ZM6.7 19.65C6.4 19.65 6.2 19.9 6.2 20.15C6.2 20.45 6.45 20.65 6.7 20.65H21.25C21.55 20.65 21.75 20.4 21.75 20.15C21.75 19.85 21.5 19.65 21.25 19.65H6.7Z" fill="#4195B9"/>
<path d="M14.4502 9.55H7.1502C6.6502 9.55 6.2002 9.1 6.2002 8.6V3.95C6.2002 3.45 6.6502 3 7.1502 3H14.5002C15.0002 3 15.4502 3.45 15.4502 3.95V8.65C15.4002 9.15 15.0002 9.55 14.4502 9.55ZM7.2002 8.55H14.4002V4H7.2002V8.55Z" fill="#699C69"/>
</svg>
