<svg width="24" height="24" viewBox="0 0 24 24" fill="none" xmlns="http://www.w3.org/2000/svg">
<path fill-rule="evenodd" clip-rule="evenodd" d="M19.105 15.235C16.9815 15.235 15.26 16.9565 15.26 19.08C15.26 21.2035 16.9815 22.925 19.105 22.925C21.2285 22.925 22.95 21.2035 22.95 19.08C22.95 16.9565 21.2285 15.235 19.105 15.235ZM14.26 19.08C14.26 16.4042 16.4292 14.235 19.105 14.235C21.7808 14.235 23.95 16.4042 23.95 19.08C23.95 21.7558 21.7808 23.925 19.105 23.925C16.4292 23.925 14.26 21.7558 14.26 19.08Z" fill="#699C69"/>
<path fill-rule="evenodd" clip-rule="evenodd" d="M10.0616 3.11451C10.2458 2.9623 10.5121 2.96178 10.6969 3.11326L17.5369 8.71826C17.6528 8.81323 17.72 8.95517 17.72 9.105V13C17.72 13.2761 17.4962 13.5 17.22 13.5C16.9439 13.5 16.72 13.2761 16.72 13V9.34171L10.3813 4.14747L4.04001 9.38551V16.61H8.42001V12.46C8.42001 12.1839 8.64387 11.96 8.92001 11.96H12.21C12.4862 11.96 12.71 12.1839 12.71 12.46V16.61H13.35C13.6262 16.61 13.85 16.8339 13.85 17.11C13.85 17.3861 13.6262 17.61 13.35 17.61H12.21C11.9339 17.61 11.71 17.3861 11.71 17.11V12.96H9.42001V17.11C9.42001 17.3861 9.19615 17.61 8.92001 17.61H3.54001C3.26387 17.61 3.04001 17.3861 3.04001 17.11V9.15C3.04001 9.00085 3.10659 8.85949 3.22158 8.76451L10.0616 3.11451Z" fill="#4195B9"/>
<path fill-rule="evenodd" clip-rule="evenodd" d="M6.65143 2.35963C6.83572 2.20728 7.10208 2.20674 7.287 2.35833L9.257 3.97333C9.47055 4.1484 9.50175 4.46344 9.32668 4.67699C9.15161 4.89055 8.83657 4.92174 8.62301 4.74667L6.97133 3.39263L1.21001 8.15539V14.7H3.14501C3.42115 14.7 3.64501 14.9239 3.64501 15.2C3.64501 15.4761 3.42115 15.7 3.14501 15.7H0.710007C0.433864 15.7 0.210007 15.4761 0.210007 15.2V7.92C0.210007 7.77092 0.27653 7.62962 0.391431 7.53463L6.65143 2.35963Z" fill="#4195B9"/>
<path fill-rule="evenodd" clip-rule="evenodd" d="M16.425 19.085C16.425 18.8089 16.6489 18.585 16.925 18.585H20.62C20.8961 18.585 21.12 18.8089 21.12 19.085C21.12 19.3611 20.8961 19.585 20.62 19.585H16.925C16.6489 19.585 16.425 19.3611 16.425 19.085Z" fill="#699C69"/>
<path fill-rule="evenodd" clip-rule="evenodd" d="M19.2865 17.3314C19.4817 17.1362 19.7983 17.1362 19.9936 17.3314L21.4336 18.7714C21.6288 18.9667 21.6288 19.2833 21.4336 19.4786L19.9936 20.9186C19.7983 21.1138 19.4817 21.1138 19.2865 20.9186C19.0912 20.7233 19.0912 20.4067 19.2865 20.2114L20.3729 19.125L19.2865 18.0386C19.0912 17.8433 19.0912 17.5267 19.2865 17.3314Z" fill="#699C69"/>
</svg>
