<svg width="24" height="24" viewBox="0 0 24 24" fill="none" xmlns="http://www.w3.org/2000/svg">
<path d="M19.65 4.65C19.65 4.35 19.55 4.1 19.4 3.9C19.2 3.7 18.9 3.55 18.6 3.55H1.15001C0.550006 3.55 0.100006 4.05 0.100006 4.6V15.2C0.100006 15.8 0.600006 16.25 1.15001 16.25L12.3 16.3C12.6 16.3 12.8 16.1 12.8 15.8C12.8 15.5 12.6 15.3 12.3 15.3L1.80001 15.25L7.65001 10.9L8.50001 11.65C8.85001 11.9 9.20001 12.05 9.60001 12.05C10 12.05 10.35 11.95 10.65 11.7L11.75 10.8L13.3 11.95C13.4 12 13.5 12.05 13.6 12.05C13.75 12.05 13.9 12 14 11.85C14.05 11.75 14.1 11.6 14.1 11.5C14.1 11.35 14 11.25 13.9 11.15L12.55 10.15L18.6 5.25V8.9C18.6 9.2 18.8 9.4 19.1 9.4C19.4 9.4 19.6 9.2 19.6 8.9L19.65 4.65ZM6.90001 10.25L1.10001 14.6V5.2L6.90001 10.25ZM17.95 4.55L10.1 11C9.85001 11.2 9.45001 11.2 9.20001 10.95L1.85001 4.55H17.95Z" fill="#4195B9"/>
<path d="M18.75 10.1C15.9 10.1 13.6 12.4 13.6 15.25C13.6 18.1 15.9 20.4 18.75 20.4C21.6 20.4 23.9 18.1 23.9 15.25C23.9 12.4 21.6 10.1 18.75 10.1ZM22.95 15.25C22.95 17.55 21.1 19.45 18.75 19.45C16.4 19.45 14.55 17.6 14.55 15.25C14.55 12.9 16.4 11.05 18.75 11.05C21.1 11.05 22.95 12.95 22.95 15.25Z" fill="#699C69"/>
<path d="M20.55 14.35C20.55 13.5 19.95 12.95 19.05 12.9H17.6C17.35 12.9 17.15 13.05 17.1 13.3V17C17.1 17.3 17.3 17.5 17.6 17.5C17.85 17.5 18.05 17.35 18.1 17.1V15.8H18.85L19.6 17.2C19.75 17.4 19.85 17.55 20.05 17.55C20.3 17.55 20.55 17.35 20.55 17.1C20.55 17.05 20.55 16.95 20.5 16.85L19.8 15.65C20.25 15.4 20.55 14.9 20.55 14.35ZM19.55 14.35C19.55 14.75 19.3 15 18.9 15H18V13.65H18.8C19.3 13.65 19.55 13.95 19.55 14.35Z" fill="#699C69"/>
</svg>
