<svg width="24" height="24" viewBox="0 0 24 24" fill="none" xmlns="http://www.w3.org/2000/svg">
<path fill-rule="evenodd" clip-rule="evenodd" d="M11.885 7.38C10.4905 7.38 9.36 8.51048 9.36 9.905C9.36 11.2995 10.4905 12.43 11.885 12.43C13.2795 12.43 14.41 11.2995 14.41 9.905C14.41 8.51048 13.2795 7.38 11.885 7.38ZM8.36 9.905C8.36 7.9582 9.9382 6.38 11.885 6.38C13.8318 6.38 15.41 7.9582 15.41 9.905C15.41 11.8518 13.8318 13.43 11.885 13.43C9.9382 13.43 8.36 11.8518 8.36 9.905Z" fill="#699C69"/>
<path fill-rule="evenodd" clip-rule="evenodd" d="M4.35165 5.88712C6.45424 2.52474 10.5305 0.962844 14.3416 2.0593C18.1527 3.15575 20.7757 6.64506 20.77 10.6107L20.27 10.61L20.77 10.6099C20.77 10.6102 20.77 10.6105 20.77 10.6107C20.7702 12.8035 19.9562 14.9183 18.486 16.5452C18.4805 16.5513 18.4748 16.5573 18.469 16.5631L12.7247 22.3224C12.2524 22.7844 11.4976 22.7844 11.0253 22.3224L11.0203 22.3175L5.30037 16.5625C5.2946 16.5567 5.28898 16.5507 5.2835 16.5446C2.62929 13.5982 2.24906 9.24951 4.35165 5.88712ZM14.0651 3.02032C10.683 2.04727 7.06547 3.43337 5.19953 6.41732C3.33572 9.39785 3.67025 13.2517 6.01842 15.8664L11.7264 21.6093C11.8096 21.6888 11.9407 21.6888 12.0238 21.6091L17.7522 15.8658C19.0513 14.4237 19.7703 12.5513 19.77 10.6101V10.6093C19.7751 7.08995 17.4472 3.99337 14.0651 3.02032Z" fill="#4195B9"/>
</svg>
