<svg width="24" height="24" viewBox="0 0 24 24" fill="none" xmlns="http://www.w3.org/2000/svg">
<g clip-path="url(#clip0_2_230)">
<path fill-rule="evenodd" clip-rule="evenodd" d="M18.3504 9.12779C18.4589 8.94577 18.592 8.77283 18.7515 8.6132C19.8613 7.49237 21.7148 7.56813 22.7342 8.827C23.5199 9.79439 23.5172 11.1989 22.7484 12.1724C22.5395 12.4381 22.2934 12.6509 22.0249 12.8121L23.1496 13.9368C23.6483 14.4355 23.6483 15.2415 23.1496 15.7402L20.5069 18.3829C20.3628 18.527 20.1456 18.5693 19.958 18.4896C19.7703 18.41 19.6498 18.2244 19.6534 18.0206C19.6609 17.5964 19.497 17.16 19.1636 16.8266C18.4615 16.1245 17.3012 16.1693 16.6576 16.9719L16.6575 16.972C16.17 17.5795 16.1772 18.4807 16.6728 19.0815L16.6741 19.0831C17.0128 19.4971 17.5028 19.7023 17.9902 19.7023C18.1924 19.7023 18.3748 19.8241 18.4521 20.0109C18.5295 20.1978 18.4868 20.4128 18.3438 20.5558L15.7402 23.1594C15.2415 23.6581 14.4355 23.6581 13.9368 23.1594L12.8304 22.053C12.7602 22.1446 12.6829 22.233 12.5982 22.3177L12.5963 22.3196C11.4784 23.4254 9.62689 23.3532 8.60648 22.0927L8.6056 22.0916C7.8115 21.105 7.82055 19.6641 8.6419 18.696C8.77324 18.5387 8.9169 18.4013 9.0706 18.2834L7.41806 16.6309L8.12517 15.9238L10.2394 18.038C10.3585 18.1571 10.4096 18.3283 10.3753 18.4933C10.341 18.6583 10.2259 18.795 10.0691 18.8567C9.82322 18.9536 9.59894 19.1096 9.40858 19.338L9.40546 19.3418L9.40544 19.3418C8.89738 19.9395 8.88722 20.8461 9.38413 21.464C10.0275 22.2582 11.1896 22.3036 11.8922 21.6095C12.0574 21.444 12.1776 21.2566 12.2613 21.0512C12.3245 20.896 12.4611 20.7829 12.6253 20.7497C12.7895 20.7165 12.9594 20.7678 13.0779 20.8863L14.6439 22.4523C14.7521 22.5605 14.9249 22.5605 15.0331 22.4523L16.9778 20.5076C16.5743 20.3461 16.2008 20.0835 15.9007 19.717C15.105 18.7517 15.0929 17.324 15.8776 16.3461C16.898 15.0738 18.7523 15.0011 19.8707 16.1195C20.1334 16.3823 20.3315 16.6874 20.4627 17.0129L22.4425 15.0331C22.5507 14.9249 22.5507 14.7521 22.4425 14.6439L20.7884 12.9898C20.66 12.8614 20.6113 12.6736 20.6611 12.4991C20.7108 12.3246 20.8513 12.1907 21.028 12.1494C21.3835 12.0662 21.7134 11.871 21.9625 11.5541L21.9633 11.553C22.4469 10.941 22.444 10.0557 21.9578 9.45722L21.9572 9.45652C21.3129 8.66058 20.1527 8.6187 19.4615 9.31738L19.4596 9.3193C19.2271 9.55179 19.0843 9.82841 19.0157 10.1255C18.9749 10.3026 18.8411 10.4436 18.6664 10.4937C18.4917 10.5438 18.3035 10.4951 18.175 10.3666L15.9433 8.13496L16.6505 7.42785L18.3504 9.12779Z" fill="#4195B9"/>
<path fill-rule="evenodd" clip-rule="evenodd" d="M8.32584 0.83372C8.80015 0.346365 9.56934 0.356549 10.0438 0.831014L11.2469 2.03408C11.4082 1.76537 11.6211 1.51913 11.8871 1.31017C11.9216 1.28301 11.9588 1.26109 11.9975 1.24433C12.9648 0.552586 14.3063 0.57563 15.2406 1.33365C16.5042 2.34593 16.5729 4.19987 15.4565 5.31626L15.4507 5.32206L15.4507 5.32201C15.2928 5.47483 15.1208 5.60657 14.9384 5.71577L16.6115 7.38893C16.7053 7.48269 16.758 7.60987 16.758 7.74248C16.758 7.87509 16.7053 8.00226 16.6115 8.09603L13.4206 11.2869C13.2765 11.431 13.0593 11.4732 12.8717 11.3936C12.6841 11.3139 12.5636 11.1284 12.5672 10.9246C12.5746 10.5004 12.4107 10.064 12.0773 9.73062C11.3752 9.02852 10.215 9.07323 9.57136 9.87583L9.57125 9.87597C9.08374 10.4835 9.09093 11.3847 9.58655 11.9855L9.58784 11.987C9.92659 12.4011 10.4165 12.6063 10.904 12.6063C11.1062 12.6063 11.2885 12.7281 11.3659 12.9149C11.4433 13.1018 11.4005 13.3168 11.2575 13.4598L8.1058 16.6115C8.01203 16.7053 7.88485 16.758 7.75225 16.758C7.61964 16.758 7.49246 16.7053 7.39869 16.6115L5.74416 14.957C5.67391 15.0486 5.59664 15.137 5.512 15.2216L5.51008 15.2235C4.39219 16.3294 2.54064 16.2572 1.52023 14.9967L1.51935 14.9956C0.72525 14.009 0.734301 12.5681 1.55565 11.6C1.68699 11.4426 1.83065 11.3053 1.98435 11.1874L0.843484 10.0465C0.356131 9.57222 0.366316 8.80303 0.84078 8.32857L3.43458 5.73477C3.5752 5.59415 3.78579 5.55023 3.97089 5.62292C4.156 5.69561 4.28043 5.87108 4.28779 6.06981C4.30277 6.4742 4.46721 6.87269 4.7779 7.18338C5.47949 7.88497 6.6386 7.84083 7.28247 7.03991C7.75459 6.43873 7.75441 5.56082 7.28193 4.95986C6.95585 4.55102 6.49622 4.33974 6.02498 4.31694C5.82737 4.30737 5.65399 4.1822 5.58272 3.99764C5.51145 3.81308 5.5557 3.60386 5.69559 3.46397L8.32584 0.83372ZM9.3367 1.53812C9.24462 1.44603 9.1159 1.45512 9.0418 1.53186L9.03571 1.53817L9.03565 1.53812L7.03203 3.54174C7.42015 3.71114 7.77677 3.97596 8.06508 4.33803L8.06677 4.34014L8.06676 4.34015C8.82631 5.30466 8.82631 6.6958 8.06676 7.66031L8.06403 7.66377L8.06402 7.66376C7.04366 8.9362 5.18926 9.00895 4.0708 7.89049C3.82868 7.64837 3.64124 7.37062 3.51042 7.07314L1.54789 9.03567C1.4558 9.12776 1.46488 9.25647 1.54163 9.33057L1.54794 9.33667L1.54789 9.33672L3.15311 10.9419C3.27228 11.0611 3.3234 11.2323 3.28908 11.3973C3.25476 11.5623 3.13962 11.6989 2.98282 11.7607C2.73697 11.8575 2.51269 12.0136 2.32233 12.242L2.3192 12.2458L2.31919 12.2457C1.81109 12.8435 1.80097 13.7502 2.29799 14.3682C2.94133 15.1621 4.10324 15.2075 4.80582 14.5136C4.9711 14.3481 5.0913 14.1606 5.17501 13.9551C5.23821 13.8 5.37489 13.6868 5.53908 13.6537C5.70327 13.6205 5.87316 13.6718 5.99161 13.7902L7.75225 15.5509L9.89158 13.4115C9.48808 13.2501 9.11452 12.9875 8.81449 12.621C8.01877 11.6557 8.00662 10.228 8.79132 9.2501C9.8117 7.97779 11.666 7.90509 12.7844 9.02351C13.0472 9.28626 13.2452 9.59139 13.3764 9.9169L15.5508 7.74248L13.7021 5.89375C13.5736 5.76522 13.5249 5.57707 13.575 5.40235C13.6252 5.22763 13.7661 5.09387 13.9432 5.053C14.2326 4.98623 14.5129 4.83692 14.7523 4.60625C15.453 3.90225 15.4038 2.74483 14.6145 2.11334L14.6115 2.11097L14.6115 2.11096C14.013 1.62469 13.1277 1.62189 12.5157 2.10543C12.4876 2.12768 12.4577 2.14644 12.4266 2.16176C12.1555 2.40184 11.9857 2.70565 11.9096 3.03097C11.8682 3.20768 11.7343 3.34811 11.5598 3.39787C11.3853 3.44763 11.1975 3.39891 11.0692 3.27058L9.3367 1.53812Z" fill="#699C69"/>
</g>
<defs>
<clipPath id="clip0_2_230">
<rect width="24" height="24" fill="white"/>
</clipPath>
</defs>
</svg>
