<svg width="24" height="24" viewBox="0 0 24 24" fill="none" xmlns="http://www.w3.org/2000/svg">
<mask id="path-1-outside-1_2_235" maskUnits="userSpaceOnUse" x="0" y="2.75" width="24" height="18" fill="black">
<rect fill="white" y="2.75" width="24" height="18"/>
<path d="M22.6452 16.8799H20.8425C20.7527 16.2583 20.4309 15.6938 19.9418 15.2999C19.4526 14.9061 18.8324 14.7121 18.206 14.7571C17.5796 14.802 16.9935 15.0826 16.5656 15.5423C16.1378 16.002 15.8999 16.6067 15.8999 17.2347C15.8999 17.8627 16.1378 18.4674 16.5656 18.9271C16.9935 19.3868 17.5796 19.6674 18.206 19.7124C18.8324 19.7573 19.4526 19.5634 19.9418 19.1695C20.4309 18.7757 20.7527 18.2112 20.8425 17.5896H22.6452C22.7393 17.5896 22.8295 17.5522 22.8961 17.4857C22.9626 17.4191 23 17.3288 23 17.2347C23 17.1406 22.9626 17.0504 22.8961 16.9838C22.8295 16.9173 22.7393 16.8799 22.6452 16.8799ZM18.3868 19.009C18.0359 19.009 17.6929 18.905 17.4011 18.71C17.1093 18.515 16.8819 18.2379 16.7476 17.9137C16.6133 17.5895 16.5781 17.2328 16.6466 16.8886C16.7151 16.5444 16.8841 16.2282 17.1322 15.9801C17.3803 15.732 17.6965 15.563 18.0407 15.4945C18.3849 15.4261 18.7416 15.4612 19.0658 15.5955C19.39 15.7298 19.6671 15.9572 19.8621 16.249C20.0571 16.5408 20.1611 16.8838 20.1611 17.2347C20.1606 17.7051 19.9734 18.1561 19.6408 18.4887C19.3082 18.8214 18.8572 19.0085 18.3868 19.009Z"/>
<path d="M18.3868 16.1701C18.1763 16.1701 17.9704 16.2326 17.7954 16.3495C17.6203 16.4665 17.4838 16.6328 17.4033 16.8273C17.3227 17.0218 17.3016 17.2359 17.3427 17.4424C17.3838 17.6489 17.4852 17.8386 17.634 17.9875C17.7829 18.1364 17.9726 18.2378 18.1791 18.2788C18.3856 18.3199 18.5997 18.2988 18.7942 18.2182C18.9887 18.1377 19.155 18.0012 19.272 17.8262C19.389 17.6511 19.4514 17.4453 19.4514 17.2347C19.4514 16.9524 19.3392 16.6816 19.1396 16.4819C18.9399 16.2823 18.6692 16.1701 18.3868 16.1701ZM18.3868 17.5896C18.3166 17.5896 18.248 17.5687 18.1897 17.5298C18.1313 17.4908 18.0858 17.4353 18.059 17.3705C18.0321 17.3057 18.0251 17.2343 18.0388 17.1655C18.0525 17.0966 18.0863 17.0334 18.1359 16.9838C18.1855 16.9341 18.2488 16.9004 18.3176 16.8867C18.3864 16.873 18.4578 16.88 18.5226 16.9069C18.5875 16.9337 18.6429 16.9792 18.6819 17.0375C18.7209 17.0959 18.7417 17.1645 18.7417 17.2347C18.7417 17.3288 18.7043 17.4191 18.6377 17.4856C18.5712 17.5522 18.4809 17.5896 18.3868 17.5896Z"/>
<path d="M18.158 10.8472H21.5806C21.7689 10.8472 21.9494 10.7724 22.0825 10.6393C22.2156 10.5062 22.2904 10.3257 22.2904 10.1375V7.29861C22.2904 7.11038 22.2156 6.92986 22.0825 6.79676C21.9494 6.66366 21.7689 6.58889 21.5806 6.58889H19.4941C19.2794 6.59079 19.0701 6.65672 18.8931 6.77822C18.7161 6.89972 18.5794 7.07128 18.5004 7.27093L17.4969 9.88271C17.4556 9.99011 17.441 10.1059 17.4544 10.2202C17.4678 10.3345 17.5088 10.4438 17.5739 10.5388C17.639 10.6337 17.7261 10.7113 17.8279 10.7651C17.9296 10.8188 18.0429 10.847 18.158 10.8472ZM19.1608 7.52785C19.1878 7.46117 19.2337 7.40388 19.293 7.36312C19.3522 7.32235 19.4222 7.29992 19.4941 7.29861H21.5806V10.1375H18.158L19.1608 7.52785Z"/>
<path d="M22.6452 5.16946H19.4975C19.0016 5.17439 18.5181 5.32535 18.1074 5.60349C17.6967 5.88163 17.3771 6.27461 17.1885 6.73334L15.7804 9.585C15.751 9.64453 15.7054 9.69461 15.649 9.72955C15.5925 9.76449 15.5274 9.78289 15.461 9.78266H14.1285C13.6581 9.78322 13.2071 9.97034 12.8745 10.303C12.5419 10.6356 12.3548 11.0866 12.3542 11.557V13.6861H11.2896C11.1014 13.6861 10.9209 13.7609 10.7878 13.894C10.6547 14.0271 10.5799 14.2076 10.5799 14.3959V15.1056C10.5799 15.2938 10.6547 15.4743 10.7878 15.6074C10.9209 15.7405 11.1014 15.8153 11.2896 15.8153H12.3542V16.525C12.3542 16.8074 12.4664 17.0781 12.666 17.2778C12.8657 17.4774 13.1364 17.5896 13.4188 17.5896H14.8382C14.9323 17.5896 15.0226 17.5522 15.0891 17.4857C15.1557 17.4191 15.1931 17.3289 15.1931 17.2347C15.1931 17.1406 15.1557 17.0504 15.0891 16.9838C15.0226 16.9173 14.9323 16.8799 14.8382 16.8799H13.4188C13.3247 16.8799 13.2344 16.8425 13.1679 16.7759C13.1013 16.7094 13.0639 16.6191 13.0639 16.525V12.2667H13.4188C13.8892 12.2661 14.3402 12.079 14.6728 11.7464C15.0054 11.4138 15.1925 10.9628 15.1931 10.4924H15.4628C15.6611 10.4928 15.8556 10.4376 16.0241 10.3329C16.1926 10.2283 16.3284 10.0785 16.4159 9.90047L17.8382 7.01474C17.9767 6.68624 18.2068 6.40452 18.501 6.20318C18.7953 6.00183 19.1412 5.88936 19.4975 5.87919H22.6452C22.7393 5.87919 22.8295 5.8418 22.8961 5.77525C22.9626 5.7087 23 5.61844 23 5.52433C23 5.43021 22.9626 5.33995 22.8961 5.2734C22.8295 5.20685 22.7393 5.16946 22.6452 5.16946ZM12.3542 15.1056H11.2896V14.3959H12.3542V15.1056ZM13.4188 11.557H13.0639C13.0639 11.2746 13.1761 11.0038 13.3757 10.8042C13.5754 10.6045 13.8462 10.4924 14.1285 10.4924H14.4834C14.4834 10.7747 14.3712 11.0455 14.1716 11.2452C13.9719 11.4448 13.7011 11.557 13.4188 11.557Z"/>
<path d="M9.16042 15.8153C9.25453 15.8153 9.3448 15.7779 9.41134 15.7113C9.47789 15.6448 9.51528 15.5545 9.51528 15.4604C9.51528 15.3663 9.47789 15.276 9.41134 15.2095C9.3448 15.1429 9.25453 15.1056 9.16042 15.1056H4.90209C4.52563 15.1056 4.16459 14.956 3.89839 14.6898C3.63219 14.4236 3.48264 14.0626 3.48264 13.6861C3.48264 13.3096 3.63219 12.9486 3.89839 12.6824C4.16459 12.4162 4.52563 12.2667 4.90209 12.2667H5.25695C5.35106 12.2667 5.44132 12.2293 5.50787 12.1627C5.57442 12.0962 5.61181 12.0059 5.61181 11.9118C5.61181 11.8177 5.57442 11.7274 5.50787 11.6609C5.44132 11.5943 5.35106 11.5569 5.25695 11.5569H4.3698C3.70282 11.5532 3.06156 11.2992 2.57297 10.8452C2.08438 10.3911 1.78407 9.77019 1.7315 9.10529C1.67893 8.44038 1.87794 7.77997 2.28911 7.2548C2.70029 6.72964 3.29367 6.378 3.95177 6.26951C4.04337 6.25381 4.12515 6.2028 4.17955 6.12744C4.23394 6.05209 4.2566 5.9584 4.24266 5.86651C4.22871 5.77463 4.17928 5.69188 4.10498 5.63605C4.03068 5.58022 3.93745 5.55577 3.84531 5.56795C3.08696 5.68715 2.39208 6.06181 1.87576 6.62988C1.35943 7.19796 1.05263 7.92535 1.00618 8.6916C0.959721 9.45785 1.1764 10.217 1.62032 10.8433C2.06424 11.4696 2.70876 11.9254 3.44716 12.1354C3.13502 12.4268 2.91789 12.8055 2.82404 13.2221C2.73018 13.6387 2.76396 14.0739 2.92097 14.471C3.07798 14.8681 3.35095 15.2087 3.70431 15.4485C4.05767 15.6883 4.47505 15.8161 4.90209 15.8153H9.16042Z"/>
<path d="M7.56365 12.2667H9.16053C9.72505 12.2661 10.2663 12.0416 10.6655 11.6424C11.0646 11.2433 11.2891 10.702 11.2897 10.1375C11.2907 9.73404 11.176 9.33875 10.9591 8.99853C10.7422 8.65831 10.4323 8.38744 10.0661 8.21806C10.4029 7.74174 10.5825 7.1722 10.58 6.58889C10.58 5.83597 10.2809 5.11389 9.74848 4.58149C9.21609 4.0491 8.494 3.75 7.74108 3.75C6.98816 3.75 6.26608 4.0491 5.73369 4.58149C5.20129 5.11389 4.9022 5.83597 4.9022 6.58889C4.9022 6.683 4.93958 6.77326 5.00613 6.83981C5.07268 6.90636 5.16294 6.94375 5.25706 6.94375C5.35117 6.94375 5.44143 6.90636 5.50798 6.83981C5.57453 6.77326 5.61192 6.683 5.61192 6.58889C5.61192 6.0242 5.83624 5.48264 6.23554 5.08334C6.63483 4.68404 7.17639 4.45972 7.74108 4.45972C8.30577 4.45972 8.84734 4.68404 9.24663 5.08334C9.64593 5.48264 9.87025 6.0242 9.87025 6.58889C9.87202 6.87141 9.8166 7.15136 9.70731 7.4119C9.59802 7.67243 9.43714 7.90815 9.23434 8.10485C9.17997 8.14742 9.13908 8.20481 9.1166 8.27011C9.09413 8.3354 9.09104 8.4058 9.1077 8.47281C9.12436 8.53983 9.16006 8.60058 9.21049 8.64775C9.26092 8.69492 9.32392 8.72649 9.3919 8.73864C9.74151 8.79879 10.0559 8.98767 10.2732 9.26808C10.4905 9.54849 10.5949 9.90011 10.5659 10.2537C10.5369 10.6072 10.3765 10.9371 10.1164 11.1783C9.85629 11.4195 9.51527 11.5546 9.16053 11.5569H7.56365C7.23425 11.5569 6.91834 11.6878 6.68542 11.9207C6.4525 12.1536 6.32164 12.4696 6.32164 12.799C6.32164 13.1284 6.4525 13.4443 6.68542 13.6772C6.91834 13.9101 7.23425 14.041 7.56365 14.041H9.51539C9.60951 14.041 9.69977 14.0036 9.76631 13.937C9.83286 13.8705 9.87025 13.7802 9.87025 13.6861C9.87025 13.592 9.83286 13.5017 9.76631 13.4352C9.69977 13.3686 9.60951 13.3312 9.51539 13.3312H7.56365C7.42248 13.3312 7.28709 13.2752 7.18727 13.1753C7.08744 13.0755 7.03136 12.9401 7.03136 12.799C7.03136 12.6578 7.08744 12.5224 7.18727 12.4226C7.28709 12.3227 7.42248 12.2667 7.56365 12.2667Z"/>
</mask>
<path d="M22.6452 16.8799H20.8425C20.7527 16.2583 20.4309 15.6938 19.9418 15.2999C19.4526 14.9061 18.8324 14.7121 18.206 14.7571C17.5796 14.802 16.9935 15.0826 16.5656 15.5423C16.1378 16.002 15.8999 16.6067 15.8999 17.2347C15.8999 17.8627 16.1378 18.4674 16.5656 18.9271C16.9935 19.3868 17.5796 19.6674 18.206 19.7124C18.8324 19.7573 19.4526 19.5634 19.9418 19.1695C20.4309 18.7757 20.7527 18.2112 20.8425 17.5896H22.6452C22.7393 17.5896 22.8295 17.5522 22.8961 17.4857C22.9626 17.4191 23 17.3288 23 17.2347C23 17.1406 22.9626 17.0504 22.8961 16.9838C22.8295 16.9173 22.7393 16.8799 22.6452 16.8799ZM18.3868 19.009C18.0359 19.009 17.6929 18.905 17.4011 18.71C17.1093 18.515 16.8819 18.2379 16.7476 17.9137C16.6133 17.5895 16.5781 17.2328 16.6466 16.8886C16.7151 16.5444 16.8841 16.2282 17.1322 15.9801C17.3803 15.732 17.6965 15.563 18.0407 15.4945C18.3849 15.4261 18.7416 15.4612 19.0658 15.5955C19.39 15.7298 19.6671 15.9572 19.8621 16.249C20.0571 16.5408 20.1611 16.8838 20.1611 17.2347C20.1606 17.7051 19.9734 18.1561 19.6408 18.4887C19.3082 18.8214 18.8572 19.0085 18.3868 19.009Z" fill="#4195B9"/>
<path d="M18.3868 16.1701C18.1763 16.1701 17.9704 16.2326 17.7954 16.3495C17.6203 16.4665 17.4838 16.6328 17.4033 16.8273C17.3227 17.0218 17.3016 17.2359 17.3427 17.4424C17.3838 17.6489 17.4852 17.8386 17.634 17.9875C17.7829 18.1364 17.9726 18.2378 18.1791 18.2788C18.3856 18.3199 18.5997 18.2988 18.7942 18.2182C18.9887 18.1377 19.155 18.0012 19.272 17.8262C19.389 17.6511 19.4514 17.4453 19.4514 17.2347C19.4514 16.9524 19.3392 16.6816 19.1396 16.4819C18.9399 16.2823 18.6692 16.1701 18.3868 16.1701ZM18.3868 17.5896C18.3166 17.5896 18.248 17.5687 18.1897 17.5298C18.1313 17.4908 18.0858 17.4353 18.059 17.3705C18.0321 17.3057 18.0251 17.2343 18.0388 17.1655C18.0525 17.0966 18.0863 17.0334 18.1359 16.9838C18.1855 16.9341 18.2488 16.9004 18.3176 16.8867C18.3864 16.873 18.4578 16.88 18.5226 16.9069C18.5875 16.9337 18.6429 16.9792 18.6819 17.0375C18.7209 17.0959 18.7417 17.1645 18.7417 17.2347C18.7417 17.3288 18.7043 17.4191 18.6377 17.4856C18.5712 17.5522 18.4809 17.5896 18.3868 17.5896Z" fill="#4195B9"/>
<path d="M18.158 10.8472H21.5806C21.7689 10.8472 21.9494 10.7724 22.0825 10.6393C22.2156 10.5062 22.2904 10.3257 22.2904 10.1375V7.29861C22.2904 7.11038 22.2156 6.92986 22.0825 6.79676C21.9494 6.66366 21.7689 6.58889 21.5806 6.58889H19.4941C19.2794 6.59079 19.0701 6.65672 18.8931 6.77822C18.7161 6.89972 18.5794 7.07128 18.5004 7.27093L17.4969 9.88271C17.4556 9.99011 17.441 10.1059 17.4544 10.2202C17.4678 10.3345 17.5088 10.4438 17.5739 10.5388C17.639 10.6337 17.7261 10.7113 17.8279 10.7651C17.9296 10.8188 18.0429 10.847 18.158 10.8472ZM19.1608 7.52785C19.1878 7.46117 19.2337 7.40388 19.293 7.36312C19.3522 7.32235 19.4222 7.29992 19.4941 7.29861H21.5806V10.1375H18.158L19.1608 7.52785Z" fill="#4195B9"/>
<path d="M22.6452 5.16946H19.4975C19.0016 5.17439 18.5181 5.32535 18.1074 5.60349C17.6967 5.88163 17.3771 6.27461 17.1885 6.73334L15.7804 9.585C15.751 9.64453 15.7054 9.69461 15.649 9.72955C15.5925 9.76449 15.5274 9.78289 15.461 9.78266H14.1285C13.6581 9.78322 13.2071 9.97034 12.8745 10.303C12.5419 10.6356 12.3548 11.0866 12.3542 11.557V13.6861H11.2896C11.1014 13.6861 10.9209 13.7609 10.7878 13.894C10.6547 14.0271 10.5799 14.2076 10.5799 14.3959V15.1056C10.5799 15.2938 10.6547 15.4743 10.7878 15.6074C10.9209 15.7405 11.1014 15.8153 11.2896 15.8153H12.3542V16.525C12.3542 16.8074 12.4664 17.0781 12.666 17.2778C12.8657 17.4774 13.1364 17.5896 13.4188 17.5896H14.8382C14.9323 17.5896 15.0226 17.5522 15.0891 17.4857C15.1557 17.4191 15.1931 17.3289 15.1931 17.2347C15.1931 17.1406 15.1557 17.0504 15.0891 16.9838C15.0226 16.9173 14.9323 16.8799 14.8382 16.8799H13.4188C13.3247 16.8799 13.2344 16.8425 13.1679 16.7759C13.1013 16.7094 13.0639 16.6191 13.0639 16.525V12.2667H13.4188C13.8892 12.2661 14.3402 12.079 14.6728 11.7464C15.0054 11.4138 15.1925 10.9628 15.1931 10.4924H15.4628C15.6611 10.4928 15.8556 10.4376 16.0241 10.3329C16.1926 10.2283 16.3284 10.0785 16.4159 9.90047L17.8382 7.01474C17.9767 6.68624 18.2068 6.40452 18.501 6.20318C18.7953 6.00183 19.1412 5.88936 19.4975 5.87919H22.6452C22.7393 5.87919 22.8295 5.8418 22.8961 5.77525C22.9626 5.7087 23 5.61844 23 5.52433C23 5.43021 22.9626 5.33995 22.8961 5.2734C22.8295 5.20685 22.7393 5.16946 22.6452 5.16946ZM12.3542 15.1056H11.2896V14.3959H12.3542V15.1056ZM13.4188 11.557H13.0639C13.0639 11.2746 13.1761 11.0038 13.3757 10.8042C13.5754 10.6045 13.8462 10.4924 14.1285 10.4924H14.4834C14.4834 10.7747 14.3712 11.0455 14.1716 11.2452C13.9719 11.4448 13.7011 11.557 13.4188 11.557Z" fill="#4195B9"/>
<path d="M9.16042 15.8153C9.25453 15.8153 9.3448 15.7779 9.41134 15.7113C9.47789 15.6448 9.51528 15.5545 9.51528 15.4604C9.51528 15.3663 9.47789 15.276 9.41134 15.2095C9.3448 15.1429 9.25453 15.1056 9.16042 15.1056H4.90209C4.52563 15.1056 4.16459 14.956 3.89839 14.6898C3.63219 14.4236 3.48264 14.0626 3.48264 13.6861C3.48264 13.3096 3.63219 12.9486 3.89839 12.6824C4.16459 12.4162 4.52563 12.2667 4.90209 12.2667H5.25695C5.35106 12.2667 5.44132 12.2293 5.50787 12.1627C5.57442 12.0962 5.61181 12.0059 5.61181 11.9118C5.61181 11.8177 5.57442 11.7274 5.50787 11.6609C5.44132 11.5943 5.35106 11.5569 5.25695 11.5569H4.3698C3.70282 11.5532 3.06156 11.2992 2.57297 10.8452C2.08438 10.3911 1.78407 9.77019 1.7315 9.10529C1.67893 8.44038 1.87794 7.77997 2.28911 7.2548C2.70029 6.72964 3.29367 6.378 3.95177 6.26951C4.04337 6.25381 4.12515 6.2028 4.17955 6.12744C4.23394 6.05209 4.2566 5.9584 4.24266 5.86651C4.22871 5.77463 4.17928 5.69188 4.10498 5.63605C4.03068 5.58022 3.93745 5.55577 3.84531 5.56795C3.08696 5.68715 2.39208 6.06181 1.87576 6.62988C1.35943 7.19796 1.05263 7.92535 1.00618 8.6916C0.959721 9.45785 1.1764 10.217 1.62032 10.8433C2.06424 11.4696 2.70876 11.9254 3.44716 12.1354C3.13502 12.4268 2.91789 12.8055 2.82404 13.2221C2.73018 13.6387 2.76396 14.0739 2.92097 14.471C3.07798 14.8681 3.35095 15.2087 3.70431 15.4485C4.05767 15.6883 4.47505 15.8161 4.90209 15.8153H9.16042Z" fill="#4195B9"/>
<path d="M7.56365 12.2667H9.16053C9.72505 12.2661 10.2663 12.0416 10.6655 11.6424C11.0646 11.2433 11.2891 10.702 11.2897 10.1375C11.2907 9.73404 11.176 9.33875 10.9591 8.99853C10.7422 8.65831 10.4323 8.38744 10.0661 8.21806C10.4029 7.74174 10.5825 7.1722 10.58 6.58889C10.58 5.83597 10.2809 5.11389 9.74848 4.58149C9.21609 4.0491 8.494 3.75 7.74108 3.75C6.98816 3.75 6.26608 4.0491 5.73369 4.58149C5.20129 5.11389 4.9022 5.83597 4.9022 6.58889C4.9022 6.683 4.93958 6.77326 5.00613 6.83981C5.07268 6.90636 5.16294 6.94375 5.25706 6.94375C5.35117 6.94375 5.44143 6.90636 5.50798 6.83981C5.57453 6.77326 5.61192 6.683 5.61192 6.58889C5.61192 6.0242 5.83624 5.48264 6.23554 5.08334C6.63483 4.68404 7.17639 4.45972 7.74108 4.45972C8.30577 4.45972 8.84734 4.68404 9.24663 5.08334C9.64593 5.48264 9.87025 6.0242 9.87025 6.58889C9.87202 6.87141 9.8166 7.15136 9.70731 7.4119C9.59802 7.67243 9.43714 7.90815 9.23434 8.10485C9.17997 8.14742 9.13908 8.20481 9.1166 8.27011C9.09413 8.3354 9.09104 8.4058 9.1077 8.47281C9.12436 8.53983 9.16006 8.60058 9.21049 8.64775C9.26092 8.69492 9.32392 8.72649 9.3919 8.73864C9.74151 8.79879 10.0559 8.98767 10.2732 9.26808C10.4905 9.54849 10.5949 9.90011 10.5659 10.2537C10.5369 10.6072 10.3765 10.9371 10.1164 11.1783C9.85629 11.4195 9.51527 11.5546 9.16053 11.5569H7.56365C7.23425 11.5569 6.91834 11.6878 6.68542 11.9207C6.4525 12.1536 6.32164 12.4696 6.32164 12.799C6.32164 13.1284 6.4525 13.4443 6.68542 13.6772C6.91834 13.9101 7.23425 14.041 7.56365 14.041H9.51539C9.60951 14.041 9.69977 14.0036 9.76631 13.937C9.83286 13.8705 9.87025 13.7802 9.87025 13.6861C9.87025 13.592 9.83286 13.5017 9.76631 13.4352C9.69977 13.3686 9.60951 13.3312 9.51539 13.3312H7.56365C7.42248 13.3312 7.28709 13.2752 7.18727 13.1753C7.08744 13.0755 7.03136 12.9401 7.03136 12.799C7.03136 12.6578 7.08744 12.5224 7.18727 12.4226C7.28709 12.3227 7.42248 12.2667 7.56365 12.2667Z" fill="#4195B9"/>
<path d="M22.6452 16.8799H20.8425C20.7527 16.2583 20.4309 15.6938 19.9418 15.2999C19.4526 14.9061 18.8324 14.7121 18.206 14.7571C17.5796 14.802 16.9935 15.0826 16.5656 15.5423C16.1378 16.002 15.8999 16.6067 15.8999 17.2347C15.8999 17.8627 16.1378 18.4674 16.5656 18.9271C16.9935 19.3868 17.5796 19.6674 18.206 19.7124C18.8324 19.7573 19.4526 19.5634 19.9418 19.1695C20.4309 18.7757 20.7527 18.2112 20.8425 17.5896H22.6452C22.7393 17.5896 22.8295 17.5522 22.8961 17.4857C22.9626 17.4191 23 17.3288 23 17.2347C23 17.1406 22.9626 17.0504 22.8961 16.9838C22.8295 16.9173 22.7393 16.8799 22.6452 16.8799ZM18.3868 19.009C18.0359 19.009 17.6929 18.905 17.4011 18.71C17.1093 18.515 16.8819 18.2379 16.7476 17.9137C16.6133 17.5895 16.5781 17.2328 16.6466 16.8886C16.7151 16.5444 16.8841 16.2282 17.1322 15.9801C17.3803 15.732 17.6965 15.563 18.0407 15.4945C18.3849 15.4261 18.7416 15.4612 19.0658 15.5955C19.39 15.7298 19.6671 15.9572 19.8621 16.249C20.0571 16.5408 20.1611 16.8838 20.1611 17.2347C20.1606 17.7051 19.9734 18.1561 19.6408 18.4887C19.3082 18.8214 18.8572 19.0085 18.3868 19.009Z" stroke="#4195B9" stroke-width="0.1" mask="url(#path-1-outside-1_2_235)"/>
<path d="M18.3868 16.1701C18.1763 16.1701 17.9704 16.2326 17.7954 16.3495C17.6203 16.4665 17.4838 16.6328 17.4033 16.8273C17.3227 17.0218 17.3016 17.2359 17.3427 17.4424C17.3838 17.6489 17.4852 17.8386 17.634 17.9875C17.7829 18.1364 17.9726 18.2378 18.1791 18.2788C18.3856 18.3199 18.5997 18.2988 18.7942 18.2182C18.9887 18.1377 19.155 18.0012 19.272 17.8262C19.389 17.6511 19.4514 17.4453 19.4514 17.2347C19.4514 16.9524 19.3392 16.6816 19.1396 16.4819C18.9399 16.2823 18.6692 16.1701 18.3868 16.1701ZM18.3868 17.5896C18.3166 17.5896 18.248 17.5687 18.1897 17.5298C18.1313 17.4908 18.0858 17.4353 18.059 17.3705C18.0321 17.3057 18.0251 17.2343 18.0388 17.1655C18.0525 17.0966 18.0863 17.0334 18.1359 16.9838C18.1855 16.9341 18.2488 16.9004 18.3176 16.8867C18.3864 16.873 18.4578 16.88 18.5226 16.9069C18.5875 16.9337 18.6429 16.9792 18.6819 17.0375C18.7209 17.0959 18.7417 17.1645 18.7417 17.2347C18.7417 17.3288 18.7043 17.4191 18.6377 17.4856C18.5712 17.5522 18.4809 17.5896 18.3868 17.5896Z" stroke="#4195B9" stroke-width="0.1" mask="url(#path-1-outside-1_2_235)"/>
<path d="M18.158 10.8472H21.5806C21.7689 10.8472 21.9494 10.7724 22.0825 10.6393C22.2156 10.5062 22.2904 10.3257 22.2904 10.1375V7.29861C22.2904 7.11038 22.2156 6.92986 22.0825 6.79676C21.9494 6.66366 21.7689 6.58889 21.5806 6.58889H19.4941C19.2794 6.59079 19.0701 6.65672 18.8931 6.77822C18.7161 6.89972 18.5794 7.07128 18.5004 7.27093L17.4969 9.88271C17.4556 9.99011 17.441 10.1059 17.4544 10.2202C17.4678 10.3345 17.5088 10.4438 17.5739 10.5388C17.639 10.6337 17.7261 10.7113 17.8279 10.7651C17.9296 10.8188 18.0429 10.847 18.158 10.8472ZM19.1608 7.52785C19.1878 7.46117 19.2337 7.40388 19.293 7.36312C19.3522 7.32235 19.4222 7.29992 19.4941 7.29861H21.5806V10.1375H18.158L19.1608 7.52785Z" stroke="#4195B9" stroke-width="0.1" mask="url(#path-1-outside-1_2_235)"/>
<path d="M22.6452 5.16946H19.4975C19.0016 5.17439 18.5181 5.32535 18.1074 5.60349C17.6967 5.88163 17.3771 6.27461 17.1885 6.73334L15.7804 9.585C15.751 9.64453 15.7054 9.69461 15.649 9.72955C15.5925 9.76449 15.5274 9.78289 15.461 9.78266H14.1285C13.6581 9.78322 13.2071 9.97034 12.8745 10.303C12.5419 10.6356 12.3548 11.0866 12.3542 11.557V13.6861H11.2896C11.1014 13.6861 10.9209 13.7609 10.7878 13.894C10.6547 14.0271 10.5799 14.2076 10.5799 14.3959V15.1056C10.5799 15.2938 10.6547 15.4743 10.7878 15.6074C10.9209 15.7405 11.1014 15.8153 11.2896 15.8153H12.3542V16.525C12.3542 16.8074 12.4664 17.0781 12.666 17.2778C12.8657 17.4774 13.1364 17.5896 13.4188 17.5896H14.8382C14.9323 17.5896 15.0226 17.5522 15.0891 17.4857C15.1557 17.4191 15.1931 17.3289 15.1931 17.2347C15.1931 17.1406 15.1557 17.0504 15.0891 16.9838C15.0226 16.9173 14.9323 16.8799 14.8382 16.8799H13.4188C13.3247 16.8799 13.2344 16.8425 13.1679 16.7759C13.1013 16.7094 13.0639 16.6191 13.0639 16.525V12.2667H13.4188C13.8892 12.2661 14.3402 12.079 14.6728 11.7464C15.0054 11.4138 15.1925 10.9628 15.1931 10.4924H15.4628C15.6611 10.4928 15.8556 10.4376 16.0241 10.3329C16.1926 10.2283 16.3284 10.0785 16.4159 9.90047L17.8382 7.01474C17.9767 6.68624 18.2068 6.40452 18.501 6.20318C18.7953 6.00183 19.1412 5.88936 19.4975 5.87919H22.6452C22.7393 5.87919 22.8295 5.8418 22.8961 5.77525C22.9626 5.7087 23 5.61844 23 5.52433C23 5.43021 22.9626 5.33995 22.8961 5.2734C22.8295 5.20685 22.7393 5.16946 22.6452 5.16946ZM12.3542 15.1056H11.2896V14.3959H12.3542V15.1056ZM13.4188 11.557H13.0639C13.0639 11.2746 13.1761 11.0038 13.3757 10.8042C13.5754 10.6045 13.8462 10.4924 14.1285 10.4924H14.4834C14.4834 10.7747 14.3712 11.0455 14.1716 11.2452C13.9719 11.4448 13.7011 11.557 13.4188 11.557Z" stroke="#4195B9" stroke-width="0.1" mask="url(#path-1-outside-1_2_235)"/>
<path d="M9.16042 15.8153C9.25453 15.8153 9.3448 15.7779 9.41134 15.7113C9.47789 15.6448 9.51528 15.5545 9.51528 15.4604C9.51528 15.3663 9.47789 15.276 9.41134 15.2095C9.3448 15.1429 9.25453 15.1056 9.16042 15.1056H4.90209C4.52563 15.1056 4.16459 14.956 3.89839 14.6898C3.63219 14.4236 3.48264 14.0626 3.48264 13.6861C3.48264 13.3096 3.63219 12.9486 3.89839 12.6824C4.16459 12.4162 4.52563 12.2667 4.90209 12.2667H5.25695C5.35106 12.2667 5.44132 12.2293 5.50787 12.1627C5.57442 12.0962 5.61181 12.0059 5.61181 11.9118C5.61181 11.8177 5.57442 11.7274 5.50787 11.6609C5.44132 11.5943 5.35106 11.5569 5.25695 11.5569H4.3698C3.70282 11.5532 3.06156 11.2992 2.57297 10.8452C2.08438 10.3911 1.78407 9.77019 1.7315 9.10529C1.67893 8.44038 1.87794 7.77997 2.28911 7.2548C2.70029 6.72964 3.29367 6.378 3.95177 6.26951C4.04337 6.25381 4.12515 6.2028 4.17955 6.12744C4.23394 6.05209 4.2566 5.9584 4.24266 5.86651C4.22871 5.77463 4.17928 5.69188 4.10498 5.63605C4.03068 5.58022 3.93745 5.55577 3.84531 5.56795C3.08696 5.68715 2.39208 6.06181 1.87576 6.62988C1.35943 7.19796 1.05263 7.92535 1.00618 8.6916C0.959721 9.45785 1.1764 10.217 1.62032 10.8433C2.06424 11.4696 2.70876 11.9254 3.44716 12.1354C3.13502 12.4268 2.91789 12.8055 2.82404 13.2221C2.73018 13.6387 2.76396 14.0739 2.92097 14.471C3.07798 14.8681 3.35095 15.2087 3.70431 15.4485C4.05767 15.6883 4.47505 15.8161 4.90209 15.8153H9.16042Z" stroke="#4195B9" stroke-width="0.1" mask="url(#path-1-outside-1_2_235)"/>
<path d="M7.56365 12.2667H9.16053C9.72505 12.2661 10.2663 12.0416 10.6655 11.6424C11.0646 11.2433 11.2891 10.702 11.2897 10.1375C11.2907 9.73404 11.176 9.33875 10.9591 8.99853C10.7422 8.65831 10.4323 8.38744 10.0661 8.21806C10.4029 7.74174 10.5825 7.1722 10.58 6.58889C10.58 5.83597 10.2809 5.11389 9.74848 4.58149C9.21609 4.0491 8.494 3.75 7.74108 3.75C6.98816 3.75 6.26608 4.0491 5.73369 4.58149C5.20129 5.11389 4.9022 5.83597 4.9022 6.58889C4.9022 6.683 4.93958 6.77326 5.00613 6.83981C5.07268 6.90636 5.16294 6.94375 5.25706 6.94375C5.35117 6.94375 5.44143 6.90636 5.50798 6.83981C5.57453 6.77326 5.61192 6.683 5.61192 6.58889C5.61192 6.0242 5.83624 5.48264 6.23554 5.08334C6.63483 4.68404 7.17639 4.45972 7.74108 4.45972C8.30577 4.45972 8.84734 4.68404 9.24663 5.08334C9.64593 5.48264 9.87025 6.0242 9.87025 6.58889C9.87202 6.87141 9.8166 7.15136 9.70731 7.4119C9.59802 7.67243 9.43714 7.90815 9.23434 8.10485C9.17997 8.14742 9.13908 8.20481 9.1166 8.27011C9.09413 8.3354 9.09104 8.4058 9.1077 8.47281C9.12436 8.53983 9.16006 8.60058 9.21049 8.64775C9.26092 8.69492 9.32392 8.72649 9.3919 8.73864C9.74151 8.79879 10.0559 8.98767 10.2732 9.26808C10.4905 9.54849 10.5949 9.90011 10.5659 10.2537C10.5369 10.6072 10.3765 10.9371 10.1164 11.1783C9.85629 11.4195 9.51527 11.5546 9.16053 11.5569H7.56365C7.23425 11.5569 6.91834 11.6878 6.68542 11.9207C6.4525 12.1536 6.32164 12.4696 6.32164 12.799C6.32164 13.1284 6.4525 13.4443 6.68542 13.6772C6.91834 13.9101 7.23425 14.041 7.56365 14.041H9.51539C9.60951 14.041 9.69977 14.0036 9.76631 13.937C9.83286 13.8705 9.87025 13.7802 9.87025 13.6861C9.87025 13.592 9.83286 13.5017 9.76631 13.4352C9.69977 13.3686 9.60951 13.3312 9.51539 13.3312H7.56365C7.42248 13.3312 7.28709 13.2752 7.18727 13.1753C7.08744 13.0755 7.03136 12.9401 7.03136 12.799C7.03136 12.6578 7.08744 12.5224 7.18727 12.4226C7.28709 12.3227 7.42248 12.2667 7.56365 12.2667Z" stroke="#4195B9" stroke-width="0.1" mask="url(#path-1-outside-1_2_235)"/>
</svg>
