<svg width="24" height="24" viewBox="0 0 24 24" fill="none" xmlns="http://www.w3.org/2000/svg">
<path fill-rule="evenodd" clip-rule="evenodd" d="M22.4477 13.1522C22.566 13.2781 22.611 13.4561 22.5666 13.6231L20.9849 19.573C20.9389 19.746 20.804 19.8812 20.6312 19.9275C20.4583 19.9739 20.2739 19.9243 20.1475 19.7976L18.8956 18.5418L13.3365 23.3769C13.1281 23.5581 12.8123 23.5361 12.6311 23.3278C12.4499 23.1194 12.4719 22.8036 12.6802 22.6224L18.5918 17.4807C18.7902 17.3081 19.0884 17.3187 19.2741 17.5049L20.2418 18.4757L21.3936 14.143L17.164 14.9916L18.0878 15.9183C18.1865 16.0173 18.2392 16.153 18.2332 16.2927C18.2272 16.4323 18.1631 16.5631 18.0563 16.6532L10.5433 22.9999C10.3323 23.1781 10.0168 23.1515 9.83865 22.9406C9.66045 22.7296 9.687 22.4141 9.89795 22.2359L16.9962 16.2397L15.7979 15.0376C15.6678 14.9072 15.62 14.7158 15.6735 14.5395C15.727 14.3632 15.873 14.2306 16.0536 14.1944L21.985 13.0044C22.1544 12.9704 22.3293 13.0263 22.4477 13.1522Z" fill="#699C69"/>
<path fill-rule="evenodd" clip-rule="evenodd" d="M12.3621 0.654908C12.4815 0.780241 12.5275 0.958373 12.4838 1.12583L10.9326 7.07578C10.8871 7.2502 10.7513 7.38663 10.5771 7.43289C10.4029 7.47915 10.2172 7.42806 10.0912 7.29918L8.87703 6.05731L6.10238 8.5799L8.50175 11.3846C8.67411 11.586 8.65924 11.887 8.46787 12.0705L2.26274 18.0204C2.06343 18.2116 1.74691 18.2049 1.55579 18.0056C1.36467 17.8063 1.37132 17.4898 1.57063 17.2986L7.43478 11.6757L5.02714 8.86133C4.85144 8.65595 4.87075 8.34814 5.07072 8.16633L8.56111 4.99303C8.76021 4.81201 9.06686 4.82103 9.25497 5.01344L10.188 5.96776L11.3127 1.65414L6.94534 2.56685L7.85882 3.50116C7.95392 3.59843 8.00529 3.73025 8.00106 3.86623C7.99684 4.0022 7.9374 4.13058 7.83644 4.22176L3.38867 8.23898L5.78701 11.0424C5.96551 11.2511 5.94235 11.5647 5.73512 11.7448L2.24474 14.7793C2.03634 14.9605 1.72053 14.9384 1.53935 14.73C1.35818 14.5216 1.38024 14.2058 1.58864 14.0246L4.70468 11.3156L2.31239 8.5192C2.13629 8.31335 2.15615 8.00469 2.35719 7.82311L6.78014 3.82831L5.59251 2.6136C5.46484 2.48302 5.41852 2.29324 5.47167 2.11853C5.52482 1.94382 5.66899 1.81198 5.84774 1.77463L11.8977 0.510263C12.0671 0.474861 12.2428 0.529574 12.3621 0.654908Z" fill="#4195B9"/>
<path fill-rule="evenodd" clip-rule="evenodd" d="M22.447 3.63212C22.5655 3.75775 22.6109 3.93566 22.5668 4.10269L21.0156 9.98934C20.9698 10.1629 20.8345 10.2987 20.661 10.345C20.4876 10.3913 20.3026 10.3411 20.1764 10.2134L18.9626 8.98504L3.80464 22.7898C3.60047 22.9757 3.28424 22.9609 3.0983 22.7568C2.91236 22.5526 2.92714 22.2364 3.1313 22.0504L18.6441 7.92248C18.8424 7.74188 19.1479 7.74992 19.3364 7.9407L20.2718 8.88727L21.3951 4.62469L17.2719 5.45916L18.173 6.37093C18.2694 6.46852 18.3215 6.60146 18.3171 6.7386C18.3126 6.87574 18.252 7.00502 18.1494 7.09615L2.24879 21.2241C2.04236 21.4075 1.72633 21.3889 1.54291 21.1824C1.3595 20.976 1.37815 20.66 1.58458 20.4766L17.0911 6.69881L15.9104 5.50406C15.7813 5.37342 15.7342 5.18253 15.7878 5.00684C15.8413 4.83116 15.9869 4.69897 16.1669 4.66254L21.9842 3.48521C22.1535 3.45095 22.3285 3.50649 22.447 3.63212Z" fill="#4195B9"/>
</svg>
