<svg width="24" height="24" viewBox="0 0 24 24" fill="none" xmlns="http://www.w3.org/2000/svg">
<path d="M19.8161 5.19152L19.8162 5.1916C19.824 5.19951 19.8286 5.2081 19.8302 5.21119L19.8304 5.21164L19.8161 5.19152ZM19.8161 5.19152C19.8079 5.18324 19.7989 5.17857 19.7964 5.17719M19.8161 5.19152L19.7964 5.17719M11.9991 1.95019L11.9992 1.95019L12.0009 1.95019L12.001 1.95019L12.0009 2.00019L11.9991 1.95019ZM11.9991 1.95019C9.08038 1.94873 6.28047 3.10577 4.21427 5.1671C4.21359 5.16749 4.21233 5.1682 4.21017 5.16939L4.20979 5.16959C4.20525 5.17208 4.19542 5.17746 4.18636 5.18651C4.17731 5.19556 4.17192 5.2054 4.16943 5.20995L4.16922 5.21032C4.16802 5.21252 4.1673 5.21379 4.16691 5.21447C2.10377 7.28645 0.946809 10.0923 0.950007 13.0164C0.953205 15.9417 2.11726 18.7461 4.18653 20.8138L4.18715 20.8144M11.9991 1.95019L4.18715 20.8144M4.18715 20.8144C4.279 20.9031 4.40141 20.953 4.52905 20.9539L4.52997 20.9539M4.18715 20.8144L4.52997 20.9539M4.52997 20.9539C4.59366 20.9532 4.65656 20.9398 4.71498 20.9144C4.77341 20.8891 4.82619 20.8523 4.87022 20.8063L6.11702 19.504C6.16055 19.4586 6.19471 19.4052 6.21755 19.3466C6.24039 19.288 6.25146 19.2255 6.25013 19.1627C6.2488 19.0998 6.2351 19.0379 6.2098 18.9803C6.1845 18.9228 6.14811 18.8708 6.1027 18.8273C6.05729 18.7839 6.00376 18.7498 5.94516 18.727C5.88657 18.7042 5.82406 18.6932 5.76122 18.6947C5.69837 18.6961 5.63642 18.7099 5.57891 18.7352C5.5214 18.7606 5.46946 18.7971 5.42605 18.8425L4.52517 19.7834M4.52997 20.9539L4.52517 19.7834M4.52517 19.7834C2.94505 18.0518 2.02259 15.8205 1.91865 13.4785H3.22098C3.34784 13.4785 3.46951 13.4281 3.55922 13.3384C3.64892 13.2487 3.69932 13.127 3.69932 13.0002C3.69932 12.8733 3.64892 12.7516 3.55922 12.6619C3.46951 12.5722 3.34784 12.5218 3.22098 12.5218H1.91978C2.02923 10.1781 2.95505 7.94638 4.5368 6.21342L5.45396 7.13069L5.45403 7.13076C5.54378 7.22018 5.66535 7.27034 5.79204 7.27022C5.91874 7.2701 6.04021 7.21972 6.1298 7.13013C6.21938 7.04054 6.26976 6.91907 6.26988 6.79238C6.27 6.66568 6.21985 6.54411 6.13043 6.45436L6.13036 6.4543L5.2132 5.53701C6.94617 3.95524 9.17791 3.0294 11.5217 2.91995V4.22115C11.5217 4.34801 11.5721 4.46968 11.6618 4.55939C11.7515 4.64909 11.8731 4.69949 12 4.69949C12.1269 4.69949 12.2485 4.64909 12.3382 4.55939C12.4279 4.46968 12.4783 4.34801 12.4783 4.22115V2.91995C14.8223 3.02941 17.0542 3.9554 18.7872 5.53743L17.866 6.45012C17.7758 6.53942 17.7248 6.66087 17.7243 6.78775C17.7237 6.91463 17.7735 7.03655 17.8628 7.12669C17.9521 7.21683 18.0735 7.2678 18.2004 7.2684C18.3273 7.26899 18.4492 7.21916 18.5394 7.12986L19.4638 6.21405C21.0452 7.94693 21.9708 10.1784 22.0803 12.5218H20.779C20.6522 12.5218 20.5305 12.5722 20.4408 12.6619C20.3511 12.7516 20.3007 12.8733 20.3007 13.0002C20.3007 13.127 20.3511 13.2487 20.4408 13.3384C20.5305 13.4281 20.6522 13.4785 20.779 13.4785H22.0813C21.9774 15.8205 21.055 18.0518 19.4748 19.7834L18.5739 18.8425C18.5305 18.7971 18.4785 18.7607 18.421 18.7354C18.3636 18.7101 18.3016 18.6964 18.2389 18.695C18.112 18.6923 17.9893 18.74 17.8977 18.8277C17.8061 18.9154 17.753 19.036 17.7503 19.1628C17.7475 19.2896 17.7952 19.4123 17.8829 19.5039L19.1298 20.8063C19.1738 20.8524 19.2266 20.8891 19.285 20.9145C19.3434 20.9398 19.4063 20.9532 19.47 20.954H19.4706H19.4753C19.5381 20.954 19.6003 20.9416 19.6583 20.9176C19.7164 20.8935 19.7691 20.8583 19.8135 20.8138C21.8833 18.7455 23.0474 15.9401 23.05 13.014C23.0526 10.0894 21.8946 7.28334 19.8305 5.21171C19.8294 5.2106 19.8283 5.2095 19.8272 5.20839L4.52517 19.7834ZM19.7964 5.17719C19.7963 5.17717 19.7963 5.17716 19.7963 5.17715M19.7964 5.17719L19.7963 5.17715M19.7963 5.17715C19.7973 5.1782 19.7984 5.17924 19.7994 5.18029L19.7641 5.21563L19.7979 5.17879C19.7962 5.17721 19.7948 5.17635 19.7945 5.17615L19.7963 5.17715Z" fill="#4195B9" stroke="#4195B9" stroke-width="0.1"/>
<path d="M11.6892 14.7714C11.3015 14.7718 10.9226 14.6559 10.6014 14.4386C10.2803 14.2213 10.0318 13.9127 9.88799 13.5526C9.74419 13.1925 9.71173 12.7976 9.79481 12.4189C9.87788 12.0402 10.0727 11.6951 10.354 11.4283C10.5113 11.2789 10.9016 11.0247 11.3994 10.726C11.8993 10.4261 12.5135 10.078 13.1236 9.74019C14.3439 9.06453 15.5492 8.42907 15.7951 8.29984M11.6892 14.7714L15.7951 8.29984C15.7951 8.29984 15.7951 8.29984 15.7951 8.29984M11.6892 14.7714C12.1858 14.7722 12.6636 14.5817 13.0235 14.2395L11.6892 14.7714ZM15.7951 8.29984C15.8873 8.25138 15.9929 8.23434 16.0956 8.25132C16.1984 8.2683 16.2928 8.31837 16.3646 8.39392C16.4363 8.46947 16.4814 8.56636 16.493 8.66988C16.5046 8.7734 16.4821 8.87788 16.4289 8.96745C16.4289 8.96745 16.4289 8.96745 16.4289 8.96746L15.7951 8.29984ZM11.0128 12.1219L11.0128 12.1219C11.085 12.0534 11.2559 11.9353 11.5031 11.7804C11.7487 11.6266 12.0654 11.4389 12.4253 11.2318C13.0989 10.8443 13.9229 10.3893 14.7139 9.96127C14.2455 10.7292 13.7485 11.5286 13.3267 12.1812C13.1013 12.53 12.8975 12.8365 12.7311 13.0738C12.5636 13.3127 12.4369 13.4772 12.3647 13.5457L12.3647 13.5457C12.1758 13.725 11.9236 13.8219 11.6633 13.8152C11.403 13.8084 11.1561 13.6986 10.9768 13.5098C10.7976 13.3209 10.7006 13.0687 10.7074 12.8084C10.7141 12.5481 10.824 12.3012 11.0128 12.1219Z" fill="#699C69" stroke="#699C69" stroke-width="0.1"/>
</svg>
