<svg width="24" height="24" viewBox="0 0 24 24" fill="none" xmlns="http://www.w3.org/2000/svg">
<path fill-rule="evenodd" clip-rule="evenodd" d="M10.8475 22.4476C10.7216 22.566 10.5436 22.6109 10.3766 22.5666L4.42664 20.9849C4.2537 20.9389 4.11851 20.804 4.07216 20.6311C4.02581 20.4583 4.07537 20.2739 4.2021 20.1475L5.45794 18.8956L0.622767 13.3365C0.441544 13.1281 0.463541 12.8123 0.671899 12.6311C0.880257 12.4498 1.19607 12.4718 1.3773 12.6802L6.51902 18.5918C6.69159 18.7902 6.68099 19.0884 6.49475 19.274L5.52394 20.2418L9.85671 21.3936L9.00813 17.1639L8.08141 18.0878C7.98243 18.1864 7.84666 18.2392 7.70703 18.2332C7.5674 18.2272 7.43664 18.1631 7.34645 18.0563L0.999836 10.5432C0.821638 10.3323 0.848189 10.0168 1.05914 9.83863C1.27009 9.66043 1.58556 9.68698 1.76375 9.89793L7.75996 16.9962L8.96206 15.7979C9.09251 15.6678 9.28391 15.62 9.46018 15.6735C9.63646 15.727 9.76906 15.873 9.80529 16.0536L10.9953 21.985C11.0293 22.1544 10.9734 22.3293 10.8475 22.4476Z" fill="#4195B9"/>
<path fill-rule="evenodd" clip-rule="evenodd" d="M23.3448 12.3621C23.2194 12.4814 23.0413 12.5275 22.8739 12.4838L16.9239 10.9325C16.7495 10.8871 16.6131 10.7512 16.5668 10.577C16.5205 10.4028 16.5716 10.2172 16.7005 10.0912L17.9424 8.87701L15.4198 6.10236L12.6151 8.50173C12.4137 8.67408 12.1127 8.65922 11.9292 8.46785L5.97925 2.26272C5.78813 2.0634 5.79477 1.74689 5.99409 1.55577C6.19341 1.36465 6.50992 1.37129 6.70104 1.57061L12.324 7.43476L15.1384 5.02711C15.3437 4.85142 15.6515 4.87072 15.8334 5.0707L19.0067 8.56108C19.1877 8.76018 19.1787 9.06683 18.9862 9.25495L18.0319 10.188L22.3456 11.3127L21.4328 6.94531L20.4985 7.8588C20.4013 7.9539 20.2694 8.00526 20.1335 8.00104C19.9975 7.99682 19.8691 7.93737 19.7779 7.83642L15.7607 3.38865L12.9572 5.78699C12.7486 5.96549 12.435 5.94232 12.2549 5.7351L9.2204 2.24471C9.03923 2.03632 9.06129 1.7205 9.26969 1.53933C9.47809 1.35815 9.7939 1.38022 9.97508 1.58862L12.6841 4.70466L15.4805 2.31237C15.6863 2.13626 15.995 2.15613 16.1766 2.35717L20.1714 6.78011L21.3861 5.59248C21.5167 5.46482 21.7065 5.4185 21.8812 5.47164C22.0559 5.52479 22.1877 5.66896 22.2251 5.84772L23.4894 11.8977C23.5248 12.0671 23.4701 12.2428 23.3448 12.3621Z" fill="#4195B9"/>
<path fill-rule="evenodd" clip-rule="evenodd" d="M20.3676 22.447C20.2419 22.5655 20.064 22.6108 19.897 22.5668L14.0103 21.0155C13.8367 20.9698 13.701 20.8345 13.6547 20.661C13.6084 20.4876 13.6586 20.3026 13.7863 20.1764L15.0147 18.9625L1.20991 3.80462C1.02397 3.60046 1.03874 3.28422 1.24291 3.09828C1.44707 2.91235 1.76331 2.92712 1.94924 3.13128L16.0772 18.6441C16.2578 18.8424 16.2498 19.1479 16.059 19.3364L15.1124 20.2718L19.375 21.3951L18.5405 17.2719L17.6288 18.173C17.5312 18.2694 17.3982 18.3215 17.2611 18.317C17.124 18.3126 16.9947 18.252 16.9035 18.1494L2.77557 2.24877C2.59216 2.04234 2.61081 1.72631 2.81724 1.54289C3.02367 1.35948 3.33971 1.37814 3.52312 1.58456L17.3009 17.0911L18.4956 15.9104C18.6263 15.7813 18.8172 15.7342 18.9928 15.7877C19.1685 15.8413 19.3007 15.9868 19.3371 16.1668L20.5145 21.9842C20.5487 22.1534 20.4932 22.3284 20.3676 22.447Z" fill="#699C69"/>
</svg>
