<svg width="24" height="24" viewBox="0 0 24 24" fill="none" xmlns="http://www.w3.org/2000/svg">
<path fill-rule="evenodd" clip-rule="evenodd" d="M12 22C17.5228 22 22 17.5228 22 12C22 6.47715 17.5228 2 12 2C6.47715 2 2 6.47715 2 12C2 17.5228 6.47715 22 12 22ZM12 23C18.0751 23 23 18.0751 23 12C23 5.92487 18.0751 1 12 1C5.92487 1 1 5.92487 1 12C1 18.0751 5.92487 23 12 23Z" fill="#4195B9"/>
<path fill-rule="evenodd" clip-rule="evenodd" d="M12 19.7083C16.2572 19.7083 19.7083 16.2572 19.7083 12C19.7083 7.7428 16.2572 4.29166 12 4.29166C7.74279 4.29166 4.29166 7.7428 4.29166 12C4.29166 16.2572 7.74279 19.7083 12 19.7083ZM12 20.7083C16.8095 20.7083 20.7083 16.8095 20.7083 12C20.7083 7.19052 16.8095 3.29166 12 3.29166C7.19051 3.29166 3.29166 7.19052 3.29166 12C3.29166 16.8095 7.19051 20.7083 12 20.7083Z" fill="#4195B9"/>
<path fill-rule="evenodd" clip-rule="evenodd" d="M12 14.2083C13.2196 14.2083 14.2083 13.2196 14.2083 12C14.2083 10.7804 13.2196 9.79166 12 9.79166C10.7804 9.79166 9.79166 10.7804 9.79166 12C9.79166 13.2196 10.7804 14.2083 12 14.2083ZM12 15.2083C13.7719 15.2083 15.2083 13.7719 15.2083 12C15.2083 10.2281 13.7719 8.79166 12 8.79166C10.2281 8.79166 8.79166 10.2281 8.79166 12C8.79166 13.7719 10.2281 15.2083 12 15.2083Z" fill="#4195B9"/>
<path fill-rule="evenodd" clip-rule="evenodd" d="M12 11.9167C11.954 11.9167 11.9167 11.954 11.9167 12C11.9167 12.046 11.954 12.0833 12 12.0833C12.046 12.0833 12.0833 12.046 12.0833 12C12.0833 11.954 12.046 11.9167 12 11.9167ZM12 12.9167C12.5063 12.9167 12.9167 12.5063 12.9167 12C12.9167 11.4937 12.5063 11.0833 12 11.0833C11.4937 11.0833 11.0833 11.4937 11.0833 12C11.0833 12.5063 11.4937 12.9167 12 12.9167Z" fill="#699C69"/>
<path fill-rule="evenodd" clip-rule="evenodd" d="M1.41666 12.9167C1.41666 12.6405 1.64051 12.4167 1.91666 12.4167H3.74999C4.02613 12.4167 4.24999 12.6405 4.24999 12.9167C4.24999 13.1928 4.02613 13.4167 3.74999 13.4167H1.91666C1.64051 13.4167 1.41666 13.1928 1.41666 12.9167Z" fill="#4195B9"/>
<path fill-rule="evenodd" clip-rule="evenodd" d="M19.75 12.9167C19.75 12.6405 19.9739 12.4167 20.25 12.4167H22.0833C22.3595 12.4167 22.5833 12.6405 22.5833 12.9167C22.5833 13.1928 22.3595 13.4167 22.0833 13.4167H20.25C19.9739 13.4167 19.75 13.1928 19.75 12.9167Z" fill="#4195B9"/>
<path fill-rule="evenodd" clip-rule="evenodd" d="M1.41666 11.5417C1.41666 11.2655 1.64051 11.0417 1.91666 11.0417H3.74999C4.02613 11.0417 4.24999 11.2655 4.24999 11.5417C4.24999 11.8178 4.02613 12.0417 3.74999 12.0417H1.91666C1.64051 12.0417 1.41666 11.8178 1.41666 11.5417Z" fill="#4195B9"/>
<path fill-rule="evenodd" clip-rule="evenodd" d="M19.75 11.5417C19.75 11.2655 19.9739 11.0417 20.25 11.0417H22.0833C22.3595 11.0417 22.5833 11.2655 22.5833 11.5417C22.5833 11.8178 22.3595 12.0417 22.0833 12.0417H20.25C19.9739 12.0417 19.75 11.8178 19.75 11.5417Z" fill="#4195B9"/>
<path fill-rule="evenodd" clip-rule="evenodd" d="M4.66982 7.20976C4.78409 6.95837 5.08051 6.84721 5.3319 6.96148L10.3736 9.25315C10.625 9.36742 10.7361 9.66384 10.6219 9.91523C10.5076 10.1666 10.2112 10.2778 9.95977 10.1635L4.9181 7.87185C4.66671 7.75758 4.55555 7.46115 4.66982 7.20976Z" fill="#4195B9"/>
<path fill-rule="evenodd" clip-rule="evenodd" d="M11.7025 20.6487C11.4341 20.7136 11.1639 20.5486 11.0991 20.2801L9.68072 14.4091C9.61587 14.1407 9.7809 13.8705 10.0493 13.8057C10.3177 13.7409 10.5879 13.9059 10.6528 14.1743L12.0711 20.0453C12.136 20.3137 11.9709 20.5839 11.7025 20.6487Z" fill="#4195B9"/>
<path fill-rule="evenodd" clip-rule="evenodd" d="M19.7303 8.97212C19.8824 9.21245 19.828 9.53168 19.6087 9.68515L15.0254 12.8935C14.8062 13.047 14.5051 12.9765 14.353 12.7362C14.2009 12.4959 14.2554 12.1766 14.4746 12.0232L19.0579 8.81485C19.2772 8.66138 19.5782 8.73179 19.7303 8.97212Z" fill="#4195B9"/>
<path fill-rule="evenodd" clip-rule="evenodd" d="M4.25705 8.96327C4.41541 8.73704 4.72718 8.68202 4.9534 8.84038L9.53673 12.0487C9.76296 12.2071 9.81798 12.5188 9.65962 12.7451C9.50126 12.9713 9.1895 13.0263 8.96327 12.8679L4.37994 9.65961C4.15371 9.50126 4.0987 9.18949 4.25705 8.96327Z" fill="#4195B9"/>
<path fill-rule="evenodd" clip-rule="evenodd" d="M12.8345 20.2849C12.5621 20.2395 12.3781 19.9819 12.4235 19.7095L13.3401 14.2095C13.3855 13.9371 13.6431 13.7531 13.9155 13.7985C14.1879 13.8439 14.3719 14.1015 14.3265 14.3739L13.4099 19.8739C13.3645 20.1463 13.1068 20.3303 12.8345 20.2849Z" fill="#4195B9"/>
<path fill-rule="evenodd" clip-rule="evenodd" d="M18.9313 7.45723C19.0411 7.72139 18.933 8.02258 18.6899 8.12995L14.0321 10.1866C13.789 10.294 13.5028 10.1669 13.3929 9.90275C13.2831 9.63859 13.3912 9.3374 13.6343 9.23003L18.2921 7.17335C18.5352 7.06597 18.8214 7.19307 18.9313 7.45723Z" fill="#4195B9"/>
</svg>
