<svg width="24" height="24" viewBox="0 0 24 24" fill="none" xmlns="http://www.w3.org/2000/svg">
<path d="M1.555 5.34C1.81142 5.34 2.02275 5.53302 2.05164 5.78169L2.055 5.84L2.0545 18.2725L12.3152 22.7568C12.5502 22.8595 12.6665 23.121 12.5934 23.3605L12.5732 23.4152C12.4705 23.6502 12.209 23.7665 11.9696 23.6934L11.9148 23.6732L1.35477 19.0582C1.19291 18.9874 1.08195 18.8375 1.05929 18.6654L1.055 18.6V5.84C1.055 5.56386 1.27886 5.34 1.555 5.34Z" fill="#4195B9"/>
<path d="M12.225 9.81C12.4814 9.81 12.6928 10.003 12.7216 10.2517L12.725 10.31V22.442L22.0552 18.2539C22.2891 18.1488 22.561 18.2384 22.6892 18.4534L22.7161 18.5052C22.8212 18.7391 22.7316 19.011 22.5166 19.1392L22.4648 19.1661L12.4298 23.6711C12.1173 23.8114 11.7664 23.6033 11.7284 23.2743L11.725 23.215V10.31C11.725 10.0339 11.9489 9.81 12.225 9.81Z" fill="#4195B9"/>
<path d="M22.695 5.255C22.9514 5.255 23.1628 5.44802 23.1916 5.69669L23.195 5.755V15.36C23.195 15.6361 22.9711 15.86 22.695 15.86C22.4386 15.86 22.2272 15.667 22.1984 15.4183L22.195 15.36V5.755C22.195 5.47886 22.4189 5.255 22.695 5.255Z" fill="#4195B9"/>
<path d="M11.9215 4.81557C12.1724 4.70039 12.4693 4.81048 12.5844 5.06145C12.6914 5.2945 12.6041 5.56709 12.3901 5.69705L12.3385 5.72443L6.907 8.2165L6.85999 14.3889C6.85801 14.6453 6.66337 14.8551 6.41448 14.8821L6.35615 14.885C6.09974 14.883 5.8899 14.6884 5.86293 14.4395L5.86002 14.3811L5.91002 7.89115C5.91134 7.71869 6.00125 7.56075 6.14507 7.47095L6.20146 7.44057L11.9215 4.81557Z" fill="#699C69"/>
<path d="M11.9367 0.706024L1.36165 5.27602C0.959538 5.4498 0.959424 6.01996 1.36147 6.1939L11.9365 10.7689C12.0632 10.8237 12.2069 10.8237 12.3336 10.7689L22.9036 6.19386C23.3056 6.01989 23.3054 5.44987 22.9034 5.27606L12.3334 0.706059C12.2068 0.651326 12.0633 0.651313 11.9367 0.706024ZM12.1345 1.709L21.446 5.735L12.1345 9.765L2.819 5.735L12.1345 1.709Z" fill="#4195B9"/>
</svg>
