<svg width="24" height="24" viewBox="0 0 24 24" fill="none" xmlns="http://www.w3.org/2000/svg">
<path fill-rule="evenodd" clip-rule="evenodd" d="M16.8125 22C19.6775 22 22 19.6775 22 16.8125C22 13.9475 19.6775 11.625 16.8125 11.625C13.9475 11.625 11.625 13.9475 11.625 16.8125C11.625 19.6775 13.9475 22 16.8125 22ZM16.8125 23C20.2298 23 23 20.2298 23 16.8125C23 13.3952 20.2298 10.625 16.8125 10.625C13.3952 10.625 10.625 13.3952 10.625 16.8125C10.625 20.2298 13.3952 23 16.8125 23Z" fill="#4195B9"/>
<path fill-rule="evenodd" clip-rule="evenodd" d="M0.958344 5.75C0.958344 4.36929 2.07763 3.25 3.45834 3.25H16.875C18.2557 3.25 19.375 4.36929 19.375 5.75V9.47917C19.375 9.75531 19.1512 9.97917 18.875 9.97917C18.5989 9.97917 18.375 9.75531 18.375 9.47917V5.75C18.375 4.92157 17.7034 4.25 16.875 4.25H3.45834C2.62992 4.25 1.95834 4.92157 1.95834 5.75V19.1667C1.95834 19.9951 2.62992 20.6667 3.45834 20.6667H10.625C10.9012 20.6667 11.125 20.8905 11.125 21.1667C11.125 21.4428 10.9012 21.6667 10.625 21.6667H3.45834C2.07763 21.6667 0.958344 20.5474 0.958344 19.1667V5.75Z" fill="#4195B9"/>
<path fill-rule="evenodd" clip-rule="evenodd" d="M6.27084 1.875C6.54699 1.875 6.77084 2.09886 6.77084 2.375V5.35417C6.77084 5.63031 6.54699 5.85417 6.27084 5.85417C5.9947 5.85417 5.77084 5.63031 5.77084 5.35417V2.375C5.77084 2.09886 5.9947 1.875 6.27084 1.875Z" fill="#4195B9"/>
<path fill-rule="evenodd" clip-rule="evenodd" d="M14.2917 1.875C14.5678 1.875 14.7917 2.09886 14.7917 2.375V5.35417C14.7917 5.63031 14.5678 5.85417 14.2917 5.85417C14.0155 5.85417 13.7917 5.63031 13.7917 5.35417V2.375C13.7917 2.09886 14.0155 1.875 14.2917 1.875Z" fill="#4195B9"/>
<path fill-rule="evenodd" clip-rule="evenodd" d="M16.8125 12.1875C17.0886 12.1875 17.3125 12.4114 17.3125 12.6875V16.4388L19.8745 18.4843C20.0903 18.6566 20.1255 18.9712 19.9532 19.187C19.7809 19.4028 19.4663 19.438 19.2505 19.2657L16.5005 17.0702C16.3817 16.9753 16.3125 16.8315 16.3125 16.6794V12.6875C16.3125 12.4114 16.5364 12.1875 16.8125 12.1875Z" fill="#699C69"/>
<path fill-rule="evenodd" clip-rule="evenodd" d="M1.1875 7.1875C1.1875 6.91136 1.41136 6.6875 1.6875 6.6875H18.875C19.1511 6.6875 19.375 6.91136 19.375 7.1875C19.375 7.46364 19.1511 7.6875 18.875 7.6875H1.6875C1.41136 7.6875 1.1875 7.46364 1.1875 7.1875Z" fill="#4195B9"/>
</svg>
