<svg width="24" height="24" viewBox="0 0 24 24" fill="none" xmlns="http://www.w3.org/2000/svg">
<path fill-rule="evenodd" clip-rule="evenodd" d="M21.0185 8.15529C18.1181 4.56687 12.858 4.00886 9.26926 6.90889C9.05448 7.08246 8.73967 7.04905 8.5661 6.83427C8.39254 6.61949 8.42595 6.30467 8.64073 6.13111C12.659 2.88397 18.5487 3.50877 21.7962 7.52669C25.0438 11.5446 24.4196 17.4344 20.402 20.6823C16.3844 23.9303 10.4946 23.3066 7.2462 19.2894C7.07257 19.0747 7.10589 18.7598 7.32061 18.5862C7.53534 18.4126 7.85017 18.4459 8.02379 18.6606C10.9249 22.2485 16.1851 22.8054 19.7733 19.9047C23.3614 17.0039 23.9189 11.7437 21.0185 8.15529Z" fill="#4195B9"/>
<path fill-rule="evenodd" clip-rule="evenodd" d="M4.22 9.69C4.22 9.41386 4.44386 9.19 4.72 9.19H10.625C10.9011 9.19 11.125 9.41386 11.125 9.69C11.125 9.96614 10.9011 10.19 10.625 10.19H4.72C4.44386 10.19 4.22 9.96614 4.22 9.69Z" fill="#699C69"/>
<path fill-rule="evenodd" clip-rule="evenodd" d="M18.3719 8.51908C18.5961 8.68032 18.6472 8.99276 18.4859 9.21694L15.0409 14.0069C14.8797 14.2311 14.5672 14.2822 14.3431 14.1209C14.1189 13.9597 14.0678 13.6472 14.2291 13.4231L17.6741 8.63306C17.8353 8.40888 18.1478 8.35785 18.3719 8.51908Z" fill="#699C69"/>
<path fill-rule="evenodd" clip-rule="evenodd" d="M21.2868 4.36765C21.5091 4.53159 21.5563 4.84463 21.3924 5.06684L20.3374 6.49684C20.1734 6.71905 19.8604 6.76629 19.6382 6.60235C19.4159 6.43841 19.3687 6.12538 19.5326 5.90316L20.5876 4.47316C20.7516 4.25095 21.0646 4.20371 21.2868 4.36765Z" fill="#4195B9"/>
<path fill-rule="evenodd" clip-rule="evenodd" d="M2.39 12.515C2.39 12.2389 2.61386 12.015 2.89 12.015H8.795C9.07114 12.015 9.295 12.2389 9.295 12.515C9.295 12.7911 9.07114 13.015 8.795 13.015H2.89C2.61386 13.015 2.39 12.7911 2.39 12.515Z" fill="#699C69"/>
<path fill-rule="evenodd" clip-rule="evenodd" d="M0.559998 15.345C0.559998 15.0689 0.783855 14.845 1.06 14.845H6.965C7.24114 14.845 7.465 15.0689 7.465 15.345C7.465 15.6211 7.24114 15.845 6.965 15.845H1.06C0.783855 15.845 0.559998 15.6211 0.559998 15.345Z" fill="#699C69"/>
<path d="M14.655 14.605C15.2349 14.605 15.705 14.1349 15.705 13.555C15.705 12.9751 15.2349 12.505 14.655 12.505C14.0751 12.505 13.605 12.9751 13.605 13.555C13.605 14.1349 14.0751 14.605 14.655 14.605Z" fill="#699C69"/>
<path fill-rule="evenodd" clip-rule="evenodd" d="M14.655 13.005C14.3512 13.005 14.105 13.2512 14.105 13.555C14.105 13.8588 14.3512 14.105 14.655 14.105C14.9588 14.105 15.205 13.8588 15.205 13.555C15.205 13.2512 14.9588 13.005 14.655 13.005ZM13.105 13.555C13.105 12.699 13.799 12.005 14.655 12.005C15.511 12.005 16.205 12.699 16.205 13.555C16.205 14.411 15.511 15.105 14.655 15.105C13.799 15.105 13.105 14.411 13.105 13.555Z" fill="#699C69"/>
<path fill-rule="evenodd" clip-rule="evenodd" d="M14.445 1.71C14.7211 1.71 14.945 1.93386 14.945 2.21V4.455C14.945 4.73114 14.7211 4.955 14.445 4.955C14.1688 4.955 13.945 4.73114 13.945 4.455V2.21C13.945 1.93386 14.1688 1.71 14.445 1.71Z" fill="#4195B9"/>
<path fill-rule="evenodd" clip-rule="evenodd" d="M12.45 2.165C12.45 1.88886 12.6739 1.665 12.95 1.665H15.945C16.2211 1.665 16.445 1.88886 16.445 2.165C16.445 2.44114 16.2211 2.665 15.945 2.665H12.95C12.6739 2.665 12.45 2.44114 12.45 2.165Z" fill="#4195B9"/>
</svg>
