<svg width="24" height="25" viewBox="0 0 24 25" fill="none" xmlns="http://www.w3.org/2000/svg">
<path fill-rule="evenodd" clip-rule="evenodd" d="M18.8004 14.9702H4.95039C4.65039 14.9702 4.45039 14.7202 4.45039 14.4702C4.45039 14.1702 4.70039 13.9702 4.95039 13.9702H18.8004C19.1004 13.9702 19.3004 14.2202 19.3004 14.4702C19.3004 14.7202 19.1004 14.9702 18.8004 14.9702Z" fill="#699C69"/>
<path fill-rule="evenodd" clip-rule="evenodd" d="M18.8004 17.8701H4.95039C4.65039 17.8701 4.45039 17.6201 4.45039 17.3701C4.45039 17.0701 4.70039 16.8701 4.95039 16.8701H18.8004C19.1004 16.8701 19.3004 17.1201 19.3004 17.3701C19.3004 17.6701 19.1004 17.8701 18.8004 17.8701Z" fill="#699C69"/>
<path fill-rule="evenodd" clip-rule="evenodd" d="M18.8004 12.0699H4.95039C4.65039 12.0699 4.45039 11.8199 4.45039 11.5699C4.45039 11.2699 4.70039 11.0699 4.95039 11.0699H18.8004C19.1004 11.0699 19.3004 11.3199 19.3004 11.5699C19.3004 11.8199 19.1004 12.0699 18.8004 12.0699Z" fill="#699C69"/>
<path fill-rule="evenodd" clip-rule="evenodd" d="M18.8004 9.12015H4.95039C4.65039 9.12015 4.45039 8.87015 4.45039 8.62015C4.45039 8.32015 4.70039 8.12015 4.95039 8.12015H18.8004C19.1004 8.12015 19.3004 8.37015 19.3004 8.62015C19.3004 8.92015 19.1004 9.12015 18.8004 9.12015Z" fill="#699C69"/>
<path fill-rule="evenodd" clip-rule="evenodd" d="M18.8004 20.8199H4.95039C4.65039 20.8199 4.45039 20.5699 4.45039 20.3199C4.45039 20.0199 4.70039 19.8199 4.95039 19.8199H18.8004C19.1004 19.8199 19.3004 20.0699 19.3004 20.3199C19.3004 20.5699 19.1004 20.8199 18.8004 20.8199Z" fill="#699C69"/>
<path fill-rule="evenodd" clip-rule="evenodd" d="M3.05 4.87005V22.42C3.05 22.72 3.3 22.9701 3.6 22.9701H20.35C20.65 22.9701 20.9 22.72 20.9 22.42V1.57005C20.9 1.27005 20.65 1.02005 20.35 1.02005H7L3.05 4.87005ZM20.35 24.0201H3.6C2.75 24.0201 2.05 23.3201 2.05 22.4701V4.47005L6.55 0.02005H20.35C21.2 0.02005 21.9 0.72005 21.9 1.57005V22.42C21.95 23.32 21.25 24.0201 20.35 24.0201Z" fill="#4195B9"/>
<path fill-rule="evenodd" clip-rule="evenodd" d="M7.74961 5.37015H5.14961C4.84961 5.37015 4.64961 5.12015 4.64961 4.87015C4.64961 4.57015 4.89961 4.37015 5.14961 4.37015H6.69961V0.870148C6.69961 0.570148 6.94961 0.370148 7.19961 0.370148C7.49961 0.370148 7.69961 0.620148 7.69961 0.870148V5.37015" fill="#4195B9"/>
</svg>
