<svg width="24" height="24" viewBox="0 0 24 24" fill="none" xmlns="http://www.w3.org/2000/svg">
<path d="M14.8 4.05C14.1 2.65 12.85 1.5 11.35 0.799998C10.35 0.349998 9.25 0.0999985 8.1 0.0999985C4.05 0.0999985 0.75 3.2 0.75 7.05C0.75 8.4 1.15 9.7 1.95 10.85L0.8 14.05C0.75 14.25 0.8 14.45 0.9 14.55C1 14.65 1.1 14.7 1.25 14.7C1.3 14.7 1.35 14.7 1.4 14.65L5.1 13.35C5.15 13.35 5.15 13.4 5.2 13.4H5.25C6.9 14.05 8.75 14.1 10.45 13.6C13.5 12.7 15.5 10.05 15.5 7.05C15.5 6 15.25 5 14.8 4.05ZM2.95 10.95C3 10.75 3 10.6 2.9 10.45C2.15 9.45 1.75 8.25 1.75 7.05C1.75 3.75 4.6 1.1 8.15 1.1C11.7 1.1 14.5 3.75 14.5 7.05C14.5 10.35 11.65 13 8.1 13C7.1 13 6.2 12.8 5.3 12.4C5.15 12.35 5 12.35 4.85 12.4L2 13.4L2.95 10.95Z" fill="#4195B9"/>
<path d="M5.60001 7.05C5.60001 6.5 5.15001 6.05 4.60001 6.05C4.05001 6.05 3.60001 6.5 3.60001 7.05C3.60001 7.6 4.05001 8.05 4.60001 8.05C5.15001 8.05 5.60001 7.6 5.60001 7.05Z" fill="#699C69"/>
<path d="M8.10001 8.05C8.65001 8.05 9.10001 7.6 9.10001 7.05C9.10001 6.5 8.65001 6.05 8.10001 6.05C7.55001 6.05 7.10001 6.5 7.10001 7.05C7.10001 7.6 7.55001 8.05 8.10001 8.05Z" fill="#699C69"/>
<path d="M11.6 8.05C12.1523 8.05 12.6 7.60228 12.6 7.05C12.6 6.49771 12.1523 6.05 11.6 6.05C11.0477 6.05 10.6 6.49771 10.6 7.05C10.6 7.60228 11.0477 8.05 11.6 8.05Z" fill="#699C69"/>
<path d="M8.15001 18.4C8.15001 16.95 6.95001 15.75 5.50001 15.75C4.05001 15.75 2.85001 16.95 2.85001 18.4C2.85001 19.85 4.05001 21.05 5.50001 21.05C6.95001 21.05 8.15001 19.85 8.15001 18.4ZM3.85001 18.4C3.85001 17.5 4.60001 16.75 5.50001 16.75C6.40001 16.75 7.15001 17.5 7.15001 18.4C7.15001 19.3 6.40001 20.05 5.50001 20.05C4.60001 20.05 3.85001 19.3 3.85001 18.4Z" fill="#4195B9"/>
<path d="M6.35 21.25H4.7C3.3 21.25 2.15 22.3 2 23.7V23.8H3V23.7C3.1 22.85 3.85 22.2 4.7 22.2H6.35C7.2 22.2 7.95 22.85 8.05 23.7V23.8H9.05V23.7C8.9 22.3 7.75 21.25 6.35 21.25Z" fill="#4195B9"/>
<path d="M18.25 21.2C19.7 21.2 20.9 20 20.9 18.55C20.9 17.1 19.7 15.9 18.25 15.9C16.8 15.9 15.6 17.1 15.6 18.55C15.6 20 16.8 21.2 18.25 21.2ZM16.6 18.55C16.6 17.65 17.35 16.9 18.25 16.9C19.15 16.9 19.9 17.65 19.9 18.55C19.9 19.45 19.15 20.2 18.25 20.2C17.35 20.2 16.6 19.45 16.6 18.55Z" fill="#4195B9"/>
<path d="M19.05 21.4H17.4C16.05 21.4 14.9 22.4 14.7 23.7V23.8H15.7V23.7C15.9 22.9 16.6 22.35 17.4 22.35H19.05C19.85 22.35 20.55 22.9 20.75 23.7V23.8H21.75V23.7C21.55 22.4 20.4 21.4 19.05 21.4Z" fill="#4195B9"/>
<path d="M21.8 12.25C22.6 11.1 23 9.8 23 8.45C23 4.75 19.9 1.7 16 1.5C15.85 1.5 15.75 1.55 15.65 1.65C15.55 1.75 15.5 1.85 15.5 2C15.5 2.25 15.7 2.5 16 2.5C19.35 2.7 22 5.3 22 8.45C22 9.65 21.6 10.85 20.85 11.85C20.75 12 20.7 12.15 20.8 12.3L21.7 14.8L18.9 13.8C18.75 13.7 18.6 13.7 18.45 13.75C17.1 14.35 15.65 14.5 14.2 14.2C13.95 14.15 13.75 14.25 13.65 14.45C13.6 14.6 13.55 14.75 13.65 14.9C13.7 15.05 13.85 15.15 14 15.2C14.55 15.35 15.05 15.35 15.55 15.35H15.7C16.75 15.35 17.75 15.15 18.7 14.75L22.4 16.05C22.45 16.05 22.5 16.1 22.55 16.1C22.7 16.1 22.8 16.05 22.9 15.95C23.05 15.8 23.1 15.6 23 15.45L21.8 12.25Z" fill="#4195B9"/>
</svg>
