<svg width="24" height="24" viewBox="0 0 24 24" fill="none" xmlns="http://www.w3.org/2000/svg">
<path d="M19.75 13.6L20.05 13.35L19.45 12.6L19 12.95L18.35 12.5L16.4 11.1H14.05C13.45 11.1 12.75 10.4 12.75 9.75V9.3H10.45L9.49998 10.6C9.39998 10.75 9.24998 10.85 9.04998 10.85C8.89998 10.85 8.69998 10.85 8.59998 10.75C8.44998 10.65 8.39998 10.5 8.34998 10.35C8.29998 10.2 8.34998 10 8.44998 9.85L9.19998 8.8C9.49998 8.35 10.15 8.3 10.35 8.3H16.1L15.5 7.35H10.45C10.25 7.35 9.94998 7.35 9.59998 7.45C9.24998 7.55 8.89998 7.7 8.64998 8.05L8.19998 7.85L7.59998 8.65L8.04998 8.85L7.74998 9.3C7.49998 9.6 7.39998 10 7.44998 10.35C7.44998 10.4 7.44998 10.45 7.44998 10.5C7.49998 10.95 7.74998 11.3 8.04998 11.55C8.39998 11.8 8.79998 11.9 9.24998 11.85C9.69998 11.8 10.05 11.55 10.3 11.2L10.95 10.3H11.85C12.1 11.3 13.1 12.15 14.05 12.15H16.05L18.75 14.05C18.9 14.15 19 14.3 19 14.5C19.05 14.65 19 14.85 18.9 14.95C18.8 15.1 18.65 15.15 18.5 15.2C18.35 15.2 18.15 15.2 18 15.1L15.65 13.4L15 12.9L14.5 13.65L17.1 15.5C17.4 15.7 17.45 16.1 17.25 16.4C17.05 16.7 16.65 16.75 16.35 16.55L13.75 14.7L13.2 15.5L15.25 17C15.55 17.2 15.6 17.6 15.4 17.9C15.2 18.2 14.8 18.25 14.5 18.05L13.9 17.5C13.85 17.4 13.75 17.35 13.65 17.3L13.35 17.1C13.3 16.65 13.1 16.25 12.7 16C12.5 15.85 12.3 15.8 12.1 15.75C12.25 15.45 12.3 15.1 12.25 14.8C12.2 14.35 11.95 14 11.6 13.75C11.05 13.35 10.25 13.35 9.69998 13.8C9.59998 13.6 9.44998 13.4 9.24998 13.25C8.69998 12.85 7.84998 12.85 7.29998 13.3C7.19998 13.1 7.04998 12.9 6.84998 12.75C6.54998 12.55 6.14998 12.45 5.79998 12.45C5.39998 12.5 4.94998 12.65 4.69998 13L4.44998 12.8L3.89998 13.5L4.14998 13.7C3.94998 14.05 3.84998 14.45 3.89998 14.85V14.9C3.94998 15.3 4.19998 15.65 4.49998 15.9C4.74998 16.1 5.09998 16.2 5.44998 16.2C5.44998 16.7 5.69998 17.2 6.09998 17.5C6.39998 17.75 6.79998 17.85 7.14998 17.8C7.14998 17.8 7.14998 17.85 7.14998 17.9C7.19998 18.35 7.44998 18.7 7.79998 18.95C8.29998 19.3 8.94998 19.35 9.49998 19.05C9.59998 19.3 9.79998 19.55 9.99998 19.7C10.5 20.05 11.15 20.1 11.7 19.8L11.8 19.9C12.1 20.1 12.4 20.2 12.75 20.2C12.85 20.2 12.95 20.2 13 20.2C13.4 20.15 13.8 19.9 14.05 19.55C14.2 19.35 14.25 19.15 14.3 18.95C14.95 19.25 15.8 19 16.25 18.4C16.4 18.15 16.5 17.9 16.55 17.6C17.15 17.7 17.75 17.45 18.1 16.95C18.3 16.7 18.4 16.4 18.4 16.1C18.95 16.15 19.5 15.9 19.8 15.45C19.95 15.2 20.05 14.95 20.1 14.7C20.1 14.55 20.1 14.4 20.1 14.25C20 14 19.9 13.8 19.75 13.6ZM5.94998 15C5.74998 15.25 5.34998 15.3 5.09998 15.1C4.99998 15 4.89998 14.85 4.84998 14.7C4.84998 14.55 4.84998 14.35 4.94998 14.2L5.39998 13.6C5.59998 13.3 5.99998 13.25 6.29998 13.45C6.44998 13.55 6.49998 13.7 6.54998 13.85C6.59998 14 6.54998 14.2 6.44998 14.35L5.94998 15ZM7.54998 16.55C7.34998 16.8 6.89998 16.9 6.64998 16.7C6.39998 16.5 6.29998 16.1 6.54998 15.8L7.79998 14.1C7.99998 13.8 8.39998 13.75 8.69998 13.95C8.99998 14.15 9.04998 14.55 8.79998 14.85L7.54998 16.55ZM9.24998 18C9.14998 18.15 8.99998 18.2 8.79998 18.25C8.64998 18.25 8.44998 18.25 8.34998 18.15C8.19998 18.05 8.14998 17.9 8.09998 17.75C8.09998 17.6 8.09998 17.4 8.19998 17.25L9.54998 15.45L10.15 14.65C10.35 14.4 10.75 14.3 11.05 14.5C11.2 14.6 11.25 14.75 11.3 14.9C11.3 15.1 11.3 15.25 11.2 15.4L9.24998 18ZM11.45 18.75C11.35 18.9 11.2 19 11 19C10.85 19.05 10.65 19 10.55 18.9C10.3 18.7 10.2 18.3 10.4 18.05L11.25 16.9C11.45 16.65 11.85 16.6 12.1 16.75C12.4 16.95 12.45 17.35 12.2 17.65L11.45 18.75ZM13.25 18.95C13.15 19.1 13 19.15 12.85 19.2C12.7 19.25 12.55 19.2 12.4 19.1L13.05 18.2C13.05 18.15 13.1 18.15 13.1 18.1L13.2 18.2C13.4 18.45 13.4 18.75 13.25 18.95Z" fill="#4195B9"/>
<path d="M18.7 4.95L15.6 7.3L16.2 8.25L19.45 12.55L20.05 13.3L20.7 14.15L23.9 11.7L18.7 4.95ZM16.85 7.55L18.5 6.3L22.55 11.6L20.9 12.85L16.85 7.55Z" fill="#699C69"/>
<path d="M5.34999 4.95L0.149994 11.8L3.34999 14.25L3.89999 13.5L4.49999 12.75L7.64999 8.6L8.24999 7.8L8.59999 7.35L5.34999 4.95ZM3.14999 12.85L1.49999 11.6L5.54999 6.3L7.19999 7.55L3.14999 12.85Z" fill="#699C69"/>
</svg>
