<svg width="24" height="24" viewBox="0 0 24 24" fill="none" xmlns="http://www.w3.org/2000/svg">
<path fill-rule="evenodd" clip-rule="evenodd" d="M12 2C15.7776 2 19.1405 4.22549 20.6602 7.5892L21.3976 5.14482C21.4774 4.88047 21.7565 4.7309 22.0208 4.81074C22.2558 4.8817 22.4001 5.11005 22.3732 5.34558L22.3549 5.43394L21.2258 9.17229C21.1456 9.43799 20.8687 9.58125 20.6131 9.50959L20.5187 9.47246L17.0452 7.68777C16.7996 7.56157 16.7028 7.26015 16.829 7.01453C16.9412 6.7962 17.1918 6.69546 17.4186 6.7644L17.5022 6.79831L19.7189 7.93518C18.3452 4.9623 15.3555 3 12 3C7.8335 3 4.29971 6.01829 3.61763 10.0822C3.57192 10.3545 3.3141 10.5382 3.04177 10.4925C2.76943 10.4468 2.58572 10.189 2.63143 9.91663C3.39402 5.37301 7.34313 2 12 2Z" fill="#4195B9"/>
<path fill-rule="evenodd" clip-rule="evenodd" d="M20.9583 13.5076C21.2306 13.5533 21.4143 13.8111 21.3686 14.0835C20.606 18.6271 16.6569 22.0001 12 22.0001C8.2224 22.0001 4.85951 19.7746 3.33982 16.4109L2.60239 18.8552C2.52255 19.1195 2.24353 19.2691 1.97918 19.1893C1.7442 19.1183 1.59991 18.8899 1.62682 18.6544L1.6451 18.566L2.77417 14.8277C2.85441 14.562 3.13129 14.4187 3.38689 14.4904L3.48132 14.5275L6.95477 16.3122C7.20039 16.4384 7.2972 16.7398 7.171 16.9855C7.05882 17.2038 6.8082 17.3045 6.58138 17.2356L6.49776 17.2017L4.28102 16.0646C5.65464 19.0376 8.64445 21.0001 12 21.0001C16.1665 21.0001 19.7003 17.9818 20.3824 13.9179C20.4281 13.6456 20.6859 13.4619 20.9583 13.5076Z" fill="#699C69"/>
</svg>
