<svg width="24" height="24" viewBox="0 0 24 24" fill="none" xmlns="http://www.w3.org/2000/svg">
<path d="M16.9176 12.5626L16.83 12.56L16.7374 12.5626C16.4693 12.5775 16.2186 12.6571 16.0007 12.786L15.905 12.847V12.71C15.905 11.8089 15.1761 11.08 14.275 11.08L14.1824 11.0826C13.9679 11.0946 13.7646 11.1479 13.5802 11.2347L13.5075 11.271L13.5048 11.2362C13.4137 10.4218 12.724 9.79 11.885 9.79L11.7924 9.79258C11.5166 9.80797 11.2593 9.89172 11.0371 10.0272L10.975 10.067V7.465C10.975 6.56386 10.2461 5.835 9.345 5.835L9.25242 5.83758C8.39446 5.88547 7.715 6.59493 7.715 7.465V13.3915L7.69961 13.3846C7.51 13.3075 7.30252 13.265 7.085 13.265C6.18386 13.265 5.455 13.9939 5.455 14.895V18.805C5.455 20.8227 7.09046 22.46 9.11 22.46H15.12L15.2484 22.4575C16.6553 22.4036 17.8684 21.4675 18.2949 20.1416L18.321 20.053L18.3063 20.0895C18.4024 19.8751 18.455 19.6464 18.455 19.415V14.19L18.4524 14.0974C18.4062 13.2701 17.7449 12.6088 16.9176 12.5626ZM9.345 6.835C9.69386 6.835 9.975 7.11614 9.975 7.465V15.775C9.975 16.0511 10.1989 16.275 10.475 16.275H10.755C11.0311 16.275 11.255 16.0511 11.255 15.775V11.42C11.255 11.0711 11.5361 10.79 11.885 10.79C12.2339 10.79 12.515 11.0711 12.515 11.42V15.775C12.515 16.0511 12.7389 16.275 13.015 16.275H13.145C13.4211 16.275 13.645 16.0511 13.645 15.775V12.71C13.645 12.3611 13.9261 12.08 14.275 12.08C14.6239 12.08 14.905 12.3611 14.905 12.71V15.775C14.905 16.0511 15.1289 16.275 15.405 16.275H15.7C15.9761 16.275 16.2 16.0511 16.2 15.775V14.19L16.2032 14.1254C16.2333 13.8283 16.4683 13.5933 16.7654 13.5632L16.825 13.56C17.1739 13.56 17.455 13.8411 17.455 14.19V19.415C17.455 19.4998 17.4342 19.5903 17.3937 19.6805L17.3686 19.75C17.0875 20.7527 16.1719 21.46 15.12 21.46H9.11C7.64299 21.46 6.455 20.2707 6.455 18.805V14.895C6.455 14.5461 6.73614 14.265 7.085 14.265C7.41206 14.265 7.67959 14.5121 7.71176 14.8304L7.715 14.895C7.715 15.5617 8.715 15.5617 8.715 14.895V7.465C8.715 7.11614 8.99614 6.835 9.345 6.835Z" fill="#4195B9"/>
<path d="M8.17 13.65C8.42642 13.65 8.63776 13.843 8.66664 14.0917L8.67 14.15V16.905C8.67 17.1811 8.44614 17.405 8.17 17.405C7.91358 17.405 7.70225 17.212 7.67337 16.9633L7.67 16.905V14.15C7.67 13.8739 7.89386 13.65 8.17 13.65Z" fill="#4195B9"/>
<path d="M5.77 6.565C6.04614 6.565 6.27 6.78886 6.27 7.065C6.27 7.32142 6.07698 7.53275 5.82831 7.56164L5.77 7.565H4.08C3.80386 7.565 3.58 7.34114 3.58 7.065C3.58 6.80858 3.77302 6.59725 4.02169 6.56836L4.08 6.565H5.77Z" fill="#699C69"/>
<path d="M14.48 6.565C14.7561 6.565 14.98 6.78886 14.98 7.065C14.98 7.32142 14.787 7.53275 14.5383 7.56164L14.48 7.565H12.785C12.5089 7.565 12.285 7.34114 12.285 7.065C12.285 6.80858 12.478 6.59725 12.7267 6.56836L12.785 6.565H14.48Z" fill="#699C69"/>
<path d="M9.3 1.675C9.55642 1.675 9.76776 1.86802 9.79664 2.11669L9.8 2.175V3.865C9.8 4.14114 9.57615 4.365 9.3 4.365C9.04359 4.365 8.83225 4.17198 8.80337 3.92331L8.8 3.865V2.175C8.8 1.89886 9.02386 1.675 9.3 1.675Z" fill="#699C69"/>
<path d="M5.38645 3.17144C5.56669 2.9912 5.85031 2.97734 6.04645 3.12985L6.09356 3.17144L7.28856 4.36644C7.48382 4.56171 7.48382 4.87829 7.28856 5.07355C7.10831 5.25379 6.8247 5.26766 6.62855 5.11515L6.58145 5.07355L5.38645 3.87855C5.19119 3.68329 5.19119 3.36671 5.38645 3.17144Z" fill="#699C69"/>
<path d="M12.4322 3.17071C12.6279 2.97585 12.9444 2.97651 13.1393 3.17218C13.3192 3.3528 13.3324 3.63644 13.1795 3.83227L13.1378 3.87929L11.9378 5.07429C11.7421 5.26914 11.4256 5.26848 11.2307 5.07281C11.0508 4.89219 11.0376 4.60855 11.1905 4.41272L11.2322 4.36571L12.4322 3.17071Z" fill="#699C69"/>
</svg>
