<svg width="24" height="24" viewBox="0 0 24 24" fill="none" xmlns="http://www.w3.org/2000/svg">
<path fill-rule="evenodd" clip-rule="evenodd" d="M22 1.5C22.2761 1.5 22.5 1.72386 22.5 2V22C22.5 22.2761 22.2761 22.5 22 22.5H2C1.72386 22.5 1.5 22.2761 1.5 22V18.5H1C0.723858 18.5 0.5 18.2761 0.5 18C0.5 17.7545 0.676875 17.5504 0.910124 17.5081L1 17.5H1.5V15.5H1C0.723858 15.5 0.5 15.2761 0.5 15C0.5 14.7545 0.676875 14.5504 0.910124 14.5081L1 14.5H1.5V12.5H1C0.723858 12.5 0.5 12.2761 0.5 12C0.5 11.7545 0.676875 11.5504 0.910124 11.5081L1 11.5H1.5V9.5H1C0.723858 9.5 0.5 9.27614 0.5 9C0.5 8.75454 0.676875 8.55039 0.910124 8.50806L1 8.5H1.5V6.5H1C0.723858 6.5 0.5 6.27614 0.5 6C0.5 5.75454 0.676875 5.55039 0.910124 5.50806L1 5.5H1.5V2C1.5 1.75454 1.67688 1.55039 1.91012 1.50806L2 1.5H22ZM21.5 2.5H2.5V5.5H3C3.27614 5.5 3.5 5.72386 3.5 6C3.5 6.24546 3.32312 6.44961 3.08988 6.49194L3 6.5H2.5V8.5H3C3.27614 8.5 3.5 8.72386 3.5 9C3.5 9.24546 3.32312 9.44961 3.08988 9.49194L3 9.5H2.5V11.5H3C3.27614 11.5 3.5 11.7239 3.5 12C3.5 12.2455 3.32312 12.4496 3.08988 12.4919L3 12.5H2.5V14.5H3C3.27614 14.5 3.5 14.7239 3.5 15C3.5 15.2455 3.32312 15.4496 3.08988 15.4919L3 15.5H2.5V17.5H3C3.27614 17.5 3.5 17.7239 3.5 18C3.5 18.2455 3.32312 18.4496 3.08988 18.4919L3 18.5H2.5V21.5H21.5V2.5Z" fill="#4195B9"/>
<path fill-rule="evenodd" clip-rule="evenodd" d="M12 5.5C13.933 5.5 15.5 7.067 15.5 9C15.5 10.1646 14.9312 11.1963 14.0563 11.8326C16.6386 12.6926 18.5 15.1289 18.5 18C18.5 18.2761 18.2761 18.5 18 18.5C17.7239 18.5 17.5 18.2761 17.5 18C17.5 14.9624 15.0376 12.5 12 12.5C8.96243 12.5 6.5 14.9624 6.5 18C6.5 18.2761 6.27614 18.5 6 18.5C5.72386 18.5 5.5 18.2761 5.5 18C5.5 15.1289 7.36143 12.6926 9.94328 11.8321C9.06879 11.1963 8.5 10.1646 8.5 9C8.5 7.067 10.067 5.5 12 5.5ZM12 6.5C10.6193 6.5 9.5 7.61929 9.5 9C9.5 10.3807 10.6193 11.5 12 11.5C13.3807 11.5 14.5 10.3807 14.5 9C14.5 7.61929 13.3807 6.5 12 6.5Z" fill="#699C69"/>
</svg>
