<svg width="24" height="24" viewBox="0 0 24 24" fill="none" xmlns="http://www.w3.org/2000/svg">
<path fill-rule="evenodd" clip-rule="evenodd" d="M14 7.5C14 7.22386 14.2239 7 14.5 7C14.7761 7 15 7.22386 15 7.5V14.5C15 16.433 13.433 18 11.5 18C9.567 18 8 16.433 8 14.5V5C8 2.23858 10.2386 0 13 0C15.7614 0 18 2.23858 18 5V18C18 21.3137 15.3137 24 12 24C8.68629 24 6 21.3137 6 18V7.5C6 7.22386 6.22386 7 6.5 7C6.77614 7 7 7.22386 7 7.5V18C7 20.7614 9.23858 23 12 23C14.6888 23 16.8818 20.8777 16.9954 18.2169L17 18V5C17 2.79086 15.2091 1 13 1C10.8578 1 9.10892 2.68397 9.0049 4.80036L9 5V14.5C9 15.8807 10.1193 17 11.5 17C12.8255 17 13.91 15.9685 13.9947 14.6644L14 14.5V7.5Z" fill="#4195B9"/>
</svg>
