<svg width="24" height="24" viewBox="0 0 24 24" fill="none" xmlns="http://www.w3.org/2000/svg">
<path fill-rule="evenodd" clip-rule="evenodd" d="M17.4427 1.00324C17.7396 0.968982 18 1.20109 18 1.49994V4.74188L19.5822 5.00674C19.7932 5.0419 19.9548 5.206 19.9919 5.41022L20 5.49994V22.4999C20 22.8089 19.7226 23.0439 19.4178 22.9931L4.4178 20.4931C4.17671 20.453 4 20.2444 4 19.9999V2.99994C4 2.99621 4.00004 2.99248 4.00012 2.98877C4.00063 2.96518 4.00277 2.94102 4.00654 2.91712C4.00762 2.91203 4.0086 2.90668 4.00966 2.90136C4.04609 2.70623 4.19159 2.53221 4.44269 2.50324L4.37684 2.51509C4.39466 2.51056 4.41282 2.507 4.43126 2.50445L4.44269 2.50324L17.4427 1.00324ZM5 3.58994V19.5759L19 21.9089V5.92394L10.914 4.57588L5 3.58994ZM17 2.05994L8.081 3.08894L9.838 3.38188L17 4.57594V2.05994Z" fill="#4195B9"/>
<path fill-rule="evenodd" clip-rule="evenodd" d="M7.55692 14.007L16.6021 15.5427C16.8744 15.5889 17.0576 15.8471 17.0114 16.1194C16.9703 16.3614 16.7617 16.533 16.5247 16.5357L16.4347 16.5286L7.38953 14.9929C7.11728 14.9467 6.93406 14.6885 6.98028 14.4162C7.02137 14.1742 7.22992 14.0026 7.46696 13.9999L7.55692 14.007ZM7.58654 6.00745C7.28046 5.95362 6.99994 6.18911 6.99994 6.49989V11.4999C6.99994 11.7426 7.17428 11.9503 7.41334 11.9923L16.4133 13.575C16.7194 13.6289 16.9999 13.3934 16.9999 13.0826V8.08258C16.9999 7.83985 16.8256 7.63218 16.5865 7.59014L7.58654 6.00745ZM7.99994 7.09489L15.9999 8.50189V12.4869L7.99994 11.0799V7.09489ZM7.55692 17.0428L16.6021 18.5785C16.8744 18.6248 17.0576 18.8829 17.0114 19.1552C16.9703 19.3972 16.7617 19.5688 16.5247 19.5715L16.4347 19.5644L7.38953 18.0287C7.11728 17.9825 6.93406 17.7243 6.98028 17.4521C7.02137 17.2101 7.22992 17.0384 7.46696 17.0357L7.55692 17.0428Z" fill="#699C69"/>
</svg>
