<svg width="24" height="24" viewBox="0 0 24 24" fill="none" xmlns="http://www.w3.org/2000/svg">
<path fill-rule="evenodd" clip-rule="evenodd" d="M4.29993 1.23499C4.29993 0.958843 4.52378 0.734985 4.79993 0.734985H17.7549C19.3925 0.734985 20.7199 2.06246 20.7199 3.69999V20.45C20.7199 22.0875 19.3925 23.415 17.7549 23.415H4.79993C4.52378 23.415 4.29993 23.1911 4.29993 22.915V1.23499ZM5.29993 1.73499V22.415H17.7549C18.8402 22.415 19.7199 21.5352 19.7199 20.45V3.69999C19.7199 2.61475 18.8402 1.73499 17.7549 1.73499H5.29993Z" fill="#4195B9"/>
<path fill-rule="evenodd" clip-rule="evenodd" d="M3.31494 4.38004C3.31494 3.91612 3.69102 3.54004 4.15494 3.54004H5.52994C5.99386 3.54004 6.36994 3.91612 6.36994 4.38004C6.36994 4.84396 5.99386 5.22004 5.52994 5.22004H4.15494C3.69102 5.22004 3.31494 4.84396 3.31494 4.38004Z" fill="#4195B9"/>
<path fill-rule="evenodd" clip-rule="evenodd" d="M3.31494 7.42496C3.31494 6.96104 3.69102 6.58496 4.15494 6.58496H5.52994C5.99386 6.58496 6.36994 6.96104 6.36994 7.42496C6.36994 7.88888 5.99386 8.26496 5.52994 8.26496H4.15494C3.69102 8.26496 3.31494 7.88888 3.31494 7.42496Z" fill="#4195B9"/>
<path fill-rule="evenodd" clip-rule="evenodd" d="M3.31494 10.47C3.31494 10.0061 3.69102 9.63 4.15494 9.63H5.52994C5.99386 9.63 6.36994 10.0061 6.36994 10.47C6.36994 10.9339 5.99386 11.31 5.52994 11.31H4.15494C3.69102 11.31 3.31494 10.9339 3.31494 10.47Z" fill="#4195B9"/>
<path fill-rule="evenodd" clip-rule="evenodd" d="M3.31494 13.5149C3.31494 13.051 3.69102 12.6749 4.15494 12.6749H5.52994C5.99386 12.6749 6.36994 13.051 6.36994 13.5149C6.36994 13.9788 5.99386 14.3549 5.52994 14.3549H4.15494C3.69102 14.3549 3.31494 13.9788 3.31494 13.5149Z" fill="#4195B9"/>
<path fill-rule="evenodd" clip-rule="evenodd" d="M3.31494 16.56C3.31494 16.0961 3.69102 15.72 4.15494 15.72H5.52994C5.99386 15.72 6.36994 16.0961 6.36994 16.56C6.36994 17.0239 5.99386 17.4 5.52994 17.4H4.15494C3.69102 17.4 3.31494 17.0239 3.31494 16.56Z" fill="#4195B9"/>
<path fill-rule="evenodd" clip-rule="evenodd" d="M3.31494 19.605C3.31494 19.1411 3.69102 18.765 4.15494 18.765H5.52994C5.99386 18.765 6.36994 19.1411 6.36994 19.605C6.36994 20.0689 5.99386 20.445 5.52994 20.445H4.15494C3.69102 20.445 3.31494 20.0689 3.31494 19.605Z" fill="#4195B9"/>
<path fill-rule="evenodd" clip-rule="evenodd" d="M8.18994 7.30994C8.18994 7.03379 8.4138 6.80994 8.68994 6.80994H16.5949C16.8711 6.80994 17.0949 7.03379 17.0949 7.30994C17.0949 7.58608 16.8711 7.80994 16.5949 7.80994H8.68994C8.4138 7.80994 8.18994 7.58608 8.18994 7.30994Z" fill="#699C69"/>
<path fill-rule="evenodd" clip-rule="evenodd" d="M8.18994 9.69995C8.18994 9.42381 8.4138 9.19995 8.68994 9.19995H16.5949C16.8711 9.19995 17.0949 9.42381 17.0949 9.69995C17.0949 9.97609 16.8711 10.2 16.5949 10.2H8.68994C8.4138 10.2 8.18994 9.97609 8.18994 9.69995Z" fill="#699C69"/>
<path fill-rule="evenodd" clip-rule="evenodd" d="M8.18994 12.09C8.18994 11.8138 8.4138 11.59 8.68994 11.59H16.5949C16.8711 11.59 17.0949 11.8138 17.0949 12.09C17.0949 12.3661 16.8711 12.59 16.5949 12.59H8.68994C8.4138 12.59 8.18994 12.3661 8.18994 12.09Z" fill="#699C69"/>
<path fill-rule="evenodd" clip-rule="evenodd" d="M8.18994 14.475C8.18994 14.1988 8.4138 13.975 8.68994 13.975H16.5949C16.8711 13.975 17.0949 14.1988 17.0949 14.475C17.0949 14.7511 16.8711 14.975 16.5949 14.975H8.68994C8.4138 14.975 8.18994 14.7511 8.18994 14.475Z" fill="#699C69"/>
<path fill-rule="evenodd" clip-rule="evenodd" d="M8.18994 16.865C8.18994 16.5888 8.4138 16.365 8.68994 16.365H12.0099C12.2861 16.365 12.5099 16.5888 12.5099 16.865C12.5099 17.1411 12.2861 17.365 12.0099 17.365H8.68994C8.4138 17.365 8.18994 17.1411 8.18994 16.865Z" fill="#699C69"/>
</svg>
