<svg width="24" height="24" viewBox="0 0 24 24" fill="none" xmlns="http://www.w3.org/2000/svg">
<g clip-path="url(#clip0_108_779)">
<path d="M1.31995 13.89C1.45209 14.732 1.84975 15.5098 2.45495 16.11L6.39995 20.06C7.98299 21.6405 10.5469 21.6405 12.1299 20.06L16.0799 16.11C16.6833 15.5092 17.0792 14.7314 17.2099 13.89H1.31995Z" fill="#699C69"/>
<path fill-rule="evenodd" clip-rule="evenodd" d="M7.92897 1.52172C7.73385 1.32631 7.41727 1.32606 7.22186 1.52117C7.02645 1.71628 7.0262 2.03287 7.22131 2.22828L8.56198 3.57102L2.11514 10.0179C0.337848 11.7952 0.336069 14.6762 2.11116 16.4556L6.05726 20.4017C6.91148 21.256 8.07007 21.7359 9.27813 21.7359C10.4862 21.7359 11.6448 21.256 12.499 20.4017L16.4305 16.4702C17.2847 15.616 17.7646 14.4574 17.7646 13.2493C17.7646 12.0413 17.2847 10.8827 16.4305 10.0285L11.1621 4.76007C11.1594 4.75727 11.1567 4.75448 11.154 4.75172L7.92897 1.52172ZM2.82224 10.725L9.26752 4.27969L15.7234 10.7356C16.3901 11.4023 16.7646 12.3065 16.7646 13.2493C16.7646 14.1922 16.3901 15.0964 15.7234 15.7631L11.7919 19.6946C11.1252 20.3613 10.221 20.7359 9.27813 20.7359C8.33528 20.7359 7.43105 20.3613 6.76436 19.6946L2.81914 15.7494C1.43375 14.3606 1.43514 12.1121 2.82224 10.725Z" fill="#4195B9"/>
<path fill-rule="evenodd" clip-rule="evenodd" d="M20.1138 14.8483L19.715 15.15L19.3168 14.8478C19.4114 14.7231 19.5589 14.6499 19.7154 14.65C19.8719 14.6501 20.0193 14.7235 20.1138 14.8483ZM19.7145 16.0002C19.4802 16.3309 19.1715 16.7809 18.8635 17.2715C18.5502 17.7707 18.2434 18.3029 18.0166 18.7891C17.7809 19.2944 17.665 19.6818 17.665 19.915C17.665 21.0472 18.5829 21.965 19.715 21.965C20.8472 21.965 21.765 21.0472 21.765 19.915C21.765 19.6847 21.6494 19.2988 21.4135 18.7935C21.1867 18.3075 20.8798 17.7749 20.5664 17.275C20.2581 16.7832 19.949 16.3318 19.7145 16.0002ZM19.715 15.15C19.3168 14.8478 19.3168 14.8477 19.3168 14.8478L19.3144 14.8508L19.3085 14.8587L19.2861 14.8885C19.2667 14.9144 19.2386 14.9522 19.203 15.0005C19.1317 15.0972 19.0303 15.2364 18.9088 15.4077C18.6662 15.7497 18.3418 16.2217 18.0166 16.7398C17.6924 17.2563 17.3617 17.8275 17.1103 18.3664C16.8679 18.8863 16.665 19.4458 16.665 19.915C16.665 21.5995 18.0306 22.965 19.715 22.965C21.3995 22.965 22.765 21.5995 22.765 19.915C22.765 19.4479 22.5619 18.8893 22.3197 18.3705C22.0684 17.8322 21.7378 17.2608 21.4137 16.7438C21.0885 16.2252 20.7642 15.7522 20.5216 15.4095C20.4001 15.2379 20.2988 15.0984 20.2275 15.0014C20.1919 14.953 20.1637 14.9151 20.1444 14.8891L20.122 14.8593L20.1161 14.8514L20.1138 14.8483C20.1137 14.8483 20.1138 14.8483 19.715 15.15Z" fill="#4195B9"/>
</g>
<defs>
<clipPath id="clip0_108_779">
<rect width="24" height="24" fill="white"/>
</clipPath>
</defs>
</svg>
