<svg width="24" height="24" viewBox="0 0 24 24" fill="none" xmlns="http://www.w3.org/2000/svg">
<g clip-path="url(#clip0_108_729)">
<path fill-rule="evenodd" clip-rule="evenodd" d="M3.10999 0.76001C3.10999 0.483867 3.33384 0.26001 3.60999 0.26001H20.11C20.3861 0.26001 20.61 0.483867 20.61 0.76001V23.32C20.61 23.5962 20.3861 23.82 20.11 23.82H3.60999C3.33384 23.82 3.10999 23.5962 3.10999 23.32V0.76001ZM4.10999 1.26001V22.82H19.61V1.26001H4.10999Z" fill="#4195B9"/>
<path fill-rule="evenodd" clip-rule="evenodd" d="M6.01001 10.525C6.01001 10.2489 6.23387 10.025 6.51001 10.025H17.205C17.4812 10.025 17.705 10.2489 17.705 10.525C17.705 10.8012 17.4812 11.025 17.205 11.025H6.51001C6.23387 11.025 6.01001 10.8012 6.01001 10.525Z" fill="#4195B9"/>
<path fill-rule="evenodd" clip-rule="evenodd" d="M6.01001 13.6C6.01001 13.3238 6.23387 13.1 6.51001 13.1H17.205C17.4812 13.1 17.705 13.3238 17.705 13.6C17.705 13.8761 17.4812 14.1 17.205 14.1H6.51001C6.23387 14.1 6.01001 13.8761 6.01001 13.6Z" fill="#4195B9"/>
<path fill-rule="evenodd" clip-rule="evenodd" d="M6.01001 16.675C6.01001 16.3989 6.23387 16.175 6.51001 16.175H17.205C17.4812 16.175 17.705 16.3989 17.705 16.675C17.705 16.9512 17.4812 17.175 17.205 17.175H6.51001C6.23387 17.175 6.01001 16.9512 6.01001 16.675Z" fill="#4195B9"/>
<path fill-rule="evenodd" clip-rule="evenodd" d="M6.01001 19.75C6.01001 19.4739 6.23387 19.25 6.51001 19.25H17.205C17.4812 19.25 17.705 19.4739 17.705 19.75C17.705 20.0261 17.4812 20.25 17.205 20.25H6.51001C6.23387 20.25 6.01001 20.0261 6.01001 19.75Z" fill="#4195B9"/>
<path d="M8.37605 8.08397C7.70005 8.08397 7.18405 7.89597 6.82805 7.51997C6.47605 7.14397 6.30005 6.60997 6.30005 5.91797C6.30005 5.57397 6.35405 5.26797 6.46205 4.99997C6.57005 4.72797 6.71805 4.49997 6.90605 4.31597C7.09405 4.12797 7.31805 3.98597 7.57805 3.88997C7.83805 3.79397 8.12005 3.74597 8.42405 3.74597C8.60005 3.74597 8.76005 3.75997 8.90405 3.78797C9.04805 3.81197 9.17405 3.84197 9.28205 3.87797C9.39005 3.90997 9.48005 3.94397 9.55205 3.97997C9.62405 4.01597 9.67605 4.04397 9.70805 4.06397L9.43805 4.81997C9.31005 4.75197 9.16005 4.69397 8.98805 4.64597C8.82005 4.59797 8.62805 4.57397 8.41205 4.57397C8.26805 4.57397 8.12605 4.59797 7.98605 4.64597C7.85005 4.69397 7.72805 4.77197 7.62005 4.87997C7.51605 4.98397 7.43205 5.11997 7.36805 5.28797C7.30405 5.45597 7.27205 5.65997 7.27205 5.89997C7.27205 6.09197 7.29205 6.27197 7.33205 6.43997C7.37605 6.60397 7.44405 6.74597 7.53605 6.86597C7.63205 6.98597 7.75605 7.08197 7.90805 7.15397C8.06005 7.22197 8.24405 7.25597 8.46005 7.25597C8.59605 7.25597 8.71805 7.24797 8.82605 7.23197C8.93405 7.21597 9.03005 7.19797 9.11405 7.17797C9.19805 7.15397 9.27205 7.12797 9.33605 7.09997C9.40005 7.07197 9.45805 7.04597 9.51005 7.02197L9.76805 7.77197C9.63605 7.85197 9.45005 7.92397 9.21005 7.98797C8.97005 8.05197 8.69205 8.08397 8.37605 8.08397Z" fill="#699C69"/>
<path d="M11.6043 7.28597C11.7363 7.28597 11.8443 7.27597 11.9283 7.25597C12.0163 7.23197 12.0863 7.20197 12.1383 7.16597C12.1903 7.12597 12.2263 7.07997 12.2463 7.02797C12.2663 6.97597 12.2763 6.91797 12.2763 6.85397C12.2763 6.71797 12.2123 6.60597 12.0843 6.51797C11.9563 6.42597 11.7363 6.32797 11.4243 6.22397C11.2883 6.17597 11.1523 6.12197 11.0163 6.06197C10.8803 5.99797 10.7583 5.91997 10.6503 5.82797C10.5423 5.73197 10.4543 5.61797 10.3863 5.48597C10.3183 5.34997 10.2843 5.18597 10.2843 4.99397C10.2843 4.80197 10.3203 4.62997 10.3923 4.47797C10.4643 4.32197 10.5663 4.18997 10.6983 4.08197C10.8303 3.97397 10.9903 3.89197 11.1783 3.83597C11.3663 3.77597 11.5783 3.74597 11.8143 3.74597C12.0943 3.74597 12.3363 3.77597 12.5403 3.83597C12.7443 3.89597 12.9123 3.96197 13.0443 4.03397L12.7743 4.77197C12.6583 4.71197 12.5283 4.65997 12.3843 4.61597C12.2443 4.56797 12.0743 4.54397 11.8743 4.54397C11.6503 4.54397 11.4883 4.57597 11.3883 4.63997C11.2923 4.69997 11.2443 4.79397 11.2443 4.92197C11.2443 4.99797 11.2623 5.06197 11.2983 5.11397C11.3343 5.16597 11.3843 5.21397 11.4483 5.25797C11.5163 5.29797 11.5923 5.33597 11.6763 5.37197C11.7643 5.40397 11.8603 5.43797 11.9643 5.47397C12.1803 5.55397 12.3683 5.63397 12.5283 5.71397C12.6883 5.78997 12.8203 5.87997 12.9243 5.98397C13.0323 6.08797 13.1123 6.20997 13.1643 6.34997C13.2163 6.48997 13.2423 6.65997 13.2423 6.85997C13.2423 7.24797 13.1063 7.54997 12.8343 7.76597C12.5623 7.97797 12.1523 8.08397 11.6043 8.08397C11.4203 8.08397 11.2543 8.07197 11.1063 8.04797C10.9583 8.02797 10.8263 8.00197 10.7103 7.96997C10.5983 7.93797 10.5003 7.90397 10.4163 7.86797C10.3363 7.83197 10.2683 7.79797 10.2123 7.76597L10.4763 7.02197C10.6003 7.08997 10.7523 7.15197 10.9323 7.20797C11.1163 7.25997 11.3403 7.28597 11.6043 7.28597Z" fill="#699C69"/>
<path d="M15.1399 7.99997C14.9759 7.65197 14.8139 7.28997 14.6539 6.91397C14.4939 6.53797 14.3419 6.16597 14.1979 5.79797C14.0539 5.42997 13.9199 5.07797 13.7959 4.74197C13.6759 4.40597 13.5719 4.10597 13.4839 3.84197H14.5159C14.5959 4.08197 14.6819 4.34197 14.7739 4.62197C14.8699 4.89797 14.9659 5.17397 15.0619 5.44997C15.1619 5.72597 15.2579 5.98997 15.3499 6.24197C15.4419 6.49397 15.5279 6.71197 15.6079 6.89597C15.6839 6.71197 15.7679 6.49397 15.8599 6.24197C15.9559 5.98997 16.0519 5.72597 16.1479 5.44997C16.2479 5.17397 16.3439 4.89797 16.4359 4.62197C16.5319 4.34197 16.6199 4.08197 16.6999 3.84197H17.6959C17.6039 4.10597 17.4979 4.40597 17.3779 4.74197C17.2579 5.07797 17.1259 5.42997 16.9819 5.79797C16.8379 6.16597 16.6859 6.53797 16.5259 6.91397C16.3659 7.28997 16.2039 7.65197 16.0399 7.99997H15.1399Z" fill="#699C69"/>
</g>
<defs>
<clipPath id="clip0_108_729">
<rect width="24" height="24" fill="white"/>
</clipPath>
</defs>
</svg>
