<svg width="24" height="24" viewBox="0 0 24 24" fill="none" xmlns="http://www.w3.org/2000/svg">
<path d="M7.3498 3.60005H13.5998C13.8998 3.60005 14.1498 3.35005 14.1498 3.05005C14.1498 2.75005 13.8998 2.55005 13.5998 2.55005H7.3498C7.0498 2.55005 6.7998 2.80005 6.7998 3.10005C6.7998 3.40005 7.0498 3.60005 7.3498 3.60005Z" fill="#4195B9"/>
<path d="M15.5002 5.1C15.8002 5.1 16.0502 4.85 16.0502 4.55V1.55C16.0502 1.25 15.8002 1 15.5002 1C15.2002 1 14.9502 1.25 14.9502 1.55V4.55C15.0002 4.85 15.2002 5.1 15.5002 5.1Z" fill="#4195B9"/>
<path d="M5.5002 5.1C5.8002 5.1 6.0502 4.85 6.0502 4.55V1.55C6.0502 1.25 5.8002 1 5.5002 1C5.2002 1 4.9502 1.25 4.9502 1.55V4.55C5.0002 4.85 5.2502 5.1 5.5002 5.1Z" fill="#4195B9"/>
<path d="M23.25 15.15C22.75 14.25 22.05 13.5 21.15 13L21.05 12.95V3.05C21.05 2.8 20.85 2.6 20.6 2.55H17C16.7 2.55 16.45 2.8 16.45 3.1C16.45 3.35 16.65 3.6 16.9 3.65H19.95V12.55C19.45 12.4 18.95 12.35 18.5 12.35C15.6 12.35 13.2 14.7 13.2 17.65C13.2 18.15 13.25 18.65 13.4 19.1H1.05V3.6H3.5C3.8 3.6 4.05 3.35 4.05 3.05C4.05 2.8 3.85 2.55 3.6 2.5L0.5 2.55C0.25 2.55 0.05 2.7 0 2.95V19.6C0 19.85 0.15 20.05 0.45 20.1H13.95C14.6 21.3 15.7 22.2 17 22.6C17.5 22.75 18.05 22.85 18.6 22.85C19.45 22.85 20.3 22.65 21.05 22.25C23.55 20.95 24.6 17.75 23.25 15.15ZM22.75 17.6C22.75 19.95 20.85 21.85 18.5 21.85C16.15 21.85 14.25 19.95 14.25 17.6C14.25 15.25 16.15 13.35 18.5 13.35C20.85 13.35 22.75 15.25 22.75 17.6Z" fill="#4195B9"/>
<path d="M3.0002 8.35H18.0502C18.3502 8.35 18.6002 8.1 18.6002 7.8C18.6002 7.5 18.3502 7.25 18.0502 7.25H3.0002C2.7002 7.25 2.4502 7.5 2.4502 7.8C2.4502 8.1 2.7002 8.35 3.0002 8.35Z" fill="#699C69"/>
<path d="M14.5002 10.3H3.0002C2.7002 10.3 2.4502 10.55 2.4502 10.85C2.4502 11.15 2.7002 11.4 3.0002 11.4H14.5502C14.8502 11.4 15.1002 11.15 15.1002 10.85C15.1002 10.55 14.8002 10.3 14.5002 10.3Z" fill="#699C69"/>
<path d="M9.5002 13.3H3.0002C2.7002 13.3 2.4502 13.55 2.4502 13.85C2.4502 14.15 2.7002 14.4 3.0002 14.4H9.5002C9.8002 14.4 10.0502 14.15 10.0502 13.85C10.0502 13.55 9.8002 13.3 9.5002 13.3Z" fill="#699C69"/>
<path d="M20.35 17.8H18.6V15.35C18.6 15.05 18.35 14.8 18.05 14.8C17.75 14.8 17.5 15.05 17.5 15.35V18.35C17.5 18.5 17.55 18.6 17.65 18.7C17.75 18.8 17.9 18.85 18 18.85H20.35C20.65 18.85 20.9 18.6 20.9 18.3C20.9 18.05 20.65 17.8 20.35 17.8Z" fill="#699C69"/>
</svg>
