<svg width="24" height="24" viewBox="0 0 24 24" fill="none" xmlns="http://www.w3.org/2000/svg">
<g clip-path="url(#clip0_108_286)">
<path fill-rule="evenodd" clip-rule="evenodd" d="M18.8004 14.9702H4.95044C4.65044 14.9702 4.45044 14.7202 4.45044 14.4702C4.45044 14.1702 4.70044 13.9702 4.95044 13.9702H18.8004C19.1004 13.9702 19.3004 14.2202 19.3004 14.4702C19.3004 14.7202 19.1004 14.9702 18.8004 14.9702Z" fill="#699C69"/>
<path fill-rule="evenodd" clip-rule="evenodd" d="M18.8004 17.8701H4.95044C4.65044 17.8701 4.45044 17.6201 4.45044 17.3701C4.45044 17.0701 4.70044 16.8701 4.95044 16.8701H18.8004C19.1004 16.8701 19.3004 17.1201 19.3004 17.3701C19.3004 17.6701 19.1004 17.8701 18.8004 17.8701Z" fill="#699C69"/>
<path fill-rule="evenodd" clip-rule="evenodd" d="M18.8004 12.0698H4.95044C4.65044 12.0698 4.45044 11.8198 4.45044 11.5698C4.45044 11.2698 4.70044 11.0698 4.95044 11.0698H18.8004C19.1004 11.0698 19.3004 11.3198 19.3004 11.5698C19.3004 11.8198 19.1004 12.0698 18.8004 12.0698Z" fill="#699C69"/>
<path fill-rule="evenodd" clip-rule="evenodd" d="M18.8004 9.12012H4.95044C4.65044 9.12012 4.45044 8.87012 4.45044 8.62012C4.45044 8.32012 4.70044 8.12012 4.95044 8.12012H18.8004C19.1004 8.12012 19.3004 8.37012 19.3004 8.62012C19.3004 8.92012 19.1004 9.12012 18.8004 9.12012Z" fill="#699C69"/>
<path fill-rule="evenodd" clip-rule="evenodd" d="M18.8004 20.8198H4.95044C4.65044 20.8198 4.45044 20.5698 4.45044 20.3198C4.45044 20.0198 4.70044 19.8198 4.95044 19.8198H18.8004C19.1004 19.8198 19.3004 20.0698 19.3004 20.3198C19.3004 20.5698 19.1004 20.8198 18.8004 20.8198Z" fill="#699C69"/>
<path fill-rule="evenodd" clip-rule="evenodd" d="M3.05005 4.87002V22.42C3.05005 22.72 3.30005 22.97 3.60005 22.97H20.35C20.65 22.97 20.9 22.72 20.9 22.42V1.57002C20.9 1.27002 20.65 1.02002 20.35 1.02002H7.00005L3.05005 4.87002ZM20.35 24.02H3.60005C2.75005 24.02 2.05005 23.32 2.05005 22.47V4.47002L6.55005 0.0200195H20.35C21.2 0.0200195 21.9 0.720019 21.9 1.57002V22.42C21.95 23.32 21.25 24.02 20.35 24.02Z" fill="#4195B9"/>
<path fill-rule="evenodd" clip-rule="evenodd" d="M7.74966 5.37012H5.14966C4.84966 5.37012 4.64966 5.12012 4.64966 4.87012C4.64966 4.57012 4.89966 4.37012 5.14966 4.37012H6.69966V0.870117C6.69966 0.570117 6.94966 0.370117 7.19966 0.370117C7.49966 0.370117 7.69966 0.620117 7.69966 0.870117V5.37012" fill="#4195B9"/>
</g>
<defs>
<clipPath id="clip0_108_286">
<rect width="24" height="24" fill="white"/>
</clipPath>
</defs>
</svg>
