<svg width="24" height="24" viewBox="0 0 24 24" fill="none" xmlns="http://www.w3.org/2000/svg">
<g clip-path="url(#clip0_108_744)">
<path fill-rule="evenodd" clip-rule="evenodd" d="M1 1.5V21.5H12C12.2761 21.5 12.5 21.7239 12.5 22C12.5 22.2761 12.2761 22.5 12 22.5H0V1.5C0 0.947717 0.447715 0.5 1 0.5H17C17.5523 0.5 18 0.947715 18 1.5V10.5C18 10.7761 17.7761 11 17.5 11C17.2239 11 17 10.7761 17 10.5V1.5L1 1.5Z" fill="#4195B9"/>
<path fill-rule="evenodd" clip-rule="evenodd" d="M2.5 17C2.5 16.7239 2.72386 16.5 3 16.5H10.5C10.7761 16.5 11 16.7239 11 17C11 17.2761 10.7761 17.5 10.5 17.5H3C2.72386 17.5 2.5 17.2761 2.5 17Z" fill="#4195B9"/>
<path fill-rule="evenodd" clip-rule="evenodd" d="M2.5 14C2.5 13.7239 2.72386 13.5 3 13.5H10.5C10.7761 13.5 11 13.7239 11 14C11 14.2761 10.7761 14.5 10.5 14.5H3C2.72386 14.5 2.5 14.2761 2.5 14Z" fill="#4195B9"/>
<path fill-rule="evenodd" clip-rule="evenodd" d="M2.5 11C2.5 10.7239 2.72386 10.5 3 10.5H12C12.2761 10.5 12.5 10.7239 12.5 11C12.5 11.2761 12.2761 11.5 12 11.5H3C2.72386 11.5 2.5 11.2761 2.5 11Z" fill="#4195B9"/>
<path fill-rule="evenodd" clip-rule="evenodd" d="M9.5 7C9.5 6.72386 9.72386 6.5 10 6.5H15C15.2761 6.5 15.5 6.72386 15.5 7C15.5 7.27614 15.2761 7.5 15 7.5H10C9.72386 7.5 9.5 7.27614 9.5 7Z" fill="#4195B9"/>
<path fill-rule="evenodd" clip-rule="evenodd" d="M9.5 5C9.5 4.72386 9.72386 4.5 10 4.5H15C15.2761 4.5 15.5 4.72386 15.5 5C15.5 5.27614 15.2761 5.5 15 5.5H10C9.72386 5.5 9.5 5.27614 9.5 5Z" fill="#4195B9"/>
<path fill-rule="evenodd" clip-rule="evenodd" d="M2.5 4.5C2.5 3.94772 2.94772 3.5 3.5 3.5H7C7.55228 3.5 8 3.94772 8 4.5V7.5C8 8.05228 7.55228 8.5 7 8.5H3.5C2.94772 8.5 2.5 8.05228 2.5 7.5V4.5ZM7 4.5H3.5V7.5H7V4.5Z" fill="#4195B9"/>
<path fill-rule="evenodd" clip-rule="evenodd" d="M19.8254 15.6204C20.0351 15.8001 20.0593 16.1157 19.8796 16.3254L17.231 19.4155C16.8519 19.8577 16.1765 19.8837 15.7647 19.4718L14.6464 18.3536C14.4512 18.1583 14.4512 17.8417 14.6464 17.6465C14.8417 17.4512 15.1583 17.4512 15.3536 17.6465L16.4718 18.7647L19.1204 15.6746C19.3001 15.465 19.6157 15.4407 19.8254 15.6204Z" fill="#699C69"/>
<path fill-rule="evenodd" clip-rule="evenodd" d="M17.5 22C19.9853 22 22 19.9853 22 17.5C22 15.0147 19.9853 13 17.5 13C15.0147 13 13 15.0147 13 17.5C13 19.9853 15.0147 22 17.5 22ZM17.5 23C20.5376 23 23 20.5376 23 17.5C23 14.4624 20.5376 12 17.5 12C14.4624 12 12 14.4624 12 17.5C12 20.5376 14.4624 23 17.5 23Z" fill="#699C69"/>
</g>
<defs>
<clipPath id="clip0_108_744">
<rect width="24" height="24" fill="white"/>
</clipPath>
</defs>
</svg>
