<svg width="24" height="24" viewBox="0 0 24 24" fill="none" xmlns="http://www.w3.org/2000/svg">
<path d="M12 22H0.5V1.5C0.5 1.22386 0.723858 1 1 1H17C17.2761 1 17.5 1.22386 17.5 1.5V10.5" stroke="#4195B9" stroke-linecap="round"/>
<path d="M10.5 17H3" stroke="#4195B9" stroke-linecap="round"/>
<path d="M10.5 14H3" stroke="#4195B9" stroke-linecap="round"/>
<path d="M12 11H3" stroke="#4195B9" stroke-linecap="round"/>
<path d="M15 7H10" stroke="#4195B9" stroke-linecap="round"/>
<path d="M15 5H10" stroke="#4195B9" stroke-linecap="round"/>
<path d="M7 8H3.5C3.22386 8 3 7.77614 3 7.5V4.5C3 4.22386 3.22386 4 3.5 4H7C7.27614 4 7.5 4.22386 7.5 4.5V7.5C7.5 7.77614 7.27614 8 7 8Z" stroke="#4195B9" stroke-linecap="round"/>
<circle cx="17" cy="17" r="5.5" stroke="#699C69"/>
<path fill-rule="evenodd" clip-rule="evenodd" d="M15.2 16.125V18.375H18.8V16.125H15.2ZM14.6 15.375C14.2686 15.375 14 15.5429 14 15.75V18.75C14 18.9571 14.2686 19.125 14.6 19.125H19.4C19.7314 19.125 20 18.9571 20 18.75V15.75C20 15.5429 19.7314 15.375 19.4 15.375H14.6Z" fill="#699C69"/>
<path fill-rule="evenodd" clip-rule="evenodd" d="M16.1428 15.3754L16.1428 15.3776V15.3776L16.1428 15.3763L16.1428 15.3754ZM17.8571 15.3776L17.857 15.3749C17.8569 15.371 17.8565 15.3637 17.8557 15.3534C17.854 15.3326 17.8504 15.3004 17.8428 15.2609C17.8274 15.18 17.7974 15.0778 17.7416 14.9802C17.6867 14.8841 17.611 14.7993 17.5055 14.7378C17.4027 14.6778 17.2464 14.625 16.9999 14.625C16.7535 14.625 16.5972 14.6778 16.4944 14.7378C16.3889 14.7993 16.3132 14.8841 16.2583 14.9802C16.2025 15.0778 16.1725 15.18 16.157 15.2609C16.1495 15.3004 16.1459 15.3326 16.1442 15.3534C16.1434 15.3637 16.1429 15.3715 16.1428 15.3754L16.1428 15.3776C16.1412 15.5835 15.9499 15.75 15.7142 15.75C15.4775 15.75 15.2856 15.5821 15.2856 15.375H15.7142C15.2856 15.375 15.2856 15.375 15.2856 15.375L15.2856 15.3742L15.2856 15.3733L15.2857 15.3712L15.2857 15.3657L15.2862 15.3499C15.2867 15.3372 15.2876 15.3204 15.2892 15.2999C15.2926 15.2592 15.299 15.2035 15.3116 15.1376C15.3363 15.0075 15.3867 14.8284 15.4916 14.6448C15.5974 14.4597 15.7628 14.2632 16.0189 14.1138C16.2777 13.9628 16.6035 13.875 16.9999 13.875C17.3964 13.875 17.7222 13.9628 17.981 14.1138C18.2371 14.2632 18.4025 14.4597 18.5083 14.6448C18.6132 14.8284 18.6635 15.0075 18.6883 15.1376C18.7008 15.2035 18.7073 15.2592 18.7106 15.2999C18.7123 15.3204 18.7132 15.3372 18.7137 15.3499L18.7141 15.3657L18.7142 15.3712L18.7142 15.3733L18.7142 15.3742C18.7142 15.3742 18.7142 15.375 18.2856 15.375H18.7142C18.7142 15.5821 18.5223 15.75 18.2856 15.75C18.0499 15.75 17.8587 15.5835 17.8571 15.3776Z" fill="#699C69"/>
</svg>
