<svg width="24" height="24" viewBox="0 0 24 24" fill="none" xmlns="http://www.w3.org/2000/svg">
<path d="M9.4501 3C7.7501 3 6.3501 4.4 6.3501 6.05C6.3501 7.75 7.7501 9.15 9.4001 9.15C11.1001 9.15 12.4501 7.75 12.5001 6.1C12.5001 5.3 12.2001 4.5 11.6001 3.9C11.0501 3.3 10.2501 3 9.4501 3ZM9.4501 8.15C8.3001 8.15 7.4001 7.2 7.4001 6.1C7.4001 4.95 8.3501 4.05 9.4501 4.05C10.6001 4.05 11.5001 5 11.5001 6.1C11.5001 7.2 10.5501 8.15 9.4501 8.15Z" fill="#699C69"/>
<path d="M18.7 23.55C19.55 23.55 20.2 22.85 20.25 22.05V6.09995C20.25 5.69995 20.1 5.29995 19.8 5.04995C19.5 4.74995 19.1 4.59995 18.7 4.59995H15.1V0.949951C15.1 0.649951 14.85 0.449951 14.6 0.449951H5.35005C4.50005 0.449951 3.80005 1.14995 3.80005 1.94995V17.9C3.80005 18.75 4.50005 19.45 5.35005 19.45H8.50005H8.95005V23C8.95005 23.2 9.00005 23.35 9.15005 23.45C9.20005 23.5 9.30005 23.55 9.40005 23.55H18.7ZM15.05 19.15V5.54995H18.65C18.75 5.54995 18.9 5.59995 19 5.64995C19.1 5.74995 19.2 5.84995 19.2 5.99995V6.04995V22C19.2 22.1 19.15 22.25 19.1 22.35C19 22.45 18.9 22.5 18.75 22.55H18.7H10.9L15.05 19.15ZM9.95005 21.95V19.45L13.2 19.4L9.95005 21.95ZM5.35005 18.4C5.05005 18.4 4.85005 18.15 4.85005 17.9V1.94995C4.85005 1.64995 5.10005 1.44995 5.35005 1.44995H14.1V18.45H5.35005V18.4Z" fill="#4195B9"/>
<path d="M6.8501 15.85C6.6001 15.85 6.3501 16.05 6.3501 16.35C6.3501 16.6 6.5501 16.85 6.8501 16.85H11.9501C12.2001 16.85 12.4501 16.65 12.4501 16.35C12.4501 16.1 12.2501 15.85 11.9501 15.85H6.8501Z" fill="#4195B9"/>
<path d="M6.8501 10.7C6.6001 10.7 6.4001 10.95 6.4501 11.25C6.4501 11.5 6.6501 11.65 6.9001 11.7H12.0001C12.2501 11.7 12.4501 11.45 12.4001 11.15C12.4001 10.9 12.2001 10.7 11.9501 10.7H6.8501Z" fill="#4195B9"/>
<path d="M6.85004 13.2999C6.75004 13.2999 6.65004 13.3999 6.55004 13.4999C6.45004 13.5999 6.40004 13.7499 6.45004 13.8499C6.45004 14.0999 6.65003 14.2499 6.90003 14.2999H12C12.25 14.2999 12.45 14.0499 12.4 13.7499C12.4 13.4999 12.2 13.2999 11.95 13.2999H6.85004Z" fill="#4195B9"/>
</svg>
