<svg width="24" height="24" viewBox="0 0 24 24" fill="none" xmlns="http://www.w3.org/2000/svg">
<path fill-rule="evenodd" clip-rule="evenodd" d="M14.5145 3C14.7906 3 15.0145 3.22386 15.0145 3.5C15.0145 3.74546 14.8376 3.94961 14.6044 3.99194L14.5145 4H4V20H20V9.50189C20 9.25643 20.1769 9.05228 20.4101 9.00995L20.5 9.00189C20.7455 9.00189 20.9496 9.17877 20.9919 9.41202L21 9.50189V20.5C21 20.7455 20.8231 20.9496 20.5899 20.9919L20.5 21H3.5C3.25454 21 3.05039 20.8231 3.00806 20.5899L3 20.5V3.5C3 3.25454 3.17688 3.05039 3.41012 3.00806L3.5 3H14.5145Z" fill="#4195B9"/>
<path fill-rule="evenodd" clip-rule="evenodd" d="M19.1125 2.13433C19.3145 1.946 19.6308 1.95705 19.8192 2.159L21.8652 4.35306C22.0535 4.55502 22.0424 4.87141 21.8405 5.05974L14.6599 11.7557C14.5859 11.8247 14.4928 11.8696 14.3928 11.8846L11.7741 12.2755C11.4272 12.3273 11.1362 12.0153 11.2121 11.6729L11.7848 9.08784C11.8066 8.98909 11.858 8.89929 11.9319 8.83031L19.1125 2.13433ZM17.6 4.911L12.7277 9.45506L12.3456 11.1787L14.0917 10.9178L18.964 6.374L17.6 4.911ZM19.4291 3.20591L18.331 4.229L19.695 5.692L20.7931 4.66861L19.4291 3.20591Z" fill="#699C69"/>
</svg>
