<svg width="24" height="24" viewBox="0 0 24 24" fill="none" xmlns="http://www.w3.org/2000/svg">
<path fill-rule="evenodd" clip-rule="evenodd" d="M2.18342 5.12C1.73883 5.12 1.37842 5.48041 1.37842 5.925V18.39C1.37842 18.8346 1.73883 19.195 2.18342 19.195H21.7434C22.188 19.195 22.5484 18.8346 22.5484 18.39V5.925C22.5484 5.48041 22.188 5.12 21.7434 5.12H2.18342ZM0.378418 5.925C0.378418 4.92812 1.18654 4.12 2.18342 4.12H21.7434C22.7403 4.12 23.5484 4.92812 23.5484 5.925V18.39C23.5484 19.3869 22.7403 20.195 21.7434 20.195H2.18342C1.18654 20.195 0.378418 19.3869 0.378418 18.39V5.925Z" fill="#4195B9"/>
<path fill-rule="evenodd" clip-rule="evenodd" d="M1.01343 12.37C1.01343 12.0939 1.23729 11.87 1.51343 11.87H11.0134C11.319 11.87 11.6118 11.9931 11.8255 12.2119C12.0376 12.4289 12.1538 12.7218 12.1484 13.0251V19.665C12.1484 19.9411 11.9246 20.165 11.6484 20.165C11.3723 20.165 11.1484 19.9411 11.1484 19.665V13.02L11.1486 13.0082C11.1494 12.9718 11.1356 12.9367 11.1102 12.9107C11.0848 12.8847 11.05 12.87 11.0134 12.87H1.51343C1.23729 12.87 1.01343 12.6461 1.01343 12.37Z" fill="#4195B9"/>
<path fill-rule="evenodd" clip-rule="evenodd" d="M19.5218 8.1712C19.7172 8.36631 19.7174 8.68289 19.5223 8.8783L16.2923 12.1133C16.0972 12.3087 15.7806 12.309 15.5852 12.1139C15.3898 11.9187 15.3895 11.6022 15.5846 11.4067L18.8146 8.17174C19.0098 7.97633 19.3263 7.97609 19.5218 8.1712Z" fill="#4195B9"/>
<path fill-rule="evenodd" clip-rule="evenodd" d="M16.9534 7.76001C16.9534 7.48387 17.1772 7.26001 17.4534 7.26001H19.9934C20.2695 7.26001 20.4934 7.48387 20.4934 7.76001V10.305C20.4934 10.5812 20.2695 10.805 19.9934 10.805C19.7172 10.805 19.4934 10.5812 19.4934 10.305V8.26001H17.4534C17.1772 8.26001 16.9534 8.03615 16.9534 7.76001Z" fill="#4195B9"/>
<path fill-rule="evenodd" clip-rule="evenodd" d="M15.2784 9.43994C15.5546 9.43994 15.7784 9.6638 15.7784 9.93994V11.9799H17.8184C18.0946 11.9799 18.3184 12.2038 18.3184 12.4799C18.3184 12.7561 18.0946 12.9799 17.8184 12.9799H15.2784C15.0023 12.9799 14.7784 12.7561 14.7784 12.4799V9.93994C14.7784 9.6638 15.0023 9.43994 15.2784 9.43994Z" fill="#4195B9"/>
</svg>
