<svg width="24" height="24" viewBox="0 0 24 24" fill="none" xmlns="http://www.w3.org/2000/svg">
<g clip-path="url(#clip0_108_318)">
<path fill-rule="evenodd" clip-rule="evenodd" d="M0.584961 4.87C0.584961 4.59385 0.808819 4.37 1.08496 4.37H23.015C23.2911 4.37 23.515 4.59385 23.515 4.87V19.425C23.515 19.7011 23.2911 19.925 23.015 19.925H1.08496C0.808819 19.925 0.584961 19.7011 0.584961 19.425V4.87ZM1.58496 5.37V18.925H22.515V5.37H1.58496Z" fill="#4195B9"/>
<path fill-rule="evenodd" clip-rule="evenodd" d="M16.735 7.40002C16.735 7.12388 16.9588 6.90002 17.235 6.90002H20.26C20.5361 6.90002 20.76 7.12388 20.76 7.40002V11.055C20.76 11.3312 20.5361 11.555 20.26 11.555H17.235C16.9588 11.555 16.735 11.3312 16.735 11.055V7.40002ZM17.735 7.90002V10.555H19.76V7.90002H17.735Z" fill="#4195B9"/>
<path fill-rule="evenodd" clip-rule="evenodd" d="M13.97 14.525C13.97 14.2489 14.1938 14.025 14.47 14.025H20.515C20.7911 14.025 21.015 14.2489 21.015 14.525C21.015 14.8012 20.7911 15.025 20.515 15.025H14.47C14.1938 15.025 13.97 14.8012 13.97 14.525Z" fill="#4195B9"/>
<path fill-rule="evenodd" clip-rule="evenodd" d="M13.97 16.915C13.97 16.6389 14.1938 16.415 14.47 16.415H20.515C20.7911 16.415 21.015 16.6389 21.015 16.915C21.015 17.1912 20.7911 17.415 20.515 17.415H14.47C14.1938 17.415 13.97 17.1912 13.97 16.915Z" fill="#4195B9"/>
<path fill-rule="evenodd" clip-rule="evenodd" d="M7.49496 7.56494C6.5754 7.56494 5.82996 8.31039 5.82996 9.22994C5.82996 10.1495 6.5754 10.8949 7.49496 10.8949C8.41451 10.8949 9.15996 10.1495 9.15996 9.22994C9.15996 8.31039 8.41451 7.56494 7.49496 7.56494ZM4.82996 9.22994C4.82996 7.7581 6.02312 6.56494 7.49496 6.56494C8.96679 6.56494 10.16 7.7581 10.16 9.22994C10.16 10.7018 8.9668 11.8949 7.49496 11.8949C6.02312 11.8949 4.82996 10.7018 4.82996 9.22994Z" fill="#699C69"/>
<path fill-rule="evenodd" clip-rule="evenodd" d="M4.71147 13.0711C5.38305 12.0586 6.3413 11.35 7.48001 11.35C8.61717 11.35 9.5814 12.0556 10.2602 13.067C10.9421 14.083 11.382 15.4648 11.479 16.9882C11.4878 17.126 11.4391 17.2614 11.3446 17.3621C11.2501 17.4628 11.1181 17.52 10.98 17.52H4.01001C3.87202 17.52 3.74017 17.463 3.64567 17.3624C3.55117 17.2619 3.50242 17.1267 3.51097 16.989C3.60529 15.4694 4.03697 14.088 4.71147 13.0711ZM4.55788 16.52H10.431C10.2863 15.362 9.92157 14.3569 9.42985 13.6242C8.86112 12.7769 8.16785 12.35 7.48001 12.35C6.79372 12.35 6.10697 12.7763 5.54481 13.6239C5.05853 14.357 4.6996 15.3625 4.55788 16.52Z" fill="#699C69"/>
</g>
<defs>
<clipPath id="clip0_108_318">
<rect width="24" height="24" fill="white"/>
</clipPath>
</defs>
</svg>
