<svg width="24" height="24" viewBox="0 0 24 24" fill="none" xmlns="http://www.w3.org/2000/svg">
<g clip-path="url(#clip0_108_724)">
<path fill-rule="evenodd" clip-rule="evenodd" d="M19.0288 11.7716C19.2239 11.967 19.2238 12.2835 19.0284 12.4787L13.4084 18.0937C13.2131 18.2889 12.8965 18.2887 12.7013 18.0934C12.5062 17.898 12.5063 17.5815 12.7017 17.3863L18.3217 11.7713C18.517 11.5761 18.8336 11.5763 19.0288 11.7716Z" fill="#4195B9"/>
<path fill-rule="evenodd" clip-rule="evenodd" d="M15.175 11.92C15.175 11.6439 15.3989 11.42 15.675 11.42H18.85C19.1262 11.42 19.35 11.6439 19.35 11.92V15.1C19.35 15.3762 19.1262 15.6 18.85 15.6C18.5739 15.6 18.35 15.3762 18.35 15.1V12.42H15.675C15.3989 12.42 15.175 12.1962 15.175 11.92Z" fill="#4195B9"/>
<path fill-rule="evenodd" clip-rule="evenodd" d="M3.21497 9.97998C3.1487 9.97998 3.09497 10.0337 3.09497 10.1V20.715C3.09497 20.7813 3.14877 20.8351 3.21497 20.8351H20.5919C20.6456 20.8358 20.6973 20.8151 20.7354 20.7775C20.7735 20.7399 20.795 20.6886 20.795 20.635V10.1028C20.7938 10.0355 20.7395 9.98117 20.6722 9.97998H3.21497ZM2.09497 10.1C2.09497 9.48142 2.59641 8.97998 3.21497 8.97998H20.679C21.2933 8.98488 21.7901 9.48169 21.795 10.096L21.795 10.1L21.795 20.635C21.795 20.9562 21.6663 21.264 21.4375 21.4896C21.2096 21.7142 20.9016 21.8384 20.582 21.8351H3.21497C2.59634 21.8351 2.09497 21.3335 2.09497 20.715V10.1Z" fill="#4195B9"/>
<path fill-rule="evenodd" clip-rule="evenodd" d="M12.6996 2.13551L21.3271 9.21344C21.5406 9.38859 21.5717 9.70364 21.3965 9.91713C21.2214 10.1306 20.9063 10.1617 20.6928 9.98656L12.0628 2.90656L12.0572 2.90188C11.8915 2.76186 11.6491 2.76171 11.4833 2.90143C11.4831 2.90158 11.4829 2.90173 11.4827 2.90188L3.15889 9.98089C2.94854 10.1598 2.63298 10.1343 2.45409 9.92393C2.27519 9.71357 2.30069 9.39802 2.51105 9.21912L10.836 2.13912L10.8372 2.13812C11.3747 1.68384 12.1612 1.68296 12.6996 2.13551Z" fill="#4195B9"/>
</g>
<defs>
<clipPath id="clip0_108_724">
<rect width="24" height="24" fill="white"/>
</clipPath>
</defs>
</svg>
