<svg width="24" height="24" viewBox="0 0 24 24" fill="none" xmlns="http://www.w3.org/2000/svg">
<g clip-path="url(#clip0_108_725)">
<path fill-rule="evenodd" clip-rule="evenodd" d="M19.0288 11.7716C19.2239 11.967 19.2238 12.2835 19.0284 12.4787L13.4084 18.0937C13.2131 18.2889 12.8965 18.2887 12.7013 18.0934C12.5062 17.898 12.5063 17.5815 12.7017 17.3863L18.3217 11.7713C18.517 11.5761 18.8336 11.5763 19.0288 11.7716Z" fill="#4195B9"/>
<path fill-rule="evenodd" clip-rule="evenodd" d="M15.175 11.92C15.175 11.6439 15.3989 11.42 15.675 11.42H18.85C19.1262 11.42 19.35 11.6439 19.35 11.92V15.1C19.35 15.3762 19.1262 15.6 18.85 15.6C18.5739 15.6 18.35 15.3762 18.35 15.1V12.42H15.675C15.3989 12.42 15.175 12.1962 15.175 11.92Z" fill="#4195B9"/>
<path fill-rule="evenodd" clip-rule="evenodd" d="M3.21497 9.97998C3.1487 9.97998 3.09497 10.0337 3.09497 10.1V20.715C3.09497 20.7813 3.1487 20.835 3.21497 20.835H16.415C16.6911 20.835 16.915 21.0588 16.915 21.335C16.915 21.6111 16.6911 21.835 16.415 21.835H3.21497C2.59641 21.835 2.09497 21.3335 2.09497 20.715V10.1C2.09497 9.48142 2.59641 8.97998 3.21497 8.97998H20.679C21.2933 8.98488 21.7901 9.48169 21.795 10.096L21.795 10.1L21.795 16.355C21.795 16.6311 21.5711 16.855 21.295 16.855C21.0188 16.855 20.795 16.6311 20.795 16.355V10.1028C20.7938 10.0355 20.7395 9.98117 20.6722 9.97998H3.21497Z" fill="#4195B9"/>
<path fill-rule="evenodd" clip-rule="evenodd" d="M18.64 21.345C18.64 21.0688 18.8639 20.845 19.14 20.845H23.38C23.6562 20.845 23.88 21.0688 23.88 21.345C23.88 21.6211 23.6562 21.845 23.38 21.845H19.14C18.8639 21.845 18.64 21.6211 18.64 21.345Z" fill="#699C69"/>
<path fill-rule="evenodd" clip-rule="evenodd" d="M21.26 18.725C21.5362 18.725 21.76 18.9488 21.76 19.225V23.465C21.76 23.7411 21.5362 23.965 21.26 23.965C20.9839 23.965 20.76 23.7411 20.76 23.465V19.225C20.76 18.9488 20.9839 18.725 21.26 18.725Z" fill="#699C69"/>
<path fill-rule="evenodd" clip-rule="evenodd" d="M12.6996 2.13551L21.3271 9.21344C21.5406 9.38859 21.5717 9.70364 21.3965 9.91713C21.2214 10.1306 20.9063 10.1617 20.6928 9.98656L12.0628 2.90656L12.0572 2.90188C11.8915 2.76186 11.6491 2.76171 11.4833 2.90143C11.4831 2.90158 11.4829 2.90173 11.4827 2.90188L3.15889 9.98089C2.94854 10.1598 2.63298 10.1343 2.45409 9.92393C2.27519 9.71357 2.30069 9.39802 2.51105 9.21912L10.836 2.13912L10.8372 2.13812C11.3747 1.68384 12.1612 1.68296 12.6996 2.13551Z" fill="#4195B9"/>
</g>
<defs>
<clipPath id="clip0_108_725">
<rect width="24" height="24" fill="white"/>
</clipPath>
</defs>
</svg>
