<svg width="24" height="24" viewBox="0 0 24 24" fill="none" xmlns="http://www.w3.org/2000/svg">
<g clip-path="url(#clip0_108_723)">
<path fill-rule="evenodd" clip-rule="evenodd" d="M18.7633 15.035C16.6398 15.035 14.9183 16.7565 14.9183 18.88C14.9183 21.0036 16.6398 22.725 18.7633 22.725C20.8869 22.725 22.6083 21.0036 22.6083 18.88C22.6083 16.7565 20.8869 15.035 18.7633 15.035ZM13.9183 18.88C13.9183 16.2042 16.0875 14.035 18.7633 14.035C21.4392 14.035 23.6083 16.2042 23.6083 18.88C23.6083 21.5559 21.4392 23.725 18.7633 23.725C16.0875 23.725 13.9183 21.5559 13.9183 18.88Z" fill="#699C69"/>
<path fill-rule="evenodd" clip-rule="evenodd" d="M16.1783 18.85C16.1783 18.5738 16.4022 18.35 16.6783 18.35H20.9183C21.1945 18.35 21.4183 18.5738 21.4183 18.85C21.4183 19.1261 21.1945 19.35 20.9183 19.35H16.6783C16.4022 19.35 16.1783 19.1261 16.1783 18.85Z" fill="#699C69"/>
<path fill-rule="evenodd" clip-rule="evenodd" d="M18.7983 16.23C19.0745 16.23 19.2983 16.4538 19.2983 16.73V20.97C19.2983 21.2461 19.0745 21.47 18.7983 21.47C18.5222 21.47 18.2983 21.2461 18.2983 20.97V16.73C18.2983 16.4538 18.5222 16.23 18.7983 16.23Z" fill="#699C69"/>
<path fill-rule="evenodd" clip-rule="evenodd" d="M4.00835 3.375C3.55271 3.375 3.18335 3.74436 3.18335 4.2V20.115C3.18335 20.5706 3.55272 20.94 4.00835 20.94H12.7283C13.0045 20.94 13.2283 21.1639 13.2283 21.44C13.2283 21.7161 13.0045 21.94 12.7283 21.94H4.00835C3.00043 21.94 2.18335 21.1229 2.18335 20.115V4.2C2.18335 3.19208 3.00043 2.375 4.00835 2.375H19.9083C20.9163 2.375 21.7346 3.19012 21.7383 4.19812L21.7384 4.2L21.7383 12.52C21.7383 12.7961 21.5145 13.02 21.2383 13.02C20.9622 13.02 20.7383 12.7961 20.7383 12.52V4.20099C20.7362 3.74423 20.3652 3.375 19.9083 3.375H4.00835Z" fill="#4195B9"/>
<path fill-rule="evenodd" clip-rule="evenodd" d="M2.23328 9.15002C2.23328 8.87388 2.45713 8.65002 2.73328 8.65002H20.9833C21.2594 8.65002 21.4833 8.87388 21.4833 9.15002C21.4833 9.42617 21.2594 9.65002 20.9833 9.65002H2.73328C2.45713 9.65002 2.23328 9.42617 2.23328 9.15002Z" fill="#4195B9"/>
<path fill-rule="evenodd" clip-rule="evenodd" d="M9.56836 15.11C9.56836 14.8338 9.79222 14.61 10.0684 14.61H12.7284C13.0045 14.61 13.2284 14.8338 13.2284 15.11C13.2284 15.3861 13.0045 15.61 12.7284 15.61H10.0684C9.79222 15.61 9.56836 15.3861 9.56836 15.11Z" fill="#4195B9"/>
<path fill-rule="evenodd" clip-rule="evenodd" d="M9.90833 8.91504C10.1845 8.91504 10.4083 9.1389 10.4083 9.41504V20.965C10.4083 21.2412 10.1845 21.465 9.90833 21.465C9.63218 21.465 9.40833 21.2412 9.40833 20.965V9.41504C9.40833 9.1389 9.63218 8.91504 9.90833 8.91504Z" fill="#4195B9"/>
</g>
<defs>
<clipPath id="clip0_108_723">
<rect width="24" height="24" fill="white"/>
</clipPath>
</defs>
</svg>
