<svg width="24" height="24" viewBox="0 0 24 24" fill="none" xmlns="http://www.w3.org/2000/svg">
<g clip-path="url(#clip0_108_722)">
<path fill-rule="evenodd" clip-rule="evenodd" d="M4.01335 3.375C3.55495 3.375 3.18335 3.7466 3.18335 4.205V20.11C3.18335 20.5684 3.55495 20.94 4.01335 20.94H19.9184C20.3767 20.94 20.7484 20.5684 20.7484 20.11V4.205C20.7484 3.7466 20.3767 3.375 19.9184 3.375H4.01335ZM2.18335 4.205C2.18335 3.19432 3.00267 2.375 4.01335 2.375H19.9184C20.929 2.375 21.7484 3.19432 21.7484 4.205V20.11C21.7484 21.1207 20.929 21.94 19.9184 21.94H4.01335C3.00267 21.94 2.18335 21.1207 2.18335 20.11V4.205Z" fill="#4195B9"/>
<path fill-rule="evenodd" clip-rule="evenodd" d="M2.23328 9.15002C2.23328 8.87388 2.45713 8.65002 2.73328 8.65002H20.9833C21.2594 8.65002 21.4833 8.87388 21.4833 9.15002C21.4833 9.42617 21.2594 9.65002 20.9833 9.65002H2.73328C2.45713 9.65002 2.23328 9.42617 2.23328 9.15002Z" fill="#4195B9"/>
<path fill-rule="evenodd" clip-rule="evenodd" d="M9.56836 15.11C9.56836 14.8338 9.79222 14.61 10.0684 14.61H21.1434C21.4195 14.61 21.6434 14.8338 21.6434 15.11C21.6434 15.3861 21.4195 15.61 21.1434 15.61H10.0684C9.79222 15.61 9.56836 15.3861 9.56836 15.11Z" fill="#4195B9"/>
<path fill-rule="evenodd" clip-rule="evenodd" d="M9.90833 8.91504C10.1845 8.91504 10.4083 9.1389 10.4083 9.41504V20.965C10.4083 21.2412 10.1845 21.465 9.90833 21.465C9.63218 21.465 9.40833 21.2412 9.40833 20.965V9.41504C9.40833 9.1389 9.63218 8.91504 9.90833 8.91504Z" fill="#4195B9"/>
</g>
<defs>
<clipPath id="clip0_108_722">
<rect width="24" height="24" fill="white"/>
</clipPath>
</defs>
</svg>
