<svg width="24" height="24" viewBox="0 0 24 24" fill="none" xmlns="http://www.w3.org/2000/svg">
<g clip-path="url(#clip0_108_721)">
<path fill-rule="evenodd" clip-rule="evenodd" d="M1.60999 0.76001C1.60999 0.483867 1.83384 0.26001 2.10999 0.26001H18.615C18.8911 0.26001 19.115 0.483867 19.115 0.76001V6.41001C19.115 6.68615 18.8911 6.91001 18.615 6.91001C18.3388 6.91001 18.115 6.68615 18.115 6.41001V1.26001H2.60999V22.82H9.71499C9.99113 22.82 10.215 23.0439 10.215 23.32C10.215 23.5962 9.99113 23.82 9.71499 23.82H2.10999C1.83384 23.82 1.60999 23.5962 1.60999 23.32V0.76001Z" fill="#4195B9"/>
<path fill-rule="evenodd" clip-rule="evenodd" d="M4.51001 13.55C4.51001 13.2739 4.73387 13.05 5.01001 13.05H12.94C13.2162 13.05 13.44 13.2739 13.44 13.55C13.44 13.8262 13.2162 14.05 12.94 14.05H5.01001C4.73387 14.05 4.51001 13.8262 4.51001 13.55Z" fill="#699C69"/>
<path fill-rule="evenodd" clip-rule="evenodd" d="M10.595 10.475C10.595 10.1988 10.8188 9.97498 11.095 9.97498H15.705C15.9811 9.97498 16.205 10.1988 16.205 10.475C16.205 10.7511 15.9811 10.975 15.705 10.975H11.095C10.8188 10.975 10.595 10.7511 10.595 10.475Z" fill="#699C69"/>
<path fill-rule="evenodd" clip-rule="evenodd" d="M4.51001 10.475C4.51001 10.1988 4.73387 9.97498 5.01001 9.97498H8.36001C8.63615 9.97498 8.86001 10.1988 8.86001 10.475C8.86001 10.7511 8.63615 10.975 8.36001 10.975H5.01001C4.73387 10.975 4.51001 10.7511 4.51001 10.475Z" fill="#699C69"/>
<path fill-rule="evenodd" clip-rule="evenodd" d="M10.595 16.6899C10.595 16.4138 10.8188 16.1899 11.095 16.1899H11.675C11.9511 16.1899 12.175 16.4138 12.175 16.6899C12.175 16.9661 11.9511 17.1899 11.675 17.1899H11.095C10.8188 17.1899 10.595 16.9661 10.595 16.6899Z" fill="#699C69"/>
<path fill-rule="evenodd" clip-rule="evenodd" d="M4.51001 16.6899C4.51001 16.4138 4.73387 16.1899 5.01001 16.1899H8.36001C8.63615 16.1899 8.86001 16.4138 8.86001 16.6899C8.86001 16.9661 8.63615 17.1899 8.36001 17.1899H5.01001C4.73387 17.1899 4.51001 16.9661 4.51001 16.6899Z" fill="#699C69"/>
<path fill-rule="evenodd" clip-rule="evenodd" d="M4.51001 20.0699C4.51001 19.7938 4.73387 19.5699 5.01001 19.5699H8.36001C8.63615 19.5699 8.86001 19.7938 8.86001 20.0699C8.86001 20.3461 8.63615 20.5699 8.36001 20.5699H5.01001C4.73387 20.5699 4.51001 20.3461 4.51001 20.0699Z" fill="#699C69"/>
<path fill-rule="evenodd" clip-rule="evenodd" d="M4.51001 7.40002C4.51001 7.12388 4.73387 6.90002 5.01001 6.90002H15.705C15.9812 6.90002 16.205 7.12388 16.205 7.40002C16.205 7.67617 15.9812 7.90002 15.705 7.90002H5.01001C4.73387 7.90002 4.51001 7.67617 4.51001 7.40002Z" fill="#699C69"/>
<path fill-rule="evenodd" clip-rule="evenodd" d="M4.51001 4.32495C4.51001 4.04881 4.73387 3.82495 5.01001 3.82495H15.705C15.9812 3.82495 16.205 4.04881 16.205 4.32495C16.205 4.60109 15.9812 4.82495 15.705 4.82495H5.01001C4.73387 4.82495 4.51001 4.60109 4.51001 4.32495Z" fill="#699C69"/>
<path fill-rule="evenodd" clip-rule="evenodd" d="M19.1128 8.51075C19.2541 8.2735 19.561 8.19573 19.7982 8.33705L21.8258 9.54476C22.063 9.68608 22.1408 9.99296 21.9995 10.2302L15.1524 21.7255C15.0111 21.9627 14.7042 22.0405 14.4669 21.8992L12.4394 20.6915C12.2021 20.5501 12.1243 20.2433 12.2657 20.006L19.1128 8.51075ZM19.716 9.45206L13.3807 20.0882L14.5491 20.7842L20.8845 10.148L19.716 9.45206Z" fill="#4195B9"/>
<path fill-rule="evenodd" clip-rule="evenodd" d="M22.1407 6.70035C22.5238 6.92735 22.8008 7.29759 22.9104 7.72926C23.02 8.16104 22.9531 8.61867 22.7245 9.00099L21.725 10.6852C21.584 10.9227 21.2773 11.0009 21.0398 10.86C20.8023 10.7191 20.7241 10.4123 20.865 10.1749L21.865 8.48986L21.866 8.48818C21.9583 8.33404 21.9853 8.14946 21.9411 7.97533C21.8969 7.80119 21.7851 7.65186 21.6305 7.56041L21.6281 7.55902L21.6281 7.55902C21.474 7.46672 21.2894 7.43969 21.1153 7.48389C20.9411 7.5281 20.7918 7.63991 20.7004 7.79455L20.6996 7.79578L20.6996 7.79578L19.6996 9.47578C19.5584 9.71307 19.2515 9.79093 19.0142 9.64968C18.7769 9.50844 18.6991 9.20158 18.8403 8.96429L19.8396 7.28552C19.8397 7.2853 19.8399 7.28508 19.84 7.28485C20.067 6.90146 20.4373 6.62428 20.8692 6.51464C21.3009 6.40505 21.7584 6.47189 22.1407 6.70035Z" fill="#4195B9"/>
<path fill-rule="evenodd" clip-rule="evenodd" d="M12.7446 19.7956C13.0177 19.8368 13.2056 20.0916 13.1644 20.3646L12.8838 22.2233L14.4317 21.0424C14.6513 20.875 14.965 20.9172 15.1325 21.1367C15.3 21.3563 15.2578 21.67 15.0382 21.8375L12.5082 23.7675C12.3463 23.8911 12.1256 23.904 11.9503 23.8003C11.775 23.6965 11.6802 23.4968 11.7106 23.2953L12.1756 20.2153C12.2168 19.9423 12.4716 19.7544 12.7446 19.7956Z" fill="#4195B9"/>
</g>
<defs>
<clipPath id="clip0_108_721">
<rect width="24" height="24" fill="white"/>
</clipPath>
</defs>
</svg>
