<svg width="24" height="24" viewBox="0 0 24 24" fill="none" xmlns="http://www.w3.org/2000/svg">
<path fill-rule="evenodd" clip-rule="evenodd" d="M19.9934 6.43763L20 6.52381V22.9524C20 23.2548 19.7612 23.5 19.4667 23.5H4.53333C4.23878 23.5 4 23.2548 4 22.9524V1.04762C4 0.745177 4.23878 0.5 4.53333 0.5H14.1333C14.1637 0.5 14.1939 0.502667 14.2235 0.507875L14.1333 0.5C14.1756 0.5 14.2168 0.505054 14.2562 0.514605C14.2737 0.518986 14.2909 0.524132 14.3079 0.530149C14.3206 0.534527 14.3334 0.539638 14.3459 0.545226C14.3614 0.552304 14.3764 0.559873 14.391 0.568158C14.4005 0.573446 14.4102 0.579327 14.4196 0.585504C14.4523 0.606926 14.4827 0.631932 14.5105 0.660394L14.4654 0.619048C14.4738 0.625942 14.482 0.633093 14.49 0.640489L14.5105 0.660394L19.8438 6.13658C19.8489 6.1418 19.8538 6.14711 19.8587 6.15251C19.8688 6.16378 19.8786 6.17564 19.8879 6.18791C19.8975 6.2006 19.9064 6.21346 19.9147 6.22665C19.9212 6.23696 19.9274 6.24756 19.9333 6.25838C19.9424 6.2755 19.9509 6.29335 19.9583 6.31161C19.9625 6.32127 19.9663 6.33151 19.9699 6.34189C19.9763 6.3612 19.9817 6.3803 19.9861 6.3997C19.9881 6.40803 19.9899 6.41667 19.9914 6.42537L19.9934 6.43763ZM13.5994 1.59459L5.06667 1.59524V22.4048H18.9333L18.9327 7.07068L14.1333 7.07143C13.8715 7.07143 13.6538 6.87771 13.6086 6.62224L13.6 6.52381L13.5994 1.59459ZM18.1792 5.97609L14.6665 2.36927L14.6667 5.97619L18.1792 5.97609Z" fill="#4195B9"/>
<path fill-rule="evenodd" clip-rule="evenodd" d="M12.4789 20.7818C12.9518 20.7818 13.3945 20.7502 13.807 20.6868C14.2196 20.6234 14.5047 20.5645 14.6623 20.5102L14.5233 19.505C14.4213 19.5412 14.1918 19.591 13.8349 19.6544C13.4779 19.7178 13.0259 19.7495 12.4789 19.7495C11.7743 19.7495 11.1277 19.6476 10.5389 19.4439C9.95021 19.2401 9.44029 18.9367 9.00918 18.5338C8.57806 18.1308 8.24198 17.6282 8.00093 17.026C7.75988 16.4238 7.63935 15.7242 7.63935 14.9273C7.63935 14.1666 7.75292 13.4874 7.98007 12.8898C8.20721 12.2921 8.52476 11.7872 8.93269 11.3752C9.34063 10.9631 9.82737 10.6462 10.3929 10.4243C10.9585 10.2025 11.5796 10.0915 12.2564 10.0915C12.9332 10.0915 13.5428 10.2002 14.0852 10.4175C14.6276 10.6349 15.0888 10.9337 15.4689 11.3141C15.849 11.6944 16.1411 12.1359 16.3451 12.6385C16.549 13.1411 16.651 13.6776 16.651 14.2481C16.651 14.5922 16.6232 14.9296 16.5676 15.2601C16.5119 15.5906 16.4262 15.8872 16.3103 16.1498C16.1944 16.4124 16.0461 16.6253 15.8653 16.7883C15.6845 16.9513 15.4736 17.0328 15.2325 17.0328C15.0656 17.0328 14.9312 16.9739 14.8292 16.8562C14.7272 16.7385 14.6762 16.5347 14.6762 16.2449V12.0883C14.463 12.0159 14.1594 11.9434 13.7653 11.871C13.3713 11.7985 12.9379 11.7623 12.465 11.7623C11.9644 11.7623 11.5171 11.8438 11.123 12.0068C10.729 12.1698 10.3952 12.394 10.1217 12.6792C9.84823 12.9645 9.64194 13.2995 9.50287 13.6844C9.3638 14.0693 9.29427 14.479 9.29427 14.9137C9.29427 15.4299 9.36844 15.8827 9.51678 16.2721C9.66512 16.6615 9.87372 16.9897 10.1426 17.2569C10.4115 17.524 10.729 17.7255 11.0952 17.8614C11.4614 17.9972 11.867 18.0651 12.3121 18.0651C12.5995 18.0651 12.8869 18.0266 13.1743 17.9497C13.4617 17.8727 13.7074 17.7799 13.9114 17.6712C14.0411 17.807 14.2034 17.9157 14.3981 17.9972C14.5928 18.0787 14.8385 18.1195 15.1352 18.1195C15.506 18.1195 15.8583 18.038 16.1921 17.8749C16.5258 17.7119 16.8133 17.4697 17.0543 17.1482C17.2954 16.8267 17.4877 16.4306 17.6314 15.9597C17.7751 15.4888 17.847 14.9454 17.847 14.3296C17.847 13.5146 17.6987 12.7833 17.402 12.1359C17.1053 11.4884 16.702 10.936 16.1921 10.4787C15.6822 10.0213 15.0888 9.6727 14.412 9.43272C13.7352 9.19274 13.0167 9.07275 12.2564 9.07275C11.4776 9.07275 10.7383 9.19501 10.0383 9.43951C9.33831 9.68402 8.72177 10.0485 8.18867 10.533C7.65558 11.0175 7.23142 11.6265 6.91619 12.36C6.60097 13.0935 6.44336 13.9493 6.44336 14.9273C6.44336 15.9415 6.60329 16.8177 6.92315 17.5557C7.243 18.2938 7.67644 18.9005 8.22344 19.3759C8.77044 19.8514 9.41016 20.2045 10.1426 20.4355C10.875 20.6664 11.6538 20.7818 12.4789 20.7818ZM12.3538 17.0192C11.816 17.0192 11.3896 16.829 11.0743 16.4487C10.7591 16.0683 10.6015 15.5567 10.6015 14.9137C10.6015 14.307 10.7638 13.8044 11.0883 13.4059C11.4127 13.0075 11.9041 12.8083 12.5624 12.8083C12.7571 12.8083 12.9332 12.8173 13.0908 12.8354C13.2485 12.8535 13.3551 12.8716 13.4107 12.8898V16.0819C13.4107 16.1906 13.4153 16.3038 13.4246 16.4215C13.4339 16.5392 13.4524 16.6569 13.4802 16.7747C13.3226 16.8562 13.1442 16.9173 12.9448 16.9581C12.7455 16.9988 12.5485 17.0192 12.3538 17.0192Z" fill="#699C69"/>
</svg>
