<svg width="24" height="24" viewBox="0 0 24 24" fill="none" xmlns="http://www.w3.org/2000/svg">
<g clip-path="url(#clip0_108_720)">
<path fill-rule="evenodd" clip-rule="evenodd" d="M1.54004 8.71497C1.81618 8.71497 2.04004 8.93882 2.04004 9.21497V22.135H19.075C19.3512 22.135 19.575 22.3588 19.575 22.635C19.575 22.9111 19.3512 23.135 19.075 23.135H1.54004C1.2639 23.135 1.04004 22.9111 1.04004 22.635V9.21497C1.04004 8.93882 1.2639 8.71497 1.54004 8.71497Z" fill="#4195B9"/>
<path fill-rule="evenodd" clip-rule="evenodd" d="M17.78 12.51C18.0562 12.51 18.28 12.7339 18.28 13.01V22.635C18.28 22.9112 18.0562 23.135 17.78 23.135C17.5039 23.135 17.28 22.9112 17.28 22.635V13.01C17.28 12.7339 17.5039 12.51 17.78 12.51Z" fill="#4195B9"/>
<path fill-rule="evenodd" clip-rule="evenodd" d="M1.04004 10.72C1.04004 10.4438 1.2639 10.22 1.54004 10.22H15.275C15.5512 10.22 15.775 10.4438 15.775 10.72C15.775 10.9961 15.5512 11.22 15.275 11.22H1.54004C1.2639 11.22 1.04004 10.9961 1.04004 10.72Z" fill="#4195B9"/>
<path fill-rule="evenodd" clip-rule="evenodd" d="M1.27856 12.1329C1.49236 11.9581 1.80736 11.9898 1.98212 12.2036L7.11603 18.4847C7.2814 18.3408 7.48612 18.1626 7.70315 17.9733C8.22852 17.5149 8.8211 16.9956 9.10461 16.7392C9.11177 16.7327 9.11912 16.7265 9.12664 16.7204C10.2365 15.8279 11.8454 15.9409 12.8196 16.9772C13.3583 17.4857 14.6252 18.7004 15.7589 19.7895C16.3302 20.3383 16.8685 20.8559 17.2638 21.2363L17.911 21.8591L17.9116 21.8597C17.9116 21.8597 17.9118 21.8599 17.629 22.1535L17.9116 21.8597C18.1105 22.0512 18.1167 22.3679 17.9252 22.5668C17.7336 22.7658 17.4171 22.7717 17.2182 22.5802L17.5001 22.2874C17.2182 22.5802 17.2182 22.5802 17.2182 22.5802L16.5705 21.9569C16.1753 21.5767 15.6372 21.0593 15.0661 20.5106C13.9229 19.4124 12.6498 18.1918 12.1219 17.6937C12.1138 17.6862 12.1061 17.6783 12.0986 17.6702C11.4857 17.0101 10.4689 16.9331 9.76387 17.4913C9.46833 17.7581 8.87716 18.2761 8.36057 18.7268C8.09809 18.9558 7.85363 19.1685 7.67481 19.324L7.38295 19.5774C7.28086 19.666 7.14693 19.7098 7.01228 19.6982C6.87762 19.6867 6.75338 19.6211 6.66785 19.5165L1.20785 12.8365C1.03309 12.6227 1.06475 12.3077 1.27856 12.1329Z" fill="#4195B9"/>
<path fill-rule="evenodd" clip-rule="evenodd" d="M22.33 21.0649C22.6062 21.0649 22.83 21.2888 22.83 21.5649V22.5649C22.83 22.8411 22.6062 23.0649 22.33 23.0649H21.15C20.8739 23.0649 20.65 22.8411 20.65 22.5649C20.65 22.2888 20.8739 22.0649 21.15 22.0649H21.83V21.5649C21.83 21.2888 22.0539 21.0649 22.33 21.0649Z" fill="#699C69"/>
<path fill-rule="evenodd" clip-rule="evenodd" d="M22.33 3.82996C22.6061 3.82996 22.83 4.05381 22.83 4.32996V5.50496C22.83 5.7811 22.6061 6.00496 22.33 6.00496C22.0538 6.00496 21.83 5.7811 21.83 5.50496V4.32996C21.83 4.05381 22.0538 3.82996 22.33 3.82996ZM22.33 7.35496C22.6061 7.35496 22.83 7.57881 22.83 7.85496V10.205C22.83 10.4811 22.6061 10.705 22.33 10.705C22.0538 10.705 21.83 10.4811 21.83 10.205V7.85496C21.83 7.57881 22.0538 7.35496 22.33 7.35496ZM22.33 12.055C22.6061 12.055 22.83 12.2788 22.83 12.555V14.905C22.83 15.1811 22.6061 15.405 22.33 15.405C22.0538 15.405 21.83 15.1811 21.83 14.905V12.555C21.83 12.2788 22.0538 12.055 22.33 12.055ZM22.33 16.755C22.6061 16.755 22.83 16.9788 22.83 17.255V18.43C22.83 18.7061 22.6061 18.93 22.33 18.93C22.0538 18.93 21.83 18.7061 21.83 18.43V17.255C21.83 16.9788 22.0538 16.755 22.33 16.755Z" fill="#699C69"/>
<path fill-rule="evenodd" clip-rule="evenodd" d="M20.83 1.76001C20.83 1.48387 21.0538 1.26001 21.33 1.26001H22.33C22.6061 1.26001 22.83 1.48387 22.83 1.76001V2.76001C22.83 3.03615 22.6061 3.26001 22.33 3.26001C22.0538 3.26001 21.83 3.03615 21.83 2.76001V2.26001H21.33C21.0538 2.26001 20.83 2.03615 20.83 1.76001Z" fill="#699C69"/>
<path fill-rule="evenodd" clip-rule="evenodd" d="M3.59497 1.76001C3.59497 1.48387 3.81883 1.26001 4.09497 1.26001H5.27039C5.54653 1.26001 5.77039 1.48387 5.77039 1.76001C5.77039 2.03615 5.54653 2.26001 5.27039 2.26001H4.09497C3.81883 2.26001 3.59497 2.03615 3.59497 1.76001ZM7.12122 1.76001C7.12122 1.48387 7.34508 1.26001 7.62122 1.26001H9.97205C10.2482 1.26001 10.4721 1.48387 10.4721 1.76001C10.4721 2.03615 10.2482 2.26001 9.97205 2.26001H7.62122C7.34508 2.26001 7.12122 2.03615 7.12122 1.76001ZM11.8229 1.76001C11.8229 1.48387 12.0467 1.26001 12.3229 1.26001H14.6737C14.9499 1.26001 15.1737 1.48387 15.1737 1.76001C15.1737 2.03615 14.9499 2.26001 14.6737 2.26001H12.3229C12.0467 2.26001 11.8229 2.03615 11.8229 1.76001ZM16.5246 1.76001C16.5246 1.48387 16.7484 1.26001 17.0246 1.26001H18.2C18.4761 1.26001 18.7 1.48387 18.7 1.76001C18.7 2.03615 18.4761 2.26001 18.2 2.26001H17.0246C16.7484 2.26001 16.5246 2.03615 16.5246 1.76001Z" fill="#699C69"/>
<path fill-rule="evenodd" clip-rule="evenodd" d="M1.03003 1.76001C1.03003 1.48387 1.25389 1.26001 1.53003 1.26001H2.53003C2.80617 1.26001 3.03003 1.48387 3.03003 1.76001C3.03003 2.03615 2.80617 2.26001 2.53003 2.26001H2.03003V2.76001C2.03003 3.03615 1.80617 3.26001 1.53003 3.26001C1.25389 3.26001 1.03003 3.03615 1.03003 2.76001V1.76001Z" fill="#699C69"/>
<path fill-rule="evenodd" clip-rule="evenodd" d="M1.53003 5.17004C1.80617 5.17004 2.03003 5.3939 2.03003 5.67004V6.67004C2.03003 6.94619 1.80617 7.17004 1.53003 7.17004C1.25389 7.17004 1.03003 6.94619 1.03003 6.67004V5.67004C1.03003 5.3939 1.25389 5.17004 1.53003 5.17004Z" fill="#699C69"/>
</g>
<defs>
<clipPath id="clip0_108_720">
<rect width="24" height="24" fill="white"/>
</clipPath>
</defs>
</svg>
