<svg width="24" height="24" viewBox="0 0 24 24" fill="none" xmlns="http://www.w3.org/2000/svg">
<g clip-path="url(#clip0_108_719)">
<path d="M23.5 0.0200195H0.5C0.2 0.0200195 0 0.22002 0 0.52002V5.92002V23.52C0 23.82 0.2 24.02 0.5 24.02H10.85H23.5C23.8 24.02 24 23.82 24 23.52V0.52002C24 0.22002 23.8 0.0200195 23.5 0.0200195ZM1 23.02V10.32H14.9V23.02H1ZM23 23.02H15.9V9.82002C15.9 9.52002 15.7 9.32002 15.4 9.32002H1V1.02002H23V23.02Z" fill="#4195B9"/>
<path d="M20.7001 4.02002L20.75 5.22002C20.75 5.37002 20.9 5.52002 21.05 5.52002H21.1C21.25 5.47002 21.35 5.37002 21.35 5.22002L21.3 3.32002C21.3 3.22002 21.2501 3.17002 21.2001 3.12002C21.1001 3.07002 21 3.02002 20.9 3.02002L19 3.07002C18.85 3.07002 18.7001 3.22002 18.7001 3.37002C18.7001 3.52002 18.85 3.67002 19 3.67002L20.2001 3.62002L16.9501 7.12002L16.9 5.92002C16.9 5.77002 16.75 5.62002 16.6 5.62002C16.45 5.62002 16.3 5.77002 16.3 5.92002L16.35 7.82002C16.35 7.92002 16.4 8.02002 16.5 8.07002C16.55 8.12002 16.6001 8.12002 16.7001 8.12002L18.6 8.07002H18.65C18.8 8.02002 18.9 7.92002 18.9 7.77002C18.9 7.62002 18.75 7.47002 18.6 7.47002L17.4501 7.52002L20.7001 4.02002Z" fill="#699C69"/>
</g>
<defs>
<clipPath id="clip0_108_719">
<rect width="24" height="24" fill="white"/>
</clipPath>
</defs>
</svg>
