<svg width="24" height="24" viewBox="0 0 24 24" fill="none" xmlns="http://www.w3.org/2000/svg">
<g clip-path="url(#clip0_108_718)">
<path fill-rule="evenodd" clip-rule="evenodd" d="M10.8886 13.0665C11.0839 13.2618 11.0839 13.5783 10.8886 13.7736L5.2736 19.3886C5.07834 19.5839 4.76175 19.5839 4.56649 19.3886C4.37123 19.1933 4.37123 18.8768 4.56649 18.6815L10.1815 13.0665C10.3768 12.8712 10.6933 12.8712 10.8886 13.0665Z" fill="#4195B9"/>
<path fill-rule="evenodd" clip-rule="evenodd" d="M4.745 15.5601C5.02114 15.5601 5.245 15.7839 5.245 16.0601V18.7351H7.92C8.19614 18.7351 8.42 18.9589 8.42 19.2351C8.42 19.5112 8.19614 19.7351 7.92 19.7351H4.745C4.46885 19.7351 4.245 19.5112 4.245 19.2351V16.0601C4.245 15.7839 4.46885 15.5601 4.745 15.5601Z" fill="#4195B9"/>
<path fill-rule="evenodd" clip-rule="evenodd" d="M3.21497 9.97998C3.1487 9.97998 3.09497 10.0337 3.09497 10.1V20.715C3.09497 20.7813 3.14877 20.8351 3.21497 20.8351H20.5919C20.6456 20.8358 20.6973 20.8151 20.7354 20.7775C20.7735 20.7399 20.795 20.6886 20.795 20.635V10.1028C20.7938 10.0355 20.7395 9.98117 20.6722 9.97998H3.21497ZM2.09497 10.1C2.09497 9.48142 2.59641 8.97998 3.21497 8.97998H20.679C21.2933 8.98488 21.7901 9.48169 21.795 10.096L21.795 10.1L21.795 20.635C21.795 20.9562 21.6663 21.264 21.4375 21.4896C21.2096 21.7142 20.9016 21.8384 20.582 21.8351H3.21497C2.59634 21.8351 2.09497 21.3335 2.09497 20.715V10.1Z" fill="#4195B9"/>
<path fill-rule="evenodd" clip-rule="evenodd" d="M12.6996 2.13551L21.3271 9.21344C21.5406 9.38859 21.5717 9.70364 21.3965 9.91713C21.2214 10.1306 20.9063 10.1617 20.6928 9.98656L12.0628 2.90656L12.0572 2.90188C11.8915 2.76186 11.6491 2.76171 11.4833 2.90143C11.4831 2.90158 11.4829 2.90173 11.4827 2.90188L3.15889 9.98089C2.94854 10.1598 2.63298 10.1343 2.45409 9.92393C2.27519 9.71357 2.30069 9.39802 2.51105 9.21912L10.836 2.13912L10.8372 2.13812C11.3747 1.68384 12.1612 1.68296 12.6996 2.13551Z" fill="#4195B9"/>
</g>
<defs>
<clipPath id="clip0_108_718">
<rect width="24" height="24" fill="white"/>
</clipPath>
</defs>
</svg>
