<svg width="24" height="24" viewBox="0 0 24 24" fill="none" xmlns="http://www.w3.org/2000/svg">
<g clip-path="url(#clip0_108_717)">
<path d="M23 5.3C22.1 4.75 20.9 5.05 20.35 5.95L18.6 9V6.6C18.6 6.35 18.4 6.1 18.1 6.1C17.85 6.1 17.65 6.3 17.6 6.55V10.7L12.45 19.6C12.45 19.65 12.4 19.7 12.4 19.75L12.05 23H1.05005V1H17.6V2.4C17.6 2.65 17.8 2.9 18.1 2.9C18.35 2.9 18.55 2.7 18.6 2.45V0.5C18.6 0.25 18.4 0.05 18.15 0H0.550049C0.300049 0 0.100049 0.2 0.0500488 0.45V23.5C0.0500488 23.75 0.250049 23.95 0.500049 24H18.1C18.35 24 18.55 23.8 18.6 23.55V16.95L23.75 8.05C24.25 7.1 23.95 5.85 23 5.3ZM13.55 19.65L20.35 7.85L22.1 8.85L15.3 20.65L13.55 19.65ZM14 23L15.75 21.7C15.8 21.65 15.8 21.65 15.85 21.6L17.55 18.65V23H14ZM13.1 22.45L13.3 20.65L14.6 21.4L13.1 22.45ZM22.9 7.45L22.6 7.95L20.85 6.95L21.1 6.5C21.25 6.25 21.45 6.1 21.7 6.05C21.95 6 22.25 6 22.45 6.15C22.95 6.45 23.1 7 22.9 7.45Z" fill="#4195B9"/>
<path d="M14.1001 12.85H4.6001C4.3501 12.85 4.1001 13.05 4.1001 13.35C4.1001 13.6 4.3001 13.85 4.6001 13.85H14.0501C14.3001 13.85 14.5501 13.65 14.5501 13.35C14.6001 13.05 14.3501 12.85 14.1001 12.85Z" fill="#699C69"/>
<path d="M12.0501 15.45H9.1001C8.8501 15.45 8.6001 15.65 8.6001 15.95C8.6001 16.2 8.8001 16.45 9.1001 16.45H12.0501C12.3001 16.45 12.5501 16.25 12.5501 15.95C12.5501 15.7 12.3501 15.45 12.0501 15.45Z" fill="#699C69"/>
<path d="M8.7501 18.1H4.6001C4.3501 18.1 4.1001 18.3 4.1001 18.6C4.1001 18.85 4.3001 19.1 4.6001 19.1H8.7001C8.9501 19.1 9.2001 18.9 9.2001 18.6C9.2501 18.3 9.0001 18.1 8.7501 18.1Z" fill="#699C69"/>
<path d="M7.0501 15.45H4.6001C4.3501 15.45 4.1001 15.65 4.1001 15.95C4.1001 16.2 4.3001 16.45 4.6001 16.45H7.0001C7.2501 16.45 7.5001 16.25 7.5001 15.95C7.5001 15.7 7.3001 15.45 7.0501 15.45Z" fill="#699C69"/>
<path d="M12.6001 6.00002L11.1001 5.90002C10.9501 5.90002 10.8501 5.80002 10.8001 5.65002L10.2001 4.25002C10.1001 3.95002 9.6501 3.95002 9.5001 4.25002L8.9001 5.65002C8.8501 5.75002 8.7501 5.85002 8.6001 5.90002L7.1001 6.00002C6.7501 6.05002 6.6501 6.45002 6.9001 6.65002L8.0501 7.65002C8.1501 7.75002 8.2001 7.90002 8.1501 8.00002L7.8001 9.45002C7.7501 9.75002 8.1001 10 8.4001 9.85002L9.7001 9.05002C9.8001 9.00002 9.9501 9.00002 10.1001 9.05002L11.4001 9.85002C11.7001 10 12.0501 9.75002 11.9501 9.45002L11.6001 8.00002C11.5501 7.85002 11.6001 7.70002 11.7001 7.65002L12.8501 6.65002C13.0501 6.45002 12.9501 6.05002 12.6001 6.00002Z" fill="#699C69"/>
</g>
<defs>
<clipPath id="clip0_108_717">
<rect width="24" height="24" fill="white"/>
</clipPath>
</defs>
</svg>
