<svg width="24" height="24" viewBox="0 0 24 24" fill="none" xmlns="http://www.w3.org/2000/svg">
<g clip-path="url(#clip0_108_716)">
<path fill-rule="evenodd" clip-rule="evenodd" d="M3.295 6.26501C2.23461 6.26501 1.375 7.12463 1.375 8.18502V20.275C1.375 21.3354 2.23461 22.195 3.295 22.195H20.94C22.0004 22.195 22.86 21.3354 22.86 20.275V8.18502C22.86 7.12463 22.0004 6.26501 20.94 6.26501H3.295ZM0.375 8.18502C0.375 6.57234 1.68233 5.26501 3.295 5.26501H20.94C22.5527 5.26501 23.86 6.57234 23.86 8.18502V20.275C23.86 21.8877 22.5527 23.195 20.94 23.195H3.295C1.68233 23.195 0.375 21.8877 0.375 20.275V8.18502Z" fill="#4195B9"/>
<path fill-rule="evenodd" clip-rule="evenodd" d="M12.15 1.79004C10.0016 1.79004 8.26001 3.53165 8.26001 5.68004C8.26001 5.95618 8.03615 6.18004 7.76001 6.18004C7.48387 6.18004 7.26001 5.95618 7.26001 5.68004C7.26001 2.97937 9.44934 0.790039 12.15 0.790039C14.8507 0.790039 17.04 2.97937 17.04 5.68004C17.04 5.95618 16.8162 6.18004 16.54 6.18004C16.2639 6.18004 16.04 5.95618 16.04 5.68004C16.04 3.53165 14.2984 1.79004 12.15 1.79004Z" fill="#4195B9"/>
<path fill-rule="evenodd" clip-rule="evenodd" d="M0.559391 8.48778C0.731796 8.27207 1.04643 8.23696 1.26214 8.40937C3.80695 10.4433 6.87192 11.7215 10.1078 12.0983C10.3821 12.1302 10.5786 12.3785 10.5466 12.6528C10.5147 12.9271 10.2664 13.1235 9.99214 13.0916C6.57018 12.6931 3.32896 11.3414 0.637803 9.19052C0.422092 9.01812 0.386986 8.70349 0.559391 8.48778Z" fill="#4195B9"/>
<path fill-rule="evenodd" clip-rule="evenodd" d="M23.4322 8.71643C23.5999 8.93583 23.558 9.24962 23.3386 9.41731C20.6518 11.4708 17.4502 12.7425 14.0867 13.0924C13.812 13.1209 13.5662 12.9214 13.5376 12.6468C13.5091 12.3721 13.7086 12.1263 13.9832 12.0977C17.1636 11.7669 20.1908 10.5644 22.7313 8.62278C22.9507 8.4551 23.2645 8.49703 23.4322 8.71643Z" fill="#4195B9"/>
<path fill-rule="evenodd" clip-rule="evenodd" d="M9.71997 10.0601C9.71997 9.78392 9.94383 9.56006 10.22 9.56006H13.945C14.2211 9.56006 14.445 9.78392 14.445 10.0601V14.4801C14.445 14.7562 14.2211 14.9801 13.945 14.9801H10.22C9.94383 14.9801 9.71997 14.7562 9.71997 14.4801V10.0601ZM10.72 10.5601V13.9801H13.445V10.5601H10.72Z" fill="#699C69"/>
</g>
<defs>
<clipPath id="clip0_108_716">
<rect width="24" height="24" fill="white"/>
</clipPath>
</defs>
</svg>
