<svg width="24" height="24" viewBox="0 0 24 24" fill="none" xmlns="http://www.w3.org/2000/svg">
<g clip-path="url(#clip0_108_715)">
<path fill-rule="evenodd" clip-rule="evenodd" d="M3.10999 0.76001C3.10999 0.483867 3.33384 0.26001 3.60999 0.26001H20.11C20.3861 0.26001 20.61 0.483867 20.61 0.76001V23.32C20.61 23.5962 20.3861 23.82 20.11 23.82H3.60999C3.33384 23.82 3.10999 23.5962 3.10999 23.32V0.76001ZM4.10999 1.26001V22.82H19.61V1.26001H4.10999Z" fill="#4195B9"/>
<path d="M11.63 3.19994C11.5839 3.13569 11.5091 3.09828 11.43 3.09994H10.84C10.7257 3.0983 10.6248 3.17449 10.595 3.28494L10.01 5.55494V5.62494L9.92004 5.97994C9.89004 5.84494 9.86004 5.70494 9.82504 5.57494L9.25504 3.28994C9.22725 3.1775 9.12586 3.09887 9.01005 3.09994H8.40504C8.29131 3.09692 8.19108 3.17418 8.16504 3.28494L7.56504 5.55494C7.52004 5.71494 7.48004 5.86994 7.44004 6.01994L7.33504 5.56494L6.80004 3.29494C6.77635 3.18129 6.67614 3.09985 6.56004 3.09994H5.94504C5.8688 3.09954 5.79672 3.13466 5.75004 3.19494C5.7012 3.25513 5.68444 3.33521 5.70504 3.40994L6.84004 7.90994C6.86941 8.02135 6.96983 8.09923 7.08504 8.09997H7.69004C7.80442 8.10158 7.90532 8.02539 7.93504 7.91494L8.57004 5.57994C8.60504 5.46494 8.63504 5.34994 8.66504 5.24494C8.69004 5.34994 8.71504 5.45494 8.74004 5.56994L9.31005 7.90994C9.33577 8.0216 9.43546 8.10052 9.55005 8.09997H10.16C10.2712 8.09997 10.3689 8.02661 10.4 7.91994L11.675 3.41994C11.6957 3.34362 11.679 3.26203 11.63 3.19994Z" fill="#699C69"/>
<path fill-rule="evenodd" clip-rule="evenodd" d="M12.775 7.32495C12.775 7.04881 12.9989 6.82495 13.275 6.82495H17.205C17.4812 6.82495 17.705 7.04881 17.705 7.32495C17.705 7.60109 17.4812 7.82495 17.205 7.82495H13.275C12.9989 7.82495 12.775 7.60109 12.775 7.32495Z" fill="#4195B9"/>
<path fill-rule="evenodd" clip-rule="evenodd" d="M6.01001 10.525C6.01001 10.2489 6.23387 10.025 6.51001 10.025H17.205C17.4812 10.025 17.705 10.2489 17.705 10.525C17.705 10.8012 17.4812 11.025 17.205 11.025H6.51001C6.23387 11.025 6.01001 10.8012 6.01001 10.525Z" fill="#4195B9"/>
<path fill-rule="evenodd" clip-rule="evenodd" d="M6.01001 13.6C6.01001 13.3238 6.23387 13.1 6.51001 13.1H17.205C17.4812 13.1 17.705 13.3238 17.705 13.6C17.705 13.8761 17.4812 14.1 17.205 14.1H6.51001C6.23387 14.1 6.01001 13.8761 6.01001 13.6Z" fill="#4195B9"/>
<path fill-rule="evenodd" clip-rule="evenodd" d="M6.01001 16.675C6.01001 16.3989 6.23387 16.175 6.51001 16.175H17.205C17.4812 16.175 17.705 16.3989 17.705 16.675C17.705 16.9512 17.4812 17.175 17.205 17.175H6.51001C6.23387 17.175 6.01001 16.9512 6.01001 16.675Z" fill="#4195B9"/>
<path fill-rule="evenodd" clip-rule="evenodd" d="M6.01001 19.75C6.01001 19.4739 6.23387 19.25 6.51001 19.25H17.205C17.4812 19.25 17.705 19.4739 17.705 19.75C17.705 20.0261 17.4812 20.25 17.205 20.25H6.51001C6.23387 20.25 6.01001 20.0261 6.01001 19.75Z" fill="#4195B9"/>
</g>
<defs>
<clipPath id="clip0_108_715">
<rect width="24" height="24" fill="white"/>
</clipPath>
</defs>
</svg>
