<svg width="24" height="24" viewBox="0 0 24 24" fill="none" xmlns="http://www.w3.org/2000/svg">
<path fill-rule="evenodd" clip-rule="evenodd" d="M8.47483 7.35351C8.64839 7.52707 8.66768 7.7965 8.53268 7.99137L8.47483 8.06061L6.35351 10.1819C6.15824 10.3772 5.84166 10.3772 5.6464 10.1819C5.47283 10.0084 5.45355 9.73894 5.58854 9.54407L5.6464 9.47483L7.76772 7.35351C7.96298 7.15824 8.27956 7.15824 8.47483 7.35351ZM7.06061 5.93929C7.23418 6.11286 7.25346 6.38228 7.11847 6.57715L7.06061 6.6464L5.6464 8.06061C5.45114 8.25588 5.13456 8.25588 4.93929 8.06061C4.76573 7.88705 4.74644 7.61762 4.88144 7.42275L4.93929 7.35351L6.35351 5.93929C6.54877 5.74403 6.86535 5.74403 7.06061 5.93929ZM18.0208 16.8994C18.1943 17.073 18.2136 17.3424 18.0786 17.5373L18.0208 17.6066L16.6066 19.0208C16.4113 19.216 16.0947 19.216 15.8994 19.0208C15.7259 18.8472 15.7066 18.5778 15.8416 18.3829L15.8994 18.3137L17.3137 16.8994C17.5089 16.7042 17.8255 16.7042 18.0208 16.8994ZM16.6066 15.4852C16.7801 15.6588 16.7994 15.9282 16.6644 16.1231L16.6066 16.1923L14.4852 18.3137C14.29 18.5089 13.9734 18.5089 13.7781 18.3137C13.6046 18.1401 13.5853 17.8707 13.7203 17.6758L13.7781 17.6066L15.8994 15.4852C16.0947 15.29 16.4113 15.29 16.6066 15.4852Z" fill="#699C69"/>
<path fill-rule="evenodd" clip-rule="evenodd" d="M20.3136 3.13303L20.4588 3.25933L20.6029 3.39711C21.7511 4.54527 21.797 5.81092 20.7407 6.96848L20.6029 7.1126L17.887 9.827L21.4529 17.6701L21.4836 17.7574C21.5215 17.9053 21.4929 18.0629 21.4055 18.1881L21.3461 18.2591L19.8599 19.7453L19.7888 19.8049C19.5893 19.9445 19.3173 19.9275 19.1367 19.7643L19.0736 19.6963L14.236 13.477L10.4674 17.247L11.7842 19.8818C11.8564 20.0263 11.8568 20.1922 11.7929 20.3336L11.7469 20.415L11.6858 20.4883L9.82801 22.3461C9.617 22.5571 9.27971 22.5469 9.08027 22.3416L9.01926 22.266L6.387 18.319L5.93932 18.7678C5.74406 18.963 5.42748 18.963 5.23221 18.7678C5.05865 18.5942 5.03936 18.3248 5.17436 18.1299L5.23221 18.0607L5.68 17.612L1.73401 14.9808C1.51106 14.8321 1.44304 14.5487 1.54886 14.3217L1.59673 14.2395L1.65393 14.172L3.51167 12.3143C3.64875 12.1772 3.84783 12.1285 4.0293 12.181L4.11821 12.2158L6.75191 13.5315L10.521 9.762L4.30365 4.92642C4.07912 4.75179 4.03806 4.43561 4.19502 4.21119L4.25469 4.14011L5.74089 2.65392C5.87364 2.52116 6.06504 2.47093 6.24259 2.51636L6.32987 2.54711L14.172 6.112L16.8874 3.3971C17.9877 2.29679 19.196 2.20876 20.3136 3.13303ZM17.7535 4.02269L17.6305 4.1402L7.22716 14.5436C7.09008 14.6806 6.891 14.7294 6.70953 14.6768L6.62062 14.642L3.98684 13.3241L2.85065 14.4603L6.438 16.854L8.06064 15.2322C8.2559 15.037 8.57249 15.037 8.76775 15.2322C8.94131 15.4058 8.9606 15.6752 8.8256 15.8701L8.76775 15.9393L7.145 17.561L9.53854 21.1482L10.6747 20.012L9.35803 17.3794C9.28578 17.2349 9.28537 17.069 9.34931 16.9277L9.39534 16.8462L9.45646 16.7729L19.8598 6.3695C20.6454 5.5839 20.6454 4.9258 19.8598 4.1402C19.1156 3.39595 18.4857 3.35678 17.7535 4.02269ZM17.094 10.62L14.985 12.728L19.5383 18.5811L20.3461 17.7733L17.094 10.62ZM6.22738 3.65359L5.41889 4.46208L11.27 9.013L13.378 6.905L6.22738 3.65359Z" fill="#4195B9"/>
</svg>
