<svg width="24" height="24" viewBox="0 0 24 24" fill="none" xmlns="http://www.w3.org/2000/svg">
<path fill-rule="evenodd" clip-rule="evenodd" d="M11.7243 1.85498C10.9147 1.85385 10.1378 2.17468 9.56489 2.74679C8.99197 3.3189 8.67004 4.09533 8.67004 4.90499V9.21499C8.67004 9.49113 8.44619 9.71499 8.17004 9.71499C7.8939 9.71499 7.67004 9.49113 7.67004 9.21499V4.90499C7.67004 3.82987 8.09752 2.79887 8.85828 2.03919C9.61903 1.2795 10.6506 0.853474 11.7257 0.854984L11.725 1.35498V0.854984C11.7253 0.854984 11.7255 0.854984 11.7257 0.854984C12.7996 0.85517 13.8295 1.28185 14.5888 2.04121C15.3483 2.80073 15.775 3.83086 15.775 4.90499V9.21499C15.775 9.49113 15.5512 9.71499 15.275 9.71499C14.9989 9.71499 14.775 9.49113 14.775 9.21499V4.90499C14.775 4.09608 14.4537 3.3203 13.8817 2.74831C13.3097 2.17632 12.534 1.85498 11.725 1.85498L11.7243 1.85498Z" fill="#4195B9"/>
<path fill-rule="evenodd" clip-rule="evenodd" d="M6.25 18.515C6.25 18.2389 6.47386 18.015 6.75 18.015H9.805C10.0811 18.015 10.305 18.2389 10.305 18.515C10.305 18.7912 10.0811 19.015 9.805 19.015H6.75C6.47386 19.015 6.25 18.7912 6.25 18.515Z" fill="#699C69"/>
<path fill-rule="evenodd" clip-rule="evenodd" d="M6.25 20.545C6.25 20.2689 6.47386 20.045 6.75 20.045H9.805C10.0811 20.045 10.305 20.2689 10.305 20.545C10.305 20.8212 10.0811 21.045 9.805 21.045H6.75C6.47386 21.045 6.25 20.8212 6.25 20.545Z" fill="#699C69"/>
<path fill-rule="evenodd" clip-rule="evenodd" d="M9.66003 7.17004C9.66003 6.8939 9.88389 6.67004 10.16 6.67004H16.26C16.5362 6.67004 16.76 6.8939 16.76 7.17004C16.76 7.44619 16.5362 7.67004 16.26 7.67004H10.16C9.88389 7.67004 9.66003 7.44619 9.66003 7.17004Z" fill="#4195B9"/>
<path fill-rule="evenodd" clip-rule="evenodd" d="M7.33918 6.66504L7.34 6.66504L7.895 6.66504C8.17114 6.66504 8.395 6.8889 8.395 7.16504C8.395 7.44118 8.17114 7.66504 7.895 7.66504H7.34044C6.74536 7.66621 6.24854 8.11936 6.1928 8.71187L5.00779 21.167C5.00777 21.1672 5.0078 21.1669 5.00779 21.167C4.97766 21.4871 5.08289 21.8056 5.29802 22.0446C5.51269 22.283 5.8172 22.4209 6.13796 22.4251H17.445L17.4474 22.4251C17.7714 22.4266 18.0808 22.2908 18.2991 22.0513C18.5173 21.8119 18.6239 21.4911 18.5924 21.1687L17.4072 8.7124C17.3811 8.4375 17.5827 8.19344 17.8576 8.16729C18.1325 8.14113 18.3766 8.34278 18.4028 8.61768L19.5876 21.0714C19.5876 21.0716 19.5877 21.0717 19.5877 21.0719C19.6466 21.6758 19.4469 22.2764 19.0382 22.7249C18.6295 23.1733 18.0501 23.4277 17.4435 23.4251H6.12962C5.52831 23.4186 4.95718 23.1606 4.55483 22.7137C4.15248 22.2667 3.95569 21.6717 4.01221 21.073L5.1972 8.61821C5.19721 8.6181 5.19719 8.61832 5.1972 8.61821C5.30137 7.51263 6.22866 6.66687 7.33918 6.66504Z" fill="#4195B9"/>
</svg>
