<svg width="24" height="24" viewBox="0 0 24 24" fill="none" xmlns="http://www.w3.org/2000/svg">
<g clip-path="url(#clip0_113_494)">
<path d="M16.9175 12.5627L16.83 12.5601L16.7374 12.5627C16.4693 12.5776 16.2186 12.6572 16.0006 12.7861L15.905 12.8471V12.7101C15.905 11.8089 15.1761 11.0801 14.275 11.0801L14.1824 11.0827C13.9679 11.0946 13.7645 11.148 13.5802 11.2348L13.5075 11.2711L13.5047 11.2363C13.4136 10.4219 12.724 9.79008 11.885 9.79008L11.7924 9.79266C11.5166 9.80806 11.2593 9.8918 11.037 10.0273L10.975 10.0671V7.46508C10.975 6.56394 10.2461 5.83508 9.34496 5.83508L9.25237 5.83766C8.39441 5.88555 7.71496 6.59501 7.71496 7.46508V13.3916L7.69957 13.3847C7.50995 13.3075 7.30247 13.2651 7.08496 13.2651C6.18381 13.2651 5.45496 13.9939 5.45496 14.8951V18.8051C5.45496 20.8228 7.09042 22.4601 9.10996 22.4601H15.12L15.2484 22.4576C16.6552 22.4037 17.8684 21.4675 18.2948 20.1416L18.321 20.0531L18.3062 20.0896C18.4023 19.8752 18.455 19.6465 18.455 19.4151V14.1901L18.4524 14.0975C18.4062 13.2702 17.7449 12.6088 16.9175 12.5627ZM9.34496 6.83508C9.69381 6.83508 9.97496 7.11623 9.97496 7.46508V15.7751C9.97496 16.0512 10.1988 16.2751 10.475 16.2751H10.755C11.0311 16.2751 11.255 16.0512 11.255 15.7751V11.4201C11.255 11.0712 11.5361 10.7901 11.885 10.7901C12.2338 10.7901 12.515 11.0712 12.515 11.4201V15.7751C12.515 16.0512 12.7388 16.2751 13.015 16.2751H13.145C13.4211 16.2751 13.645 16.0512 13.645 15.7751V12.7101C13.645 12.3612 13.9261 12.0801 14.275 12.0801C14.6238 12.0801 14.905 12.3612 14.905 12.7101V15.7751C14.905 16.0512 15.1288 16.2751 15.405 16.2751H15.7C15.9761 16.2751 16.2 16.0512 16.2 15.7751V14.1901L16.2032 14.1255C16.2332 13.8284 16.4683 13.5933 16.7654 13.5633L16.825 13.5601C17.1738 13.5601 17.455 13.8412 17.455 14.1901V19.4151C17.455 19.4999 17.4341 19.5904 17.3937 19.6806L17.3685 19.7501C17.0874 20.7528 16.1719 21.4601 15.12 21.4601H9.10996C7.64295 21.4601 6.45496 20.2708 6.45496 18.8051V14.8951C6.45496 14.5462 6.7361 14.2651 7.08496 14.2651C7.41201 14.2651 7.67955 14.5122 7.71171 14.8305L7.71496 14.8951C7.71496 15.5618 8.71496 15.5618 8.71496 14.8951V7.46508C8.71496 7.11623 8.9961 6.83508 9.34496 6.83508Z" fill="#4195B9"/>
<path d="M8.16992 13.65C8.42634 13.65 8.63768 13.843 8.66656 14.0917L8.66992 14.15V16.905C8.66992 17.1812 8.44606 17.405 8.16992 17.405C7.9135 17.405 7.70217 17.212 7.67329 16.9633L7.66992 16.905V14.15C7.66992 13.8739 7.89378 13.65 8.16992 13.65Z" fill="#4195B9"/>
<path d="M5.76996 6.56506C6.0461 6.56506 6.26996 6.78892 6.26996 7.06506C6.26996 7.32148 6.07694 7.53282 5.82827 7.5617L5.76996 7.56506H4.07996C3.80381 7.56506 3.57996 7.34121 3.57996 7.06506C3.57996 6.80865 3.77298 6.59731 4.02165 6.56843L4.07996 6.56506H5.76996Z" fill="#699C69"/>
<path d="M14.4799 6.56506C14.7561 6.56506 14.9799 6.78892 14.9799 7.06506C14.9799 7.32148 14.7869 7.53282 14.5382 7.5617L14.4799 7.56506H12.7849C12.5088 7.56506 12.2849 7.34121 12.2849 7.06506C12.2849 6.80865 12.4779 6.59731 12.7266 6.56843L12.7849 6.56506H14.4799Z" fill="#699C69"/>
<path d="M9.29993 1.67505C9.55634 1.67505 9.76768 1.86807 9.79656 2.11674L9.79993 2.17505V3.86505C9.79993 4.14119 9.57607 4.36505 9.29993 4.36505C9.04351 4.36505 8.83217 4.17203 8.80329 3.92336L8.79993 3.86505V2.17505C8.79993 1.89891 9.02378 1.67505 9.29993 1.67505Z" fill="#699C69"/>
<path d="M5.38644 3.17147C5.56668 2.99123 5.85029 2.97736 6.04644 3.12988L6.09354 3.17147L7.28854 4.36647C7.48381 4.56173 7.48381 4.87832 7.28854 5.07358C7.1083 5.25382 6.82469 5.26768 6.62854 5.11517L6.58144 5.07358L5.38644 3.87858C5.19117 3.68332 5.19117 3.36673 5.38644 3.17147Z" fill="#699C69"/>
<path d="M12.4321 3.17073C12.6278 2.97588 12.9444 2.97654 13.1393 3.17221C13.3191 3.35283 13.3324 3.63647 13.1795 3.8323L13.1378 3.87932L11.9378 5.07432C11.7421 5.26917 11.4255 5.26851 11.2307 5.07284C11.0508 4.89222 11.0375 4.60858 11.1905 4.41275L11.2321 4.36573L12.4321 3.17073Z" fill="#699C69"/>
</g>
<defs>
<clipPath id="clip0_113_494">
<rect width="24" height="24" fill="white"/>
</clipPath>
</defs>
</svg>
