<svg width="24" height="24" viewBox="0 0 24 24" fill="none" xmlns="http://www.w3.org/2000/svg">
<g clip-path="url(#clip0_113_504)">
<path fill-rule="evenodd" clip-rule="evenodd" d="M11.85 17.92C11.7 17.77 11.5 17.77 11.35 17.92L10.6 18.67C10.45 18.82 10.45 19.02 10.6 19.17C10.65 19.22 10.75 19.27 10.85 19.27C10.95 19.27 11.05 19.22 11.1 19.17L11.85 18.42C12 18.32 12 18.07 11.85 17.92Z" fill="#699C69"/>
<path fill-rule="evenodd" clip-rule="evenodd" d="M11.05 17.1201C10.9 16.9701 10.7 16.9701 10.55 17.1201L9.8 17.8701C9.65 18.0201 9.65 18.2201 9.8 18.3701C9.85 18.4201 9.95 18.4701 10.05 18.4701C10.15 18.4701 10.25 18.4201 10.3 18.3701L11.05 17.6201C11.2 17.4701 11.2 17.2701 11.05 17.1201Z" fill="#699C69"/>
<path fill-rule="evenodd" clip-rule="evenodd" d="M12.7001 18.7701C12.5501 18.6201 12.3501 18.6201 12.2001 18.7701L11.4001 19.5201C11.2501 19.6701 11.2501 19.8701 11.4001 20.0201C11.4501 20.0701 11.5501 20.1201 11.6501 20.1201C11.7501 20.1201 11.8501 20.0701 11.9001 20.0201L12.6501 19.2701C12.8501 19.1201 12.8501 18.9201 12.7001 18.7701Z" fill="#699C69"/>
<path fill-rule="evenodd" clip-rule="evenodd" d="M13.5001 19.6201C13.3501 19.4701 13.1501 19.4701 13.0001 19.6201L12.2501 20.3701C12.1001 20.5201 12.1001 20.7201 12.2501 20.8701C12.3001 20.9201 12.4001 20.9701 12.5001 20.9701C12.6001 20.9701 12.7001 20.9201 12.7501 20.8701L13.5001 20.1201C13.6501 19.9701 13.6501 19.7201 13.5001 19.6201Z" fill="#699C69"/>
<path fill-rule="evenodd" clip-rule="evenodd" d="M6.4001 8.52009C6.4001 8.47009 6.4001 8.42009 6.3501 8.37009L5.7001 7.72009L6.3501 7.07009C6.4001 7.02009 6.4001 6.97009 6.4001 6.92009C6.4001 6.87009 6.4001 6.82009 6.3501 6.77009L6.0501 6.52009C6.0001 6.47009 5.9501 6.47009 5.9001 6.47009C5.8501 6.47009 5.8001 6.47009 5.7501 6.52009L5.1001 7.17009L4.5001 6.52009C4.4501 6.47009 4.4001 6.47009 4.3501 6.47009C4.3001 6.47009 4.2501 6.47009 4.2001 6.52009L3.9001 6.82009C3.8501 6.87009 3.8501 6.92009 3.8501 6.97009C3.8501 7.02009 3.8501 7.07009 3.9001 7.12009L4.5501 7.77009L3.9001 8.42009C3.8501 8.47009 3.8501 8.52009 3.8501 8.57009C3.8501 8.62009 3.8501 8.67009 3.9001 8.72009L4.2001 9.02009C4.2501 9.02009 4.3001 9.02009 4.3501 9.02009C4.4001 9.02009 4.4501 9.02009 4.5001 8.97009L5.1501 8.32009L5.8001 8.97009C5.8501 9.02009 5.9001 9.02009 5.9501 9.02009C6.0001 9.02009 6.0501 9.02009 6.1001 8.97009L6.4001 8.67009C6.4001 8.62009 6.4001 8.57009 6.4001 8.52009Z" fill="#699C69"/>
<path fill-rule="evenodd" clip-rule="evenodd" d="M20.75 15.92C21 15.97 21.3 15.82 21.35 15.57L22.65 10.42C22.65 10.37 22.65 10.32 22.65 10.27L22.5 6.36999C22.5 6.21999 22.4 6.06999 22.25 5.96999L20.65 4.91999C20.5 4.81999 20.15 4.86999 20 5.11999L19 6.66999C18.85 6.91999 18.9 7.21999 19.1 7.36999C19.15 7.41999 19.9 7.96999 19.9 8.86999C19.9 9.16999 19.9 9.41999 19.85 9.66999V9.91999L18.7 9.16999C18.55 9.06999 18.4 9.06999 18.25 9.11999C18.1 9.16999 18 9.31999 17.95 9.46999L17.2 12.67C17.15 12.82 17.2 12.92 17.25 13.07C17.3 13.17 17.45 13.27 17.55 13.27C17.8 13.32 18.1 13.17 18.15 12.92L18.75 10.42L19.9 11.22C20.05 11.32 20.2 11.32 20.35 11.27C20.5 11.22 20.6 11.12 20.65 10.97C20.7 10.87 20.9 10.17 20.9 8.96999C20.9 8.11999 20.5 7.46999 20.1 7.06999L20.05 6.96999L20.6 6.16999L21.55 6.81999L21.7 10.37L20.4 15.47C20.35 15.62 20.4 15.72 20.45 15.87C20.55 15.82 20.65 15.92 20.75 15.92Z" fill="#4195B9"/>
<path fill-rule="evenodd" clip-rule="evenodd" d="M11.05 6.62005C11.1 6.62005 14.5 5.57005 17.65 4.72005C18.8 4.42005 19.75 3.92005 20.4 3.32005C21.1 2.72005 21.3 2.12005 21.4 1.82005C21.5 1.47005 21.45 1.17005 21.3 0.970049C21.25 0.920049 21.05 0.720049 20.25 0.520049C19.85 0.420049 19.15 0.220049 18.15 0.0700489C16.9 -0.129951 14 0.670049 13.65 0.770049L7.45003 2.27005C7.20003 2.32005 7.00003 2.62005 7.10003 2.87005C7.15003 3.02005 7.20003 3.12005 7.35003 3.17005C7.45003 3.22005 7.60003 3.27005 7.75003 3.22005L13.9 1.67005C14.65 1.47005 16.6 1.02005 17.65 1.02005C17.75 1.02005 17.9 1.02005 18 1.02005C19.3 1.22005 20.05 1.47005 20.3 1.57005L20.45 1.62005L20.4 1.77005C20.35 1.92005 20.2 2.17005 19.95 2.42005C19.25 3.12005 18.2 3.52005 17.45 3.72005C14.3 4.57005 10.85 5.62005 10.85 5.62005C10.6 5.72005 10.45 5.97005 10.5 6.27005C10.5 6.52005 10.8 6.67005 11.05 6.62005Z" fill="#4195B9"/>
<path fill-rule="evenodd" clip-rule="evenodd" d="M21.35 19.9201C21.35 19.0701 21 18.2701 20.4 17.6701L6.40005 3.52007C5.80005 2.92007 5.00005 2.57007 4.15005 2.57007C3.30005 2.57007 2.50005 2.92007 1.90005 3.52007L1.00005 4.42007C0.400049 5.02007 0.0500488 5.82007 0.0500488 6.67007C0.0500488 7.52007 0.400049 8.32007 1.00005 8.92007L8.80005 16.8701C9.00005 17.0701 9.30005 17.0701 9.50005 16.8701C9.70005 16.6701 9.70005 16.3701 9.50005 16.1701L1.70005 8.22007C1.30005 7.82007 1.05005 7.27007 1.05005 6.67007C1.05005 6.07007 1.30005 5.52007 1.70005 5.12007L2.60005 4.22007C3.00005 3.82007 3.55005 3.57007 4.15005 3.57007C4.75005 3.57007 5.30005 3.82007 5.70005 4.22007L19.7 18.3701C20.1 18.7701 20.35 19.3201 20.35 19.9201C20.35 20.5201 20.1 21.0701 19.7 21.4701L18.8 22.3701C18.4 22.7701 17.85 23.0201 17.25 23.0201C16.65 23.0201 16.1 22.7701 15.7 22.3701L14.75 21.4201C14.65 21.3201 14.55 21.2701 14.4 21.2701C14.25 21.2701 14.15 21.3201 14.05 21.4201C13.85 21.6201 13.85 21.9201 14.05 22.1201L15 23.0701C15.6 23.6701 16.4 24.0201 17.25 24.0201C18.1 24.0201 18.9 23.6701 19.5 23.0701L20.4 22.1701C21 21.5701 21.35 20.7701 21.35 19.9201Z" fill="#4195B9"/>
</g>
<defs>
<clipPath id="clip0_113_504">
<rect width="24" height="24" fill="white"/>
</clipPath>
</defs>
</svg>
