<svg width="24" height="24" viewBox="0 0 24 24" fill="none" xmlns="http://www.w3.org/2000/svg">
<path fill-rule="evenodd" clip-rule="evenodd" d="M16.275 2C17.3016 2 18.2645 2.48099 18.8813 3.29184C18.9585 3.40015 19 3.52984 19 3.66285V20C19 21.1046 18.1046 22 17 22C15.8954 22 15 21.1046 15 20V14H13.5C13.2239 14 13 13.7761 13 13.5V5.27502C13 3.46628 14.4663 2 16.275 2ZM17.8779 3.66047C17.4552 3.24081 16.8802 3 16.275 3C15.0186 3 14 4.01856 14 5.27502V13H16V20C16 20.5523 16.4477 21 17 21C17.5523 21 18 20.5523 18 20V3.79167L17.8779 3.66047ZM10.5 2C10.7761 2 11 2.22386 11 2.5V10C11 10.5128 10.614 10.9355 10.1166 10.9933L10 11V20C10 21.1046 9.10457 22 8 22C6.89543 22 6 21.1046 6 20V11C5.44772 11 5 10.5523 5 10L5 2.5C5 2.22386 5.22386 2 5.5 2C5.77614 2 6 2.22386 6 2.5V10H7.5V2.5C7.5 2.22386 7.72386 2 8 2C8.27614 2 8.5 2.22386 8.5 2.5V10H10V2.5C10 2.22386 10.2239 2 10.5 2ZM9 11H7V20C7 20.5523 7.44772 21 8 21C8.55228 21 9 20.5523 9 20V11Z" fill="#4195B9"/>
<path fill-rule="evenodd" clip-rule="evenodd" d="M18.5 13.5V20C18.5 20.4142 18.3321 20.7892 18.0607 21.0607C17.7892 21.3321 17.4142 21.5 17 21.5C16.5858 21.5 16.2108 21.3321 15.9393 21.0607C15.6679 20.7892 15.5 20.4142 15.5 20V13.5H18.5Z" stroke="#4195B9"/>
<path fill-rule="evenodd" clip-rule="evenodd" d="M15 5.5C15.2761 5.5 15.5 5.72386 15.5 6V12C15.5 12.2761 15.2761 12.5 15 12.5C14.7239 12.5 14.5 12.2761 14.5 12V6C14.5 5.72386 14.7239 5.5 15 5.5ZM8 17C8.27614 17 8.5 17.2239 8.5 17.5V19.5C8.5 19.7761 8.27614 20 8 20C7.72386 20 7.5 19.7761 7.5 19.5V17.5C7.5 17.2239 7.72386 17 8 17Z" fill="#699C69"/>
</svg>
