<svg width="24" height="24" viewBox="0 0 24 24" fill="none" xmlns="http://www.w3.org/2000/svg">
<path fill-rule="evenodd" clip-rule="evenodd" d="M9.55277 2.77638C9.67627 2.52939 9.97661 2.42928 10.2236 2.55277C10.4431 2.66255 10.5466 2.91205 10.4802 3.1396L10.4472 3.22359L7.4472 9.22359C7.32371 9.47058 7.02337 9.5707 6.77638 9.4472C6.55684 9.33743 6.45334 9.08793 6.51979 8.86037L6.55277 8.77638L9.55277 2.77638Z" fill="#4195B9"/>
<path fill-rule="evenodd" clip-rule="evenodd" d="M14.4472 2.77638C14.3237 2.52939 14.0234 2.42928 13.7764 2.55277C13.5569 2.66255 13.4534 2.91205 13.5198 3.1396L13.5528 3.22359L16.5528 9.22359C16.6763 9.47058 16.9766 9.5707 17.2236 9.4472C17.4432 9.33743 17.5467 9.08793 17.4802 8.86037L17.4472 8.77638L14.4472 2.77638Z" fill="#4195B9"/>
<path fill-rule="evenodd" clip-rule="evenodd" d="M22 8.5H2C1.72386 8.5 1.5 8.72386 1.5 9V12C1.5 12.2761 1.72386 12.5 2 12.5H22C22.2761 12.5 22.5 12.2761 22.5 12V9C22.5 8.72386 22.2761 8.5 22 8.5ZM21.5 9.5V11.5H2.5V9.5H21.5Z" fill="#4195B9"/>
<path fill-rule="evenodd" clip-rule="evenodd" d="M21 11.5H3C2.67472 11.5 2.43604 11.8057 2.51493 12.1213L4.76493 21.1213C4.82058 21.3439 5.02057 21.5 5.25 21.5H18.75C18.9794 21.5 19.1794 21.3439 19.2351 21.1213L21.4851 12.1213C21.564 11.8057 21.3253 11.5 21 11.5ZM20.359 12.5L18.359 20.5H5.64L3.64 12.5H20.359Z" fill="#4195B9"/>
<path fill-rule="evenodd" clip-rule="evenodd" d="M16.5212 13.8563C16.6006 13.5918 16.8793 13.4417 17.1438 13.5211C17.3789 13.5916 17.5236 13.8197 17.4972 14.0553L17.4791 14.1437L15.9791 19.1437C15.8997 19.4082 15.621 19.5583 15.3565 19.4789C15.1214 19.4084 14.9766 19.1803 15.0031 18.9447L15.0212 18.8563L16.5212 13.8563ZM7.47892 13.8563C7.39957 13.5918 7.12083 13.4417 6.85634 13.5211C6.62123 13.5916 6.47651 13.8197 6.50299 14.0553L6.5211 14.1437L8.0211 19.1437C8.10045 19.4082 8.37919 19.5583 8.64368 19.4789C8.87879 19.4084 9.02351 19.1803 8.99703 18.9447L8.97892 18.8563L7.47892 13.8563ZM12 13.5C12.2455 13.5 12.4496 13.6769 12.492 13.9101L12.5 14V19C12.5 19.2762 12.2762 19.5 12 19.5C11.7545 19.5 11.5504 19.3231 11.5081 19.0899L11.5 19V14C11.5 13.7239 11.7239 13.5 12 13.5Z" fill="#699C69"/>
</svg>
