<svg width="24" height="24" viewBox="0 0 24 24" fill="none" xmlns="http://www.w3.org/2000/svg">
<g clip-path="url(#clip0_113_501)">
<path fill-rule="evenodd" clip-rule="evenodd" d="M17.07 13.925C16.0621 13.925 15.245 14.7421 15.245 15.75C15.245 16.758 16.0621 17.575 17.07 17.575C18.0779 17.575 18.895 16.758 18.895 15.75C18.895 14.7421 18.0779 13.925 17.07 13.925ZM14.245 15.75C14.245 14.1898 15.5098 12.925 17.07 12.925C18.6302 12.925 19.895 14.1898 19.895 15.75C19.895 17.3103 18.6302 18.575 17.07 18.575C15.5098 18.575 14.245 17.3103 14.245 15.75Z" fill="#699C69"/>
<path fill-rule="evenodd" clip-rule="evenodd" d="M5.17993 20.59C5.17993 20.3138 5.40379 20.09 5.67993 20.09H23.3699C23.6461 20.09 23.8699 20.3138 23.8699 20.59C23.8699 20.8661 23.6461 21.09 23.3699 21.09H5.67993C5.40379 21.09 5.17993 20.8661 5.17993 20.59Z" fill="#4195B9"/>
<path fill-rule="evenodd" clip-rule="evenodd" d="M13.745 22.505C13.745 22.2289 13.9689 22.005 14.245 22.005H20.09C20.3661 22.005 20.59 22.2289 20.59 22.505C20.59 22.7811 20.3661 23.005 20.09 23.005H14.245C13.9689 23.005 13.745 22.7811 13.745 22.505Z" fill="#699C69"/>
<path fill-rule="evenodd" clip-rule="evenodd" d="M7.125 6.82996C7.125 5.13486 8.83717 3.95496 10.675 3.95496H11.325C13.1628 3.95496 14.875 5.13486 14.875 6.82996C14.875 7.1061 14.6511 7.32996 14.375 7.32996H10.655C10.3789 7.32996 10.155 7.1061 10.155 6.82996C10.155 6.55381 10.3789 6.32996 10.655 6.32996H13.7775C13.4888 5.59162 12.5792 4.95496 11.325 4.95496H10.675C9.14283 4.95496 8.125 5.90505 8.125 6.82996C8.125 7.1061 7.90114 7.32996 7.625 7.32996C7.34886 7.32996 7.125 7.1061 7.125 6.82996Z" fill="#4195B9"/>
<path fill-rule="evenodd" clip-rule="evenodd" d="M0.0849609 6.82996C0.0849609 5.13486 1.79713 3.95496 3.63496 3.95496H4.28496C6.12279 3.95496 7.83496 5.13486 7.83496 6.82996C7.83496 7.1061 7.6111 7.32996 7.33496 7.32996C7.05882 7.32996 6.83496 7.1061 6.83496 6.82996C6.83496 5.90505 5.81713 4.95496 4.28496 4.95496H3.63496C2.38073 4.95496 1.47116 5.59162 1.18243 6.32996H4.08496C4.3611 6.32996 4.58496 6.55381 4.58496 6.82996C4.58496 7.1061 4.3611 7.32996 4.08496 7.32996H0.584961C0.308819 7.32996 0.0849609 7.1061 0.0849609 6.82996Z" fill="#4195B9"/>
<path fill-rule="evenodd" clip-rule="evenodd" d="M11.4039 7.02688C11.404 7.027 11.4041 7.02712 11.4043 7.02724L11.8617 7.48472C13.1874 8.78473 13.5601 10.8306 12.3645 12.0327C12.2708 12.1268 12.1435 12.1799 12.0106 12.1801C11.8778 12.1802 11.7503 12.1275 11.6564 12.0336L6.85641 7.23361C6.7618 7.139 6.70906 7.01043 6.70997 6.87665C6.71088 6.74286 6.76537 6.61502 6.86126 6.52172C8.06248 5.35279 10.104 5.72182 11.4039 7.02688ZM7.99304 6.95603C8.72337 6.65153 9.81521 6.84871 10.6957 7.73286L11.1564 8.19361L11.1601 8.19726C12.0627 9.0813 12.2576 10.1748 11.9401 10.9031L7.99304 6.95603Z" fill="#4195B9"/>
<path fill-rule="evenodd" clip-rule="evenodd" d="M1.92132 1.56666C3.1185 0.401658 5.15365 0.742005 6.46283 2.04571L6.46357 2.04645L6.9232 2.50608C6.92328 2.50616 6.92312 2.506 6.9232 2.50608C7.21919 2.80149 7.47189 3.13774 7.67324 3.50425C7.80621 3.74627 7.71779 4.05026 7.47577 4.18322C7.23375 4.31619 6.92976 4.22777 6.7968 3.98575C6.64106 3.70227 6.44578 3.44239 6.21684 3.21392L5.75721 2.75429C5.75708 2.75417 5.75695 2.75404 5.75682 2.75391C4.87458 1.87562 3.78321 1.68792 3.05154 1.99941L5.12357 4.07145C5.31884 4.26671 5.31884 4.58329 5.12357 4.77855C4.92831 4.97382 4.61173 4.97382 4.41647 4.77855L1.91647 2.27855C1.82186 2.18395 1.76912 2.05538 1.77003 1.92159C1.77094 1.78781 1.82543 1.65997 1.92132 1.56666Z" fill="#4195B9"/>
<path fill-rule="evenodd" clip-rule="evenodd" d="M8.08779 2.21515C9.38633 0.889321 11.4348 0.50772 12.6386 1.71145C12.8338 1.90672 12.8338 2.2233 12.6386 2.41856L10.3086 4.74856C10.1133 4.94382 9.79671 4.94382 9.60145 4.74856C9.40618 4.5533 9.40618 4.23672 9.60145 4.04145L11.5093 2.13364C10.7824 1.81461 9.68969 2.01015 8.80425 2.91278L8.37141 3.36553L8.36355 3.37356C7.28164 4.45548 7.23084 5.84874 7.88855 6.50645C8.08381 6.70171 8.08381 7.0183 7.88855 7.21356C7.69329 7.40882 7.37671 7.40882 7.18145 7.21356C5.98042 6.01253 6.35757 3.96884 7.65235 2.67055L8.08779 2.21515Z" fill="#4195B9"/>
<path fill-rule="evenodd" clip-rule="evenodd" d="M3.10896 7.16889C4.41244 5.84405 6.46019 5.46817 7.65848 6.66646C7.85367 6.86165 7.85375 7.17809 7.65867 7.37339L2.86367 12.1734C2.76925 12.2679 2.64093 12.3207 2.50734 12.32C2.37375 12.3193 2.24599 12.2652 2.15255 12.1697C0.976401 10.9677 1.35289 8.92567 2.65573 7.6271L3.10896 7.16889ZM6.52891 7.08937C5.80384 6.77303 4.71042 6.96672 3.8214 7.87062L3.82041 7.87163L3.36275 8.33432C2.47693 9.21643 2.27847 10.3084 2.58454 11.0379L6.52891 7.08937Z" fill="#4195B9"/>
<path fill-rule="evenodd" clip-rule="evenodd" d="M4.05578 19.9811C4.1712 19.7302 4.46813 19.6204 4.719 19.7358C6.32717 20.4757 7.76635 21.5379 8.94745 22.8565C9.13169 23.0622 9.1143 23.3783 8.90861 23.5625C8.70292 23.7467 8.38681 23.7294 8.20257 23.5237C7.11278 22.307 5.78486 21.327 4.30102 20.6443C4.05016 20.5289 3.94036 20.2319 4.05578 19.9811Z" fill="#4195B9"/>
<path fill-rule="evenodd" clip-rule="evenodd" d="M0.569726 19.1014C0.607596 18.8279 0.860038 18.6368 1.13357 18.6747C1.64062 18.7449 2.14297 18.8457 2.63784 18.9766C2.90481 19.0472 3.06399 19.3209 2.99338 19.5878C2.92278 19.8548 2.64913 20.014 2.38216 19.9434C1.92629 19.8228 1.46353 19.7299 0.996433 19.6653C0.7229 19.6274 0.531857 19.3749 0.569726 19.1014Z" fill="#4195B9"/>
<path fill-rule="evenodd" clip-rule="evenodd" d="M6.64843 7.33052C6.92427 7.34345 7.13739 7.57755 7.12446 7.85339C6.95007 11.5719 5.73182 14.7682 4.56423 17.0282C3.97969 18.1597 3.40558 19.0609 2.97624 19.681C2.76149 19.9912 2.58271 20.2313 2.45661 20.3952C2.39355 20.4771 2.34364 20.54 2.30896 20.583C2.29162 20.6045 2.27809 20.6211 2.26862 20.6326L2.25751 20.646L2.25429 20.6499L2.25293 20.6515C2.2528 20.6516 2.25268 20.6518 1.87001 20.33L2.25293 20.6515C2.0752 20.8628 1.75954 20.8904 1.5482 20.7126C1.33693 20.535 1.30962 20.2197 1.48714 20.0084C1.48715 20.0084 1.48714 20.0084 1.48714 20.0084L1.48891 20.0063L1.49674 19.9968C1.504 19.988 1.5153 19.9742 1.53038 19.9555C1.56054 19.918 1.60582 19.861 1.66415 19.7853C1.78082 19.6337 1.94962 19.4071 2.15408 19.1117C2.56318 18.5209 3.11407 17.6565 3.67579 16.5692C4.8007 14.3918 5.95994 11.338 6.12556 7.80654C6.13849 7.5307 6.37259 7.31758 6.64843 7.33052Z" fill="#4195B9"/>
<path fill-rule="evenodd" clip-rule="evenodd" d="M8.21057 7.52023C8.48659 7.51229 8.71679 7.72963 8.72473 8.00565C8.84297 12.1184 7.54657 15.6583 6.23125 18.1602C5.57276 19.4127 4.90668 20.4106 4.40391 21.0969C4.1524 21.4402 3.9414 21.7061 3.79214 21.8874C3.71749 21.978 3.65826 22.0476 3.61707 22.0951C3.59648 22.1189 3.58039 22.1372 3.56915 22.1498L3.55595 22.1646L3.55216 22.1689L3.55056 22.1706C3.5504 22.1708 3.55027 22.171 3.17994 21.835L3.55056 22.1706C3.36502 22.3752 3.04852 22.3909 2.844 22.2054C2.63953 22.0199 2.62408 21.7038 2.80943 21.4993L2.81156 21.4969L2.82097 21.4863C2.82968 21.4765 2.84318 21.4612 2.86117 21.4404C2.89714 21.3989 2.95101 21.3357 3.02016 21.2517C3.15847 21.0837 3.35778 20.8328 3.59721 20.5059C4.07631 19.8519 4.71461 18.8961 5.34612 17.6949C6.6108 15.2893 7.8369 11.9217 7.72514 8.03439C7.71721 7.75836 7.93454 7.52817 8.21057 7.52023Z" fill="#4195B9"/>
</g>
<defs>
<clipPath id="clip0_113_501">
<rect width="24" height="24" fill="white"/>
</clipPath>
</defs>
</svg>
