<svg width="24" height="24" viewBox="0 0 24 24" fill="none" xmlns="http://www.w3.org/2000/svg">
<g clip-path="url(#clip0_113_503)">
<path fill-rule="evenodd" clip-rule="evenodd" d="M12.7043 2.15216C8.33234 1.37235 4.03035 3.83921 2.49508 8.00637C0.959814 12.1735 2.63307 16.8418 6.46596 19.0848C10.2989 21.3279 15.1884 20.5002 18.0695 17.1206C18.2486 16.9105 18.5642 16.8854 18.7744 17.0645C18.9845 17.2437 19.0096 17.5593 18.8305 17.7694C15.635 21.5177 10.212 22.4357 5.96088 19.9479C1.70978 17.4601 -0.146044 12.2825 1.55674 7.66067C3.25952 3.03882 8.0309 0.302804 12.8799 1.1677C17.7289 2.03259 21.26 6.24951 21.26 11.175C21.26 11.4512 21.0361 11.675 20.76 11.675C20.4839 11.675 20.26 11.4512 20.26 11.175C20.26 6.73403 17.0763 2.93196 12.7043 2.15216Z" fill="#4195B9"/>
<path fill-rule="evenodd" clip-rule="evenodd" d="M11.7609 10.0285C11.2028 9.70789 10.4945 9.84011 10.0898 10.3405C9.68497 10.8408 9.70362 11.5611 10.1337 12.0399C10.5639 12.5186 11.2781 12.614 11.8188 12.2649C12.0508 12.1152 12.3602 12.1818 12.51 12.4138C12.6598 12.6458 12.5932 12.9553 12.3612 13.1051C11.4077 13.7206 10.1484 13.5524 9.38988 12.7082C8.63141 11.864 8.59852 10.5939 9.31229 9.71154C10.0261 8.82922 11.275 8.59607 12.2591 9.16147C12.4985 9.29905 12.5811 9.60467 12.4435 9.8441C12.3059 10.0835 12.0003 10.1661 11.7609 10.0285Z" fill="#4195B9"/>
<path fill-rule="evenodd" clip-rule="evenodd" d="M2.23499 23.045C2.23499 22.7689 2.45884 22.545 2.73499 22.545H6.38499C6.66113 22.545 6.88499 22.7689 6.88499 23.045C6.88499 23.3212 6.66113 23.545 6.38499 23.545H2.73499C2.45884 23.545 2.23499 23.3212 2.23499 23.045Z" fill="#4195B9"/>
<path fill-rule="evenodd" clip-rule="evenodd" d="M7.1076 19.4558C7.32529 19.6258 7.36402 19.94 7.19411 20.1576L4.82911 23.1876C4.6592 23.4053 4.345 23.4441 4.12731 23.2741C3.90963 23.1042 3.8709 22.79 4.04081 22.5724L6.40581 19.5424C6.57572 19.3247 6.88992 19.2859 7.1076 19.4558Z" fill="#4195B9"/>
<path fill-rule="evenodd" clip-rule="evenodd" d="M15.6 23.045C15.6 22.7689 15.8238 22.545 16.1 22.545H19.75C20.0261 22.545 20.25 22.7689 20.25 23.045C20.25 23.3212 20.0261 23.545 19.75 23.545H16.1C15.8238 23.545 15.6 23.3212 15.6 23.045Z" fill="#4195B9"/>
<path fill-rule="evenodd" clip-rule="evenodd" d="M15.3773 19.4558C15.595 19.2859 15.9092 19.3247 16.0791 19.5424L18.4441 22.5724C18.614 22.79 18.5753 23.1042 18.3576 23.2741C18.1399 23.4441 17.8257 23.4053 17.6558 23.1876L15.2908 20.1576C15.1209 19.94 15.1596 19.6258 15.3773 19.4558Z" fill="#4195B9"/>
<path fill-rule="evenodd" clip-rule="evenodd" d="M4.95502 11.02C4.51043 11.02 4.15002 11.3804 4.15002 11.825C4.15002 12.2696 4.51044 12.63 4.95502 12.63C5.39961 12.63 5.76002 12.2696 5.76002 11.825C5.76002 11.3804 5.39961 11.02 4.95502 11.02ZM3.15002 11.825C3.15002 10.8281 3.95815 10.02 4.95502 10.02C5.9519 10.02 6.76002 10.8281 6.76002 11.825C6.76002 12.8219 5.9519 13.63 4.95502 13.63C3.95815 13.63 3.15002 12.8219 3.15002 11.825Z" fill="#699C69"/>
<path fill-rule="evenodd" clip-rule="evenodd" d="M10.015 5C9.57037 5 9.20996 5.36041 9.20996 5.805C9.20996 6.24959 9.57037 6.61 10.015 6.61C10.4596 6.61 10.82 6.24959 10.82 5.805C10.82 5.36041 10.4596 5 10.015 5ZM8.20996 5.805C8.20996 4.80813 9.01809 4 10.015 4C11.0118 4 11.82 4.80813 11.82 5.805C11.82 6.80187 11.0118 7.61 10.015 7.61C9.01809 7.61 8.20996 6.80187 8.20996 5.805Z" fill="#699C69"/>
<path fill-rule="evenodd" clip-rule="evenodd" d="M17.175 8.40503C16.7304 8.40503 16.37 8.76544 16.37 9.21003C16.37 9.65462 16.7304 10.015 17.175 10.015C17.6196 10.015 17.98 9.65462 17.98 9.21003C17.98 8.76544 17.6196 8.40503 17.175 8.40503ZM15.37 9.21003C15.37 8.21316 16.1781 7.40503 17.175 7.40503C18.1719 7.40503 18.98 8.21315 18.98 9.21003C18.98 10.2069 18.1719 11.015 17.175 11.015C16.1781 11.015 15.37 10.2069 15.37 9.21003Z" fill="#699C69"/>
<path fill-rule="evenodd" clip-rule="evenodd" d="M13.025 16.495C12.5804 16.495 12.22 16.8554 12.22 17.3C12.22 17.7446 12.5804 18.105 13.025 18.105C13.4696 18.105 13.83 17.7446 13.83 17.3C13.83 16.8554 13.4696 16.495 13.025 16.495ZM11.22 17.3C11.22 16.3031 12.0281 15.495 13.025 15.495C14.0218 15.495 14.83 16.3031 14.83 17.3C14.83 18.2969 14.0218 19.105 13.025 19.105C12.0281 19.105 11.22 18.2969 11.22 17.3Z" fill="#699C69"/>
<path fill-rule="evenodd" clip-rule="evenodd" d="M8.66999 15.46C8.2254 15.46 7.86499 15.8204 7.86499 16.265C7.86499 16.7095 8.2254 17.07 8.66999 17.07C9.11458 17.07 9.47499 16.7095 9.47499 16.265C9.47499 15.8204 9.11458 15.46 8.66999 15.46ZM6.86499 16.265C6.86499 15.2681 7.67312 14.46 8.66999 14.46C9.66686 14.46 10.475 15.2681 10.475 16.265C10.475 17.2618 9.66686 18.07 8.66999 18.07C7.67312 18.07 6.86499 17.2618 6.86499 16.265Z" fill="#699C69"/>
<path fill-rule="evenodd" clip-rule="evenodd" d="M21.76 13.9399C21.3154 13.9399 20.955 14.3004 20.955 14.7449C20.955 15.1895 21.3154 15.5499 21.76 15.5499C22.2045 15.5499 22.565 15.1895 22.565 14.7449C22.565 14.3004 22.2045 13.9399 21.76 13.9399ZM19.955 14.7449C19.955 13.7481 20.7631 12.9399 21.76 12.9399C22.7568 12.9399 23.565 13.7481 23.565 14.7449C23.565 15.7418 22.7568 16.5499 21.76 16.5499C20.7631 16.5499 19.955 15.7418 19.955 14.7449Z" fill="#4195B9"/>
<path fill-rule="evenodd" clip-rule="evenodd" d="M13.8005 11.9125C13.7056 11.8143 13.5746 11.7592 13.438 11.76L13.435 11.76L11.63 11.76C11.3539 11.76 11.13 11.5362 11.13 11.26C11.13 10.9839 11.3539 10.76 11.63 10.76H13.4337C13.8426 10.7581 14.2347 10.9231 14.5191 11.2171C14.5192 11.2173 14.5194 11.2174 14.5195 11.2176L17.1995 13.9775C17.2938 14.0751 17.4238 14.1302 17.5595 14.13L20.295 14.13C20.5711 14.13 20.795 14.3539 20.795 14.63C20.795 14.9062 20.5711 15.13 20.295 15.13L17.5605 15.13C17.5604 15.13 17.5606 15.13 17.5605 15.13M16.4805 14.6725L13.8013 11.9134L13.8005 11.9125" fill="#4195B9"/>
</g>
<defs>
<clipPath id="clip0_113_503">
<rect width="24" height="24" fill="white"/>
</clipPath>
</defs>
</svg>
