<svg width="24" height="24" viewBox="0 0 24 24" fill="none" xmlns="http://www.w3.org/2000/svg">
<g clip-path="url(#clip0_113_499)">
<path fill-rule="evenodd" clip-rule="evenodd" d="M12.4478 3.74518C8.8833 2.67084 5.1061 4.60036 3.8874 8.11808C2.66871 11.6358 4.44271 15.4885 7.90786 16.8495C8.16488 16.9505 8.29141 17.2407 8.19045 17.4977C8.0895 17.7547 7.7993 17.8813 7.54227 17.7803C3.57782 16.2232 1.54821 11.8153 2.9425 7.79073C4.3368 3.76613 8.65827 1.55858 12.7363 2.78773C16.8144 4.01687 19.1962 8.2448 18.1343 12.3696C18.0654 12.637 17.7928 12.798 17.5254 12.7291C17.258 12.6603 17.097 12.3877 17.1659 12.1202C18.0941 8.51497 16.0122 4.81952 12.4478 3.74518Z" fill="#699C69"/>
<path fill-rule="evenodd" clip-rule="evenodd" d="M10.49 1.21497C10.2028 1.21497 9.96997 1.44778 9.96997 1.73497C9.96997 2.02215 10.2028 2.25497 10.49 2.25497C10.7772 2.25497 11.01 2.02215 11.01 1.73497C11.01 1.44778 10.7772 1.21497 10.49 1.21497ZM8.96997 1.73497C8.96997 0.895493 9.6505 0.214966 10.49 0.214966C11.3294 0.214966 12.01 0.895493 12.01 1.73497C12.01 2.57444 11.3294 3.25497 10.49 3.25497C9.6505 3.25497 8.96997 2.57444 8.96997 1.73497Z" fill="#699C69"/>
<path fill-rule="evenodd" clip-rule="evenodd" d="M19.065 9.78992C18.7779 9.78992 18.545 10.0227 18.545 10.3099C18.545 10.5971 18.7779 10.8299 19.065 10.8299C19.3522 10.8299 19.585 10.5971 19.585 10.3099C19.585 10.0227 19.3522 9.78992 19.065 9.78992ZM17.545 10.3099C17.545 9.47044 18.2256 8.78992 19.065 8.78992C19.9045 8.78992 20.585 9.47045 20.585 10.3099C20.585 11.1494 19.9045 11.8299 19.065 11.8299C18.2256 11.8299 17.545 11.1494 17.545 10.3099Z" fill="#699C69"/>
<path fill-rule="evenodd" clip-rule="evenodd" d="M1.91502 9.78992C1.62783 9.78992 1.39502 10.0227 1.39502 10.3099C1.39502 10.5971 1.62783 10.8299 1.91502 10.8299C2.20221 10.8299 2.43502 10.5971 2.43502 10.3099C2.43502 10.0227 2.20221 9.78992 1.91502 9.78992ZM0.39502 10.3099C0.39502 9.47044 1.07555 8.78992 1.91502 8.78992C2.75449 8.78992 3.43502 9.47044 3.43502 10.3099C3.43502 11.1494 2.75449 11.8299 1.91502 11.8299C1.07555 11.8299 0.39502 11.1494 0.39502 10.3099Z" fill="#699C69"/>
<path fill-rule="evenodd" clip-rule="evenodd" d="M4.42503 3.72498C4.13784 3.72498 3.90503 3.95779 3.90503 4.24498C3.90503 4.53216 4.13784 4.76498 4.42503 4.76498C4.71222 4.76498 4.94503 4.53216 4.94503 4.24498C4.94503 3.95779 4.71222 3.72498 4.42503 3.72498ZM2.90503 4.24498C2.90503 3.4055 3.58556 2.72498 4.42503 2.72498C5.2645 2.72498 5.94503 3.4055 5.94503 4.24498C5.94503 5.08445 5.2645 5.76498 4.42503 5.76498C3.58556 5.76498 2.90503 5.08445 2.90503 4.24498Z" fill="#699C69"/>
<path fill-rule="evenodd" clip-rule="evenodd" d="M16.555 3.72498C16.2678 3.72498 16.035 3.95779 16.035 4.24498C16.035 4.53216 16.2678 4.76498 16.555 4.76498C16.8422 4.76498 17.075 4.53216 17.075 4.24498C17.075 3.95779 16.8422 3.72498 16.555 3.72498ZM15.035 4.24498C15.035 3.4055 15.7156 2.72498 16.555 2.72498C17.3945 2.72498 18.075 3.4055 18.075 4.24498C18.075 5.08445 17.3945 5.76498 16.555 5.76498C15.7156 5.76498 15.035 5.08445 15.035 4.24498Z" fill="#699C69"/>
<path fill-rule="evenodd" clip-rule="evenodd" d="M10.4501 9.85498C10.1629 9.85498 9.93005 10.0878 9.93005 10.375C9.93005 10.6622 10.1629 10.895 10.4501 10.895C10.7372 10.895 10.9701 10.6622 10.9701 10.375C10.9701 10.0878 10.7372 9.85498 10.4501 9.85498ZM8.93005 10.375C8.93005 9.53551 9.61058 8.85498 10.4501 8.85498C11.2895 8.85498 11.9701 9.53551 11.9701 10.375C11.9701 11.2145 11.2895 11.895 10.4501 11.895C9.61058 11.895 8.93005 11.2145 8.93005 10.375Z" fill="#699C69"/>
<path fill-rule="evenodd" clip-rule="evenodd" d="M4.42503 15.855C4.13784 15.855 3.90503 16.0878 3.90503 16.375C3.90503 16.6622 4.13784 16.895 4.42503 16.895C4.71222 16.895 4.94503 16.6622 4.94503 16.375C4.94503 16.0878 4.71222 15.855 4.42503 15.855ZM2.90503 16.375C2.90503 15.5355 3.58556 14.855 4.42503 14.855C5.2645 14.855 5.94503 15.5355 5.94503 16.375C5.94503 17.2145 5.2645 17.895 4.42503 17.895C3.58556 17.895 2.90503 17.2145 2.90503 16.375Z" fill="#699C69"/>
<path fill-rule="evenodd" clip-rule="evenodd" d="M10.47 2.51501C10.7461 2.51501 10.97 2.73887 10.97 3.01501V8.98001C10.97 9.25616 10.7461 9.48001 10.47 9.48001C10.1938 9.48001 9.96997 9.25616 9.96997 8.98001V3.01501C9.96997 2.73887 10.1938 2.51501 10.47 2.51501Z" fill="#699C69"/>
<path fill-rule="evenodd" clip-rule="evenodd" d="M16.0385 4.80135C16.2338 4.99662 16.2338 5.3132 16.0385 5.50846L11.8235 9.72346C11.6283 9.91872 11.3117 9.91872 11.1164 9.72346C10.9212 9.5282 10.9212 9.21162 11.1164 9.01635L15.3314 4.80135C15.5267 4.60609 15.8433 4.60609 16.0385 4.80135Z" fill="#699C69"/>
<path fill-rule="evenodd" clip-rule="evenodd" d="M5.14144 5.09139C5.3367 4.89613 5.65329 4.89613 5.84855 5.09139L10.0635 9.30639C10.2588 9.50165 10.2588 9.81824 10.0635 10.0135C9.86829 10.2088 9.5517 10.2088 9.35644 10.0135L5.14144 5.7985C4.94618 5.60324 4.94618 5.28666 5.14144 5.09139Z" fill="#699C69"/>
<path fill-rule="evenodd" clip-rule="evenodd" d="M2.56006 10.36C2.56006 10.0838 2.78392 9.85999 3.06006 9.85999H9.02006C9.2962 9.85999 9.52006 10.0838 9.52006 10.36C9.52006 10.6361 9.2962 10.86 9.02006 10.86H3.06006C2.78392 10.86 2.56006 10.6361 2.56006 10.36Z" fill="#699C69"/>
<path fill-rule="evenodd" clip-rule="evenodd" d="M11.495 10.36C11.495 10.0838 11.7189 9.85999 11.995 9.85999H17.96C18.2361 9.85999 18.46 10.0838 18.46 10.36C18.46 10.6361 18.2361 10.86 17.96 10.86H11.995C11.7189 10.86 11.495 10.6361 11.495 10.36Z" fill="#699C69"/>
<path fill-rule="evenodd" clip-rule="evenodd" d="M10.46 11.2899C10.7361 11.2899 10.96 11.5138 10.96 11.7899V12.4249C10.96 12.7011 10.7361 12.9249 10.46 12.9249C10.1838 12.9249 9.95996 12.7011 9.95996 12.4249V11.7899C9.95996 11.5138 10.1838 11.2899 10.46 11.2899Z" fill="#699C69"/>
<path fill-rule="evenodd" clip-rule="evenodd" d="M11.0014 10.8464C11.1967 10.6511 11.5133 10.6511 11.7085 10.8464L12.1535 11.2914C12.3488 11.4867 12.3488 11.8032 12.1535 11.9985C11.9583 12.1938 11.6417 12.1938 11.4464 11.9985L11.0014 11.5535C10.8062 11.3582 10.8062 11.0417 11.0014 10.8464Z" fill="#699C69"/>
<path fill-rule="evenodd" clip-rule="evenodd" d="M10.0535 10.7664C10.2488 10.9617 10.2488 11.2783 10.0535 11.4735L5.83854 15.6885C5.64328 15.8838 5.32669 15.8838 5.13143 15.6885C4.93617 15.4933 4.93617 15.1767 5.13143 14.9814L9.34643 10.7664C9.54169 10.5712 9.85828 10.5712 10.0535 10.7664Z" fill="#699C69"/>
<path fill-rule="evenodd" clip-rule="evenodd" d="M7.83645 21.2912C8.62893 20.723 9.16952 19.9078 9.6033 19.0637ZM9.6033 19.0637C9.82124 18.6396 10.0175 18.1973 10.2054 17.7641ZM10.2054 17.7641C10.2423 17.679 10.2788 17.5944 10.3151 17.5104ZM10.3151 17.5104C10.4654 17.1621 10.6119 16.8227 10.7665 16.4926ZM10.7665 16.4926C11.1521 15.6696 11.5585 14.9725 12.0962 14.4828ZM12.0962 14.4828C12.6151 14.0102 13.2786 13.7105 14.2374 13.7249ZM14.2375 13.7249C15.2853 13.7413 15.9368 14.1253 16.4463 14.6942C16.909 15.2111 17.2497 15.8697 17.6355 16.6155C17.702 16.744 17.7698 16.8751 17.8397 17.0085C18.2992 17.884 18.8427 18.831 19.7114 19.5397C20.5986 20.2635 21.7808 20.7057 23.4557 20.6698C23.7318 20.6639 23.9508 20.4353 23.9449 20.1592C23.939 19.8831 23.7103 19.6641 23.4343 19.67C21.9642 19.7016 21.0226 19.3189 20.3436 18.7648C19.646 18.1957 19.1808 17.4121 18.7252 16.5438C18.6621 16.4235 18.5988 16.3008 18.5348 16.1766C18.1538 15.4374 17.7466 14.6474 17.1912 14.0271C16.5095 13.2658 15.5998 12.7461 14.2528 12.725L14.2525 12.725C13.0413 12.7068 12.1311 13.0984 11.4229 13.7435C10.7334 14.3714 10.2592 15.2184 9.86096 16.0684C9.69922 16.4137 9.54514 16.7707 9.39433 17.1201C9.3587 17.2027 9.32325 17.2848 9.28793 17.3663C9.10111 17.7971 8.91578 18.2137 8.71387 18.6066C8.308 19.3964 7.85612 20.0467 7.25368 20.4785L7.25354 20.4786C6.10295 21.3041 4.67825 21.5604 3.50265 21.5983C2.92008 21.6171 2.41219 21.5817 2.05089 21.5418C1.87055 21.5218 1.7276 21.5008 1.63114 21.4851C1.58293 21.4773 1.5464 21.4707 1.5227 21.4663C1.51085 21.4641 1.50221 21.4624 1.49693 21.4614L1.49154 21.4603L1.4913 21.4603C1.49121 21.4603 1.49113 21.4602 1.49104 21.4602C1.49099 21.4602 1.49093 21.4602 1.49088 21.4602C1.22061 21.4045 0.956281 21.5783 0.900362 21.8486C0.844414 22.119 1.01827 22.3836 1.28869 22.4395L1.38999 21.9499C1.28869 22.4395 1.28885 22.4396 1.28903 22.4396L1.28945 22.4397L1.29054 22.4399L1.29372 22.4406L1.30401 22.4426C1.3126 22.4443 1.32463 22.4466 1.33994 22.4495C1.37058 22.4552 1.4144 22.463 1.47025 22.4721C1.58191 22.4903 1.74193 22.5137 1.94097 22.5357C2.33842 22.5797 2.8949 22.6184 3.53484 22.5978C4.80419 22.5569 6.45692 22.2808 7.8363 21.2913" fill="#4195B9"/>
<path fill-rule="evenodd" clip-rule="evenodd" d="M21.77 19.9299C22.0462 19.9299 22.27 20.1538 22.27 20.4299V23.4849C22.27 23.7611 22.0462 23.9849 21.77 23.9849C21.4939 23.9849 21.27 23.7611 21.27 23.4849V20.4299C21.27 20.1538 21.4939 19.9299 21.77 19.9299Z" fill="#4195B9"/>
<path fill-rule="evenodd" clip-rule="evenodd" d="M19.48 18.335C19.7561 18.335 19.98 18.5588 19.98 18.835V23.485C19.98 23.7611 19.7561 23.985 19.48 23.985C19.2038 23.985 18.98 23.7611 18.98 23.485V18.835C18.98 18.5588 19.2038 18.335 19.48 18.335Z" fill="#4195B9"/>
<path fill-rule="evenodd" clip-rule="evenodd" d="M7.83008 20.345C8.10622 20.345 8.33008 20.5688 8.33008 20.845V23.485C8.33008 23.7611 8.10622 23.985 7.83008 23.985C7.55394 23.985 7.33008 23.7611 7.33008 23.485V20.845C7.33008 20.5688 7.55394 20.345 7.83008 20.345Z" fill="#4195B9"/>
<path fill-rule="evenodd" clip-rule="evenodd" d="M5.53003 21.37C5.80617 21.37 6.03003 21.5939 6.03003 21.87V23.485C6.03003 23.7611 5.80617 23.985 5.53003 23.985C5.25389 23.985 5.03003 23.7611 5.03003 23.485V21.87C5.03003 21.5939 5.25389 21.37 5.53003 21.37Z" fill="#4195B9"/>
<path fill-rule="evenodd" clip-rule="evenodd" d="M7.24855 16.7402C7.49416 16.8664 7.59094 17.1678 7.46473 17.4135L6.72473 18.8535C6.59851 19.0991 6.29709 19.1959 6.05148 19.0696C5.80587 18.9434 5.70908 18.642 5.8353 18.3964L6.5753 16.9564C6.70151 16.7108 7.00294 16.614 7.24855 16.7402Z" fill="#699C69"/>
<path fill-rule="evenodd" clip-rule="evenodd" d="M3.18005 21.6749C3.4562 21.6749 3.68005 21.8988 3.68005 22.1749V23.4849C3.68005 23.7611 3.4562 23.9849 3.18005 23.9849C2.90391 23.9849 2.68005 23.7611 2.68005 23.4849V22.1749C2.68005 21.8988 2.90391 21.6749 3.18005 21.6749Z" fill="#4195B9"/>
<path fill-rule="evenodd" clip-rule="evenodd" d="M10.13 16.245C10.4061 16.245 10.63 16.4689 10.63 16.745V23.485C10.63 23.7611 10.4061 23.985 10.13 23.985C9.85386 23.985 9.63 23.7611 9.63 23.485V16.745C9.63 16.4689 9.85386 16.245 10.13 16.245Z" fill="#4195B9"/>
<path fill-rule="evenodd" clip-rule="evenodd" d="M17.05 14.24C17.3262 14.24 17.55 14.4638 17.55 14.74V23.485C17.55 23.7611 17.3262 23.985 17.05 23.985C16.7739 23.985 16.55 23.7611 16.55 23.485V14.74C16.55 14.4638 16.7739 14.24 17.05 14.24Z" fill="#4195B9"/>
<path fill-rule="evenodd" clip-rule="evenodd" d="M14.765 13.095C15.0412 13.095 15.265 13.3188 15.265 13.595V23.485C15.265 23.7611 15.0412 23.985 14.765 23.985C14.4889 23.985 14.265 23.7611 14.265 23.485V13.595C14.265 13.3188 14.4889 13.095 14.765 13.095Z" fill="#4195B9"/>
<path fill-rule="evenodd" clip-rule="evenodd" d="M12.36 13.605C12.6361 13.605 12.86 13.8288 12.86 14.105V23.485C12.86 23.7611 12.6361 23.985 12.36 23.985C12.0838 23.985 11.86 23.7611 11.86 23.485V14.105C11.86 13.8288 12.0838 13.605 12.36 13.605Z" fill="#4195B9"/>
</g>
<defs>
<clipPath id="clip0_113_499">
<rect width="24" height="24" fill="white"/>
</clipPath>
</defs>
</svg>
