<svg width="24" height="24" viewBox="0 0 24 24" fill="none" xmlns="http://www.w3.org/2000/svg">
<path fill-rule="evenodd" clip-rule="evenodd" d="M6.61476 6.36817C6.70825 6.27639 6.83402 6.22498 6.96503 6.22498H16.705C16.8342 6.22498 16.9584 6.27499 17.0516 6.36454L22.2366 11.3495C22.3324 11.4417 22.3876 11.5683 22.39 11.7012C22.3923 11.8342 22.3415 11.9626 22.249 12.0581L12.274 22.3431C12.1806 22.4394 12.0524 22.4941 11.9183 22.495C11.7842 22.4958 11.6553 22.4428 11.5607 22.3477L1.42569 12.1677C1.3317 12.0733 1.27927 11.9453 1.28004 11.8121C1.2808 11.6789 1.33469 11.5515 1.42976 11.4582L6.61476 6.36817ZM7.16943 7.22498L2.48962 11.819L11.9104 21.2816L21.1815 11.7224L16.5037 7.22498H7.16943Z" fill="#4195B9"/>
<path fill-rule="evenodd" clip-rule="evenodd" d="M16.4667 11.3552C16.7206 11.4639 16.8383 11.7577 16.7297 12.0116L12.3747 22.1916C12.2959 22.3758 12.1148 22.4952 11.9145 22.4949C11.7142 22.4947 11.5333 22.375 11.4549 22.1906L7.1699 12.1156C7.06182 11.8615 7.18021 11.5679 7.43432 11.4598C7.68843 11.3518 7.98205 11.4701 8.09013 11.7243L11.9164 20.7206L15.8103 11.6183C15.9189 11.3644 16.2128 11.2466 16.4667 11.3552Z" fill="#4195B9"/>
<path fill-rule="evenodd" clip-rule="evenodd" d="M1.71997 11.8149C1.71997 11.5388 1.94383 11.3149 2.21997 11.3149H21.23C21.5061 11.3149 21.73 11.5388 21.73 11.8149C21.73 12.0911 21.5061 12.3149 21.23 12.3149H2.21997C1.94383 12.3149 1.71997 12.0911 1.71997 11.8149Z" fill="#4195B9"/>
<path fill-rule="evenodd" clip-rule="evenodd" d="M11.1068 6.302C11.3404 6.4493 11.4103 6.75806 11.263 6.99163L8.05299 12.0816C7.90569 12.3152 7.59693 12.3851 7.36335 12.2378C7.12978 12.0905 7.05985 11.7818 7.20715 11.5482L10.4171 6.4582C10.5645 6.22463 10.8732 6.15469 11.1068 6.302Z" fill="#4195B9"/>
<path fill-rule="evenodd" clip-rule="evenodd" d="M8.73514 2.96633C8.97741 2.83382 9.28124 2.9228 9.41374 3.16507L10.0837 4.39007C10.2163 4.63235 10.1273 4.93617 9.885 5.06868C9.64272 5.20118 9.3389 5.1122 9.2064 4.86993L8.5364 3.64493C8.40389 3.40266 8.49287 3.09884 8.73514 2.96633Z" fill="#699C69"/>
<path fill-rule="evenodd" clip-rule="evenodd" d="M14.9071 2.9725C15.1488 3.10619 15.2363 3.41044 15.1026 3.65206L14.4276 4.87206C14.2939 5.11369 13.9896 5.20119 13.748 5.0675C13.5064 4.93382 13.4189 4.62957 13.5526 4.38794L14.2276 3.16794C14.3613 2.92632 14.6655 2.83882 14.9071 2.9725Z" fill="#699C69"/>
<path fill-rule="evenodd" clip-rule="evenodd" d="M11.8351 2.19995C12.1112 2.19995 12.3351 2.42381 12.3351 2.69995V4.10995C12.3351 4.38609 12.1112 4.60995 11.8351 4.60995C11.5589 4.60995 11.3351 4.38609 11.3351 4.10995V2.69995C11.3351 2.42381 11.5589 2.19995 11.8351 2.19995Z" fill="#699C69"/>
<path fill-rule="evenodd" clip-rule="evenodd" d="M12.4445 6.31441C12.6712 6.15674 12.9828 6.21271 13.1405 6.43941L16.6805 11.5294C16.8382 11.7561 16.7822 12.0677 16.5555 12.2254C16.3288 12.3831 16.0172 12.3271 15.8595 12.1004L12.3195 7.01038C12.1619 6.78368 12.2178 6.47208 12.4445 6.31441Z" fill="#4195B9"/>
</svg>
