<svg width="24" height="24" viewBox="0 0 24 24" fill="none" xmlns="http://www.w3.org/2000/svg">
<path fill-rule="evenodd" clip-rule="evenodd" d="M7.54497 8.76501C7.01753 8.76501 6.58997 9.19258 6.58997 9.72001C6.58997 10.2474 7.01753 10.675 7.54497 10.675C8.0724 10.675 8.49997 10.2474 8.49997 9.72001C8.49997 9.19258 8.0724 8.76501 7.54497 8.76501ZM5.58997 9.72001C5.58997 8.6403 6.46525 7.76501 7.54497 7.76501C8.62468 7.76501 9.49997 8.6403 9.49997 9.72001C9.49997 10.7997 8.62468 11.675 7.54497 11.675C6.46525 11.675 5.58997 10.7997 5.58997 9.72001Z" fill="#699C69"/>
<path fill-rule="evenodd" clip-rule="evenodd" d="M11.935 13.605C11.4075 13.605 10.98 14.0325 10.98 14.56C10.98 15.0874 11.4075 15.515 11.935 15.515C12.4624 15.515 12.89 15.0874 12.89 14.56C12.89 14.0325 12.4624 13.605 11.935 13.605ZM9.97998 14.56C9.97998 13.4803 10.8553 12.605 11.935 12.605C13.0147 12.605 13.89 13.4803 13.89 14.56C13.89 15.6397 13.0147 16.515 11.935 16.515C10.8553 16.515 9.97998 15.6397 9.97998 14.56Z" fill="#699C69"/>
<path fill-rule="evenodd" clip-rule="evenodd" d="M0.469971 6.60996C0.469971 5.62966 1.26467 4.83496 2.24497 4.83496H21.865C22.8453 4.83496 23.64 5.62966 23.64 6.60996V9.46996C23.64 9.72291 23.4511 9.93601 23.1999 9.96635C22.0599 10.1041 21.2022 11.0716 21.2022 12.22C21.2022 13.3683 22.0599 14.3358 23.1999 14.4736C23.4511 14.5039 23.64 14.717 23.64 14.97V17.97C23.64 18.9503 22.8473 19.7461 21.8669 19.75L21.865 19.75H2.24497L2.24302 19.75C1.26266 19.7461 0.469971 18.9503 0.469971 17.97V14.97C0.469971 14.717 0.658876 14.5039 0.909995 14.4736C2.05008 14.3358 2.90771 13.3683 2.90771 12.22C2.90771 11.0716 2.05008 10.1041 0.909995 9.96635C0.658876 9.93601 0.469971 9.72291 0.469971 9.46996V6.60996ZM2.24497 5.83496C1.81695 5.83496 1.46997 6.18194 1.46997 6.60996V9.05736C2.88804 9.42927 3.90771 10.7171 3.90771 12.22C3.90771 13.7228 2.88804 15.0107 1.46997 15.3826V17.97C1.46997 18.3993 1.81687 18.7478 2.24607 18.75H21.8639C22.2931 18.7478 22.64 18.3993 22.64 17.97V15.3826C21.2219 15.0107 20.2022 13.7228 20.2022 12.22C20.2022 10.7171 21.2219 9.42927 22.64 9.05736V6.60996C22.64 6.18194 22.293 5.83496 21.865 5.83496H2.24497Z" fill="#4195B9"/>
<path fill-rule="evenodd" clip-rule="evenodd" d="M12.9682 8.95609C13.1636 9.15119 13.1639 9.46777 12.9688 9.6632L6.9288 15.7132C6.7337 15.9086 6.41711 15.9089 6.22169 15.7138C6.02627 15.5187 6.026 15.2021 6.22111 15.0067L12.2611 8.95668C12.4562 8.76125 12.7728 8.76099 12.9682 8.95609Z" fill="#699C69"/>
<path fill-rule="evenodd" clip-rule="evenodd" d="M17.1699 6.76501C17.4461 6.76501 17.6699 6.98887 17.6699 7.26501V9.23001C17.6699 9.50616 17.4461 9.73001 17.1699 9.73001C16.8938 9.73001 16.6699 9.50616 16.6699 9.23001V7.26501C16.6699 6.98887 16.8938 6.76501 17.1699 6.76501Z" fill="#699C69"/>
<path fill-rule="evenodd" clip-rule="evenodd" d="M17.1699 10.6649C17.4461 10.6649 17.6699 10.8888 17.6699 11.1649V13.1299C17.6699 13.4061 17.4461 13.6299 17.1699 13.6299C16.8938 13.6299 16.6699 13.4061 16.6699 13.1299V11.1649C16.6699 10.8888 16.8938 10.6649 17.1699 10.6649Z" fill="#699C69"/>
<path fill-rule="evenodd" clip-rule="evenodd" d="M17.1699 14.5699C17.4461 14.5699 17.6699 14.7938 17.6699 15.0699V17.0349C17.6699 17.3111 17.4461 17.5349 17.1699 17.5349C16.8938 17.5349 16.6699 17.3111 16.6699 17.0349V15.0699C16.6699 14.7938 16.8938 14.5699 17.1699 14.5699Z" fill="#699C69"/>
</svg>
