<svg width="24" height="24" viewBox="0 0 24 24" fill="none" xmlns="http://www.w3.org/2000/svg">
<path fill-rule="evenodd" clip-rule="evenodd" d="M16.5 6.5V9H17.5C17.7761 9 18 9.22386 18 9.5V14.5C18 14.7761 17.7761 15 17.5 15H14.5C14.2239 15 14 14.7761 14 14.5V9.5C14 9.22386 14.2239 9 14.5 9H15.5V6.5H16.5ZM17 10H15V14H17V10Z" fill="#699C69"/>
<path fill-rule="evenodd" clip-rule="evenodd" d="M12 2C13.9277 2 15.5 3.36131 15.5 5.05195V6H19.5C19.7761 6 20 6.22386 20 6.5L22 21.5C22 21.7761 21.7761 22 21.5 22H2.5C2.22386 22 2 21.7761 2 21.5L4 6.5C4 6.22386 4.22386 6 4.5 6H8.5V5.05195C8.5 3.41961 9.96575 2.09427 11.8019 2.00481L12 2ZM19 7H5L3 21H21L19 7ZM12 3C10.614 3 9.5 3.92832 9.5 5.0625V6H14.5V5.0625C14.5 4.02102 13.5607 3.15314 12.334 3.01821L12.165 3.00441L12 3Z" fill="#4195B9"/>
</svg>
