<svg width="24" height="24" viewBox="0 0 24 24" fill="none" xmlns="http://www.w3.org/2000/svg">
<g clip-path="url(#clip0_113_497)">
<path d="M23.2 16.77H21.55C21.65 16.57 21.7 16.37 21.7 16.17C21.7 15.37 21.05 14.72 20.25 14.72C19.45 14.72 18.8 15.37 18.8 16.17C18.8 16.37 18.85 16.57 18.95 16.77H17.35C17.05 16.77 16.85 16.97 16.85 17.27V19.47C16.85 19.52 16.85 19.62 16.9 19.67C16.95 19.87 17.15 20.02 17.4 20.02H17.9C18.05 20.02 18.15 19.97 18.25 19.87C18.3 19.82 18.45 19.77 18.5 19.77C18.75 19.77 18.9 19.97 18.9 20.22C18.9 20.42 18.7 20.62 18.5 20.62C18.4 20.62 18.3 20.62 18.25 20.52C18.15 20.42 18.05 20.37 17.9 20.37H17.4C17.2 20.37 17 20.52 16.95 20.72C16.9 20.82 16.9 20.87 16.9 20.92V23.17C16.9 23.47 17.1 23.67 17.4 23.67H23.25C23.55 23.67 23.75 23.47 23.75 23.17V17.27C23.7 17.02 23.5 16.77 23.2 16.77ZM19.9 20.22C19.9 19.42 19.25 18.77 18.45 18.77C18.25 18.77 18.05 18.82 17.85 18.92V17.82H19.55C19.65 17.82 19.75 17.77 19.85 17.72C20 17.62 20.05 17.47 20.05 17.27V16.82C20.05 16.67 20 16.57 19.9 16.47C19.85 16.42 19.8 16.32 19.8 16.22C19.8 15.97 20 15.82 20.25 15.82C20.45 15.82 20.65 16.02 20.65 16.22C20.65 16.32 20.6 16.42 20.55 16.47C20.45 16.57 20.4 16.67 20.4 16.82V17.32C20.4 17.42 20.4 17.47 20.45 17.52L20.5 17.57C20.55 17.67 20.7 17.82 21 17.82H22.7V22.67H17.85V21.52C18.05 21.62 18.25 21.67 18.45 21.67C19.3 21.67 19.9 21.02 19.9 20.22Z" fill="#699C69"/>
<path d="M19.75 0.369995H0.900024C0.600024 0.369995 0.400024 0.569995 0.400024 0.869995V19.67C0.400024 19.97 0.600024 20.17 0.900024 20.17H13.45C13.6 20.17 13.7 20.12 13.8 20.02C13.9 19.92 13.95 19.82 13.95 19.67V17.87C14.15 17.97 14.4 18.02 14.65 18.02C15.45 18.02 16.15 17.32 16.15 16.52C16.15 15.67 15.5 15.02 14.65 15.02C14.4 15.02 14.15 15.07 13.95 15.17V13.87H15.85C15.95 13.87 16 13.87 16.1 13.82L16.15 13.77C16.3 13.67 16.4 13.52 16.4 13.32V12.77C16.4 12.62 16.35 12.52 16.25 12.42C16.15 12.32 16.15 12.22 16.15 12.12C16.15 11.87 16.35 11.62 16.65 11.62C16.95 11.62 17.15 11.82 17.15 12.12C17.15 12.27 17.1 12.37 17 12.47C16.9 12.57 16.85 12.72 16.85 12.82V13.37C16.85 13.47 16.9 13.57 16.95 13.72C17.05 13.82 17.2 13.87 17.35 13.87H19.75C19.9 13.87 20 13.82 20.1 13.72C20.2 13.62 20.25 13.52 20.25 13.37V0.919995C20.25 0.619995 20.05 0.369995 19.75 0.369995ZM13.7 10.57C13.65 10.57 13.55 10.52 13.45 10.52H12.95C12.8 10.52 12.7 10.57 12.6 10.67C12.5 10.77 12.4 10.77 12.3 10.77C12.05 10.77 11.8 10.57 11.8 10.27C11.8 10.02 12 9.76999 12.3 9.76999C12.45 9.76999 12.55 9.82 12.6 9.87C12.7 9.97 12.8 10.02 12.95 10.02H13.45C13.55 10.02 13.65 10.02 13.75 9.92C13.9 9.82 14 9.67 14 9.47V7.56999H15.3C15.2 7.76999 15.15 8.02 15.15 8.27C15.15 9.07 15.85 9.76999 16.65 9.76999C17.5 9.76999 18.15 9.12 18.15 8.27C18.15 8.02 18.1 7.76999 18 7.56999H19.3V12.82H18C18.1 12.62 18.15 12.37 18.15 12.12C18.15 11.72 18 11.37 17.75 11.12C17.45 10.82 17.1 10.67 16.7 10.67C15.85 10.67 15.2 11.32 15.2 12.17C15.2 12.42 15.25 12.67 15.35 12.87H14.05V11.02C13.95 10.87 13.85 10.67 13.7 10.57ZM7.40002 16.87C7.40002 16.87 7.25002 16.82 7.15002 16.82H6.65002C6.50002 16.82 6.40002 16.87 6.30002 16.97C6.20002 17.07 6.10002 17.07 6.00002 17.07C5.75002 17.07 5.50002 16.87 5.50002 16.57C5.50002 16.27 5.70002 16.07 6.00002 16.07C6.15002 16.07 6.25002 16.12 6.30002 16.17C6.40002 16.27 6.50002 16.32 6.65002 16.32H7.15002C7.25002 16.32 7.30002 16.32 7.40002 16.27C7.60002 16.22 7.70002 16.02 7.70002 15.82V13.92H9.00002C8.90002 14.12 8.85002 14.37 8.85002 14.62C8.85002 15.42 9.55002 16.12 10.35 16.12C11.2 16.12 11.85 15.47 11.85 14.62C11.85 14.37 11.8 14.12 11.7 13.92H13V15.77C13 15.82 13 15.92 13.05 15.97C13.1 16.17 13.3 16.32 13.55 16.32H14.1C14.25 16.32 14.35 16.27 14.45 16.17C14.55 16.07 14.65 16.07 14.75 16.07C15 16.07 15.25 16.27 15.25 16.57C15.25 16.87 15.05 17.07 14.75 17.07C14.6 17.07 14.5 17.02 14.45 16.97C14.35 16.87 14.25 16.82 14.1 16.82H13.55C13.35 16.82 13.15 16.97 13.1 17.12C13.05 17.22 13.05 17.27 13.05 17.32V19.17H7.70002V17.27C7.70002 17.12 7.60002 16.92 7.40002 16.87ZM13 3.47C13.05 3.67 13.25 3.82 13.5 3.82H14.05C14.2 3.82 14.3 3.77 14.4 3.67C14.5 3.57 14.6 3.57 14.7 3.57C14.95 3.57 15.2 3.77 15.2 4.07C15.2 4.37 15 4.56999 14.7 4.56999C14.55 4.56999 14.45 4.52 14.4 4.47C14.3 4.37 14.2 4.32 14.05 4.32H13.5C13.3 4.32 13.1 4.47 13.05 4.62C13 4.72 13 4.76999 13 4.81999V6.67H11.7C11.8 6.47 11.85 6.22 11.85 5.97C11.85 5.17 11.15 4.47 10.35 4.47C9.50002 4.47 8.85002 5.11999 8.85002 5.97C8.85002 6.22 8.90002 6.47 9.00002 6.67H7.70002V4.77C7.70002 4.57 7.60002 4.37 7.40002 4.32C7.35002 4.27 7.25002 4.27 7.15002 4.27H6.65002C6.50002 4.27 6.40002 4.32 6.30002 4.42C6.20002 4.47 6.10002 4.52 6.00002 4.52C5.75002 4.52 5.50002 4.32 5.50002 4.02C5.50002 3.72 5.70002 3.52 6.00002 3.52C6.15002 3.52 6.25002 3.57 6.30002 3.62C6.40002 3.72 6.50002 3.77 6.65002 3.77H7.15002C7.25002 3.77 7.35002 3.77 7.40002 3.72C7.60002 3.67 7.70002 3.47 7.70002 3.27V1.42H12.95V3.27C12.95 3.32 12.95 3.42 13 3.47ZM12.95 12.92H11.05C10.95 12.92 10.85 12.97 10.75 13.02C10.6 13.12 10.55 13.27 10.55 13.42V13.97C10.55 14.12 10.6 14.22 10.7 14.32C10.8 14.42 10.8 14.52 10.8 14.62C10.8 14.87 10.6 15.12 10.3 15.12C10 15.12 9.80002 14.92 9.80002 14.62C9.80002 14.47 9.85002 14.37 9.90002 14.32C10 14.22 10.05 14.12 10.05 13.97V13.42C10.05 13.32 10 13.17 9.95002 13.12C9.85002 12.97 9.70002 12.92 9.50002 12.92H7.60002V11.62C7.80002 11.72 8.05002 11.77 8.30002 11.77C9.10002 11.77 9.80002 11.07 9.80002 10.27C9.80002 9.41999 9.15002 8.76999 8.30002 8.76999C8.05002 8.76999 7.80002 8.82 7.60002 8.92V7.62H9.55002C9.65002 7.62 9.80002 7.57 9.90002 7.52C10.05 7.42 10.1 7.26999 10.1 7.06999V6.56999C10.1 6.41999 10.05 6.32 9.95002 6.22C9.85002 6.12 9.85002 6.02 9.85002 5.92C9.85002 5.67 10.05 5.42 10.35 5.42C10.65 5.42 10.85 5.62 10.85 5.92C10.85 6.07 10.8 6.17 10.75 6.22C10.55 6.37 10.55 6.52 10.55 6.67V7.17C10.55 7.22 10.55 7.32 10.6 7.42C10.65 7.62 10.85 7.72 11.05 7.72H12.95V9.01999C12.75 8.91999 12.5 8.87 12.25 8.87C11.45 8.87 10.75 9.57 10.75 10.37C10.75 10.77 10.9 11.12 11.15 11.42C11.6 11.87 12.4 12.02 12.95 11.72V12.92ZM6.70002 2.72C6.45002 2.62 6.20002 2.52 6.00002 2.52C5.20002 2.52 4.50002 3.22 4.50002 4.02C4.50002 4.87 5.15002 5.52 6.00002 5.52C6.25002 5.52 6.50002 5.47 6.70002 5.37V6.67H4.75002C4.65002 6.67 4.55002 6.72 4.45002 6.77C4.30002 6.87 4.25002 7.02 4.25002 7.17V7.72C4.25002 7.87 4.30002 7.96999 4.40002 8.06999C4.50002 8.16999 4.50002 8.27 4.50002 8.37C4.50002 8.62 4.30002 8.87 4.00002 8.87C3.70002 8.87 3.50002 8.67 3.50002 8.37C3.50002 8.22 3.55002 8.11999 3.60002 8.06999C3.70002 7.96999 3.75002 7.87 3.75002 7.72V7.22C3.75002 7.12 3.70002 6.97 3.65002 6.92C3.55002 6.77 3.40002 6.72 3.20002 6.72H1.40002V1.42H6.65002V2.72H6.70002ZM2.55002 8.37C2.55002 9.17 3.25002 9.87 4.05002 9.87C4.90002 9.87 5.55002 9.22 5.55002 8.37C5.55002 8.12 5.50002 7.87 5.40002 7.67H6.70002V9.51999C6.70002 9.56999 6.70002 9.67 6.75002 9.72C6.80002 9.92 7.00002 10.07 7.25002 10.07H7.75002C7.90002 10.07 8.00002 10.02 8.10002 9.92C8.20002 9.82 8.30002 9.81999 8.40002 9.81999C8.65002 9.81999 8.90002 10.02 8.90002 10.32C8.90002 10.57 8.70002 10.82 8.40002 10.82C8.25002 10.82 8.15002 10.77 8.10002 10.72C8.00002 10.62 7.90002 10.57 7.75002 10.57H7.20002C7.00002 10.57 6.80002 10.72 6.75002 10.87C6.70002 10.97 6.70002 11.02 6.70002 11.07V12.92H5.40002C5.50002 12.72 5.55002 12.47 5.55002 12.22C5.55002 11.82 5.40002 11.47 5.15002 11.17C4.85002 10.87 4.50002 10.72 4.10002 10.72C3.25002 10.72 2.60002 11.37 2.60002 12.22C2.60002 12.47 2.65002 12.72 2.75002 12.92H1.40002V7.67H2.70002C2.60002 7.92 2.55002 8.17 2.55002 8.37ZM1.45002 13.97H3.30002C3.40002 13.97 3.45002 13.97 3.55002 13.92H3.60002C3.75002 13.82 3.85002 13.67 3.85002 13.47V12.92C3.85002 12.77 3.80002 12.67 3.70002 12.57C3.60002 12.47 3.60002 12.37 3.60002 12.27C3.60002 12.02 3.80002 11.77 4.10002 11.77C4.40002 11.77 4.60002 11.97 4.60002 12.27C4.60002 12.42 4.55002 12.52 4.50002 12.57C4.40002 12.67 4.35002 12.77 4.35002 12.92V13.47C4.35002 13.62 4.40002 13.72 4.50002 13.82C4.60002 13.92 4.70002 13.97 4.85002 13.97H6.75002V15.27C6.55002 15.17 6.30002 15.12 6.05002 15.12C5.25002 15.12 4.55002 15.82 4.55002 16.62C4.55002 17.47 5.20002 18.12 6.05002 18.12C6.30002 18.12 6.55002 18.07 6.75002 17.97V19.27H1.45002V13.97ZM17 6.77C16.85 6.87 16.8 7.02 16.8 7.17V7.72C16.8 7.87 16.85 7.96999 16.95 8.06999C17.05 8.16999 17.05 8.27 17.05 8.37C17.05 8.62 16.85 8.87 16.55 8.87C16.3 8.87 16.05 8.67 16.05 8.37C16.05 8.22 16.1 8.11999 16.15 8.06999C16.25 7.96999 16.3 7.87 16.3 7.72V7.17C16.3 7.07 16.25 6.92 16.2 6.87C16.1 6.72 15.95 6.67 15.75 6.67H13.85V5.37C14.05 5.47 14.3 5.52 14.55 5.52C15.35 5.52 16.05 4.82 16.05 4.02C16.05 3.17 15.4 2.52 14.55 2.52C14.3 2.52 14.05 2.57 13.85 2.67V1.42H19.1V6.67H17.2C17.2 6.67 17.1 6.72 17 6.77Z" fill="#4195B9"/>
</g>
<defs>
<clipPath id="clip0_113_497">
<rect width="24" height="24" fill="white"/>
</clipPath>
</defs>
</svg>
