<svg width="24" height="24" viewBox="0 0 24 24" fill="none" xmlns="http://www.w3.org/2000/svg">
<path fill-rule="evenodd" clip-rule="evenodd" d="M13 2H11C10.8106 2 10.6375 2.107 10.5528 2.27639L9.55279 4.27639C9.38656 4.60884 9.62831 5 10 5H14C14.3717 5 14.6134 4.60884 14.4472 4.27639L13.4472 2.27639C13.3625 2.107 13.1894 2 13 2ZM12.69 3L13.19 4H10.809L11.309 3H12.69ZM6 12.5C7.10457 12.5 8 13.3954 8 14.5C8 15.6046 7.10457 16.5 6 16.5C4.89543 16.5 4 15.6046 4 14.5C4 13.3954 4.89543 12.5 6 12.5ZM6 13.5C5.44772 13.5 5 13.9477 5 14.5C5 15.0523 5.44772 15.5 6 15.5C6.55228 15.5 7 15.0523 7 14.5C7 13.9477 6.55228 13.5 6 13.5ZM18 12.5C19.1046 12.5 20 13.3954 20 14.5C20 15.6046 19.1046 16.5 18 16.5C16.8954 16.5 16 15.6046 16 14.5C16 13.3954 16.8954 12.5 18 12.5ZM18 13.5C17.4477 13.5 17 13.9477 17 14.5C17 15.0523 17.4477 15.5 18 15.5C18.5523 15.5 19 15.0523 19 14.5C19 13.9477 18.5523 13.5 18 13.5Z" fill="#699C69"/>
<path fill-rule="evenodd" clip-rule="evenodd" d="M18.4984 4L18.6402 4.00667C19.2013 4.05967 19.6865 4.42433 19.8934 4.94861L19.9393 5.08291L22.4803 12.861L22.5 13V20.5L22.4931 20.6445C22.425 21.3576 21.8576 21.925 21.1445 21.9931L21 22H19.25L19.1055 21.9931C18.3924 21.925 17.825 21.3576 17.7569 20.6445L17.75 20.5V19H6.25V20.5C6.25 21.2797 5.65511 21.9204 4.89446 21.9931L4.75 22H3C2.2203 22 1.57955 21.4051 1.50687 20.6445L1.5 20.5V13L1.51972 12.861L4.06073 5.08291C4.23316 4.48728 4.75193 4.06409 5.35983 4.00667L5.50158 4H18.4984ZM5.249 19H2.5V20.5C2.5 20.7455 2.67688 20.9496 2.91012 20.9919L3 21H4.75C4.99546 21 5.19961 20.8231 5.24194 20.5899L5.25 20.5L5.249 19ZM21.5 19H18.75V20.5L18.7581 20.5899C18.7951 20.794 18.956 20.9549 19.1601 20.9919L19.25 21H21L21.0899 20.9919C21.294 20.9549 21.4549 20.794 21.4919 20.5899L21.5 20.5V19ZM20.823 11H3.177L2.5 13.07V18H21.5V13.07L20.823 11ZM18.4984 5H5.50158C5.30681 5 5.13256 5.11266 5.05058 5.28407L5.0213 5.36097L3.504 10H20.496L18.9787 5.36097L18.9494 5.28407C18.8792 5.13715 18.7411 5.03339 18.5804 5.00674L18.4984 5Z" fill="#4195B9"/>
</svg>
