<svg width="24" height="24" viewBox="0 0 24 24" fill="none" xmlns="http://www.w3.org/2000/svg">
<path fill-rule="evenodd" clip-rule="evenodd" d="M6.35999 3.15002C6.63613 3.15002 6.85999 3.37388 6.85999 3.65002V17.115C6.85999 17.3912 6.63613 17.615 6.35999 17.615C6.08384 17.615 5.85999 17.3912 5.85999 17.115V3.65002C5.85999 3.37388 6.08384 3.15002 6.35999 3.15002Z" fill="#4195B9"/>
<path fill-rule="evenodd" clip-rule="evenodd" d="M12.085 3.15002C12.3611 3.15002 12.585 3.37388 12.585 3.65002V6.83502C12.585 7.11117 12.3611 7.33502 12.085 7.33502C11.8088 7.33502 11.585 7.11117 11.585 6.83502V3.65002C11.585 3.37388 11.8088 3.15002 12.085 3.15002Z" fill="#4195B9"/>
<path fill-rule="evenodd" clip-rule="evenodd" d="M12.085 14.1595C12.3611 14.1595 12.585 14.3834 12.585 14.6595V17.105C12.585 17.3811 12.3611 17.605 12.085 17.605C11.8088 17.605 11.585 17.3811 11.585 17.105V14.6595C11.585 14.3834 11.8088 14.1595 12.085 14.1595Z" fill="#4195B9"/>
<path fill-rule="evenodd" clip-rule="evenodd" d="M0.64502 8.16003C0.64502 7.88389 0.868877 7.66003 1.14502 7.66003H9.08002C9.35616 7.66003 9.58002 7.88389 9.58002 8.16003C9.58002 8.43618 9.35616 8.66003 9.08002 8.66003H1.14502C0.868877 8.66003 0.64502 8.43618 0.64502 8.16003Z" fill="#4195B9"/>
<path fill-rule="evenodd" clip-rule="evenodd" d="M0.469971 12.545C0.469971 12.2689 0.693828 12.045 0.969971 12.045H7.57997C7.85611 12.045 8.07997 12.2689 8.07997 12.545C8.07997 12.8212 7.85611 13.045 7.57997 13.045H0.969971C0.693828 13.045 0.469971 12.8212 0.469971 12.545Z" fill="#4195B9"/>
<path fill-rule="evenodd" clip-rule="evenodd" d="M18.4998 8.16003C18.4998 7.88389 18.7236 7.66003 18.9998 7.66003H23.2999C23.5761 7.66003 23.7999 7.88389 23.7999 8.16003C23.7999 8.43618 23.5761 8.66003 23.2999 8.66003H18.9998C18.7236 8.66003 18.4998 8.43618 18.4998 8.16003Z" fill="#4195B9"/>
<path fill-rule="evenodd" clip-rule="evenodd" d="M16.78 12.545C16.78 12.2689 17.0039 12.045 17.28 12.045H23.3C23.5762 12.045 23.8 12.2689 23.8 12.545C23.8 12.8212 23.5762 13.045 23.3 13.045H17.28C17.0039 13.045 16.78 12.8212 16.78 12.545Z" fill="#4195B9"/>
<path fill-rule="evenodd" clip-rule="evenodd" d="M17.98 3.15002C18.2561 3.15002 18.48 3.37388 18.48 3.65002V5.28502C18.48 5.56117 18.2561 5.78502 17.98 5.78502C17.7038 5.78502 17.48 5.56117 17.48 5.28502V3.65002C17.48 3.37388 17.7038 3.15002 17.98 3.15002Z" fill="#4195B9"/>
<path fill-rule="evenodd" clip-rule="evenodd" d="M17.98 11.35C18.2561 11.35 18.48 11.5738 18.48 11.85V16.59C18.48 16.8661 18.2561 17.09 17.98 17.09C17.7038 17.09 17.48 16.8661 17.48 16.59V11.85C17.48 11.5738 17.7038 11.35 17.98 11.35Z" fill="#4195B9"/>
<path fill-rule="evenodd" clip-rule="evenodd" d="M0.234985 3.52002C0.234985 3.24388 0.458843 3.02002 0.734985 3.02002H23.35C23.6261 3.02002 23.85 3.24388 23.85 3.52002V17.215C23.85 17.4912 23.6261 17.715 23.35 17.715H0.734985C0.458843 17.715 0.234985 17.4912 0.234985 17.215V3.52002ZM1.23499 4.02002V16.715H22.85V4.02002H1.23499Z" fill="#4195B9"/>
<g clip-path="url(#clip0_103_504)">
<path fill-rule="evenodd" clip-rule="evenodd" d="M17.102 6.81528C15.1697 8.33981 14.2257 7.41382 11.9469 8.43226C10.3157 9.16123 10.148 10.3328 10.1844 10.9401C11.4988 9.87925 13.3175 9.45936 13.3175 9.45936C10.8414 10.5293 9.44787 12.7622 9.20348 13.1803C9.30194 13.7852 9.87757 13.6444 9.87757 13.6444C10.155 12.9039 10.783 12.155 10.783 12.155C10.783 12.155 12.2563 13.5054 14.7731 12.127C17.2899 10.7487 17.102 6.81528 17.102 6.81528Z" fill="#699C69"/>
</g>
<defs>
<clipPath id="clip0_103_504">
<rect width="7.99172" height="8.14596" fill="white" transform="translate(9.31897 6) rotate(2.24982)"/>
</clipPath>
</defs>
</svg>
