<svg width="24" height="24" viewBox="0 0 24 24" fill="none" xmlns="http://www.w3.org/2000/svg">
<path fill-rule="evenodd" clip-rule="evenodd" d="M6.35999 3.15002C6.63613 3.15002 6.85999 3.37388 6.85999 3.65002V17.115C6.85999 17.3912 6.63613 17.615 6.35999 17.615C6.08384 17.615 5.85999 17.3912 5.85999 17.115V3.65002C5.85999 3.37388 6.08384 3.15002 6.35999 3.15002Z" fill="#4195B9"/>
<path fill-rule="evenodd" clip-rule="evenodd" d="M12.085 3.15002C12.3611 3.15002 12.585 3.37388 12.585 3.65002V6.83502C12.585 7.11117 12.3611 7.33502 12.085 7.33502C11.8088 7.33502 11.585 7.11117 11.585 6.83502V3.65002C11.585 3.37388 11.8088 3.15002 12.085 3.15002Z" fill="#4195B9"/>
<path fill-rule="evenodd" clip-rule="evenodd" d="M12.085 15.035C12.3611 15.035 12.585 15.2589 12.585 15.535V17.105C12.585 17.3812 12.3611 17.605 12.085 17.605C11.8088 17.605 11.585 17.3812 11.585 17.105V15.535C11.585 15.2589 11.8088 15.035 12.085 15.035Z" fill="#4195B9"/>
<path fill-rule="evenodd" clip-rule="evenodd" d="M0.64502 8.16003C0.64502 7.88389 0.868877 7.66003 1.14502 7.66003H9.08002C9.35616 7.66003 9.58002 7.88389 9.58002 8.16003C9.58002 8.43618 9.35616 8.66003 9.08002 8.66003H1.14502C0.868877 8.66003 0.64502 8.43618 0.64502 8.16003Z" fill="#4195B9"/>
<path fill-rule="evenodd" clip-rule="evenodd" d="M0.469971 12.545C0.469971 12.2689 0.693828 12.045 0.969971 12.045H7.57997C7.85611 12.045 8.07997 12.2689 8.07997 12.545C8.07997 12.8212 7.85611 13.045 7.57997 13.045H0.969971C0.693828 13.045 0.469971 12.8212 0.469971 12.545Z" fill="#4195B9"/>
<path fill-rule="evenodd" clip-rule="evenodd" d="M20.825 8.16003C20.825 7.88389 21.0488 7.66003 21.325 7.66003H23.2999C23.5761 7.66003 23.7999 7.88389 23.7999 8.16003C23.7999 8.43618 23.5761 8.66003 23.2999 8.66003H21.325C21.0488 8.66003 20.825 8.43618 20.825 8.16003Z" fill="#4195B9"/>
<path fill-rule="evenodd" clip-rule="evenodd" d="M16.78 12.545C16.78 12.2689 17.0039 12.045 17.28 12.045H23.3C23.5762 12.045 23.8 12.2689 23.8 12.545C23.8 12.8212 23.5762 13.045 23.3 13.045H17.28C17.0039 13.045 16.78 12.8212 16.78 12.545Z" fill="#4195B9"/>
<path fill-rule="evenodd" clip-rule="evenodd" d="M17.98 3.15002C18.2561 3.15002 18.48 3.37388 18.48 3.65002V5.28502C18.48 5.56117 18.2561 5.78502 17.98 5.78502C17.7038 5.78502 17.48 5.56117 17.48 5.28502V3.65002C17.48 3.37388 17.7038 3.15002 17.98 3.15002Z" fill="#4195B9"/>
<path fill-rule="evenodd" clip-rule="evenodd" d="M17.98 11.35C18.2561 11.35 18.48 11.5738 18.48 11.85V16.59C18.48 16.8661 18.2561 17.09 17.98 17.09C17.7038 17.09 17.48 16.8661 17.48 16.59V11.85C17.48 11.5738 17.7038 11.35 17.98 11.35Z" fill="#4195B9"/>
<path fill-rule="evenodd" clip-rule="evenodd" d="M15.1799 7.71496C14.601 8.87585 13.6357 9.79875 12.4499 10.325C11.4499 10.665 11.0849 9.90996 11.6349 8.82496L15.1799 7.71496ZM20.6799 6.08496C19.1199 9.51996 15.5099 12.985 12.5999 13.945C9.67494 14.83 8.59994 12.78 10.1499 9.36496L11.1499 9.02496C10.1499 11.28 10.8099 12.645 12.7799 12.025C14.7499 11.405 17.0649 9.15496 18.0849 6.89996L20.6799 6.08496Z" fill="#699C69"/>
<path fill-rule="evenodd" clip-rule="evenodd" d="M0.234985 3.52002C0.234985 3.24388 0.458843 3.02002 0.734985 3.02002H23.35C23.6261 3.02002 23.85 3.24388 23.85 3.52002V17.215C23.85 17.4912 23.6261 17.715 23.35 17.715H0.734985C0.458843 17.715 0.234985 17.4912 0.234985 17.215V3.52002ZM1.23499 4.02002V16.715H22.85V4.02002H1.23499Z" fill="#4195B9"/>
</svg>
