<svg width="24" height="24" viewBox="0 0 24 24" fill="none" xmlns="http://www.w3.org/2000/svg">
<g clip-path="url(#clip0_103_271)">
<path fill-rule="evenodd" clip-rule="evenodd" d="M5.79836 3.49935C5.3142 4.56718 4.50692 5.41611 3.51534 5.90014C2.67907 6.21289 2.37383 5.51841 2.83378 4.52037L5.79836 3.49935ZM10.3978 2C9.09327 5.15967 6.07433 8.34693 3.64078 9.22998C1.19469 10.044 0.295695 8.15836 1.59192 5.01709L2.42819 4.70434C1.59192 6.77859 2.14385 8.03418 3.79131 7.46388C5.43876 6.89357 7.37473 4.82392 8.22772 2.74967L10.3978 2Z" fill="#699C69"/>
<path fill-rule="evenodd" clip-rule="evenodd" d="M9.5 6C9.5 5.72386 9.72386 5.5 10 5.5H13C13.2761 5.5 13.5 5.72386 13.5 6C13.5 6.27614 13.2761 6.5 13 6.5H10C9.72386 6.5 9.5 6.27614 9.5 6Z" fill="#4195B9"/>
<path fill-rule="evenodd" clip-rule="evenodd" d="M20.5 6C20.5 5.72386 20.7239 5.5 21 5.5H22C22.8284 5.5 23.5 6.17157 23.5 7V20C23.5 20.8284 22.8284 21.5 22 21.5H2C1.17157 21.5 0.5 20.8284 0.5 20V11C0.5 10.7239 0.723858 10.5 1 10.5C1.27614 10.5 1.5 10.7239 1.5 11V20C1.5 20.2761 1.72386 20.5 2 20.5H22C22.2761 20.5 22.5 20.2761 22.5 20V7C22.5 6.72386 22.2761 6.5 22 6.5H21C20.7239 6.5 20.5 6.27614 20.5 6Z" fill="#4195B9"/>
<path fill-rule="evenodd" clip-rule="evenodd" d="M4.5 11C4.5 10.7239 4.72386 10.5 5 10.5H11C11.2761 10.5 11.5 10.7239 11.5 11C11.5 11.2761 11.2761 11.5 11 11.5H5C4.72386 11.5 4.5 11.2761 4.5 11Z" fill="#4195B9"/>
<path fill-rule="evenodd" clip-rule="evenodd" d="M0.5 16C0.5 15.7239 0.723858 15.5 1 15.5L11 15.5C11.2761 15.5 11.5 15.7239 11.5 16C11.5 16.2761 11.2761 16.5 11 16.5L1 16.5C0.723857 16.5 0.5 16.2761 0.5 16Z" fill="#4195B9"/>
<path fill-rule="evenodd" clip-rule="evenodd" d="M8 9.5C8.27614 9.5 8.5 9.72386 8.5 10L8.5 21C8.5 21.2761 8.27614 21.5 8 21.5C7.72386 21.5 7.5 21.2761 7.5 21L7.5 10C7.5 9.72386 7.72386 9.5 8 9.5Z" fill="#4195B9"/>
<path fill-rule="evenodd" clip-rule="evenodd" d="M16 19.5C16.2761 19.5 16.5 19.7239 16.5 20L16.5 21C16.5 21.2761 16.2761 21.5 16 21.5C15.7239 21.5 15.5 21.2761 15.5 21L15.5 20C15.5 19.7239 15.7239 19.5 16 19.5Z" fill="#4195B9"/>
<path fill-rule="evenodd" clip-rule="evenodd" d="M15.5 4C15.5 3.72386 15.7239 3.5 16 3.5L18 3.5C18.2761 3.5 18.5 3.72386 18.5 4C18.5 4.27614 18.2761 4.5 18 4.5L16 4.5C15.7239 4.5 15.5 4.27614 15.5 4Z" fill="#699C69"/>
<path fill-rule="evenodd" clip-rule="evenodd" d="M12.5 3C12.5 2.17157 13.1716 1.5 14 1.5H20C20.8284 1.5 21.5 2.17157 21.5 3V17C21.5 17.8284 20.8284 18.5 20 18.5H14C13.1716 18.5 12.5 17.8284 12.5 17V3ZM14 2.5C13.7239 2.5 13.5 2.72386 13.5 3V17C13.5 17.2761 13.7239 17.5 14 17.5H20C20.2761 17.5 20.5 17.2761 20.5 17V3C20.5 2.72386 20.2761 2.5 20 2.5H14Z" fill="#699C69"/>
<path fill-rule="evenodd" clip-rule="evenodd" d="M17 16C17.5523 16 18 15.5523 18 15C18 14.4477 17.5523 14 17 14C16.4477 14 16 14.4477 16 15C16 15.5523 16.4477 16 17 16Z" fill="#699C69"/>
</g>
<defs>
<clipPath id="clip0_103_271">
<rect width="24" height="24" fill="white"/>
</clipPath>
</defs>
</svg>
