<svg width="24" height="24" viewBox="0 0 24 24" fill="none" xmlns="http://www.w3.org/2000/svg">
<g clip-path="url(#clip0_103_184)">
<path fill-rule="evenodd" clip-rule="evenodd" d="M5.79836 2.49935C5.3142 3.56718 4.50692 4.41611 3.51534 4.90014C2.67907 5.21289 2.37383 4.51841 2.83378 3.52037L5.79836 2.49935ZM10.3978 1C9.09327 4.15967 6.07433 7.34693 3.64078 8.22998C1.19469 9.04404 0.295695 7.15836 1.59192 4.01709L2.42819 3.70434C1.59192 5.77859 2.14385 7.03418 3.79131 6.46388C5.43876 5.89357 7.37473 3.82392 8.22772 1.74967L10.3978 1Z" fill="#699C69"/>
<path fill-rule="evenodd" clip-rule="evenodd" d="M9.5 5C9.5 4.72386 9.72386 4.5 10 4.5H13C13.2761 4.5 13.5 4.72386 13.5 5C13.5 5.27614 13.2761 5.5 13 5.5H10C9.72386 5.5 9.5 5.27614 9.5 5Z" fill="#4195B9"/>
<path fill-rule="evenodd" clip-rule="evenodd" d="M1 9.5C1.27614 9.5 1.5 9.72386 1.5 10V19C1.5 19.2761 1.72386 19.5 2 19.5H12C12.2761 19.5 12.5 19.7239 12.5 20C12.5 20.2761 12.2761 20.5 12 20.5H2C1.17157 20.5 0.5 19.8284 0.5 19V10C0.5 9.72386 0.723858 9.5 1 9.5Z" fill="#4195B9"/>
<path fill-rule="evenodd" clip-rule="evenodd" d="M20.5 5C20.5 4.72386 20.7239 4.5 21 4.5H22C22.8284 4.5 23.5 5.17157 23.5 6V15C23.5 15.2761 23.2761 15.5 23 15.5C22.7239 15.5 22.5 15.2761 22.5 15V6C22.5 5.72386 22.2761 5.5 22 5.5H21C20.7239 5.5 20.5 5.27614 20.5 5Z" fill="#4195B9"/>
<path fill-rule="evenodd" clip-rule="evenodd" d="M4.5 10C4.5 9.72386 4.72386 9.5 5 9.5H11C11.2761 9.5 11.5 9.72386 11.5 10C11.5 10.2761 11.2761 10.5 11 10.5H5C4.72386 10.5 4.5 10.2761 4.5 10Z" fill="#4195B9"/>
<path fill-rule="evenodd" clip-rule="evenodd" d="M0.5 15C0.5 14.7239 0.723858 14.5 1 14.5L11 14.5C11.2761 14.5 11.5 14.7239 11.5 15C11.5 15.2761 11.2761 15.5 11 15.5L1 15.5C0.723857 15.5 0.5 15.2761 0.5 15Z" fill="#4195B9"/>
<path fill-rule="evenodd" clip-rule="evenodd" d="M8 8.5C8.27614 8.5 8.5 8.72386 8.5 9L8.5 20C8.5 20.2761 8.27614 20.5 8 20.5C7.72386 20.5 7.5 20.2761 7.5 20L7.5 9C7.5 8.72386 7.72386 8.5 8 8.5Z" fill="#4195B9"/>
<path fill-rule="evenodd" clip-rule="evenodd" d="M12.5 2.5C12.5 1.39543 13.3954 0.5 14.5 0.5H19.5C20.6046 0.5 21.5 1.39543 21.5 2.5V12.7435C21.5 13.0196 21.2761 13.2435 21 13.2435C20.7239 13.2435 20.5 13.0196 20.5 12.7435V2.5C20.5 1.94771 20.0523 1.5 19.5 1.5H14.5C13.9477 1.5 13.5 1.94772 13.5 2.5V14C13.5 14.2761 13.2761 14.5 13 14.5C12.7239 14.5 12.5 14.2761 12.5 14V2.5Z" fill="#699C69"/>
<path fill-rule="evenodd" clip-rule="evenodd" d="M15.5 3C15.5 2.72386 15.7239 2.5 16 2.5L18 2.5C18.2761 2.5 18.5 2.72386 18.5 3C18.5 3.27614 18.2761 3.5 18 3.5L16 3.5C15.7239 3.5 15.5 3.27614 15.5 3Z" fill="#699C69"/>
<path d="M17.845 13.7349C15.1692 13.7349 13 15.904 13 18.5799C13 21.2557 15.1692 23.4249 17.845 23.4249C20.5208 23.4249 22.69 21.2557 22.69 18.5799C22.69 15.904 20.5208 13.7349 17.845 13.7349ZM17.845 14.7349C19.9685 14.7349 21.69 16.4563 21.69 18.5799C21.69 20.7034 19.9685 22.4249 17.845 22.4249C15.7215 22.4249 14 20.7034 14 18.5799C14 16.4563 15.7215 14.7349 17.845 14.7349Z" fill="#699C69"/>
<path d="M18.61 17.2202C19.1152 17.2202 19.5998 17.4209 19.957 17.7782C20.2868 18.108 20.4832 18.5462 20.5115 19.009L20.515 19.1252V19.3202C20.515 20.3394 19.7146 21.1717 18.708 21.2227L18.61 21.2252H16.45C16.2015 21.2252 16 21.0237 16 20.7752C16 20.5458 16.1717 20.3565 16.3936 20.3287L16.45 20.3252H18.61C19.1398 20.3252 19.5739 19.9152 19.6122 19.3952L19.615 19.3202V19.1252C19.615 18.8587 19.5091 18.603 19.3206 18.4146C19.1531 18.247 18.9325 18.1448 18.6984 18.1241L18.61 18.1202H17.11C16.8615 18.1202 16.66 17.9187 16.66 17.6702C16.66 17.4408 16.8317 17.2515 17.0536 17.2237L17.11 17.2202H18.61Z" fill="#699C69"/>
<path d="M17.3662 16.1324C17.5415 15.9564 17.8265 15.9558 18.0026 16.1312C18.164 16.2919 18.1779 16.5447 18.044 16.7214L18.0038 16.7676L17.085 17.69L18.0038 18.6124C18.1646 18.7739 18.1775 19.0267 18.0429 19.2028L18.0026 19.2488C17.8411 19.4096 17.5883 19.4225 17.4122 19.2879L17.3662 19.2476L16.1312 18.0076C15.9709 17.8466 15.9575 17.5946 16.0911 17.4185L16.1312 17.3724L17.3662 16.1324Z" fill="#699C69"/>
</g>
<defs>
<clipPath id="clip0_103_184">
<rect width="24" height="24" fill="white"/>
</clipPath>
</defs>
</svg>
