<svg width="24" height="24" viewBox="0 0 24 24" fill="none" xmlns="http://www.w3.org/2000/svg">
<path fill-rule="evenodd" clip-rule="evenodd" d="M0.235352 3.52002C0.235352 3.24388 0.459209 3.02002 0.735352 3.02002H23.3454C23.6215 3.02002 23.8454 3.24388 23.8454 3.52002V13.735C23.8454 14.0112 23.6215 14.235 23.3454 14.235C23.0692 14.235 22.8454 14.0112 22.8454 13.735V4.02002H1.23535V16.72H13.2354C13.5115 16.72 13.7354 16.9439 13.7354 17.22C13.7354 17.4962 13.5115 17.72 13.2354 17.72H0.735352C0.459209 17.72 0.235352 17.4962 0.235352 17.22V3.52002Z" fill="#4195B9"/>
<path fill-rule="evenodd" clip-rule="evenodd" d="M6.36035 3.15002C6.63649 3.15002 6.86035 3.37388 6.86035 3.65002V17.115C6.86035 17.3912 6.63649 17.615 6.36035 17.615C6.08421 17.615 5.86035 17.3912 5.86035 17.115V3.65002C5.86035 3.37388 6.08421 3.15002 6.36035 3.15002Z" fill="#4195B9"/>
<path fill-rule="evenodd" clip-rule="evenodd" d="M12.085 3.1499C12.3611 3.1499 12.585 3.37376 12.585 3.6499V6.8349C12.585 7.11104 12.3611 7.3349 12.085 7.3349C11.8088 7.3349 11.585 7.11104 11.585 6.8349V3.6499C11.585 3.37376 11.8088 3.1499 12.085 3.1499Z" fill="#4195B9"/>
<path fill-rule="evenodd" clip-rule="evenodd" d="M12.085 15.0352C12.3611 15.0352 12.585 15.259 12.585 15.5352V17.1052C12.585 17.3813 12.3611 17.6052 12.085 17.6052C11.8088 17.6052 11.585 17.3813 11.585 17.1052V15.5352C11.585 15.259 11.8088 15.0352 12.085 15.0352Z" fill="#4195B9"/>
<path fill-rule="evenodd" clip-rule="evenodd" d="M0.645386 8.16003C0.645386 7.88389 0.869243 7.66003 1.14539 7.66003H9.08039C9.35653 7.66003 9.58039 7.88389 9.58039 8.16003C9.58039 8.43618 9.35653 8.66003 9.08039 8.66003H1.14539C0.869243 8.66003 0.645386 8.43618 0.645386 8.16003Z" fill="#4195B9"/>
<path fill-rule="evenodd" clip-rule="evenodd" d="M0.470703 12.5449C0.470703 12.2688 0.694561 12.0449 0.970703 12.0449H7.5807C7.85685 12.0449 8.0807 12.2688 8.0807 12.5449C8.0807 12.8211 7.85685 13.0449 7.5807 13.0449H0.970703C0.694561 13.0449 0.470703 12.8211 0.470703 12.5449Z" fill="#4195B9"/>
<path fill-rule="evenodd" clip-rule="evenodd" d="M20.8253 8.16003C20.8253 7.88389 21.0492 7.66003 21.3253 7.66003H23.3003C23.5765 7.66003 23.8003 7.88389 23.8003 8.16003C23.8003 8.43618 23.5765 8.66003 23.3003 8.66003H21.3253C21.0492 8.66003 20.8253 8.43618 20.8253 8.16003Z" fill="#4195B9"/>
<path fill-rule="evenodd" clip-rule="evenodd" d="M17.6406 12.5449C17.6406 12.2688 17.8645 12.0449 18.1406 12.0449H23.3006C23.5768 12.0449 23.8006 12.2688 23.8006 12.5449C23.8006 12.8211 23.5768 13.0449 23.3006 13.0449H18.1406C17.8645 13.0449 17.6406 12.8211 17.6406 12.5449Z" fill="#4195B9"/>
<path fill-rule="evenodd" clip-rule="evenodd" d="M17.9803 3.15002C18.2565 3.15002 18.4803 3.37388 18.4803 3.65002V5.28502C18.4803 5.56117 18.2565 5.78502 17.9803 5.78502C17.7042 5.78502 17.4803 5.56117 17.4803 5.28502V3.65002C17.4803 3.37388 17.7042 3.15002 17.9803 3.15002Z" fill="#4195B9"/>
<path fill-rule="evenodd" clip-rule="evenodd" d="M15.1803 7.71496C14.6014 8.87585 13.636 9.79875 12.4503 10.325C11.4503 10.665 11.0853 9.90996 11.6353 8.82496L15.1803 7.71496ZM20.6803 6.08496C19.1203 9.51996 15.5103 12.985 12.6003 13.945C9.67531 14.83 8.60031 12.78 10.1503 9.36496L11.1503 9.02496C10.1503 11.28 10.8103 12.645 12.7803 12.025C14.7503 11.405 17.0653 9.15496 18.0853 6.89996L20.6803 6.08496Z" fill="#699C69"/>
<path fill-rule="evenodd" clip-rule="evenodd" d="M17.745 17.6951C17.745 17.4466 17.9464 17.2451 18.195 17.2451H19.695C20.2002 17.2451 20.6847 17.4458 21.042 17.8031C21.3993 18.1603 21.6 18.6449 21.6 19.1501V19.3451C21.6 20.3972 20.7471 21.2501 19.695 21.2501H17.535C17.2864 21.2501 17.085 21.0486 17.085 20.8001C17.085 20.5516 17.2864 20.3501 17.535 20.3501H19.695C20.25 20.3501 20.7 19.9002 20.7 19.3451V19.1501C20.7 18.8836 20.5941 18.6279 20.4056 18.4395C20.2171 18.251 19.9615 18.1451 19.695 18.1451H18.195C17.9464 18.1451 17.745 17.9436 17.745 17.6951Z" fill="#699C69"/>
<path fill-rule="evenodd" clip-rule="evenodd" d="M19.0875 16.1561C19.2636 16.3314 19.2642 16.6164 19.0888 16.7925L18.1701 17.7149L19.0888 18.6373C19.2642 18.8134 19.2636 19.0984 19.0875 19.2737C18.9114 19.4491 18.6265 19.4485 18.4511 19.2725L17.2161 18.0325C17.0412 17.8569 17.0412 17.5729 17.2161 17.3973L18.4511 16.1573C18.6265 15.9813 18.9114 15.9807 19.0875 16.1561Z" fill="#699C69"/>
<path fill-rule="evenodd" clip-rule="evenodd" d="M19.1057 15.0352C16.9822 15.0352 15.2607 16.7566 15.2607 18.8802C15.2607 21.0037 16.9822 22.7252 19.1057 22.7252C21.2293 22.7252 22.9507 21.0037 22.9507 18.8802C22.9507 16.7566 21.2293 15.0352 19.1057 15.0352ZM14.2607 18.8802C14.2607 16.2043 16.4299 14.0352 19.1057 14.0352C21.7816 14.0352 23.9507 16.2043 23.9507 18.8802C23.9507 21.556 21.7816 23.7252 19.1057 23.7252C16.4299 23.7252 14.2607 21.556 14.2607 18.8802Z" fill="#699C69"/>
</svg>
