<svg width="24" height="24" viewBox="0 0 24 24" fill="none" xmlns="http://www.w3.org/2000/svg">
<path fill-rule="evenodd" clip-rule="evenodd" d="M0 2.5C0 2.22386 0.223858 2 0.5 2H23C23.2761 2 23.5 2.22386 23.5 2.5V14C23.5 14.2761 23.2761 14.5 23 14.5C22.7239 14.5 22.5 14.2761 22.5 14V3H1V17H12.5C12.7761 17 13 17.2239 13 17.5C13 17.7761 12.7761 18 12.5 18H0.5C0.223858 18 0 17.7761 0 17.5V2.5Z" fill="#4195B9"/>
<path fill-rule="evenodd" clip-rule="evenodd" d="M0.399902 8.5C0.399902 8.22386 0.0947964 8 0.399871 8H8.59479C8.76327 8 8.89986 8.22386 8.89986 8.5C8.89986 8.77614 8.76327 9 8.59479 9H0.399871C0.0947964 9 0.399902 8.77614 0.399902 8.5Z" fill="#4195B9"/>
<path fill-rule="evenodd" clip-rule="evenodd" d="M20.8999 8.5C20.8999 8.22386 21.0342 8 21.1999 8L22.6999 8C22.8656 8 22.9999 8.22386 22.9999 8.5C22.9999 8.77614 22.8656 9 22.6999 9L21.1999 9C21.0342 9 20.8999 8.77614 20.8999 8.5Z" fill="#4195B9"/>
<path fill-rule="evenodd" clip-rule="evenodd" d="M16.8999 12.5C16.8999 12.2239 17.0342 12 17.1999 12L22.4499 12C22.6156 12 22.7499 12.2239 22.7499 12.5C22.7499 12.7761 22.6156 13 22.4499 13L17.1999 13C17.0342 13 16.8999 12.7761 16.8999 12.5Z" fill="#4195B9"/>
<path fill-rule="evenodd" clip-rule="evenodd" d="M0.399902 12.2096C0.399902 11.9335 0.343555 12.0096 0.50924 12.0096H7.39987C7.56555 12.0096 7.69987 12.2335 7.69987 12.5096C7.69987 12.7858 7.56555 13.0096 7.39987 13.0096H0.50924C0.343555 13.0096 0.399902 12.4857 0.399902 12.2096Z" fill="#4195B9"/>
<path fill-rule="evenodd" clip-rule="evenodd" d="M10.3999 2C10.676 2 10.8999 2.16281 10.8999 2.36364L10.8999 5.63636C10.8999 5.83719 10.676 6 10.3999 6C10.1238 6 9.8999 5.83719 9.8999 5.63636L9.8999 2.36364C9.8999 2.16281 10.1238 2 10.3999 2Z" fill="#4195B9"/>
<path fill-rule="evenodd" clip-rule="evenodd" d="M10.3999 15C10.676 15 10.8999 15.1343 10.8999 15.3L10.8999 17.1C10.8999 17.2657 10.676 17.4 10.3999 17.4C10.1238 17.4 9.8999 17.2657 9.8999 17.1L9.8999 15.3C9.8999 15.1343 10.1238 15 10.3999 15Z" fill="#4195B9"/>
<path fill-rule="evenodd" clip-rule="evenodd" d="M16.3999 2C16.676 2 16.8999 2.22386 16.8999 2.5L16.8999 4.5C16.8999 4.77614 16.676 5 16.3999 5C16.1238 5 15.8999 4.77614 15.8999 4.5L15.8999 2.5C15.8999 2.22386 16.1238 2 16.3999 2Z" fill="#4195B9"/>
<path fill-rule="evenodd" clip-rule="evenodd" d="M5.3999 2C5.67604 2 5.8999 2.14619 5.8999 2.32653L5.8999 17.6735C5.8999 17.8538 5.67604 18 5.3999 18C5.12376 18 4.8999 17.8538 4.8999 17.6735L4.8999 2.32653C4.8999 2.14619 5.12376 2 5.3999 2Z" fill="#4195B9"/>
<path fill-rule="evenodd" clip-rule="evenodd" d="M14.5673 6.91875C13.9955 8.21408 13.042 9.24386 11.8708 9.83102C10.8831 10.2104 10.5226 9.36796 11.0658 8.1573L14.5673 6.91875ZM19.9999 5.09998C18.459 8.93279 14.8933 12.7991 12.019 13.8703C9.12985 14.8577 8.06803 12.5703 9.59903 8.75984L10.5868 8.38046C9.59903 10.8966 10.2509 12.4197 12.1968 11.7279C14.1426 11.0361 16.4292 8.52552 17.4367 6.00936L19.9999 5.09998Z" fill="#699C69"/>
<circle cx="18.8999" cy="19" r="4.5" stroke="#699C69"/>
<path fill-rule="evenodd" clip-rule="evenodd" d="M18.3999 16C18.676 16 18.8999 16.2239 18.8999 16.5V19.1909L20.6234 20.0527C20.8704 20.1762 20.9705 20.4765 20.847 20.7235C20.7235 20.9705 20.4232 21.0706 20.1762 20.9471L17.8999 19.8089V16.5C17.8999 16.2239 18.1238 16 18.3999 16Z" fill="#699C69"/>
</svg>
