<svg width="24" height="24" viewBox="0 0 24 24" fill="none" xmlns="http://www.w3.org/2000/svg">
<g clip-path="url(#clip0_143_560)">
<path fill-rule="evenodd" clip-rule="evenodd" d="M7.85999 11.71C7.85999 11.4338 8.08384 11.21 8.35999 11.21H14.04C14.3161 11.21 14.54 11.4338 14.54 11.71C14.54 11.9861 14.3161 12.21 14.04 12.21H8.35999C8.08384 12.21 7.85999 11.9861 7.85999 11.71Z" fill="#699C69"/>
<path fill-rule="evenodd" clip-rule="evenodd" d="M12.1761 9.2069C12.3711 9.01142 12.6877 9.01106 12.8832 9.20611L15.0982 11.4161C15.1921 11.5098 15.245 11.6371 15.245 11.7698C15.2451 11.9025 15.1924 12.0298 15.0986 12.1236L12.8836 14.3386C12.6883 14.5339 12.3717 14.5339 12.1765 14.3386C11.9812 14.1433 11.9812 13.8268 12.1765 13.6315L14.0375 11.7705L12.1769 9.91401C11.9814 9.71897 11.981 9.40239 12.1761 9.2069Z" fill="#699C69"/>
<path d="M17.96 19.3049V18.0199H18.72C18.9002 17.9976 19.0809 18.0559 19.214 18.1793C19.3471 18.3028 19.4188 18.4786 19.41 18.6599C19.4249 18.8396 19.3581 19.0165 19.2282 19.1415C19.0983 19.2666 18.9191 19.3266 18.74 19.3049H17.96ZM17.64 21.3049C17.7332 21.3109 17.8245 21.2764 17.8905 21.2104C17.9565 21.1444 17.991 21.0531 17.985 20.9599V19.8349H18.74L19.41 21.0549C19.525 21.2349 19.595 21.3049 19.755 21.3049C19.9319 21.3137 20.0842 21.1813 20.1 21.0049C20.0936 20.9241 20.0698 20.8456 20.03 20.7749L19.43 19.7199C19.8645 19.5523 20.1426 19.1251 20.12 18.6599C20.12 17.9499 19.62 17.4899 18.81 17.4899H17.64C17.5469 17.484 17.4556 17.5184 17.3896 17.5844C17.3235 17.6505 17.2891 17.7417 17.295 17.8349V20.9599C17.2856 21.054 17.3189 21.1474 17.3857 21.2142C17.4526 21.2811 17.546 21.3144 17.64 21.3049Z" fill="#699C69"/>
<path fill-rule="evenodd" clip-rule="evenodd" d="M18.65 16.1899C16.8606 16.1899 15.41 17.6405 15.41 19.4299C15.41 21.2193 16.8606 22.6699 18.65 22.6699C20.4394 22.6699 21.89 21.2193 21.89 19.4299C21.89 17.6405 20.4394 16.1899 18.65 16.1899ZM14.41 19.4299C14.41 17.0883 16.3083 15.1899 18.65 15.1899C20.9917 15.1899 22.89 17.0883 22.89 19.4299C22.89 21.7716 20.9917 23.6699 18.65 23.6699C16.3083 23.6699 14.41 21.7716 14.41 19.4299Z" fill="#699C69"/>
<path fill-rule="evenodd" clip-rule="evenodd" d="M4.31504 1.18323C4.31605 0.907802 4.53961 0.685059 4.81504 0.685059H6.39504C6.64782 0.685059 6.86083 0.87372 6.89138 1.12465C6.94421 1.55875 7.31273 1.88513 7.75004 1.88513C8.18735 1.88513 8.55586 1.55875 8.6087 1.12465C8.63924 0.87372 8.85226 0.685059 9.10504 0.685059H10.7C10.9501 0.685059 11.1617 0.869784 11.1955 1.11755C11.2539 1.54618 11.6199 1.86575 12.0525 1.86575C12.4851 1.86575 12.8512 1.54618 12.9096 1.11755C12.9434 0.869784 13.155 0.685059 13.405 0.685059H15C15.2528 0.685059 15.4658 0.87372 15.4964 1.12465C15.5492 1.55875 15.9177 1.88513 16.355 1.88513C16.7923 1.88513 17.1609 1.55875 17.2137 1.12465C17.2442 0.87372 17.4573 0.685059 17.71 0.685059H19.125C19.3969 0.685059 19.6189 0.902275 19.6249 1.17407C19.6353 1.64436 20.0195 2.02017 20.4899 2.02006H20.575C20.8512 2.02006 21.075 2.24392 21.075 2.52006V4.05506C21.075 4.30784 20.8864 4.52085 20.6355 4.5514C20.2013 4.60423 19.875 4.97275 19.875 5.41006C19.875 5.84736 20.2013 6.21588 20.6355 6.26872C20.8864 6.29926 21.075 6.51228 21.075 6.76506V8.42006C21.075 8.67284 20.8864 8.88585 20.6355 8.9164C20.2013 8.96923 19.875 9.33775 19.875 9.77506C19.875 10.2124 20.2013 10.5809 20.6355 10.6337C20.8864 10.6643 21.075 10.8773 21.075 11.1301V12.7851C21.075 13.0385 20.8854 13.2519 20.6336 13.2816C20.1983 13.333 19.8702 13.7019 19.87 14.1403C19.8699 14.4164 19.646 14.6402 19.3698 14.6401C19.0937 14.6399 18.8699 14.416 18.87 14.1398C18.8704 13.3498 19.3646 12.6644 20.075 12.396V11.5178C19.3668 11.2479 18.875 10.5633 18.875 9.77506C18.875 8.98679 19.3668 8.30219 20.075 8.03231V7.15281C19.3668 6.88293 18.875 6.19832 18.875 5.41006C18.875 4.62179 19.3668 3.93719 20.075 3.66731V2.97377C19.4178 2.82448 18.8913 2.32786 18.7012 1.68506H18.0978C17.8279 2.39328 17.1433 2.88513 16.355 2.88513C15.5668 2.88513 14.8822 2.39328 14.6123 1.68506H13.7878C13.5126 2.38363 12.8327 2.86575 12.0525 2.86575C11.2723 2.86575 10.5925 2.38363 10.3173 1.68506H9.49279C9.22291 2.39328 8.5383 2.88513 7.75004 2.88513C6.96178 2.88513 6.27717 2.39328 6.00729 1.68506H5.24586C5.06697 2.32254 4.55789 2.82164 3.91504 2.98662V3.72053C4.55918 4.02356 4.9884 4.67658 4.9884 5.41256C4.9884 6.14853 4.55918 6.80156 3.91504 7.10459V8.08553C4.55918 8.38856 4.9884 9.04158 4.9884 9.77756C4.9884 10.5135 4.55918 11.1666 3.91504 11.4696V12.4505C4.55918 12.7536 4.9884 13.4066 4.9884 14.1426C4.9884 14.8785 4.55918 15.5316 3.91504 15.8346V16.8183C4.55341 17.1237 4.97735 17.7737 4.97735 18.5051C4.97735 19.2364 4.55341 19.8864 3.91504 20.1918V20.9333C4.57251 21.1016 5.09047 21.6183 5.26048 22.2751H5.99461C6.25064 21.5432 6.94673 21.0268 7.75504 21.0268C8.56335 21.0268 9.25944 21.5432 9.51547 22.2751H10.2855C10.5311 21.5267 11.235 20.9926 12.0575 20.9926C12.88 20.9926 13.584 21.5267 13.8296 22.2751H14.325C14.6012 22.2751 14.825 22.4989 14.825 22.7751C14.825 23.0512 14.6012 23.2751 14.325 23.2751H13.42C13.1556 23.2751 12.9369 23.0692 12.921 22.8053C12.8933 22.3487 12.5149 21.9926 12.0575 21.9926C11.6001 21.9926 11.2218 22.3487 11.1941 22.8053C11.1781 23.0692 10.9594 23.2751 10.695 23.2751H9.11504C8.85547 23.2751 8.63907 23.0764 8.61687 22.8178C8.57847 22.3704 8.20409 22.0268 7.75504 22.0268C7.30599 22.0268 6.93161 22.3704 6.89321 22.8178C6.87101 23.0764 6.65461 23.2751 6.39504 23.2751H4.82004C4.5439 23.2751 4.32004 23.0512 4.32004 22.7751V22.7452C4.32004 22.2647 3.93053 21.8751 3.45004 21.8751H3.41504C3.1389 21.8751 2.91504 21.6512 2.91504 21.3751V19.8401C2.91504 19.6072 3.07581 19.4051 3.30274 19.3528C3.6976 19.2618 3.97735 18.9103 3.97735 18.5051C3.97735 18.0998 3.6976 17.7483 3.30274 17.6573C3.07581 17.605 2.91504 17.4029 2.91504 17.1701V15.4801C2.91504 15.2456 3.07791 15.0427 3.30678 14.9919C3.705 14.9036 3.9884 14.5505 3.9884 14.1426C3.9884 13.7347 3.705 13.3815 3.30678 13.2932C3.07791 13.2424 2.91504 13.0395 2.91504 12.8051V11.1151C2.91504 10.8806 3.07791 10.6777 3.30678 10.6269C3.705 10.5386 3.9884 10.1855 3.9884 9.77756C3.9884 9.36966 3.705 9.01652 3.30678 8.9282C3.07791 8.87744 2.91504 8.67449 2.91504 8.44006V6.75006C2.91504 6.51563 3.07791 6.31268 3.30678 6.26192C3.705 6.1736 3.9884 5.82046 3.9884 5.41256C3.9884 5.00466 3.705 4.65152 3.30678 4.5632C3.07791 4.51244 2.91504 4.30949 2.91504 4.07506V2.54506C2.91504 2.26892 3.1389 2.04506 3.41504 2.04506H3.45004C3.92653 2.04506 4.3133 1.65972 4.31504 1.18323Z" fill="#4195B9"/>
</g>
<defs>
<clipPath id="clip0_143_560">
<rect width="24" height="24" fill="white"/>
</clipPath>
</defs>
</svg>
