<svg width="24" height="24" viewBox="0 0 24 24" fill="none" xmlns="http://www.w3.org/2000/svg">
<path fill-rule="evenodd" clip-rule="evenodd" d="M7.96991 5.04492C7.5916 5.04492 7.28491 5.35161 7.28491 5.72992V18.3699C7.28491 18.7482 7.5916 19.0549 7.96991 19.0549H16.1199C16.4982 19.0549 16.8049 18.7482 16.8049 18.3699V5.72992C16.8049 5.35161 16.4982 5.04492 16.1199 5.04492H7.96991ZM6.28491 5.72992C6.28491 4.79932 7.03931 4.04492 7.96991 4.04492H16.1199C17.0505 4.04492 17.8049 4.79932 17.8049 5.72992V18.3699C17.8049 19.3005 17.0505 20.0549 16.1199 20.0549H7.96991C7.03931 20.0549 6.28491 19.3005 6.28491 18.3699V5.72992Z" fill="#699C69"/>
<path fill-rule="evenodd" clip-rule="evenodd" d="M4.36497 1.23816C4.36598 0.962733 4.58954 0.73999 4.86497 0.73999H6.44497C6.69774 0.73999 6.91076 0.928652 6.9413 1.17958C6.99414 1.61368 7.36266 1.94007 7.79997 1.94007C8.23727 1.94007 8.60579 1.61368 8.65863 1.17958C8.68917 0.928652 8.90219 0.73999 9.15497 0.73999H10.75C11 0.73999 11.2116 0.924716 11.2454 1.17248C11.3038 1.60111 11.6699 1.92068 12.1025 1.92068C12.5351 1.92068 12.9011 1.60111 12.9595 1.17248C12.9933 0.924716 13.2049 0.73999 13.455 0.73999H15.05C15.3027 0.73999 15.5158 0.928652 15.5463 1.17958C15.5991 1.61368 15.9677 1.94007 16.405 1.94007C16.8423 1.94007 17.2108 1.61368 17.2636 1.17958C17.2942 0.928652 17.5072 0.73999 17.76 0.73999H19.175C19.4468 0.73999 19.6689 0.957207 19.6748 1.229C19.6852 1.69929 20.0694 2.0751 20.5398 2.07499H20.625C20.9011 2.07499 21.125 2.29885 21.125 2.57499V4.10999C21.125 4.36277 20.9363 4.57579 20.6854 4.60633C20.2513 4.65916 19.9249 5.02768 19.9249 5.46499C19.9249 5.9023 20.2513 6.27082 20.6854 6.32365C20.9363 6.35419 21.125 6.56721 21.125 6.81999V8.47499C21.125 8.72777 20.9363 8.94079 20.6854 8.97133C20.2513 9.02416 19.9249 9.39268 19.9249 9.82999C19.9249 10.2673 20.2513 10.6358 20.6854 10.6887C20.9363 10.7192 21.125 10.9322 21.125 11.185V12.865C21.125 13.1178 20.9363 13.3308 20.6854 13.3613C20.2513 13.4142 19.9249 13.7827 19.9249 14.22C19.9249 14.6573 20.2513 15.0258 20.6854 15.0787C20.9363 15.1092 21.125 15.3222 21.125 15.575V17.22C21.125 17.4735 20.9353 17.6868 20.6836 17.7165C20.2484 17.7679 19.9203 18.1366 19.92 18.5748C19.9213 19.0171 20.2562 19.3873 20.6962 19.4326C20.9512 19.4589 21.145 19.6737 21.145 19.93V21.43C21.145 21.7061 20.9211 21.93 20.645 21.93H20.56L20.5581 21.93C20.3269 21.9291 20.1047 22.0204 19.9409 22.1837C19.7771 22.3469 19.685 22.5687 19.685 22.8V22.83C19.685 23.1061 19.4611 23.33 19.185 23.33H17.78C17.5204 23.33 17.304 23.1314 17.2818 22.8727C17.2434 22.4253 16.869 22.0817 16.42 22.0817C15.9709 22.0817 15.5965 22.4253 15.5581 22.8727C15.5359 23.1314 15.3195 23.33 15.06 23.33H13.47C13.2056 23.33 12.9869 23.1241 12.9709 22.8602C12.9432 22.4037 12.5649 22.0476 12.1075 22.0476C11.6501 22.0476 11.2717 22.4037 11.2441 22.8602C11.2281 23.1241 11.0094 23.33 10.745 23.33H9.16497C8.9054 23.33 8.68899 23.1314 8.6668 22.8727C8.6284 22.4253 8.25402 22.0817 7.80497 22.0817C7.35591 22.0817 6.98153 22.4253 6.94313 22.8727C6.92094 23.1314 6.70453 23.33 6.44497 23.33H4.86997C4.59382 23.33 4.36997 23.1061 4.36997 22.83V22.8002C4.36997 22.3198 3.98045 21.93 3.49997 21.93H3.46497C3.18882 21.93 2.96497 21.7061 2.96497 21.43V19.895C2.96497 19.6621 3.12574 19.4601 3.35267 19.4078C3.74753 19.3168 4.02727 18.9652 4.02727 18.56C4.02727 18.1548 3.74753 17.8032 3.35267 17.7122C3.12574 17.6599 2.96497 17.4579 2.96497 17.225V15.535C2.96497 15.3006 3.12784 15.0976 3.3567 15.0469C3.75493 14.9585 4.03833 14.6054 4.03833 14.1975C4.03833 13.7896 3.75493 13.4365 3.3567 13.3481C3.12784 13.2974 2.96497 13.0944 2.96497 12.86V11.17C2.96497 10.9356 3.12784 10.7326 3.3567 10.6819C3.75493 10.5935 4.03833 10.2404 4.03833 9.83249C4.03833 9.42459 3.75493 9.07145 3.3567 8.98313C3.12784 8.93237 2.96497 8.72942 2.96497 8.49499V6.80499C2.96497 6.57056 3.12784 6.36761 3.3567 6.31685C3.75493 6.22853 4.03833 5.87539 4.03833 5.46749C4.03833 5.05959 3.75493 4.70645 3.3567 4.61813C3.12784 4.56737 2.96497 4.36442 2.96497 4.12999V2.59999C2.96497 2.32385 3.18882 2.09999 3.46497 2.09999H3.49997C3.97646 2.09999 4.36322 1.71465 4.36497 1.23816ZM5.29579 1.73999C5.1169 2.37747 4.60781 2.87657 3.96497 3.04155V3.77546C4.6091 4.07849 5.03833 4.73151 5.03833 5.46749C5.03833 6.20347 4.6091 6.85649 3.96497 7.15952V8.14046C4.6091 8.44349 5.03833 9.09652 5.03833 9.83249C5.03833 10.5685 4.6091 11.2215 3.96497 11.5245V12.5055C4.6091 12.8085 5.03833 13.4615 5.03833 14.1975C5.03833 14.9335 4.6091 15.5865 3.96497 15.8895V16.8732C4.60334 17.1787 5.02727 17.8287 5.02727 18.56C5.02727 19.2913 4.60334 19.9413 3.96497 20.2468V20.9883C4.62244 21.1565 5.14039 21.6732 5.31041 22.33H6.04453C6.30056 21.5981 6.99665 21.0817 7.80497 21.0817C8.61328 21.0817 9.30937 21.5981 9.5654 22.33H10.3354C10.581 21.5816 11.285 21.0476 12.1075 21.0476C12.93 21.0476 13.6339 21.5816 13.8795 22.33H14.6595C14.9156 21.5981 15.6117 21.0817 16.42 21.0817C17.2283 21.0817 17.9244 21.5981 18.1804 22.33H18.745C18.8283 22.0091 18.9962 21.7133 19.2351 21.4753C19.4871 21.2242 19.8033 21.0523 20.145 20.9755V20.3243C19.4257 20.0619 18.9216 19.3732 18.92 18.576L18.92 18.5748C18.9203 17.7848 19.4146 17.0994 20.125 16.831V15.9627C19.4167 15.6929 18.9249 15.0083 18.9249 14.22C18.9249 13.4317 19.4167 12.7471 20.125 12.4772V11.5727C19.4167 11.3029 18.9249 10.6183 18.9249 9.82999C18.9249 9.04173 19.4167 8.35712 20.125 8.08724V7.20774C19.4167 6.93786 18.9249 6.25325 18.9249 5.46499C18.9249 4.67673 19.4167 3.99212 20.125 3.72224V3.0287C19.4677 2.87941 18.9412 2.38279 18.7511 1.73999H18.1477C17.8778 2.44821 17.1932 2.94007 16.405 2.94007C15.6167 2.94007 14.9321 2.44821 14.6622 1.73999H13.8377C13.5625 2.43856 12.8827 2.92068 12.1025 2.92068C11.3223 2.92068 10.6424 2.43856 10.3673 1.73999H9.54271C9.27283 2.44821 8.58823 2.94007 7.79997 2.94007C7.0117 2.94007 6.3271 2.44821 6.05722 1.73999H5.29579ZM20.56 21.43H20.645V20.93H20.56V21.43Z" fill="#4195B9"/>
<path fill-rule="evenodd" clip-rule="evenodd" d="M10.2663 10.5179C10.4435 10.3186 10.746 10.2934 10.9537 10.4608L17.4387 15.6858C17.6537 15.859 17.6876 16.1738 17.5143 16.3888C17.3411 16.6038 17.0263 16.6377 16.8113 16.4645L10.6964 11.5377C10.634 11.6075 10.5638 11.6858 10.4873 11.771C10.1698 12.1249 9.74264 12.5987 9.30472 13.078C8.86733 13.5567 8.41702 14.0433 8.05389 14.4216C7.87276 14.6103 7.70993 14.7756 7.57968 14.9006C7.51488 14.9628 7.45406 15.019 7.4007 15.0645C7.36055 15.0988 7.28478 15.1623 7.2009 15.2037C6.95317 15.3257 6.65344 15.2238 6.53143 14.976C6.41462 14.7389 6.50303 14.4541 6.72813 14.3231C6.73289 14.3194 6.74067 14.3131 6.75186 14.3036C6.78401 14.2762 6.82897 14.2351 6.88716 14.1792C7.00286 14.0682 7.15476 13.9142 7.33246 13.7291C7.68698 13.3598 8.13073 12.8804 8.56647 12.4035C9.00168 11.9271 9.4267 11.4557 9.74307 11.1031C9.90121 10.9269 10.0321 10.7805 10.1234 10.6782L10.2663 10.5179Z" fill="#699C69"/>
<path fill-rule="evenodd" clip-rule="evenodd" d="M17.4397 10.3975C17.6371 10.5906 17.6405 10.9072 17.4474 11.1046L14.7224 13.8896C14.5292 14.0869 14.2127 14.0904 14.0153 13.8973C13.8179 13.7041 13.8145 13.3876 14.0076 13.1902L16.7326 10.4052C16.9257 10.2078 17.2423 10.2044 17.4397 10.3975Z" fill="#699C69"/>
<path fill-rule="evenodd" clip-rule="evenodd" d="M13.4299 7.32495C12.8804 7.32495 12.4349 7.77043 12.4349 8.31995C12.4349 8.86947 12.8804 9.31495 13.4299 9.31495C13.9795 9.31495 14.4249 8.86947 14.4249 8.31995C14.4249 7.77043 13.9795 7.32495 13.4299 7.32495ZM11.4349 8.31995C11.4349 7.21814 12.3281 6.32495 13.4299 6.32495C14.5317 6.32495 15.4249 7.21814 15.4249 8.31995C15.4249 9.42176 14.5317 10.315 13.4299 10.315C12.3281 10.315 11.4349 9.42176 11.4349 8.31995Z" fill="#699C69"/>
</svg>
