<svg width="24" height="24" viewBox="0 0 24 24" fill="none" xmlns="http://www.w3.org/2000/svg">
<path fill-rule="evenodd" clip-rule="evenodd" d="M17.6539 12.8876C16.9024 10.7747 14.71 9.53755 12.5129 9.9866C10.3158 10.4356 8.78465 12.4338 8.92251 14.6721C9.06038 16.9104 10.8252 18.7056 13.0608 18.8816C15.2964 19.0576 17.3204 17.5607 17.8069 15.3716C17.8668 15.102 18.1338 14.9321 18.4034 14.992C18.673 15.0519 18.8429 15.3189 18.783 15.5885C18.1885 18.2641 15.7147 20.0936 12.9823 19.8785C10.2499 19.6634 8.09291 17.4693 7.92441 14.7336C7.7559 11.9979 9.62733 9.55568 12.3127 9.00685C14.998 8.45802 17.6776 9.97011 18.596 12.5525C18.6886 12.8127 18.5527 13.0986 18.2925 13.1912C18.0323 13.2837 17.7464 13.1478 17.6539 12.8876Z" fill="#699C69"/>
<path fill-rule="evenodd" clip-rule="evenodd" d="M13.415 11.905C12.0426 11.905 10.93 13.0176 10.93 14.39C10.93 15.7625 12.0426 16.875 13.415 16.875C14.7874 16.875 15.9 15.7625 15.9 14.39C15.9 13.0176 14.7874 11.905 13.415 11.905ZM9.92999 14.39C9.92999 12.4653 11.4903 10.905 13.415 10.905C15.3397 10.905 16.9 12.4653 16.9 14.39C16.9 16.3147 15.3397 17.875 13.415 17.875C11.4903 17.875 9.92999 16.3147 9.92999 14.39Z" fill="#699C69"/>
<path fill-rule="evenodd" clip-rule="evenodd" d="M17.3764 16.6113C17.5717 16.416 17.8883 16.416 18.0835 16.6113L21.6394 20.1671C22.3675 20.8986 22.3675 22.0811 21.6394 22.8126L21.6377 22.8142C20.9062 23.5423 19.7238 23.5423 18.9923 22.8142L18.9914 22.8134L15.4364 19.2584C15.2412 19.0631 15.2412 18.7466 15.4364 18.5513C15.6317 18.356 15.9483 18.356 16.1435 18.5513L19.6977 22.1055C19.6978 22.1056 19.6976 22.1054 19.6977 22.1055C20.0388 22.4447 20.5901 22.4451 20.9314 22.1063C21.2703 21.765 21.2701 21.214 20.9309 20.8729C20.9308 20.8728 20.931 20.873 20.9309 20.8729L17.3764 17.3184C17.1812 17.1231 17.1812 16.8066 17.3764 16.6113Z" fill="#699C69"/>
<path fill-rule="evenodd" clip-rule="evenodd" d="M4.36538 1.18981C4.37619 0.921727 4.59667 0.709961 4.86498 0.709961H6.27998C6.53276 0.709961 6.74577 0.898623 6.77632 1.14955C6.82915 1.58365 7.19767 1.91004 7.63498 1.91004C8.07228 1.91004 8.4408 1.58365 8.49364 1.14955C8.52418 0.898623 8.7372 0.709961 8.98998 0.709961H10.585C10.835 0.709961 11.0466 0.894687 11.0804 1.14245C11.1388 1.57108 11.5049 1.89065 11.9375 1.89065C12.3701 1.89065 12.7361 1.57108 12.7946 1.14245C12.8283 0.894687 13.0399 0.709961 13.29 0.709961H14.885C15.1378 0.709961 15.3508 0.898623 15.3813 1.14955C15.4342 1.58365 15.8027 1.91004 16.24 1.91004C16.6773 1.91004 17.0458 1.58365 17.0986 1.14955C17.1292 0.898623 17.3422 0.709961 17.595 0.709961H19.175C19.4468 0.709961 19.6689 0.927177 19.6749 1.19897C19.6852 1.66926 20.0695 2.04507 20.5399 2.04496H20.575C20.8511 2.04496 21.075 2.26882 21.075 2.54496V4.07496C21.075 4.30939 20.9121 4.51234 20.6832 4.5631C20.285 4.65142 20.0016 5.00456 20.0016 5.41246C20.0016 5.82036 20.285 6.1735 20.6832 6.26182C20.9121 6.31258 21.075 6.51553 21.075 6.74996V8.43996C21.075 8.67439 20.9121 8.87734 20.6832 8.9281C20.285 9.01642 20.0016 9.36956 20.0016 9.77746C20.0016 10.1854 20.285 10.5385 20.6832 10.6268C20.9121 10.6776 21.075 10.8805 21.075 11.115V13.315C21.075 13.5911 20.8511 13.815 20.575 13.815C20.2988 13.815 20.075 13.5911 20.075 13.315V11.4695C19.4308 11.1665 19.0016 10.5134 19.0016 9.77746C19.0016 9.04149 19.4308 8.38846 20.075 8.08543V7.10449C19.4308 6.80146 19.0016 6.14844 19.0016 5.41246C19.0016 4.67648 19.4308 4.02346 20.075 3.72043V2.98658C19.4411 2.82397 18.9364 2.33638 18.7511 1.70996H17.9827C17.7128 2.41818 17.0282 2.91004 16.24 2.91004C15.4517 2.91004 14.7671 2.41818 14.4972 1.70996H13.6727C13.3975 2.40853 12.7177 2.89065 11.9375 2.89065C11.1573 2.89065 10.4774 2.40853 10.2023 1.70996H9.37773C9.10785 2.41818 8.42324 2.91004 7.63498 2.91004C6.84671 2.91004 6.16211 2.41818 5.89223 1.70996H5.28201C5.08549 2.3417 4.56331 2.82681 3.91498 2.97382V3.66721C4.6232 3.93709 5.11505 4.6217 5.11505 5.40996C5.11505 6.19822 4.6232 6.88283 3.91498 7.15271V8.03221C4.6232 8.30209 5.11505 8.9867 5.11505 9.77496C5.11505 10.5632 4.6232 11.2478 3.91498 11.5177V12.4222C4.6232 12.6921 5.11505 13.3767 5.11505 14.165C5.11505 14.9532 4.6232 15.6378 3.91498 15.9077V16.7772C4.6232 17.0471 5.11505 17.7317 5.11505 18.52C5.11505 19.3082 4.6232 19.9928 3.91498 20.2627V20.9212C4.5965 21.0756 5.13619 21.6019 5.31042 22.275H5.88955C6.14558 21.5431 6.84167 21.0267 7.64998 21.0267C8.45829 21.0267 9.15438 21.5431 9.41041 22.275H10.1745C10.4306 21.5431 11.1267 21.0267 11.935 21.0267C12.7433 21.0267 13.4394 21.5431 13.6954 22.275H14.88C15.1561 22.275 15.38 22.4988 15.38 22.775C15.38 23.0511 15.1561 23.275 14.88 23.275H13.295C13.0354 23.275 12.819 23.0763 12.7968 22.8177C12.7584 22.3703 12.384 22.0267 11.935 22.0267C11.4859 22.0267 11.1115 22.3703 11.0731 22.8177C11.051 23.0763 10.8345 23.275 10.575 23.275H9.00998C8.75041 23.275 8.53401 23.0763 8.51181 22.8177C8.47341 22.3703 8.09903 22.0267 7.64998 22.0267C7.20092 22.0267 6.82655 22.3703 6.78815 22.8177C6.76595 23.0763 6.54955 23.275 6.28998 23.275H4.86998C4.59384 23.275 4.36998 23.0511 4.36998 22.775V22.7449C4.36999 22.2675 3.98521 21.8793 3.50795 21.875H3.41498C3.13884 21.875 2.91498 21.6511 2.91498 21.375V19.875C2.91498 19.6222 3.10364 19.4092 3.35457 19.3786C3.78867 19.3258 4.11505 18.9573 4.11505 18.52C4.11505 18.0827 3.78867 17.7141 3.35457 17.6613C3.10364 17.6308 2.91498 17.4177 2.91498 17.165V15.52C2.91498 15.2672 3.10364 15.0542 3.35457 15.0236C3.78867 14.9708 4.11505 14.6023 4.11505 14.165C4.11505 13.7277 3.78867 13.3591 3.35457 13.3063C3.10364 13.2758 2.91498 13.0627 2.91498 12.81V11.13C2.91498 10.8772 3.10364 10.6642 3.35457 10.6336C3.78867 10.5808 4.11505 10.2123 4.11505 9.77496C4.11505 9.33765 3.78867 8.96913 3.35457 8.9163C3.10364 8.88576 2.91498 8.67274 2.91498 8.41996V6.76496C2.91498 6.51218 3.10364 6.29917 3.35457 6.26862C3.78867 6.21579 4.11505 5.84727 4.11505 5.40996C4.11505 4.97265 3.78867 4.60413 3.35457 4.5513C3.10364 4.52076 2.91498 4.30774 2.91498 4.05496V2.51996C2.91498 2.24382 3.13884 2.01996 3.41498 2.01996H3.49998C3.96442 2.02034 4.34667 1.65388 4.36538 1.18981ZM3.49957 3.01996C3.49952 3.01996 3.49962 3.01996 3.49957 3.01996H3.41498V2.51996H3.49998" fill="#4195B9"/>
</svg>
