<svg width="24" height="24" viewBox="0 0 24 24" fill="none" xmlns="http://www.w3.org/2000/svg">
<path d="M6.44997 0.780029H4.86997C4.6208 0.780029 4.41289 0.962661 4.37583 1.20342L4.37037 1.25996C4.35162 1.72675 3.96755 2.09541 3.50037 2.09503L3.46997 2.09503C3.19383 2.09503 2.96997 2.31889 2.96997 2.59503V4.13003C2.96997 4.3435 3.10507 4.53106 3.30237 4.60113L3.35767 4.61726C3.75253 4.70826 4.03228 5.05982 4.03228 5.46503C4.03228 5.84491 3.78641 6.17764 3.43032 6.29274L3.35767 6.3128C3.13074 6.36511 2.96997 6.56715 2.96997 6.80003V8.50003C2.96997 8.7135 3.10507 8.90106 3.30237 8.97113L3.35767 8.98726C3.75253 9.07826 4.03228 9.42982 4.03228 9.83503C4.03228 10.2149 3.78641 10.5476 3.43032 10.6627L3.35767 10.6828C3.13074 10.7351 2.96997 10.9372 2.96997 11.17V12.865C2.96997 13.0785 3.10507 13.2661 3.30237 13.3361L3.35767 13.3523C3.75253 13.4433 4.03228 13.7948 4.03228 14.2C4.03228 14.5799 3.78641 14.9126 3.43032 15.0277L3.35767 15.0478C3.13074 15.1001 2.96997 15.3022 2.96997 15.535V17.23C2.96997 17.4435 3.10507 17.6311 3.30237 17.7011L3.35767 17.7173C3.75253 17.8083 4.03228 18.1598 4.03228 18.565C4.03228 18.9449 3.78641 19.2776 3.43032 19.3927L3.35767 19.4128C3.13074 19.4651 2.96997 19.6671 2.96997 19.9V21.435C2.96997 21.7112 3.19383 21.935 3.46997 21.935H3.49997C3.73176 21.9342 3.95259 22.0249 4.1155 22.1873C4.2784 22.3496 4.36997 22.5701 4.36997 22.8V22.83C4.36997 23.1062 4.59383 23.33 4.86997 23.33H6.44497C6.68457 23.33 6.88739 23.1608 6.93464 22.9313L6.94314 22.8728C6.98154 22.4254 7.35592 22.0818 7.80497 22.0818C8.22908 22.0818 8.58657 22.3883 8.65734 22.7992L8.6668 22.8728C8.689 23.1314 8.9054 23.33 9.16497 23.33H10.745C10.9846 23.33 11.1874 23.1608 11.2346 22.9313L11.2431 22.8728C11.2815 22.4254 11.6559 22.0818 12.105 22.0818C12.5291 22.0818 12.8866 22.3883 12.9573 22.7992L12.9668 22.8728C12.989 23.1314 13.2054 23.33 13.465 23.33H15.045C15.2846 23.33 15.4874 23.1608 15.5346 22.9313L15.5431 22.8728C15.5815 22.4254 15.9559 22.0818 16.405 22.0818C16.8291 22.0818 17.1866 22.3883 17.2573 22.7992L17.2668 22.8728C17.289 23.1314 17.5054 23.33 17.765 23.33H19.175C19.4511 23.33 19.675 23.1062 19.675 22.83V22.8C19.675 22.5687 19.7671 22.347 19.9309 22.1837C20.0948 22.0205 20.3169 21.9292 20.5481 21.93L20.63 21.93C20.9061 21.93 21.13 21.7062 21.13 21.43V19.93C21.13 19.696 20.9683 19.4961 20.7453 19.4435L20.6884 19.4334C20.2479 19.3817 19.9169 19.0069 19.92 18.5634C19.9215 18.149 20.2122 17.7979 20.6095 17.7139L20.6852 17.7014C20.9362 17.6709 21.125 17.4579 21.125 17.205V15.55C21.125 15.3167 20.9642 15.1172 20.7421 15.0639L20.6854 15.0537C20.2513 15.0009 19.9249 14.6323 19.9249 14.195C19.9249 13.7834 20.214 13.4328 20.6099 13.3489L20.6854 13.3364C20.9363 13.3058 21.125 13.0928 21.125 12.84V11.185C21.125 10.9517 20.9642 10.7522 20.7421 10.6989L20.6854 10.6887C20.2513 10.6359 19.9249 10.2673 19.9249 9.83003C19.9249 9.41845 20.214 9.0678 20.6099 8.98392L20.6854 8.97137C20.9363 8.94083 21.125 8.72781 21.125 8.47503V6.82003C21.125 6.5867 20.9642 6.38724 20.7421 6.33391L20.6854 6.32369C20.2513 6.27086 19.9249 5.90234 19.9249 5.46503C19.9249 5.05345 20.214 4.7028 20.6099 4.61892L20.6854 4.60637C20.9363 4.57582 21.125 4.36281 21.125 4.11003V2.61003C21.125 2.33389 20.9011 2.11003 20.625 2.11003H20.545C20.0974 2.11181 19.7277 1.77586 19.6798 1.34063L19.6748 1.26721C19.6679 0.996152 19.4461 0.780029 19.175 0.780029H17.76C17.5292 0.780029 17.3311 0.937429 17.2754 1.15652L17.2645 1.21252C17.2061 1.64115 16.8401 1.96072 16.4075 1.96072C16.0003 1.96072 15.6521 1.67764 15.5638 1.28698L15.5504 1.21252C15.5166 0.964755 15.305 0.780029 15.055 0.780029H13.46C13.2266 0.780029 13.0272 0.940783 12.9739 1.16287L12.9636 1.21962C12.9108 1.65372 12.5423 1.98011 12.105 1.98011C11.6934 1.98011 11.3427 1.69099 11.2589 1.29506L11.2463 1.21962C11.2158 0.968691 11.0027 0.780029 10.75 0.780029H9.15497C8.92415 0.780029 8.72609 0.937429 8.67043 1.15652L8.65955 1.21252C8.60114 1.64115 8.23506 1.96072 7.80247 1.96072C7.39533 1.96072 7.0471 1.67764 6.95884 1.28698L6.94539 1.21252C6.91163 0.964755 6.70002 0.780029 6.44997 0.780029ZM18.7525 1.77953L18.7762 1.85398C18.9791 2.44191 19.4672 2.89511 20.0731 3.0512L20.125 3.06303V3.72253L20.1036 3.73059C19.4069 4.00601 18.9249 4.68473 18.9249 5.46503L18.9274 5.56202C18.9654 6.30119 19.4359 6.93553 20.1036 7.19947L20.125 7.20703V8.08753L20.1036 8.09559C19.4069 8.37101 18.9249 9.04973 18.9249 9.83003L18.9274 9.92702C18.9654 10.6662 19.4359 11.3005 20.1036 11.5645L20.125 11.572V12.4525L20.1036 12.4606C19.4069 12.736 18.9249 13.4147 18.9249 14.195L18.9274 14.292C18.9654 15.0312 19.4359 15.6655 20.1036 15.9295L20.125 15.937V16.817L20.1035 16.8253C19.4063 17.1001 18.9228 17.7777 18.92 18.5582L18.9218 18.6561C18.9555 19.4023 19.4303 20.0447 20.1054 20.3099L20.1295 20.3185V20.977L20.101 20.9833C19.7727 21.0636 19.4689 21.2324 19.2251 21.4753L19.1466 21.5585C18.9699 21.7575 18.8388 21.9907 18.7603 22.2415L18.735 22.33H18.165L18.1586 22.3109C17.8972 21.5892 17.2062 21.0818 16.405 21.0818L16.3054 21.0844C15.5469 21.1244 14.9018 21.6193 14.6513 22.3109L14.6445 22.33H13.865L13.8586 22.3109C13.5972 21.5892 12.9062 21.0818 12.105 21.0818L12.0054 21.0844C11.2469 21.1244 10.6018 21.6193 10.3513 22.3109L10.3445 22.33H9.56497L9.5586 22.3109C9.29722 21.5892 8.60623 21.0818 7.80497 21.0818L7.70541 21.0844C6.94687 21.1244 6.30183 21.6193 6.05134 22.3109L6.04447 22.33H5.30897L5.28484 22.243C5.19535 21.9571 5.03746 21.6942 4.82131 21.4789L4.73809 21.4009C4.53895 21.2253 4.30595 21.0955 4.05551 21.0181L3.96997 20.9945V20.251L4.04194 20.2154C4.64001 19.8967 5.03228 19.2685 5.03228 18.565L5.02963 18.4651C4.99445 17.8024 4.61153 17.2181 4.04194 16.9146L3.96997 16.8785V15.886L4.04194 15.8504C4.64001 15.5317 5.03228 14.9035 5.03228 14.2L5.02963 14.1001C4.99445 13.4374 4.61153 12.8531 4.04194 12.5496L3.96997 12.5135V11.521L4.04194 11.4854C4.64001 11.1667 5.03228 10.5385 5.03228 9.83503L5.02963 9.73507C4.99445 9.07243 4.61153 8.48814 4.04194 8.18463L3.96997 8.14853V7.15103L4.04194 7.11543C4.64001 6.79674 5.03228 6.1685 5.03228 5.46503L5.02963 5.36507C4.99445 4.70243 4.61153 4.11814 4.04194 3.81463L3.96997 3.77853V3.03503L3.98418 3.03203C4.60251 2.86708 5.09666 2.39273 5.28697 1.77953H6.06747L6.08251 1.81755C6.36695 2.49581 7.03633 2.96072 7.80247 2.96072L7.90183 2.95811C8.62609 2.91989 9.25036 2.46632 9.52243 1.81755L9.53697 1.77953H10.3625L10.3705 1.80143C10.6459 2.49814 11.3247 2.98011 12.105 2.98011L12.202 2.97761C12.9411 2.93957 13.5755 2.46911 13.8394 1.80143L13.847 1.77953H14.6725L14.6875 1.81755C14.9719 2.49581 15.6413 2.96072 16.4075 2.96072L16.5068 2.95811C17.2311 2.91989 17.8554 2.46632 18.1274 1.81755L18.142 1.77953H18.7525Z" fill="#4195B9"/>
</svg>
