<svg width="24" height="24" viewBox="0 0 24 24" fill="none" xmlns="http://www.w3.org/2000/svg">
<path d="M2.35003 15.0201H7.10003C7.37617 15.0201 7.60003 14.7962 7.60003 14.5201C7.60897 14.3849 7.55917 14.2525 7.46339 14.1567C7.36761 14.0609 7.23518 14.0111 7.10003 14.0201H2.35003C2.07388 14.0201 1.85003 14.2439 1.85003 14.5201C1.84108 14.6552 1.89088 14.7877 1.98666 14.8834C2.08244 14.9792 2.21487 15.029 2.35003 15.0201Z" fill="#699C69"/>
<path d="M8.80004 16.325H4.05004C3.7739 16.325 3.55004 16.5488 3.55004 16.825C3.5411 16.9601 3.5909 17.0925 3.68667 17.1883C3.78245 17.2841 3.91489 17.3339 4.05004 17.325H8.80004C9.07618 17.325 9.30004 17.1011 9.30004 16.825C9.30004 16.5488 9.07618 16.325 8.80004 16.325Z" fill="#699C69"/>
<path d="M7.2 18.6751H2.45C2.17386 18.6751 1.95 18.899 1.95 19.1751C1.94106 19.3103 1.99086 19.4427 2.08664 19.5385C2.18241 19.6342 2.31485 19.684 2.45 19.6751H7.2C7.47614 19.6751 7.7 19.4512 7.7 19.1751C7.70894 19.0399 7.65914 18.9075 7.56337 18.8117C7.46759 18.716 7.33515 18.6662 7.2 18.6751Z" fill="#699C69"/>
<path fill-rule="evenodd" clip-rule="evenodd" d="M6.31514 1.17407C6.32112 0.902275 6.54316 0.685059 6.81502 0.685059H8.39502C8.6478 0.685059 8.86082 0.87372 8.89136 1.12465C8.9442 1.55875 9.31272 1.88513 9.75002 1.88513C10.1873 1.88513 10.5558 1.55875 10.6087 1.12465C10.6392 0.87372 10.8522 0.685059 11.105 0.685059H12.7C12.9501 0.685059 13.1617 0.869784 13.1954 1.11755C13.2539 1.54618 13.6199 1.86575 14.0525 1.86575C14.4851 1.86575 14.8512 1.54618 14.9096 1.11755C14.9434 0.869784 15.155 0.685059 15.405 0.685059H17C17.2528 0.685059 17.4658 0.87372 17.4964 1.12465C17.5492 1.55875 17.9177 1.88513 18.355 1.88513C18.7923 1.88513 19.1608 1.55875 19.2137 1.12465C19.2442 0.87372 19.4572 0.685059 19.71 0.685059H21.145C21.4169 0.685059 21.6389 0.902275 21.6449 1.17407C21.6552 1.64436 22.0395 2.02017 22.5099 2.02006H22.595C22.8712 2.02006 23.095 2.24392 23.095 2.52006V4.05506C23.095 4.30784 22.9064 4.52085 22.6554 4.5514C22.2213 4.60423 21.8949 4.97275 21.8949 5.41006C21.8949 5.84736 22.2213 6.21588 22.6554 6.26872C22.9064 6.29926 23.095 6.51228 23.095 6.76506V8.42006C23.095 8.67284 22.9064 8.88585 22.6554 8.9164C22.2213 8.96923 21.8949 9.33775 21.8949 9.77506C21.8949 10.2124 22.2213 10.5809 22.6554 10.6337C22.9064 10.6643 23.095 10.8773 23.095 11.1301V12.8101C23.095 13.0628 22.9064 13.2759 22.6554 13.3064C22.2213 13.3592 21.8949 13.7278 21.8949 14.1651C21.8949 14.6024 22.2213 14.9709 22.6554 15.0237C22.9064 15.0543 23.095 15.2673 23.095 15.5201V17.1651C23.095 17.4178 22.9064 17.6309 22.6554 17.6614C22.2213 17.7142 21.8949 18.0828 21.8949 18.5201C21.8949 18.9574 22.2213 19.3259 22.6554 19.3787C22.9064 19.4093 23.095 19.6223 23.095 19.8751V21.3751C23.095 21.6512 22.8712 21.8751 22.595 21.8751H22.51L22.5082 21.8751C22.2769 21.8742 22.0548 21.9655 21.891 22.1287C21.7271 22.292 21.635 22.5138 21.635 22.7451L21.635 22.7751C21.635 23.0512 21.4112 23.2751 21.135 23.2751H19.73C19.4705 23.2751 19.2541 23.0764 19.2319 22.8178C19.1935 22.3704 18.8191 22.0268 18.37 22.0268C17.921 22.0268 17.5466 22.3704 17.5082 22.8178C17.486 23.0764 17.2696 23.2751 17.01 23.2751H15.415C15.1506 23.2751 14.9319 23.0692 14.9159 22.8053C14.8883 22.3487 14.5099 21.9926 14.0525 21.9926C13.5951 21.9926 13.2168 22.3487 13.1891 22.8053C13.1731 23.0692 12.9544 23.2751 12.69 23.2751H11.11C10.8505 23.2751 10.6341 23.0764 10.6119 22.8178C10.5735 22.3704 10.1991 22.0268 9.75002 22.0268C9.30097 22.0268 8.92659 22.3704 8.88819 22.8178C8.86458 23.0929 8.6224 23.2968 8.34727 23.2732C8.07214 23.2496 7.86824 23.0074 7.89186 22.7323C7.97465 21.7677 8.78183 21.0268 9.75002 21.0268C10.5583 21.0268 11.2544 21.5432 11.5105 22.2751H12.2805C12.5261 21.5267 13.23 20.9926 14.0525 20.9926C14.875 20.9926 15.579 21.5267 15.8246 22.2751H16.6096C16.8656 21.5432 17.5617 21.0268 18.37 21.0268C19.1783 21.0268 19.8744 21.5432 20.1305 22.2751H20.695C20.7784 21.9542 20.9463 21.6583 21.1851 21.4204C21.4372 21.1692 21.7534 20.9973 22.095 20.9205V20.2628C21.3868 19.9929 20.8949 19.3083 20.8949 18.5201C20.8949 17.7318 21.3868 17.0472 22.095 16.7773V15.9078C21.3868 15.6379 20.8949 14.9533 20.8949 14.1651C20.8949 13.3768 21.3868 12.6922 22.095 12.4223V11.5178C21.3868 11.2479 20.8949 10.5633 20.8949 9.77506C20.8949 8.98679 21.3868 8.30219 22.095 8.03231V7.15281C21.3868 6.88293 20.8949 6.19832 20.8949 5.41006C20.8949 4.62179 21.3868 3.93719 22.095 3.66731V2.97377C21.4378 2.82448 20.9112 2.32786 20.7211 1.68506H20.0978C19.8279 2.39328 19.1433 2.88513 18.355 2.88513C17.5668 2.88513 16.8822 2.39328 16.6123 1.68506H15.7877C15.5126 2.38363 14.8327 2.86575 14.0525 2.86575C13.2723 2.86575 12.5925 2.38363 12.3173 1.68506H11.4928C11.2229 2.39328 10.5383 2.88513 9.75002 2.88513C8.96176 2.88513 8.27716 2.39328 8.00728 1.68506H7.23891C7.05365 2.31148 6.54891 2.79907 5.91502 2.96168V3.72053C6.55916 4.02356 6.98839 4.67658 6.98839 5.41256C6.98839 6.14853 6.55916 6.80156 5.91502 7.10459V8.08553C6.55916 8.38856 6.98839 9.04158 6.98839 9.77756C6.98839 10.6543 6.37924 11.4134 5.52329 11.6032C5.25369 11.663 4.98668 11.4929 4.92689 11.2233C4.86709 10.9537 5.03717 10.6867 5.30676 10.6269C5.70499 10.5386 5.98839 10.1855 5.98839 9.77756C5.98839 9.36966 5.70499 9.01652 5.30676 8.9282C5.0779 8.87744 4.91502 8.67449 4.91502 8.44006V6.75006C4.91502 6.51563 5.0779 6.31268 5.30676 6.26192C5.70499 6.1736 5.98839 5.82046 5.98839 5.41256C5.98839 5.00466 5.70499 4.65152 5.30676 4.5632C5.0779 4.51244 4.91502 4.30949 4.91502 4.07506V2.52006C4.91502 2.24392 5.13888 2.02006 5.41502 2.02006H5.45002C5.92042 2.02017 6.30481 1.64436 6.31514 1.17407ZM22.51 21.3751H22.595V20.8751H22.51V21.3751Z" fill="#4195B9"/>
</svg>
