<svg width="24" height="24" viewBox="0 0 24 24" fill="none" xmlns="http://www.w3.org/2000/svg">
<path d="M17.96 19.3052V18.0202H18.72C18.9001 17.9978 19.0809 18.0562 19.2139 18.1796C19.347 18.303 19.4187 18.4789 19.41 18.6602C19.4248 18.8399 19.358 19.0167 19.2281 19.1418C19.0982 19.2668 18.919 19.3268 18.74 19.3052H17.96ZM17.64 21.3052C17.7332 21.3111 17.8244 21.2767 17.8905 21.2106C17.9565 21.1446 17.9909 21.0534 17.985 20.9602V19.8352H18.74L19.41 21.0552C19.525 21.2352 19.595 21.3052 19.755 21.3052C19.9318 21.3139 20.0841 21.1815 20.1 21.0052C20.0936 20.9243 20.0697 20.8459 20.03 20.7752L19.43 19.7202C19.8645 19.5525 20.1426 19.1253 20.12 18.6602C20.12 17.9502 19.62 17.4902 18.81 17.4902H17.64C17.5468 17.4842 17.4556 17.5187 17.3895 17.5847C17.3235 17.6507 17.2891 17.742 17.295 17.8352V20.9602C17.2855 21.0542 17.3188 21.1476 17.3857 21.2145C17.4525 21.2814 17.5459 21.3146 17.64 21.3052Z" fill="#699C69"/>
<path fill-rule="evenodd" clip-rule="evenodd" d="M4.31498 1.18323C4.31599 0.907802 4.53955 0.685059 4.81498 0.685059H6.39498C6.64776 0.685059 6.86077 0.87372 6.89131 1.12465C6.94415 1.55875 7.31267 1.88513 7.74998 1.88513C8.18728 1.88513 8.5558 1.55875 8.60864 1.12465C8.63918 0.87372 8.8522 0.685059 9.10498 0.685059H10.7C10.95 0.685059 11.1616 0.869784 11.1954 1.11755C11.2538 1.54618 11.6199 1.86575 12.0525 1.86575C12.4851 1.86575 12.8511 1.54618 12.9096 1.11755C12.9433 0.869784 13.1549 0.685059 13.405 0.685059H15C15.2528 0.685059 15.4658 0.87372 15.4963 1.12465C15.5492 1.55875 15.9177 1.88513 16.355 1.88513C16.7923 1.88513 17.1608 1.55875 17.2136 1.12465C17.2442 0.87372 17.4572 0.685059 17.71 0.685059H19.125C19.3968 0.685059 19.6189 0.902275 19.6249 1.17407C19.6352 1.64436 20.0195 2.02017 20.4899 2.02006H20.575C20.8511 2.02006 21.075 2.24392 21.075 2.52006V4.05506C21.075 4.30784 20.8863 4.52085 20.6354 4.5514C20.2013 4.60423 19.8749 4.97275 19.8749 5.41006C19.8749 5.84736 20.2013 6.21588 20.6354 6.26872C20.8863 6.29926 21.075 6.51228 21.075 6.76506V8.42006C21.075 8.67284 20.8863 8.88585 20.6354 8.9164C20.2013 8.96923 19.8749 9.33775 19.8749 9.77506C19.8749 10.2124 20.2013 10.5809 20.6354 10.6337C20.8863 10.6643 21.075 10.8773 21.075 11.1301V12.7851C21.075 13.0385 20.8853 13.2519 20.6336 13.2816C20.1982 13.333 19.8702 13.7019 19.87 14.1403C19.8699 14.4164 19.6459 14.6402 19.3698 14.6401C19.0936 14.6399 18.8699 14.416 18.87 14.1398C18.8703 13.3498 19.3646 12.6644 20.075 12.396V11.5178C19.3668 11.2479 18.8749 10.5633 18.8749 9.77506C18.8749 8.98679 19.3668 8.30219 20.075 8.03231V7.15281C19.3668 6.88293 18.8749 6.19832 18.8749 5.41006C18.8749 4.62179 19.3668 3.93719 20.075 3.66731V2.97377C19.4177 2.82448 18.8912 2.32786 18.7011 1.68506H18.0977C17.8278 2.39328 17.1432 2.88513 16.355 2.88513C15.5667 2.88513 14.8821 2.39328 14.6122 1.68506H13.7877C13.5125 2.38363 12.8327 2.86575 12.0525 2.86575C11.2723 2.86575 10.5924 2.38363 10.3173 1.68506H9.49273C9.22285 2.39328 8.53824 2.88513 7.74998 2.88513C6.96171 2.88513 6.27711 2.39328 6.00723 1.68506H5.2458C5.06691 2.32254 4.55783 2.82164 3.91498 2.98662V3.72053C4.55912 4.02356 4.98834 4.67658 4.98834 5.41256C4.98834 6.14853 4.55912 6.80156 3.91498 7.10459V8.08553C4.55912 8.38856 4.98834 9.04158 4.98834 9.77756C4.98834 10.5135 4.55912 11.1666 3.91498 11.4696V12.4505C4.55912 12.7536 4.98834 13.4066 4.98834 14.1426C4.98834 14.8785 4.55912 15.5316 3.91498 15.8346V16.8183C4.55335 17.1237 4.97728 17.7737 4.97728 18.5051C4.97728 19.2364 4.55335 19.8864 3.91498 20.1918V20.9333C4.57245 21.1016 5.0904 21.6183 5.26042 22.2751H5.99455C6.25057 21.5432 6.94666 21.0268 7.75498 21.0268C8.56329 21.0268 9.25938 21.5432 9.51541 22.2751H10.2854C10.531 21.5267 11.235 20.9926 12.0575 20.9926C12.88 20.9926 13.5839 21.5267 13.8295 22.2751H14.325C14.6011 22.2751 14.825 22.4989 14.825 22.7751C14.825 23.0512 14.6011 23.2751 14.325 23.2751H13.42C13.1556 23.2751 12.9369 23.0692 12.9209 22.8053C12.8932 22.3487 12.5149 21.9926 12.0575 21.9926C11.6001 21.9926 11.2217 22.3487 11.1941 22.8053C11.1781 23.0692 10.9594 23.2751 10.695 23.2751H9.11498C8.85541 23.2751 8.63901 23.0764 8.61681 22.8178C8.57841 22.3704 8.20403 22.0268 7.75498 22.0268C7.30592 22.0268 6.93155 22.3704 6.89315 22.8178C6.87095 23.0764 6.65455 23.2751 6.39498 23.2751H4.81998C4.54384 23.2751 4.31998 23.0512 4.31998 22.7751V22.7452C4.31998 22.2647 3.93047 21.8751 3.44998 21.8751H3.41498C3.13884 21.8751 2.91498 21.6512 2.91498 21.3751V19.8401C2.91498 19.6072 3.07575 19.4051 3.30268 19.3528C3.69754 19.2618 3.97728 18.9103 3.97728 18.5051C3.97728 18.0998 3.69754 17.7483 3.30268 17.6573C3.07575 17.605 2.91498 17.4029 2.91498 17.1701V15.4801C2.91498 15.2456 3.07785 15.0427 3.30672 14.9919C3.70494 14.9036 3.98834 14.5505 3.98834 14.1426C3.98834 13.7347 3.70494 13.3815 3.30672 13.2932C3.07785 13.2424 2.91498 13.0395 2.91498 12.8051V11.1151C2.91498 10.8806 3.07785 10.6777 3.30672 10.6269C3.70494 10.5386 3.98834 10.1855 3.98834 9.77756C3.98834 9.36966 3.70494 9.01652 3.30672 8.9282C3.07785 8.87744 2.91498 8.67449 2.91498 8.44006V6.75006C2.91498 6.51563 3.07785 6.31268 3.30672 6.26192C3.70494 6.1736 3.98834 5.82046 3.98834 5.41256C3.98834 5.00466 3.70494 4.65152 3.30672 4.5632C3.07785 4.51244 2.91498 4.30949 2.91498 4.07506V2.54506C2.91498 2.26892 3.13884 2.04506 3.41498 2.04506H3.44998C3.92647 2.04506 4.31324 1.65972 4.31498 1.18323Z" fill="#4195B9"/>
<path fill-rule="evenodd" clip-rule="evenodd" d="M18.65 16.1899C16.8606 16.1899 15.41 17.6405 15.41 19.4299C15.41 21.2193 16.8606 22.6699 18.65 22.6699C20.4394 22.6699 21.89 21.2193 21.89 19.4299C21.89 17.6405 20.4394 16.1899 18.65 16.1899ZM14.41 19.4299C14.41 17.0883 16.3083 15.1899 18.65 15.1899C20.9917 15.1899 22.89 17.0883 22.89 19.4299C22.89 21.7716 20.9917 23.6699 18.65 23.6699C16.3083 23.6699 14.41 21.7716 14.41 19.4299Z" fill="#699C69"/>
</svg>
