<svg width="24" height="24" viewBox="0 0 24 24" fill="none" xmlns="http://www.w3.org/2000/svg">
<g clip-path="url(#clip0_146_379)">
<path fill-rule="evenodd" clip-rule="evenodd" d="M17.5363 0C17.5363 0 17.9401 4.59083 16.0869 8.42743C16.057 8.42659 16.0285 8.42642 16 8.42642C12.7294 8.42642 9.98275 10.6694 9.21425 13.701C5.63499 14.4775 3.52915 12.7086 3.52915 12.7086C3.52915 12.7086 2.1568 14.4681 1.58734 16.1768C1.58734 16.1768 0.280221 16.5485 0 15.1817C0.522678 14.2089 3.5167 9.00611 9.09751 6.35152C9.09751 6.35152 4.96544 7.46897 2.04737 9.99911C1.90919 8.62118 2.18812 5.94171 5.86232 4.13808C10.9955 1.61824 13.2433 3.63986 17.5363 0Z" fill="#699C69"/>
<path d="M16 7.42651C11.5817 7.42651 8 11.0082 8 15.4265C8 19.8448 11.5817 23.4265 16 23.4265C20.4183 23.4265 24 19.8448 24 15.4265C24 11.0082 20.4183 7.42651 16 7.42651ZM16 9.42651C19.3137 9.42651 22 12.1128 22 15.4265C22 18.7402 19.3137 21.4265 16 21.4265C12.6863 21.4265 10 18.7402 10 15.4265C10 12.1128 12.6863 9.42651 16 9.42651Z" fill="#699C69"/>
<path d="M15.81 13.27C15.57 13.27 15.3433 13.3 15.13 13.36C14.9167 13.42 14.68 13.5167 14.42 13.65L14 12.52C14.26 12.3533 14.5667 12.2267 14.92 12.14C15.2733 12.0467 15.62 12 15.96 12C16.3867 12 16.7367 12.0567 17.01 12.17C17.29 12.2833 17.51 12.4267 17.67 12.6C17.83 12.7733 17.94 12.9633 18 13.17C18.0667 13.3767 18.1 13.5733 18.1 13.76C18.1 13.9467 18.07 14.12 18.01 14.28C17.9567 14.4333 17.8867 14.5767 17.8 14.71C17.7133 14.8433 17.6133 14.97 17.5 15.09C17.3867 15.21 17.2767 15.3233 17.17 15.43C17.09 15.51 17.0067 15.5967 16.92 15.69C16.8333 15.7767 16.7533 15.87 16.68 15.97C16.6133 16.07 16.5567 16.1767 16.51 16.29C16.4633 16.3967 16.44 16.5067 16.44 16.62C16.44 16.6467 16.44 16.6867 16.44 16.74C16.44 16.7933 16.4433 16.84 16.45 16.88H15.13C15.1167 16.8133 15.1067 16.74 15.1 16.66C15.1 16.5733 15.1 16.5 15.1 16.44C15.1 16.2533 15.1233 16.0867 15.17 15.94C15.2167 15.7867 15.2767 15.6467 15.35 15.52C15.43 15.3867 15.52 15.2633 15.62 15.15C15.72 15.0367 15.8233 14.9267 15.93 14.82C16.0833 14.6667 16.2233 14.5167 16.35 14.37C16.4767 14.2167 16.54 14.0433 16.54 13.85C16.54 13.69 16.4767 13.5533 16.35 13.44C16.23 13.3267 16.05 13.27 15.81 13.27ZM16.74 18.3C16.74 18.5933 16.6433 18.82 16.45 18.98C16.2633 19.14 16.05 19.22 15.81 19.22C15.57 19.22 15.3533 19.14 15.16 18.98C14.9733 18.82 14.88 18.5933 14.88 18.3C14.88 18.0067 14.9733 17.78 15.16 17.62C15.3533 17.46 15.57 17.38 15.81 17.38C16.05 17.38 16.2633 17.46 16.45 17.62C16.6433 17.78 16.74 18.0067 16.74 18.3Z" fill="#699C69"/>
</g>
<defs>
<clipPath id="clip0_146_379">
<rect width="24" height="24" fill="white"/>
</clipPath>
</defs>
</svg>
