<svg width="24" height="24" viewBox="0 0 24 24" fill="none" xmlns="http://www.w3.org/2000/svg">
<g clip-path="url(#clip0_146_376)">
<path fill-rule="evenodd" clip-rule="evenodd" d="M17.5363 0C17.5363 0 17.9401 4.59083 16.0869 8.42743C16.057 8.42659 16.0285 8.42642 16 8.42642C12.7294 8.42642 9.98275 10.6694 9.21425 13.701C5.63499 14.4775 3.52915 12.7086 3.52915 12.7086C3.52915 12.7086 2.1568 14.4681 1.58734 16.1768C1.58734 16.1768 0.280221 16.5485 0 15.1817C0.522678 14.2089 3.5167 9.00611 9.09751 6.35152C9.09751 6.35152 4.96544 7.46897 2.04737 9.99911C1.90919 8.62118 2.18812 5.94171 5.86232 4.13808C10.9955 1.61824 13.2433 3.63986 17.5363 0Z" fill="#699C69"/>
<path d="M16 7.42651C11.5817 7.42651 8 11.0082 8 15.4265C8 19.8448 11.5817 23.4265 16 23.4265C20.4183 23.4265 24 19.8448 24 15.4265C24 11.0082 20.4183 7.42651 16 7.42651ZM16 9.42651C19.3137 9.42651 22 12.1128 22 15.4265C22 18.7402 19.3137 21.4265 16 21.4265C12.6863 21.4265 10 18.7402 10 15.4265C10 12.1128 12.6863 9.42651 16 9.42651Z" fill="#699C69"/>
<path fill-rule="evenodd" clip-rule="evenodd" d="M19.2468 12.2239C19.6754 12.5721 19.7406 13.2019 19.3924 13.6306L15.6457 18.2425C15.4649 18.465 15.1974 18.5992 14.9109 18.6111C14.6245 18.623 14.3468 18.5114 14.1482 18.3046L12.2787 16.3579C11.8962 15.9595 11.909 15.3265 12.3074 14.944C12.7057 14.5614 13.3387 14.5742 13.7213 14.9726L14.8069 16.1031L17.8401 12.3695C18.1883 11.9408 18.8181 11.8756 19.2468 12.2239Z" fill="#699C69"/>
</g>
<defs>
<clipPath id="clip0_146_376">
<rect width="24" height="24" fill="white"/>
</clipPath>
</defs>
</svg>
