<svg width="24" height="24" viewBox="0 0 24 24" fill="none" xmlns="http://www.w3.org/2000/svg">
<g clip-path="url(#clip0_146_378)">
<path fill-rule="evenodd" clip-rule="evenodd" d="M17.5363 0C17.5363 0 17.9401 4.59083 16.0869 8.42743C16.057 8.42659 16.0285 8.42642 16 8.42642C12.7294 8.42642 9.98275 10.6694 9.21425 13.701C5.63499 14.4775 3.52915 12.7086 3.52915 12.7086C3.52915 12.7086 2.1568 14.4681 1.58734 16.1768C1.58734 16.1768 0.280221 16.5485 0 15.1817C0.522678 14.2089 3.5167 9.00611 9.09751 6.35152C9.09751 6.35152 4.96544 7.46897 2.04737 9.99911C1.90919 8.62118 2.18812 5.94171 5.86232 4.13808C10.9955 1.61824 13.2433 3.63986 17.5363 0Z" fill="#699C69"/>
<path d="M16 7.42651C11.5817 7.42651 8 11.0082 8 15.4265C8 19.8448 11.5817 23.4265 16 23.4265C20.4183 23.4265 24 19.8448 24 15.4265C24 11.0082 20.4183 7.42651 16 7.42651ZM16 9.42651C19.3137 9.42651 22 12.1128 22 15.4265C22 18.7402 19.3137 21.4265 16 21.4265C12.6863 21.4265 10 18.7402 10 15.4265C10 12.1128 12.6863 9.42651 16 9.42651Z" fill="#699C69"/>
<path d="M16 11.0667C16.5523 11.0667 17 11.5144 17 12.0667V16.2229C17 16.7752 16.5523 17.2229 16 17.2229C15.4477 17.2229 15 16.7752 15 16.2229V12.0667C15 11.5144 15.4477 11.0667 16 11.0667Z" fill="#699C69"/>
<path d="M16 20C16.5523 20 17 19.5523 17 19C17 18.4477 16.5523 18 16 18C15.4477 18 15 18.4477 15 19C15 19.5523 15.4477 20 16 20Z" fill="#699C69"/>
</g>
<defs>
<clipPath id="clip0_146_378">
<rect width="24" height="24" fill="white"/>
</clipPath>
</defs>
</svg>
