<svg width="24" height="24" viewBox="0 0 24 24" fill="none" xmlns="http://www.w3.org/2000/svg">
<path d="M22.7633 4.55949C21.4373 5.27214 19.9519 5.59245 18.054 5.65791L17.5027 5.67001L16.8494 5.66933L16.1205 5.65483L14.165 5.59158L13.429 5.57645L12.9374 5.57409L12.4478 5.58023L11.9595 5.59682C7.60064 5.79903 4.81866 7.56862 2.90878 12.2749L2.88274 12.3562C2.81332 12.6512 3.02352 12.9054 3.28131 12.9567L3.33205 12.9619L3.08315 13.2062C2.81403 13.474 2.54906 13.754 2.28748 14.0461L1.93346 14.4508L1.58864 14.8621L1.0918 15.4819L0.62374 16.09C0.573774 16.1549 0.540525 16.2311 0.526917 16.3119C0.401392 17.0571 0.689186 18.0062 1.31242 18.4173L1.39004 18.4593C1.60303 18.5512 1.85739 18.4845 1.99589 18.2887L4.00305 15.4499L4.28539 15.6007L4.36775 15.6419L4.69402 15.7961L5.17471 16.0002L5.58736 16.1557L6.069 16.3164L6.5549 16.4577L6.96042 16.5606L7.37552 16.6526C7.52346 16.6829 7.66486 16.7096 7.80707 16.7343L8.23181 16.8011C15.2 17.7875 21.3084 14.005 23.4857 5.1189C23.5887 4.69831 23.1448 4.35448 22.7633 4.55949ZM22.016 5.98491L22.2391 5.89891L22.208 6.00853C19.9435 13.5619 14.5494 16.6855 8.37957 15.8121L7.97005 15.7477C7.84552 15.726 7.71416 15.7012 7.5837 15.6745L7.19098 15.5877L6.81526 15.4923L6.27856 15.3339L5.92237 15.2136L5.43 15.0248L5.10552 14.8848L4.71831 14.699L4.377 14.516L4.1217 14.3648L4.04454 14.3258C3.83347 14.2411 3.58616 14.3096 3.45055 14.5012L1.58005 17.1439L1.57015 17.1149C1.53138 16.9908 1.50675 16.8565 1.50034 16.7268L1.50105 16.5889L2.03648 15.899L2.36083 15.4975L2.69304 15.1011L3.03633 14.7088C5.73902 11.6905 8.78025 10.0753 13.2044 9.91315C13.8316 9.89017 13.8534 8.96791 13.228 8.91525L12.8266 8.88515C9.77414 8.68489 7.28739 9.18964 5.03587 10.5763L4.74605 10.7599L4.77323 10.7133C6.44335 7.84828 8.68265 6.7499 11.9998 6.59599L12.4713 6.5799L12.9414 6.57404L13.4165 6.57634L14.1386 6.59122L16.0944 6.65447L16.8376 6.66923L17.5894 6.66906L18.083 6.65747C19.5821 6.60579 20.8584 6.403 22.016 5.98491Z" fill="#699C69"/>
</svg>
